<?xml version="1.0" encoding="UTF-8" standalone="no"?>
<svg viewBox="0 0 1200 900"
 xmlns="http://www.w3.org/2000/svg" xmlns:xlink="http://www.w3.org/1999/xlink"  version="1.2" baseProfile="tiny">
<title>Qt SVG Document</title>
<desc>Generated with Qt</desc>
<defs>
</defs>
<g fill="none" stroke="black" stroke-width="1" fill-rule="evenodd" stroke-linecap="square" stroke-linejoin="bevel" >

<g fill="#ffffff" fill-opacity="1" stroke="none" transform="matrix(1,0,0,1,0,0)"
font-family="Ubuntu" font-size="12.2222" font-weight="400" font-style="normal" 
>
<rect x="0" y="0" width="1200" height="900"/>
</g>

<g fill="none" stroke="#000000" stroke-opacity="1" stroke-width="1" stroke-linecap="square" stroke-linejoin="bevel" transform="matrix(1,0,0,1,0,0)"
font-family="Ubuntu" font-size="12.2222" font-weight="400" font-style="normal" 
>
</g>

<g fill="none" stroke="#000000" stroke-opacity="1" stroke-width="1" stroke-linecap="square" stroke-linejoin="bevel" transform="matrix(0.833333,0,0,0.833333,0,0)"
font-family="Ubuntu" font-size="12.2222" font-weight="400" font-style="normal" 
>
</g>

<g fill="#ffffff" fill-opacity="1" stroke="none" transform="matrix(0.833333,0,0,0.833333,0,0)"
font-family="Ubuntu" font-size="12.2222" font-weight="400" font-style="normal" 
>
<rect x="38" y="0" width="1369" height="1038"/>
</g>

<g fill="none" stroke="#000000" stroke-opacity="1" stroke-width="1" stroke-linecap="square" stroke-linejoin="bevel" transform="matrix(0.833333,0,0,0.833333,0,0)"
font-family="Ubuntu" font-size="12.2222" font-weight="400" font-style="normal" 
>
</g>

<g fill="none" stroke="#000000" stroke-opacity="1" stroke-width="1" stroke-linecap="square" stroke-linejoin="bevel" transform="matrix(0.833333,0,0,0.833333,0,0)"
font-family="Ubuntu" font-size="12.2222" font-weight="400" font-style="normal" 
>
</g>

<g fill="none" stroke="#a0a0a4" stroke-opacity="1" stroke-dasharray="1,2" stroke-dashoffset="0" stroke-width="1" stroke-linecap="butt" stroke-linejoin="bevel" transform="matrix(0.833333,0,0,0.833333,0,0)"
font-family="Ubuntu" font-size="12.2222" font-weight="400" font-style="normal" 
>
<polyline fill="none" vector-effect="non-scaling-stroke" points="64.6648,0 64.6648,1038 " />
<polyline fill="none" vector-effect="non-scaling-stroke" points="163.985,0 163.985,1038 " />
<polyline fill="none" vector-effect="non-scaling-stroke" points="263.305,0 263.305,1038 " />
<polyline fill="none" vector-effect="non-scaling-stroke" points="362.625,0 362.625,1038 " />
<polyline fill="none" vector-effect="non-scaling-stroke" points="461.945,0 461.945,1038 " />
<polyline fill="none" vector-effect="non-scaling-stroke" points="561.265,0 561.265,1038 " />
<polyline fill="none" vector-effect="non-scaling-stroke" points="660.585,0 660.585,1038 " />
<polyline fill="none" vector-effect="non-scaling-stroke" points="759.905,0 759.905,1038 " />
<polyline fill="none" vector-effect="non-scaling-stroke" points="859.225,0 859.225,1038 " />
<polyline fill="none" vector-effect="non-scaling-stroke" points="958.545,0 958.545,1038 " />
<polyline fill="none" vector-effect="non-scaling-stroke" points="1057.87,0 1057.87,1038 " />
<polyline fill="none" vector-effect="non-scaling-stroke" points="1157.19,0 1157.19,1038 " />
<polyline fill="none" vector-effect="non-scaling-stroke" points="1256.51,0 1256.51,1038 " />
<polyline fill="none" vector-effect="non-scaling-stroke" points="1355.83,0 1355.83,1038 " />
<polyline fill="none" vector-effect="non-scaling-stroke" points="114.325,0 114.325,1038 " />
<polyline fill="none" vector-effect="non-scaling-stroke" points="312.965,0 312.965,1038 " />
<polyline fill="none" vector-effect="non-scaling-stroke" points="511.605,0 511.605,1038 " />
<polyline fill="none" vector-effect="non-scaling-stroke" points="710.245,0 710.245,1038 " />
<polyline fill="none" vector-effect="non-scaling-stroke" points="908.885,0 908.885,1038 " />
<polyline fill="none" vector-effect="non-scaling-stroke" points="1107.53,0 1107.53,1038 " />
<polyline fill="none" vector-effect="non-scaling-stroke" points="1306.17,0 1306.17,1038 " />
<polyline fill="none" vector-effect="non-scaling-stroke" points="38,978.975 1407,978.975 " />
<polyline fill="none" vector-effect="non-scaling-stroke" points="38,945.522 1407,945.522 " />
<polyline fill="none" vector-effect="non-scaling-stroke" points="38,912.068 1407,912.068 " />
<polyline fill="none" vector-effect="non-scaling-stroke" points="38,878.615 1407,878.615 " />
<polyline fill="none" vector-effect="non-scaling-stroke" points="38,811.708 1407,811.708 " />
<polyline fill="none" vector-effect="non-scaling-stroke" points="38,778.254 1407,778.254 " />
<polyline fill="none" vector-effect="non-scaling-stroke" points="38,744.801 1407,744.801 " />
<polyline fill="none" vector-effect="non-scaling-stroke" points="38,711.347 1407,711.347 " />
<polyline fill="none" vector-effect="non-scaling-stroke" points="38,644.441 1407,644.441 " />
<polyline fill="none" vector-effect="non-scaling-stroke" points="38,610.987 1407,610.987 " />
<polyline fill="none" vector-effect="non-scaling-stroke" points="38,577.534 1407,577.534 " />
<polyline fill="none" vector-effect="non-scaling-stroke" points="38,544.08 1407,544.08 " />
<polyline fill="none" vector-effect="non-scaling-stroke" points="38,477.173 1407,477.173 " />
<polyline fill="none" vector-effect="non-scaling-stroke" points="38,443.72 1407,443.72 " />
<polyline fill="none" vector-effect="non-scaling-stroke" points="38,410.266 1407,410.266 " />
<polyline fill="none" vector-effect="non-scaling-stroke" points="38,376.813 1407,376.813 " />
<polyline fill="none" vector-effect="non-scaling-stroke" points="38,309.906 1407,309.906 " />
<polyline fill="none" vector-effect="non-scaling-stroke" points="38,276.452 1407,276.452 " />
<polyline fill="none" vector-effect="non-scaling-stroke" points="38,242.999 1407,242.999 " />
<polyline fill="none" vector-effect="non-scaling-stroke" points="38,209.545 1407,209.545 " />
<polyline fill="none" vector-effect="non-scaling-stroke" points="38,142.639 1407,142.639 " />
<polyline fill="none" vector-effect="non-scaling-stroke" points="38,109.185 1407,109.185 " />
<polyline fill="none" vector-effect="non-scaling-stroke" points="38,75.7316 1407,75.7316 " />
<polyline fill="none" vector-effect="non-scaling-stroke" points="38,42.2781 1407,42.2781 " />
<polyline fill="none" vector-effect="non-scaling-stroke" points="213.645,0 213.645,1038 " />
<polyline fill="none" vector-effect="non-scaling-stroke" points="412.285,0 412.285,1038 " />
<polyline fill="none" vector-effect="non-scaling-stroke" points="610.925,0 610.925,1038 " />
<polyline fill="none" vector-effect="non-scaling-stroke" points="809.565,0 809.565,1038 " />
<polyline fill="none" vector-effect="non-scaling-stroke" points="1008.21,0 1008.21,1038 " />
<polyline fill="none" vector-effect="non-scaling-stroke" points="1206.85,0 1206.85,1038 " />
<polyline fill="none" vector-effect="non-scaling-stroke" points="1405.49,0 1405.49,1038 " />
<polyline fill="none" vector-effect="non-scaling-stroke" points="38,1012.43 1407,1012.43 " />
<polyline fill="none" vector-effect="non-scaling-stroke" points="38,845.161 1407,845.161 " />
<polyline fill="none" vector-effect="non-scaling-stroke" points="38,677.894 1407,677.894 " />
<polyline fill="none" vector-effect="non-scaling-stroke" points="38,510.627 1407,510.627 " />
<polyline fill="none" vector-effect="non-scaling-stroke" points="38,343.359 1407,343.359 " />
<polyline fill="none" vector-effect="non-scaling-stroke" points="38,176.092 1407,176.092 " />
<polyline fill="none" vector-effect="non-scaling-stroke" points="38,8.82465 1407,8.82465 " />
</g>

<g fill="none" stroke="#000000" stroke-opacity="1" stroke-width="1" stroke-linecap="square" stroke-linejoin="bevel" transform="matrix(0.833333,0,0,0.833333,0,0)"
font-family="Ubuntu" font-size="12.2222" font-weight="400" font-style="normal" 
>
</g>

<g fill="none" stroke="#000000" stroke-opacity="1" stroke-width="1" stroke-linecap="square" stroke-linejoin="bevel" transform="matrix(0.833333,0,0,0.833333,0,0)"
font-family="Ubuntu" font-size="12.2222" font-weight="400" font-style="normal" 
>
</g>

<g fill="none" stroke="#f14cc1" stroke-opacity="1" stroke-width="1.3" stroke-linecap="square" stroke-linejoin="bevel" transform="matrix(0.833333,0,0,0.833333,0,0)"
font-family="Ubuntu" font-size="12.2222" font-weight="400" font-style="normal" 
>
<polyline fill="none" vector-effect="none" points="39,508.772 39.2677,508.768 39.8632,508.772 40.361,508.768 40.8565,508.768 41.3562,508.768 41.9511,508.768 42.4476,508.772 42.9425,508.768 43.5385,508.768 44.0358,508.772 44.5319,508.772 45.0305,508.772 45.6256,508.768 46.121,508.768 46.6199,508.768 47.1153,508.768 47.7094,508.768 48.207,508.768 48.7019,508.772 49.2995,508.768 49.8964,508.768 50.3915,508.768 50.8871,508.772 51.4851,508.768 51.9804,508.772 52.477,508.768 52.9731,508.772 53.5729,508.772 54.0658,508.768 54.6613,508.772 55.1584,508.768 55.6541,508.768 56.2507,508.772 56.5495,508.772 57.0453,508.768 57.6422,508.768 58.1386,508.768 58.6348,508.768 59.2311,508.772 59.8279,508.768 60.3257,508.772 60.8189,508.772 61.3159,508.768 61.8133,508.768 62.4096,508.768 62.9056,508.768 63.4022,508.768 63.9975,508.768 64.4952,508.768 64.9915,508.768 65.4865,508.768 66.0842,508.768 66.5804,508.768 67.0779,508.768 67.5749,508.768 68.1716,508.768 68.6658,508.768 69.1619,508.768 69.66,508.772 70.2537,508.768 70.7518,508.768 71.3485,508.768 71.8451,508.772 72.4401,508.768 72.9367,508.772 73.4345,508.772 73.9303,508.768 74.5262,508.768 75.0219,508.772 75.5201,508.772 76.115,508.768 76.612,508.772 77.1086,508.768 77.7042,508.768 78.2001,508.768 78.7976,508.768 79.2946,508.768 79.789,508.772 80.2868,508.768 80.8819,508.768 81.4777,508.772 81.9746,508.768 82.4703,508.768 82.9669,508.768 83.5617,508.772 84.159,508.768 84.6571,508.768 85.1536,508.772 85.6482,508.772 86.1437,508.772 86.8423,508.768 87.2388,508.768 87.8344,508.768 88.4303,508.768 88.9266,508.768 89.5232,508.772 89.918,508.768 90.5171,508.768 91.0125,508.772 91.6086,508.768 92.1072,508.768 92.7022,508.768 93.1984,508.768 93.8911,508.772 94.2911,508.772 94.7866,508.768 95.3824,508.772 95.8781,508.768 96.3759,508.995 96.9723,510.226 97.568,512.626 98.0641,516.271 98.5608,521.316 99.2564,528.681 99.654,536.323 100.149,545.121 100.746,554.941 101.242,565.799 101.838,579.365 102.436,592.074 102.931,606.595 103.427,620.687 103.925,635.447 104.522,651.847 105.016,667.451 105.513,682.113 105.911,697.024 106.506,715.727 107.102,733.3 107.599,749.561 108.194,766.962 108.691,782.854 109.187,797.289 109.685,812.522 110.28,827.469 110.777,841.897 111.275,855.83 111.771,870.194 112.367,883.798 112.865,895.921 113.359,908.128 113.956,918.765 114.452,929.465 115.048,939.35 115.544,947.884 116.041,955.78 116.637,963.456 117.134,969.916 117.729,976.188 118.326,982.26 118.823,987.304 119.516,992.18 120.016,995.954 120.61,998.981 121.105,1001.34 121.603,1003.67 122.2,1006.05 122.696,1007.54 123.191,1008.86 123.688,1009.88 124.285,1010.89 124.782,1011.6 125.377,1011.99 125.874,1012.26 126.371,1012.33 126.967,1012.31 127.465,1012.25 128.159,1012.04 128.556,1011.72 129.052,1011.35 129.55,1011 130.144,1010.54 130.64,1010.21 131.336,1009.71 131.832,1009.17 132.33,1008.61 132.926,1007.99 133.424,1007.43 133.919,1006.77 134.515,1006.11 135.01,1005.48 135.707,1004.75 136.205,1004.04 136.701,1003.41 137.198,1002.76 137.693,1002.12 138.289,1001.5 138.786,1000.89 139.379,1000.25 139.877,999.672 140.474,999.091 140.968,998.521 141.467,998.047 142.062,997.592 142.46,997.188 143.055,996.82 143.75,996.458 144.15,996.187 144.643,995.97 145.242,995.834 145.739,995.762 146.232,995.712 146.831,995.618 147.327,995.471 147.824,995.302 148.318,995.05 148.915,994.728 149.513,994.392 150.108,993.945 150.604,993.502 151.202,992.999 151.695,992.45 152.194,991.905 152.791,991.332 153.186,990.784 153.782,990.061 154.378,989.46 154.875,988.819 155.372,988.125 155.769,987.636 156.367,986.873 156.961,986.226 157.555,985.585 157.955,985.004 158.549,984.301 159.046,983.675 159.644,982.989 160.14,982.456 160.734,981.891 161.232,981.397 161.828,980.907 162.324,980.506 162.92,980.099 163.416,979.772 164.013,979.492 164.608,979.264 165.005,979.117 165.601,979.038 166.099,978.985 166.596,978.912 167.092,978.768 167.688,978.597 168.185,978.357 168.779,978.101 169.179,977.804 169.674,977.431 170.172,977.012 170.767,976.537 171.263,976.063 171.86,975.425 172.354,974.83 172.952,974.257 173.448,973.621 173.946,973.02 174.542,972.278 175.037,971.655 175.633,971.004 176.23,970.266 176.828,969.55 177.323,968.879 177.817,968.24 178.412,967.591 178.909,966.941 179.505,966.358 180.003,965.781 180.499,965.242 181.095,964.699 181.592,964.251 182.088,963.829 182.585,963.457 183.181,963.113 183.778,962.799 184.373,962.59 184.871,962.421 185.367,962.32 185.961,962.25 186.458,962.174 186.955,962.061 187.452,961.89 188.048,961.621 188.543,961.346 189.139,961.018 189.637,960.646 190.133,960.254 190.73,959.716 191.226,959.213 191.723,958.677 192.319,958.106 192.815,957.472 193.31,956.879 193.809,956.257 194.405,955.572 195.001,954.883 195.497,954.291 195.993,953.631 196.588,952.984 197.085,952.297 197.582,951.631 198.078,951.048 198.676,950.333 199.27,949.717 199.768,949.126 200.264,948.585 200.763,948.118 201.356,947.668 201.853,947.227 202.35,946.807 202.946,946.438 203.441,946.165 203.938,945.923 204.535,945.741 205.03,945.622 205.529,945.551 206.123,945.479 206.72,945.366 207.214,945.193 207.812,944.949 208.307,944.68 208.805,944.378 209.401,944.004 209.898,943.564 210.394,943.129 210.99,942.636 211.488,942.081 211.983,941.493 212.479,940.945 213.078,940.354 213.671,939.63 214.169,939.011 214.765,938.308 215.261,937.616 215.857,936.903 216.353,936.253 216.95,935.483 217.546,934.732 218.142,934.088 218.838,933.385 219.234,932.822 219.83,932.23 220.327,931.664 220.923,931.148 221.419,930.683 222.015,930.288 222.413,929.951 222.909,929.628 223.505,929.334 224.001,929.13 224.497,928.965 225.093,928.886 225.591,928.816 226.086,928.746 226.584,928.63 227.079,928.466 227.675,928.221 228.272,927.931 228.767,927.582 229.364,927.187 229.86,926.733 230.456,926.236 230.954,925.727 231.451,925.211 232.046,924.674 232.544,924.075 233.038,923.416 233.536,922.818 234.132,922.164 234.627,921.466 235.124,920.825 235.721,920.168 236.217,919.509 236.813,918.728 237.31,918.163 237.807,917.536 238.402,916.907 238.898,916.342 239.395,915.754 239.991,915.219 240.489,914.665 240.983,914.242 241.58,913.741 242.077,913.349 242.574,913.034 243.269,912.734 243.766,912.449 244.261,912.277 244.857,912.151 245.354,912.081 245.85,912.03 246.446,911.914 247.043,911.705 247.539,911.492 248.235,911.151 248.73,910.804 249.326,910.412 249.823,909.947 250.42,909.438 250.915,908.933 251.411,908.376 252.009,907.835 252.405,907.258 253.002,906.603 253.598,905.97 254.093,905.32 254.593,904.685 255.088,903.999 255.683,903.394 256.181,902.649 256.777,901.964 257.274,901.401 257.771,900.724 258.265,900.138 258.861,899.562 259.359,898.984 259.855,898.498 260.352,897.962 260.848,897.481 261.446,897.047 262.041,896.608 262.635,896.229 263.134,895.929 263.629,895.718 264.126,895.541 264.622,895.441 265.119,895.375 265.616,895.322 266.212,895.207 266.711,895.047 267.205,894.857 267.801,894.57 268.298,894.271 268.794,893.945 269.29,893.541 269.885,893.08 270.382,892.592 270.879,892.069 271.476,891.535 271.972,890.959 272.469,890.327 273.064,889.77 273.56,889.097 274.058,888.484 274.554,887.77 275.149,887.124 275.648,886.486 276.242,885.74 276.839,885.11 277.336,884.391 277.83,883.782 278.427,883.179 278.923,882.554 279.519,881.971 280.016,881.445 280.513,880.962 281.108,880.505 281.607,880.073 282.102,879.728 282.598,879.397 283.195,879.112 283.691,878.897 284.19,878.769 284.685,878.675 285.28,878.603 285.778,878.552 286.274,878.416 286.87,878.247 287.368,877.99 287.964,877.692 288.459,877.357 288.956,876.969 289.453,876.541 290.048,876.036 290.545,875.55 291.042,875.026 291.638,874.472 292.135,873.846 292.629,873.247 293.227,872.642 293.723,872.003 294.32,871.307 294.816,870.605 295.315,869.976 295.809,869.325 296.406,868.675 296.903,868.026 297.398,867.401 297.994,866.758 298.49,866.13 298.987,865.557 299.483,865.026 300.081,864.524 300.677,863.977 301.172,863.566 301.669,863.156 302.266,862.821 302.761,862.506 303.357,862.294 303.854,862.103 304.35,861.98 305.048,861.904 305.644,861.835 306.138,861.72 306.636,861.517 307.232,861.303 307.827,860.986 308.223,860.672 308.72,860.332 309.317,859.856 309.816,859.426 310.409,858.877 310.904,858.344 311.404,857.798 311.899,857.222 312.495,856.623 312.993,855.955 313.487,855.309 314.084,854.612 314.58,853.972 315.076,853.322 315.672,852.676 316.171,851.956 316.766,851.31 317.262,850.642 317.857,850.027 318.355,849.449 318.85,848.92 319.348,848.392 319.844,847.843 320.44,847.364 320.939,846.911 321.433,846.512 322.028,846.125 322.626,845.815 323.123,845.593 323.618,845.398 324.213,845.282 324.712,845.19 325.208,845.121 325.803,845.033 326.302,844.893 326.797,844.685 327.394,844.416 327.891,844.121 328.384,843.769 328.886,843.358 329.378,842.971 329.875,842.482 330.37,841.975 330.968,841.411 331.565,840.792 332.06,840.194 332.557,839.596 333.055,838.977 333.55,838.34 334.045,837.742 334.642,837.12 335.137,836.449 335.636,835.71 336.231,835.115 336.729,834.447 337.225,833.823 337.72,833.211 338.317,832.637 338.914,832.045 339.411,831.5 339.905,830.974 340.405,830.497 340.998,830.063 341.496,829.644 342.093,829.288 342.589,829.002 343.084,828.809 343.681,828.622 344.178,828.52 344.775,828.449 345.268,828.378 345.864,828.264 346.261,828.103 346.857,827.827 347.453,827.567 347.951,827.225 348.447,826.825 349.043,826.348 349.641,825.871 350.138,825.35 350.631,824.827 351.329,824.234 351.823,823.659 352.221,823.047 352.718,822.451 353.413,821.731 353.912,821.073 354.407,820.43 354.802,819.885 355.399,819.243 355.898,818.553 356.394,817.914 356.989,817.233 357.487,816.633 358.083,815.978 358.577,815.414 359.075,814.884 359.57,814.387 360.166,813.869 360.665,813.441 361.161,813.04 361.755,812.681 362.256,812.373 362.851,812.138 363.347,811.947 363.842,811.806 364.44,811.731 364.934,811.682 365.531,811.589 366.028,811.429 366.524,811.229 367.02,810.966 367.517,810.675 368.113,810.298 368.709,809.846 369.307,809.326 369.802,808.849 370.297,808.312 370.895,807.767 371.392,807.215 371.988,806.576 372.482,805.91 373.178,805.135 373.677,804.385 374.37,803.645 374.866,802.987 375.364,802.39 375.859,801.772 376.357,801.119 376.853,800.5 377.35,799.89 377.944,799.258 378.442,798.736 378.938,798.152 379.435,797.651 380.131,797.137 380.628,796.685 381.124,796.303 381.621,795.954 382.217,795.626 382.812,795.365 383.309,795.196 383.805,795.071 384.401,795.005 384.899,794.955 385.395,794.843 385.889,794.706 386.488,794.459 386.983,794.221 387.482,793.931 387.976,793.55 388.572,793.151 389.07,792.704 389.567,792.23 390.064,791.729 390.56,791.189 391.155,790.641 391.653,790.035 392.149,789.424 392.744,788.717 393.242,788.076 393.737,787.422 394.432,786.67 395.028,785.919 395.625,785.187 396.121,784.502 396.716,783.841 397.215,783.166 397.71,782.581 398.305,781.988 398.803,781.446 399.398,780.933 399.796,780.479 400.392,780.033 400.986,779.589 401.485,779.233 401.98,778.911 402.579,778.675 403.073,778.503 403.669,778.362 404.168,778.272 404.564,778.243 405.161,778.153 405.656,778.002 406.154,777.816 406.649,777.577 407.244,777.227 407.742,776.913 408.339,776.493 408.833,776.065 409.33,775.596 409.926,775.037 410.422,774.498 410.921,773.982 411.415,773.363 412.011,772.71 412.508,772.03 413.105,771.35 413.601,770.694 414.197,770.075 414.694,769.355 415.19,768.715 415.786,768.078 416.283,767.334 416.878,766.719 417.476,766.068 417.971,765.505 418.468,764.921 419.064,764.359 419.66,763.841 420.059,763.379 420.653,763.002 421.148,762.627 421.645,762.321 422.241,762.062 422.64,761.852 423.236,761.685 423.833,761.587 424.428,761.518 424.923,761.449 425.519,761.291 426.017,761.092 426.513,760.837 427.108,760.552 427.606,760.19 428.101,759.793 428.699,759.371 429.197,758.856 429.691,758.343 430.287,757.824 430.784,757.263 431.279,756.633 431.877,755.978 432.373,755.347 432.868,754.765 433.367,754.069 433.965,753.432 434.458,752.711 434.954,752.127 435.451,751.475 436.047,750.845 436.546,750.237 437.04,749.561 437.637,748.996 438.136,748.43 438.73,747.822 439.225,747.33 439.724,746.819 440.317,746.374 440.916,745.994 441.409,745.643 442.007,745.365 442.503,745.111 442.999,744.964 443.595,744.854 444.093,744.822 444.59,744.735 445.286,744.603 445.781,744.423 446.277,744.169 446.873,743.906 447.47,743.552 447.868,743.198 448.363,742.73 448.959,742.266 449.455,741.751 450.051,741.1 450.646,740.473 451.244,739.84 451.84,739.189 452.335,738.561 452.834,737.871 453.528,737.139 454.025,736.488 454.321,735.979 454.916,735.347 455.513,734.619 456.011,733.971 456.507,733.315 457.101,732.633 457.701,732.052 458.195,731.556 458.691,730.981 459.189,730.513 459.787,729.975 460.481,729.49 460.977,729.12 461.574,728.795 462.068,728.514 462.665,728.303 463.261,728.164 463.856,728.112 464.253,728.045 464.85,727.935 465.348,727.78 465.944,727.552 466.439,727.296 466.935,726.969 467.531,726.61 468.028,726.17 468.525,725.746 469.12,725.258 469.715,724.653 470.313,723.98 470.911,723.347 471.405,722.682 472,722.069 472.597,721.349 473.094,720.7 473.59,720.046 474.286,719.368 474.684,718.721 475.18,718.072 475.774,717.333 476.37,716.681 476.869,716.076 477.364,715.496 477.862,714.938 478.459,714.361 478.954,713.871 479.548,713.412 479.945,713.009 480.442,712.615 480.939,712.294 481.535,711.967 482.133,711.735 482.628,711.548 483.226,711.428 483.72,711.359 484.321,711.29 484.814,711.2 485.41,711.005 485.809,710.798 486.402,710.515 487,710.159 487.692,709.67 488.191,709.206 488.787,708.716 489.283,708.18 489.878,707.553 490.475,706.995 490.973,706.38 491.467,705.747 492.064,705.123 492.562,704.431 493.056,703.787 493.654,703.09 494.248,702.3 494.844,701.65 495.341,700.958 495.937,700.329 496.434,699.721 497.029,699.143 497.426,698.562 497.923,697.981 498.52,697.468 499.016,696.963 499.611,696.479 500.107,696.031 500.603,695.708 501.2,695.386 501.797,695.086 502.294,694.897 502.79,694.756 503.387,694.688 503.782,694.619 504.18,694.556 504.678,694.447 505.273,694.245 505.771,694.04 506.364,693.752 506.864,693.451 507.358,693.078 507.857,692.662 508.452,692.154 508.947,691.626 509.444,691.162 510.041,690.559 510.638,689.89 511.133,689.309 511.829,688.639 512.228,688.011 512.722,687.361 513.318,686.649 513.816,685.973 514.311,685.323 514.907,684.674 515.502,683.955 516,683.287 516.597,682.729 516.995,682.149 517.589,681.594 518.085,681.063 518.583,680.56 519.178,680.032 519.675,679.572 520.173,679.199 520.667,678.856 521.263,678.531 521.86,678.295 522.355,678.113 522.852,677.994 523.447,677.904 524.044,677.856 524.543,677.747 525.037,677.553 525.634,677.344 526.132,677.044 526.626,676.74 527.223,676.385 527.818,675.969 528.216,675.507 528.713,675.024 529.21,674.495 529.805,673.961 530.301,673.359 530.897,672.761 531.393,672.157 531.892,671.532 532.387,670.887 532.884,670.196 533.38,669.596 533.976,668.95 534.472,668.307 535.07,667.508 535.664,666.859 536.26,666.128 536.758,665.551 537.353,664.945 537.849,664.441 538.346,663.912 538.845,663.421 539.44,662.898 539.936,662.504 540.531,662.171 541.028,661.853 541.525,661.597 542.021,661.412 542.517,661.292 543.113,661.201 543.709,661.134 544.306,661.043 544.803,660.89 545.298,660.688 545.795,660.437 546.29,660.135 546.788,659.825 547.385,659.404 547.88,658.967 548.477,658.44 548.873,657.999 549.47,657.42 549.967,656.871 550.563,656.224 551.061,655.563 551.653,654.942 552.152,654.317 552.647,653.718 553.145,653.073 553.64,652.379 554.037,651.872 554.634,651.226 555.132,650.602 555.627,649.914 556.224,649.296 556.721,648.671 557.217,648.12 557.812,647.545 558.408,647.038 558.906,646.578 559.304,646.17 559.9,645.754 560.395,645.406 560.991,645.067 561.586,644.814 562.084,644.645 562.68,644.528 563.175,644.46 563.673,644.41 564.17,644.305 564.765,644.128 565.361,643.906 565.757,643.655 566.457,643.303 566.951,642.89 567.447,642.492 568.045,641.962 568.641,641.385 569.135,640.875 569.732,640.303 570.229,639.681 570.725,639.063 571.322,638.459 571.817,637.817 572.314,637.174 572.808,636.528 573.405,635.789 574.002,635.128 574.498,634.483 574.995,633.864 575.592,633.181 576.088,632.563 576.584,631.942 577.08,631.393 577.678,630.86 578.174,630.268 578.771,629.851 579.268,629.386 579.864,628.948 580.361,628.626 580.955,628.283 581.55,628.072 582.048,627.91 582.543,627.795 583.14,627.725 583.635,627.658 584.232,627.549 584.728,627.349 585.323,627.126 585.82,626.826 586.317,626.522 586.915,626.125 587.411,625.689 588.005,625.204 588.504,624.655 588.999,624.147 589.595,623.571 590.19,622.907 590.69,622.311 591.185,621.693 591.684,621.073 592.278,620.412 592.773,619.748 593.271,619.105 593.765,618.444 594.362,617.706 594.859,617.086 595.354,616.464 595.951,615.754 596.546,615.131 597.045,614.578 597.641,614.006 598.138,613.521 598.635,613.043 599.13,612.649 599.726,612.217 600.423,611.872 600.816,611.575 601.314,611.367 601.911,611.161 602.506,611.063 603.002,610.996 603.599,610.93 603.997,610.862 604.494,610.669 605.089,610.426 605.586,610.17 606.081,609.864 606.579,609.514 607.175,609.033 607.773,608.574 608.366,608.023 608.863,607.475 609.361,606.882 609.856,606.325 610.453,605.713 610.95,605.044 611.445,604.408 611.942,603.83 612.539,603.141 613.134,602.366 613.73,601.702 614.226,601.034 614.724,600.365 615.317,599.7 615.916,599.04 616.411,598.469 616.907,597.915 617.405,597.412 617.902,596.868 618.398,596.405 618.993,595.947 619.49,595.557 620.086,595.188 620.683,594.868 621.178,594.639 621.775,594.452 622.271,594.358 622.768,594.287 623.362,594.202 623.96,594.07 624.458,593.895 624.953,593.67 625.55,593.414 626.046,593.066 626.641,592.678 627.138,592.262 627.634,591.804 628.131,591.321 628.627,590.819 629.124,590.242 629.722,589.671 630.315,588.983 630.814,588.368 631.309,587.7 631.906,587.062 632.403,586.4 632.9,585.76 633.494,585.07 633.993,584.382 634.588,583.697 635.083,583.011 635.678,582.399 636.177,581.822 636.674,581.271 637.268,580.636 637.767,580.132 638.361,579.605 638.858,579.172 639.353,578.826 639.951,578.461 640.447,578.144 640.945,577.931 641.54,577.746 642.134,577.628 642.632,577.558 643.128,577.49 643.624,577.403 644.421,577.204 644.916,576.965 645.413,576.687 645.911,576.342 646.406,575.972 647.001,575.556 647.5,575.096 647.996,574.612 648.492,574.068 649.089,573.492 649.585,572.853 650.08,572.286 650.579,571.683 651.174,571.066 651.674,570.428 652.166,569.74 652.762,569.082 653.261,568.438 653.658,567.955 654.153,567.247 654.749,566.565 655.245,565.969 655.842,565.371 656.339,564.737 656.835,564.207 657.331,563.701 657.926,563.177 658.424,562.721 659.119,562.238 659.617,561.848 660.212,561.489 660.71,561.275 661.206,561.09 661.803,560.932 662.296,560.86 662.794,560.775 663.391,560.684 663.887,560.556 664.382,560.36 664.88,560.112 665.476,559.814 666.073,559.418 666.467,559.07 667.064,558.63 667.559,558.153 668.158,557.65 668.556,557.141 669.15,556.524 669.648,555.951 670.144,555.337 670.741,554.627 671.235,553.989 671.831,553.32 672.328,552.659 672.823,552.016 673.421,551.358 673.917,550.721 674.513,550.08 675.009,549.42 675.607,548.755 676.103,548.135 676.599,547.542 677.194,547.036 677.692,546.515 678.286,546.036 678.783,545.58 679.379,545.194 679.876,544.89 680.473,544.616 681.068,544.346 681.566,544.227 682.061,544.133 682.558,544.086 683.153,543.981 683.651,543.85 684.247,543.675 684.643,543.447 685.238,543.149 685.735,542.821 686.332,542.405 686.83,542.016 687.326,541.514 687.921,540.988 688.417,540.462 688.914,539.913 689.511,539.293 690.006,538.589 690.503,538.015 690.998,537.375 691.497,536.785 692.093,536.052 692.689,535.341 693.283,534.633 693.881,533.993 694.378,533.357 694.774,532.722 695.372,532.039 695.969,531.399 696.463,530.849 696.959,530.326 697.456,529.844 698.052,529.385 698.55,528.956 699.045,528.584 699.541,528.246 700.139,527.948 700.635,527.737 701.131,527.553 701.727,527.435 702.223,527.368 702.821,527.298 703.215,527.21 703.813,527.059 704.309,526.837 704.806,526.548 705.401,526.265 705.898,525.896 706.395,525.461 706.991,524.975 707.488,524.493 708.084,523.967 708.582,523.394 709.077,522.804 709.672,522.12 710.269,521.474 710.765,520.823 711.36,520.14 711.857,519.517 712.454,518.699 712.95,518.06 713.546,517.399 714.044,516.809 714.539,516.196 715.036,515.554 715.633,514.96 716.127,514.387 716.627,513.858 717.123,513.356 717.618,512.876 718.114,512.461 718.611,512.066 719.206,511.677 719.703,511.359 720.298,511.087 720.795,510.883 721.392,510.743 721.888,510.652 722.484,510.602 723.082,510.494 723.578,510.343 724.075,510.145 724.67,509.85 725.166,509.57 725.762,509.154 726.359,508.724 726.853,508.222 727.45,507.652 728.045,507.103 728.643,506.58 729.038,506.007 729.536,505.414 730.131,504.78 730.629,504.178 731.126,503.518 731.622,502.831 732.218,502.171 732.715,501.498 733.312,500.823 733.807,500.09 734.403,499.474 734.901,498.831 735.496,498.259 735.891,497.671 736.489,497.172 737.085,496.556 737.581,496.053 738.177,495.621 738.673,495.206 739.269,494.843 739.865,494.525 740.362,494.294 740.858,494.13 741.355,494.013 741.851,493.922 742.348,493.872 742.945,493.785 743.441,493.657 743.937,493.438 744.435,493.19 744.93,492.936 745.428,492.591 745.924,492.196 746.521,491.734 747.116,491.208 747.613,490.641 748.108,490.091 748.704,489.518 749.201,488.924 749.796,488.281 750.294,487.665 750.792,487.025 751.287,486.338 751.883,485.695 752.382,485.038 752.876,484.418 753.375,483.873 753.868,483.236 754.365,482.619 754.965,481.914 755.559,481.269 756.053,480.716 756.552,480.19 757.046,479.673 757.644,479.231 758.143,478.802 758.738,478.407 759.234,478.027 759.728,477.77 760.327,477.521 760.824,477.34 761.419,477.243 762.013,477.177 762.513,477.109 763.01,476.978 763.505,476.823 764.199,476.535 764.696,476.257 765.192,475.888 765.788,475.472 766.382,475.01 766.88,474.486 767.477,473.917 768.074,473.367 768.567,472.774 769.066,472.184 769.661,471.544 770.158,470.907 770.754,470.243 771.249,469.532 771.745,468.892 772.343,468.248 772.939,467.491 773.535,466.757 774.033,466.122 774.528,465.502 775.124,464.885 775.62,464.311 776.116,463.748 776.713,463.198 777.211,462.721 777.706,462.283 778.301,461.853 778.899,461.461 779.494,461.098 779.992,460.868 780.486,460.666 781.083,460.543 781.679,460.476 782.177,460.429 782.674,460.342 783.169,460.169 783.665,459.989 784.163,459.702 784.658,459.424 785.254,459.053 785.849,458.657 786.346,458.177 786.942,457.674 787.44,457.168 787.938,456.664 788.433,456.05 788.93,455.5 789.425,454.903 789.922,454.287 790.42,453.692 790.916,453.069 791.514,452.367 792.008,451.723 792.504,451.045 793,450.45 793.499,449.83 794.094,449.227 794.591,448.549 795.087,447.957 795.683,447.364 796.18,446.793 796.775,446.291 797.371,445.781 797.868,445.32 798.466,444.885 798.961,444.565 799.556,444.29 800.053,444.06 800.649,443.895 801.143,443.781 801.742,443.735 802.338,443.647 802.735,443.536 803.429,443.32 803.928,443.074 804.523,442.799 805.02,442.43 805.514,442.057 806.014,441.665 806.607,441.116 807.104,440.587 807.7,439.989 808.395,439.281 808.893,438.704 809.486,437.996 809.986,437.358 810.583,436.655 811.077,436.016 811.574,435.349 812.269,434.594 812.664,433.952 813.263,433.246 813.759,432.625 814.355,431.963 814.852,431.368 815.448,430.724 816.044,430.13 816.54,429.601 817.235,429.031 817.732,428.57 818.329,428.161 818.825,427.859 819.322,427.563 819.918,427.335 820.416,427.171 821.01,427.077 821.607,427.007 822.204,426.919 822.698,426.791 823.195,426.612 823.792,426.366 824.386,426.04 824.886,425.694 825.48,425.233 825.975,424.816 826.573,424.339 827.069,423.852 827.465,423.334 828.062,422.756 828.558,422.161 829.154,421.469 829.75,420.784 830.345,420.115 830.743,419.47 831.341,418.763 831.834,418.1 832.43,417.459 832.928,416.708 833.525,416.089 834.02,415.47 834.518,414.855 835.113,414.282 835.611,413.643 836.206,413.113 836.803,412.562 837.296,412.085 837.892,411.67 838.391,411.307 838.989,410.957 839.483,410.732 839.978,410.541 840.577,410.403 841.073,410.33 841.667,410.262 842.165,410.154 842.659,410.002 843.257,409.799 843.853,409.546 844.35,409.226 844.845,408.895 845.344,408.5 845.84,408.045 846.438,407.584 846.934,407.031 847.529,406.457 848.026,405.868 848.522,405.337 849.118,404.626 849.613,404.007 850.21,403.362 850.605,402.701 851.203,402.014 851.797,401.321 852.293,400.683 852.692,400.159 853.289,399.441 853.786,398.824 854.382,398.11 854.978,397.555 855.473,396.986 856.068,396.46 856.566,395.93 857.062,395.489 857.559,395.079 858.057,394.69 858.652,394.368 859.15,394.091 859.742,393.863 860.242,393.718 860.736,393.607 861.235,393.559 861.929,393.492 862.326,393.363 862.923,393.163 863.419,392.941 864.014,392.596 864.509,392.269 865.106,391.875 865.603,391.413 866.199,390.908 866.696,390.378 867.29,389.832 867.791,389.279 868.285,388.704 868.881,388.039 869.377,387.397 869.875,386.818 870.371,386.126 870.867,385.482 871.463,384.855 871.959,384.189 872.456,383.503 873.051,382.926 873.549,382.24 874.046,381.64 874.643,381.02 875.139,380.471 875.636,379.919 876.23,379.35 876.728,378.89 877.326,378.428 877.821,378.06 878.318,377.741 878.813,377.46 879.41,377.208 879.905,377.004 880.503,376.906 880.997,376.834 881.592,376.767 882.091,376.658 882.688,376.461 883.182,376.233 883.778,375.933 884.376,375.588 884.871,375.213 885.37,374.82 885.867,374.357 886.363,373.875 886.957,373.23 887.552,372.659 888.051,372.082 888.646,371.393 889.14,370.744 889.74,370.12 890.333,369.361 890.83,368.688 891.43,367.98 892.023,367.244 892.517,366.601 893.114,365.916 893.613,365.291 894.109,364.692 894.606,364.116 895.1,363.582 895.697,363.055 896.195,362.551 896.791,362.064 897.285,361.649 897.784,361.278 898.281,360.96 898.775,360.683 899.274,360.47 899.769,360.288 900.465,360.173 900.861,360.123 901.458,360.037 901.955,359.946 902.55,359.792 903.046,359.543 903.543,359.249 904.141,358.92 904.738,358.48 905.332,358.036 905.827,357.573 906.423,356.998 907.022,356.425 907.516,355.825 908.015,355.275 908.511,354.695 909.008,354.043 909.703,353.286 910.199,352.638 910.695,351.992 911.291,351.299 911.787,350.603 912.385,349.895 912.881,349.206 913.477,348.605 913.971,348.004 914.468,347.472 914.966,346.921 915.563,346.318 916.059,345.788 916.654,345.331 917.151,344.914 917.649,344.521 918.244,344.199 918.74,343.92 919.238,343.688 919.733,343.548 920.328,343.432 920.826,343.363 921.42,343.295 921.918,343.185 922.414,343.006 923.012,342.738 923.706,342.387 924.202,342.057 924.698,341.681 925.295,341.225 925.793,340.753 926.288,340.199 926.885,339.623 927.482,339.018 927.977,338.483 928.573,337.708 929.069,337.076 929.663,336.411 930.162,335.737 930.757,335.041 931.353,334.311 931.849,333.682 932.345,332.99 932.942,332.349 933.437,331.682 934.035,331.009 934.63,330.451 935.027,329.944 935.625,329.39 936.219,328.854 936.716,328.437 937.411,327.974 937.909,327.583 938.406,327.302 938.901,327.055 939.397,326.866 939.894,326.767 940.492,326.675 940.988,326.607 941.583,326.514 942.179,326.342 942.676,326.136 943.171,325.865 943.771,325.532 944.364,325.137 944.86,324.691 945.457,324.162 946.053,323.671 946.548,323.115 947.044,322.564 947.643,321.921 948.237,321.289 948.733,320.592 949.331,319.877 949.825,319.296 950.321,318.602 950.918,317.931 951.418,317.255 952.012,316.561 952.509,315.89 953.104,315.168 953.702,314.505 954.196,313.968 954.792,313.387 955.289,312.872 955.786,312.387 956.384,311.836 956.878,311.438 957.375,311.094 957.87,310.764 958.469,310.502 958.964,310.251 959.46,310.089 959.958,309.996 960.551,309.924 961.049,309.857 961.644,309.746 962.24,309.532 962.737,309.322 963.335,309.011 963.83,308.681 964.426,308.303 964.823,307.864 965.42,307.355 965.917,306.868 966.513,306.333 967.01,305.788 967.506,305.21 968.002,304.606 968.498,303.998 968.994,303.35 969.492,302.702 970.089,302.122 970.585,301.408 971.079,300.76 971.677,300.059 972.173,299.414 972.77,298.745 973.267,298.158 973.763,297.551 974.358,296.944 974.854,296.412 975.35,295.898 975.947,295.408 976.444,294.99 976.94,294.554 977.535,294.178 978.032,293.875 978.531,293.619 979.225,293.43 979.624,293.294 980.319,293.219 980.814,293.135 981.31,293.045 981.906,292.865 982.404,292.665 982.899,292.381 983.395,292.077 983.992,291.748 984.488,291.364 984.985,290.894 985.581,290.367 986.077,289.854 986.575,289.345 987.072,288.785 987.568,288.203 988.164,287.579 988.659,286.971 989.257,286.274 989.754,285.578 990.25,284.91 990.746,284.275 991.242,283.641 991.838,282.942 992.434,282.214 992.932,281.606 993.527,280.977 994.024,280.378 994.52,279.834 995.016,279.325 995.614,278.857 996.111,278.41 996.605,277.993 997.202,277.599 997.698,277.273 998.197,277.036 998.692,276.807 999.188,276.665 999.685,276.527 1000.18,276.495 1000.78,276.409 1001.27,276.322 1001.77,276.146 1002.37,275.915 1002.86,275.655 1003.36,275.346 1003.86,275.033 1004.45,274.547 1004.95,274.063 1005.54,273.59 1006.04,273.058 1006.54,272.45 1007.13,271.887 1007.63,271.303 1008.13,270.652 1008.62,270.041 1009.12,269.408 1009.72,268.74 1010.31,268.055 1010.81,267.349 1011.3,266.65 1011.9,265.972 1012.5,265.296 1012.99,264.684 1013.59,264.032 1014.09,263.455 1014.58,262.984 1015.08,262.424 1015.68,261.955 1016.17,261.527 1016.77,261.07 1017.26,260.716 1017.76,260.434 1018.26,260.175 1018.85,259.988 1019.35,259.845 1019.95,259.772 1020.44,259.706 1020.94,259.616 1021.53,259.455 1022.03,259.255 1022.63,258.973 1023.12,258.663 1023.72,258.293 1024.22,257.887 1024.71,257.458 1025.21,256.941 1025.81,256.428 1026.3,255.893 1026.8,255.283 1027.39,254.696 1027.89,254.088 1028.39,253.508 1028.89,252.871 1029.48,252.125 1030.08,251.506 1030.57,250.741 1031.07,250.109 1031.57,249.486 1032.26,248.814 1032.66,248.186 1033.15,247.594 1033.75,247.004 1034.35,246.462 1034.74,245.924 1035.24,245.434 1035.84,244.95 1036.33,244.564 1036.83,244.19 1037.33,243.861 1037.82,243.582 1038.42,243.365 1038.92,243.204 1039.51,243.084 1040.01,243.015 1040.51,242.945 1041.2,242.832 1041.7,242.616 1042.19,242.405 1042.69,242.138 1043.19,241.804 1043.78,241.405 1044.38,240.91 1044.88,240.44 1045.37,239.953 1045.87,239.412 1046.46,238.826 1047.06,238.256 1047.56,237.555 1048.15,236.874 1048.65,236.271 1049.24,235.552 1049.74,234.88 1050.24,234.288 1050.74,233.611 1051.33,232.93 1051.63,232.483 1052.23,231.868 1052.72,231.283 1053.22,230.692 1053.72,230.126 1054.21,229.585 1054.81,228.999 1055.3,228.508 1055.8,228.078 1056.39,227.656 1056.99,227.284 1057.49,226.978 1057.98,226.722 1058.58,226.528 1059.08,226.388 1059.67,226.314 1060.17,226.251 1060.67,226.157 1061.26,226.018 1061.76,225.793 1062.35,225.531 1062.85,225.222 1063.45,224.836 1064.04,224.365 1064.54,223.934 1065.14,223.416 1065.63,222.906 1066.23,222.309 1066.72,221.71 1067.22,221.117 1067.72,220.556 1068.21,219.855 1068.71,219.22 1069.31,218.595 1069.8,217.938 1070.4,217.237 1070.9,216.552 1071.39,215.91 1071.99,215.23 1072.59,214.539 1073.08,213.933 1073.58,213.383 1074.17,212.838 1074.67,212.235 1075.27,211.758 1075.76,211.285 1076.36,210.861 1076.85,210.501 1077.45,210.173 1078.05,209.937 1078.54,209.749 1079.04,209.646 1079.64,209.58 1080.13,209.51 1080.63,209.418 1081.22,209.241 1081.82,209.005 1082.32,208.747 1082.82,208.434 1083.41,208.024 1083.91,207.59 1084.6,207.096 1085.1,206.579 1085.6,206.008 1086.19,205.388 1086.69,204.799 1087.18,204.182 1087.78,203.569 1088.28,202.93 1088.77,202.312 1089.27,201.671 1089.77,201.011 1090.36,200.351 1090.96,199.713 1091.35,199.046 1091.85,198.453 1092.45,197.744 1093.05,197.123 1093.64,196.467 1094.14,195.942 1094.63,195.42 1095.23,194.941 1095.82,194.444 1096.42,194.014 1096.92,193.683 1097.61,193.374 1098.01,193.162 1098.61,192.973 1099.1,192.878 1099.7,192.827 1100.2,192.757 1100.69,192.643 1101.19,192.482 1101.69,192.269 1102.18,192.007 1102.78,191.656 1103.27,191.246 1103.87,190.768 1104.37,190.341 1104.86,189.845 1105.46,189.342 1105.96,188.775 1106.45,188.155 1107.05,187.575 1107.55,186.908 1108.14,186.22 1108.64,185.646 1109.13,184.973 1109.63,184.348 1110.23,183.635 1110.72,182.925 1111.32,182.3 1111.82,181.584 1112.41,180.97 1113.01,180.303 1113.51,179.732 1114,179.234 1114.5,178.75 1114.99,178.229 1115.59,177.801 1116.09,177.444 1116.58,177.038 1117.18,176.752 1117.68,176.516 1118.17,176.345 1118.67,176.203 1119.27,176.13 1119.76,176.06 1120.26,175.987 1120.86,175.826 1121.35,175.62 1121.85,175.361 1122.34,175.069 1122.94,174.704 1123.44,174.321 1124.03,173.8 1124.63,173.243 1125.23,172.691 1125.72,172.141 1126.32,171.553 1126.81,170.974 1127.21,170.396 1127.71,169.798 1128.3,169.094 1128.8,168.452 1129.4,167.709 1129.99,167.013 1130.49,166.34 1131.08,165.68 1131.58,165.053 1132.08,164.402 1132.67,163.783 1133.17,163.211 1133.67,162.655 1134.16,162.172 1134.76,161.635 1135.26,161.2 1135.75,160.796 1136.35,160.434 1136.84,160.125 1137.44,159.836 1137.94,159.644 1138.53,159.495 1139.03,159.428 1139.63,159.377 1140.02,159.305 1140.52,159.148 1141.11,158.943 1141.61,158.708 1142.21,158.405 1142.7,158.043 1143.2,157.686 1143.8,157.181 1144.39,156.698 1144.89,156.148 1145.49,155.583 1145.98,154.977 1146.58,154.349 1147.08,153.796 1147.57,153.105 1148.07,152.5 1148.66,151.799 1149.16,151.189 1149.66,150.535 1150.25,149.791 1150.75,149.149 1151.15,148.602 1151.74,147.997 1152.24,147.375 1152.84,146.773 1153.33,146.142 1153.83,145.644 1154.42,145.091 1154.92,144.635 1155.42,144.269 1155.91,143.839 1156.51,143.523 1157.01,143.234 1157.5,142.993 1158.2,142.827 1158.69,142.721 1159.19,142.655 1159.79,142.582 1160.28,142.445 1160.78,142.284 1161.38,142.027 1161.87,141.753 1162.47,141.408 1162.97,141.049 1163.46,140.634 1164.06,140.104 1164.66,139.552 1165.15,139.023 1165.65,138.465 1166.24,137.835 1166.74,137.24 1167.24,136.675 1167.83,135.953 1168.33,135.256 1168.82,134.593 1169.42,133.892 1170.02,133.212 1170.51,132.561 1171.01,131.937 1171.51,131.357 1172,130.713 1172.6,130.111 1173.2,129.555 1173.59,129.025 1174.09,128.564 1174.59,128.101 1175.08,127.67 1175.68,127.282 1176.17,126.886 1176.77,126.559 1177.27,126.318 1177.77,126.145 1178.26,126.039 1178.96,125.948 1179.46,125.873 1180.05,125.783 1180.65,125.596 1181.14,125.367 1181.64,125.096 1182.23,124.773 1182.83,124.354 1183.43,123.892 1183.92,123.405 1184.52,122.812 1185.01,122.27 1185.61,121.655 1186.11,121.08 1186.6,120.5 1187.2,119.849 1187.69,119.214 1188.19,118.563 1188.79,117.871 1189.28,117.217 1189.78,116.617 1190.38,115.835 1190.87,115.206 1191.37,114.56 1191.97,113.925 1192.46,113.366 1193.06,112.784 1193.56,112.207 1194.05,111.69 1194.65,111.232 1195.14,110.8 1195.64,110.414 1196.24,110.087 1196.73,109.818 1197.23,109.578 1197.83,109.384 1198.32,109.265 1198.92,109.199 1199.42,109.148 1199.91,109.032 1200.51,108.865 1200.9,108.694 1201.4,108.422 1201.9,108.125 1202.39,107.782 1202.99,107.366 1203.59,106.891 1204.08,106.423 1204.58,105.866 1205.08,105.348 1205.57,104.75 1206.17,104.063 1206.67,103.501 1207.26,102.841 1207.76,102.188 1208.35,101.452 1208.85,100.795 1209.45,100.129 1209.94,99.4073 1210.54,98.7541 1211.04,98.1213 1211.63,97.4302 1212.13,96.8145 1212.62,96.2737 1213.22,95.7087 1213.72,95.1986 1214.31,94.697 1214.81,94.2222 1215.51,93.7632 1216,93.3944 1216.5,93.1024 1217.1,92.8803 1217.59,92.6654 1218.09,92.5646 1218.68,92.4931 1219.18,92.4419 1219.78,92.3425 1220.27,92.1599 1220.77,91.9242 1221.26,91.6745 1221.86,91.3496 1222.36,91.0064 1222.96,90.5878 1223.55,90.0755 1224.05,89.5885 1224.54,89.0263 1225.14,88.4365 1225.64,87.8963 1226.23,87.1924 1226.73,86.5802 1227.22,85.9441 1227.72,85.3115 1228.22,84.6532 1228.81,83.9618 1229.31,83.3275 1229.81,82.6533 1230.4,81.9895 1231,81.272 1231.5,80.661 1231.99,80.1256 1232.49,79.5489 1233.08,78.9271 1233.68,78.4339 1234.28,77.8704 1234.77,77.4542 1235.27,77.0346 1235.76,76.6923 1236.36,76.372 1236.96,76.1013 1237.55,75.9319 1238.05,75.8254 1238.55,75.7572 1239.14,75.6816 1239.74,75.5688 1240.33,75.3986 1240.73,75.1792 1241.23,74.8931 1241.83,74.5893 1242.32,74.2378 1242.82,73.7937 1243.32,73.3462 1244.01,72.7635 1244.51,72.1976 1245.1,71.6061 1245.6,71.0382 1246.09,70.4276 1246.69,69.7156 1247.19,69.0828 1247.79,68.4018 1248.28,67.7524 1248.78,67.1434 1249.27,66.4938 1249.77,65.8346 1250.37,65.2169 1250.66,64.7465 1251.26,64.0672 1251.96,63.3433 1252.45,62.7453 1252.95,62.2121 1253.54,61.7223 1254.14,61.1924 1254.64,60.6844 1255.13,60.2982 1255.63,59.9692 1256.23,59.6755 1256.82,59.4022 1257.32,59.2246 1257.92,59.1064 1258.51,59.0497 1259.01,58.9588 1259.51,58.8642 1260,58.6987 1260.5,58.4801 1261.09,58.1876 1261.59,57.8862 1262.19,57.5573 1262.68,57.1377 1263.18,56.6901 1263.68,56.2484 1264.27,55.6565 1264.77,55.0919 1265.26,54.5189 1265.96,53.8601 1266.36,53.3107 1267.05,52.5735 1267.45,51.8798 1268.05,51.1635 1268.54,50.5178 1269.14,49.8252 1269.63,49.1478 1270.23,48.3885 1270.83,47.7179 1271.32,47.1713 1271.92,46.5026 1272.52,45.8573 1273.01,45.2699 1273.51,44.7822 1274.11,44.2578 1274.7,43.8406 1275.3,43.4643 1275.69,43.1659 1276.29,42.8639 1276.79,42.6231 1277.38,42.4633 1277.88,42.3726 1278.47,42.293 1278.97,42.2205 1279.57,42.0939 1280.16,41.8877 1280.66,41.6381 1281.25,41.3171 1281.75,40.9425 1282.45,40.5641 1282.84,40.1248 1283.34,39.6176 1283.84,39.1004 1284.43,38.5902 1284.93,38.0203 1285.43,37.4452 1286.03,36.7776 1286.52,36.1708 1287.02,35.5761 1287.51,34.8814 1288.11,34.2363 1288.61,33.5843 1289.1,32.9435 1289.6,32.2908 1290.09,31.6567 1290.69,30.9832 1291.19,30.4072 1291.68,29.8082 1292.28,29.1985 1292.77,28.6233 1293.37,28.1253 1293.87,27.6568 1294.36,27.2013 1294.96,26.7861 1295.56,26.4476 1296.15,26.1281 1296.65,25.901 1297.14,25.7502 1297.64,25.6667 1298.24,25.7117 1298.73,26.0474 1299.23,26.6306 1299.83,27.1644 1300.33,27.9639 1300.82,28.8262 1301.32,30.151 1301.81,31.9737 1302.31,34.0504 1302.91,36.9538 1303.4,40.0642 1304,44.0169 1304.49,48.6775 1305.09,54.1201 1305.59,59.8705 1306.19,66.9029 1306.68,74.9724 1307.18,83.2738 1307.67,92.4347 1308.27,102.495 1308.77,113.432 1309.26,125.301 1309.76,138.019 1310.36,151.539 1310.85,167.109 1311.35,182.254 1311.84,198.24 1312.44,214.771 1312.94,233.093 1313.53,252.123 1314.13,271.415 1314.63,290.962 1315.12,307.775 1315.62,325.993 1316.22,345.393 1316.71,363.106 1317.21,380.354 1317.8,399.536 1318.4,416.523 1318.9,432.535 1319.49,448.442 1319.99,460.06 1320.49,471.457 1321.08,482.165 1321.58,490.584 1322.08,497.417 1322.57,502.594 1323.07,505.783 1323.67,507.781 1324.16,508.509 1324.76,508.717 1325.26,508.777 1325.75,508.777 1326.25,508.775 1326.74,508.775 1327.34,508.772 1327.84,508.772 1328.33,508.772 1328.83,508.774 1329.42,508.774 1329.92,508.77 1330.42,508.774 1331.01,508.77 1331.51,508.77 1332.01,508.77 1332.6,508.77 1333.1,508.77 1333.6,508.77 1334.09,508.77 1334.69,508.77 1335.19,508.77 1335.78,508.767 1336.28,508.767 1336.87,508.77 1337.37,508.768 1338.07,508.772 1338.56,508.772 1339.06,508.768 1339.65,508.772 1340.15,508.768 1340.75,508.768 1341.24,508.768 1341.74,508.768 1342.23,508.768 1342.73,508.768 1343.33,508.768 1343.83,508.768 1344.32,508.768 1344.92,508.768 1345.41,508.768 1345.91,508.772 1346.51,508.768 1347,508.768 1347.5,508.768 1348.1,508.768 1348.59,508.768 1349.09,508.768 1349.69,508.768 1350.18,508.768 1350.58,508.768 1351.08,508.768 1351.67,508.768 1352.17,508.768 1352.76,508.768 1353.26,508.768 1353.76,508.768 1354.35,508.768 1354.85,508.768 1355.35,508.768 1355.94,508.768 1356.44,508.768 1356.93,508.768 1357.53,508.768 1358.03,508.772 1358.52,508.768 1359.12,508.772 1359.62,508.768 1360.11,508.768 1360.61,508.768 1361.21,508.768 1361.7,508.768 1362.2,508.768 1362.8,508.768 1363.29,508.768 1363.89,508.768 1364.39,508.768 1364.88,508.768 1365.38,508.768 1365.97,508.768 1366.47,508.772 1366.97,508.772 1367.46,508.768 1367.96,508.768 1368.56,508.772 1369.05,508.772 1369.55,508.768 1370.15,508.768 1370.64,508.772 1371.24,508.768 1371.74,508.768 1372.33,508.768 1372.93,508.768 1373.42,508.768 1373.92,508.768 1374.42,508.768 1375.01,508.768 1375.51,508.768 1376,508.768 1376.6,508.768 1377.1,508.768 1377.59,508.768 1378.09,508.768 1378.59,508.768 1379.18,508.768 1379.68,508.768 1380.18,508.768 1380.67,508.768 1381.17,508.768 1381.77,508.768 1382.26,508.768 1382.76,508.768 1383.25,508.768 1383.75,508.768 1384.35,508.768 1384.84,508.768 1385.34,508.768 1385.84,508.768 1386.44,508.772 1386.93,508.768 1387.43,508.772 1387.93,508.768 1388.52,508.768 1389.02,508.768 1389.51,508.768 1390.01,508.768 1390.61,508.768 1391.1,508.768 1391.6,508.768 1392.2,508.772 1392.69,508.768 1393.19,508.768 1393.78,508.772 1394.38,508.768 1394.88,508.768 1395.37,508.768 1395.87,508.768 1396.47,508.772 1396.96,508.772 1397.56,508.768 1398.06,508.768 1398.55,508.768 1399.05,508.768 1399.74,508.768 1400.14,508.768 1400.64,508.772 1401.14,508.772 1401.63,508.768 1402.13,508.768 1402.72,508.772 1403.22,508.768 1403.82,508.772 1404.41,508.768 1404.91,508.768 1405.4,508.768 1406,508.768 " />
</g>

<g fill="none" stroke="#000000" stroke-opacity="1" stroke-width="1" stroke-linecap="square" stroke-linejoin="bevel" transform="matrix(0.833333,0,0,0.833333,0,0)"
font-family="Ubuntu" font-size="12.2222" font-weight="400" font-style="normal" 
>
</g>

<g fill="none" stroke="#000000" stroke-opacity="1" stroke-width="1" stroke-linecap="square" stroke-linejoin="bevel" transform="matrix(0.833333,0,0,0.833333,0,0)"
font-family="Ubuntu" font-size="12.2222" font-weight="400" font-style="normal" 
>
</g>

<g fill="none" stroke="#000000" stroke-opacity="1" stroke-width="1" stroke-linecap="square" stroke-linejoin="bevel" transform="matrix(0.833333,0,0,0.833333,0,0)"
font-family="Ubuntu" font-size="12.2222" font-weight="400" font-style="normal" 
>
</g>

<g fill="none" stroke="#111111" stroke-opacity="1" stroke-width="1" stroke-linecap="square" stroke-linejoin="bevel" transform="matrix(0.833333,0,0,0.833333,0,0)"
font-family="Ubuntu" font-size="12.2222" font-weight="400" font-style="normal" 
>
<rect x="1157" y="10" width="242" height="23"/>
</g>

<g fill="none" stroke="#000000" stroke-opacity="1" stroke-width="1" stroke-linecap="square" stroke-linejoin="bevel" transform="matrix(0.833333,0,0,0.833333,0,0)"
font-family="Ubuntu" font-size="12.2222" font-weight="400" font-style="normal" 
>
</g>

<g fill="none" stroke="#000000" stroke-opacity="1" stroke-width="1" stroke-linecap="square" stroke-linejoin="bevel" transform="matrix(0.833333,0,0,0.833333,0,0)"
font-family="Ubuntu" font-size="12.2222" font-weight="400" font-style="normal" 
>
</g>

<g fill="none" stroke="#000000" stroke-opacity="1" stroke-width="1" stroke-linecap="square" stroke-linejoin="bevel" transform="matrix(0.833333,0,0,0.833333,967.5,14.1667)"
font-family="Ubuntu" font-size="12.2222" font-weight="400" font-style="normal" 
>
</g>

<g fill="#f14cc1" fill-opacity="1" stroke="none" transform="matrix(0.833333,0,0,0.833333,0,0)"
font-family="Ubuntu" font-size="12.2222" font-weight="400" font-style="normal" 
>
<path vector-effect="none" fill-rule="evenodd" d="M1161,17 L1169,17 L1169,25 L1161,25 L1161,17"/>
</g>

<g fill="none" stroke="#000000" stroke-opacity="1" stroke-width="1" stroke-linecap="square" stroke-linejoin="bevel" transform="matrix(0.833333,0,0,0.833333,967.5,14.1667)"
font-family="Ubuntu" font-size="12.2222" font-weight="400" font-style="normal" 
>
</g>

<g fill="none" stroke="#111111" stroke-opacity="1" stroke-width="1" stroke-linecap="square" stroke-linejoin="bevel" transform="matrix(0.833333,0,0,0.833333,0,0)"
font-family="Ubuntu" font-size="10" font-weight="400" font-style="normal" 
>
</g>

<g fill="none" stroke="#111111" stroke-opacity="1" stroke-width="1" stroke-linecap="square" stroke-linejoin="bevel" transform="matrix(0.833333,0,0,0.833333,0,0)"
font-family="Ubuntu" font-size="12" font-weight="400" font-style="normal" 
>
<text fill="#111111" fill-opacity="1" stroke="none" xml:space="preserve" x="1170" y="26" font-family="Ubuntu" font-size="12" font-weight="400" font-style="normal" 
 >/world_to_torch/transform/translation/y</text>
</g>

<g fill="none" stroke="#111111" stroke-opacity="1" stroke-width="1" stroke-linecap="square" stroke-linejoin="bevel" transform="matrix(0.833333,0,0,0.833333,0,0)"
font-family="Ubuntu" font-size="10" font-weight="400" font-style="normal" 
>
</g>

<g fill="none" stroke="#111111" stroke-opacity="1" stroke-width="1" stroke-linecap="square" stroke-linejoin="bevel" transform="matrix(0.833333,0,0,0.833333,0,0)"
font-family="Ubuntu" font-size="10" font-weight="400" font-style="normal" 
>
</g>

<g fill="none" stroke="#111111" stroke-opacity="1" stroke-width="1" stroke-linecap="square" stroke-linejoin="bevel" transform="matrix(0.833333,0,0,0.833333,0,0)"
font-family="Ubuntu" font-size="10" font-weight="400" font-style="normal" 
>
</g>

<g fill="none" stroke="#111111" stroke-opacity="1" stroke-width="1" stroke-linecap="square" stroke-linejoin="bevel" transform="matrix(0.833333,0,0,0.833333,0,0)"
font-family="Ubuntu" font-size="10" font-weight="400" font-style="normal" 
>
</g>

<g fill="none" stroke="#000000" stroke-opacity="1" stroke-width="1" stroke-linecap="square" stroke-linejoin="bevel" transform="matrix(0.833333,0,0,0.833333,0,0)"
font-family="Ubuntu" font-size="12.2222" font-weight="400" font-style="normal" 
>
</g>

<g fill="#ffffff" fill-opacity="1" stroke="#111111" stroke-opacity="1" stroke-width="1" stroke-linecap="square" stroke-linejoin="bevel" transform="matrix(0.833333,0,0,0.833333,0,0)"
font-family="Ubuntu" font-size="12.2222" font-weight="400" font-style="normal" 
>
<circle cx="1427" cy="10" r="5"/>
</g>

<g fill="none" stroke="#000000" stroke-opacity="1" stroke-width="1" stroke-linecap="square" stroke-linejoin="bevel" transform="matrix(0.833333,0,0,0.833333,0,0)"
font-family="Ubuntu" font-size="12.2222" font-weight="400" font-style="normal" 
>
</g>

<g fill="none" stroke="#000000" stroke-opacity="1" stroke-width="1" stroke-linecap="square" stroke-linejoin="bevel" transform="matrix(0.833333,0,0,0.833333,0,0)"
font-family="Ubuntu" font-size="12.2222" font-weight="400" font-style="normal" 
>
</g>

<g fill="none" stroke="#000000" stroke-opacity="1" stroke-width="1" stroke-linecap="square" stroke-linejoin="bevel" transform="matrix(0.833333,0,0,0.833333,0,0)"
font-family="Ubuntu" font-size="12.2222" font-weight="400" font-style="normal" 
>
</g>

<g fill="none" stroke="#111111" stroke-opacity="1" stroke-width="1" stroke-linecap="square" stroke-linejoin="bevel" transform="matrix(0,-0.833333,0.833333,0,0,864.167)"
font-family="Ubuntu" font-size="11.1111" font-weight="400" font-style="normal" 
>
</g>

<g fill="none" stroke="#111111" stroke-opacity="1" stroke-width="1" stroke-linecap="square" stroke-linejoin="bevel" transform="matrix(0,-0.833333,0.833333,0,0,864.167)"
font-family="Ubuntu" font-size="13.3333" font-weight="700" font-style="normal" 
>
</g>

<g fill="none" stroke="#111111" stroke-opacity="1" stroke-width="1" stroke-linecap="square" stroke-linejoin="bevel" transform="matrix(0,-0.833333,0.833333,0,0,864.167)"
font-family="Ubuntu" font-size="13.3333" font-weight="700" font-style="normal" 
>
</g>

<g fill="none" stroke="#111111" stroke-opacity="1" stroke-width="1" stroke-linecap="square" stroke-linejoin="bevel" transform="matrix(0,-0.833333,0.833333,0,0,864.167)"
font-family="Ubuntu" font-size="11.1111" font-weight="400" font-style="normal" 
>
</g>

<g fill="none" stroke="#000000" stroke-opacity="1" stroke-width="1" stroke-linecap="square" stroke-linejoin="bevel" transform="matrix(0.833333,0,0,0.833333,0,0)"
font-family="Ubuntu" font-size="12.2222" font-weight="400" font-style="normal" 
>
</g>

<g fill="none" stroke="#000000" stroke-opacity="1" stroke-width="1" stroke-linecap="square" stroke-linejoin="bevel" transform="matrix(0.833333,0,0,0.833333,0,0)"
font-family="Ubuntu" font-size="11.1111" font-weight="400" font-style="normal" 
>
</g>

<g fill="none" stroke="#000000" stroke-opacity="1" stroke-width="1" stroke-linecap="square" stroke-linejoin="bevel" transform="matrix(0.833333,0,0,0.833333,0,0)"
font-family="Ubuntu" font-size="11.1111" font-weight="400" font-style="normal" 
>
</g>

<g fill="none" stroke="#111111" stroke-opacity="1" stroke-width="1" stroke-linecap="square" stroke-linejoin="bevel" transform="matrix(0.833333,0,0,0.833333,0,0)"
font-family="Ubuntu" font-size="11.1111" font-weight="400" font-style="normal" 
>
</g>

<g fill="none" stroke="#111111" stroke-opacity="1" stroke-width="1" stroke-linecap="square" stroke-linejoin="bevel" transform="matrix(0.833333,0,0,0.833333,0.234375,839.524)"
font-family="Ubuntu" font-size="11.1111" font-weight="400" font-style="normal" 
>
</g>

<g fill="none" stroke="#111111" stroke-opacity="1" stroke-width="1" stroke-linecap="square" stroke-linejoin="bevel" transform="matrix(0.833333,0,0,0.833333,0.234375,839.524)"
font-family="Ubuntu" font-size="13" font-weight="400" font-style="normal" 
>
</g>

<g fill="none" stroke="#111111" stroke-opacity="1" stroke-width="1" stroke-linecap="square" stroke-linejoin="bevel" transform="matrix(0.833333,0,0,0.833333,0.234375,839.524)"
font-family="Ubuntu" font-size="13" font-weight="400" font-style="normal" 
>
<text fill="#111111" fill-opacity="1" stroke="none" xml:space="preserve" x="0" y="10" font-family="Ubuntu" font-size="13" font-weight="400" font-style="normal" 
 >-0.3</text>
</g>

<g fill="none" stroke="#111111" stroke-opacity="1" stroke-width="1" stroke-linecap="square" stroke-linejoin="bevel" transform="matrix(0.833333,0,0,0.833333,0.234375,839.524)"
font-family="Ubuntu" font-size="11.1111" font-weight="400" font-style="normal" 
>
</g>

<g fill="none" stroke="#111111" stroke-opacity="1" stroke-width="1" stroke-linecap="square" stroke-linejoin="bevel" transform="matrix(0.833333,0,0,0.833333,0.234375,839.524)"
font-family="Ubuntu" font-size="11.1111" font-weight="400" font-style="normal" 
>
</g>

<g fill="none" stroke="#111111" stroke-opacity="1" stroke-width="1" stroke-linecap="square" stroke-linejoin="bevel" transform="matrix(0.833333,0,0,0.833333,0,0)"
font-family="Ubuntu" font-size="11.1111" font-weight="400" font-style="normal" 
>
</g>

<g fill="none" stroke="#111111" stroke-opacity="1" stroke-width="1" stroke-linecap="square" stroke-linejoin="bevel" transform="matrix(0.833333,0,0,0.833333,0.234375,700.134)"
font-family="Ubuntu" font-size="11.1111" font-weight="400" font-style="normal" 
>
</g>

<g fill="none" stroke="#111111" stroke-opacity="1" stroke-width="1" stroke-linecap="square" stroke-linejoin="bevel" transform="matrix(0.833333,0,0,0.833333,0.234375,700.134)"
font-family="Ubuntu" font-size="13" font-weight="400" font-style="normal" 
>
</g>

<g fill="none" stroke="#111111" stroke-opacity="1" stroke-width="1" stroke-linecap="square" stroke-linejoin="bevel" transform="matrix(0.833333,0,0,0.833333,0.234375,700.134)"
font-family="Ubuntu" font-size="13" font-weight="400" font-style="normal" 
>
<text fill="#111111" fill-opacity="1" stroke="none" xml:space="preserve" x="0" y="10" font-family="Ubuntu" font-size="13" font-weight="400" font-style="normal" 
 >-0.2</text>
</g>

<g fill="none" stroke="#111111" stroke-opacity="1" stroke-width="1" stroke-linecap="square" stroke-linejoin="bevel" transform="matrix(0.833333,0,0,0.833333,0.234375,700.134)"
font-family="Ubuntu" font-size="11.1111" font-weight="400" font-style="normal" 
>
</g>

<g fill="none" stroke="#111111" stroke-opacity="1" stroke-width="1" stroke-linecap="square" stroke-linejoin="bevel" transform="matrix(0.833333,0,0,0.833333,0.234375,700.134)"
font-family="Ubuntu" font-size="11.1111" font-weight="400" font-style="normal" 
>
</g>

<g fill="none" stroke="#111111" stroke-opacity="1" stroke-width="1" stroke-linecap="square" stroke-linejoin="bevel" transform="matrix(0.833333,0,0,0.833333,0,0)"
font-family="Ubuntu" font-size="11.1111" font-weight="400" font-style="normal" 
>
</g>

<g fill="none" stroke="#111111" stroke-opacity="1" stroke-width="1" stroke-linecap="square" stroke-linejoin="bevel" transform="matrix(0.833333,0,0,0.833333,0.234375,560.745)"
font-family="Ubuntu" font-size="11.1111" font-weight="400" font-style="normal" 
>
</g>

<g fill="none" stroke="#111111" stroke-opacity="1" stroke-width="1" stroke-linecap="square" stroke-linejoin="bevel" transform="matrix(0.833333,0,0,0.833333,0.234375,560.745)"
font-family="Ubuntu" font-size="13" font-weight="400" font-style="normal" 
>
</g>

<g fill="none" stroke="#111111" stroke-opacity="1" stroke-width="1" stroke-linecap="square" stroke-linejoin="bevel" transform="matrix(0.833333,0,0,0.833333,0.234375,560.745)"
font-family="Ubuntu" font-size="13" font-weight="400" font-style="normal" 
>
<text fill="#111111" fill-opacity="1" stroke="none" xml:space="preserve" x="0" y="10" font-family="Ubuntu" font-size="13" font-weight="400" font-style="normal" 
 >-0.1</text>
</g>

<g fill="none" stroke="#111111" stroke-opacity="1" stroke-width="1" stroke-linecap="square" stroke-linejoin="bevel" transform="matrix(0.833333,0,0,0.833333,0.234375,560.745)"
font-family="Ubuntu" font-size="11.1111" font-weight="400" font-style="normal" 
>
</g>

<g fill="none" stroke="#111111" stroke-opacity="1" stroke-width="1" stroke-linecap="square" stroke-linejoin="bevel" transform="matrix(0.833333,0,0,0.833333,0.234375,560.745)"
font-family="Ubuntu" font-size="11.1111" font-weight="400" font-style="normal" 
>
</g>

<g fill="none" stroke="#111111" stroke-opacity="1" stroke-width="1" stroke-linecap="square" stroke-linejoin="bevel" transform="matrix(0.833333,0,0,0.833333,0,0)"
font-family="Ubuntu" font-size="11.1111" font-weight="400" font-style="normal" 
>
</g>

<g fill="none" stroke="#111111" stroke-opacity="1" stroke-width="1" stroke-linecap="square" stroke-linejoin="bevel" transform="matrix(0.833333,0,0,0.833333,12.2266,421.356)"
font-family="Ubuntu" font-size="11.1111" font-weight="400" font-style="normal" 
>
</g>

<g fill="none" stroke="#111111" stroke-opacity="1" stroke-width="1" stroke-linecap="square" stroke-linejoin="bevel" transform="matrix(0.833333,0,0,0.833333,12.2266,421.356)"
font-family="Ubuntu" font-size="13" font-weight="400" font-style="normal" 
>
</g>

<g fill="none" stroke="#111111" stroke-opacity="1" stroke-width="1" stroke-linecap="square" stroke-linejoin="bevel" transform="matrix(0.833333,0,0,0.833333,12.2266,421.356)"
font-family="Ubuntu" font-size="13" font-weight="400" font-style="normal" 
>
</g>

<g fill="none" stroke="#111111" stroke-opacity="1" stroke-width="1" stroke-linecap="square" stroke-linejoin="bevel" transform="matrix(0.833333,0,0,0.833333,12.2266,421.356)"
font-family="Ubuntu" font-size="13" font-weight="400" font-style="normal" 
>
<text fill="#111111" fill-opacity="1" stroke="none" xml:space="preserve" x="0" y="10" font-family="Ubuntu" font-size="13" font-weight="400" font-style="normal" 
 >0</text>
</g>

<g fill="none" stroke="#111111" stroke-opacity="1" stroke-width="1" stroke-linecap="square" stroke-linejoin="bevel" transform="matrix(0.833333,0,0,0.833333,12.2266,421.356)"
font-family="Ubuntu" font-size="13" font-weight="400" font-style="normal" 
>
</g>

<g fill="none" stroke="#111111" stroke-opacity="1" stroke-width="1" stroke-linecap="square" stroke-linejoin="bevel" transform="matrix(0.833333,0,0,0.833333,12.2266,421.356)"
font-family="Ubuntu" font-size="11.1111" font-weight="400" font-style="normal" 
>
</g>

<g fill="none" stroke="#111111" stroke-opacity="1" stroke-width="1" stroke-linecap="square" stroke-linejoin="bevel" transform="matrix(0.833333,0,0,0.833333,12.2266,421.356)"
font-family="Ubuntu" font-size="11.1111" font-weight="400" font-style="normal" 
>
</g>

<g fill="none" stroke="#111111" stroke-opacity="1" stroke-width="1" stroke-linecap="square" stroke-linejoin="bevel" transform="matrix(0.833333,0,0,0.833333,0,0)"
font-family="Ubuntu" font-size="11.1111" font-weight="400" font-style="normal" 
>
</g>

<g fill="none" stroke="#111111" stroke-opacity="1" stroke-width="1" stroke-linecap="square" stroke-linejoin="bevel" transform="matrix(0.833333,0,0,0.833333,3.46354,281.966)"
font-family="Ubuntu" font-size="11.1111" font-weight="400" font-style="normal" 
>
</g>

<g fill="none" stroke="#111111" stroke-opacity="1" stroke-width="1" stroke-linecap="square" stroke-linejoin="bevel" transform="matrix(0.833333,0,0,0.833333,3.46354,281.966)"
font-family="Ubuntu" font-size="13" font-weight="400" font-style="normal" 
>
</g>

<g fill="none" stroke="#111111" stroke-opacity="1" stroke-width="1" stroke-linecap="square" stroke-linejoin="bevel" transform="matrix(0.833333,0,0,0.833333,3.46354,281.966)"
font-family="Ubuntu" font-size="13" font-weight="400" font-style="normal" 
>
<text fill="#111111" fill-opacity="1" stroke="none" xml:space="preserve" x="0" y="10" font-family="Ubuntu" font-size="13" font-weight="400" font-style="normal" 
 >0.1</text>
</g>

<g fill="none" stroke="#111111" stroke-opacity="1" stroke-width="1" stroke-linecap="square" stroke-linejoin="bevel" transform="matrix(0.833333,0,0,0.833333,3.46354,281.966)"
font-family="Ubuntu" font-size="11.1111" font-weight="400" font-style="normal" 
>
</g>

<g fill="none" stroke="#111111" stroke-opacity="1" stroke-width="1" stroke-linecap="square" stroke-linejoin="bevel" transform="matrix(0.833333,0,0,0.833333,3.46354,281.966)"
font-family="Ubuntu" font-size="11.1111" font-weight="400" font-style="normal" 
>
</g>

<g fill="none" stroke="#111111" stroke-opacity="1" stroke-width="1" stroke-linecap="square" stroke-linejoin="bevel" transform="matrix(0.833333,0,0,0.833333,0,0)"
font-family="Ubuntu" font-size="11.1111" font-weight="400" font-style="normal" 
>
</g>

<g fill="none" stroke="#111111" stroke-opacity="1" stroke-width="1" stroke-linecap="square" stroke-linejoin="bevel" transform="matrix(0.833333,0,0,0.833333,3.46354,142.577)"
font-family="Ubuntu" font-size="11.1111" font-weight="400" font-style="normal" 
>
</g>

<g fill="none" stroke="#111111" stroke-opacity="1" stroke-width="1" stroke-linecap="square" stroke-linejoin="bevel" transform="matrix(0.833333,0,0,0.833333,3.46354,142.577)"
font-family="Ubuntu" font-size="13" font-weight="400" font-style="normal" 
>
</g>

<g fill="none" stroke="#111111" stroke-opacity="1" stroke-width="1" stroke-linecap="square" stroke-linejoin="bevel" transform="matrix(0.833333,0,0,0.833333,3.46354,142.577)"
font-family="Ubuntu" font-size="13" font-weight="400" font-style="normal" 
>
<text fill="#111111" fill-opacity="1" stroke="none" xml:space="preserve" x="0" y="10" font-family="Ubuntu" font-size="13" font-weight="400" font-style="normal" 
 >0.2</text>
</g>

<g fill="none" stroke="#111111" stroke-opacity="1" stroke-width="1" stroke-linecap="square" stroke-linejoin="bevel" transform="matrix(0.833333,0,0,0.833333,3.46354,142.577)"
font-family="Ubuntu" font-size="11.1111" font-weight="400" font-style="normal" 
>
</g>

<g fill="none" stroke="#111111" stroke-opacity="1" stroke-width="1" stroke-linecap="square" stroke-linejoin="bevel" transform="matrix(0.833333,0,0,0.833333,3.46354,142.577)"
font-family="Ubuntu" font-size="11.1111" font-weight="400" font-style="normal" 
>
</g>

<g fill="none" stroke="#111111" stroke-opacity="1" stroke-width="1" stroke-linecap="square" stroke-linejoin="bevel" transform="matrix(0.833333,0,0,0.833333,0,0)"
font-family="Ubuntu" font-size="11.1111" font-weight="400" font-style="normal" 
>
</g>

<g fill="none" stroke="#111111" stroke-opacity="1" stroke-width="1" stroke-linecap="square" stroke-linejoin="bevel" transform="matrix(0.833333,0,0,0.833333,3.46354,3.18721)"
font-family="Ubuntu" font-size="11.1111" font-weight="400" font-style="normal" 
>
</g>

<g fill="none" stroke="#111111" stroke-opacity="1" stroke-width="1" stroke-linecap="square" stroke-linejoin="bevel" transform="matrix(0.833333,0,0,0.833333,3.46354,3.18721)"
font-family="Ubuntu" font-size="13" font-weight="400" font-style="normal" 
>
</g>

<g fill="none" stroke="#111111" stroke-opacity="1" stroke-width="1" stroke-linecap="square" stroke-linejoin="bevel" transform="matrix(0.833333,0,0,0.833333,3.46354,3.18721)"
font-family="Ubuntu" font-size="13" font-weight="400" font-style="normal" 
>
<text fill="#111111" fill-opacity="1" stroke="none" xml:space="preserve" x="0" y="10" font-family="Ubuntu" font-size="13" font-weight="400" font-style="normal" 
 >0.3</text>
</g>

<g fill="none" stroke="#111111" stroke-opacity="1" stroke-width="1" stroke-linecap="square" stroke-linejoin="bevel" transform="matrix(0.833333,0,0,0.833333,3.46354,3.18721)"
font-family="Ubuntu" font-size="11.1111" font-weight="400" font-style="normal" 
>
</g>

<g fill="none" stroke="#111111" stroke-opacity="1" stroke-width="1" stroke-linecap="square" stroke-linejoin="bevel" transform="matrix(0.833333,0,0,0.833333,3.46354,3.18721)"
font-family="Ubuntu" font-size="11.1111" font-weight="400" font-style="normal" 
>
</g>

<g fill="none" stroke="#111111" stroke-opacity="1" stroke-width="1" stroke-linecap="square" stroke-linejoin="bevel" transform="matrix(0.833333,0,0,0.833333,0,0)"
font-family="Ubuntu" font-size="11.1111" font-weight="400" font-style="normal" 
>
</g>

<g fill="none" stroke="#000000" stroke-opacity="1" stroke-width="1" stroke-linecap="square" stroke-linejoin="bevel" transform="matrix(0.833333,0,0,0.833333,0,0)"
font-family="Ubuntu" font-size="11.1111" font-weight="400" font-style="normal" 
>
</g>

<g fill="none" stroke="#111111" stroke-opacity="1" stroke-width="1" stroke-linecap="butt" stroke-linejoin="bevel" transform="matrix(0.833333,0,0,0.833333,0,0)"
font-family="Ubuntu" font-size="11.1111" font-weight="400" font-style="normal" 
>
<polyline fill="none" vector-effect="non-scaling-stroke" points="35.5,978.975 30.3,978.975 " />
<polyline fill="none" vector-effect="non-scaling-stroke" points="35.5,945.522 30.3,945.522 " />
<polyline fill="none" vector-effect="non-scaling-stroke" points="35.5,912.068 30.3,912.068 " />
<polyline fill="none" vector-effect="non-scaling-stroke" points="35.5,878.615 30.3,878.615 " />
<polyline fill="none" vector-effect="non-scaling-stroke" points="35.5,811.708 30.3,811.708 " />
<polyline fill="none" vector-effect="non-scaling-stroke" points="35.5,778.254 30.3,778.254 " />
<polyline fill="none" vector-effect="non-scaling-stroke" points="35.5,744.801 30.3,744.801 " />
<polyline fill="none" vector-effect="non-scaling-stroke" points="35.5,711.347 30.3,711.347 " />
<polyline fill="none" vector-effect="non-scaling-stroke" points="35.5,644.441 30.3,644.441 " />
<polyline fill="none" vector-effect="non-scaling-stroke" points="35.5,610.987 30.3,610.987 " />
<polyline fill="none" vector-effect="non-scaling-stroke" points="35.5,577.534 30.3,577.534 " />
<polyline fill="none" vector-effect="non-scaling-stroke" points="35.5,544.08 30.3,544.08 " />
<polyline fill="none" vector-effect="non-scaling-stroke" points="35.5,477.173 30.3,477.173 " />
<polyline fill="none" vector-effect="non-scaling-stroke" points="35.5,443.72 30.3,443.72 " />
<polyline fill="none" vector-effect="non-scaling-stroke" points="35.5,410.266 30.3,410.266 " />
<polyline fill="none" vector-effect="non-scaling-stroke" points="35.5,376.813 30.3,376.813 " />
<polyline fill="none" vector-effect="non-scaling-stroke" points="35.5,309.906 30.3,309.906 " />
<polyline fill="none" vector-effect="non-scaling-stroke" points="35.5,276.452 30.3,276.452 " />
<polyline fill="none" vector-effect="non-scaling-stroke" points="35.5,242.999 30.3,242.999 " />
<polyline fill="none" vector-effect="non-scaling-stroke" points="35.5,209.545 30.3,209.545 " />
<polyline fill="none" vector-effect="non-scaling-stroke" points="35.5,142.639 30.3,142.639 " />
<polyline fill="none" vector-effect="non-scaling-stroke" points="35.5,109.185 30.3,109.185 " />
<polyline fill="none" vector-effect="non-scaling-stroke" points="35.5,75.7316 30.3,75.7316 " />
<polyline fill="none" vector-effect="non-scaling-stroke" points="35.5,42.2781 30.3,42.2781 " />
<polyline fill="none" vector-effect="non-scaling-stroke" points="35.5,1012.43 26.3,1012.43 " />
<polyline fill="none" vector-effect="non-scaling-stroke" points="35.5,845.161 26.3,845.161 " />
<polyline fill="none" vector-effect="non-scaling-stroke" points="35.5,677.894 26.3,677.894 " />
<polyline fill="none" vector-effect="non-scaling-stroke" points="35.5,510.627 26.3,510.627 " />
<polyline fill="none" vector-effect="non-scaling-stroke" points="35.5,343.359 26.3,343.359 " />
<polyline fill="none" vector-effect="non-scaling-stroke" points="35.5,176.092 26.3,176.092 " />
<polyline fill="none" vector-effect="non-scaling-stroke" points="35.5,8.82465 26.3,8.82465 " />
</g>

<g fill="none" stroke="#000000" stroke-opacity="1" stroke-width="1" stroke-linecap="square" stroke-linejoin="bevel" transform="matrix(0.833333,0,0,0.833333,0,0)"
font-family="Ubuntu" font-size="11.1111" font-weight="400" font-style="normal" 
>
</g>

<g fill="none" stroke="#111111" stroke-opacity="1" stroke-width="1" stroke-linecap="butt" stroke-linejoin="bevel" transform="matrix(0.833333,0,0,0.833333,0,0)"
font-family="Ubuntu" font-size="11.1111" font-weight="400" font-style="normal" 
>
<polyline fill="none" vector-effect="non-scaling-stroke" points="35.4,1 35.4,1037 " />
</g>

<g fill="none" stroke="#000000" stroke-opacity="1" stroke-width="1" stroke-linecap="square" stroke-linejoin="bevel" transform="matrix(0.833333,0,0,0.833333,0,0)"
font-family="Ubuntu" font-size="11.1111" font-weight="400" font-style="normal" 
>
</g>

<g fill="none" stroke="#000000" stroke-opacity="1" stroke-width="1" stroke-linecap="square" stroke-linejoin="bevel" transform="matrix(0.833333,0,0,0.833333,0,0)"
font-family="Ubuntu" font-size="11.1111" font-weight="400" font-style="normal" 
>
</g>

<g fill="none" stroke="#000000" stroke-opacity="1" stroke-width="1" stroke-linecap="square" stroke-linejoin="bevel" transform="matrix(0.833333,0,0,0.833333,0,0)"
font-family="Ubuntu" font-size="12.2222" font-weight="400" font-style="normal" 
>
</g>

<g fill="none" stroke="#111111" stroke-opacity="1" stroke-width="1" stroke-linecap="square" stroke-linejoin="bevel" transform="matrix(0.833333,0,0,0.833333,32.5,900.833)"
font-family="Ubuntu" font-size="11.1111" font-weight="400" font-style="normal" 
>
</g>

<g fill="none" stroke="#111111" stroke-opacity="1" stroke-width="1" stroke-linecap="square" stroke-linejoin="bevel" transform="matrix(0.833333,0,0,0.833333,32.5,900.833)"
font-family="Ubuntu" font-size="13.3333" font-weight="700" font-style="normal" 
>
</g>

<g fill="none" stroke="#111111" stroke-opacity="1" stroke-width="1" stroke-linecap="square" stroke-linejoin="bevel" transform="matrix(0.833333,0,0,0.833333,32.5,900.833)"
font-family="Ubuntu" font-size="13.3333" font-weight="700" font-style="normal" 
>
</g>

<g fill="none" stroke="#111111" stroke-opacity="1" stroke-width="1" stroke-linecap="square" stroke-linejoin="bevel" transform="matrix(0.833333,0,0,0.833333,32.5,900.833)"
font-family="Ubuntu" font-size="11.1111" font-weight="400" font-style="normal" 
>
</g>

<g fill="none" stroke="#000000" stroke-opacity="1" stroke-width="1" stroke-linecap="square" stroke-linejoin="bevel" transform="matrix(0.833333,0,0,0.833333,0,0)"
font-family="Ubuntu" font-size="12.2222" font-weight="400" font-style="normal" 
>
</g>

<g fill="none" stroke="#000000" stroke-opacity="1" stroke-width="1" stroke-linecap="square" stroke-linejoin="bevel" transform="matrix(0.833333,0,0,0.833333,0,0)"
font-family="Ubuntu" font-size="11.1111" font-weight="400" font-style="normal" 
>
</g>

<g fill="none" stroke="#000000" stroke-opacity="1" stroke-width="1" stroke-linecap="square" stroke-linejoin="bevel" transform="matrix(0.833333,0,0,0.833333,0,0)"
font-family="Ubuntu" font-size="11.1111" font-weight="400" font-style="normal" 
>
</g>

<g fill="none" stroke="#111111" stroke-opacity="1" stroke-width="1" stroke-linecap="square" stroke-linejoin="bevel" transform="matrix(0.833333,0,0,0.833333,0,0)"
font-family="Ubuntu" font-size="11.1111" font-weight="400" font-style="normal" 
>
</g>

<g fill="none" stroke="#111111" stroke-opacity="1" stroke-width="1" stroke-linecap="square" stroke-linejoin="bevel" transform="matrix(0.833333,0,0,0.833333,149.925,878.333)"
font-family="Ubuntu" font-size="11.1111" font-weight="400" font-style="normal" 
>
</g>

<g fill="none" stroke="#111111" stroke-opacity="1" stroke-width="1" stroke-linecap="square" stroke-linejoin="bevel" transform="matrix(0.833333,0,0,0.833333,149.925,878.333)"
font-family="Ubuntu" font-size="13" font-weight="400" font-style="normal" 
>
</g>

<g fill="none" stroke="#111111" stroke-opacity="1" stroke-width="1" stroke-linecap="square" stroke-linejoin="bevel" transform="matrix(0.833333,0,0,0.833333,149.925,878.333)"
font-family="Ubuntu" font-size="13" font-weight="400" font-style="normal" 
>
</g>

<g fill="none" stroke="#111111" stroke-opacity="1" stroke-width="1" stroke-linecap="square" stroke-linejoin="bevel" transform="matrix(0.833333,0,0,0.833333,149.925,878.333)"
font-family="Ubuntu" font-size="13" font-weight="400" font-style="normal" 
>
<text fill="#111111" fill-opacity="1" stroke="none" xml:space="preserve" x="0" y="10" font-family="Ubuntu" font-size="13" font-weight="400" font-style="normal" 
 >15:53:00.0</text>
</g>

<g fill="none" stroke="#111111" stroke-opacity="1" stroke-width="1" stroke-linecap="square" stroke-linejoin="bevel" transform="matrix(0.833333,0,0,0.833333,149.925,878.333)"
font-family="Ubuntu" font-size="13" font-weight="400" font-style="normal" 
>
<text fill="#111111" fill-opacity="1" stroke="none" xml:space="preserve" x="0" y="25" font-family="Ubuntu" font-size="13" font-weight="400" font-style="normal" 
 >2024 Jul 10</text>
</g>

<g fill="none" stroke="#111111" stroke-opacity="1" stroke-width="1" stroke-linecap="square" stroke-linejoin="bevel" transform="matrix(0.833333,0,0,0.833333,149.925,878.333)"
font-family="Ubuntu" font-size="13" font-weight="400" font-style="normal" 
>
</g>

<g fill="none" stroke="#111111" stroke-opacity="1" stroke-width="1" stroke-linecap="square" stroke-linejoin="bevel" transform="matrix(0.833333,0,0,0.833333,149.925,878.333)"
font-family="Ubuntu" font-size="11.1111" font-weight="400" font-style="normal" 
>
</g>

<g fill="none" stroke="#111111" stroke-opacity="1" stroke-width="1" stroke-linecap="square" stroke-linejoin="bevel" transform="matrix(0.833333,0,0,0.833333,149.925,878.333)"
font-family="Ubuntu" font-size="11.1111" font-weight="400" font-style="normal" 
>
</g>

<g fill="none" stroke="#111111" stroke-opacity="1" stroke-width="1" stroke-linecap="square" stroke-linejoin="bevel" transform="matrix(0.833333,0,0,0.833333,0,0)"
font-family="Ubuntu" font-size="11.1111" font-weight="400" font-style="normal" 
>
</g>

<g fill="none" stroke="#111111" stroke-opacity="1" stroke-width="1" stroke-linecap="square" stroke-linejoin="bevel" transform="matrix(0.833333,0,0,0.833333,315.459,878.333)"
font-family="Ubuntu" font-size="11.1111" font-weight="400" font-style="normal" 
>
</g>

<g fill="none" stroke="#111111" stroke-opacity="1" stroke-width="1" stroke-linecap="square" stroke-linejoin="bevel" transform="matrix(0.833333,0,0,0.833333,315.459,878.333)"
font-family="Ubuntu" font-size="13" font-weight="400" font-style="normal" 
>
</g>

<g fill="none" stroke="#111111" stroke-opacity="1" stroke-width="1" stroke-linecap="square" stroke-linejoin="bevel" transform="matrix(0.833333,0,0,0.833333,315.459,878.333)"
font-family="Ubuntu" font-size="13" font-weight="400" font-style="normal" 
>
</g>

<g fill="none" stroke="#111111" stroke-opacity="1" stroke-width="1" stroke-linecap="square" stroke-linejoin="bevel" transform="matrix(0.833333,0,0,0.833333,315.459,878.333)"
font-family="Ubuntu" font-size="13" font-weight="400" font-style="normal" 
>
<text fill="#111111" fill-opacity="1" stroke="none" xml:space="preserve" x="0" y="10" font-family="Ubuntu" font-size="13" font-weight="400" font-style="normal" 
 >15:53:20.0</text>
</g>

<g fill="none" stroke="#111111" stroke-opacity="1" stroke-width="1" stroke-linecap="square" stroke-linejoin="bevel" transform="matrix(0.833333,0,0,0.833333,315.459,878.333)"
font-family="Ubuntu" font-size="13" font-weight="400" font-style="normal" 
>
<text fill="#111111" fill-opacity="1" stroke="none" xml:space="preserve" x="0" y="25" font-family="Ubuntu" font-size="13" font-weight="400" font-style="normal" 
 >2024 Jul 10</text>
</g>

<g fill="none" stroke="#111111" stroke-opacity="1" stroke-width="1" stroke-linecap="square" stroke-linejoin="bevel" transform="matrix(0.833333,0,0,0.833333,315.459,878.333)"
font-family="Ubuntu" font-size="13" font-weight="400" font-style="normal" 
>
</g>

<g fill="none" stroke="#111111" stroke-opacity="1" stroke-width="1" stroke-linecap="square" stroke-linejoin="bevel" transform="matrix(0.833333,0,0,0.833333,315.459,878.333)"
font-family="Ubuntu" font-size="11.1111" font-weight="400" font-style="normal" 
>
</g>

<g fill="none" stroke="#111111" stroke-opacity="1" stroke-width="1" stroke-linecap="square" stroke-linejoin="bevel" transform="matrix(0.833333,0,0,0.833333,315.459,878.333)"
font-family="Ubuntu" font-size="11.1111" font-weight="400" font-style="normal" 
>
</g>

<g fill="none" stroke="#111111" stroke-opacity="1" stroke-width="1" stroke-linecap="square" stroke-linejoin="bevel" transform="matrix(0.833333,0,0,0.833333,0,0)"
font-family="Ubuntu" font-size="11.1111" font-weight="400" font-style="normal" 
>
</g>

<g fill="none" stroke="#111111" stroke-opacity="1" stroke-width="1" stroke-linecap="square" stroke-linejoin="bevel" transform="matrix(0.833333,0,0,0.833333,480.992,878.333)"
font-family="Ubuntu" font-size="11.1111" font-weight="400" font-style="normal" 
>
</g>

<g fill="none" stroke="#111111" stroke-opacity="1" stroke-width="1" stroke-linecap="square" stroke-linejoin="bevel" transform="matrix(0.833333,0,0,0.833333,480.992,878.333)"
font-family="Ubuntu" font-size="13" font-weight="400" font-style="normal" 
>
</g>

<g fill="none" stroke="#111111" stroke-opacity="1" stroke-width="1" stroke-linecap="square" stroke-linejoin="bevel" transform="matrix(0.833333,0,0,0.833333,480.992,878.333)"
font-family="Ubuntu" font-size="13" font-weight="400" font-style="normal" 
>
</g>

<g fill="none" stroke="#111111" stroke-opacity="1" stroke-width="1" stroke-linecap="square" stroke-linejoin="bevel" transform="matrix(0.833333,0,0,0.833333,480.992,878.333)"
font-family="Ubuntu" font-size="13" font-weight="400" font-style="normal" 
>
<text fill="#111111" fill-opacity="1" stroke="none" xml:space="preserve" x="0" y="10" font-family="Ubuntu" font-size="13" font-weight="400" font-style="normal" 
 >15:53:40.0</text>
</g>

<g fill="none" stroke="#111111" stroke-opacity="1" stroke-width="1" stroke-linecap="square" stroke-linejoin="bevel" transform="matrix(0.833333,0,0,0.833333,480.992,878.333)"
font-family="Ubuntu" font-size="13" font-weight="400" font-style="normal" 
>
<text fill="#111111" fill-opacity="1" stroke="none" xml:space="preserve" x="0" y="25" font-family="Ubuntu" font-size="13" font-weight="400" font-style="normal" 
 >2024 Jul 10</text>
</g>

<g fill="none" stroke="#111111" stroke-opacity="1" stroke-width="1" stroke-linecap="square" stroke-linejoin="bevel" transform="matrix(0.833333,0,0,0.833333,480.992,878.333)"
font-family="Ubuntu" font-size="13" font-weight="400" font-style="normal" 
>
</g>

<g fill="none" stroke="#111111" stroke-opacity="1" stroke-width="1" stroke-linecap="square" stroke-linejoin="bevel" transform="matrix(0.833333,0,0,0.833333,480.992,878.333)"
font-family="Ubuntu" font-size="11.1111" font-weight="400" font-style="normal" 
>
</g>

<g fill="none" stroke="#111111" stroke-opacity="1" stroke-width="1" stroke-linecap="square" stroke-linejoin="bevel" transform="matrix(0.833333,0,0,0.833333,480.992,878.333)"
font-family="Ubuntu" font-size="11.1111" font-weight="400" font-style="normal" 
>
</g>

<g fill="none" stroke="#111111" stroke-opacity="1" stroke-width="1" stroke-linecap="square" stroke-linejoin="bevel" transform="matrix(0.833333,0,0,0.833333,0,0)"
font-family="Ubuntu" font-size="11.1111" font-weight="400" font-style="normal" 
>
</g>

<g fill="none" stroke="#111111" stroke-opacity="1" stroke-width="1" stroke-linecap="square" stroke-linejoin="bevel" transform="matrix(0.833333,0,0,0.833333,646.526,878.333)"
font-family="Ubuntu" font-size="11.1111" font-weight="400" font-style="normal" 
>
</g>

<g fill="none" stroke="#111111" stroke-opacity="1" stroke-width="1" stroke-linecap="square" stroke-linejoin="bevel" transform="matrix(0.833333,0,0,0.833333,646.526,878.333)"
font-family="Ubuntu" font-size="13" font-weight="400" font-style="normal" 
>
</g>

<g fill="none" stroke="#111111" stroke-opacity="1" stroke-width="1" stroke-linecap="square" stroke-linejoin="bevel" transform="matrix(0.833333,0,0,0.833333,646.526,878.333)"
font-family="Ubuntu" font-size="13" font-weight="400" font-style="normal" 
>
</g>

<g fill="none" stroke="#111111" stroke-opacity="1" stroke-width="1" stroke-linecap="square" stroke-linejoin="bevel" transform="matrix(0.833333,0,0,0.833333,646.526,878.333)"
font-family="Ubuntu" font-size="13" font-weight="400" font-style="normal" 
>
<text fill="#111111" fill-opacity="1" stroke="none" xml:space="preserve" x="0" y="10" font-family="Ubuntu" font-size="13" font-weight="400" font-style="normal" 
 >15:54:00.0</text>
</g>

<g fill="none" stroke="#111111" stroke-opacity="1" stroke-width="1" stroke-linecap="square" stroke-linejoin="bevel" transform="matrix(0.833333,0,0,0.833333,646.526,878.333)"
font-family="Ubuntu" font-size="13" font-weight="400" font-style="normal" 
>
<text fill="#111111" fill-opacity="1" stroke="none" xml:space="preserve" x="0" y="25" font-family="Ubuntu" font-size="13" font-weight="400" font-style="normal" 
 >2024 Jul 10</text>
</g>

<g fill="none" stroke="#111111" stroke-opacity="1" stroke-width="1" stroke-linecap="square" stroke-linejoin="bevel" transform="matrix(0.833333,0,0,0.833333,646.526,878.333)"
font-family="Ubuntu" font-size="13" font-weight="400" font-style="normal" 
>
</g>

<g fill="none" stroke="#111111" stroke-opacity="1" stroke-width="1" stroke-linecap="square" stroke-linejoin="bevel" transform="matrix(0.833333,0,0,0.833333,646.526,878.333)"
font-family="Ubuntu" font-size="11.1111" font-weight="400" font-style="normal" 
>
</g>

<g fill="none" stroke="#111111" stroke-opacity="1" stroke-width="1" stroke-linecap="square" stroke-linejoin="bevel" transform="matrix(0.833333,0,0,0.833333,646.526,878.333)"
font-family="Ubuntu" font-size="11.1111" font-weight="400" font-style="normal" 
>
</g>

<g fill="none" stroke="#111111" stroke-opacity="1" stroke-width="1" stroke-linecap="square" stroke-linejoin="bevel" transform="matrix(0.833333,0,0,0.833333,0,0)"
font-family="Ubuntu" font-size="11.1111" font-weight="400" font-style="normal" 
>
</g>

<g fill="none" stroke="#111111" stroke-opacity="1" stroke-width="1" stroke-linecap="square" stroke-linejoin="bevel" transform="matrix(0.833333,0,0,0.833333,812.059,878.333)"
font-family="Ubuntu" font-size="11.1111" font-weight="400" font-style="normal" 
>
</g>

<g fill="none" stroke="#111111" stroke-opacity="1" stroke-width="1" stroke-linecap="square" stroke-linejoin="bevel" transform="matrix(0.833333,0,0,0.833333,812.059,878.333)"
font-family="Ubuntu" font-size="13" font-weight="400" font-style="normal" 
>
</g>

<g fill="none" stroke="#111111" stroke-opacity="1" stroke-width="1" stroke-linecap="square" stroke-linejoin="bevel" transform="matrix(0.833333,0,0,0.833333,812.059,878.333)"
font-family="Ubuntu" font-size="13" font-weight="400" font-style="normal" 
>
</g>

<g fill="none" stroke="#111111" stroke-opacity="1" stroke-width="1" stroke-linecap="square" stroke-linejoin="bevel" transform="matrix(0.833333,0,0,0.833333,812.059,878.333)"
font-family="Ubuntu" font-size="13" font-weight="400" font-style="normal" 
>
<text fill="#111111" fill-opacity="1" stroke="none" xml:space="preserve" x="0" y="10" font-family="Ubuntu" font-size="13" font-weight="400" font-style="normal" 
 >15:54:20.0</text>
</g>

<g fill="none" stroke="#111111" stroke-opacity="1" stroke-width="1" stroke-linecap="square" stroke-linejoin="bevel" transform="matrix(0.833333,0,0,0.833333,812.059,878.333)"
font-family="Ubuntu" font-size="13" font-weight="400" font-style="normal" 
>
<text fill="#111111" fill-opacity="1" stroke="none" xml:space="preserve" x="0" y="25" font-family="Ubuntu" font-size="13" font-weight="400" font-style="normal" 
 >2024 Jul 10</text>
</g>

<g fill="none" stroke="#111111" stroke-opacity="1" stroke-width="1" stroke-linecap="square" stroke-linejoin="bevel" transform="matrix(0.833333,0,0,0.833333,812.059,878.333)"
font-family="Ubuntu" font-size="13" font-weight="400" font-style="normal" 
>
</g>

<g fill="none" stroke="#111111" stroke-opacity="1" stroke-width="1" stroke-linecap="square" stroke-linejoin="bevel" transform="matrix(0.833333,0,0,0.833333,812.059,878.333)"
font-family="Ubuntu" font-size="11.1111" font-weight="400" font-style="normal" 
>
</g>

<g fill="none" stroke="#111111" stroke-opacity="1" stroke-width="1" stroke-linecap="square" stroke-linejoin="bevel" transform="matrix(0.833333,0,0,0.833333,812.059,878.333)"
font-family="Ubuntu" font-size="11.1111" font-weight="400" font-style="normal" 
>
</g>

<g fill="none" stroke="#111111" stroke-opacity="1" stroke-width="1" stroke-linecap="square" stroke-linejoin="bevel" transform="matrix(0.833333,0,0,0.833333,0,0)"
font-family="Ubuntu" font-size="11.1111" font-weight="400" font-style="normal" 
>
</g>

<g fill="none" stroke="#111111" stroke-opacity="1" stroke-width="1" stroke-linecap="square" stroke-linejoin="bevel" transform="matrix(0.833333,0,0,0.833333,977.593,878.333)"
font-family="Ubuntu" font-size="11.1111" font-weight="400" font-style="normal" 
>
</g>

<g fill="none" stroke="#111111" stroke-opacity="1" stroke-width="1" stroke-linecap="square" stroke-linejoin="bevel" transform="matrix(0.833333,0,0,0.833333,977.593,878.333)"
font-family="Ubuntu" font-size="13" font-weight="400" font-style="normal" 
>
</g>

<g fill="none" stroke="#111111" stroke-opacity="1" stroke-width="1" stroke-linecap="square" stroke-linejoin="bevel" transform="matrix(0.833333,0,0,0.833333,977.593,878.333)"
font-family="Ubuntu" font-size="13" font-weight="400" font-style="normal" 
>
</g>

<g fill="none" stroke="#111111" stroke-opacity="1" stroke-width="1" stroke-linecap="square" stroke-linejoin="bevel" transform="matrix(0.833333,0,0,0.833333,977.593,878.333)"
font-family="Ubuntu" font-size="13" font-weight="400" font-style="normal" 
>
<text fill="#111111" fill-opacity="1" stroke="none" xml:space="preserve" x="0" y="10" font-family="Ubuntu" font-size="13" font-weight="400" font-style="normal" 
 >15:54:40.0</text>
</g>

<g fill="none" stroke="#111111" stroke-opacity="1" stroke-width="1" stroke-linecap="square" stroke-linejoin="bevel" transform="matrix(0.833333,0,0,0.833333,977.593,878.333)"
font-family="Ubuntu" font-size="13" font-weight="400" font-style="normal" 
>
<text fill="#111111" fill-opacity="1" stroke="none" xml:space="preserve" x="0" y="25" font-family="Ubuntu" font-size="13" font-weight="400" font-style="normal" 
 >2024 Jul 10</text>
</g>

<g fill="none" stroke="#111111" stroke-opacity="1" stroke-width="1" stroke-linecap="square" stroke-linejoin="bevel" transform="matrix(0.833333,0,0,0.833333,977.593,878.333)"
font-family="Ubuntu" font-size="13" font-weight="400" font-style="normal" 
>
</g>

<g fill="none" stroke="#111111" stroke-opacity="1" stroke-width="1" stroke-linecap="square" stroke-linejoin="bevel" transform="matrix(0.833333,0,0,0.833333,977.593,878.333)"
font-family="Ubuntu" font-size="11.1111" font-weight="400" font-style="normal" 
>
</g>

<g fill="none" stroke="#111111" stroke-opacity="1" stroke-width="1" stroke-linecap="square" stroke-linejoin="bevel" transform="matrix(0.833333,0,0,0.833333,977.593,878.333)"
font-family="Ubuntu" font-size="11.1111" font-weight="400" font-style="normal" 
>
</g>

<g fill="none" stroke="#111111" stroke-opacity="1" stroke-width="1" stroke-linecap="square" stroke-linejoin="bevel" transform="matrix(0.833333,0,0,0.833333,0,0)"
font-family="Ubuntu" font-size="11.1111" font-weight="400" font-style="normal" 
>
</g>

<g fill="none" stroke="#111111" stroke-opacity="1" stroke-width="1" stroke-linecap="square" stroke-linejoin="bevel" transform="matrix(0.833333,0,0,0.833333,1143.13,878.333)"
font-family="Ubuntu" font-size="11.1111" font-weight="400" font-style="normal" 
>
</g>

<g fill="none" stroke="#111111" stroke-opacity="1" stroke-width="1" stroke-linecap="square" stroke-linejoin="bevel" transform="matrix(0.833333,0,0,0.833333,1143.13,878.333)"
font-family="Ubuntu" font-size="13" font-weight="400" font-style="normal" 
>
</g>

<g fill="none" stroke="#111111" stroke-opacity="1" stroke-width="1" stroke-linecap="square" stroke-linejoin="bevel" transform="matrix(0.833333,0,0,0.833333,1143.13,878.333)"
font-family="Ubuntu" font-size="13" font-weight="400" font-style="normal" 
>
</g>

<g fill="none" stroke="#111111" stroke-opacity="1" stroke-width="1" stroke-linecap="square" stroke-linejoin="bevel" transform="matrix(0.833333,0,0,0.833333,1143.13,878.333)"
font-family="Ubuntu" font-size="13" font-weight="400" font-style="normal" 
>
<text fill="#111111" fill-opacity="1" stroke="none" xml:space="preserve" x="0" y="10" font-family="Ubuntu" font-size="13" font-weight="400" font-style="normal" 
 >15:55:00.0</text>
</g>

<g fill="none" stroke="#111111" stroke-opacity="1" stroke-width="1" stroke-linecap="square" stroke-linejoin="bevel" transform="matrix(0.833333,0,0,0.833333,1143.13,878.333)"
font-family="Ubuntu" font-size="13" font-weight="400" font-style="normal" 
>
<text fill="#111111" fill-opacity="1" stroke="none" xml:space="preserve" x="0" y="25" font-family="Ubuntu" font-size="13" font-weight="400" font-style="normal" 
 >2024 Jul 10</text>
</g>

<g fill="none" stroke="#111111" stroke-opacity="1" stroke-width="1" stroke-linecap="square" stroke-linejoin="bevel" transform="matrix(0.833333,0,0,0.833333,1143.13,878.333)"
font-family="Ubuntu" font-size="13" font-weight="400" font-style="normal" 
>
</g>

<g fill="none" stroke="#111111" stroke-opacity="1" stroke-width="1" stroke-linecap="square" stroke-linejoin="bevel" transform="matrix(0.833333,0,0,0.833333,1143.13,878.333)"
font-family="Ubuntu" font-size="11.1111" font-weight="400" font-style="normal" 
>
</g>

<g fill="none" stroke="#111111" stroke-opacity="1" stroke-width="1" stroke-linecap="square" stroke-linejoin="bevel" transform="matrix(0.833333,0,0,0.833333,1143.13,878.333)"
font-family="Ubuntu" font-size="11.1111" font-weight="400" font-style="normal" 
>
</g>

<g fill="none" stroke="#111111" stroke-opacity="1" stroke-width="1" stroke-linecap="square" stroke-linejoin="bevel" transform="matrix(0.833333,0,0,0.833333,0,0)"
font-family="Ubuntu" font-size="11.1111" font-weight="400" font-style="normal" 
>
</g>

<g fill="none" stroke="#000000" stroke-opacity="1" stroke-width="1" stroke-linecap="square" stroke-linejoin="bevel" transform="matrix(0.833333,0,0,0.833333,0,0)"
font-family="Ubuntu" font-size="11.1111" font-weight="400" font-style="normal" 
>
</g>

<g fill="none" stroke="#111111" stroke-opacity="1" stroke-width="1" stroke-linecap="butt" stroke-linejoin="bevel" transform="matrix(0.833333,0,0,0.833333,0,0)"
font-family="Ubuntu" font-size="11.1111" font-weight="400" font-style="normal" 
>
<polyline fill="none" vector-effect="non-scaling-stroke" points="64.6648,1040.5 64.6648,1045.7 " />
<polyline fill="none" vector-effect="non-scaling-stroke" points="163.985,1040.5 163.985,1045.7 " />
<polyline fill="none" vector-effect="non-scaling-stroke" points="263.305,1040.5 263.305,1045.7 " />
<polyline fill="none" vector-effect="non-scaling-stroke" points="362.625,1040.5 362.625,1045.7 " />
<polyline fill="none" vector-effect="non-scaling-stroke" points="461.945,1040.5 461.945,1045.7 " />
<polyline fill="none" vector-effect="non-scaling-stroke" points="561.265,1040.5 561.265,1045.7 " />
<polyline fill="none" vector-effect="non-scaling-stroke" points="660.585,1040.5 660.585,1045.7 " />
<polyline fill="none" vector-effect="non-scaling-stroke" points="759.905,1040.5 759.905,1045.7 " />
<polyline fill="none" vector-effect="non-scaling-stroke" points="859.225,1040.5 859.225,1045.7 " />
<polyline fill="none" vector-effect="non-scaling-stroke" points="958.545,1040.5 958.545,1045.7 " />
<polyline fill="none" vector-effect="non-scaling-stroke" points="1057.87,1040.5 1057.87,1045.7 " />
<polyline fill="none" vector-effect="non-scaling-stroke" points="1157.19,1040.5 1157.19,1045.7 " />
<polyline fill="none" vector-effect="non-scaling-stroke" points="1256.51,1040.5 1256.51,1045.7 " />
<polyline fill="none" vector-effect="non-scaling-stroke" points="1355.83,1040.5 1355.83,1045.7 " />
<polyline fill="none" vector-effect="non-scaling-stroke" points="114.325,1040.5 114.325,1047.7 " />
<polyline fill="none" vector-effect="non-scaling-stroke" points="312.965,1040.5 312.965,1047.7 " />
<polyline fill="none" vector-effect="non-scaling-stroke" points="511.605,1040.5 511.605,1047.7 " />
<polyline fill="none" vector-effect="non-scaling-stroke" points="710.245,1040.5 710.245,1047.7 " />
<polyline fill="none" vector-effect="non-scaling-stroke" points="908.885,1040.5 908.885,1047.7 " />
<polyline fill="none" vector-effect="non-scaling-stroke" points="1107.53,1040.5 1107.53,1047.7 " />
<polyline fill="none" vector-effect="non-scaling-stroke" points="1306.17,1040.5 1306.17,1047.7 " />
<polyline fill="none" vector-effect="non-scaling-stroke" points="213.645,1040.5 213.645,1049.7 " />
<polyline fill="none" vector-effect="non-scaling-stroke" points="412.285,1040.5 412.285,1049.7 " />
<polyline fill="none" vector-effect="non-scaling-stroke" points="610.925,1040.5 610.925,1049.7 " />
<polyline fill="none" vector-effect="non-scaling-stroke" points="809.565,1040.5 809.565,1049.7 " />
<polyline fill="none" vector-effect="non-scaling-stroke" points="1008.21,1040.5 1008.21,1049.7 " />
<polyline fill="none" vector-effect="non-scaling-stroke" points="1206.85,1040.5 1206.85,1049.7 " />
<polyline fill="none" vector-effect="non-scaling-stroke" points="1405.49,1040.5 1405.49,1049.7 " />
</g>

<g fill="none" stroke="#000000" stroke-opacity="1" stroke-width="1" stroke-linecap="square" stroke-linejoin="bevel" transform="matrix(0.833333,0,0,0.833333,0,0)"
font-family="Ubuntu" font-size="11.1111" font-weight="400" font-style="normal" 
>
</g>

<g fill="none" stroke="#111111" stroke-opacity="1" stroke-width="1" stroke-linecap="butt" stroke-linejoin="bevel" transform="matrix(0.833333,0,0,0.833333,0,0)"
font-family="Ubuntu" font-size="11.1111" font-weight="400" font-style="normal" 
>
<polyline fill="none" vector-effect="non-scaling-stroke" points="39,1040.6 1406,1040.6 " />
</g>

<g fill="none" stroke="#000000" stroke-opacity="1" stroke-width="1" stroke-linecap="square" stroke-linejoin="bevel" transform="matrix(0.833333,0,0,0.833333,0,0)"
font-family="Ubuntu" font-size="11.1111" font-weight="400" font-style="normal" 
>
</g>

<g fill="none" stroke="#000000" stroke-opacity="1" stroke-width="1" stroke-linecap="square" stroke-linejoin="bevel" transform="matrix(0.833333,0,0,0.833333,0,0)"
font-family="Ubuntu" font-size="11.1111" font-weight="400" font-style="normal" 
>
</g>

<g fill="none" stroke="#000000" stroke-opacity="1" stroke-width="1" stroke-linecap="square" stroke-linejoin="bevel" transform="matrix(0.833333,0,0,0.833333,0,0)"
font-family="Ubuntu" font-size="12.2222" font-weight="400" font-style="normal" 
>
</g>

<g fill="none" stroke="#000000" stroke-opacity="1" stroke-width="1" stroke-linecap="square" stroke-linejoin="bevel" transform="matrix(1,0,0,1,0,0)"
font-family="Ubuntu" font-size="12.2222" font-weight="400" font-style="normal" 
>
</g>
</g>
</svg>
