<?xml version="1.0" encoding="UTF-8" standalone="no"?>
<svg viewBox="0 0 1200 900"
 xmlns="http://www.w3.org/2000/svg" xmlns:xlink="http://www.w3.org/1999/xlink"  version="1.2" baseProfile="tiny">
<title>Qt SVG Document</title>
<desc>Generated with Qt</desc>
<defs>
</defs>
<g fill="none" stroke="black" stroke-width="1" fill-rule="evenodd" stroke-linecap="square" stroke-linejoin="bevel" >

<g fill="#ffffff" fill-opacity="1" stroke="none" transform="matrix(1,0,0,1,0,0)"
font-family="Ubuntu" font-size="12.2222" font-weight="400" font-style="normal" 
>
<rect x="0" y="0" width="1200" height="900"/>
</g>

<g fill="none" stroke="#000000" stroke-opacity="1" stroke-width="1" stroke-linecap="square" stroke-linejoin="bevel" transform="matrix(1,0,0,1,0,0)"
font-family="Ubuntu" font-size="12.2222" font-weight="400" font-style="normal" 
>
</g>

<g fill="none" stroke="#000000" stroke-opacity="1" stroke-width="1" stroke-linecap="square" stroke-linejoin="bevel" transform="matrix(0.833333,0,0,0.833333,0,0)"
font-family="Ubuntu" font-size="12.2222" font-weight="400" font-style="normal" 
>
</g>

<g fill="#ffffff" fill-opacity="1" stroke="none" transform="matrix(0.833333,0,0,0.833333,0,0)"
font-family="Ubuntu" font-size="12.2222" font-weight="400" font-style="normal" 
>
<rect x="38" y="0" width="1401" height="1038"/>
</g>

<g fill="none" stroke="#000000" stroke-opacity="1" stroke-width="1" stroke-linecap="square" stroke-linejoin="bevel" transform="matrix(0.833333,0,0,0.833333,0,0)"
font-family="Ubuntu" font-size="12.2222" font-weight="400" font-style="normal" 
>
</g>

<g fill="none" stroke="#000000" stroke-opacity="1" stroke-width="1" stroke-linecap="square" stroke-linejoin="bevel" transform="matrix(0.833333,0,0,0.833333,0,0)"
font-family="Ubuntu" font-size="12.2222" font-weight="400" font-style="normal" 
>
</g>

<g fill="none" stroke="#a0a0a4" stroke-opacity="1" stroke-dasharray="1,2" stroke-dashoffset="0" stroke-width="1" stroke-linecap="butt" stroke-linejoin="bevel" transform="matrix(0.833333,0,0,0.833333,0,0)"
font-family="Ubuntu" font-size="12.2222" font-weight="400" font-style="normal" 
>
<polyline fill="none" vector-effect="non-scaling-stroke" points="73.497,0 73.497,1038 " />
<polyline fill="none" vector-effect="non-scaling-stroke" points="177.459,0 177.459,1038 " />
<polyline fill="none" vector-effect="non-scaling-stroke" points="281.421,0 281.421,1038 " />
<polyline fill="none" vector-effect="non-scaling-stroke" points="385.384,0 385.384,1038 " />
<polyline fill="none" vector-effect="non-scaling-stroke" points="489.346,0 489.346,1038 " />
<polyline fill="none" vector-effect="non-scaling-stroke" points="593.308,0 593.308,1038 " />
<polyline fill="none" vector-effect="non-scaling-stroke" points="697.27,0 697.27,1038 " />
<polyline fill="none" vector-effect="non-scaling-stroke" points="801.232,0 801.232,1038 " />
<polyline fill="none" vector-effect="non-scaling-stroke" points="905.194,0 905.194,1038 " />
<polyline fill="none" vector-effect="non-scaling-stroke" points="1009.16,0 1009.16,1038 " />
<polyline fill="none" vector-effect="non-scaling-stroke" points="1113.12,0 1113.12,1038 " />
<polyline fill="none" vector-effect="non-scaling-stroke" points="1217.08,0 1217.08,1038 " />
<polyline fill="none" vector-effect="non-scaling-stroke" points="1321.04,0 1321.04,1038 " />
<polyline fill="none" vector-effect="non-scaling-stroke" points="1425.01,0 1425.01,1038 " />
<polyline fill="none" vector-effect="non-scaling-stroke" points="125.478,0 125.478,1038 " />
<polyline fill="none" vector-effect="non-scaling-stroke" points="333.402,0 333.402,1038 " />
<polyline fill="none" vector-effect="non-scaling-stroke" points="541.327,0 541.327,1038 " />
<polyline fill="none" vector-effect="non-scaling-stroke" points="749.251,0 749.251,1038 " />
<polyline fill="none" vector-effect="non-scaling-stroke" points="957.175,0 957.175,1038 " />
<polyline fill="none" vector-effect="non-scaling-stroke" points="1165.1,0 1165.1,1038 " />
<polyline fill="none" vector-effect="non-scaling-stroke" points="1373.02,0 1373.02,1038 " />
<polyline fill="none" vector-effect="non-scaling-stroke" points="38,978.995 1439,978.995 " />
<polyline fill="none" vector-effect="non-scaling-stroke" points="38,945.541 1439,945.541 " />
<polyline fill="none" vector-effect="non-scaling-stroke" points="38,912.086 1439,912.086 " />
<polyline fill="none" vector-effect="non-scaling-stroke" points="38,878.632 1439,878.632 " />
<polyline fill="none" vector-effect="non-scaling-stroke" points="38,811.723 1439,811.723 " />
<polyline fill="none" vector-effect="non-scaling-stroke" points="38,778.268 1439,778.268 " />
<polyline fill="none" vector-effect="non-scaling-stroke" points="38,744.814 1439,744.814 " />
<polyline fill="none" vector-effect="non-scaling-stroke" points="38,711.359 1439,711.359 " />
<polyline fill="none" vector-effect="non-scaling-stroke" points="38,644.45 1439,644.45 " />
<polyline fill="none" vector-effect="non-scaling-stroke" points="38,610.996 1439,610.996 " />
<polyline fill="none" vector-effect="non-scaling-stroke" points="38,577.541 1439,577.541 " />
<polyline fill="none" vector-effect="non-scaling-stroke" points="38,544.087 1439,544.087 " />
<polyline fill="none" vector-effect="non-scaling-stroke" points="38,477.178 1439,477.178 " />
<polyline fill="none" vector-effect="non-scaling-stroke" points="38,443.723 1439,443.723 " />
<polyline fill="none" vector-effect="non-scaling-stroke" points="38,410.269 1439,410.269 " />
<polyline fill="none" vector-effect="non-scaling-stroke" points="38,376.814 1439,376.814 " />
<polyline fill="none" vector-effect="non-scaling-stroke" points="38,309.905 1439,309.905 " />
<polyline fill="none" vector-effect="non-scaling-stroke" points="38,276.451 1439,276.451 " />
<polyline fill="none" vector-effect="non-scaling-stroke" points="38,242.996 1439,242.996 " />
<polyline fill="none" vector-effect="non-scaling-stroke" points="38,209.542 1439,209.542 " />
<polyline fill="none" vector-effect="non-scaling-stroke" points="38,142.633 1439,142.633 " />
<polyline fill="none" vector-effect="non-scaling-stroke" points="38,109.179 1439,109.179 " />
<polyline fill="none" vector-effect="non-scaling-stroke" points="38,75.724 1439,75.724 " />
<polyline fill="none" vector-effect="non-scaling-stroke" points="38,42.2696 1439,42.2696 " />
<polyline fill="none" vector-effect="non-scaling-stroke" points="229.44,0 229.44,1038 " />
<polyline fill="none" vector-effect="non-scaling-stroke" points="437.365,0 437.365,1038 " />
<polyline fill="none" vector-effect="non-scaling-stroke" points="645.289,0 645.289,1038 " />
<polyline fill="none" vector-effect="non-scaling-stroke" points="853.213,0 853.213,1038 " />
<polyline fill="none" vector-effect="non-scaling-stroke" points="1061.14,0 1061.14,1038 " />
<polyline fill="none" vector-effect="non-scaling-stroke" points="1269.06,0 1269.06,1038 " />
<polyline fill="none" vector-effect="non-scaling-stroke" points="38,1012.45 1439,1012.45 " />
<polyline fill="none" vector-effect="non-scaling-stroke" points="38,845.177 1439,845.177 " />
<polyline fill="none" vector-effect="non-scaling-stroke" points="38,677.905 1439,677.905 " />
<polyline fill="none" vector-effect="non-scaling-stroke" points="38,510.632 1439,510.632 " />
<polyline fill="none" vector-effect="non-scaling-stroke" points="38,343.36 1439,343.36 " />
<polyline fill="none" vector-effect="non-scaling-stroke" points="38,176.087 1439,176.087 " />
<polyline fill="none" vector-effect="non-scaling-stroke" points="38,8.81508 1439,8.81508 " />
</g>

<g fill="none" stroke="#000000" stroke-opacity="1" stroke-width="1" stroke-linecap="square" stroke-linejoin="bevel" transform="matrix(0.833333,0,0,0.833333,0,0)"
font-family="Ubuntu" font-size="12.2222" font-weight="400" font-style="normal" 
>
</g>

<g fill="none" stroke="#000000" stroke-opacity="1" stroke-width="1" stroke-linecap="square" stroke-linejoin="bevel" transform="matrix(0.833333,0,0,0.833333,0,0)"
font-family="Ubuntu" font-size="12.2222" font-weight="400" font-style="normal" 
>
</g>

<g fill="none" stroke="#9467bd" stroke-opacity="1" stroke-width="1.3" stroke-linecap="square" stroke-linejoin="bevel" transform="matrix(0.833333,0,0,0.833333,0,0)"
font-family="Ubuntu" font-size="12.2222" font-weight="400" font-style="normal" 
>
<polyline fill="none" vector-effect="none" points="39,508.772 39.6145,508.772 40.1355,508.772 40.759,508.776 41.2781,508.772 41.7986,508.772 42.4209,508.772 42.9409,508.772 43.4612,508.772 44.085,508.772 44.7088,508.772 45.2277,508.772 45.7466,508.772 46.3729,508.772 46.8921,508.772 47.4132,508.776 48.0357,508.772 48.556,508.772 49.1795,508.772 49.6983,508.772 50.2174,508.772 50.7356,508.772 51.3606,508.776 51.9864,508.776 52.5057,508.772 53.1305,508.772 53.6496,508.772 54.2736,508.772 54.7934,508.776 55.3156,508.772 55.8318,508.772 56.455,508.772 56.9798,508.776 57.6021,508.772 58.1176,508.772 58.7415,508.776 59.3659,508.772 59.8893,508.772 60.4056,508.772 60.9294,508.772 61.447,508.772 62.0709,508.772 62.5934,508.772 63.2158,508.776 63.7346,508.772 64.3585,508.772 64.8777,508.772 65.503,508.772 66.1241,508.772 66.7484,508.772 67.3731,508.772 67.8936,508.776 68.5146,508.772 69.0363,508.772 69.5553,508.772 70.179,508.772 70.6995,508.772 71.2192,508.772 71.737,508.772 72.3613,508.776 73.0917,508.772 73.7137,508.772 74.129,508.772 74.6524,508.772 75.2762,508.772 75.7925,508.772 76.3142,508.772 76.9389,508.772 77.4553,508.776 78.0807,508.772 78.5995,508.772 79.2231,508.772 79.7412,508.772 80.2635,508.772 80.8873,508.776 81.4061,508.776 82.0287,508.776 82.5515,508.772 83.0697,508.772 83.5891,508.772 84.1105,508.772 84.6277,508.772 85.1479,508.772 85.6675,508.776 86.2945,508.772 86.8122,508.772 87.3335,508.776 87.8527,508.772 88.4769,508.772 88.9975,508.772 89.4119,508.772 89.9302,508.772 90.4497,508.772 91.0752,508.772 91.6988,508.772 92.3243,508.772 92.8458,508.772 93.4713,508.861 93.884,509.63 94.5066,511.584 95.0278,515.012 95.6518,520.112 96.274,526.599 96.7958,534.487 97.4175,544.417 98.0428,554.963 98.564,565.777 99.1866,577.495 99.7065,590.081 100.122,603.423 100.639,617.372 101.263,632.004 101.782,645.905 102.303,661.377 102.821,678.424 103.448,694.558 103.965,711.979 104.591,728.245 105.111,744.6 105.734,763.283 106.254,780.455 106.772,796.116 107.397,812.529 108.023,828.617 108.542,843.015 109.063,856.865 109.683,870.255 110.307,885.737 110.93,898.592 111.452,911.533 111.971,921.995 112.698,932.426 113.116,940.758 113.633,949.141 114.154,956.918 114.672,964.029 115.297,970.934 115.818,976.623 116.444,981.91 117.065,986.647 117.482,990.763 118.106,994.737 118.731,998.556 119.249,1001.39 119.977,1003.86 120.499,1005.94 121.017,1007.43 121.536,1008.81 122.057,1009.92 122.785,1011.05 123.302,1011.66 123.929,1012.07 124.447,1012.28 125.07,1012.33 125.591,1012.31 126.216,1012.24 126.841,1012 127.358,1011.62 127.879,1011.27 128.398,1010.88 129.02,1010.47 129.543,1010.09 130.06,1009.6 130.684,1009.12 131.307,1008.47 131.829,1007.89 132.456,1007.26 133.076,1006.56 133.596,1005.94 134.118,1005.31 134.635,1004.68 135.158,1004.05 135.781,1003.35 136.298,1002.73 136.818,1002.05 137.445,1001.34 138.064,1000.69 138.692,1000.09 139.107,999.532 139.73,998.987 140.249,998.463 140.77,997.991 141.29,997.531 141.808,997.158 142.433,996.829 142.95,996.479 143.576,996.162 144.096,996.008 144.722,995.855 145.241,995.758 145.863,995.708 146.488,995.609 147.008,995.45 147.525,995.226 148.151,994.972 148.774,994.694 149.19,994.316 149.815,993.888 150.335,993.442 150.851,992.971 151.477,992.4 151.998,991.827 152.622,991.259 153.139,990.662 153.764,989.96 154.389,989.231 154.907,988.585 155.532,987.843 156.157,987.191 156.674,986.496 157.194,985.85 157.818,985.119 158.338,984.519 158.859,983.907 159.586,983.234 160.001,982.726 160.522,982.168 161.248,981.59 161.77,981.066 162.495,980.55 163.122,980.158 163.534,979.848 164.16,979.558 164.68,979.352 165.2,979.186 165.72,979.062 166.447,979.006 166.863,978.937 167.487,978.813 168.112,978.602 168.629,978.377 169.151,978.098 169.775,977.77 170.188,977.423 170.813,977.008 171.333,976.559 171.852,976.068 172.477,975.493 173.101,974.849 173.622,974.276 174.141,973.641 174.662,973.04 175.284,972.366 175.803,971.675 176.426,971.024 176.95,970.381 177.468,969.721 178.092,968.995 178.61,968.411 179.131,967.806 179.754,967.158 180.379,966.518 180.792,965.95 181.419,965.426 181.938,964.96 182.457,964.488 183.08,963.979 183.601,963.581 184.226,963.212 184.743,962.913 185.264,962.689 185.889,962.495 186.408,962.367 187.032,962.288 187.552,962.238 188.071,962.142 188.695,961.976 189.319,961.737 189.943,961.435 190.359,961.116 190.982,960.691 191.605,960.273 192.126,959.852 192.645,959.362 193.27,958.821 193.683,958.331 194.206,957.713 194.931,957.076 195.346,956.45 195.868,955.887 196.387,955.251 197.009,954.507 197.635,953.862 198.157,953.172 198.78,952.483 199.406,951.729 199.923,951.108 200.545,950.422 201.17,949.828 201.691,949.216 202.21,948.644 202.731,948.137 203.354,947.683 203.873,947.246 204.601,946.778 205.019,946.46 205.536,946.164 206.158,945.911 206.783,945.74 207.408,945.616 207.823,945.569 208.447,945.478 208.967,945.406 209.486,945.212 210.109,944.968 210.632,944.719 211.15,944.421 211.776,943.999 212.398,943.538 212.92,943.047 213.437,942.605 214.06,942.069 214.686,941.457 215.103,940.866 215.621,940.304 216.141,939.717 216.763,938.962 217.388,938.374 217.909,937.733 218.427,937.073 218.95,936.438 219.572,935.685 220.197,934.998 220.716,934.377 221.236,933.746 221.858,933.058 222.378,932.493 223.107,931.885 223.627,931.388 224.144,930.872 224.77,930.474 225.29,930.086 225.81,929.716 226.327,929.443 226.953,929.202 227.471,929.009 228.098,928.887 228.721,928.817 229.242,928.764 229.759,928.648 230.279,928.484 230.904,928.26 231.424,927.997 231.942,927.696 232.567,927.301 233.085,926.893 233.711,926.403 234.229,925.913 234.751,925.356 235.374,924.813 235.892,924.233 236.415,923.64 237.038,922.964 237.558,922.331 238.076,921.631 238.701,920.896 239.323,920.186 239.845,919.544 240.466,918.777 241.089,918.178 241.613,917.568 242.132,916.896 242.754,916.287 243.275,915.722 243.794,915.189 244.315,914.725 244.833,914.265 245.354,913.869 245.873,913.484 246.496,913.077 247.018,912.801 247.641,912.52 248.158,912.316 248.785,912.172 249.303,912.123 249.93,912.048 250.654,911.936 251.178,911.77 251.696,911.51 252.317,911.234 252.841,910.875 253.566,910.455 254.19,910.013 254.607,909.483 255.231,908.974 255.853,908.348 256.375,907.764 256.999,907.131 257.622,906.423 258.248,905.799 258.66,905.14 259.285,904.507 259.804,903.822 260.428,903.168 260.947,902.536 261.465,901.791 262.089,901.18 262.612,900.599 263.13,899.967 263.754,899.361 264.377,898.789 264.793,898.27 265.418,897.771 265.938,897.31 266.456,896.892 267.08,896.53 267.6,896.17 268.12,895.899 268.641,895.685 269.266,895.508 269.89,895.413 270.513,895.34 271.03,895.251 271.654,895.133 272.174,894.942 272.801,894.677 273.32,894.401 273.944,893.992 274.565,893.491 275.086,893.049 275.711,892.52 276.23,891.966 276.854,891.43 277.374,890.851 277.895,890.201 278.517,889.552 279.143,888.871 279.764,888.194 280.283,887.478 280.804,886.844 281.324,886.264 282.052,885.515 282.467,884.871 283.09,884.259 283.508,883.681 284.131,883.052 284.653,882.523 285.172,881.988 285.693,881.488 286.21,881.005 286.73,880.568 287.249,880.137 287.875,879.778 288.396,879.436 288.912,879.15 289.536,878.908 290.16,878.765 290.785,878.689 291.305,878.62 291.825,878.55 292.447,878.411 292.865,878.222 293.486,877.983 294.111,877.711 294.526,877.374 295.151,876.961 295.672,876.529 296.297,876.094 296.711,875.598 297.229,875.068 297.646,874.658 298.168,874.102 298.684,873.481 299.309,872.881 299.932,872.162 300.455,871.515 301.076,870.818 301.595,870.065 302.22,869.368 302.74,868.722 303.363,868.094 303.883,867.417 304.402,866.8 305.029,866.241 305.545,865.666 306.067,865.136 306.586,864.591 307.208,864.111 307.731,863.652 308.249,863.248 308.98,862.86 309.498,862.544 310.02,862.311 310.644,862.12 311.267,862.001 311.89,861.924 312.307,861.856 312.93,861.741 313.551,861.554 314.176,861.324 314.695,861.028 315.319,860.68 315.943,860.232 316.463,859.827 316.982,859.344 317.607,858.77 318.13,858.242 318.753,857.598 319.375,857.046 319.791,856.427 320.516,855.662 321.039,855.033 321.661,854.345 322.179,853.677 322.702,853.001 323.219,852.356 323.843,851.657 324.467,850.989 324.988,850.368 325.507,849.778 326.029,849.246 326.548,848.698 327.171,848.125 327.693,847.601 328.315,847.119 328.833,846.668 329.563,846.262 330.187,845.905 330.706,845.659 331.331,845.466 331.849,845.301 332.369,845.209 332.993,845.159 333.409,845.091 334.032,844.951 334.655,844.721 335.175,844.479 335.8,844.189 336.32,843.782 336.841,843.374 337.359,842.945 338.088,842.424 338.608,841.876 339.125,841.379 339.647,840.758 340.268,840.12 340.791,839.472 341.308,838.851 341.933,838.227 342.454,837.519 343.08,836.872 343.704,836.061 344.22,835.437 344.741,834.799 345.258,834.178 345.989,833.512 346.51,832.915 347.03,832.299 347.546,831.797 348.069,831.277 348.693,830.754 349.212,830.277 349.834,829.848 350.25,829.567 350.772,829.228 351.398,828.947 352.02,828.729 352.644,828.56 353.161,828.49 353.784,828.419 354.305,828.348 354.824,828.17 355.446,827.985 355.967,827.742 356.487,827.458 357.112,827.057 357.632,826.646 358.149,826.197 358.774,825.695 359.295,825.174 359.921,824.601 360.438,824.051 361.064,823.44 361.685,822.733 362.205,822.085 362.726,821.443 363.352,820.754 363.871,820.112 364.389,819.452 365.012,818.806 365.635,818.072 366.05,817.433 366.676,816.836 367.195,816.226 367.819,815.582 368.342,815.04 368.962,814.47 369.588,813.909 370.21,813.456 370.732,813.047 371.357,812.649 371.981,812.342 372.496,812.107 373.122,811.912 373.643,811.796 374.16,811.725 374.89,811.675 375.307,811.561 375.928,811.373 376.447,811.165 376.969,810.887 377.591,810.524 378.109,810.143 378.735,809.719 379.255,809.271 379.775,808.792 380.296,808.269 380.921,807.726 381.439,807.186 382.063,806.544 382.582,805.832 383.101,805.265 383.622,804.625 384.143,803.969 384.765,803.258 385.287,802.57 385.806,801.978 386.324,801.321 387.052,800.593 387.574,799.953 388.199,799.409 388.615,798.845 389.132,798.35 389.653,797.832 390.171,797.358 390.694,796.935 391.21,796.508 391.835,796.134 392.356,795.823 392.873,795.523 393.396,795.326 394.018,795.181 394.642,795.043 395.058,794.995 395.682,794.925 396.308,794.79 396.825,794.587 397.554,794.325 398.072,794.02 398.593,793.657 399.112,793.257 399.632,792.859 400.259,792.405 400.776,791.905 401.298,791.395 401.815,790.851 402.232,790.407 402.752,789.813 403.271,789.202 403.897,788.474 404.416,787.837 404.937,787.197 405.559,786.548 406.081,785.883 406.703,785.201 407.221,784.565 407.742,783.934 408.259,783.29 408.884,782.685 409.507,782.025 410.029,781.488 410.546,780.99 411.067,780.518 411.692,780.076 412.212,779.676 412.73,779.317 413.354,779.012 413.875,778.732 414.396,778.524 415.019,778.396 415.54,778.306 416.056,778.257 416.578,778.166 417.097,778.058 417.618,777.851 418.242,777.614 418.761,777.33 419.489,776.954 419.904,776.556 420.427,776.15 420.945,775.681 421.571,775.173 422.09,774.607 422.714,774.046 423.233,773.455 423.751,772.835 424.481,772.139 424.998,771.46 425.519,770.824 426.144,770.118 426.768,769.485 427.184,768.778 427.704,768.141 428.326,767.445 428.949,766.809 429.471,766.242 429.988,765.638 430.51,765.005 431.027,764.495 431.549,764.026 432.173,763.574 432.798,763.139 433.212,762.74 433.939,762.363 434.459,762.076 435.081,761.842 435.602,761.698 436.226,761.583 436.745,761.532 437.37,761.445 437.891,761.308 438.514,761.102 439.034,760.869 439.657,760.545 440.282,760.203 440.697,759.827 441.322,759.384 441.945,758.869 442.465,758.331 443.09,757.747 443.608,757.182 444.129,756.598 444.648,755.988 445.167,755.36 445.792,754.685 446.309,753.985 446.933,753.396 447.453,752.727 447.975,752.094 448.493,751.461 449.014,750.748 449.637,750.106 450.261,749.501 450.782,748.916 451.3,748.356 451.821,747.789 452.446,747.274 453.067,746.783 453.587,746.313 454.003,746.011 454.629,745.685 455.148,745.424 455.667,745.207 456.187,745.005 456.812,744.887 457.329,744.835 457.954,744.748 458.475,744.661 458.994,744.502 459.512,744.277 460.241,744.012 460.657,743.725 461.279,743.28 461.801,742.858 462.32,742.414 462.944,741.88 463.57,741.321 464.089,740.761 464.608,740.183 465.233,739.502 465.857,738.827 466.376,738.199 466.895,737.55 467.417,736.919 468.04,736.15 468.557,735.518 469.183,734.801 469.808,734.095 470.326,733.467 470.949,732.815 471.575,732.205 472.092,731.642 472.614,731.08 473.237,730.55 473.758,730.043 474.379,729.683 474.901,729.274 475.42,728.969 476.044,728.665 476.566,728.432 477.188,728.269 477.706,728.148 478.332,728.1 478.954,728.013 479.58,727.879 479.995,727.681 480.62,727.427 481.241,727.119 481.763,726.784 482.387,726.345 482.904,725.92 483.427,725.457 483.946,724.966 484.568,724.369 485.09,723.806 485.609,723.226 486.232,722.573 486.753,722.012 487.272,721.267 487.894,720.618 488.416,719.986 488.936,719.334 489.561,718.571 490.081,717.904 490.597,717.296 491.223,716.644 491.846,716.04 492.367,715.415 492.883,714.815 493.508,714.283 494.03,713.786 494.654,713.303 495.174,712.882 495.693,712.513 496.318,712.181 496.939,711.861 497.46,711.647 498.188,711.512 498.603,711.412 499.123,711.367 499.747,711.28 500.267,711.144 500.891,710.945 501.409,710.714 502.034,710.38 502.553,710.053 503.075,709.679 503.595,709.262 504.217,708.773 504.738,708.283 505.257,707.748 505.881,707.082 506.295,706.639 506.817,705.989 507.544,705.273 508.064,704.647 508.584,703.986 509.208,703.287 509.727,702.658 510.247,702.06 510.767,701.409 511.288,700.715 511.806,700.107 512.537,699.412 513.055,698.831 513.575,698.274 514.096,697.759 514.822,697.164 515.343,696.671 515.862,696.209 516.485,695.834 517.007,695.511 517.527,695.232 518.148,694.977 518.669,694.815 519.294,694.72 519.813,694.651 520.438,694.547 521.06,694.434 521.685,694.208 522.308,693.955 522.827,693.668 523.451,693.274 523.971,692.9 524.595,692.393 525.114,691.909 525.634,691.362 526.258,690.8 526.777,690.181 527.402,689.531 527.921,688.93 528.544,688.257 529.171,687.561 529.687,686.867 530.209,686.286 530.726,685.618 531.354,684.984 531.767,684.357 532.392,683.733 533.016,683.064 533.536,682.415 534.058,681.844 534.68,681.307 535.198,680.755 535.719,680.269 536.238,679.813 536.757,679.423 537.383,679.028 538.006,678.704 538.524,678.446 539.044,678.217 539.671,678.053 540.189,677.96 540.813,677.89 541.54,677.782 541.956,677.651 542.578,677.447 543.098,677.173 543.723,676.846 544.243,676.519 544.761,676.099 545.387,675.634 545.904,675.171 546.53,674.647 546.945,674.111 547.569,673.554 548.09,672.956 548.607,672.396 549.131,671.776 549.649,671.106 550.272,670.397 550.895,669.719 551.521,668.912 552.144,668.174 552.768,667.443 553.39,666.803 553.912,666.138 554.43,665.562 555.054,664.961 555.677,664.315 556.198,663.779 556.823,663.249 557.447,662.788 557.965,662.416 558.379,662.143 559.004,661.836 559.524,661.583 560.15,661.393 560.669,661.276 561.292,661.208 561.813,661.139 562.332,661.033 562.957,660.876 563.475,660.652 564.1,660.38 564.723,660.027 565.244,659.629 565.869,659.23 566.387,658.698 567.011,658.194 567.529,657.624 568.153,656.997 568.778,656.421 569.297,655.805 569.818,655.203 570.337,654.582 570.856,653.918 571.481,653.24 572.002,652.574 572.624,651.865 573.142,651.236 573.766,650.546 574.289,649.924 574.808,649.279 575.328,648.681 575.954,648.082 576.472,647.582 577.095,647.048 577.612,646.52 578.238,646.06 578.756,645.673 579.28,645.352 579.902,645.052 580.419,644.818 581.044,644.613 581.669,644.518 582.19,644.467 582.814,644.379 583.331,644.248 583.954,644.054 584.473,643.868 585.099,643.567 585.619,643.222 586.141,642.851 586.659,642.431 587.18,641.999 587.803,641.514 588.321,640.941 588.843,640.405 589.467,639.735 589.985,639.182 590.61,638.466 591.131,637.826 591.649,637.182 592.171,636.538 592.687,635.911 593.312,635.249 593.831,634.604 594.351,633.993 594.871,633.374 595.496,632.685 596.016,632.09 596.639,631.489 597.16,630.943 597.678,630.46 598.201,629.995 598.822,629.531 599.343,629.075 599.965,628.727 600.485,628.428 601.109,628.152 601.733,627.946 602.253,627.808 602.774,627.758 603.292,627.693 603.916,627.603 604.438,627.45 605.06,627.203 605.579,626.953 606.204,626.626 606.724,626.274 607.349,625.833 607.972,625.351 608.494,624.822 609.012,624.271 609.634,623.692 610.153,623.12 610.571,622.662 611.09,622.089 611.713,621.357 612.234,620.764 612.857,620.121 613.377,619.43 613.897,618.706 614.417,618.131 615.04,617.375 615.663,616.658 616.185,616.038 616.807,615.398 617.328,614.84 617.846,614.317 618.366,613.83 618.886,613.349 619.406,612.91 620.03,612.473 620.55,612.088 621.072,611.809 621.797,611.509 622.214,611.285 622.733,611.146 623.358,611.031 623.878,610.985 624.501,610.915 625.02,610.765 625.749,610.566 626.165,610.338 626.788,610.058 627.308,609.687 627.827,609.271 628.453,608.853 629.077,608.33 629.596,607.779 630.117,607.234 630.737,606.637 631.258,606.015 631.883,605.352 632.401,604.687 633.026,603.979 633.545,603.333 634.171,602.691 634.687,602.028 635.314,601.292 635.834,600.652 636.352,599.987 636.976,599.369 637.601,598.73 638.123,598.132 638.639,597.6 639.265,597.035 639.785,596.571 640.303,596.113 640.927,595.679 641.448,595.333 642.072,594.99 642.59,594.738 643.112,594.554 643.632,594.415 644.151,594.322 644.671,594.275 645.189,594.207 645.71,594.061 646.333,593.904 646.853,593.659 647.373,593.4 647.997,593.033 648.619,592.592 649.141,592.175 649.66,591.697 650.284,591.255 650.698,590.73 651.323,590.115 651.843,589.541 652.363,588.944 652.987,588.312 653.611,587.597 654.132,586.912 654.648,586.25 655.274,585.583 655.896,584.873 656.418,584.185 656.938,583.547 657.459,582.928 658.184,582.239 658.6,581.651 659.223,581.037 659.849,580.503 660.37,580 660.992,579.519 661.511,579.11 662.032,578.72 662.448,578.448 663.071,578.169 663.591,577.899 664.112,577.736 664.736,577.636 665.358,577.565 665.875,577.478 666.501,577.367 667.124,577.172 667.75,576.903 668.268,576.625 668.789,576.323 669.412,575.886 669.933,575.452 670.451,574.989 671.075,574.459 671.596,573.959 672.219,573.317 672.737,572.659 673.363,572.062 673.776,571.459 674.403,570.761 674.923,570.137 675.546,569.496 676.064,568.838 676.588,568.241 677.211,567.489 677.731,566.865 678.25,566.184 678.873,565.563 679.502,564.943 680.015,564.378 680.538,563.852 681.16,563.343 681.681,562.866 682.198,562.432 682.721,562.046 683.239,561.704 683.863,561.402 684.381,561.191 684.902,561.031 685.526,560.893 686.045,560.823 686.565,560.758 687.19,560.63 687.814,560.455 688.438,560.231 688.956,559.976 689.478,559.607 690.102,559.217 690.622,558.802 691.141,558.363 691.66,557.862 692.182,557.404 692.803,556.789 693.324,556.169 693.844,555.593 694.466,554.911 695.091,554.288 695.506,553.652 696.131,553.028 696.755,552.371 697.17,551.71 697.691,551.07 698.315,550.386 698.834,549.745 699.459,549.058 700.082,548.417 700.707,547.78 701.122,547.27 701.64,546.794 702.369,546.203 702.888,545.745 703.512,545.294 704.032,544.97 704.548,544.692 705.279,544.464 705.698,544.28 706.319,544.163 706.946,544.095 707.463,544.028 707.985,543.921 708.503,543.766 709.126,543.541 709.649,543.273 710.271,542.925 710.894,542.55 711.412,542.049 711.934,541.608 712.557,541.109 713.077,540.585 713.596,540.054 714.116,539.53 714.532,539.028 715.052,538.411 715.676,537.77 716.193,537.154 716.716,536.429 717.234,535.806 717.858,535.143 718.483,534.388 719.001,533.748 719.629,533.114 720.145,532.428 720.667,531.861 721.288,531.2 721.81,530.677 722.329,530.192 722.848,529.71 723.47,529.254 723.995,528.845 724.511,528.48 725.135,528.114 725.657,527.857 726.282,527.632 726.798,527.494 727.423,527.398 727.945,527.351 728.464,527.263 729.087,527.132 729.608,526.937 730.127,526.709 730.648,526.435 731.271,526.064 731.895,525.628 732.413,525.21 732.933,524.73 733.452,524.227 733.976,523.745 734.598,523.085 735.115,522.509 735.638,521.895 736.155,521.276 736.777,520.578 737.401,519.844 738.029,519.225 738.545,518.518 739.171,517.75 739.691,517.131 740.315,516.383 740.938,515.74 741.562,515.1 742.082,514.484 742.603,513.955 743.225,513.429 743.64,512.949 744.266,512.511 744.888,512.058 745.41,511.713 745.929,511.391 746.448,511.096 746.968,510.909 747.592,510.771 748.11,510.678 748.735,510.611 749.36,510.52 749.983,510.372 750.502,510.171 751.023,509.923 751.542,509.622 752.164,509.274 752.687,508.867 753.206,508.456 753.828,507.915 754.349,507.386 754.972,506.837 755.493,506.194 756.222,505.604 756.739,504.85 757.364,504.184 757.882,503.523 758.404,502.883 759.026,502.129 759.546,501.486 760.17,500.782 760.793,500.049 761.314,499.479 761.936,498.819 762.562,498.176 763.084,497.607 763.706,496.946 764.226,496.447 764.85,495.947 765.472,495.509 765.99,495.124 766.407,494.822 766.927,494.595 767.449,494.302 767.967,494.118 768.591,494.018 769.112,493.927 769.734,493.881 770.36,493.77 770.88,493.615 771.502,493.373 772.022,493.079 772.647,492.734 773.271,492.319 773.894,491.833 774.519,491.283 775.037,490.824 775.662,490.187 776.182,489.634 776.701,488.994 777.222,488.444 777.845,487.763 778.365,487.137 778.989,486.454 779.611,485.7 780.233,484.926 780.858,484.176 781.482,483.442 782.213,482.761 782.626,482.168 783.25,481.528 783.666,481.019 784.29,480.426 784.808,479.923 785.328,479.467 785.954,478.991 786.472,478.599 787.202,478.166 787.72,477.803 788.241,477.572 788.757,477.412 789.384,477.275 789.904,477.202 790.528,477.134 791.152,477.047 791.671,476.875 792.193,476.673 792.708,476.405 793.231,476.121 793.857,475.684 794.372,475.289 795.105,474.833 795.52,474.35 796.144,473.804 796.661,473.257 797.182,472.705 797.806,472.054 798.325,471.437 798.848,470.774 799.469,470.09 800.094,469.426 800.613,468.756 801.134,468.048 801.755,467.337 802.273,466.761 802.898,466.033 803.522,465.308 804.148,464.734 804.561,464.182 805.083,463.638 805.707,463.132 806.226,462.629 806.746,462.196 807.473,461.784 807.888,461.421 808.513,461.124 809.034,460.872 809.658,460.667 810.178,460.553 810.696,460.48 811.322,460.413 811.838,460.325 812.358,460.174 812.983,459.952 813.503,459.68 814.129,459.355 814.648,459.007 815.167,458.59 815.792,458.087 816.311,457.605 816.935,457.081 817.453,456.46 818.076,455.869 818.595,455.246 819.115,454.787 819.636,454.132 820.156,453.491 820.676,452.867 821.3,452.183 821.82,451.522 822.444,450.797 822.859,450.173 823.483,449.553 824.108,448.845 824.627,448.251 825.252,447.667 825.77,447.09 826.291,446.54 826.916,446.016 827.434,445.58 827.954,445.167 828.576,444.801 829.099,444.503 829.826,444.204 830.24,443.996 830.967,443.835 831.491,443.744 832.115,443.698 832.632,443.607 833.153,443.438 833.672,443.236 834.293,442.961 834.918,442.662 835.334,442.313 835.959,441.876 836.585,441.393 837.102,440.912 837.623,440.359 838.244,439.808 838.868,439.193 839.391,438.526 840.014,437.887 840.533,437.223 841.157,436.538 841.779,435.832 842.303,435.1 842.819,434.439 843.445,433.798 844.066,433.062 844.588,432.396 845.212,431.782 845.73,431.141 846.251,430.589 846.77,430.065 847.395,429.534 847.915,429.101 848.436,428.685 848.954,428.281 849.576,427.909 850.202,427.631 850.723,427.385 851.242,427.221 851.76,427.1 852.387,427.033 852.904,426.967 853.53,426.855 854.049,426.662 854.776,426.437 855.191,426.164 855.817,425.858 856.336,425.488 856.855,425.119 857.375,424.661 857.895,424.228 858.52,423.651 859.041,423.103 859.661,422.441 860.287,421.816 860.7,421.177 861.222,420.606 861.846,419.978 862.365,419.271 862.887,418.607 863.51,417.945 864.026,417.303 864.55,416.662 865.173,415.997 865.798,415.288 866.316,414.649 866.836,414.077 867.352,413.532 867.976,412.957 868.605,412.497 869.123,412.064 869.642,411.696 870.162,411.31 870.785,410.96 871.408,410.708 872.037,410.496 872.658,410.379 873.177,410.309 873.7,410.242 874.218,410.157 874.738,410.022 875.256,409.781 875.984,409.502 876.505,409.158 877.128,408.806 877.651,408.391 878.169,407.953 878.792,407.381 879.312,406.856 879.936,406.281 880.455,405.661 880.975,405.045 881.6,404.378 882.223,403.664 882.847,402.957 883.367,402.246 883.885,401.62 884.51,400.916 885.029,400.273 885.653,399.654 886.066,399.031 886.797,398.323 887.318,397.765 887.939,397.166 888.46,396.617 888.979,396.132 889.605,395.603 890.227,395.173 890.641,394.784 891.163,394.461 891.786,394.185 892.308,393.953 892.827,393.768 893.449,393.653 894.073,393.561 894.59,393.515 895.112,393.406 895.634,393.232 896.261,392.99 896.88,392.713 897.399,392.359 898.024,391.945 898.545,391.486 899.168,391.045 899.791,390.472 900.415,389.878 900.935,389.328 901.558,388.657 902.076,387.993 902.702,387.353 903.222,386.681 903.74,385.99 904.365,385.296 904.99,384.604 905.509,383.96 906.134,383.271 906.653,382.627 907.174,382.012 907.694,381.479 908.214,380.887 908.836,380.245 909.46,379.669 910.082,379.1 910.707,378.636 911.121,378.249 911.852,377.878 912.37,377.55 912.995,377.231 913.513,377.047 914.136,376.912 914.657,376.858 915.176,376.79 915.802,376.698 916.425,376.53 916.946,376.306 917.467,376.052 918.088,375.725 918.61,375.332 919.127,374.916 919.75,374.477 920.376,373.964 920.896,373.412 921.519,372.798 922.04,372.223 922.559,371.625 922.976,371.115 923.598,370.493 924.118,369.777 924.743,369.131 925.264,368.465 925.781,367.774 926.511,367.151 927.029,366.443 927.549,365.711 928.172,365.082 928.694,364.484 929.317,363.865 929.836,363.305 930.46,362.753 930.979,362.273 931.604,361.793 932.225,361.394 932.746,361.048 933.267,360.751 933.787,360.519 934.308,360.317 934.932,360.195 935.555,360.106 936.074,360.059 936.699,359.947 937.22,359.789 937.738,359.55 938.362,359.316 938.881,358.968 939.402,358.597 940.026,358.156 940.648,357.689 941.273,357.161 941.688,356.676 942.208,356.128 942.832,355.46 943.352,354.881 943.975,354.26 944.495,353.652 945.017,353.004 945.538,352.344 946.159,351.647 946.678,350.997 947.301,350.354 947.926,349.618 948.551,348.9 949.069,348.282 949.589,347.701 950.214,347.128 950.628,346.596 951.147,346.044 951.773,345.536 952.294,345.082 952.809,344.71 953.437,344.362 953.954,344.037 954.58,343.801 955.098,343.613 955.722,343.476 956.243,343.384 956.76,343.337 957.491,343.227 958.116,343.052 958.532,342.83 959.156,342.597 959.57,342.291 960.196,341.918 960.819,341.434 961.442,340.993 961.962,340.479 962.481,339.922 963.103,339.322 963.728,338.747 964.145,338.144 964.769,337.429 965.392,336.775 965.911,336.127 966.538,335.434 967.054,334.738 967.678,333.981 968.304,333.384 968.926,332.647 969.342,332.027 969.966,331.421 970.487,330.846 971.003,330.269 971.526,329.756 972.044,329.235 972.773,328.691 973.398,328.258 973.916,327.843 974.436,327.515 974.955,327.213 975.477,327.007 976.097,326.82 976.618,326.723 977.242,326.654 977.761,326.582 978.282,326.472 978.799,326.315 979.423,326.075 979.946,325.794 980.57,325.515 980.985,325.161 981.507,324.787 982.026,324.344 982.65,323.835 983.169,323.369 983.69,322.815 984.209,322.259 984.834,321.633 985.352,321.012 985.977,320.385 986.493,319.691 987.017,319.091 987.535,318.441 988.057,317.743 988.678,317.091 989.196,316.447 989.824,315.777 990.238,315.168 990.861,314.569 991.383,313.968 992.006,313.387 992.629,312.857 993.045,312.384 993.668,311.881 994.187,311.465 994.708,311.091 995.435,310.719 995.849,310.482 996.472,310.21 996.996,310.086 997.619,309.976 998.141,309.903 998.659,309.835 999.281,309.704 999.908,309.5 1000.43,309.252 1001.05,308.967 1001.57,308.636 1002.19,308.15 1002.71,307.726 1003.23,307.26 1003.86,306.749 1004.38,306.167 1005,305.628 1005.52,304.995 1006.14,304.28 1006.66,303.65 1007.29,302.908 1007.91,302.197 1008.43,301.566 1009.16,300.803 1009.68,300.104 1010.2,299.458 1010.82,298.758 1011.34,298.155 1011.97,297.525 1012.49,296.963 1013.11,296.321 1013.63,295.828 1014.15,295.407 1014.77,294.898 1015.4,294.46 1015.92,294.129 1016.44,293.825 1017.06,293.57 1017.69,293.407 1018.1,293.287 1018.72,293.221 1019.14,293.154 1019.76,293.065 1020.28,292.91 1020.8,292.706 1021.32,292.452 1021.84,292.169 1022.46,291.83 1022.99,291.432 1023.51,291.011 1024.03,290.55 1024.65,290.033 1025.17,289.433 1025.79,288.784 1026.41,288.202 1026.94,287.578 1027.35,287.108 1027.87,286.481 1028.5,285.716 1029.12,284.974 1029.64,284.274 1030.27,283.592 1030.78,282.941 1031.41,282.262 1032.03,281.562 1032.66,280.88 1033.28,280.211 1033.8,279.694 1034.42,279.136 1034.94,278.664 1035.46,278.2 1036.09,277.812 1036.5,277.503 1037.13,277.177 1037.75,276.897 1038.37,276.71 1038.89,276.571 1039.41,276.477 1039.93,276.429 1040.56,276.338 1041.18,276.165 1041.7,275.935 1042.32,275.654 1042.95,275.365 1043.47,274.937 1044.09,274.504 1044.61,274.062 1045.13,273.544 1045.65,273.008 1046.27,272.448 1046.79,271.886 1047.31,271.235 1047.94,270.561 1048.56,269.831 1049.18,269.149 1049.6,268.543 1050.22,267.796 1050.85,267.113 1051.47,266.414 1051.99,265.784 1052.51,265.155 1053.03,264.568 1053.65,263.937 1054.18,263.334 1054.8,262.812 1055.32,262.276 1055.94,261.742 1056.57,261.279 1057.09,260.881 1057.71,260.574 1058.33,260.289 1058.75,260.057 1059.27,259.913 1059.79,259.816 1060.41,259.75 1061.04,259.656 1061.56,259.564 1062.08,259.387 1062.7,259.156 1063.22,258.874 1063.74,258.545 1064.36,258.161 1064.88,257.71 1065.4,257.246 1066.03,256.75 1066.55,256.195 1067.07,255.636 1067.69,255.021 1068.21,254.411 1068.83,253.753 1069.35,253.121 1069.87,252.458 1070.5,251.793 1071.02,251.186 1071.64,250.39 1072.27,249.77 1072.78,249.044 1073.41,248.372 1074.03,247.668 1074.66,246.984 1075.28,246.367 1075.8,245.832 1076.53,245.229 1077.15,244.778 1077.67,244.327 1078.29,243.956 1078.81,243.673 1079.23,243.46 1079.75,243.27 1080.37,243.148 1080.89,243.056 1081.41,242.991 1082.03,242.899 1082.56,242.764 1083.08,242.584 1083.7,242.283 1084.32,242.013 1084.85,241.658 1085.36,241.279 1085.88,240.838 1086.4,240.344 1087.03,239.831 1087.55,239.245 1088.17,238.658 1088.79,238.051 1089.21,237.458 1089.83,236.844 1090.35,236.16 1090.87,235.55 1091.39,234.879 1092.02,234.123 1092.64,233.47 1093.16,232.81 1093.78,232.08 1094.3,231.472 1094.93,230.83 1095.55,230.169 1096.07,229.586 1096.59,229.066 1097.22,228.505 1097.94,228.009 1098.46,227.611 1099.09,227.207 1099.71,226.88 1100.23,226.645 1100.85,226.479 1101.37,226.361 1101.89,226.291 1102.41,226.241 1102.93,226.148 1103.55,225.994 1104.07,225.769 1104.59,225.526 1105.22,225.172 1105.74,224.837 1106.36,224.432 1106.78,223.987 1107.4,223.466 1107.92,222.899 1108.55,222.278 1109.17,221.693 1109.69,221.097 1110.21,220.485 1110.83,219.803 1111.35,219.168 1111.87,218.529 1112.5,217.844 1113.01,217.135 1113.64,216.496 1114.16,215.815 1114.78,215.133 1115.3,214.536 1115.82,213.93 1116.45,213.316 1117.07,212.744 1117.59,212.204 1118.11,211.731 1118.84,211.232 1119.36,210.837 1119.88,210.498 1120.4,210.215 1120.92,209.975 1121.44,209.792 1121.96,209.652 1122.58,209.575 1123.1,209.509 1123.62,209.417 1124.24,209.3 1124.87,209.069 1125.49,208.764 1126.01,208.43 1126.63,208.02 1127.26,207.547 1127.78,207.064 1128.4,206.529 1128.92,206.004 1129.55,205.409 1130.07,204.842 1130.69,204.225 1131.21,203.614 1131.63,203.072 1132.15,202.384 1132.77,201.667 1133.39,201.007 1133.91,200.253 1134.64,199.517 1135.06,198.943 1135.68,198.257 1136.31,197.616 1136.82,196.978 1137.34,196.43 1137.97,195.888 1138.49,195.345 1139.01,194.891 1139.63,194.484 1140.15,194.084 1140.78,193.708 1141.4,193.4 1141.92,193.181 1142.44,192.995 1142.96,192.896 1143.58,192.825 1144.21,192.753 1144.72,192.639 1145.24,192.478 1145.87,192.243 1146.39,191.963 1146.91,191.652 1147.53,191.219 1148.15,190.794 1148.67,190.265 1149.3,189.721 1149.82,189.218 1150.34,188.649 1150.96,188.011 1151.48,187.382 1152,186.766 1152.63,186.14 1153.15,185.483 1153.67,184.87 1154.19,184.176 1154.81,183.488 1155.33,182.826 1155.95,182.201 1156.47,181.513 1157.1,180.917 1157.72,180.224 1158.24,179.609 1158.76,179.081 1159.38,178.602 1159.9,178.128 1160.42,177.731 1160.94,177.323 1161.46,176.987 1162.09,176.702 1162.71,176.444 1163.13,176.31 1163.75,176.173 1164.37,176.123 1164.89,176.055 1165.41,175.919 1166.04,175.759 1166.56,175.497 1167.18,175.256 1167.7,174.938 1168.32,174.514 1168.84,174.107 1169.47,173.646 1169.99,173.12 1170.51,172.615 1171.13,171.953 1171.65,171.356 1172.38,170.687 1172.9,169.97 1173.42,169.396 1173.94,168.706 1174.67,167.896 1175.29,167.153 1175.81,166.521 1176.33,165.862 1176.95,165.195 1177.47,164.52 1178.1,163.925 1178.62,163.364 1179.14,162.752 1179.76,162.167 1180.39,161.649 1181.01,161.129 1181.53,160.741 1182.05,160.382 1182.67,160.073 1183.19,159.828 1183.71,159.642 1184.23,159.516 1184.85,159.423 1185.37,159.35 1186,159.279 1186.52,159.138 1187.04,158.916 1187.66,158.651 1188.18,158.356 1188.8,157.973 1189.43,157.583 1189.95,157.105 1190.47,156.597 1190.99,156.122 1191.61,155.578 1192.13,155.019 1192.75,154.348 1193.28,153.723 1193.79,153.051 1194.42,152.426 1194.94,151.846 1195.46,151.179 1196.08,150.435 1196.7,149.693 1197.23,149.045 1197.85,148.355 1198.37,147.73 1198.99,147.107 1199.51,146.5 1200.04,145.971 1200.55,145.443 1201.28,144.891 1201.8,144.457 1202.42,143.976 1202.94,143.635 1203.46,143.348 1203.98,143.106 1204.5,142.918 1205.23,142.746 1205.75,142.673 1206.27,142.624 1206.89,142.533 1207.41,142.369 1208.04,142.114 1208.66,141.847 1209.18,141.523 1209.8,141.138 1210.32,140.733 1210.84,140.286 1211.47,139.739 1212.09,139.133 1212.72,138.554 1213.13,138.022 1213.75,137.328 1214.38,136.674 1214.9,136.04 1215.52,135.395 1216.04,134.695 1216.56,134.045 1217.08,133.415 1217.71,132.655 1218.23,132.072 1218.85,131.399 1219.47,130.782 1219.89,130.183 1220.51,129.591 1221.14,128.972 1221.65,128.395 1222.38,127.912 1222.9,127.455 1223.53,127.055 1224.15,126.714 1224.67,126.449 1225.19,126.208 1225.71,126.064 1226.34,125.971 1226.86,125.918 1227.37,125.845 1228,125.687 1228.62,125.495 1229.25,125.237 1229.77,124.938 1230.29,124.567 1230.91,124.198 1231.43,123.735 1231.95,123.254 1232.57,122.697 1233.1,122.228 1233.72,121.539 1234.24,120.931 1234.86,120.275 1235.48,119.599 1235.9,119.113 1236.42,118.487 1237.04,117.719 1237.56,117.064 1238.19,116.269 1238.81,115.64 1239.43,114.943 1239.96,114.233 1240.47,113.647 1241.1,113.07 1241.62,112.532 1242.14,112.07 1242.76,111.532 1243.18,111.076 1243.8,110.688 1244.32,110.297 1244.84,109.99 1245.36,109.718 1246.09,109.476 1246.71,109.326 1247.23,109.228 1247.85,109.185 1248.37,109.071 1249,108.933 1249.52,108.71 1250.04,108.446 1250.66,108.126 1251.29,107.775 1251.8,107.368 1252.32,106.922 1252.84,106.441 1253.47,105.905 1253.99,105.37 1254.51,104.789 1255.03,104.184 1255.65,103.494 1256.38,102.718 1256.9,102.083 1257.42,101.377 1258.04,100.693 1258.67,99.941 1259.19,99.3357 1259.81,98.6333 1260.33,98.0155 1260.95,97.3639 1261.58,96.6831 1262.1,96.1253 1262.62,95.5772 1263.24,95.028 1263.87,94.4884 1264.38,94.0922 1265.01,93.6756 1265.63,93.3121 1266.15,93.0495 1266.77,92.8 1267.29,92.6329 1267.92,92.5116 1268.44,92.4586 1268.96,92.3871 1269.48,92.2727 1270.1,92.0847 1270.62,91.8659 1271.14,91.5922 1271.66,91.2968 1272.29,90.9071 1272.81,90.4426 1273.43,89.9779 1273.84,89.4857 1274.47,89.0192 1274.99,88.4294 1275.61,87.7456 1276.24,87.093 1276.76,86.4773 1277.38,85.7423 1278,85.1076 1278.52,84.4236 1279.04,83.7321 1279.67,83.0532 1280.29,82.3704 1280.81,81.6807 1281.44,80.972 1281.95,80.3886 1282.48,79.849 1282.99,79.2878 1283.51,78.776 1284.03,78.2572 1284.55,77.7949 1285.18,77.3937 1285.7,77.0237 1286.32,76.6385 1286.84,76.3793 1287.36,76.1195 1287.88,75.9757 1288.29,75.8489 1288.82,75.7807 1289.44,75.7017 1289.96,75.6058 1290.58,75.4687 1291.1,75.2731 1291.73,74.9759 1292.25,74.6533 1292.97,74.232 1293.6,73.7917 1294.12,73.2981 1294.64,72.8005 1295.16,72.2881 1295.67,71.722 1296.3,71.104 1296.82,70.518 1297.44,69.8518 1297.96,69.2167 1298.58,68.538 1299.21,67.8255 1299.73,67.1871 1300.25,66.5396 1300.88,65.807 1301.39,65.1132 1302.02,64.4967 1302.54,63.88 1303.06,63.3133 1303.58,62.7431 1304.1,62.2018 1304.62,61.6832 1305.35,61.2156 1305.76,60.7724 1306.38,60.3841 1306.9,60.0334 1307.42,59.7211 1308.05,59.4476 1308.57,59.2703 1309.09,59.1227 1309.61,59.0413 1310.23,58.9948 1310.85,58.8985 1311.37,58.7334 1312,58.5201 1312.62,58.2422 1313.14,57.9209 1313.66,57.5548 1314.29,57.1353 1314.81,56.6878 1315.33,56.1699 1315.95,55.6039 1316.47,55.0837 1316.99,54.5107 1317.61,53.8977 1318.24,53.2319 1318.65,52.63 1319.28,51.9696 1319.8,51.3239 1320.32,50.6259 1320.84,50.0145 1321.46,49.2835 1322.08,48.5927 1322.6,47.8928 1323.23,47.3152 1323.85,46.6183 1324.37,46.0178 1325,45.4338 1325.51,44.8701 1326.14,44.3709 1326.76,43.88 1327.28,43.5299 1327.8,43.2053 1328.32,42.929 1328.94,42.6625 1329.57,42.4862 1330.09,42.3844 1330.71,42.3068 1331.23,42.2365 1331.96,42.093 1332.38,41.9273 1333.11,41.6744 1333.52,41.4091 1334.14,41.0546 1334.66,40.6337 1335.29,40.2314 1335.81,39.7189 1336.43,39.1604 1336.95,38.607 1337.57,38.0565 1337.99,37.5327 1338.72,36.8677 1339.13,36.2907 1339.76,35.5694 1340.17,35.0721 1340.69,34.4305 1341.21,33.778 1341.84,33.1092 1342.36,32.4862 1342.88,31.8128 1343.4,31.2279 1344.02,30.5789 1344.54,29.9462 1345.06,29.3624 1345.68,28.8195 1346.31,28.2668 1346.83,27.7667 1347.34,27.274 1348.07,26.829 1348.7,26.4925 1349.22,26.1929 1349.74,25.9439 1350.26,25.763 1350.78,25.6667 1351.3,25.6719 1351.82,25.8836 1352.44,26.4414 1352.96,26.9271 1353.58,27.6014 1354.1,28.7008 1354.73,30.2829 1355.35,32.3937 1355.98,34.8544 1356.6,37.8144 1357.01,40.8644 1357.74,44.9816 1358.16,49.3915 1358.89,55.3561 1359.3,61.3347 1359.82,67.9989 1360.45,75.6065 1360.96,84.598 1361.59,93.9106 1362.11,104.962 1362.73,116.921 1363.25,130.022 1363.88,143.106 1364.4,156.918 1364.92,171.711 1365.44,188.309 1366.16,207.036 1366.68,226.439 1367.31,243.933 1367.83,263.092 1368.45,281.173 1368.97,299.395 1369.49,317.555 1370.11,337.145 1370.64,356.35 1371.15,373.795 1371.77,390.69 1372.3,406.917 1372.82,422.412 1373.34,437.982 1373.96,451.449 1374.48,463.705 1375,475.453 1375.62,484.916 1376.25,493.965 1376.77,500.028 1377.29,504.399 1377.81,507.008 1378.43,508.283 1378.95,508.66 1379.47,508.751 1379.99,508.783 1380.61,508.783 1381.13,508.783 1381.65,508.779 1382.17,508.779 1382.69,508.779 1383.21,508.779 1383.84,508.779 1384.46,508.779 1384.98,508.776 1385.5,508.776 1386.02,508.776 1386.54,508.776 1387.06,508.776 1387.58,508.776 1388.1,508.776 1388.72,508.777 1389.24,508.777 1389.76,508.777 1390.39,508.777 1391.01,508.774 1391.53,508.777 1391.94,508.777 1392.47,508.777 1393.09,508.777 1393.61,508.777 1394.13,508.774 1394.75,508.774 1395.27,508.774 1396,508.774 1396.52,508.774 1397.04,508.774 1397.56,508.774 1398.18,508.774 1398.7,508.774 1399.22,508.774 1399.85,508.774 1400.37,508.774 1400.89,508.774 1401.4,508.774 1402.03,508.774 1402.55,508.774 1403.17,508.774 1403.69,508.774 1404.21,508.774 1404.73,508.774 1405.36,508.774 1405.88,508.774 1406.39,508.774 1406.92,508.774 1407.43,508.774 1408.06,508.774 1408.58,508.777 1409.1,508.774 1409.72,508.774 1410.24,508.774 1410.76,508.774 1411.39,508.774 1411.91,508.774 1412.42,508.774 1412.94,508.774 1413.46,508.774 1414.09,508.774 1414.71,508.774 1415.34,508.774 1415.86,508.777 1416.48,508.774 1417,508.774 1417.52,508.774 1418.04,508.774 1418.66,508.774 1419.18,508.774 1419.7,508.777 1420.33,508.774 1420.85,508.774 1421.37,508.777 1421.99,508.774 1422.51,508.774 1423.03,508.774 1423.55,508.777 1424.17,508.774 1424.69,508.774 1425.32,508.774 1425.94,508.774 1426.46,508.774 1426.98,508.777 1427.6,508.777 1428.12,508.774 1428.64,508.774 1429.17,508.774 1429.68,508.774 1430.31,508.774 1430.83,508.774 1431.45,508.774 1431.97,508.774 1432.49,508.774 1433.01,508.774 1433.63,508.774 1434.15,508.774 1434.78,508.777 1435.3,508.777 1435.92,508.774 1436.44,508.774 1436.96,508.774 1437.48,508.774 1438,508.774 " />
</g>

<g fill="none" stroke="#000000" stroke-opacity="1" stroke-width="1" stroke-linecap="square" stroke-linejoin="bevel" transform="matrix(0.833333,0,0,0.833333,0,0)"
font-family="Ubuntu" font-size="12.2222" font-weight="400" font-style="normal" 
>
</g>

<g fill="none" stroke="#000000" stroke-opacity="1" stroke-width="1" stroke-linecap="square" stroke-linejoin="bevel" transform="matrix(0.833333,0,0,0.833333,0,0)"
font-family="Ubuntu" font-size="12.2222" font-weight="400" font-style="normal" 
>
</g>

<g fill="none" stroke="#000000" stroke-opacity="1" stroke-width="1" stroke-linecap="square" stroke-linejoin="bevel" transform="matrix(0.833333,0,0,0.833333,0,0)"
font-family="Ubuntu" font-size="12.2222" font-weight="400" font-style="normal" 
>
</g>

<g fill="none" stroke="#111111" stroke-opacity="1" stroke-width="1" stroke-linecap="square" stroke-linejoin="bevel" transform="matrix(0.833333,0,0,0.833333,0,0)"
font-family="Ubuntu" font-size="12.2222" font-weight="400" font-style="normal" 
>
<rect x="1189" y="10" width="242" height="23"/>
</g>

<g fill="none" stroke="#000000" stroke-opacity="1" stroke-width="1" stroke-linecap="square" stroke-linejoin="bevel" transform="matrix(0.833333,0,0,0.833333,0,0)"
font-family="Ubuntu" font-size="12.2222" font-weight="400" font-style="normal" 
>
</g>

<g fill="none" stroke="#000000" stroke-opacity="1" stroke-width="1" stroke-linecap="square" stroke-linejoin="bevel" transform="matrix(0.833333,0,0,0.833333,0,0)"
font-family="Ubuntu" font-size="12.2222" font-weight="400" font-style="normal" 
>
</g>

<g fill="none" stroke="#000000" stroke-opacity="1" stroke-width="1" stroke-linecap="square" stroke-linejoin="bevel" transform="matrix(0.833333,0,0,0.833333,994.167,14.1667)"
font-family="Ubuntu" font-size="12.2222" font-weight="400" font-style="normal" 
>
</g>

<g fill="#9467bd" fill-opacity="1" stroke="none" transform="matrix(0.833333,0,0,0.833333,0,0)"
font-family="Ubuntu" font-size="12.2222" font-weight="400" font-style="normal" 
>
<path vector-effect="none" fill-rule="evenodd" d="M1193,17 L1201,17 L1201,25 L1193,25 L1193,17"/>
</g>

<g fill="none" stroke="#000000" stroke-opacity="1" stroke-width="1" stroke-linecap="square" stroke-linejoin="bevel" transform="matrix(0.833333,0,0,0.833333,994.167,14.1667)"
font-family="Ubuntu" font-size="12.2222" font-weight="400" font-style="normal" 
>
</g>

<g fill="none" stroke="#111111" stroke-opacity="1" stroke-width="1" stroke-linecap="square" stroke-linejoin="bevel" transform="matrix(0.833333,0,0,0.833333,0,0)"
font-family="Ubuntu" font-size="10" font-weight="400" font-style="normal" 
>
</g>

<g fill="none" stroke="#111111" stroke-opacity="1" stroke-width="1" stroke-linecap="square" stroke-linejoin="bevel" transform="matrix(0.833333,0,0,0.833333,0,0)"
font-family="Ubuntu" font-size="12" font-weight="400" font-style="normal" 
>
<text fill="#111111" fill-opacity="1" stroke="none" xml:space="preserve" x="1202" y="26" font-family="Ubuntu" font-size="12" font-weight="400" font-style="normal" 
 >/world_to_torch/transform/translation/y</text>
</g>

<g fill="none" stroke="#111111" stroke-opacity="1" stroke-width="1" stroke-linecap="square" stroke-linejoin="bevel" transform="matrix(0.833333,0,0,0.833333,0,0)"
font-family="Ubuntu" font-size="10" font-weight="400" font-style="normal" 
>
</g>

<g fill="none" stroke="#111111" stroke-opacity="1" stroke-width="1" stroke-linecap="square" stroke-linejoin="bevel" transform="matrix(0.833333,0,0,0.833333,0,0)"
font-family="Ubuntu" font-size="10" font-weight="400" font-style="normal" 
>
</g>

<g fill="none" stroke="#111111" stroke-opacity="1" stroke-width="1" stroke-linecap="square" stroke-linejoin="bevel" transform="matrix(0.833333,0,0,0.833333,0,0)"
font-family="Ubuntu" font-size="10" font-weight="400" font-style="normal" 
>
</g>

<g fill="none" stroke="#111111" stroke-opacity="1" stroke-width="1" stroke-linecap="square" stroke-linejoin="bevel" transform="matrix(0.833333,0,0,0.833333,0,0)"
font-family="Ubuntu" font-size="10" font-weight="400" font-style="normal" 
>
</g>

<g fill="none" stroke="#000000" stroke-opacity="1" stroke-width="1" stroke-linecap="square" stroke-linejoin="bevel" transform="matrix(0.833333,0,0,0.833333,0,0)"
font-family="Ubuntu" font-size="12.2222" font-weight="400" font-style="normal" 
>
</g>

<g fill="#ffffff" fill-opacity="1" stroke="#111111" stroke-opacity="1" stroke-width="1" stroke-linecap="square" stroke-linejoin="bevel" transform="matrix(0.833333,0,0,0.833333,0,0)"
font-family="Ubuntu" font-size="12.2222" font-weight="400" font-style="normal" 
>
<circle cx="1459" cy="10" r="5"/>
</g>

<g fill="none" stroke="#000000" stroke-opacity="1" stroke-width="1" stroke-linecap="square" stroke-linejoin="bevel" transform="matrix(0.833333,0,0,0.833333,0,0)"
font-family="Ubuntu" font-size="12.2222" font-weight="400" font-style="normal" 
>
</g>

<g fill="none" stroke="#000000" stroke-opacity="1" stroke-width="1" stroke-linecap="square" stroke-linejoin="bevel" transform="matrix(0.833333,0,0,0.833333,0,0)"
font-family="Ubuntu" font-size="12.2222" font-weight="400" font-style="normal" 
>
</g>

<g fill="none" stroke="#000000" stroke-opacity="1" stroke-width="1" stroke-linecap="square" stroke-linejoin="bevel" transform="matrix(0.833333,0,0,0.833333,0,0)"
font-family="Ubuntu" font-size="12.2222" font-weight="400" font-style="normal" 
>
</g>

<g fill="none" stroke="#111111" stroke-opacity="1" stroke-width="1" stroke-linecap="square" stroke-linejoin="bevel" transform="matrix(0,-0.833333,0.833333,0,0,864.167)"
font-family="Ubuntu" font-size="11.1111" font-weight="400" font-style="normal" 
>
</g>

<g fill="none" stroke="#111111" stroke-opacity="1" stroke-width="1" stroke-linecap="square" stroke-linejoin="bevel" transform="matrix(0,-0.833333,0.833333,0,0,864.167)"
font-family="Ubuntu" font-size="13.3333" font-weight="700" font-style="normal" 
>
</g>

<g fill="none" stroke="#111111" stroke-opacity="1" stroke-width="1" stroke-linecap="square" stroke-linejoin="bevel" transform="matrix(0,-0.833333,0.833333,0,0,864.167)"
font-family="Ubuntu" font-size="13.3333" font-weight="700" font-style="normal" 
>
</g>

<g fill="none" stroke="#111111" stroke-opacity="1" stroke-width="1" stroke-linecap="square" stroke-linejoin="bevel" transform="matrix(0,-0.833333,0.833333,0,0,864.167)"
font-family="Ubuntu" font-size="11.1111" font-weight="400" font-style="normal" 
>
</g>

<g fill="none" stroke="#000000" stroke-opacity="1" stroke-width="1" stroke-linecap="square" stroke-linejoin="bevel" transform="matrix(0.833333,0,0,0.833333,0,0)"
font-family="Ubuntu" font-size="12.2222" font-weight="400" font-style="normal" 
>
</g>

<g fill="none" stroke="#000000" stroke-opacity="1" stroke-width="1" stroke-linecap="square" stroke-linejoin="bevel" transform="matrix(0.833333,0,0,0.833333,0,0)"
font-family="Ubuntu" font-size="11.1111" font-weight="400" font-style="normal" 
>
</g>

<g fill="none" stroke="#000000" stroke-opacity="1" stroke-width="1" stroke-linecap="square" stroke-linejoin="bevel" transform="matrix(0.833333,0,0,0.833333,0,0)"
font-family="Ubuntu" font-size="11.1111" font-weight="400" font-style="normal" 
>
</g>

<g fill="none" stroke="#111111" stroke-opacity="1" stroke-width="1" stroke-linecap="square" stroke-linejoin="bevel" transform="matrix(0.833333,0,0,0.833333,0,0)"
font-family="Ubuntu" font-size="11.1111" font-weight="400" font-style="normal" 
>
</g>

<g fill="none" stroke="#111111" stroke-opacity="1" stroke-width="1" stroke-linecap="square" stroke-linejoin="bevel" transform="matrix(0.833333,0,0,0.833333,0.234375,839.541)"
font-family="Ubuntu" font-size="11.1111" font-weight="400" font-style="normal" 
>
</g>

<g fill="none" stroke="#111111" stroke-opacity="1" stroke-width="1" stroke-linecap="square" stroke-linejoin="bevel" transform="matrix(0.833333,0,0,0.833333,0.234375,839.541)"
font-family="Ubuntu" font-size="13" font-weight="400" font-style="normal" 
>
</g>

<g fill="none" stroke="#111111" stroke-opacity="1" stroke-width="1" stroke-linecap="square" stroke-linejoin="bevel" transform="matrix(0.833333,0,0,0.833333,0.234375,839.541)"
font-family="Ubuntu" font-size="13" font-weight="400" font-style="normal" 
>
<text fill="#111111" fill-opacity="1" stroke="none" xml:space="preserve" x="0" y="10" font-family="Ubuntu" font-size="13" font-weight="400" font-style="normal" 
 >-0.3</text>
</g>

<g fill="none" stroke="#111111" stroke-opacity="1" stroke-width="1" stroke-linecap="square" stroke-linejoin="bevel" transform="matrix(0.833333,0,0,0.833333,0.234375,839.541)"
font-family="Ubuntu" font-size="11.1111" font-weight="400" font-style="normal" 
>
</g>

<g fill="none" stroke="#111111" stroke-opacity="1" stroke-width="1" stroke-linecap="square" stroke-linejoin="bevel" transform="matrix(0.833333,0,0,0.833333,0.234375,839.541)"
font-family="Ubuntu" font-size="11.1111" font-weight="400" font-style="normal" 
>
</g>

<g fill="none" stroke="#111111" stroke-opacity="1" stroke-width="1" stroke-linecap="square" stroke-linejoin="bevel" transform="matrix(0.833333,0,0,0.833333,0,0)"
font-family="Ubuntu" font-size="11.1111" font-weight="400" font-style="normal" 
>
</g>

<g fill="none" stroke="#111111" stroke-opacity="1" stroke-width="1" stroke-linecap="square" stroke-linejoin="bevel" transform="matrix(0.833333,0,0,0.833333,0.234375,700.148)"
font-family="Ubuntu" font-size="11.1111" font-weight="400" font-style="normal" 
>
</g>

<g fill="none" stroke="#111111" stroke-opacity="1" stroke-width="1" stroke-linecap="square" stroke-linejoin="bevel" transform="matrix(0.833333,0,0,0.833333,0.234375,700.148)"
font-family="Ubuntu" font-size="13" font-weight="400" font-style="normal" 
>
</g>

<g fill="none" stroke="#111111" stroke-opacity="1" stroke-width="1" stroke-linecap="square" stroke-linejoin="bevel" transform="matrix(0.833333,0,0,0.833333,0.234375,700.148)"
font-family="Ubuntu" font-size="13" font-weight="400" font-style="normal" 
>
<text fill="#111111" fill-opacity="1" stroke="none" xml:space="preserve" x="0" y="10" font-family="Ubuntu" font-size="13" font-weight="400" font-style="normal" 
 >-0.2</text>
</g>

<g fill="none" stroke="#111111" stroke-opacity="1" stroke-width="1" stroke-linecap="square" stroke-linejoin="bevel" transform="matrix(0.833333,0,0,0.833333,0.234375,700.148)"
font-family="Ubuntu" font-size="11.1111" font-weight="400" font-style="normal" 
>
</g>

<g fill="none" stroke="#111111" stroke-opacity="1" stroke-width="1" stroke-linecap="square" stroke-linejoin="bevel" transform="matrix(0.833333,0,0,0.833333,0.234375,700.148)"
font-family="Ubuntu" font-size="11.1111" font-weight="400" font-style="normal" 
>
</g>

<g fill="none" stroke="#111111" stroke-opacity="1" stroke-width="1" stroke-linecap="square" stroke-linejoin="bevel" transform="matrix(0.833333,0,0,0.833333,0,0)"
font-family="Ubuntu" font-size="11.1111" font-weight="400" font-style="normal" 
>
</g>

<g fill="none" stroke="#111111" stroke-opacity="1" stroke-width="1" stroke-linecap="square" stroke-linejoin="bevel" transform="matrix(0.833333,0,0,0.833333,0.234375,560.754)"
font-family="Ubuntu" font-size="11.1111" font-weight="400" font-style="normal" 
>
</g>

<g fill="none" stroke="#111111" stroke-opacity="1" stroke-width="1" stroke-linecap="square" stroke-linejoin="bevel" transform="matrix(0.833333,0,0,0.833333,0.234375,560.754)"
font-family="Ubuntu" font-size="13" font-weight="400" font-style="normal" 
>
</g>

<g fill="none" stroke="#111111" stroke-opacity="1" stroke-width="1" stroke-linecap="square" stroke-linejoin="bevel" transform="matrix(0.833333,0,0,0.833333,0.234375,560.754)"
font-family="Ubuntu" font-size="13" font-weight="400" font-style="normal" 
>
<text fill="#111111" fill-opacity="1" stroke="none" xml:space="preserve" x="0" y="10" font-family="Ubuntu" font-size="13" font-weight="400" font-style="normal" 
 >-0.1</text>
</g>

<g fill="none" stroke="#111111" stroke-opacity="1" stroke-width="1" stroke-linecap="square" stroke-linejoin="bevel" transform="matrix(0.833333,0,0,0.833333,0.234375,560.754)"
font-family="Ubuntu" font-size="11.1111" font-weight="400" font-style="normal" 
>
</g>

<g fill="none" stroke="#111111" stroke-opacity="1" stroke-width="1" stroke-linecap="square" stroke-linejoin="bevel" transform="matrix(0.833333,0,0,0.833333,0.234375,560.754)"
font-family="Ubuntu" font-size="11.1111" font-weight="400" font-style="normal" 
>
</g>

<g fill="none" stroke="#111111" stroke-opacity="1" stroke-width="1" stroke-linecap="square" stroke-linejoin="bevel" transform="matrix(0.833333,0,0,0.833333,0,0)"
font-family="Ubuntu" font-size="11.1111" font-weight="400" font-style="normal" 
>
</g>

<g fill="none" stroke="#111111" stroke-opacity="1" stroke-width="1" stroke-linecap="square" stroke-linejoin="bevel" transform="matrix(0.833333,0,0,0.833333,12.2266,421.36)"
font-family="Ubuntu" font-size="11.1111" font-weight="400" font-style="normal" 
>
</g>

<g fill="none" stroke="#111111" stroke-opacity="1" stroke-width="1" stroke-linecap="square" stroke-linejoin="bevel" transform="matrix(0.833333,0,0,0.833333,12.2266,421.36)"
font-family="Ubuntu" font-size="13" font-weight="400" font-style="normal" 
>
</g>

<g fill="none" stroke="#111111" stroke-opacity="1" stroke-width="1" stroke-linecap="square" stroke-linejoin="bevel" transform="matrix(0.833333,0,0,0.833333,12.2266,421.36)"
font-family="Ubuntu" font-size="13" font-weight="400" font-style="normal" 
>
</g>

<g fill="none" stroke="#111111" stroke-opacity="1" stroke-width="1" stroke-linecap="square" stroke-linejoin="bevel" transform="matrix(0.833333,0,0,0.833333,12.2266,421.36)"
font-family="Ubuntu" font-size="13" font-weight="400" font-style="normal" 
>
<text fill="#111111" fill-opacity="1" stroke="none" xml:space="preserve" x="0" y="10" font-family="Ubuntu" font-size="13" font-weight="400" font-style="normal" 
 >0</text>
</g>

<g fill="none" stroke="#111111" stroke-opacity="1" stroke-width="1" stroke-linecap="square" stroke-linejoin="bevel" transform="matrix(0.833333,0,0,0.833333,12.2266,421.36)"
font-family="Ubuntu" font-size="13" font-weight="400" font-style="normal" 
>
</g>

<g fill="none" stroke="#111111" stroke-opacity="1" stroke-width="1" stroke-linecap="square" stroke-linejoin="bevel" transform="matrix(0.833333,0,0,0.833333,12.2266,421.36)"
font-family="Ubuntu" font-size="11.1111" font-weight="400" font-style="normal" 
>
</g>

<g fill="none" stroke="#111111" stroke-opacity="1" stroke-width="1" stroke-linecap="square" stroke-linejoin="bevel" transform="matrix(0.833333,0,0,0.833333,12.2266,421.36)"
font-family="Ubuntu" font-size="11.1111" font-weight="400" font-style="normal" 
>
</g>

<g fill="none" stroke="#111111" stroke-opacity="1" stroke-width="1" stroke-linecap="square" stroke-linejoin="bevel" transform="matrix(0.833333,0,0,0.833333,0,0)"
font-family="Ubuntu" font-size="11.1111" font-weight="400" font-style="normal" 
>
</g>

<g fill="none" stroke="#111111" stroke-opacity="1" stroke-width="1" stroke-linecap="square" stroke-linejoin="bevel" transform="matrix(0.833333,0,0,0.833333,3.46354,281.967)"
font-family="Ubuntu" font-size="11.1111" font-weight="400" font-style="normal" 
>
</g>

<g fill="none" stroke="#111111" stroke-opacity="1" stroke-width="1" stroke-linecap="square" stroke-linejoin="bevel" transform="matrix(0.833333,0,0,0.833333,3.46354,281.967)"
font-family="Ubuntu" font-size="13" font-weight="400" font-style="normal" 
>
</g>

<g fill="none" stroke="#111111" stroke-opacity="1" stroke-width="1" stroke-linecap="square" stroke-linejoin="bevel" transform="matrix(0.833333,0,0,0.833333,3.46354,281.967)"
font-family="Ubuntu" font-size="13" font-weight="400" font-style="normal" 
>
<text fill="#111111" fill-opacity="1" stroke="none" xml:space="preserve" x="0" y="10" font-family="Ubuntu" font-size="13" font-weight="400" font-style="normal" 
 >0.1</text>
</g>

<g fill="none" stroke="#111111" stroke-opacity="1" stroke-width="1" stroke-linecap="square" stroke-linejoin="bevel" transform="matrix(0.833333,0,0,0.833333,3.46354,281.967)"
font-family="Ubuntu" font-size="11.1111" font-weight="400" font-style="normal" 
>
</g>

<g fill="none" stroke="#111111" stroke-opacity="1" stroke-width="1" stroke-linecap="square" stroke-linejoin="bevel" transform="matrix(0.833333,0,0,0.833333,3.46354,281.967)"
font-family="Ubuntu" font-size="11.1111" font-weight="400" font-style="normal" 
>
</g>

<g fill="none" stroke="#111111" stroke-opacity="1" stroke-width="1" stroke-linecap="square" stroke-linejoin="bevel" transform="matrix(0.833333,0,0,0.833333,0,0)"
font-family="Ubuntu" font-size="11.1111" font-weight="400" font-style="normal" 
>
</g>

<g fill="none" stroke="#111111" stroke-opacity="1" stroke-width="1" stroke-linecap="square" stroke-linejoin="bevel" transform="matrix(0.833333,0,0,0.833333,3.46354,142.573)"
font-family="Ubuntu" font-size="11.1111" font-weight="400" font-style="normal" 
>
</g>

<g fill="none" stroke="#111111" stroke-opacity="1" stroke-width="1" stroke-linecap="square" stroke-linejoin="bevel" transform="matrix(0.833333,0,0,0.833333,3.46354,142.573)"
font-family="Ubuntu" font-size="13" font-weight="400" font-style="normal" 
>
</g>

<g fill="none" stroke="#111111" stroke-opacity="1" stroke-width="1" stroke-linecap="square" stroke-linejoin="bevel" transform="matrix(0.833333,0,0,0.833333,3.46354,142.573)"
font-family="Ubuntu" font-size="13" font-weight="400" font-style="normal" 
>
<text fill="#111111" fill-opacity="1" stroke="none" xml:space="preserve" x="0" y="10" font-family="Ubuntu" font-size="13" font-weight="400" font-style="normal" 
 >0.2</text>
</g>

<g fill="none" stroke="#111111" stroke-opacity="1" stroke-width="1" stroke-linecap="square" stroke-linejoin="bevel" transform="matrix(0.833333,0,0,0.833333,3.46354,142.573)"
font-family="Ubuntu" font-size="11.1111" font-weight="400" font-style="normal" 
>
</g>

<g fill="none" stroke="#111111" stroke-opacity="1" stroke-width="1" stroke-linecap="square" stroke-linejoin="bevel" transform="matrix(0.833333,0,0,0.833333,3.46354,142.573)"
font-family="Ubuntu" font-size="11.1111" font-weight="400" font-style="normal" 
>
</g>

<g fill="none" stroke="#111111" stroke-opacity="1" stroke-width="1" stroke-linecap="square" stroke-linejoin="bevel" transform="matrix(0.833333,0,0,0.833333,0,0)"
font-family="Ubuntu" font-size="11.1111" font-weight="400" font-style="normal" 
>
</g>

<g fill="none" stroke="#111111" stroke-opacity="1" stroke-width="1" stroke-linecap="square" stroke-linejoin="bevel" transform="matrix(0.833333,0,0,0.833333,3.46354,3.17923)"
font-family="Ubuntu" font-size="11.1111" font-weight="400" font-style="normal" 
>
</g>

<g fill="none" stroke="#111111" stroke-opacity="1" stroke-width="1" stroke-linecap="square" stroke-linejoin="bevel" transform="matrix(0.833333,0,0,0.833333,3.46354,3.17923)"
font-family="Ubuntu" font-size="13" font-weight="400" font-style="normal" 
>
</g>

<g fill="none" stroke="#111111" stroke-opacity="1" stroke-width="1" stroke-linecap="square" stroke-linejoin="bevel" transform="matrix(0.833333,0,0,0.833333,3.46354,3.17923)"
font-family="Ubuntu" font-size="13" font-weight="400" font-style="normal" 
>
<text fill="#111111" fill-opacity="1" stroke="none" xml:space="preserve" x="0" y="10" font-family="Ubuntu" font-size="13" font-weight="400" font-style="normal" 
 >0.3</text>
</g>

<g fill="none" stroke="#111111" stroke-opacity="1" stroke-width="1" stroke-linecap="square" stroke-linejoin="bevel" transform="matrix(0.833333,0,0,0.833333,3.46354,3.17923)"
font-family="Ubuntu" font-size="11.1111" font-weight="400" font-style="normal" 
>
</g>

<g fill="none" stroke="#111111" stroke-opacity="1" stroke-width="1" stroke-linecap="square" stroke-linejoin="bevel" transform="matrix(0.833333,0,0,0.833333,3.46354,3.17923)"
font-family="Ubuntu" font-size="11.1111" font-weight="400" font-style="normal" 
>
</g>

<g fill="none" stroke="#111111" stroke-opacity="1" stroke-width="1" stroke-linecap="square" stroke-linejoin="bevel" transform="matrix(0.833333,0,0,0.833333,0,0)"
font-family="Ubuntu" font-size="11.1111" font-weight="400" font-style="normal" 
>
</g>

<g fill="none" stroke="#000000" stroke-opacity="1" stroke-width="1" stroke-linecap="square" stroke-linejoin="bevel" transform="matrix(0.833333,0,0,0.833333,0,0)"
font-family="Ubuntu" font-size="11.1111" font-weight="400" font-style="normal" 
>
</g>

<g fill="none" stroke="#111111" stroke-opacity="1" stroke-width="1" stroke-linecap="butt" stroke-linejoin="bevel" transform="matrix(0.833333,0,0,0.833333,0,0)"
font-family="Ubuntu" font-size="11.1111" font-weight="400" font-style="normal" 
>
<polyline fill="none" vector-effect="non-scaling-stroke" points="35.5,978.995 30.3,978.995 " />
<polyline fill="none" vector-effect="non-scaling-stroke" points="35.5,945.541 30.3,945.541 " />
<polyline fill="none" vector-effect="non-scaling-stroke" points="35.5,912.086 30.3,912.086 " />
<polyline fill="none" vector-effect="non-scaling-stroke" points="35.5,878.632 30.3,878.632 " />
<polyline fill="none" vector-effect="non-scaling-stroke" points="35.5,811.723 30.3,811.723 " />
<polyline fill="none" vector-effect="non-scaling-stroke" points="35.5,778.268 30.3,778.268 " />
<polyline fill="none" vector-effect="non-scaling-stroke" points="35.5,744.814 30.3,744.814 " />
<polyline fill="none" vector-effect="non-scaling-stroke" points="35.5,711.359 30.3,711.359 " />
<polyline fill="none" vector-effect="non-scaling-stroke" points="35.5,644.45 30.3,644.45 " />
<polyline fill="none" vector-effect="non-scaling-stroke" points="35.5,610.996 30.3,610.996 " />
<polyline fill="none" vector-effect="non-scaling-stroke" points="35.5,577.541 30.3,577.541 " />
<polyline fill="none" vector-effect="non-scaling-stroke" points="35.5,544.087 30.3,544.087 " />
<polyline fill="none" vector-effect="non-scaling-stroke" points="35.5,477.178 30.3,477.178 " />
<polyline fill="none" vector-effect="non-scaling-stroke" points="35.5,443.723 30.3,443.723 " />
<polyline fill="none" vector-effect="non-scaling-stroke" points="35.5,410.269 30.3,410.269 " />
<polyline fill="none" vector-effect="non-scaling-stroke" points="35.5,376.814 30.3,376.814 " />
<polyline fill="none" vector-effect="non-scaling-stroke" points="35.5,309.905 30.3,309.905 " />
<polyline fill="none" vector-effect="non-scaling-stroke" points="35.5,276.451 30.3,276.451 " />
<polyline fill="none" vector-effect="non-scaling-stroke" points="35.5,242.996 30.3,242.996 " />
<polyline fill="none" vector-effect="non-scaling-stroke" points="35.5,209.542 30.3,209.542 " />
<polyline fill="none" vector-effect="non-scaling-stroke" points="35.5,142.633 30.3,142.633 " />
<polyline fill="none" vector-effect="non-scaling-stroke" points="35.5,109.179 30.3,109.179 " />
<polyline fill="none" vector-effect="non-scaling-stroke" points="35.5,75.724 30.3,75.724 " />
<polyline fill="none" vector-effect="non-scaling-stroke" points="35.5,42.2696 30.3,42.2696 " />
<polyline fill="none" vector-effect="non-scaling-stroke" points="35.5,1012.45 26.3,1012.45 " />
<polyline fill="none" vector-effect="non-scaling-stroke" points="35.5,845.177 26.3,845.177 " />
<polyline fill="none" vector-effect="non-scaling-stroke" points="35.5,677.905 26.3,677.905 " />
<polyline fill="none" vector-effect="non-scaling-stroke" points="35.5,510.632 26.3,510.632 " />
<polyline fill="none" vector-effect="non-scaling-stroke" points="35.5,343.36 26.3,343.36 " />
<polyline fill="none" vector-effect="non-scaling-stroke" points="35.5,176.087 26.3,176.087 " />
<polyline fill="none" vector-effect="non-scaling-stroke" points="35.5,8.81508 26.3,8.81508 " />
</g>

<g fill="none" stroke="#000000" stroke-opacity="1" stroke-width="1" stroke-linecap="square" stroke-linejoin="bevel" transform="matrix(0.833333,0,0,0.833333,0,0)"
font-family="Ubuntu" font-size="11.1111" font-weight="400" font-style="normal" 
>
</g>

<g fill="none" stroke="#111111" stroke-opacity="1" stroke-width="1" stroke-linecap="butt" stroke-linejoin="bevel" transform="matrix(0.833333,0,0,0.833333,0,0)"
font-family="Ubuntu" font-size="11.1111" font-weight="400" font-style="normal" 
>
<polyline fill="none" vector-effect="non-scaling-stroke" points="35.4,1 35.4,1037 " />
</g>

<g fill="none" stroke="#000000" stroke-opacity="1" stroke-width="1" stroke-linecap="square" stroke-linejoin="bevel" transform="matrix(0.833333,0,0,0.833333,0,0)"
font-family="Ubuntu" font-size="11.1111" font-weight="400" font-style="normal" 
>
</g>

<g fill="none" stroke="#000000" stroke-opacity="1" stroke-width="1" stroke-linecap="square" stroke-linejoin="bevel" transform="matrix(0.833333,0,0,0.833333,0,0)"
font-family="Ubuntu" font-size="11.1111" font-weight="400" font-style="normal" 
>
</g>

<g fill="none" stroke="#000000" stroke-opacity="1" stroke-width="1" stroke-linecap="square" stroke-linejoin="bevel" transform="matrix(0.833333,0,0,0.833333,0,0)"
font-family="Ubuntu" font-size="12.2222" font-weight="400" font-style="normal" 
>
</g>

<g fill="none" stroke="#111111" stroke-opacity="1" stroke-width="1" stroke-linecap="square" stroke-linejoin="bevel" transform="matrix(0.833333,0,0,0.833333,32.5,900.833)"
font-family="Ubuntu" font-size="11.1111" font-weight="400" font-style="normal" 
>
</g>

<g fill="none" stroke="#111111" stroke-opacity="1" stroke-width="1" stroke-linecap="square" stroke-linejoin="bevel" transform="matrix(0.833333,0,0,0.833333,32.5,900.833)"
font-family="Ubuntu" font-size="13.3333" font-weight="700" font-style="normal" 
>
</g>

<g fill="none" stroke="#111111" stroke-opacity="1" stroke-width="1" stroke-linecap="square" stroke-linejoin="bevel" transform="matrix(0.833333,0,0,0.833333,32.5,900.833)"
font-family="Ubuntu" font-size="13.3333" font-weight="700" font-style="normal" 
>
</g>

<g fill="none" stroke="#111111" stroke-opacity="1" stroke-width="1" stroke-linecap="square" stroke-linejoin="bevel" transform="matrix(0.833333,0,0,0.833333,32.5,900.833)"
font-family="Ubuntu" font-size="11.1111" font-weight="400" font-style="normal" 
>
</g>

<g fill="none" stroke="#000000" stroke-opacity="1" stroke-width="1" stroke-linecap="square" stroke-linejoin="bevel" transform="matrix(0.833333,0,0,0.833333,0,0)"
font-family="Ubuntu" font-size="12.2222" font-weight="400" font-style="normal" 
>
</g>

<g fill="none" stroke="#000000" stroke-opacity="1" stroke-width="1" stroke-linecap="square" stroke-linejoin="bevel" transform="matrix(0.833333,0,0,0.833333,0,0)"
font-family="Ubuntu" font-size="11.1111" font-weight="400" font-style="normal" 
>
</g>

<g fill="none" stroke="#000000" stroke-opacity="1" stroke-width="1" stroke-linecap="square" stroke-linejoin="bevel" transform="matrix(0.833333,0,0,0.833333,0,0)"
font-family="Ubuntu" font-size="11.1111" font-weight="400" font-style="normal" 
>
</g>

<g fill="none" stroke="#111111" stroke-opacity="1" stroke-width="1" stroke-linecap="square" stroke-linejoin="bevel" transform="matrix(0.833333,0,0,0.833333,0,0)"
font-family="Ubuntu" font-size="11.1111" font-weight="400" font-style="normal" 
>
</g>

<g fill="none" stroke="#111111" stroke-opacity="1" stroke-width="1" stroke-linecap="square" stroke-linejoin="bevel" transform="matrix(0.833333,0,0,0.833333,163.088,878.333)"
font-family="Ubuntu" font-size="11.1111" font-weight="400" font-style="normal" 
>
</g>

<g fill="none" stroke="#111111" stroke-opacity="1" stroke-width="1" stroke-linecap="square" stroke-linejoin="bevel" transform="matrix(0.833333,0,0,0.833333,163.088,878.333)"
font-family="Ubuntu" font-size="13" font-weight="400" font-style="normal" 
>
</g>

<g fill="none" stroke="#111111" stroke-opacity="1" stroke-width="1" stroke-linecap="square" stroke-linejoin="bevel" transform="matrix(0.833333,0,0,0.833333,163.088,878.333)"
font-family="Ubuntu" font-size="13" font-weight="400" font-style="normal" 
>
</g>

<g fill="none" stroke="#111111" stroke-opacity="1" stroke-width="1" stroke-linecap="square" stroke-linejoin="bevel" transform="matrix(0.833333,0,0,0.833333,163.088,878.333)"
font-family="Ubuntu" font-size="13" font-weight="400" font-style="normal" 
>
<text fill="#111111" fill-opacity="1" stroke="none" xml:space="preserve" x="0" y="10" font-family="Ubuntu" font-size="13" font-weight="400" font-style="normal" 
 >15:32:20.0</text>
</g>

<g fill="none" stroke="#111111" stroke-opacity="1" stroke-width="1" stroke-linecap="square" stroke-linejoin="bevel" transform="matrix(0.833333,0,0,0.833333,163.088,878.333)"
font-family="Ubuntu" font-size="13" font-weight="400" font-style="normal" 
>
<text fill="#111111" fill-opacity="1" stroke="none" xml:space="preserve" x="0" y="25" font-family="Ubuntu" font-size="13" font-weight="400" font-style="normal" 
 >2024 Jul 10</text>
</g>

<g fill="none" stroke="#111111" stroke-opacity="1" stroke-width="1" stroke-linecap="square" stroke-linejoin="bevel" transform="matrix(0.833333,0,0,0.833333,163.088,878.333)"
font-family="Ubuntu" font-size="13" font-weight="400" font-style="normal" 
>
</g>

<g fill="none" stroke="#111111" stroke-opacity="1" stroke-width="1" stroke-linecap="square" stroke-linejoin="bevel" transform="matrix(0.833333,0,0,0.833333,163.088,878.333)"
font-family="Ubuntu" font-size="11.1111" font-weight="400" font-style="normal" 
>
</g>

<g fill="none" stroke="#111111" stroke-opacity="1" stroke-width="1" stroke-linecap="square" stroke-linejoin="bevel" transform="matrix(0.833333,0,0,0.833333,163.088,878.333)"
font-family="Ubuntu" font-size="11.1111" font-weight="400" font-style="normal" 
>
</g>

<g fill="none" stroke="#111111" stroke-opacity="1" stroke-width="1" stroke-linecap="square" stroke-linejoin="bevel" transform="matrix(0.833333,0,0,0.833333,0,0)"
font-family="Ubuntu" font-size="11.1111" font-weight="400" font-style="normal" 
>
</g>

<g fill="none" stroke="#111111" stroke-opacity="1" stroke-width="1" stroke-linecap="square" stroke-linejoin="bevel" transform="matrix(0.833333,0,0,0.833333,336.359,878.333)"
font-family="Ubuntu" font-size="11.1111" font-weight="400" font-style="normal" 
>
</g>

<g fill="none" stroke="#111111" stroke-opacity="1" stroke-width="1" stroke-linecap="square" stroke-linejoin="bevel" transform="matrix(0.833333,0,0,0.833333,336.359,878.333)"
font-family="Ubuntu" font-size="13" font-weight="400" font-style="normal" 
>
</g>

<g fill="none" stroke="#111111" stroke-opacity="1" stroke-width="1" stroke-linecap="square" stroke-linejoin="bevel" transform="matrix(0.833333,0,0,0.833333,336.359,878.333)"
font-family="Ubuntu" font-size="13" font-weight="400" font-style="normal" 
>
</g>

<g fill="none" stroke="#111111" stroke-opacity="1" stroke-width="1" stroke-linecap="square" stroke-linejoin="bevel" transform="matrix(0.833333,0,0,0.833333,336.359,878.333)"
font-family="Ubuntu" font-size="13" font-weight="400" font-style="normal" 
>
<text fill="#111111" fill-opacity="1" stroke="none" xml:space="preserve" x="0" y="10" font-family="Ubuntu" font-size="13" font-weight="400" font-style="normal" 
 >15:32:40.0</text>
</g>

<g fill="none" stroke="#111111" stroke-opacity="1" stroke-width="1" stroke-linecap="square" stroke-linejoin="bevel" transform="matrix(0.833333,0,0,0.833333,336.359,878.333)"
font-family="Ubuntu" font-size="13" font-weight="400" font-style="normal" 
>
<text fill="#111111" fill-opacity="1" stroke="none" xml:space="preserve" x="0" y="25" font-family="Ubuntu" font-size="13" font-weight="400" font-style="normal" 
 >2024 Jul 10</text>
</g>

<g fill="none" stroke="#111111" stroke-opacity="1" stroke-width="1" stroke-linecap="square" stroke-linejoin="bevel" transform="matrix(0.833333,0,0,0.833333,336.359,878.333)"
font-family="Ubuntu" font-size="13" font-weight="400" font-style="normal" 
>
</g>

<g fill="none" stroke="#111111" stroke-opacity="1" stroke-width="1" stroke-linecap="square" stroke-linejoin="bevel" transform="matrix(0.833333,0,0,0.833333,336.359,878.333)"
font-family="Ubuntu" font-size="11.1111" font-weight="400" font-style="normal" 
>
</g>

<g fill="none" stroke="#111111" stroke-opacity="1" stroke-width="1" stroke-linecap="square" stroke-linejoin="bevel" transform="matrix(0.833333,0,0,0.833333,336.359,878.333)"
font-family="Ubuntu" font-size="11.1111" font-weight="400" font-style="normal" 
>
</g>

<g fill="none" stroke="#111111" stroke-opacity="1" stroke-width="1" stroke-linecap="square" stroke-linejoin="bevel" transform="matrix(0.833333,0,0,0.833333,0,0)"
font-family="Ubuntu" font-size="11.1111" font-weight="400" font-style="normal" 
>
</g>

<g fill="none" stroke="#111111" stroke-opacity="1" stroke-width="1" stroke-linecap="square" stroke-linejoin="bevel" transform="matrix(0.833333,0,0,0.833333,509.629,878.333)"
font-family="Ubuntu" font-size="11.1111" font-weight="400" font-style="normal" 
>
</g>

<g fill="none" stroke="#111111" stroke-opacity="1" stroke-width="1" stroke-linecap="square" stroke-linejoin="bevel" transform="matrix(0.833333,0,0,0.833333,509.629,878.333)"
font-family="Ubuntu" font-size="13" font-weight="400" font-style="normal" 
>
</g>

<g fill="none" stroke="#111111" stroke-opacity="1" stroke-width="1" stroke-linecap="square" stroke-linejoin="bevel" transform="matrix(0.833333,0,0,0.833333,509.629,878.333)"
font-family="Ubuntu" font-size="13" font-weight="400" font-style="normal" 
>
</g>

<g fill="none" stroke="#111111" stroke-opacity="1" stroke-width="1" stroke-linecap="square" stroke-linejoin="bevel" transform="matrix(0.833333,0,0,0.833333,509.629,878.333)"
font-family="Ubuntu" font-size="13" font-weight="400" font-style="normal" 
>
<text fill="#111111" fill-opacity="1" stroke="none" xml:space="preserve" x="0" y="10" font-family="Ubuntu" font-size="13" font-weight="400" font-style="normal" 
 >15:33:00.0</text>
</g>

<g fill="none" stroke="#111111" stroke-opacity="1" stroke-width="1" stroke-linecap="square" stroke-linejoin="bevel" transform="matrix(0.833333,0,0,0.833333,509.629,878.333)"
font-family="Ubuntu" font-size="13" font-weight="400" font-style="normal" 
>
<text fill="#111111" fill-opacity="1" stroke="none" xml:space="preserve" x="0" y="25" font-family="Ubuntu" font-size="13" font-weight="400" font-style="normal" 
 >2024 Jul 10</text>
</g>

<g fill="none" stroke="#111111" stroke-opacity="1" stroke-width="1" stroke-linecap="square" stroke-linejoin="bevel" transform="matrix(0.833333,0,0,0.833333,509.629,878.333)"
font-family="Ubuntu" font-size="13" font-weight="400" font-style="normal" 
>
</g>

<g fill="none" stroke="#111111" stroke-opacity="1" stroke-width="1" stroke-linecap="square" stroke-linejoin="bevel" transform="matrix(0.833333,0,0,0.833333,509.629,878.333)"
font-family="Ubuntu" font-size="11.1111" font-weight="400" font-style="normal" 
>
</g>

<g fill="none" stroke="#111111" stroke-opacity="1" stroke-width="1" stroke-linecap="square" stroke-linejoin="bevel" transform="matrix(0.833333,0,0,0.833333,509.629,878.333)"
font-family="Ubuntu" font-size="11.1111" font-weight="400" font-style="normal" 
>
</g>

<g fill="none" stroke="#111111" stroke-opacity="1" stroke-width="1" stroke-linecap="square" stroke-linejoin="bevel" transform="matrix(0.833333,0,0,0.833333,0,0)"
font-family="Ubuntu" font-size="11.1111" font-weight="400" font-style="normal" 
>
</g>

<g fill="none" stroke="#111111" stroke-opacity="1" stroke-width="1" stroke-linecap="square" stroke-linejoin="bevel" transform="matrix(0.833333,0,0,0.833333,682.899,878.333)"
font-family="Ubuntu" font-size="11.1111" font-weight="400" font-style="normal" 
>
</g>

<g fill="none" stroke="#111111" stroke-opacity="1" stroke-width="1" stroke-linecap="square" stroke-linejoin="bevel" transform="matrix(0.833333,0,0,0.833333,682.899,878.333)"
font-family="Ubuntu" font-size="13" font-weight="400" font-style="normal" 
>
</g>

<g fill="none" stroke="#111111" stroke-opacity="1" stroke-width="1" stroke-linecap="square" stroke-linejoin="bevel" transform="matrix(0.833333,0,0,0.833333,682.899,878.333)"
font-family="Ubuntu" font-size="13" font-weight="400" font-style="normal" 
>
</g>

<g fill="none" stroke="#111111" stroke-opacity="1" stroke-width="1" stroke-linecap="square" stroke-linejoin="bevel" transform="matrix(0.833333,0,0,0.833333,682.899,878.333)"
font-family="Ubuntu" font-size="13" font-weight="400" font-style="normal" 
>
<text fill="#111111" fill-opacity="1" stroke="none" xml:space="preserve" x="0" y="10" font-family="Ubuntu" font-size="13" font-weight="400" font-style="normal" 
 >15:33:20.0</text>
</g>

<g fill="none" stroke="#111111" stroke-opacity="1" stroke-width="1" stroke-linecap="square" stroke-linejoin="bevel" transform="matrix(0.833333,0,0,0.833333,682.899,878.333)"
font-family="Ubuntu" font-size="13" font-weight="400" font-style="normal" 
>
<text fill="#111111" fill-opacity="1" stroke="none" xml:space="preserve" x="0" y="25" font-family="Ubuntu" font-size="13" font-weight="400" font-style="normal" 
 >2024 Jul 10</text>
</g>

<g fill="none" stroke="#111111" stroke-opacity="1" stroke-width="1" stroke-linecap="square" stroke-linejoin="bevel" transform="matrix(0.833333,0,0,0.833333,682.899,878.333)"
font-family="Ubuntu" font-size="13" font-weight="400" font-style="normal" 
>
</g>

<g fill="none" stroke="#111111" stroke-opacity="1" stroke-width="1" stroke-linecap="square" stroke-linejoin="bevel" transform="matrix(0.833333,0,0,0.833333,682.899,878.333)"
font-family="Ubuntu" font-size="11.1111" font-weight="400" font-style="normal" 
>
</g>

<g fill="none" stroke="#111111" stroke-opacity="1" stroke-width="1" stroke-linecap="square" stroke-linejoin="bevel" transform="matrix(0.833333,0,0,0.833333,682.899,878.333)"
font-family="Ubuntu" font-size="11.1111" font-weight="400" font-style="normal" 
>
</g>

<g fill="none" stroke="#111111" stroke-opacity="1" stroke-width="1" stroke-linecap="square" stroke-linejoin="bevel" transform="matrix(0.833333,0,0,0.833333,0,0)"
font-family="Ubuntu" font-size="11.1111" font-weight="400" font-style="normal" 
>
</g>

<g fill="none" stroke="#111111" stroke-opacity="1" stroke-width="1" stroke-linecap="square" stroke-linejoin="bevel" transform="matrix(0.833333,0,0,0.833333,856.169,878.333)"
font-family="Ubuntu" font-size="11.1111" font-weight="400" font-style="normal" 
>
</g>

<g fill="none" stroke="#111111" stroke-opacity="1" stroke-width="1" stroke-linecap="square" stroke-linejoin="bevel" transform="matrix(0.833333,0,0,0.833333,856.169,878.333)"
font-family="Ubuntu" font-size="13" font-weight="400" font-style="normal" 
>
</g>

<g fill="none" stroke="#111111" stroke-opacity="1" stroke-width="1" stroke-linecap="square" stroke-linejoin="bevel" transform="matrix(0.833333,0,0,0.833333,856.169,878.333)"
font-family="Ubuntu" font-size="13" font-weight="400" font-style="normal" 
>
</g>

<g fill="none" stroke="#111111" stroke-opacity="1" stroke-width="1" stroke-linecap="square" stroke-linejoin="bevel" transform="matrix(0.833333,0,0,0.833333,856.169,878.333)"
font-family="Ubuntu" font-size="13" font-weight="400" font-style="normal" 
>
<text fill="#111111" fill-opacity="1" stroke="none" xml:space="preserve" x="0" y="10" font-family="Ubuntu" font-size="13" font-weight="400" font-style="normal" 
 >15:33:40.0</text>
</g>

<g fill="none" stroke="#111111" stroke-opacity="1" stroke-width="1" stroke-linecap="square" stroke-linejoin="bevel" transform="matrix(0.833333,0,0,0.833333,856.169,878.333)"
font-family="Ubuntu" font-size="13" font-weight="400" font-style="normal" 
>
<text fill="#111111" fill-opacity="1" stroke="none" xml:space="preserve" x="0" y="25" font-family="Ubuntu" font-size="13" font-weight="400" font-style="normal" 
 >2024 Jul 10</text>
</g>

<g fill="none" stroke="#111111" stroke-opacity="1" stroke-width="1" stroke-linecap="square" stroke-linejoin="bevel" transform="matrix(0.833333,0,0,0.833333,856.169,878.333)"
font-family="Ubuntu" font-size="13" font-weight="400" font-style="normal" 
>
</g>

<g fill="none" stroke="#111111" stroke-opacity="1" stroke-width="1" stroke-linecap="square" stroke-linejoin="bevel" transform="matrix(0.833333,0,0,0.833333,856.169,878.333)"
font-family="Ubuntu" font-size="11.1111" font-weight="400" font-style="normal" 
>
</g>

<g fill="none" stroke="#111111" stroke-opacity="1" stroke-width="1" stroke-linecap="square" stroke-linejoin="bevel" transform="matrix(0.833333,0,0,0.833333,856.169,878.333)"
font-family="Ubuntu" font-size="11.1111" font-weight="400" font-style="normal" 
>
</g>

<g fill="none" stroke="#111111" stroke-opacity="1" stroke-width="1" stroke-linecap="square" stroke-linejoin="bevel" transform="matrix(0.833333,0,0,0.833333,0,0)"
font-family="Ubuntu" font-size="11.1111" font-weight="400" font-style="normal" 
>
</g>

<g fill="none" stroke="#111111" stroke-opacity="1" stroke-width="1" stroke-linecap="square" stroke-linejoin="bevel" transform="matrix(0.833333,0,0,0.833333,1029.44,878.333)"
font-family="Ubuntu" font-size="11.1111" font-weight="400" font-style="normal" 
>
</g>

<g fill="none" stroke="#111111" stroke-opacity="1" stroke-width="1" stroke-linecap="square" stroke-linejoin="bevel" transform="matrix(0.833333,0,0,0.833333,1029.44,878.333)"
font-family="Ubuntu" font-size="13" font-weight="400" font-style="normal" 
>
</g>

<g fill="none" stroke="#111111" stroke-opacity="1" stroke-width="1" stroke-linecap="square" stroke-linejoin="bevel" transform="matrix(0.833333,0,0,0.833333,1029.44,878.333)"
font-family="Ubuntu" font-size="13" font-weight="400" font-style="normal" 
>
</g>

<g fill="none" stroke="#111111" stroke-opacity="1" stroke-width="1" stroke-linecap="square" stroke-linejoin="bevel" transform="matrix(0.833333,0,0,0.833333,1029.44,878.333)"
font-family="Ubuntu" font-size="13" font-weight="400" font-style="normal" 
>
<text fill="#111111" fill-opacity="1" stroke="none" xml:space="preserve" x="0" y="10" font-family="Ubuntu" font-size="13" font-weight="400" font-style="normal" 
 >15:34:00.0</text>
</g>

<g fill="none" stroke="#111111" stroke-opacity="1" stroke-width="1" stroke-linecap="square" stroke-linejoin="bevel" transform="matrix(0.833333,0,0,0.833333,1029.44,878.333)"
font-family="Ubuntu" font-size="13" font-weight="400" font-style="normal" 
>
<text fill="#111111" fill-opacity="1" stroke="none" xml:space="preserve" x="0" y="25" font-family="Ubuntu" font-size="13" font-weight="400" font-style="normal" 
 >2024 Jul 10</text>
</g>

<g fill="none" stroke="#111111" stroke-opacity="1" stroke-width="1" stroke-linecap="square" stroke-linejoin="bevel" transform="matrix(0.833333,0,0,0.833333,1029.44,878.333)"
font-family="Ubuntu" font-size="13" font-weight="400" font-style="normal" 
>
</g>

<g fill="none" stroke="#111111" stroke-opacity="1" stroke-width="1" stroke-linecap="square" stroke-linejoin="bevel" transform="matrix(0.833333,0,0,0.833333,1029.44,878.333)"
font-family="Ubuntu" font-size="11.1111" font-weight="400" font-style="normal" 
>
</g>

<g fill="none" stroke="#111111" stroke-opacity="1" stroke-width="1" stroke-linecap="square" stroke-linejoin="bevel" transform="matrix(0.833333,0,0,0.833333,1029.44,878.333)"
font-family="Ubuntu" font-size="11.1111" font-weight="400" font-style="normal" 
>
</g>

<g fill="none" stroke="#111111" stroke-opacity="1" stroke-width="1" stroke-linecap="square" stroke-linejoin="bevel" transform="matrix(0.833333,0,0,0.833333,0,0)"
font-family="Ubuntu" font-size="11.1111" font-weight="400" font-style="normal" 
>
</g>

<g fill="none" stroke="#000000" stroke-opacity="1" stroke-width="1" stroke-linecap="square" stroke-linejoin="bevel" transform="matrix(0.833333,0,0,0.833333,0,0)"
font-family="Ubuntu" font-size="11.1111" font-weight="400" font-style="normal" 
>
</g>

<g fill="none" stroke="#111111" stroke-opacity="1" stroke-width="1" stroke-linecap="butt" stroke-linejoin="bevel" transform="matrix(0.833333,0,0,0.833333,0,0)"
font-family="Ubuntu" font-size="11.1111" font-weight="400" font-style="normal" 
>
<polyline fill="none" vector-effect="non-scaling-stroke" points="73.497,1040.5 73.497,1045.7 " />
<polyline fill="none" vector-effect="non-scaling-stroke" points="177.459,1040.5 177.459,1045.7 " />
<polyline fill="none" vector-effect="non-scaling-stroke" points="281.421,1040.5 281.421,1045.7 " />
<polyline fill="none" vector-effect="non-scaling-stroke" points="385.384,1040.5 385.384,1045.7 " />
<polyline fill="none" vector-effect="non-scaling-stroke" points="489.346,1040.5 489.346,1045.7 " />
<polyline fill="none" vector-effect="non-scaling-stroke" points="593.308,1040.5 593.308,1045.7 " />
<polyline fill="none" vector-effect="non-scaling-stroke" points="697.27,1040.5 697.27,1045.7 " />
<polyline fill="none" vector-effect="non-scaling-stroke" points="801.232,1040.5 801.232,1045.7 " />
<polyline fill="none" vector-effect="non-scaling-stroke" points="905.194,1040.5 905.194,1045.7 " />
<polyline fill="none" vector-effect="non-scaling-stroke" points="1009.16,1040.5 1009.16,1045.7 " />
<polyline fill="none" vector-effect="non-scaling-stroke" points="1113.12,1040.5 1113.12,1045.7 " />
<polyline fill="none" vector-effect="non-scaling-stroke" points="1217.08,1040.5 1217.08,1045.7 " />
<polyline fill="none" vector-effect="non-scaling-stroke" points="1321.04,1040.5 1321.04,1045.7 " />
<polyline fill="none" vector-effect="non-scaling-stroke" points="1425.01,1040.5 1425.01,1045.7 " />
<polyline fill="none" vector-effect="non-scaling-stroke" points="125.478,1040.5 125.478,1047.7 " />
<polyline fill="none" vector-effect="non-scaling-stroke" points="333.402,1040.5 333.402,1047.7 " />
<polyline fill="none" vector-effect="non-scaling-stroke" points="541.327,1040.5 541.327,1047.7 " />
<polyline fill="none" vector-effect="non-scaling-stroke" points="749.251,1040.5 749.251,1047.7 " />
<polyline fill="none" vector-effect="non-scaling-stroke" points="957.175,1040.5 957.175,1047.7 " />
<polyline fill="none" vector-effect="non-scaling-stroke" points="1165.1,1040.5 1165.1,1047.7 " />
<polyline fill="none" vector-effect="non-scaling-stroke" points="1373.02,1040.5 1373.02,1047.7 " />
<polyline fill="none" vector-effect="non-scaling-stroke" points="229.44,1040.5 229.44,1049.7 " />
<polyline fill="none" vector-effect="non-scaling-stroke" points="437.365,1040.5 437.365,1049.7 " />
<polyline fill="none" vector-effect="non-scaling-stroke" points="645.289,1040.5 645.289,1049.7 " />
<polyline fill="none" vector-effect="non-scaling-stroke" points="853.213,1040.5 853.213,1049.7 " />
<polyline fill="none" vector-effect="non-scaling-stroke" points="1061.14,1040.5 1061.14,1049.7 " />
<polyline fill="none" vector-effect="non-scaling-stroke" points="1269.06,1040.5 1269.06,1049.7 " />
</g>

<g fill="none" stroke="#000000" stroke-opacity="1" stroke-width="1" stroke-linecap="square" stroke-linejoin="bevel" transform="matrix(0.833333,0,0,0.833333,0,0)"
font-family="Ubuntu" font-size="11.1111" font-weight="400" font-style="normal" 
>
</g>

<g fill="none" stroke="#111111" stroke-opacity="1" stroke-width="1" stroke-linecap="butt" stroke-linejoin="bevel" transform="matrix(0.833333,0,0,0.833333,0,0)"
font-family="Ubuntu" font-size="11.1111" font-weight="400" font-style="normal" 
>
<polyline fill="none" vector-effect="non-scaling-stroke" points="39,1040.6 1438,1040.6 " />
</g>

<g fill="none" stroke="#000000" stroke-opacity="1" stroke-width="1" stroke-linecap="square" stroke-linejoin="bevel" transform="matrix(0.833333,0,0,0.833333,0,0)"
font-family="Ubuntu" font-size="11.1111" font-weight="400" font-style="normal" 
>
</g>

<g fill="none" stroke="#000000" stroke-opacity="1" stroke-width="1" stroke-linecap="square" stroke-linejoin="bevel" transform="matrix(0.833333,0,0,0.833333,0,0)"
font-family="Ubuntu" font-size="11.1111" font-weight="400" font-style="normal" 
>
</g>

<g fill="none" stroke="#000000" stroke-opacity="1" stroke-width="1" stroke-linecap="square" stroke-linejoin="bevel" transform="matrix(0.833333,0,0,0.833333,0,0)"
font-family="Ubuntu" font-size="12.2222" font-weight="400" font-style="normal" 
>
</g>

<g fill="none" stroke="#000000" stroke-opacity="1" stroke-width="1" stroke-linecap="square" stroke-linejoin="bevel" transform="matrix(1,0,0,1,0,0)"
font-family="Ubuntu" font-size="12.2222" font-weight="400" font-style="normal" 
>
</g>
</g>
</svg>
