<?xml version="1.0" encoding="UTF-8" standalone="no"?>
<svg viewBox="0 0 1200 900"
 xmlns="http://www.w3.org/2000/svg" xmlns:xlink="http://www.w3.org/1999/xlink"  version="1.2" baseProfile="tiny">
<title>Qt SVG Document</title>
<desc>Generated with Qt</desc>
<defs>
</defs>
<g fill="none" stroke="black" stroke-width="1" fill-rule="evenodd" stroke-linecap="square" stroke-linejoin="bevel" >

<g fill="#ffffff" fill-opacity="1" stroke="none" transform="matrix(1,0,0,1,0,0)"
font-family="Ubuntu" font-size="12.2222" font-weight="400" font-style="normal" 
>
<rect x="0" y="0" width="1200" height="900"/>
</g>

<g fill="none" stroke="#000000" stroke-opacity="1" stroke-width="1" stroke-linecap="square" stroke-linejoin="bevel" transform="matrix(1,0,0,1,0,0)"
font-family="Ubuntu" font-size="12.2222" font-weight="400" font-style="normal" 
>
</g>

<g fill="none" stroke="#000000" stroke-opacity="1" stroke-width="1" stroke-linecap="square" stroke-linejoin="bevel" transform="matrix(0.833333,0,0,0.833333,0,0)"
font-family="Ubuntu" font-size="12.2222" font-weight="400" font-style="normal" 
>
</g>

<g fill="#ffffff" fill-opacity="1" stroke="none" transform="matrix(0.833333,0,0,0.833333,0,0)"
font-family="Ubuntu" font-size="12.2222" font-weight="400" font-style="normal" 
>
<rect x="38" y="0" width="1393" height="1038"/>
</g>

<g fill="none" stroke="#000000" stroke-opacity="1" stroke-width="1" stroke-linecap="square" stroke-linejoin="bevel" transform="matrix(0.833333,0,0,0.833333,0,0)"
font-family="Ubuntu" font-size="12.2222" font-weight="400" font-style="normal" 
>
</g>

<g fill="none" stroke="#000000" stroke-opacity="1" stroke-width="1" stroke-linecap="square" stroke-linejoin="bevel" transform="matrix(0.833333,0,0,0.833333,0,0)"
font-family="Ubuntu" font-size="12.2222" font-weight="400" font-style="normal" 
>
</g>

<g fill="none" stroke="#a0a0a4" stroke-opacity="1" stroke-dasharray="1,2" stroke-dashoffset="0" stroke-width="1" stroke-linecap="butt" stroke-linejoin="bevel" transform="matrix(0.833333,0,0,0.833333,0,0)"
font-family="Ubuntu" font-size="12.2222" font-weight="400" font-style="normal" 
>
<polyline fill="none" vector-effect="non-scaling-stroke" points="92.1801,0 92.1801,1038 " />
<polyline fill="none" vector-effect="non-scaling-stroke" points="197.337,0 197.337,1038 " />
<polyline fill="none" vector-effect="non-scaling-stroke" points="302.494,0 302.494,1038 " />
<polyline fill="none" vector-effect="non-scaling-stroke" points="407.651,0 407.651,1038 " />
<polyline fill="none" vector-effect="non-scaling-stroke" points="512.808,0 512.808,1038 " />
<polyline fill="none" vector-effect="non-scaling-stroke" points="617.964,0 617.964,1038 " />
<polyline fill="none" vector-effect="non-scaling-stroke" points="723.121,0 723.121,1038 " />
<polyline fill="none" vector-effect="non-scaling-stroke" points="828.278,0 828.278,1038 " />
<polyline fill="none" vector-effect="non-scaling-stroke" points="933.435,0 933.435,1038 " />
<polyline fill="none" vector-effect="non-scaling-stroke" points="1038.59,0 1038.59,1038 " />
<polyline fill="none" vector-effect="non-scaling-stroke" points="1143.75,0 1143.75,1038 " />
<polyline fill="none" vector-effect="non-scaling-stroke" points="1248.91,0 1248.91,1038 " />
<polyline fill="none" vector-effect="non-scaling-stroke" points="1354.06,0 1354.06,1038 " />
<polyline fill="none" vector-effect="non-scaling-stroke" points="39.6017,0 39.6017,1038 " />
<polyline fill="none" vector-effect="non-scaling-stroke" points="249.915,0 249.915,1038 " />
<polyline fill="none" vector-effect="non-scaling-stroke" points="460.229,0 460.229,1038 " />
<polyline fill="none" vector-effect="non-scaling-stroke" points="670.543,0 670.543,1038 " />
<polyline fill="none" vector-effect="non-scaling-stroke" points="880.857,0 880.857,1038 " />
<polyline fill="none" vector-effect="non-scaling-stroke" points="1091.17,0 1091.17,1038 " />
<polyline fill="none" vector-effect="non-scaling-stroke" points="1301.48,0 1301.48,1038 " />
<polyline fill="none" vector-effect="non-scaling-stroke" points="38,979.293 1431,979.293 " />
<polyline fill="none" vector-effect="non-scaling-stroke" points="38,946.117 1431,946.117 " />
<polyline fill="none" vector-effect="non-scaling-stroke" points="38,912.942 1431,912.942 " />
<polyline fill="none" vector-effect="non-scaling-stroke" points="38,879.766 1431,879.766 " />
<polyline fill="none" vector-effect="non-scaling-stroke" points="38,813.414 1431,813.414 " />
<polyline fill="none" vector-effect="non-scaling-stroke" points="38,780.238 1431,780.238 " />
<polyline fill="none" vector-effect="non-scaling-stroke" points="38,747.063 1431,747.063 " />
<polyline fill="none" vector-effect="non-scaling-stroke" points="38,713.887 1431,713.887 " />
<polyline fill="none" vector-effect="non-scaling-stroke" points="38,647.535 1431,647.535 " />
<polyline fill="none" vector-effect="non-scaling-stroke" points="38,614.359 1431,614.359 " />
<polyline fill="none" vector-effect="non-scaling-stroke" points="38,581.183 1431,581.183 " />
<polyline fill="none" vector-effect="non-scaling-stroke" points="38,548.008 1431,548.008 " />
<polyline fill="none" vector-effect="non-scaling-stroke" points="38,481.656 1431,481.656 " />
<polyline fill="none" vector-effect="non-scaling-stroke" points="38,448.48 1431,448.48 " />
<polyline fill="none" vector-effect="non-scaling-stroke" points="38,415.304 1431,415.304 " />
<polyline fill="none" vector-effect="non-scaling-stroke" points="38,382.129 1431,382.129 " />
<polyline fill="none" vector-effect="non-scaling-stroke" points="38,315.777 1431,315.777 " />
<polyline fill="none" vector-effect="non-scaling-stroke" points="38,282.601 1431,282.601 " />
<polyline fill="none" vector-effect="non-scaling-stroke" points="38,249.425 1431,249.425 " />
<polyline fill="none" vector-effect="non-scaling-stroke" points="38,216.25 1431,216.25 " />
<polyline fill="none" vector-effect="non-scaling-stroke" points="38,149.898 1431,149.898 " />
<polyline fill="none" vector-effect="non-scaling-stroke" points="38,116.722 1431,116.722 " />
<polyline fill="none" vector-effect="non-scaling-stroke" points="38,83.5463 1431,83.5463 " />
<polyline fill="none" vector-effect="non-scaling-stroke" points="38,50.3705 1431,50.3705 " />
<polyline fill="none" vector-effect="non-scaling-stroke" points="144.759,0 144.759,1038 " />
<polyline fill="none" vector-effect="non-scaling-stroke" points="355.072,0 355.072,1038 " />
<polyline fill="none" vector-effect="non-scaling-stroke" points="565.386,0 565.386,1038 " />
<polyline fill="none" vector-effect="non-scaling-stroke" points="775.7,0 775.7,1038 " />
<polyline fill="none" vector-effect="non-scaling-stroke" points="986.014,0 986.014,1038 " />
<polyline fill="none" vector-effect="non-scaling-stroke" points="1196.33,0 1196.33,1038 " />
<polyline fill="none" vector-effect="non-scaling-stroke" points="1406.64,0 1406.64,1038 " />
<polyline fill="none" vector-effect="non-scaling-stroke" points="38,1012.47 1431,1012.47 " />
<polyline fill="none" vector-effect="non-scaling-stroke" points="38,846.59 1431,846.59 " />
<polyline fill="none" vector-effect="non-scaling-stroke" points="38,680.711 1431,680.711 " />
<polyline fill="none" vector-effect="non-scaling-stroke" points="38,514.832 1431,514.832 " />
<polyline fill="none" vector-effect="non-scaling-stroke" points="38,348.953 1431,348.953 " />
<polyline fill="none" vector-effect="non-scaling-stroke" points="38,183.074 1431,183.074 " />
<polyline fill="none" vector-effect="non-scaling-stroke" points="38,17.1947 1431,17.1947 " />
</g>

<g fill="none" stroke="#000000" stroke-opacity="1" stroke-width="1" stroke-linecap="square" stroke-linejoin="bevel" transform="matrix(0.833333,0,0,0.833333,0,0)"
font-family="Ubuntu" font-size="12.2222" font-weight="400" font-style="normal" 
>
</g>

<g fill="none" stroke="#000000" stroke-opacity="1" stroke-width="1" stroke-linecap="square" stroke-linejoin="bevel" transform="matrix(0.833333,0,0,0.833333,0,0)"
font-family="Ubuntu" font-size="12.2222" font-weight="400" font-style="normal" 
>
</g>

<g fill="none" stroke="#1f77b4" stroke-opacity="1" stroke-width="1.3" stroke-linecap="square" stroke-linejoin="bevel" transform="matrix(0.833333,0,0,0.833333,0,0)"
font-family="Ubuntu" font-size="12.2222" font-weight="400" font-style="normal" 
>
<polyline fill="none" vector-effect="none" points="39,512.989 39.5269,512.989 40.054,512.989 40.5782,512.989 41.1033,512.989 41.7363,512.989 42.3675,512.989 42.8938,512.989 43.4171,512.989 43.9461,512.989 44.5751,512.989 45.0993,512.989 45.7319,512.989 46.2573,512.989 46.7835,512.989 47.4134,512.989 47.9419,512.989 48.4659,512.989 49.0959,512.989 49.7284,512.989 50.2534,512.989 50.7803,512.989 51.4113,512.989 52.0413,512.989 52.5668,512.989 53.094,512.989 53.7243,512.989 54.2503,512.989 54.882,512.989 55.4064,512.989 55.931,512.989 56.563,512.989 57.195,512.989 57.7207,512.989 58.2448,512.989 58.8779,512.989 59.4009,512.989 59.9276,512.989 60.4531,512.989 61.0858,512.989 61.6094,512.989 62.2415,512.989 62.7685,512.989 63.295,512.989 63.9237,512.989 64.451,512.989 64.9763,512.989 65.4991,512.989 66.1303,512.989 66.6599,512.989 67.2888,512.989 67.814,512.989 68.4458,512.989 68.9723,512.989 69.3924,512.989 70.0254,512.989 70.551,512.989 71.1803,512.989 71.7054,512.989 72.2309,512.989 72.758,512.989 73.3895,512.989 73.9135,512.989 74.4417,512.989 75.07,512.989 75.5981,512.989 76.1213,512.989 76.647,512.989 77.2789,512.989 77.8042,512.989 78.4353,512.989 78.9627,512.989 79.5931,512.989 80.1199,512.989 80.7493,512.989 81.2748,512.989 81.8007,512.989 82.3269,512.989 82.959,512.989 83.4838,512.989 84.0106,512.989 84.6421,512.989 85.1668,512.989 85.6926,512.989 86.2169,512.989 86.8492,512.989 87.4794,512.989 88.0062,512.989 88.6381,512.989 89.1606,512.989 89.69,512.989 90.2128,512.989 90.8449,512.989 91.3735,512.989 91.8964,512.989 92.5286,512.989 93.0514,512.989 93.579,512.989 94.1063,512.989 94.6305,512.989 95.2613,512.989 95.7841,512.989 96.3098,512.989 96.9417,512.989 97.4697,512.989 97.9959,512.989 98.626,512.989 99.1516,512.989 99.6765,512.989 100.204,512.989 100.835,512.989 101.358,512.989 101.991,512.989 102.517,512.989 103.043,512.989 103.673,512.989 104.2,512.989 104.833,512.989 105.463,512.989 105.987,512.989 106.619,512.989 107.25,512.989 107.775,513.017 108.194,513.55 108.932,515.438 109.565,518.618 109.983,523.042 110.614,528.675 111.14,535.519 111.77,545.548 112.404,555.699 112.928,566.122 113.456,577.49 113.98,589.676 114.611,602.709 115.135,616.393 115.768,630.671 116.187,645.504 116.712,659.579 117.345,676.395 117.868,692.295 118.396,709.571 119.027,728.156 119.763,746.856 120.289,764.172 120.814,779.984 121.341,795.524 121.867,808.468 122.393,823.423 123.021,840.114 123.655,855.103 124.181,868.478 124.707,882.072 125.336,896.035 125.967,908.194 126.494,918.765 127.019,928.745 127.755,939.979 128.386,949.097 128.911,956.852 129.438,964.446 129.963,970.847 130.594,976.522 131.119,981.813 131.644,986.891 132.171,990.956 132.906,995.151 133.539,998.444 134.063,1001.29 134.695,1003.76 135.115,1005.61 135.745,1007.48 136.377,1008.86 136.903,1010.01 137.429,1010.9 138.057,1011.56 138.587,1012.02 139.11,1012.27 139.742,1012.33 140.374,1012.26 141.004,1012.06 141.53,1011.61 142.054,1011.05 142.686,1010.48 143.212,1009.95 143.843,1009.41 144.368,1008.83 144.893,1008.2 145.422,1007.57 145.946,1006.96 146.578,1006.39 147.103,1005.8 147.733,1005.32 148.26,1004.9 148.786,1004.58 149.417,1004.34 149.942,1004.21 150.574,1004.09 151.204,1003.87 151.836,1003.52 152.362,1003.12 152.991,1002.62 153.621,1002.02 154.253,1001.33 154.779,1000.71 155.409,1000.03 155.936,999.407 156.462,998.791 156.989,998.181 157.618,997.597 158.248,997.06 158.774,996.655 159.3,996.308 159.933,996.067 160.562,995.919 161.089,995.776 161.719,995.58 162.244,995.289 162.876,994.864 163.508,994.413 164.033,993.813 164.664,993.124 165.295,992.41 165.82,991.788 166.347,991.148 166.976,990.41 167.608,989.812 168.133,989.292 168.66,988.783 169.186,988.377 169.817,988.007 170.341,987.761 170.868,987.638 171.5,987.507 172.13,987.322 172.655,987.037 173.182,986.69 173.708,986.24 174.338,985.716 174.865,985.239 175.391,984.598 176.02,983.88 176.546,983.264 177.072,982.605 177.809,981.91 178.334,981.345 178.861,980.761 179.491,980.287 180.016,979.872 180.649,979.598 181.172,979.408 181.697,979.284 182.224,979.142 182.856,978.919 183.488,978.553 184.116,978.157 184.749,977.642 185.166,977.098 185.697,976.517 186.325,975.845 186.851,975.198 187.376,974.564 187.902,973.926 188.535,973.285 189.165,972.693 189.69,972.218 190.322,971.753 190.847,971.435 191.373,971.212 192.004,971.061 192.532,970.947 193.162,970.756 193.58,970.49 194.213,970.117 194.739,969.675 195.263,969.159 195.894,968.614 196.42,967.974 197.052,967.342 197.577,966.726 198.104,966.043 198.84,965.343 199.366,964.763 199.89,964.244 200.416,963.741 201.048,963.345 201.574,963.046 202.204,962.83 202.834,962.701 203.362,962.542 203.888,962.328 204.412,962.006 205.043,961.588 205.568,961.073 206.199,960.503 206.728,959.963 207.25,959.301 207.882,958.602 208.408,957.959 208.933,957.368 209.568,956.715 210.092,956.147 210.721,955.679 211.249,955.215 211.878,954.829 212.51,954.583 213.035,954.439 213.665,954.316 214.191,954.146 214.823,953.817 215.348,953.448 215.875,953.072 216.4,952.546 216.93,951.95 217.559,951.348 218.082,950.764 218.713,950.08 219.24,949.378 219.767,948.781 220.293,948.194 220.922,947.633 221.447,947.17 222.08,946.754 222.606,946.463 223.236,946.24 223.759,946.138 224.289,946.001 224.813,945.788 225.443,945.476 225.969,945.111 226.497,944.667 227.128,944.125 227.546,943.641 228.074,943.04 228.598,942.356 229.123,941.726 229.757,941.048 230.28,940.457 230.807,939.871 231.437,939.299 232.071,938.808 232.595,938.461 233.119,938.149 233.751,937.932 234.279,937.828 234.908,937.672 235.538,937.402 236.065,937.071 236.59,936.675 237.116,936.236 237.745,935.672 238.272,935.044 238.904,934.417 239.431,933.781 239.955,933.14 240.483,932.539 241.007,931.937 241.639,931.33 242.269,930.837 242.689,930.379 243.32,930.037 243.845,929.765 244.372,929.601 245.109,929.498 245.529,929.316 246.267,929.017 246.791,928.672 247.42,928.208 247.948,927.715 248.473,927.159 248.999,926.606 249.525,925.972 250.05,925.298 250.577,924.697 251.102,924.089 251.734,923.5 252.259,922.93 252.785,922.403 253.416,921.987 253.943,921.642 254.572,921.447 255.098,921.296 255.625,921.161 256.153,921.019 256.676,920.762 257.201,920.425 257.726,920.012 258.252,919.527 258.883,918.991 259.514,918.36 259.934,917.729 260.567,917.097 261.197,916.355 261.828,915.658 262.458,914.999 262.986,914.497 263.615,914.012 264.035,913.605 264.666,913.289 265.192,913.102 265.719,912.977 266.349,912.835 266.874,912.629 267.4,912.324 268.034,911.889 268.661,911.446 269.188,910.867 269.818,910.237 270.452,909.523 270.975,908.87 271.504,908.243 272.029,907.637 272.658,906.989 273.187,906.432 273.708,905.93 274.34,905.444 274.971,905.098 275.604,904.858 276.13,904.693 276.653,904.572 277.285,904.371 277.812,904.082 278.442,903.725 278.968,903.286 279.494,902.752 280.018,902.268 280.545,901.671 281.072,901.063 281.597,900.439 282.23,899.792 282.858,899.146 283.383,898.499 283.91,897.926 284.54,897.429 285.068,897.012 285.591,896.722 286.328,896.5 286.747,896.38 287.378,896.22 288.011,895.988 288.535,895.722 289.062,895.312 289.695,894.79 290.221,894.305 290.746,893.7 291.378,893.011 292.008,892.343 292.64,891.601 293.059,890.98 293.689,890.354 294.216,889.817 294.847,889.274 295.478,888.835 296.109,888.473 296.633,888.236 297.159,888.112 297.791,887.975 298.315,887.767 298.949,887.462 299.474,887.06 299.999,886.622 300.629,886.087 301.26,885.465 301.788,884.798 302.418,884.177 302.943,883.526 303.575,882.852 304.101,882.208 304.731,881.565 305.256,881.044 305.783,880.614 306.413,880.236 306.94,879.994 307.571,879.823 308.2,879.683 308.834,879.502 309.357,879.218 310.094,878.765 310.621,878.33 311.146,877.806 311.775,877.156 312.408,876.44 312.932,875.77 313.459,875.132 314.092,874.466 314.614,873.916 315.247,873.342 315.667,872.84 316.298,872.389 316.825,872.03 317.456,871.74 317.981,871.575 318.507,871.448 319.138,871.272 319.662,871.039 320.4,870.636 320.924,870.224 321.453,869.723 321.977,869.218 322.504,868.576 323.133,867.931 323.764,867.169 324.29,866.546 324.921,865.886 325.446,865.313 325.972,864.768 326.498,864.294 327.13,863.84 327.655,863.554 328.285,863.341 328.811,863.217 329.442,863.083 330.075,862.872 330.495,862.575 331.125,862.147 331.65,861.709 332.279,861.155 332.808,860.619 333.226,860.014 333.753,859.428 334.49,858.693 335.014,858 335.646,857.409 336.067,856.882 336.593,856.345 337.223,855.817 337.961,855.409 338.485,855.149 338.908,855.002 339.537,854.868 340.063,854.746 340.694,854.451 341.219,854.116 341.955,853.641 342.586,853.094 343.006,852.576 343.532,852.002 344.268,851.287 344.69,850.647 345.215,850.011 345.848,849.341 346.479,848.71 347.002,848.183 347.53,847.71 348.054,847.304 348.686,846.975 349.316,846.757 349.843,846.621 350.475,846.478 351,846.257 351.63,845.925 352.262,845.498 352.892,844.972 353.418,844.426 353.943,843.834 354.575,843.176 355.101,842.54 355.624,841.849 356.152,841.219 356.886,840.597 357.414,840.051 357.938,839.508 358.466,839.129 358.992,838.772 359.622,838.535 360.148,838.365 360.779,838.253 361.2,838.092 361.83,837.796 362.462,837.487 362.882,837.082 363.511,836.602 364.038,836.04 364.564,835.374 365.3,834.713 365.827,834.026 366.353,833.341 366.985,832.706 367.614,832.045 368.141,831.524 368.77,831.011 369.295,830.634 369.823,830.322 370.454,830.111 371.083,829.99 371.717,829.808 372.347,829.515 372.871,829.185 373.399,828.784 374.027,828.262 374.552,827.669 375.186,827.009 375.712,826.379 376.448,825.712 376.869,825.033 377.498,824.422 378.026,823.83 378.549,823.306 379.075,822.816 379.6,822.432 380.129,822.108 380.759,821.897 381.39,821.733 382.02,821.59 382.546,821.387 383.175,821.067 383.7,820.69 384.228,820.281 384.754,819.736 385.279,819.145 385.91,818.512 386.54,817.829 387.066,817.173 387.592,816.539 388.329,815.852 388.752,815.291 389.276,814.802 389.907,814.331 390.537,813.89 391.168,813.645 391.695,813.484 392.326,813.366 392.85,813.183 393.482,812.893 394.008,812.492 394.743,812.059 395.269,811.469 395.796,810.888 396.321,810.281 396.951,809.618 397.476,808.98 398.005,808.394 398.529,807.783 399.055,807.198 399.687,806.675 400.213,806.208 400.738,805.809 401.265,805.505 401.893,805.274 402.421,805.154 402.945,804.997 403.576,804.818 403.996,804.546 404.63,804.192 405.154,803.778 405.679,803.24 406.205,802.7 406.837,802.042 407.36,801.415 407.888,800.783 408.413,800.195 408.94,799.585 409.463,799.002 409.989,798.443 410.621,797.978 411.252,797.51 411.778,797.202 412.305,796.985 412.938,796.865 413.566,796.713 414.199,796.509 414.722,796.188 415.25,795.811 415.88,795.315 416.405,794.733 417.037,794.118 417.563,793.508 418.195,792.879 418.616,792.244 419.246,791.616 419.77,791.01 420.298,790.444 420.824,789.934 421.453,789.443 422.083,789.024 422.715,788.763 423.346,788.602 423.874,788.481 424.397,788.306 424.925,788.076 425.447,787.685 426.079,787.286 426.71,786.696 427.236,786.107 427.869,785.458 428.392,784.822 429.024,784.148 429.55,783.452 430.076,782.864 430.813,782.209 431.338,781.632 431.867,781.186 432.496,780.79 433.02,780.508 433.546,780.364 434.176,780.229 434.701,780.095 435.231,779.852 435.861,779.546 436.384,779.17 436.91,778.655 437.543,778.069 438.173,777.458 438.594,776.835 439.224,776.093 439.854,775.432 440.488,774.807 440.905,774.204 441.537,773.648 442.063,773.134 442.695,772.711 443.324,772.356 443.853,772.129 444.377,772.011 445.007,771.871 445.534,771.678 446.166,771.399 446.795,770.976 447.321,770.48 447.848,769.947 448.373,769.383 449.002,768.67 449.634,768.055 450.163,767.411 450.685,766.767 451.212,766.174 451.843,765.555 452.368,765.017 453,764.528 453.527,764.178 454.157,763.923 454.681,763.756 455.208,763.617 455.839,763.464 456.364,763.213 456.995,762.875 457.523,762.473 458.047,762.025 458.573,761.44 459.097,760.856 459.729,760.205 460.255,759.579 460.779,758.93 461.306,758.305 461.936,757.679 462.569,757.077 463.2,756.504 463.936,756.054 464.464,755.706 464.988,755.497 465.724,755.359 466.144,755.225 466.671,755.004 467.195,754.709 467.827,754.336 468.351,753.863 468.878,753.311 469.613,752.732 470.14,752.082 470.666,751.361 471.297,750.616 471.929,749.965 472.454,749.362 473.084,748.803 473.611,748.313 474.138,747.892 474.661,747.572 475.188,747.336 475.713,747.154 476.239,747.037 476.87,746.861 477.501,746.596 478.134,746.224 478.658,745.805 479.183,745.285 479.813,744.683 480.339,744.129 480.869,743.456 481.497,742.769 482.023,742.143 482.655,741.472 483.18,740.894 483.704,740.301 484.442,739.829 484.861,739.442 485.387,739.132 486.018,738.925 486.547,738.804 487.07,738.674 487.702,738.472 488.229,738.18 488.752,737.784 489.385,737.3 489.908,736.779 490.541,736.153 491.065,735.596 491.592,734.923 492.117,734.278 492.748,733.655 493.378,732.961 493.906,732.359 494.432,731.836 494.957,731.421 495.482,731.05 496.114,730.793 496.64,730.586 497.165,730.486 497.691,730.353 498.321,730.113 498.954,729.75 499.478,729.355 500.004,728.892 500.636,728.262 501.265,727.663 501.687,727.107 502.213,726.483 502.843,725.742 503.58,725.054 504.001,724.472 504.63,723.844 505.155,723.343 505.788,722.946 506.421,722.599 506.839,722.37 507.47,722.232 507.997,722.117 508.522,721.942 509.151,721.675 509.784,721.245 510.309,720.773 510.94,720.236 511.465,719.612 511.992,719.01 512.623,718.343 513.254,717.607 513.885,716.916 514.409,716.366 514.936,715.763 515.462,715.258 515.989,714.844 516.513,714.475 517.039,714.202 517.564,714.013 518.196,713.896 518.722,713.784 519.353,713.562 519.985,713.183 520.405,712.808 521.035,712.29 521.666,711.737 522.297,711.06 522.824,710.421 523.455,709.754 523.98,709.092 524.61,708.397 525.135,707.755 525.767,707.226 526.291,706.747 526.923,706.267 527.556,705.938 528.079,705.734 528.606,705.614 529.132,705.501 529.657,705.303 530.29,704.993 530.816,704.629 531.34,704.186 531.971,703.697 532.498,703.072 533.022,702.472 533.654,701.757 534.18,701.159 534.707,700.537 535.336,699.871 535.863,699.295 536.386,698.74 537.124,698.216 537.651,697.865 538.176,697.591 538.806,697.411 539.334,697.316 539.752,697.163 540.385,696.944 540.91,696.605 541.54,696.166 542.172,695.68 542.698,695.147 543.33,694.442 543.854,693.979 544.382,693.294 544.8,692.654 545.326,692.077 545.956,691.481 546.588,690.835 547.114,690.328 547.638,689.866 548.271,689.505 548.796,689.249 549.322,689.087 550.058,688.968 550.478,688.817 551.006,688.594 551.53,688.275 552.057,687.861 552.687,687.332 553.213,686.816 553.843,686.147 554.477,685.478 555.003,684.819 555.63,684.153 556.156,683.489 556.789,682.897 557.314,682.353 557.84,681.844 558.365,681.433 558.892,681.137 559.525,680.906 560.049,680.744 560.68,680.628 561.207,680.431 561.73,680.187 562.257,679.804 562.782,679.385 563.307,678.877 563.941,678.26 564.463,677.679 565.096,676.997 565.622,676.309 566.255,675.705 566.778,675.086 567.306,674.543 567.83,673.97 568.355,673.511 568.987,673.098 569.514,672.797 570.143,672.567 570.668,672.448 571.301,672.296 571.824,672.099 572.457,671.764 573.086,671.301 573.719,670.815 574.348,670.181 574.875,669.538 575.507,668.856 576.137,668.126 576.662,667.553 577.188,666.889 577.712,666.293 578.346,665.718 578.871,665.22 579.398,664.825 580.028,664.482 580.554,664.292 581.184,664.154 581.709,664.039 582.237,663.846 582.764,663.579 583.393,663.194 583.92,662.773 584.445,662.263 584.97,661.645 585.706,660.892 586.337,660.228 586.968,659.494 587.598,658.818 588.124,658.156 588.756,657.536 589.281,657.037 589.912,656.621 590.334,656.296 590.857,656.064 591.49,655.922 592.12,655.79 592.646,655.615 593.172,655.35 593.805,654.97 594.436,654.505 594.959,654.016 595.59,653.352 596.011,652.799 596.643,652.134 597.167,651.434 597.799,650.795 598.324,650.219 598.956,649.611 599.376,649.082 600.004,648.583 600.532,648.154 601.164,647.877 601.687,647.665 602.217,647.573 602.848,647.441 603.371,647.223 603.899,646.935 604.424,646.552 605.054,646.086 605.684,645.537 606.107,644.964 606.737,644.367 607.367,643.655 607.894,642.997 608.526,642.329 609.05,641.716 609.577,641.146 610.101,640.621 610.626,640.186 611.151,639.822 611.783,639.523 612.415,639.344 612.941,639.226 613.466,639.092 613.992,638.834 614.625,638.519 615.149,638.086 615.885,637.578 616.411,636.937 616.939,636.341 617.568,635.727 618.199,634.983 618.726,634.316 619.356,633.639 619.883,633.064 620.408,632.492 621.039,632.031 621.564,631.641 622.3,631.278 622.721,631.092 623.244,630.998 623.877,630.867 624.297,630.669 624.93,630.341 625.455,629.956 626.086,629.491 626.716,628.96 627.242,628.343 627.768,627.728 628.292,627.091 628.82,626.473 629.451,625.81 629.977,625.198 630.607,624.61 631.133,624.133 631.552,623.679 632.185,623.244 632.814,622.949 633.342,622.765 633.869,622.649 634.393,622.536 635.023,622.321 635.55,621.992 636.075,621.629 636.81,621.097 637.233,620.588 637.757,619.934 638.389,619.363 638.915,618.717 639.441,618.059 639.965,617.443 640.595,616.785 641.334,616.145 641.753,615.647 642.488,615.167 643.017,614.799 643.542,614.55 644.172,614.412 644.698,614.299 645.432,614.102 645.853,613.82 646.379,613.48 647.011,612.998 647.537,612.511 648.169,611.987 648.588,611.329 649.112,610.806 649.641,610.105 650.27,609.488 650.798,608.827 651.323,608.217 651.953,607.65 652.583,607.123 653.11,606.737 653.636,606.436 654.266,606.21 654.899,606.073 655.423,605.96 655.95,605.742 656.474,605.432 657.107,605.048 657.739,604.564 658.264,604.033 658.79,603.463 659.316,602.849 659.841,602.216 660.577,601.503 660.995,600.871 661.627,600.261 662.154,599.694 662.678,599.145 663.312,598.712 663.838,598.344 664.364,598.031 664.994,597.868 665.52,597.775 666.046,597.624 666.571,597.386 667.203,597.026 667.833,596.592 668.358,596.11 668.99,595.562 669.409,594.969 670.04,594.399 670.46,593.762 671.092,593.126 671.619,592.47 672.249,591.814 672.775,591.221 673.406,590.746 673.932,590.293 674.457,589.952 675.09,589.697 675.614,589.537 676.139,589.441 676.772,589.249 677.401,588.965 677.927,588.629 678.452,588.213 678.981,587.737 679.502,587.14 680.134,586.457 680.767,585.774 681.29,585.095 681.923,584.413 682.45,583.783 683.185,583.144 683.712,582.625 684.236,582.169 684.762,581.76 685.391,581.487 685.92,581.301 686.445,581.184 687.183,581.031 687.813,580.747 688.338,580.39 689.075,579.911 689.496,579.434 690.123,578.812 690.653,578.202 691.283,577.491 691.807,576.898 692.439,576.134 693.071,575.45 693.593,574.838 694.225,574.287 694.855,573.791 695.384,573.428 696.016,573.135 696.643,572.996 697.171,572.859 697.696,572.726 698.326,572.445 698.853,572.112 699.379,571.676 700.01,571.194 700.429,570.644 701.062,569.989 701.691,569.487 702.112,568.868 702.638,568.172 703.268,567.494 703.899,566.923 704.427,566.313 705.164,565.745 705.689,565.246 706.211,564.946 706.843,564.743 707.476,564.624 708.002,564.471 708.632,564.257 709.161,563.95 709.683,563.585 710.209,563.108 710.734,562.6 711.259,562.011 711.892,561.415 712.419,560.78 712.945,560.116 713.469,559.509 714.1,558.851 714.629,558.304 715.154,557.764 715.783,557.266 716.31,556.923 716.835,556.648 717.363,556.445 717.993,556.306 718.516,556.175 719.045,555.982 719.673,555.649 720.304,555.22 720.936,554.671 721.46,554.207 722.091,553.554 722.617,552.936 723.038,552.301 723.672,551.552 724.301,550.941 724.825,550.332 725.353,549.767 725.879,549.271 726.403,548.84 727.038,548.515 727.667,548.222 728.193,548.083 728.716,547.99 729.244,547.796 729.873,547.556 730.4,547.223 730.925,546.832 731.453,546.393 731.978,545.827 732.503,545.213 733.135,544.602 733.66,543.988 734.187,543.353 734.818,542.674 735.344,542.016 735.973,541.448 736.499,540.906 737.131,540.45 737.76,540.129 738.287,539.902 738.918,539.746 739.44,539.613 739.97,539.436 740.494,539.176 741.021,538.817 741.651,538.356 742.282,537.761 742.807,537.179 743.334,536.631 743.966,535.906 744.491,535.272 745.121,534.591 745.751,533.935 746.28,533.298 746.909,532.753 747.437,532.327 747.962,531.959 748.484,531.704 749.01,531.524 749.641,531.388 750.273,531.235 750.801,530.974 751.432,530.618 752.062,530.164 752.694,529.682 753.114,529.131 753.744,528.539 754.27,527.858 754.795,527.223 755.426,526.496 756.058,525.839 756.691,525.163 757.216,524.598 757.845,524.144 758.372,523.758 759.001,523.419 759.528,523.24 760.157,523.121 760.684,522.97 761.211,522.751 761.737,522.441 762.26,522.056 762.891,521.578 763.418,521.036 763.944,520.488 764.574,519.877 765.101,519.15 765.733,518.465 766.363,517.784 766.888,517.126 767.414,516.581 768.045,516.053 768.677,515.601 769.201,515.262 769.726,515.036 770.359,514.897 770.779,514.787 771.412,514.59 772.041,514.304 772.672,513.919 773.302,513.465 773.723,512.943 774.353,512.403 774.88,511.702 775.616,510.975 776.038,510.357 776.668,509.726 777.298,509.071 777.823,508.486 778.349,507.955 778.981,507.46 779.508,507.115 780.033,506.843 780.559,506.642 781.191,506.544 781.715,506.393 782.241,506.173 782.871,505.823 783.398,505.418 784.029,504.884 784.661,504.293 785.185,503.655 785.711,503.09 786.344,502.427 786.867,501.775 787.394,501.164 787.92,500.605 788.551,499.95 789.075,499.515 789.601,499.087 790.127,498.724 790.759,498.475 791.178,498.333 791.812,498.24 792.337,498.046 792.966,497.8 793.493,497.427 794.123,496.995 794.651,496.488 795.174,495.916 795.701,495.325 796.439,494.643 796.858,494.005 797.382,493.396 798.016,492.692 798.54,492.104 799.173,491.579 799.697,491.04 800.329,490.646 800.852,490.33 801.485,490.125 802.012,489.988 802.534,489.838 803.166,489.645 803.694,489.378 804.218,488.973 804.858,488.535 805.375,488.031 805.901,487.416 806.534,486.741 807.061,486.155 807.689,485.491 808.213,484.856 808.742,484.262 809.264,483.673 809.792,483.131 810.425,482.656 810.95,482.271 811.58,481.975 812.105,481.769 812.631,481.656 813.263,481.505 813.892,481.265 814.417,480.953 814.944,480.544 815.471,480.083 816.102,479.49 816.627,478.852 817.257,478.194 817.889,477.473 818.523,476.795 819.044,476.183 819.572,475.595 820.201,475.01 820.727,474.554 821.254,474.102 821.779,473.803 822.305,473.571 822.937,473.434 823.462,473.319 824.094,473.128 824.513,472.844 825.144,472.482 825.671,472.05 826.302,471.562 826.829,470.946 827.353,470.334 827.986,469.656 828.511,469.02 829.14,468.385 829.772,467.709 830.298,467.069 830.928,466.546 831.454,466.047 831.979,465.663 832.502,465.369 833.241,465.19 833.661,465.074 834.187,464.941 834.818,464.724 835.449,464.417 835.974,463.944 836.607,463.431 837.131,462.867 837.762,462.228 838.393,461.524 838.919,460.842 839.549,460.113 840.182,459.519 840.706,458.869 841.34,458.301 841.865,457.845 842.389,457.434 843.02,457.14 843.547,456.931 844.179,456.798 844.704,456.644 845.231,456.43 845.858,456.094 846.384,455.69 847.015,455.229 847.541,454.724 848.174,454.038 848.7,453.408 849.226,452.793 849.856,452.111 850.488,451.385 851.12,450.75 851.749,450.135 852.277,449.591 852.798,449.2 853.431,448.883 853.957,448.674 854.482,448.538 855.113,448.407 855.641,448.234 856.163,447.927 856.797,447.55 857.323,447.135 857.847,446.626 858.478,445.965 859.004,445.396 859.529,444.798 859.951,444.301 860.583,443.598 861.108,442.94 861.738,442.37 862.263,441.785 862.896,441.286 863.422,440.853 864.052,440.556 864.472,440.353 865.206,440.214 865.734,440.06 866.258,439.846 866.892,439.556 867.417,439.216 867.944,438.78 868.469,438.254 869.101,437.636 869.626,436.957 870.255,436.274 870.888,435.545 871.517,434.886 872.045,434.183 872.673,433.614 873.2,433.093 873.725,432.684 874.251,432.361 874.882,432.112 875.513,431.972 876.037,431.859 876.566,431.688 877.199,431.402 877.721,431.018 878.247,430.628 878.878,430.077 879.403,429.464 880.139,428.78 880.563,428.167 881.192,427.484 881.822,426.804 882.454,426.162 882.98,425.571 883.504,425.048 884.034,424.612 884.662,424.162 885.191,423.891 885.714,423.708 886.24,423.593 886.871,423.462 887.396,423.264 887.923,422.953 888.448,422.549 889.079,422.088 889.603,421.532 890.13,420.943 890.656,420.33 891.29,419.649 891.813,419.012 892.446,418.354 892.969,417.744 893.494,417.154 894.022,416.698 894.653,416.201 895.284,415.786 895.913,415.531 896.544,415.37 897.069,415.273 897.596,415.083 898.122,414.818 898.754,414.501 899.279,414.017 899.91,413.511 900.541,412.876 900.961,412.3 901.593,411.665 902.118,411.075 902.643,410.437 903.274,409.825 903.799,409.187 904.327,408.596 904.852,408.14 905.378,407.711 906.01,407.389 906.64,407.178 907.059,407.065 907.692,406.933 908.322,406.717 908.848,406.388 909.375,406.04 910.003,405.56 910.53,405.028 911.16,404.392 911.685,403.816 912.319,403.067 912.95,402.451 913.368,401.816 914.001,401.178 914.631,400.533 915.158,399.988 915.788,399.514 916.526,399.171 917.05,398.916 917.576,398.78 918.103,398.667 918.732,398.495 919.258,398.23 919.784,397.849 920.31,397.44 920.838,396.953 921.466,396.337 922.099,395.651 922.624,395.016 923.254,394.33 923.886,393.666 924.413,392.987 924.935,392.462 925.463,391.936 925.988,391.43 926.619,391.019 927.144,390.742 927.672,390.558 928.301,390.444 928.826,390.332 929.353,390.093 929.983,389.804 930.508,389.377 931.035,388.957 931.562,388.427 932.085,387.873 932.717,387.26 933.245,386.637 933.768,386 934.4,385.317 934.927,384.75 935.452,384.186 936.083,383.614 936.61,383.112 937.134,382.746 937.766,382.446 938.4,382.243 938.817,382.125 939.451,382.011 939.974,381.752 940.5,381.443 941.133,381.01 941.763,380.521 942.286,379.942 942.917,379.331 943.444,378.714 943.97,378.073 944.496,377.434 945.021,376.818 945.654,376.159 946.179,375.627 946.701,375.101 947.334,374.646 947.86,374.32 948.493,374.052 949.122,373.911 949.649,373.781 950.173,373.606 950.806,373.336 951.332,372.976 951.858,372.581 952.383,372.075 953.016,371.504 953.54,370.909 954.065,370.288 954.594,369.712 955.117,369.055 955.643,368.437 956.17,367.909 956.799,367.295 957.324,366.765 957.957,366.31 958.481,365.97 959.112,365.76 959.531,365.62 960.058,365.51 960.689,365.335 961.213,365.071 961.847,364.688 962.478,364.206 963.003,363.672 963.528,363.071 964.161,362.455 964.685,361.792 965.212,361.264 965.736,360.628 966.367,359.967 966.895,359.437 967.418,358.906 967.945,358.405 968.471,357.976 968.997,357.671 969.63,357.44 970.151,357.302 970.679,357.17 971.203,357.016 971.835,356.725 972.361,356.364 972.888,355.945 973.519,355.346 974.148,354.771 974.779,354.083 975.306,353.347 975.938,352.713 976.568,352.001 977.197,351.293 977.725,350.727 978.354,350.195 978.985,349.719 979.512,349.372 980.036,349.141 980.669,349.003 981.196,348.886 981.828,348.71 982.457,348.423 982.877,348.059 983.403,347.662 984.036,347.09 984.667,346.487 985.294,345.862 985.716,345.221 986.452,344.487 987.085,343.802 987.503,343.232 988.029,342.648 988.66,342.081 989.29,341.598 989.816,341.208 990.343,340.936 990.973,340.752 991.501,340.66 992.025,340.505 992.658,340.261 993.181,339.883 993.814,339.443 994.338,338.991 994.972,338.375 995.495,337.766 996.125,337.162 996.655,336.478 997.285,335.761 997.81,335.128 998.335,334.547 999.071,333.949 999.597,333.422 1000.23,333.028 1000.75,332.705 1001.28,332.521 1001.81,332.404 1002.33,332.272 1002.86,332.095 1003.49,331.824 1004.01,331.391 1004.64,330.953 1005.27,330.353 1005.8,329.775 1006.43,329.111 1006.96,328.44 1007.59,327.803 1008.11,327.115 1008.75,326.488 1009.16,325.918 1009.8,325.435 1010.22,324.999 1010.85,324.631 1011.38,324.354 1012.01,324.167 1012.64,324.049 1013.27,323.848 1013.8,323.585 1014.42,323.238 1015.06,322.801 1015.58,322.266 1016.11,321.66 1016.74,321.045 1017.27,320.441 1017.68,319.847 1018.31,319.203 1018.95,318.49 1019.47,317.915 1020.1,317.342 1020.63,316.835 1021.16,316.463 1021.79,316.162 1022.31,315.931 1022.84,315.815 1023.47,315.681 1023.89,315.506 1024.52,315.195 1025.15,314.762 1025.68,314.291 1026.3,313.732 1026.83,313.177 1027.36,312.575 1027.89,311.95 1028.52,311.277 1029.04,310.631 1029.57,310.033 1030.2,309.394 1030.83,308.819 1031.35,308.378 1031.98,307.988 1032.51,307.735 1033.14,307.553 1033.77,307.421 1034.4,307.242 1034.93,306.949 1035.56,306.561 1036.08,306.12 1036.61,305.607 1037.24,305.004 1037.77,304.401 1038.4,303.753 1038.92,303.089 1039.45,302.466 1040.08,301.768 1040.61,301.209 1041.24,300.636 1041.76,300.175 1042.29,299.788 1042.92,299.48 1043.44,299.298 1044.08,299.181 1044.6,299.031 1045.13,298.829 1045.76,298.469 1046.29,298.071 1046.92,297.607 1047.55,296.966 1047.97,296.416 1048.6,295.775 1049.13,295.153 1049.65,294.529 1050.18,293.887 1050.91,293.197 1051.33,292.641 1051.96,292.153 1052.49,291.74 1053.02,291.399 1053.54,291.141 1054.07,290.974 1054.8,290.86 1055.33,290.678 1055.96,290.431 1056.49,290.042 1057.01,289.623 1057.64,289.084 1058.17,288.458 1058.69,287.857 1059.32,287.25 1059.85,286.553 1060.48,285.883 1061.11,285.191 1061.64,284.633 1062.27,284.103 1062.69,283.67 1063.43,283.185 1063.95,282.928 1064.48,282.739 1065.11,282.621 1065.63,282.466 1066.26,282.18 1066.89,281.834 1067.42,281.455 1067.95,280.92 1068.58,280.345 1069.1,279.724 1069.74,279.07 1070.26,278.425 1070.68,277.892 1071.31,277.199 1071.84,276.596 1072.36,276.059 1073,275.528 1073.63,275.063 1074.15,274.733 1074.78,274.521 1075.31,274.359 1075.94,274.242 1076.47,274.025 1077.2,273.703 1077.62,273.334 1078.25,272.847 1078.78,272.326 1079.31,271.766 1079.94,271.141 1080.46,270.469 1081.09,269.778 1081.62,269.176 1082.25,268.523 1082.88,267.874 1083.41,267.346 1084.04,266.879 1084.56,266.506 1085.09,266.247 1085.72,266.105 1086.24,265.968 1086.77,265.833 1087.4,265.563 1087.93,265.221 1088.45,264.843 1088.98,264.355 1089.51,263.811 1090.14,263.134 1090.66,262.511 1091.29,261.864 1091.82,261.237 1092.45,260.628 1092.97,260.023 1093.39,259.489 1094.03,258.962 1094.55,258.543 1095.08,258.235 1095.6,257.983 1096.23,257.813 1096.87,257.681 1097.29,257.539 1097.92,257.276 1098.44,256.953 1098.97,256.555 1099.49,256.104 1100.13,255.545 1100.65,254.941 1101.18,254.289 1101.7,253.634 1102.23,253.003 1102.86,252.376 1103.49,251.726 1104.02,251.122 1104.54,250.65 1105.07,250.213 1105.7,249.863 1106.33,249.622 1106.85,249.483 1107.38,249.373 1107.91,249.192 1108.54,248.925 1109.06,248.57 1109.59,248.104 1110.22,247.61 1110.75,247.071 1111.27,246.418 1111.9,245.771 1112.54,245.146 1113.06,244.454 1113.58,243.813 1114.22,243.201 1114.74,242.665 1115.27,242.154 1115.79,241.799 1116.32,241.513 1116.95,241.301 1117.48,241.166 1118.21,241.006 1118.74,240.747 1119.37,240.42 1120,239.991 1120.63,239.424 1121.26,238.811 1121.79,238.11 1122.42,237.431 1123.05,236.685 1123.68,236.025 1124.21,235.352 1124.84,234.746 1125.36,234.206 1126.1,233.725 1126.62,233.37 1127.04,233.114 1127.68,232.951 1128.2,232.81 1128.73,232.678 1129.25,232.468 1129.99,232.101 1130.51,231.678 1131.04,231.182 1131.67,230.612 1132.2,229.976 1132.72,229.348 1133.46,228.695 1133.88,228.083 1134.41,227.464 1135.04,226.847 1135.46,226.287 1136.09,225.797 1136.61,225.346 1137.14,225.021 1137.77,224.762 1138.3,224.622 1138.93,224.483 1139.45,224.325 1140.08,224.035 1140.61,223.704 1141.24,223.25 1141.77,222.706 1142.29,222.122 1142.82,221.529 1143.45,220.925 1144.08,220.157 1144.71,219.445 1145.34,218.729 1145.87,218.115 1146.39,217.619 1147.03,217.104 1147.55,216.796 1148.08,216.517 1148.71,216.347 1149.23,216.231 1149.86,216.078 1150.49,215.822 1151.02,215.452 1151.65,215.002 1152.18,214.507 1152.7,213.96 1153.33,213.26 1153.96,212.598 1154.49,211.976 1155.12,211.235 1155.65,210.585 1156.28,209.995 1156.81,209.474 1157.44,208.982 1157.96,208.584 1158.49,208.279 1159.12,208.09 1159.64,207.957 1160.17,207.836 1160.8,207.611 1161.43,207.284 1161.96,206.853 1162.48,206.423 1163.11,205.843 1163.64,205.255 1164.17,204.647 1164.69,204.03 1165.22,203.37 1165.85,202.756 1166.37,202.144 1166.9,201.623 1167.43,201.105 1167.95,200.639 1168.48,200.265 1169.11,199.954 1169.64,199.789 1170.16,199.664 1170.79,199.529 1171.52,199.285 1172.05,198.889 1172.58,198.502 1173.1,197.984 1173.73,197.422 1174.26,196.78 1174.78,196.212 1175.42,195.464 1175.84,195.011 1176.47,194.28 1177,193.686 1177.63,193.118 1178.15,192.63 1178.78,192.157 1179.31,191.828 1179.84,191.588 1180.36,191.463 1180.89,191.351 1181.41,191.21 1181.94,190.962 1182.46,190.639 1183.09,190.215 1183.62,189.754 1184.15,189.186 1184.78,188.546 1185.3,187.88 1185.93,187.173 1186.46,186.543 1187.09,185.927 1187.72,185.335 1188.14,184.792 1188.88,184.226 1189.3,183.822 1189.82,183.51 1190.46,183.273 1190.98,183.131 1191.61,182.973 1192.24,182.788 1192.66,182.531 1193.29,182.109 1193.92,181.653 1194.45,181.128 1194.97,180.578 1195.61,179.866 1196.24,179.229 1196.76,178.539 1197.39,177.809 1197.92,177.219 1198.45,176.733 1198.97,176.182 1199.6,175.682 1200.23,175.282 1200.76,175.061 1201.49,174.869 1202.02,174.731 1202.55,174.568 1203.18,174.247 1203.81,173.869 1204.33,173.438 1204.86,172.914 1205.49,172.316 1206.02,171.672 1206.65,171.006 1207.17,170.348 1207.81,169.723 1208.33,169.062 1208.96,168.385 1209.49,167.853 1210.12,167.405 1210.65,167.039 1211.28,166.759 1211.8,166.571 1212.43,166.474 1212.96,166.313 1213.59,166.036 1214.11,165.659 1214.64,165.273 1215.27,164.766 1215.8,164.215 1216.43,163.576 1216.95,162.962 1217.48,162.319 1218,161.68 1218.63,161.012 1219.16,160.373 1219.79,159.847 1220.32,159.371 1220.95,158.894 1221.47,158.543 1222.11,158.366 1222.63,158.247 1223.26,158.089 1223.79,157.903 1224.31,157.622 1224.84,157.248 1225.47,156.782 1225.99,156.257 1226.52,155.672 1227.26,155.046 1227.68,154.407 1228.31,153.667 1228.83,153.136 1229.36,152.518 1229.78,151.945 1230.41,151.374 1231.04,150.918 1231.57,150.535 1232.1,150.267 1232.62,150.033 1233.15,149.934 1233.78,149.797 1234.3,149.587 1234.93,149.266 1235.46,148.879 1236.09,148.444 1236.62,147.887 1237.25,147.262 1237.77,146.594 1238.41,145.87 1239.04,145.133 1239.56,144.466 1240.19,143.868 1240.82,143.263 1241.35,142.767 1241.98,142.276 1242.51,141.985 1243.14,141.772 1243.66,141.649 1244.19,141.532 1244.82,141.306 1245.35,141.046 1245.87,140.691 1246.5,140.224 1246.92,139.72 1247.55,139.146 1248.08,138.487 1248.71,137.812 1249.24,137.14 1249.87,136.508 1250.39,135.892 1251.03,135.227 1251.76,134.647 1252.18,134.182 1252.81,133.797 1253.34,133.538 1253.86,133.411 1254.49,133.292 1255.12,133.129 1255.55,132.901 1256.18,132.571 1256.6,132.177 1257.23,131.694 1257.75,131.13 1258.28,130.536 1258.91,129.881 1259.54,129.236 1260.07,128.597 1260.59,127.94 1261.22,127.315 1261.75,126.774 1262.49,126.176 1262.91,125.771 1263.43,125.453 1264.06,125.214 1264.59,125.087 1265.22,124.971 1265.75,124.765 1266.38,124.435 1266.9,124.057 1267.64,123.514 1268.16,122.986 1268.69,122.41 1269.32,121.74 1269.85,121.115 1270.37,120.485 1271,119.881 1271.42,119.252 1271.95,118.68 1272.58,118.167 1273.11,117.716 1273.63,117.348 1274.16,117.06 1274.68,116.867 1275.31,116.747 1275.84,116.592 1276.36,116.398 1277,116.067 1277.52,115.682 1278.15,115.192 1278.68,114.682 1279.31,113.983 1279.94,113.38 1280.57,112.653 1281.2,111.959 1281.52,111.427 1282.15,110.793 1282.89,110.196 1283.31,109.686 1283.94,109.273 1284.36,108.888 1285.09,108.623 1285.62,108.479 1286.14,108.362 1286.78,108.171 1287.41,107.87 1287.93,107.434 1288.56,106.994 1289.09,106.463 1289.62,105.905 1290.25,105.25 1290.77,104.617 1291.3,103.94 1291.93,103.334 1292.46,102.71 1292.98,102.127 1293.51,101.62 1294.14,101.142 1294.66,100.775 1295.19,100.5 1295.72,100.302 1296.24,100.165 1296.87,100.025 1297.5,99.8147 1298.03,99.4808 1298.66,99.0691 1299.29,98.5453 1299.82,97.993 1300.34,97.4087 1300.87,96.8005 1301.39,96.1498 1302.02,95.5141 1302.66,94.8395 1303.07,94.2361 1303.71,93.6274 1304.34,93.1389 1304.86,92.6591 1305.39,92.3217 1305.91,92.0924 1306.44,91.9301 1306.96,91.8331 1307.7,91.6432 1308.23,91.402 1308.86,91.0033 1309.28,90.5855 1309.91,90.0677 1310.65,89.4132 1311.07,88.8108 1311.7,88.1996 1312.22,87.5134 1312.75,86.8653 1313.38,86.2246 1313.91,85.6405 1314.54,85.0785 1315.17,84.543 1315.69,84.1744 1316.22,83.8894 1316.75,83.6905 1317.48,83.5702 1317.9,83.4275 1318.43,83.2166 1319.06,82.9052 1319.58,82.5343 1320.22,82.0465 1320.85,81.4569 1321.37,80.8671 1321.9,80.2343 1322.53,79.505 1323.06,78.8719 1323.58,78.2599 1324.21,77.6487 1324.74,77.0452 1325.26,76.5379 1325.89,76.0516 1326.42,75.75 1326.95,75.5034 1327.47,75.3554 1328.1,75.216 1328.63,75.0766 1329.15,74.8621 1329.68,74.5461 1330.21,74.1546 1330.84,73.6749 1331.47,73.101 1331.89,72.5594 1332.41,71.9004 1332.94,71.2654 1333.57,70.6281 1334.1,70.0089 1334.62,69.3994 1335.25,68.8406 1335.67,68.327 1336.31,67.8602 1336.94,67.4516 1337.57,67.1748 1338.09,67.0302 1338.62,66.9315 1339.25,66.74 1339.88,66.5027 1340.3,66.1683 1340.93,65.7249 1341.56,65.1582 1342.09,64.6136 1342.61,63.939 1343.24,63.3169 1343.77,62.7079 1344.3,62.0202 1345.03,61.3301 1345.56,60.7375 1346.19,60.1592 1346.82,59.5984 1347.35,59.2016 1347.98,58.9472 1348.5,58.7731 1349.13,58.6334 1349.66,58.4695 1350.19,58.2518 1350.82,57.8616 1351.34,57.4505 1351.87,56.992 1352.5,56.3822 1353.13,55.7692 1353.65,55.1755 1354.29,54.4081 1354.81,53.7993 1355.34,53.1859 1355.97,52.5491 1356.49,51.9111 1357.13,51.4001 1357.76,50.9828 1358.39,50.6835 1358.91,50.4848 1359.54,50.3818 1360.18,50.2197 1360.7,49.9819 1361.23,49.6608 1361.75,49.2648 1362.38,48.7679 1363.01,48.1464 1363.54,47.5395 1364.17,46.9381 1364.8,46.1782 1365.22,45.602 1365.75,44.9188 1366.48,44.3262 1366.9,43.755 1367.64,43.1616 1368.27,42.7143 1368.9,42.3978 1369.43,42.1931 1369.95,42.0989 1370.48,41.9589 1371.11,41.7389 1371.64,41.4098 1372.27,41.0149 1372.79,40.5504 1373.32,40.0105 1373.85,39.4395 1374.48,38.7736 1375,38.1522 1375.63,37.4533 1376.26,36.8259 1376.68,36.182 1377.32,35.5718 1377.84,35.0736 1378.47,34.6333 1379,34.3029 1379.53,34.0539 1380.05,33.8851 1380.58,33.7756 1381.21,33.6388 1381.73,33.3982 1382.36,33.0074 1382.89,32.6463 1383.41,32.1735 1383.94,31.5818 1384.57,30.9707 1385.1,30.358 1385.73,29.6466 1386.26,29.0021 1386.78,28.4333 1387.31,27.8097 1387.94,27.1958 1388.46,26.717 1388.99,26.2995 1389.51,25.9579 1390.14,25.7374 1390.67,25.6667 1391.3,25.849 1391.83,26.4037 1392.35,26.8702 1392.88,27.4036 1393.51,28.4283 1393.93,29.5543 1394.56,31.4212 1395.19,33.5806 1395.72,36.3701 1396.24,39.4314 1396.87,43.0412 1397.51,47.1407 1397.93,52.3457 1398.56,58.4047 1399.09,64.1962 1399.61,71.2668 1400.14,79.2371 1400.66,88.0008 1401.19,96.8736 1401.82,108.193 1402.34,120.544 1402.97,132.963 1403.5,146.236 1404.02,160.274 1404.55,175.275 1405.08,190.874 1405.71,207.224 1406.23,224.15 1406.76,242.919 1407.39,260.777 1408.02,280.359 1408.55,300.118 1409.07,318.407 1409.6,336.722 1410.23,356.14 1410.75,373.807 1411.28,390.953 1411.81,407.447 1412.44,424.326 1412.96,439.045 1413.49,451.807 1414.23,465.381 1414.65,476.681 1415.17,486.593 1415.7,495.006 1416.22,501.807 1416.85,506.952 1417.38,510.485 1418.01,512.212 1418.54,512.787 1419.17,512.966 1419.69,512.996 1420.22,512.996 1420.75,512.996 1421.27,512.993 1421.9,513.021 1422.43,512.993 1422.95,512.993 1423.48,512.993 1424,512.989 1424.53,512.989 1425.06,512.989 1425.58,512.989 1426.11,512.989 1426.64,512.989 1427.27,512.991 1427.79,512.991 1428.42,512.987 1428.95,512.987 1429.47,512.987 1430,512.987 " />
</g>

<g fill="none" stroke="#000000" stroke-opacity="1" stroke-width="1" stroke-linecap="square" stroke-linejoin="bevel" transform="matrix(0.833333,0,0,0.833333,0,0)"
font-family="Ubuntu" font-size="12.2222" font-weight="400" font-style="normal" 
>
</g>

<g fill="none" stroke="#000000" stroke-opacity="1" stroke-width="1" stroke-linecap="square" stroke-linejoin="bevel" transform="matrix(0.833333,0,0,0.833333,0,0)"
font-family="Ubuntu" font-size="12.2222" font-weight="400" font-style="normal" 
>
</g>

<g fill="none" stroke="#000000" stroke-opacity="1" stroke-width="1" stroke-linecap="square" stroke-linejoin="bevel" transform="matrix(0.833333,0,0,0.833333,0,0)"
font-family="Ubuntu" font-size="12.2222" font-weight="400" font-style="normal" 
>
</g>

<g fill="none" stroke="#111111" stroke-opacity="1" stroke-width="1" stroke-linecap="square" stroke-linejoin="bevel" transform="matrix(0.833333,0,0,0.833333,0,0)"
font-family="Ubuntu" font-size="12.2222" font-weight="400" font-style="normal" 
>
<rect x="1181" y="10" width="242" height="23"/>
</g>

<g fill="none" stroke="#000000" stroke-opacity="1" stroke-width="1" stroke-linecap="square" stroke-linejoin="bevel" transform="matrix(0.833333,0,0,0.833333,0,0)"
font-family="Ubuntu" font-size="12.2222" font-weight="400" font-style="normal" 
>
</g>

<g fill="none" stroke="#000000" stroke-opacity="1" stroke-width="1" stroke-linecap="square" stroke-linejoin="bevel" transform="matrix(0.833333,0,0,0.833333,0,0)"
font-family="Ubuntu" font-size="12.2222" font-weight="400" font-style="normal" 
>
</g>

<g fill="none" stroke="#000000" stroke-opacity="1" stroke-width="1" stroke-linecap="square" stroke-linejoin="bevel" transform="matrix(0.833333,0,0,0.833333,987.5,14.1667)"
font-family="Ubuntu" font-size="12.2222" font-weight="400" font-style="normal" 
>
</g>

<g fill="#1f77b4" fill-opacity="1" stroke="none" transform="matrix(0.833333,0,0,0.833333,0,0)"
font-family="Ubuntu" font-size="12.2222" font-weight="400" font-style="normal" 
>
<path vector-effect="none" fill-rule="evenodd" d="M1185,17 L1193,17 L1193,25 L1185,25 L1185,17"/>
</g>

<g fill="none" stroke="#000000" stroke-opacity="1" stroke-width="1" stroke-linecap="square" stroke-linejoin="bevel" transform="matrix(0.833333,0,0,0.833333,987.5,14.1667)"
font-family="Ubuntu" font-size="12.2222" font-weight="400" font-style="normal" 
>
</g>

<g fill="none" stroke="#111111" stroke-opacity="1" stroke-width="1" stroke-linecap="square" stroke-linejoin="bevel" transform="matrix(0.833333,0,0,0.833333,0,0)"
font-family="Ubuntu" font-size="10" font-weight="400" font-style="normal" 
>
</g>

<g fill="none" stroke="#111111" stroke-opacity="1" stroke-width="1" stroke-linecap="square" stroke-linejoin="bevel" transform="matrix(0.833333,0,0,0.833333,0,0)"
font-family="Ubuntu" font-size="12" font-weight="400" font-style="normal" 
>
<text fill="#111111" fill-opacity="1" stroke="none" xml:space="preserve" x="1194" y="26" font-family="Ubuntu" font-size="12" font-weight="400" font-style="normal" 
 >/world_to_torch/transform/translation/y</text>
</g>

<g fill="none" stroke="#111111" stroke-opacity="1" stroke-width="1" stroke-linecap="square" stroke-linejoin="bevel" transform="matrix(0.833333,0,0,0.833333,0,0)"
font-family="Ubuntu" font-size="10" font-weight="400" font-style="normal" 
>
</g>

<g fill="none" stroke="#111111" stroke-opacity="1" stroke-width="1" stroke-linecap="square" stroke-linejoin="bevel" transform="matrix(0.833333,0,0,0.833333,0,0)"
font-family="Ubuntu" font-size="10" font-weight="400" font-style="normal" 
>
</g>

<g fill="none" stroke="#111111" stroke-opacity="1" stroke-width="1" stroke-linecap="square" stroke-linejoin="bevel" transform="matrix(0.833333,0,0,0.833333,0,0)"
font-family="Ubuntu" font-size="10" font-weight="400" font-style="normal" 
>
</g>

<g fill="none" stroke="#111111" stroke-opacity="1" stroke-width="1" stroke-linecap="square" stroke-linejoin="bevel" transform="matrix(0.833333,0,0,0.833333,0,0)"
font-family="Ubuntu" font-size="10" font-weight="400" font-style="normal" 
>
</g>

<g fill="none" stroke="#000000" stroke-opacity="1" stroke-width="1" stroke-linecap="square" stroke-linejoin="bevel" transform="matrix(0.833333,0,0,0.833333,0,0)"
font-family="Ubuntu" font-size="12.2222" font-weight="400" font-style="normal" 
>
</g>

<g fill="#ffffff" fill-opacity="1" stroke="#111111" stroke-opacity="1" stroke-width="1" stroke-linecap="square" stroke-linejoin="bevel" transform="matrix(0.833333,0,0,0.833333,0,0)"
font-family="Ubuntu" font-size="12.2222" font-weight="400" font-style="normal" 
>
<circle cx="1451" cy="10" r="5"/>
</g>

<g fill="none" stroke="#000000" stroke-opacity="1" stroke-width="1" stroke-linecap="square" stroke-linejoin="bevel" transform="matrix(0.833333,0,0,0.833333,0,0)"
font-family="Ubuntu" font-size="12.2222" font-weight="400" font-style="normal" 
>
</g>

<g fill="none" stroke="#000000" stroke-opacity="1" stroke-width="1" stroke-linecap="square" stroke-linejoin="bevel" transform="matrix(0.833333,0,0,0.833333,0,0)"
font-family="Ubuntu" font-size="12.2222" font-weight="400" font-style="normal" 
>
</g>

<g fill="none" stroke="#000000" stroke-opacity="1" stroke-width="1" stroke-linecap="square" stroke-linejoin="bevel" transform="matrix(0.833333,0,0,0.833333,0,0)"
font-family="Ubuntu" font-size="12.2222" font-weight="400" font-style="normal" 
>
</g>

<g fill="none" stroke="#111111" stroke-opacity="1" stroke-width="1" stroke-linecap="square" stroke-linejoin="bevel" transform="matrix(0,-0.833333,0.833333,0,0,864.167)"
font-family="Ubuntu" font-size="11.1111" font-weight="400" font-style="normal" 
>
</g>

<g fill="none" stroke="#111111" stroke-opacity="1" stroke-width="1" stroke-linecap="square" stroke-linejoin="bevel" transform="matrix(0,-0.833333,0.833333,0,0,864.167)"
font-family="Ubuntu" font-size="13.3333" font-weight="700" font-style="normal" 
>
</g>

<g fill="none" stroke="#111111" stroke-opacity="1" stroke-width="1" stroke-linecap="square" stroke-linejoin="bevel" transform="matrix(0,-0.833333,0.833333,0,0,864.167)"
font-family="Ubuntu" font-size="13.3333" font-weight="700" font-style="normal" 
>
</g>

<g fill="none" stroke="#111111" stroke-opacity="1" stroke-width="1" stroke-linecap="square" stroke-linejoin="bevel" transform="matrix(0,-0.833333,0.833333,0,0,864.167)"
font-family="Ubuntu" font-size="11.1111" font-weight="400" font-style="normal" 
>
</g>

<g fill="none" stroke="#000000" stroke-opacity="1" stroke-width="1" stroke-linecap="square" stroke-linejoin="bevel" transform="matrix(0.833333,0,0,0.833333,0,0)"
font-family="Ubuntu" font-size="12.2222" font-weight="400" font-style="normal" 
>
</g>

<g fill="none" stroke="#000000" stroke-opacity="1" stroke-width="1" stroke-linecap="square" stroke-linejoin="bevel" transform="matrix(0.833333,0,0,0.833333,0,0)"
font-family="Ubuntu" font-size="11.1111" font-weight="400" font-style="normal" 
>
</g>

<g fill="none" stroke="#000000" stroke-opacity="1" stroke-width="1" stroke-linecap="square" stroke-linejoin="bevel" transform="matrix(0.833333,0,0,0.833333,0,0)"
font-family="Ubuntu" font-size="11.1111" font-weight="400" font-style="normal" 
>
</g>

<g fill="none" stroke="#111111" stroke-opacity="1" stroke-width="1" stroke-linecap="square" stroke-linejoin="bevel" transform="matrix(0.833333,0,0,0.833333,0,0)"
font-family="Ubuntu" font-size="11.1111" font-weight="400" font-style="normal" 
>
</g>

<g fill="none" stroke="#111111" stroke-opacity="1" stroke-width="1" stroke-linecap="square" stroke-linejoin="bevel" transform="matrix(0.833333,0,0,0.833333,0.234375,839.557)"
font-family="Ubuntu" font-size="11.1111" font-weight="400" font-style="normal" 
>
</g>

<g fill="none" stroke="#111111" stroke-opacity="1" stroke-width="1" stroke-linecap="square" stroke-linejoin="bevel" transform="matrix(0.833333,0,0,0.833333,0.234375,839.557)"
font-family="Ubuntu" font-size="13" font-weight="400" font-style="normal" 
>
</g>

<g fill="none" stroke="#111111" stroke-opacity="1" stroke-width="1" stroke-linecap="square" stroke-linejoin="bevel" transform="matrix(0.833333,0,0,0.833333,0.234375,839.557)"
font-family="Ubuntu" font-size="13" font-weight="400" font-style="normal" 
>
<text fill="#111111" fill-opacity="1" stroke="none" xml:space="preserve" x="0" y="10" font-family="Ubuntu" font-size="13" font-weight="400" font-style="normal" 
 >-0.3</text>
</g>

<g fill="none" stroke="#111111" stroke-opacity="1" stroke-width="1" stroke-linecap="square" stroke-linejoin="bevel" transform="matrix(0.833333,0,0,0.833333,0.234375,839.557)"
font-family="Ubuntu" font-size="11.1111" font-weight="400" font-style="normal" 
>
</g>

<g fill="none" stroke="#111111" stroke-opacity="1" stroke-width="1" stroke-linecap="square" stroke-linejoin="bevel" transform="matrix(0.833333,0,0,0.833333,0.234375,839.557)"
font-family="Ubuntu" font-size="11.1111" font-weight="400" font-style="normal" 
>
</g>

<g fill="none" stroke="#111111" stroke-opacity="1" stroke-width="1" stroke-linecap="square" stroke-linejoin="bevel" transform="matrix(0.833333,0,0,0.833333,0,0)"
font-family="Ubuntu" font-size="11.1111" font-weight="400" font-style="normal" 
>
</g>

<g fill="none" stroke="#111111" stroke-opacity="1" stroke-width="1" stroke-linecap="square" stroke-linejoin="bevel" transform="matrix(0.833333,0,0,0.833333,0.234375,701.325)"
font-family="Ubuntu" font-size="11.1111" font-weight="400" font-style="normal" 
>
</g>

<g fill="none" stroke="#111111" stroke-opacity="1" stroke-width="1" stroke-linecap="square" stroke-linejoin="bevel" transform="matrix(0.833333,0,0,0.833333,0.234375,701.325)"
font-family="Ubuntu" font-size="13" font-weight="400" font-style="normal" 
>
</g>

<g fill="none" stroke="#111111" stroke-opacity="1" stroke-width="1" stroke-linecap="square" stroke-linejoin="bevel" transform="matrix(0.833333,0,0,0.833333,0.234375,701.325)"
font-family="Ubuntu" font-size="13" font-weight="400" font-style="normal" 
>
<text fill="#111111" fill-opacity="1" stroke="none" xml:space="preserve" x="0" y="10" font-family="Ubuntu" font-size="13" font-weight="400" font-style="normal" 
 >-0.2</text>
</g>

<g fill="none" stroke="#111111" stroke-opacity="1" stroke-width="1" stroke-linecap="square" stroke-linejoin="bevel" transform="matrix(0.833333,0,0,0.833333,0.234375,701.325)"
font-family="Ubuntu" font-size="11.1111" font-weight="400" font-style="normal" 
>
</g>

<g fill="none" stroke="#111111" stroke-opacity="1" stroke-width="1" stroke-linecap="square" stroke-linejoin="bevel" transform="matrix(0.833333,0,0,0.833333,0.234375,701.325)"
font-family="Ubuntu" font-size="11.1111" font-weight="400" font-style="normal" 
>
</g>

<g fill="none" stroke="#111111" stroke-opacity="1" stroke-width="1" stroke-linecap="square" stroke-linejoin="bevel" transform="matrix(0.833333,0,0,0.833333,0,0)"
font-family="Ubuntu" font-size="11.1111" font-weight="400" font-style="normal" 
>
</g>

<g fill="none" stroke="#111111" stroke-opacity="1" stroke-width="1" stroke-linecap="square" stroke-linejoin="bevel" transform="matrix(0.833333,0,0,0.833333,0.234375,563.092)"
font-family="Ubuntu" font-size="11.1111" font-weight="400" font-style="normal" 
>
</g>

<g fill="none" stroke="#111111" stroke-opacity="1" stroke-width="1" stroke-linecap="square" stroke-linejoin="bevel" transform="matrix(0.833333,0,0,0.833333,0.234375,563.092)"
font-family="Ubuntu" font-size="13" font-weight="400" font-style="normal" 
>
</g>

<g fill="none" stroke="#111111" stroke-opacity="1" stroke-width="1" stroke-linecap="square" stroke-linejoin="bevel" transform="matrix(0.833333,0,0,0.833333,0.234375,563.092)"
font-family="Ubuntu" font-size="13" font-weight="400" font-style="normal" 
>
<text fill="#111111" fill-opacity="1" stroke="none" xml:space="preserve" x="0" y="10" font-family="Ubuntu" font-size="13" font-weight="400" font-style="normal" 
 >-0.1</text>
</g>

<g fill="none" stroke="#111111" stroke-opacity="1" stroke-width="1" stroke-linecap="square" stroke-linejoin="bevel" transform="matrix(0.833333,0,0,0.833333,0.234375,563.092)"
font-family="Ubuntu" font-size="11.1111" font-weight="400" font-style="normal" 
>
</g>

<g fill="none" stroke="#111111" stroke-opacity="1" stroke-width="1" stroke-linecap="square" stroke-linejoin="bevel" transform="matrix(0.833333,0,0,0.833333,0.234375,563.092)"
font-family="Ubuntu" font-size="11.1111" font-weight="400" font-style="normal" 
>
</g>

<g fill="none" stroke="#111111" stroke-opacity="1" stroke-width="1" stroke-linecap="square" stroke-linejoin="bevel" transform="matrix(0.833333,0,0,0.833333,0,0)"
font-family="Ubuntu" font-size="11.1111" font-weight="400" font-style="normal" 
>
</g>

<g fill="none" stroke="#111111" stroke-opacity="1" stroke-width="1" stroke-linecap="square" stroke-linejoin="bevel" transform="matrix(0.833333,0,0,0.833333,12.2266,424.86)"
font-family="Ubuntu" font-size="11.1111" font-weight="400" font-style="normal" 
>
</g>

<g fill="none" stroke="#111111" stroke-opacity="1" stroke-width="1" stroke-linecap="square" stroke-linejoin="bevel" transform="matrix(0.833333,0,0,0.833333,12.2266,424.86)"
font-family="Ubuntu" font-size="13" font-weight="400" font-style="normal" 
>
</g>

<g fill="none" stroke="#111111" stroke-opacity="1" stroke-width="1" stroke-linecap="square" stroke-linejoin="bevel" transform="matrix(0.833333,0,0,0.833333,12.2266,424.86)"
font-family="Ubuntu" font-size="13" font-weight="400" font-style="normal" 
>
</g>

<g fill="none" stroke="#111111" stroke-opacity="1" stroke-width="1" stroke-linecap="square" stroke-linejoin="bevel" transform="matrix(0.833333,0,0,0.833333,12.2266,424.86)"
font-family="Ubuntu" font-size="13" font-weight="400" font-style="normal" 
>
<text fill="#111111" fill-opacity="1" stroke="none" xml:space="preserve" x="0" y="10" font-family="Ubuntu" font-size="13" font-weight="400" font-style="normal" 
 >0</text>
</g>

<g fill="none" stroke="#111111" stroke-opacity="1" stroke-width="1" stroke-linecap="square" stroke-linejoin="bevel" transform="matrix(0.833333,0,0,0.833333,12.2266,424.86)"
font-family="Ubuntu" font-size="13" font-weight="400" font-style="normal" 
>
</g>

<g fill="none" stroke="#111111" stroke-opacity="1" stroke-width="1" stroke-linecap="square" stroke-linejoin="bevel" transform="matrix(0.833333,0,0,0.833333,12.2266,424.86)"
font-family="Ubuntu" font-size="11.1111" font-weight="400" font-style="normal" 
>
</g>

<g fill="none" stroke="#111111" stroke-opacity="1" stroke-width="1" stroke-linecap="square" stroke-linejoin="bevel" transform="matrix(0.833333,0,0,0.833333,12.2266,424.86)"
font-family="Ubuntu" font-size="11.1111" font-weight="400" font-style="normal" 
>
</g>

<g fill="none" stroke="#111111" stroke-opacity="1" stroke-width="1" stroke-linecap="square" stroke-linejoin="bevel" transform="matrix(0.833333,0,0,0.833333,0,0)"
font-family="Ubuntu" font-size="11.1111" font-weight="400" font-style="normal" 
>
</g>

<g fill="none" stroke="#111111" stroke-opacity="1" stroke-width="1" stroke-linecap="square" stroke-linejoin="bevel" transform="matrix(0.833333,0,0,0.833333,3.46354,286.627)"
font-family="Ubuntu" font-size="11.1111" font-weight="400" font-style="normal" 
>
</g>

<g fill="none" stroke="#111111" stroke-opacity="1" stroke-width="1" stroke-linecap="square" stroke-linejoin="bevel" transform="matrix(0.833333,0,0,0.833333,3.46354,286.627)"
font-family="Ubuntu" font-size="13" font-weight="400" font-style="normal" 
>
</g>

<g fill="none" stroke="#111111" stroke-opacity="1" stroke-width="1" stroke-linecap="square" stroke-linejoin="bevel" transform="matrix(0.833333,0,0,0.833333,3.46354,286.627)"
font-family="Ubuntu" font-size="13" font-weight="400" font-style="normal" 
>
<text fill="#111111" fill-opacity="1" stroke="none" xml:space="preserve" x="0" y="10" font-family="Ubuntu" font-size="13" font-weight="400" font-style="normal" 
 >0.1</text>
</g>

<g fill="none" stroke="#111111" stroke-opacity="1" stroke-width="1" stroke-linecap="square" stroke-linejoin="bevel" transform="matrix(0.833333,0,0,0.833333,3.46354,286.627)"
font-family="Ubuntu" font-size="11.1111" font-weight="400" font-style="normal" 
>
</g>

<g fill="none" stroke="#111111" stroke-opacity="1" stroke-width="1" stroke-linecap="square" stroke-linejoin="bevel" transform="matrix(0.833333,0,0,0.833333,3.46354,286.627)"
font-family="Ubuntu" font-size="11.1111" font-weight="400" font-style="normal" 
>
</g>

<g fill="none" stroke="#111111" stroke-opacity="1" stroke-width="1" stroke-linecap="square" stroke-linejoin="bevel" transform="matrix(0.833333,0,0,0.833333,0,0)"
font-family="Ubuntu" font-size="11.1111" font-weight="400" font-style="normal" 
>
</g>

<g fill="none" stroke="#111111" stroke-opacity="1" stroke-width="1" stroke-linecap="square" stroke-linejoin="bevel" transform="matrix(0.833333,0,0,0.833333,3.46354,148.395)"
font-family="Ubuntu" font-size="11.1111" font-weight="400" font-style="normal" 
>
</g>

<g fill="none" stroke="#111111" stroke-opacity="1" stroke-width="1" stroke-linecap="square" stroke-linejoin="bevel" transform="matrix(0.833333,0,0,0.833333,3.46354,148.395)"
font-family="Ubuntu" font-size="13" font-weight="400" font-style="normal" 
>
</g>

<g fill="none" stroke="#111111" stroke-opacity="1" stroke-width="1" stroke-linecap="square" stroke-linejoin="bevel" transform="matrix(0.833333,0,0,0.833333,3.46354,148.395)"
font-family="Ubuntu" font-size="13" font-weight="400" font-style="normal" 
>
<text fill="#111111" fill-opacity="1" stroke="none" xml:space="preserve" x="0" y="10" font-family="Ubuntu" font-size="13" font-weight="400" font-style="normal" 
 >0.2</text>
</g>

<g fill="none" stroke="#111111" stroke-opacity="1" stroke-width="1" stroke-linecap="square" stroke-linejoin="bevel" transform="matrix(0.833333,0,0,0.833333,3.46354,148.395)"
font-family="Ubuntu" font-size="11.1111" font-weight="400" font-style="normal" 
>
</g>

<g fill="none" stroke="#111111" stroke-opacity="1" stroke-width="1" stroke-linecap="square" stroke-linejoin="bevel" transform="matrix(0.833333,0,0,0.833333,3.46354,148.395)"
font-family="Ubuntu" font-size="11.1111" font-weight="400" font-style="normal" 
>
</g>

<g fill="none" stroke="#111111" stroke-opacity="1" stroke-width="1" stroke-linecap="square" stroke-linejoin="bevel" transform="matrix(0.833333,0,0,0.833333,0,0)"
font-family="Ubuntu" font-size="11.1111" font-weight="400" font-style="normal" 
>
</g>

<g fill="none" stroke="#111111" stroke-opacity="1" stroke-width="1" stroke-linecap="square" stroke-linejoin="bevel" transform="matrix(0.833333,0,0,0.833333,3.46354,10.1622)"
font-family="Ubuntu" font-size="11.1111" font-weight="400" font-style="normal" 
>
</g>

<g fill="none" stroke="#111111" stroke-opacity="1" stroke-width="1" stroke-linecap="square" stroke-linejoin="bevel" transform="matrix(0.833333,0,0,0.833333,3.46354,10.1622)"
font-family="Ubuntu" font-size="13" font-weight="400" font-style="normal" 
>
</g>

<g fill="none" stroke="#111111" stroke-opacity="1" stroke-width="1" stroke-linecap="square" stroke-linejoin="bevel" transform="matrix(0.833333,0,0,0.833333,3.46354,10.1622)"
font-family="Ubuntu" font-size="13" font-weight="400" font-style="normal" 
>
<text fill="#111111" fill-opacity="1" stroke="none" xml:space="preserve" x="0" y="10" font-family="Ubuntu" font-size="13" font-weight="400" font-style="normal" 
 >0.3</text>
</g>

<g fill="none" stroke="#111111" stroke-opacity="1" stroke-width="1" stroke-linecap="square" stroke-linejoin="bevel" transform="matrix(0.833333,0,0,0.833333,3.46354,10.1622)"
font-family="Ubuntu" font-size="11.1111" font-weight="400" font-style="normal" 
>
</g>

<g fill="none" stroke="#111111" stroke-opacity="1" stroke-width="1" stroke-linecap="square" stroke-linejoin="bevel" transform="matrix(0.833333,0,0,0.833333,3.46354,10.1622)"
font-family="Ubuntu" font-size="11.1111" font-weight="400" font-style="normal" 
>
</g>

<g fill="none" stroke="#111111" stroke-opacity="1" stroke-width="1" stroke-linecap="square" stroke-linejoin="bevel" transform="matrix(0.833333,0,0,0.833333,0,0)"
font-family="Ubuntu" font-size="11.1111" font-weight="400" font-style="normal" 
>
</g>

<g fill="none" stroke="#000000" stroke-opacity="1" stroke-width="1" stroke-linecap="square" stroke-linejoin="bevel" transform="matrix(0.833333,0,0,0.833333,0,0)"
font-family="Ubuntu" font-size="11.1111" font-weight="400" font-style="normal" 
>
</g>

<g fill="none" stroke="#111111" stroke-opacity="1" stroke-width="1" stroke-linecap="butt" stroke-linejoin="bevel" transform="matrix(0.833333,0,0,0.833333,0,0)"
font-family="Ubuntu" font-size="11.1111" font-weight="400" font-style="normal" 
>
<polyline fill="none" vector-effect="non-scaling-stroke" points="35.5,979.293 30.3,979.293 " />
<polyline fill="none" vector-effect="non-scaling-stroke" points="35.5,946.117 30.3,946.117 " />
<polyline fill="none" vector-effect="non-scaling-stroke" points="35.5,912.942 30.3,912.942 " />
<polyline fill="none" vector-effect="non-scaling-stroke" points="35.5,879.766 30.3,879.766 " />
<polyline fill="none" vector-effect="non-scaling-stroke" points="35.5,813.414 30.3,813.414 " />
<polyline fill="none" vector-effect="non-scaling-stroke" points="35.5,780.238 30.3,780.238 " />
<polyline fill="none" vector-effect="non-scaling-stroke" points="35.5,747.063 30.3,747.063 " />
<polyline fill="none" vector-effect="non-scaling-stroke" points="35.5,713.887 30.3,713.887 " />
<polyline fill="none" vector-effect="non-scaling-stroke" points="35.5,647.535 30.3,647.535 " />
<polyline fill="none" vector-effect="non-scaling-stroke" points="35.5,614.359 30.3,614.359 " />
<polyline fill="none" vector-effect="non-scaling-stroke" points="35.5,581.183 30.3,581.183 " />
<polyline fill="none" vector-effect="non-scaling-stroke" points="35.5,548.008 30.3,548.008 " />
<polyline fill="none" vector-effect="non-scaling-stroke" points="35.5,481.656 30.3,481.656 " />
<polyline fill="none" vector-effect="non-scaling-stroke" points="35.5,448.48 30.3,448.48 " />
<polyline fill="none" vector-effect="non-scaling-stroke" points="35.5,415.304 30.3,415.304 " />
<polyline fill="none" vector-effect="non-scaling-stroke" points="35.5,382.129 30.3,382.129 " />
<polyline fill="none" vector-effect="non-scaling-stroke" points="35.5,315.777 30.3,315.777 " />
<polyline fill="none" vector-effect="non-scaling-stroke" points="35.5,282.601 30.3,282.601 " />
<polyline fill="none" vector-effect="non-scaling-stroke" points="35.5,249.425 30.3,249.425 " />
<polyline fill="none" vector-effect="non-scaling-stroke" points="35.5,216.25 30.3,216.25 " />
<polyline fill="none" vector-effect="non-scaling-stroke" points="35.5,149.898 30.3,149.898 " />
<polyline fill="none" vector-effect="non-scaling-stroke" points="35.5,116.722 30.3,116.722 " />
<polyline fill="none" vector-effect="non-scaling-stroke" points="35.5,83.5463 30.3,83.5463 " />
<polyline fill="none" vector-effect="non-scaling-stroke" points="35.5,50.3705 30.3,50.3705 " />
<polyline fill="none" vector-effect="non-scaling-stroke" points="35.5,1012.47 26.3,1012.47 " />
<polyline fill="none" vector-effect="non-scaling-stroke" points="35.5,846.59 26.3,846.59 " />
<polyline fill="none" vector-effect="non-scaling-stroke" points="35.5,680.711 26.3,680.711 " />
<polyline fill="none" vector-effect="non-scaling-stroke" points="35.5,514.832 26.3,514.832 " />
<polyline fill="none" vector-effect="non-scaling-stroke" points="35.5,348.953 26.3,348.953 " />
<polyline fill="none" vector-effect="non-scaling-stroke" points="35.5,183.074 26.3,183.074 " />
<polyline fill="none" vector-effect="non-scaling-stroke" points="35.5,17.1947 26.3,17.1947 " />
</g>

<g fill="none" stroke="#000000" stroke-opacity="1" stroke-width="1" stroke-linecap="square" stroke-linejoin="bevel" transform="matrix(0.833333,0,0,0.833333,0,0)"
font-family="Ubuntu" font-size="11.1111" font-weight="400" font-style="normal" 
>
</g>

<g fill="none" stroke="#111111" stroke-opacity="1" stroke-width="1" stroke-linecap="butt" stroke-linejoin="bevel" transform="matrix(0.833333,0,0,0.833333,0,0)"
font-family="Ubuntu" font-size="11.1111" font-weight="400" font-style="normal" 
>
<polyline fill="none" vector-effect="non-scaling-stroke" points="35.4,1 35.4,1037 " />
</g>

<g fill="none" stroke="#000000" stroke-opacity="1" stroke-width="1" stroke-linecap="square" stroke-linejoin="bevel" transform="matrix(0.833333,0,0,0.833333,0,0)"
font-family="Ubuntu" font-size="11.1111" font-weight="400" font-style="normal" 
>
</g>

<g fill="none" stroke="#000000" stroke-opacity="1" stroke-width="1" stroke-linecap="square" stroke-linejoin="bevel" transform="matrix(0.833333,0,0,0.833333,0,0)"
font-family="Ubuntu" font-size="11.1111" font-weight="400" font-style="normal" 
>
</g>

<g fill="none" stroke="#000000" stroke-opacity="1" stroke-width="1" stroke-linecap="square" stroke-linejoin="bevel" transform="matrix(0.833333,0,0,0.833333,0,0)"
font-family="Ubuntu" font-size="12.2222" font-weight="400" font-style="normal" 
>
</g>

<g fill="none" stroke="#111111" stroke-opacity="1" stroke-width="1" stroke-linecap="square" stroke-linejoin="bevel" transform="matrix(0.833333,0,0,0.833333,32.5,900.833)"
font-family="Ubuntu" font-size="11.1111" font-weight="400" font-style="normal" 
>
</g>

<g fill="none" stroke="#111111" stroke-opacity="1" stroke-width="1" stroke-linecap="square" stroke-linejoin="bevel" transform="matrix(0.833333,0,0,0.833333,32.5,900.833)"
font-family="Ubuntu" font-size="13.3333" font-weight="700" font-style="normal" 
>
</g>

<g fill="none" stroke="#111111" stroke-opacity="1" stroke-width="1" stroke-linecap="square" stroke-linejoin="bevel" transform="matrix(0.833333,0,0,0.833333,32.5,900.833)"
font-family="Ubuntu" font-size="13.3333" font-weight="700" font-style="normal" 
>
</g>

<g fill="none" stroke="#111111" stroke-opacity="1" stroke-width="1" stroke-linecap="square" stroke-linejoin="bevel" transform="matrix(0.833333,0,0,0.833333,32.5,900.833)"
font-family="Ubuntu" font-size="11.1111" font-weight="400" font-style="normal" 
>
</g>

<g fill="none" stroke="#000000" stroke-opacity="1" stroke-width="1" stroke-linecap="square" stroke-linejoin="bevel" transform="matrix(0.833333,0,0,0.833333,0,0)"
font-family="Ubuntu" font-size="12.2222" font-weight="400" font-style="normal" 
>
</g>

<g fill="none" stroke="#000000" stroke-opacity="1" stroke-width="1" stroke-linecap="square" stroke-linejoin="bevel" transform="matrix(0.833333,0,0,0.833333,0,0)"
font-family="Ubuntu" font-size="11.1111" font-weight="400" font-style="normal" 
>
</g>

<g fill="none" stroke="#000000" stroke-opacity="1" stroke-width="1" stroke-linecap="square" stroke-linejoin="bevel" transform="matrix(0.833333,0,0,0.833333,0,0)"
font-family="Ubuntu" font-size="11.1111" font-weight="400" font-style="normal" 
>
</g>

<g fill="none" stroke="#111111" stroke-opacity="1" stroke-width="1" stroke-linecap="square" stroke-linejoin="bevel" transform="matrix(0.833333,0,0,0.833333,0,0)"
font-family="Ubuntu" font-size="11.1111" font-weight="400" font-style="normal" 
>
</g>

<g fill="none" stroke="#111111" stroke-opacity="1" stroke-width="1" stroke-linecap="square" stroke-linejoin="bevel" transform="matrix(0.833333,0,0,0.833333,92.5202,878.333)"
font-family="Ubuntu" font-size="11.1111" font-weight="400" font-style="normal" 
>
</g>

<g fill="none" stroke="#111111" stroke-opacity="1" stroke-width="1" stroke-linecap="square" stroke-linejoin="bevel" transform="matrix(0.833333,0,0,0.833333,92.5202,878.333)"
font-family="Ubuntu" font-size="13" font-weight="400" font-style="normal" 
>
</g>

<g fill="none" stroke="#111111" stroke-opacity="1" stroke-width="1" stroke-linecap="square" stroke-linejoin="bevel" transform="matrix(0.833333,0,0,0.833333,92.5202,878.333)"
font-family="Ubuntu" font-size="13" font-weight="400" font-style="normal" 
>
</g>

<g fill="none" stroke="#111111" stroke-opacity="1" stroke-width="1" stroke-linecap="square" stroke-linejoin="bevel" transform="matrix(0.833333,0,0,0.833333,92.5202,878.333)"
font-family="Ubuntu" font-size="13" font-weight="400" font-style="normal" 
>
<text fill="#111111" fill-opacity="1" stroke="none" xml:space="preserve" x="0" y="10" font-family="Ubuntu" font-size="13" font-weight="400" font-style="normal" 
 >16:22:00.0</text>
</g>

<g fill="none" stroke="#111111" stroke-opacity="1" stroke-width="1" stroke-linecap="square" stroke-linejoin="bevel" transform="matrix(0.833333,0,0,0.833333,92.5202,878.333)"
font-family="Ubuntu" font-size="13" font-weight="400" font-style="normal" 
>
<text fill="#111111" fill-opacity="1" stroke="none" xml:space="preserve" x="0" y="25" font-family="Ubuntu" font-size="13" font-weight="400" font-style="normal" 
 >2024 Jul 10</text>
</g>

<g fill="none" stroke="#111111" stroke-opacity="1" stroke-width="1" stroke-linecap="square" stroke-linejoin="bevel" transform="matrix(0.833333,0,0,0.833333,92.5202,878.333)"
font-family="Ubuntu" font-size="13" font-weight="400" font-style="normal" 
>
</g>

<g fill="none" stroke="#111111" stroke-opacity="1" stroke-width="1" stroke-linecap="square" stroke-linejoin="bevel" transform="matrix(0.833333,0,0,0.833333,92.5202,878.333)"
font-family="Ubuntu" font-size="11.1111" font-weight="400" font-style="normal" 
>
</g>

<g fill="none" stroke="#111111" stroke-opacity="1" stroke-width="1" stroke-linecap="square" stroke-linejoin="bevel" transform="matrix(0.833333,0,0,0.833333,92.5202,878.333)"
font-family="Ubuntu" font-size="11.1111" font-weight="400" font-style="normal" 
>
</g>

<g fill="none" stroke="#111111" stroke-opacity="1" stroke-width="1" stroke-linecap="square" stroke-linejoin="bevel" transform="matrix(0.833333,0,0,0.833333,0,0)"
font-family="Ubuntu" font-size="11.1111" font-weight="400" font-style="normal" 
>
</g>

<g fill="none" stroke="#111111" stroke-opacity="1" stroke-width="1" stroke-linecap="square" stroke-linejoin="bevel" transform="matrix(0.833333,0,0,0.833333,267.782,878.333)"
font-family="Ubuntu" font-size="11.1111" font-weight="400" font-style="normal" 
>
</g>

<g fill="none" stroke="#111111" stroke-opacity="1" stroke-width="1" stroke-linecap="square" stroke-linejoin="bevel" transform="matrix(0.833333,0,0,0.833333,267.782,878.333)"
font-family="Ubuntu" font-size="13" font-weight="400" font-style="normal" 
>
</g>

<g fill="none" stroke="#111111" stroke-opacity="1" stroke-width="1" stroke-linecap="square" stroke-linejoin="bevel" transform="matrix(0.833333,0,0,0.833333,267.782,878.333)"
font-family="Ubuntu" font-size="13" font-weight="400" font-style="normal" 
>
</g>

<g fill="none" stroke="#111111" stroke-opacity="1" stroke-width="1" stroke-linecap="square" stroke-linejoin="bevel" transform="matrix(0.833333,0,0,0.833333,267.782,878.333)"
font-family="Ubuntu" font-size="13" font-weight="400" font-style="normal" 
>
<text fill="#111111" fill-opacity="1" stroke="none" xml:space="preserve" x="0" y="10" font-family="Ubuntu" font-size="13" font-weight="400" font-style="normal" 
 >16:22:20.0</text>
</g>

<g fill="none" stroke="#111111" stroke-opacity="1" stroke-width="1" stroke-linecap="square" stroke-linejoin="bevel" transform="matrix(0.833333,0,0,0.833333,267.782,878.333)"
font-family="Ubuntu" font-size="13" font-weight="400" font-style="normal" 
>
<text fill="#111111" fill-opacity="1" stroke="none" xml:space="preserve" x="0" y="25" font-family="Ubuntu" font-size="13" font-weight="400" font-style="normal" 
 >2024 Jul 10</text>
</g>

<g fill="none" stroke="#111111" stroke-opacity="1" stroke-width="1" stroke-linecap="square" stroke-linejoin="bevel" transform="matrix(0.833333,0,0,0.833333,267.782,878.333)"
font-family="Ubuntu" font-size="13" font-weight="400" font-style="normal" 
>
</g>

<g fill="none" stroke="#111111" stroke-opacity="1" stroke-width="1" stroke-linecap="square" stroke-linejoin="bevel" transform="matrix(0.833333,0,0,0.833333,267.782,878.333)"
font-family="Ubuntu" font-size="11.1111" font-weight="400" font-style="normal" 
>
</g>

<g fill="none" stroke="#111111" stroke-opacity="1" stroke-width="1" stroke-linecap="square" stroke-linejoin="bevel" transform="matrix(0.833333,0,0,0.833333,267.782,878.333)"
font-family="Ubuntu" font-size="11.1111" font-weight="400" font-style="normal" 
>
</g>

<g fill="none" stroke="#111111" stroke-opacity="1" stroke-width="1" stroke-linecap="square" stroke-linejoin="bevel" transform="matrix(0.833333,0,0,0.833333,0,0)"
font-family="Ubuntu" font-size="11.1111" font-weight="400" font-style="normal" 
>
</g>

<g fill="none" stroke="#111111" stroke-opacity="1" stroke-width="1" stroke-linecap="square" stroke-linejoin="bevel" transform="matrix(0.833333,0,0,0.833333,443.043,878.333)"
font-family="Ubuntu" font-size="11.1111" font-weight="400" font-style="normal" 
>
</g>

<g fill="none" stroke="#111111" stroke-opacity="1" stroke-width="1" stroke-linecap="square" stroke-linejoin="bevel" transform="matrix(0.833333,0,0,0.833333,443.043,878.333)"
font-family="Ubuntu" font-size="13" font-weight="400" font-style="normal" 
>
</g>

<g fill="none" stroke="#111111" stroke-opacity="1" stroke-width="1" stroke-linecap="square" stroke-linejoin="bevel" transform="matrix(0.833333,0,0,0.833333,443.043,878.333)"
font-family="Ubuntu" font-size="13" font-weight="400" font-style="normal" 
>
</g>

<g fill="none" stroke="#111111" stroke-opacity="1" stroke-width="1" stroke-linecap="square" stroke-linejoin="bevel" transform="matrix(0.833333,0,0,0.833333,443.043,878.333)"
font-family="Ubuntu" font-size="13" font-weight="400" font-style="normal" 
>
<text fill="#111111" fill-opacity="1" stroke="none" xml:space="preserve" x="0" y="10" font-family="Ubuntu" font-size="13" font-weight="400" font-style="normal" 
 >16:22:40.0</text>
</g>

<g fill="none" stroke="#111111" stroke-opacity="1" stroke-width="1" stroke-linecap="square" stroke-linejoin="bevel" transform="matrix(0.833333,0,0,0.833333,443.043,878.333)"
font-family="Ubuntu" font-size="13" font-weight="400" font-style="normal" 
>
<text fill="#111111" fill-opacity="1" stroke="none" xml:space="preserve" x="0" y="25" font-family="Ubuntu" font-size="13" font-weight="400" font-style="normal" 
 >2024 Jul 10</text>
</g>

<g fill="none" stroke="#111111" stroke-opacity="1" stroke-width="1" stroke-linecap="square" stroke-linejoin="bevel" transform="matrix(0.833333,0,0,0.833333,443.043,878.333)"
font-family="Ubuntu" font-size="13" font-weight="400" font-style="normal" 
>
</g>

<g fill="none" stroke="#111111" stroke-opacity="1" stroke-width="1" stroke-linecap="square" stroke-linejoin="bevel" transform="matrix(0.833333,0,0,0.833333,443.043,878.333)"
font-family="Ubuntu" font-size="11.1111" font-weight="400" font-style="normal" 
>
</g>

<g fill="none" stroke="#111111" stroke-opacity="1" stroke-width="1" stroke-linecap="square" stroke-linejoin="bevel" transform="matrix(0.833333,0,0,0.833333,443.043,878.333)"
font-family="Ubuntu" font-size="11.1111" font-weight="400" font-style="normal" 
>
</g>

<g fill="none" stroke="#111111" stroke-opacity="1" stroke-width="1" stroke-linecap="square" stroke-linejoin="bevel" transform="matrix(0.833333,0,0,0.833333,0,0)"
font-family="Ubuntu" font-size="11.1111" font-weight="400" font-style="normal" 
>
</g>

<g fill="none" stroke="#111111" stroke-opacity="1" stroke-width="1" stroke-linecap="square" stroke-linejoin="bevel" transform="matrix(0.833333,0,0,0.833333,618.305,878.333)"
font-family="Ubuntu" font-size="11.1111" font-weight="400" font-style="normal" 
>
</g>

<g fill="none" stroke="#111111" stroke-opacity="1" stroke-width="1" stroke-linecap="square" stroke-linejoin="bevel" transform="matrix(0.833333,0,0,0.833333,618.305,878.333)"
font-family="Ubuntu" font-size="13" font-weight="400" font-style="normal" 
>
</g>

<g fill="none" stroke="#111111" stroke-opacity="1" stroke-width="1" stroke-linecap="square" stroke-linejoin="bevel" transform="matrix(0.833333,0,0,0.833333,618.305,878.333)"
font-family="Ubuntu" font-size="13" font-weight="400" font-style="normal" 
>
</g>

<g fill="none" stroke="#111111" stroke-opacity="1" stroke-width="1" stroke-linecap="square" stroke-linejoin="bevel" transform="matrix(0.833333,0,0,0.833333,618.305,878.333)"
font-family="Ubuntu" font-size="13" font-weight="400" font-style="normal" 
>
<text fill="#111111" fill-opacity="1" stroke="none" xml:space="preserve" x="0" y="10" font-family="Ubuntu" font-size="13" font-weight="400" font-style="normal" 
 >16:23:00.0</text>
</g>

<g fill="none" stroke="#111111" stroke-opacity="1" stroke-width="1" stroke-linecap="square" stroke-linejoin="bevel" transform="matrix(0.833333,0,0,0.833333,618.305,878.333)"
font-family="Ubuntu" font-size="13" font-weight="400" font-style="normal" 
>
<text fill="#111111" fill-opacity="1" stroke="none" xml:space="preserve" x="0" y="25" font-family="Ubuntu" font-size="13" font-weight="400" font-style="normal" 
 >2024 Jul 10</text>
</g>

<g fill="none" stroke="#111111" stroke-opacity="1" stroke-width="1" stroke-linecap="square" stroke-linejoin="bevel" transform="matrix(0.833333,0,0,0.833333,618.305,878.333)"
font-family="Ubuntu" font-size="13" font-weight="400" font-style="normal" 
>
</g>

<g fill="none" stroke="#111111" stroke-opacity="1" stroke-width="1" stroke-linecap="square" stroke-linejoin="bevel" transform="matrix(0.833333,0,0,0.833333,618.305,878.333)"
font-family="Ubuntu" font-size="11.1111" font-weight="400" font-style="normal" 
>
</g>

<g fill="none" stroke="#111111" stroke-opacity="1" stroke-width="1" stroke-linecap="square" stroke-linejoin="bevel" transform="matrix(0.833333,0,0,0.833333,618.305,878.333)"
font-family="Ubuntu" font-size="11.1111" font-weight="400" font-style="normal" 
>
</g>

<g fill="none" stroke="#111111" stroke-opacity="1" stroke-width="1" stroke-linecap="square" stroke-linejoin="bevel" transform="matrix(0.833333,0,0,0.833333,0,0)"
font-family="Ubuntu" font-size="11.1111" font-weight="400" font-style="normal" 
>
</g>

<g fill="none" stroke="#111111" stroke-opacity="1" stroke-width="1" stroke-linecap="square" stroke-linejoin="bevel" transform="matrix(0.833333,0,0,0.833333,793.566,878.333)"
font-family="Ubuntu" font-size="11.1111" font-weight="400" font-style="normal" 
>
</g>

<g fill="none" stroke="#111111" stroke-opacity="1" stroke-width="1" stroke-linecap="square" stroke-linejoin="bevel" transform="matrix(0.833333,0,0,0.833333,793.566,878.333)"
font-family="Ubuntu" font-size="13" font-weight="400" font-style="normal" 
>
</g>

<g fill="none" stroke="#111111" stroke-opacity="1" stroke-width="1" stroke-linecap="square" stroke-linejoin="bevel" transform="matrix(0.833333,0,0,0.833333,793.566,878.333)"
font-family="Ubuntu" font-size="13" font-weight="400" font-style="normal" 
>
</g>

<g fill="none" stroke="#111111" stroke-opacity="1" stroke-width="1" stroke-linecap="square" stroke-linejoin="bevel" transform="matrix(0.833333,0,0,0.833333,793.566,878.333)"
font-family="Ubuntu" font-size="13" font-weight="400" font-style="normal" 
>
<text fill="#111111" fill-opacity="1" stroke="none" xml:space="preserve" x="0" y="10" font-family="Ubuntu" font-size="13" font-weight="400" font-style="normal" 
 >16:23:20.0</text>
</g>

<g fill="none" stroke="#111111" stroke-opacity="1" stroke-width="1" stroke-linecap="square" stroke-linejoin="bevel" transform="matrix(0.833333,0,0,0.833333,793.566,878.333)"
font-family="Ubuntu" font-size="13" font-weight="400" font-style="normal" 
>
<text fill="#111111" fill-opacity="1" stroke="none" xml:space="preserve" x="0" y="25" font-family="Ubuntu" font-size="13" font-weight="400" font-style="normal" 
 >2024 Jul 10</text>
</g>

<g fill="none" stroke="#111111" stroke-opacity="1" stroke-width="1" stroke-linecap="square" stroke-linejoin="bevel" transform="matrix(0.833333,0,0,0.833333,793.566,878.333)"
font-family="Ubuntu" font-size="13" font-weight="400" font-style="normal" 
>
</g>

<g fill="none" stroke="#111111" stroke-opacity="1" stroke-width="1" stroke-linecap="square" stroke-linejoin="bevel" transform="matrix(0.833333,0,0,0.833333,793.566,878.333)"
font-family="Ubuntu" font-size="11.1111" font-weight="400" font-style="normal" 
>
</g>

<g fill="none" stroke="#111111" stroke-opacity="1" stroke-width="1" stroke-linecap="square" stroke-linejoin="bevel" transform="matrix(0.833333,0,0,0.833333,793.566,878.333)"
font-family="Ubuntu" font-size="11.1111" font-weight="400" font-style="normal" 
>
</g>

<g fill="none" stroke="#111111" stroke-opacity="1" stroke-width="1" stroke-linecap="square" stroke-linejoin="bevel" transform="matrix(0.833333,0,0,0.833333,0,0)"
font-family="Ubuntu" font-size="11.1111" font-weight="400" font-style="normal" 
>
</g>

<g fill="none" stroke="#111111" stroke-opacity="1" stroke-width="1" stroke-linecap="square" stroke-linejoin="bevel" transform="matrix(0.833333,0,0,0.833333,968.827,878.333)"
font-family="Ubuntu" font-size="11.1111" font-weight="400" font-style="normal" 
>
</g>

<g fill="none" stroke="#111111" stroke-opacity="1" stroke-width="1" stroke-linecap="square" stroke-linejoin="bevel" transform="matrix(0.833333,0,0,0.833333,968.827,878.333)"
font-family="Ubuntu" font-size="13" font-weight="400" font-style="normal" 
>
</g>

<g fill="none" stroke="#111111" stroke-opacity="1" stroke-width="1" stroke-linecap="square" stroke-linejoin="bevel" transform="matrix(0.833333,0,0,0.833333,968.827,878.333)"
font-family="Ubuntu" font-size="13" font-weight="400" font-style="normal" 
>
</g>

<g fill="none" stroke="#111111" stroke-opacity="1" stroke-width="1" stroke-linecap="square" stroke-linejoin="bevel" transform="matrix(0.833333,0,0,0.833333,968.827,878.333)"
font-family="Ubuntu" font-size="13" font-weight="400" font-style="normal" 
>
<text fill="#111111" fill-opacity="1" stroke="none" xml:space="preserve" x="0" y="10" font-family="Ubuntu" font-size="13" font-weight="400" font-style="normal" 
 >16:23:40.0</text>
</g>

<g fill="none" stroke="#111111" stroke-opacity="1" stroke-width="1" stroke-linecap="square" stroke-linejoin="bevel" transform="matrix(0.833333,0,0,0.833333,968.827,878.333)"
font-family="Ubuntu" font-size="13" font-weight="400" font-style="normal" 
>
<text fill="#111111" fill-opacity="1" stroke="none" xml:space="preserve" x="0" y="25" font-family="Ubuntu" font-size="13" font-weight="400" font-style="normal" 
 >2024 Jul 10</text>
</g>

<g fill="none" stroke="#111111" stroke-opacity="1" stroke-width="1" stroke-linecap="square" stroke-linejoin="bevel" transform="matrix(0.833333,0,0,0.833333,968.827,878.333)"
font-family="Ubuntu" font-size="13" font-weight="400" font-style="normal" 
>
</g>

<g fill="none" stroke="#111111" stroke-opacity="1" stroke-width="1" stroke-linecap="square" stroke-linejoin="bevel" transform="matrix(0.833333,0,0,0.833333,968.827,878.333)"
font-family="Ubuntu" font-size="11.1111" font-weight="400" font-style="normal" 
>
</g>

<g fill="none" stroke="#111111" stroke-opacity="1" stroke-width="1" stroke-linecap="square" stroke-linejoin="bevel" transform="matrix(0.833333,0,0,0.833333,968.827,878.333)"
font-family="Ubuntu" font-size="11.1111" font-weight="400" font-style="normal" 
>
</g>

<g fill="none" stroke="#111111" stroke-opacity="1" stroke-width="1" stroke-linecap="square" stroke-linejoin="bevel" transform="matrix(0.833333,0,0,0.833333,0,0)"
font-family="Ubuntu" font-size="11.1111" font-weight="400" font-style="normal" 
>
</g>

<g fill="none" stroke="#111111" stroke-opacity="1" stroke-width="1" stroke-linecap="square" stroke-linejoin="bevel" transform="matrix(0.833333,0,0,0.833333,1144.09,878.333)"
font-family="Ubuntu" font-size="11.1111" font-weight="400" font-style="normal" 
>
</g>

<g fill="none" stroke="#111111" stroke-opacity="1" stroke-width="1" stroke-linecap="square" stroke-linejoin="bevel" transform="matrix(0.833333,0,0,0.833333,1144.09,878.333)"
font-family="Ubuntu" font-size="13" font-weight="400" font-style="normal" 
>
</g>

<g fill="none" stroke="#111111" stroke-opacity="1" stroke-width="1" stroke-linecap="square" stroke-linejoin="bevel" transform="matrix(0.833333,0,0,0.833333,1144.09,878.333)"
font-family="Ubuntu" font-size="13" font-weight="400" font-style="normal" 
>
</g>

<g fill="none" stroke="#111111" stroke-opacity="1" stroke-width="1" stroke-linecap="square" stroke-linejoin="bevel" transform="matrix(0.833333,0,0,0.833333,1144.09,878.333)"
font-family="Ubuntu" font-size="13" font-weight="400" font-style="normal" 
>
<text fill="#111111" fill-opacity="1" stroke="none" xml:space="preserve" x="0" y="10" font-family="Ubuntu" font-size="13" font-weight="400" font-style="normal" 
 >16:24:00.0</text>
</g>

<g fill="none" stroke="#111111" stroke-opacity="1" stroke-width="1" stroke-linecap="square" stroke-linejoin="bevel" transform="matrix(0.833333,0,0,0.833333,1144.09,878.333)"
font-family="Ubuntu" font-size="13" font-weight="400" font-style="normal" 
>
<text fill="#111111" fill-opacity="1" stroke="none" xml:space="preserve" x="0" y="25" font-family="Ubuntu" font-size="13" font-weight="400" font-style="normal" 
 >2024 Jul 10</text>
</g>

<g fill="none" stroke="#111111" stroke-opacity="1" stroke-width="1" stroke-linecap="square" stroke-linejoin="bevel" transform="matrix(0.833333,0,0,0.833333,1144.09,878.333)"
font-family="Ubuntu" font-size="13" font-weight="400" font-style="normal" 
>
</g>

<g fill="none" stroke="#111111" stroke-opacity="1" stroke-width="1" stroke-linecap="square" stroke-linejoin="bevel" transform="matrix(0.833333,0,0,0.833333,1144.09,878.333)"
font-family="Ubuntu" font-size="11.1111" font-weight="400" font-style="normal" 
>
</g>

<g fill="none" stroke="#111111" stroke-opacity="1" stroke-width="1" stroke-linecap="square" stroke-linejoin="bevel" transform="matrix(0.833333,0,0,0.833333,1144.09,878.333)"
font-family="Ubuntu" font-size="11.1111" font-weight="400" font-style="normal" 
>
</g>

<g fill="none" stroke="#111111" stroke-opacity="1" stroke-width="1" stroke-linecap="square" stroke-linejoin="bevel" transform="matrix(0.833333,0,0,0.833333,0,0)"
font-family="Ubuntu" font-size="11.1111" font-weight="400" font-style="normal" 
>
</g>

<g fill="none" stroke="#000000" stroke-opacity="1" stroke-width="1" stroke-linecap="square" stroke-linejoin="bevel" transform="matrix(0.833333,0,0,0.833333,0,0)"
font-family="Ubuntu" font-size="11.1111" font-weight="400" font-style="normal" 
>
</g>

<g fill="none" stroke="#111111" stroke-opacity="1" stroke-width="1" stroke-linecap="butt" stroke-linejoin="bevel" transform="matrix(0.833333,0,0,0.833333,0,0)"
font-family="Ubuntu" font-size="11.1111" font-weight="400" font-style="normal" 
>
<polyline fill="none" vector-effect="non-scaling-stroke" points="92.1801,1040.5 92.1801,1045.7 " />
<polyline fill="none" vector-effect="non-scaling-stroke" points="197.337,1040.5 197.337,1045.7 " />
<polyline fill="none" vector-effect="non-scaling-stroke" points="302.494,1040.5 302.494,1045.7 " />
<polyline fill="none" vector-effect="non-scaling-stroke" points="407.651,1040.5 407.651,1045.7 " />
<polyline fill="none" vector-effect="non-scaling-stroke" points="512.808,1040.5 512.808,1045.7 " />
<polyline fill="none" vector-effect="non-scaling-stroke" points="617.964,1040.5 617.964,1045.7 " />
<polyline fill="none" vector-effect="non-scaling-stroke" points="723.121,1040.5 723.121,1045.7 " />
<polyline fill="none" vector-effect="non-scaling-stroke" points="828.278,1040.5 828.278,1045.7 " />
<polyline fill="none" vector-effect="non-scaling-stroke" points="933.435,1040.5 933.435,1045.7 " />
<polyline fill="none" vector-effect="non-scaling-stroke" points="1038.59,1040.5 1038.59,1045.7 " />
<polyline fill="none" vector-effect="non-scaling-stroke" points="1143.75,1040.5 1143.75,1045.7 " />
<polyline fill="none" vector-effect="non-scaling-stroke" points="1248.91,1040.5 1248.91,1045.7 " />
<polyline fill="none" vector-effect="non-scaling-stroke" points="1354.06,1040.5 1354.06,1045.7 " />
<polyline fill="none" vector-effect="non-scaling-stroke" points="39.6017,1040.5 39.6017,1047.7 " />
<polyline fill="none" vector-effect="non-scaling-stroke" points="249.915,1040.5 249.915,1047.7 " />
<polyline fill="none" vector-effect="non-scaling-stroke" points="460.229,1040.5 460.229,1047.7 " />
<polyline fill="none" vector-effect="non-scaling-stroke" points="670.543,1040.5 670.543,1047.7 " />
<polyline fill="none" vector-effect="non-scaling-stroke" points="880.857,1040.5 880.857,1047.7 " />
<polyline fill="none" vector-effect="non-scaling-stroke" points="1091.17,1040.5 1091.17,1047.7 " />
<polyline fill="none" vector-effect="non-scaling-stroke" points="1301.48,1040.5 1301.48,1047.7 " />
<polyline fill="none" vector-effect="non-scaling-stroke" points="144.759,1040.5 144.759,1049.7 " />
<polyline fill="none" vector-effect="non-scaling-stroke" points="355.072,1040.5 355.072,1049.7 " />
<polyline fill="none" vector-effect="non-scaling-stroke" points="565.386,1040.5 565.386,1049.7 " />
<polyline fill="none" vector-effect="non-scaling-stroke" points="775.7,1040.5 775.7,1049.7 " />
<polyline fill="none" vector-effect="non-scaling-stroke" points="986.014,1040.5 986.014,1049.7 " />
<polyline fill="none" vector-effect="non-scaling-stroke" points="1196.33,1040.5 1196.33,1049.7 " />
<polyline fill="none" vector-effect="non-scaling-stroke" points="1406.64,1040.5 1406.64,1049.7 " />
</g>

<g fill="none" stroke="#000000" stroke-opacity="1" stroke-width="1" stroke-linecap="square" stroke-linejoin="bevel" transform="matrix(0.833333,0,0,0.833333,0,0)"
font-family="Ubuntu" font-size="11.1111" font-weight="400" font-style="normal" 
>
</g>

<g fill="none" stroke="#111111" stroke-opacity="1" stroke-width="1" stroke-linecap="butt" stroke-linejoin="bevel" transform="matrix(0.833333,0,0,0.833333,0,0)"
font-family="Ubuntu" font-size="11.1111" font-weight="400" font-style="normal" 
>
<polyline fill="none" vector-effect="non-scaling-stroke" points="39,1040.6 1430,1040.6 " />
</g>

<g fill="none" stroke="#000000" stroke-opacity="1" stroke-width="1" stroke-linecap="square" stroke-linejoin="bevel" transform="matrix(0.833333,0,0,0.833333,0,0)"
font-family="Ubuntu" font-size="11.1111" font-weight="400" font-style="normal" 
>
</g>

<g fill="none" stroke="#000000" stroke-opacity="1" stroke-width="1" stroke-linecap="square" stroke-linejoin="bevel" transform="matrix(0.833333,0,0,0.833333,0,0)"
font-family="Ubuntu" font-size="11.1111" font-weight="400" font-style="normal" 
>
</g>

<g fill="none" stroke="#000000" stroke-opacity="1" stroke-width="1" stroke-linecap="square" stroke-linejoin="bevel" transform="matrix(0.833333,0,0,0.833333,0,0)"
font-family="Ubuntu" font-size="12.2222" font-weight="400" font-style="normal" 
>
</g>

<g fill="none" stroke="#000000" stroke-opacity="1" stroke-width="1" stroke-linecap="square" stroke-linejoin="bevel" transform="matrix(1,0,0,1,0,0)"
font-family="Ubuntu" font-size="12.2222" font-weight="400" font-style="normal" 
>
</g>
</g>
</svg>
