<?xml version="1.0" encoding="UTF-8" standalone="no"?>
<svg viewBox="0 0 1200 900"
 xmlns="http://www.w3.org/2000/svg" xmlns:xlink="http://www.w3.org/1999/xlink"  version="1.2" baseProfile="tiny">
<title>Qt SVG Document</title>
<desc>Generated with Qt</desc>
<defs>
</defs>
<g fill="none" stroke="black" stroke-width="1" fill-rule="evenodd" stroke-linecap="square" stroke-linejoin="bevel" >

<g fill="#ffffff" fill-opacity="1" stroke="none" transform="matrix(1,0,0,1,0,0)"
font-family="Ubuntu" font-size="12.2222" font-weight="400" font-style="normal" 
>
<rect x="0" y="0" width="1200" height="900"/>
</g>

<g fill="none" stroke="#000000" stroke-opacity="1" stroke-width="1" stroke-linecap="square" stroke-linejoin="bevel" transform="matrix(1,0,0,1,0,0)"
font-family="Ubuntu" font-size="12.2222" font-weight="400" font-style="normal" 
>
</g>

<g fill="none" stroke="#000000" stroke-opacity="1" stroke-width="1" stroke-linecap="square" stroke-linejoin="bevel" transform="matrix(0.833333,0,0,0.833333,0,0)"
font-family="Ubuntu" font-size="12.2222" font-weight="400" font-style="normal" 
>
</g>

<g fill="#ffffff" fill-opacity="1" stroke="none" transform="matrix(0.833333,0,0,0.833333,0,0)"
font-family="Ubuntu" font-size="12.2222" font-weight="400" font-style="normal" 
>
<rect x="38" y="0" width="1385" height="1038"/>
</g>

<g fill="none" stroke="#000000" stroke-opacity="1" stroke-width="1" stroke-linecap="square" stroke-linejoin="bevel" transform="matrix(0.833333,0,0,0.833333,0,0)"
font-family="Ubuntu" font-size="12.2222" font-weight="400" font-style="normal" 
>
</g>

<g fill="none" stroke="#000000" stroke-opacity="1" stroke-width="1" stroke-linecap="square" stroke-linejoin="bevel" transform="matrix(0.833333,0,0,0.833333,0,0)"
font-family="Ubuntu" font-size="12.2222" font-weight="400" font-style="normal" 
>
</g>

<g fill="none" stroke="#a0a0a4" stroke-opacity="1" stroke-dasharray="1,2" stroke-dashoffset="0" stroke-width="1" stroke-linecap="butt" stroke-linejoin="bevel" transform="matrix(0.833333,0,0,0.833333,0,0)"
font-family="Ubuntu" font-size="12.2222" font-weight="400" font-style="normal" 
>
<polyline fill="none" vector-effect="non-scaling-stroke" points="100.957,0 100.957,1038 " />
<polyline fill="none" vector-effect="non-scaling-stroke" points="205.391,0 205.391,1038 " />
<polyline fill="none" vector-effect="non-scaling-stroke" points="309.824,0 309.824,1038 " />
<polyline fill="none" vector-effect="non-scaling-stroke" points="414.258,0 414.258,1038 " />
<polyline fill="none" vector-effect="non-scaling-stroke" points="518.691,0 518.691,1038 " />
<polyline fill="none" vector-effect="non-scaling-stroke" points="623.125,0 623.125,1038 " />
<polyline fill="none" vector-effect="non-scaling-stroke" points="727.558,0 727.558,1038 " />
<polyline fill="none" vector-effect="non-scaling-stroke" points="831.991,0 831.991,1038 " />
<polyline fill="none" vector-effect="non-scaling-stroke" points="936.425,0 936.425,1038 " />
<polyline fill="none" vector-effect="non-scaling-stroke" points="1040.86,0 1040.86,1038 " />
<polyline fill="none" vector-effect="non-scaling-stroke" points="1145.29,0 1145.29,1038 " />
<polyline fill="none" vector-effect="non-scaling-stroke" points="1249.73,0 1249.73,1038 " />
<polyline fill="none" vector-effect="non-scaling-stroke" points="1354.16,0 1354.16,1038 " />
<polyline fill="none" vector-effect="non-scaling-stroke" points="48.7407,0 48.7407,1038 " />
<polyline fill="none" vector-effect="non-scaling-stroke" points="257.608,0 257.608,1038 " />
<polyline fill="none" vector-effect="non-scaling-stroke" points="466.474,0 466.474,1038 " />
<polyline fill="none" vector-effect="non-scaling-stroke" points="675.341,0 675.341,1038 " />
<polyline fill="none" vector-effect="non-scaling-stroke" points="884.208,0 884.208,1038 " />
<polyline fill="none" vector-effect="non-scaling-stroke" points="1093.08,0 1093.08,1038 " />
<polyline fill="none" vector-effect="non-scaling-stroke" points="1301.94,0 1301.94,1038 " />
<polyline fill="none" vector-effect="non-scaling-stroke" points="38,979.575 1423,979.575 " />
<polyline fill="none" vector-effect="non-scaling-stroke" points="38,946.613 1423,946.613 " />
<polyline fill="none" vector-effect="non-scaling-stroke" points="38,913.651 1423,913.651 " />
<polyline fill="none" vector-effect="non-scaling-stroke" points="38,880.69 1423,880.69 " />
<polyline fill="none" vector-effect="non-scaling-stroke" points="38,814.766 1423,814.766 " />
<polyline fill="none" vector-effect="non-scaling-stroke" points="38,781.804 1423,781.804 " />
<polyline fill="none" vector-effect="non-scaling-stroke" points="38,748.842 1423,748.842 " />
<polyline fill="none" vector-effect="non-scaling-stroke" points="38,715.88 1423,715.88 " />
<polyline fill="none" vector-effect="non-scaling-stroke" points="38,649.956 1423,649.956 " />
<polyline fill="none" vector-effect="non-scaling-stroke" points="38,616.994 1423,616.994 " />
<polyline fill="none" vector-effect="non-scaling-stroke" points="38,584.032 1423,584.032 " />
<polyline fill="none" vector-effect="non-scaling-stroke" points="38,551.07 1423,551.07 " />
<polyline fill="none" vector-effect="non-scaling-stroke" points="38,485.146 1423,485.146 " />
<polyline fill="none" vector-effect="non-scaling-stroke" points="38,452.184 1423,452.184 " />
<polyline fill="none" vector-effect="non-scaling-stroke" points="38,419.222 1423,419.222 " />
<polyline fill="none" vector-effect="non-scaling-stroke" points="38,386.26 1423,386.26 " />
<polyline fill="none" vector-effect="non-scaling-stroke" points="38,320.337 1423,320.337 " />
<polyline fill="none" vector-effect="non-scaling-stroke" points="38,287.375 1423,287.375 " />
<polyline fill="none" vector-effect="non-scaling-stroke" points="38,254.413 1423,254.413 " />
<polyline fill="none" vector-effect="non-scaling-stroke" points="38,221.451 1423,221.451 " />
<polyline fill="none" vector-effect="non-scaling-stroke" points="38,155.527 1423,155.527 " />
<polyline fill="none" vector-effect="non-scaling-stroke" points="38,122.565 1423,122.565 " />
<polyline fill="none" vector-effect="non-scaling-stroke" points="38,89.6029 1423,89.6029 " />
<polyline fill="none" vector-effect="non-scaling-stroke" points="38,56.641 1423,56.641 " />
<polyline fill="none" vector-effect="non-scaling-stroke" points="153.174,0 153.174,1038 " />
<polyline fill="none" vector-effect="non-scaling-stroke" points="362.041,0 362.041,1038 " />
<polyline fill="none" vector-effect="non-scaling-stroke" points="570.908,0 570.908,1038 " />
<polyline fill="none" vector-effect="non-scaling-stroke" points="779.775,0 779.775,1038 " />
<polyline fill="none" vector-effect="non-scaling-stroke" points="988.642,0 988.642,1038 " />
<polyline fill="none" vector-effect="non-scaling-stroke" points="1197.51,0 1197.51,1038 " />
<polyline fill="none" vector-effect="non-scaling-stroke" points="1406.38,0 1406.38,1038 " />
<polyline fill="none" vector-effect="non-scaling-stroke" points="38,1012.54 1423,1012.54 " />
<polyline fill="none" vector-effect="non-scaling-stroke" points="38,847.728 1423,847.728 " />
<polyline fill="none" vector-effect="non-scaling-stroke" points="38,682.918 1423,682.918 " />
<polyline fill="none" vector-effect="non-scaling-stroke" points="38,518.108 1423,518.108 " />
<polyline fill="none" vector-effect="non-scaling-stroke" points="38,353.298 1423,353.298 " />
<polyline fill="none" vector-effect="non-scaling-stroke" points="38,188.489 1423,188.489 " />
<polyline fill="none" vector-effect="non-scaling-stroke" points="38,23.679 1423,23.679 " />
</g>

<g fill="none" stroke="#000000" stroke-opacity="1" stroke-width="1" stroke-linecap="square" stroke-linejoin="bevel" transform="matrix(0.833333,0,0,0.833333,0,0)"
font-family="Ubuntu" font-size="12.2222" font-weight="400" font-style="normal" 
>
</g>

<g fill="none" stroke="#000000" stroke-opacity="1" stroke-width="1" stroke-linecap="square" stroke-linejoin="bevel" transform="matrix(0.833333,0,0,0.833333,0,0)"
font-family="Ubuntu" font-size="12.2222" font-weight="400" font-style="normal" 
>
</g>

<g fill="none" stroke="#17becf" stroke-opacity="1" stroke-width="1.3" stroke-linecap="square" stroke-linejoin="bevel" transform="matrix(0.833333,0,0,0.833333,0,0)"
font-family="Ubuntu" font-size="12.2222" font-weight="400" font-style="normal" 
>
<polyline fill="none" vector-effect="none" points="39,516.277 39.5251,516.277 40.0466,516.277 40.6715,516.277 41.1937,516.277 41.7178,516.277 42.2395,516.277 42.8663,516.277 43.3847,516.277 43.9097,516.277 44.5365,516.277 45.1631,516.277 45.6852,516.277 46.2074,516.277 46.8317,516.277 47.4604,516.277 47.982,516.277 48.5052,516.277 49.0255,516.277 49.6535,516.277 50.1756,516.277 50.6963,516.277 51.2198,516.277 51.8463,516.277 52.3679,516.277 52.89,516.277 53.5164,516.277 54.0397,516.277 54.5618,516.277 55.0825,516.277 55.7084,516.277 56.2339,516.277 56.8588,516.277 57.3809,516.277 57.9029,516.277 58.4248,516.277 59.0517,516.277 59.5722,516.277 60.0966,516.277 60.7232,516.277 61.2448,516.277 61.7689,516.277 62.2912,516.277 62.8127,516.277 63.4387,516.277 63.9625,516.277 64.483,516.277 65.1107,516.277 65.7368,516.277 66.257,516.277 66.7776,516.277 67.4079,516.277 67.9293,516.277 68.4511,516.277 69.0778,516.277 69.6001,516.277 70.1222,516.277 70.6422,516.277 71.2705,516.277 71.7929,516.277 72.3154,516.277 72.941,516.277 73.5665,516.277 74.0893,516.277 74.7165,516.277 75.3447,516.277 75.8649,516.277 76.4922,516.277 77.014,516.277 77.535,516.277 78.0568,516.277 78.6853,516.277 79.207,516.277 79.8345,516.277 80.3572,516.277 80.8783,516.277 81.4028,516.277 82.0264,516.277 82.5461,516.277 83.0687,516.277 83.6951,516.277 84.2186,516.277 84.7412,516.277 85.3682,516.277 85.8907,516.277 86.4142,516.277 87.0381,516.277 87.561,516.277 88.1867,516.277 88.7096,516.277 89.336,516.277 89.8585,516.277 90.3788,516.277 91.0078,516.277 91.5301,516.277 92.1567,516.277 92.6791,516.277 93.3059,516.277 93.8285,516.277 94.3474,516.277 95.0807,516.277 95.604,516.305 96.1248,516.644 96.6478,517.935 97.2731,520.444 97.6897,523.844 98.3194,529.753 98.9436,536.709 99.5724,545.661 100.093,554.599 100.824,566.172 101.347,577.23 101.868,589.125 102.39,600.876 102.912,614.248 103.435,628.2 103.957,642.786 104.585,658.998 105.213,674.429 105.626,690.129 106.151,706.056 106.671,720.816 107.299,738.154 107.822,754.152 108.342,770.089 108.866,785.738 109.389,801.136 110.014,816.159 110.642,831.971 111.165,847.21 111.79,861.794 112.312,875.797 112.836,888.162 113.461,900.803 113.983,911.886 114.504,921.44 115.132,931.883 115.653,940.89 116.177,949.254 116.699,957 117.222,963.485 117.744,970.431 118.369,976.231 118.891,981.163 119.518,986.624 120.039,990.726 120.665,994.945 121.188,997.773 121.71,1000.77 122.338,1003.32 122.861,1005.35 123.487,1007.29 124.009,1008.62 124.637,1009.85 125.155,1010.82 125.783,1011.56 126.305,1011.98 126.829,1012.27 127.351,1012.33 127.872,1012.13 128.603,1011.67 129.127,1011.02 129.647,1010.58 130.273,1010.15 130.795,1009.67 131.317,1009.32 131.84,1008.95 132.362,1008.51 132.991,1008.03 133.511,1007.6 134.139,1007.2 134.659,1006.75 135.184,1006.33 135.811,1005.93 136.332,1005.52 136.958,1004.99 137.48,1004.51 138.108,1004.1 138.734,1003.65 139.151,1003.19 139.569,1002.9 140.196,1002.48 140.718,1002.01 141.346,1001.52 141.867,1001.12 142.493,1000.7 143.015,1000.21 143.538,999.761 144.059,999.388 144.581,998.976 145.209,998.46 145.732,998.038 146.253,997.665 146.776,997.226 147.4,996.731 147.923,996.317 148.446,995.946 148.968,995.484 149.595,995.011 150.118,994.613 150.639,994.199 151.161,993.721 151.789,993.27 152.308,992.845 152.832,992.439 153.458,991.957 153.98,991.522 154.504,991.132 155.026,990.716 155.651,990.253 156.173,989.783 156.8,989.383 157.426,988.877 158.053,988.281 158.575,987.913 159.203,987.468 159.725,986.938 160.35,986.447 160.872,986.101 161.498,985.684 161.918,985.198 162.648,984.72 163.168,984.378 163.693,983.889 164.215,983.405 164.841,983.03 165.366,982.596 165.885,982.135 166.513,981.613 167.034,981.224 167.659,980.809 168.288,980.298 168.705,979.876 169.331,979.492 169.959,979.012 170.481,978.484 171.108,978.051 171.628,977.662 172.151,977.198 172.779,976.661 173.3,976.289 173.928,975.874 174.556,975.347 174.97,974.907 175.598,974.462 176.229,974.023 176.748,973.504 177.374,973.132 178.001,972.659 178.521,972.21 179.043,971.762 179.671,971.324 180.298,970.89 180.819,970.377 181.343,969.916 181.864,969.532 182.386,969.119 183.013,968.642 183.534,968.233 184.161,967.838 184.683,967.336 185.414,966.814 185.83,966.425 186.458,966.017 186.981,965.507 187.607,965.041 188.13,964.626 188.757,964.165 189.381,963.633 189.801,963.241 190.429,962.871 190.95,962.375 191.473,961.929 191.996,961.559 192.515,961.145 193.144,960.623 193.666,960.178 194.187,959.79 194.708,959.413 195.336,958.942 195.856,958.497 196.38,958.134 196.902,957.656 197.529,957.143 198.049,956.73 198.677,956.316 199.302,955.807 199.825,955.312 200.452,954.923 200.975,954.515 201.499,954.038 202.123,953.594 202.648,953.186 203.168,952.776 203.794,952.196 204.317,951.799 204.839,951.447 205.36,951.01 205.988,950.496 206.509,950.063 207.031,949.672 207.659,949.243 208.286,948.753 208.703,948.356 209.331,947.926 209.85,947.421 210.479,946.958 211.002,946.566 211.628,946.137 212.147,945.66 212.672,945.222 213.194,944.87 213.716,944.418 214.239,943.935 214.868,943.521 215.387,943.142 215.908,942.662 216.537,942.175 217.058,941.806 217.789,941.332 218.207,940.851 218.729,940.417 219.252,940.022 219.879,939.618 220.4,939.14 220.922,938.653 221.547,938.263 222.175,937.813 222.697,937.298 223.322,936.865 223.846,936.482 224.368,935.978 224.89,935.565 225.518,935.083 226.248,934.602 226.771,934.119 227.291,933.704 227.813,933.295 228.442,932.846 228.961,932.378 229.588,931.915 230.216,931.44 230.741,930.98 231.26,930.537 231.888,930.135 232.409,929.727 232.933,929.245 233.454,928.781 234.081,928.402 234.603,927.976 235.23,927.47 235.856,927.054 236.271,926.627 236.903,926.17 237.423,925.686 237.944,925.277 238.466,924.872 238.987,924.399 239.616,923.962 240.241,923.541 240.765,923.077 241.286,922.593 241.913,922.134 242.434,921.742 243.06,921.277 243.584,920.796 244.106,920.426 244.629,920.048 245.15,919.615 245.671,919.174 246.195,918.764 246.82,918.343 247.342,917.889 247.969,917.375 248.594,916.994 249.116,916.54 249.639,916.014 250.267,915.555 250.894,915.123 251.415,914.702 251.936,914.24 252.461,913.832 252.981,913.449 253.504,912.998 254.132,912.493 254.653,912.109 255.175,911.686 255.803,911.229 256.324,910.729 256.949,910.32 257.472,909.891 258.099,909.434 258.624,908.96 259.146,908.596 259.77,908.143 260.293,907.667 260.815,907.26 261.441,906.844 261.858,906.38 262.485,905.917 263.111,905.436 263.74,904.992 264.263,904.533 264.889,904.027 265.412,903.62 266.037,903.14 266.769,902.618 267.289,902.182 267.811,901.786 268.333,901.288 269.064,900.777 269.69,900.375 270.214,899.88 270.841,899.374 271.361,898.927 271.885,898.562 272.407,898.092 273.139,897.56 273.66,897.155 274.285,896.66 274.809,896.209 275.332,895.776 275.854,895.397 276.48,894.971 277.003,894.443 277.526,894.037 278.152,893.546 278.778,893.04 279.3,892.607 279.925,892.201 280.553,891.778 280.97,891.299 281.492,890.87 282.12,890.464 282.745,890.022 283.163,889.543 283.789,889.067 284.519,888.635 285.042,888.113 285.669,887.637 286.192,887.234 286.82,886.833 287.235,886.355 287.758,885.943 288.385,885.544 288.907,885.076 289.534,884.567 290.057,884.163 290.683,883.754 291.205,883.286 291.728,882.811 292.353,882.405 292.981,881.914 293.503,881.467 294.024,881.008 294.65,880.587 295.173,880.164 295.697,879.683 296.218,879.301 296.95,878.859 297.367,878.409 297.992,877.908 298.515,877.5 299.037,877.123 299.664,876.576 300.292,876.086 300.812,875.724 301.438,875.234 302.065,874.76 302.588,874.307 303.11,873.958 303.633,873.463 304.26,872.98 304.781,872.549 305.406,872.194 305.824,871.701 306.349,871.261 306.974,870.841 307.498,870.424 308.02,869.933 308.645,869.432 309.166,869.097 309.793,868.629 310.421,868.109 310.941,867.72 311.57,867.277 312.092,866.807 312.615,866.336 313.241,865.9 313.762,865.484 314.39,864.966 314.913,864.534 315.536,864.134 316.06,863.695 316.687,863.176 317.209,862.772 317.73,862.409 318.358,861.857 318.879,861.398 319.506,860.974 320.029,860.618 320.552,860.15 321.178,859.583 321.803,859.179 322.323,858.718 322.849,858.221 323.476,857.792 324.099,857.388 324.625,856.872 325.145,856.4 325.774,855.997 326.399,855.526 327.026,855.055 327.546,854.585 328.071,854.208 328.7,853.741 329.219,853.246 329.742,852.814 330.368,852.439 330.889,851.952 331.516,851.499 332.04,851.072 332.56,850.655 333.083,850.185 333.708,849.732 334.232,849.355 334.857,848.868 335.485,848.374 336.007,847.917 336.529,847.524 337.155,846.989 337.781,846.519 338.409,846.088 339.035,845.623 339.558,845.112 340.078,844.656 340.706,844.283 341.229,843.795 341.858,843.279 342.378,842.876 343.003,842.461 343.525,842.012 344.05,841.541 344.57,841.155 345.198,840.695 345.72,840.221 346.241,839.793 346.763,839.4 347.392,838.957 347.911,838.463 348.538,838.056 349.165,837.613 349.686,837.149 350.21,836.697 350.731,836.28 351.464,835.79 351.985,835.297 352.507,834.868 353.239,834.443 353.657,833.987 354.282,833.512 354.804,833.096 355.429,832.695 355.953,832.158 356.475,831.688 357.101,831.292 357.623,830.913 358.147,830.47 358.669,829.976 359.294,829.584 359.819,829.142 360.338,828.656 360.967,828.19 361.49,827.789 362.113,827.32 362.742,826.845 363.158,826.491 363.786,826.072 364.308,825.634 364.83,825.161 365.353,824.802 365.874,824.388 366.397,823.906 367.024,823.433 367.544,823.057 368.171,822.639 368.588,822.172 369.109,821.725 369.737,821.303 370.364,820.882 370.886,820.389 371.41,819.945 372.036,819.546 372.559,819.084 373.184,818.53 373.813,818.151 374.332,817.713 374.854,817.223 375.482,816.772 376.004,816.354 376.63,815.894 377.153,815.405 377.674,815 378.302,814.543 378.928,814.076 379.451,813.558 380.078,813.166 380.601,812.743 381.122,812.255 381.746,811.811 382.27,811.411 382.895,810.948 383.418,810.459 383.939,810.058 384.569,809.682 385.089,809.224 385.612,808.729 386.238,808.302 386.761,807.852 387.386,807.388 387.91,806.966 388.433,806.541 388.953,806.191 389.477,805.657 390.102,805.231 390.624,804.832 391.252,804.357 391.775,803.869 392.401,803.451 392.921,803.056 393.444,802.61 394.07,802.099 394.594,801.701 395.115,801.308 395.636,800.828 396.262,800.335 396.788,799.932 397.413,799.495 397.936,799.011 398.562,798.546 399.084,798.172 399.71,797.707 400.337,797.22 400.754,796.776 401.172,796.502 401.799,796.041 402.322,795.569 402.842,795.152 403.469,794.777 403.886,794.32 404.617,793.78 405.14,793.404 405.662,792.996 406.186,792.507 406.706,792.08 407.438,791.645 407.855,791.207 408.483,790.739 409.004,790.302 409.632,789.905 410.154,789.469 410.676,788.957 411.198,788.559 411.824,788.165 412.346,787.658 412.973,787.167 413.602,786.773 414.018,786.362 414.644,785.853 415.167,785.415 415.794,785.033 416.316,784.533 416.941,784.041 417.568,783.558 418.089,783.143 418.715,782.683 419.239,782.2 419.76,781.799 420.282,781.429 421.013,780.879 421.537,780.434 422.059,780.065 422.581,779.63 423.209,779.051 423.729,778.654 424.46,778.191 424.982,777.641 425.609,777.19 426.131,776.801 426.654,776.389 427.28,775.855 427.906,775.415 428.429,775.024 428.951,774.586 429.578,774.049 430.206,773.649 430.725,773.198 431.354,772.711 431.876,772.263 432.502,771.849 433.129,771.347 433.649,770.838 434.173,770.425 434.695,770.098 435.323,769.636 435.74,769.172 436.366,768.737 436.993,768.259 437.514,767.792 438.035,767.379 438.559,766.962 439.289,766.526 439.813,766.017 440.334,765.594 440.961,765.177 441.482,764.655 442.11,764.173 442.632,763.795 443.155,763.403 443.781,762.899 444.407,762.414 444.93,762.038 445.454,761.627 445.974,761.101 446.601,760.614 447.227,760.22 447.748,759.718 448.376,759.234 448.897,758.818 449.524,758.428 450.046,757.903 450.672,757.477 451.091,757.071 451.612,756.726 452.24,756.242 452.763,755.782 453.285,755.412 453.807,754.983 454.434,754.456 454.957,754.057 455.475,753.684 456.104,753.228 456.627,752.718 457.148,752.317 457.669,751.933 458.193,751.474 458.82,750.939 459.445,750.546 460.073,750.115 460.594,749.605 461.116,749.166 461.639,748.817 462.161,748.386 462.683,747.927 463.415,747.461 463.936,747.071 464.458,746.619 464.981,746.093 465.606,745.648 466.127,745.242 466.756,744.762 467.277,744.301 467.799,743.905 468.324,743.522 468.949,743.013 469.576,742.578 470.202,742.137 470.829,741.614 471.246,741.153 471.769,740.74 472.396,740.37 473.021,739.825 473.543,739.363 474.277,738.923 474.692,738.466 475.32,737.96 475.84,737.543 476.468,737.131 476.99,736.674 477.616,736.207 478.139,735.79 478.664,735.381 479.288,734.906 479.81,734.422 480.333,734.078 480.854,733.641 481.586,733.075 482.001,732.655 482.629,732.222 483.254,731.769 483.779,731.263 484.405,730.87 484.928,730.414 485.555,729.906 486.076,729.449 486.712,729.033 487.436,728.533 487.853,728.073 488.479,727.655 489,727.286 489.524,726.813 490.149,726.282 490.671,725.891 491.192,725.48 491.82,724.979 492.342,724.496 492.968,724.126 493.492,723.696 494.116,723.173 494.535,722.738 495.163,722.363 495.79,721.87 496.311,721.388 496.831,720.951 497.46,720.517 498.086,720.015 498.712,719.532 499.34,719.093 499.861,718.662 500.385,718.183 500.906,717.765 501.53,717.378 502.054,716.93 502.576,716.448 503.203,716.03 503.726,715.642 504.353,715.099 504.981,714.631 505.396,714.241 505.812,713.925 506.442,713.447 506.962,713.006 507.589,712.616 508.007,712.209 508.527,711.733 509.153,711.275 509.678,710.905 510.198,710.454 510.827,709.976 511.349,709.542 511.87,709.134 512.498,708.68 513.02,708.2 513.541,707.8 514.169,707.328 514.9,706.74 515.423,706.319 515.944,705.935 516.466,705.546 516.989,705.066 517.511,704.673 518.033,704.307 518.658,703.86 519.182,703.352 519.702,702.936 520.328,702.523 520.851,702.028 521.582,701.501 522.106,701.087 522.627,700.678 523.255,700.154 523.778,699.718 524.298,699.349 524.82,698.925 525.447,698.446 525.863,698.035 526.491,697.668 527.014,697.238 527.535,696.759 528.056,696.348 528.58,695.987 529.206,695.493 529.728,695.014 530.355,694.571 530.878,694.183 531.507,693.641 532.132,693.142 532.654,692.77 533.176,692.32 533.8,691.797 534.322,691.382 534.95,690.987 535.472,690.518 536.1,690.032 536.725,689.624 537.248,689.169 537.769,688.668 538.397,688.23 539.024,687.817 539.547,687.409 540.066,686.913 540.592,686.478 541.113,686.113 541.843,685.593 542.263,685.119 542.888,684.684 543.516,684.296 543.932,683.845 544.454,683.392 544.976,683.003 545.601,682.616 546.124,682.101 546.751,681.592 547.379,681.225 548.004,680.706 548.525,680.161 549.152,679.766 549.572,679.405 550.198,678.886 550.823,678.428 551.348,678.038 551.973,677.629 552.496,677.084 553.017,676.651 553.541,676.267 554.167,675.812 554.791,675.264 555.313,674.854 555.837,674.513 556.465,673.972 556.987,673.514 557.615,673.08 558.136,672.723 558.656,672.252 559.177,671.771 559.805,671.36 560.432,670.825 561.059,670.345 561.685,669.951 562.103,669.524 562.729,669.03 563.252,668.613 563.774,668.203 564.296,667.773 564.922,667.316 565.443,666.841 565.968,666.452 566.595,666.021 567.115,665.542 567.638,665.107 568.264,664.675 568.891,664.184 569.413,663.707 570.041,663.264 570.563,662.864 571.19,662.394 571.71,661.935 572.231,661.525 572.753,661.162 573.278,660.644 573.907,660.165 574.53,659.796 575.157,659.285 575.679,658.756 576.306,658.323 576.931,657.977 577.454,657.464 577.977,656.937 578.603,656.508 579.127,656.075 579.752,655.599 580.274,655.122 580.901,654.69 581.424,654.262 582.049,653.759 582.571,653.351 583.199,652.874 583.825,652.358 584.348,651.925 584.974,651.519 585.496,651.091 586.124,650.597 586.644,650.186 587.062,649.801 587.691,649.348 588.315,648.829 588.837,648.441 589.362,648.078 589.883,647.562 590.509,647.08 591.137,646.669 591.76,646.179 592.284,645.7 592.807,645.285 593.433,644.898 593.849,644.452 594.374,643.973 595.001,643.562 595.52,643.223 596.044,642.755 596.567,642.25 597.087,641.889 597.713,641.477 598.235,640.964 598.758,640.508 599.279,640.142 599.907,639.758 600.43,639.245 600.951,638.79 601.577,638.402 602.099,637.976 602.729,637.46 603.248,637.029 603.772,636.685 604.294,636.194 604.92,635.719 605.443,635.301 605.965,634.916 606.487,634.466 607.114,633.922 607.741,633.537 608.262,633.149 608.785,632.64 609.41,632.223 609.933,631.794 610.349,631.455 611.082,630.914 611.604,630.456 612.127,630.043 612.752,629.552 613.38,629.054 613.901,628.693 614.424,628.248 614.945,627.775 615.573,627.254 616.199,626.91 616.721,626.465 617.244,625.99 617.871,625.555 618.288,625.213 618.81,624.771 619.332,624.297 619.854,623.881 620.482,623.454 621.108,623.026 621.525,622.572 622.153,622.116 622.675,621.773 623.196,621.305 623.824,620.807 624.451,620.349 625.077,619.878 625.597,619.45 626.12,618.999 626.748,618.588 627.27,618.136 627.79,617.662 628.312,617.231 629.045,616.827 629.462,616.375 629.985,615.901 630.716,615.427 631.237,615.02 631.759,614.572 632.281,614.138 632.908,613.712 633.325,613.311 633.847,612.837 634.475,612.386 635.101,612.039 635.519,611.611 636.147,611.12 636.667,610.707 637.191,610.322 637.713,609.83 638.339,609.334 638.862,608.923 639.489,608.473 640.115,607.962 640.636,607.481 641.264,607.097 641.782,606.692 642.306,606.193 642.83,605.785 643.456,605.395 643.979,604.951 644.5,604.45 645.127,604.044 645.649,603.615 646.171,603.131 646.798,602.719 647.32,602.287 647.842,601.903 648.365,601.432 648.991,600.956 649.513,600.571 650.035,600.167 650.558,599.696 651.08,599.243 651.6,598.855 652.228,598.428 652.856,597.908 653.482,597.429 654.004,597.005 654.63,596.537 655.048,596.108 655.57,595.717 656.196,595.29 656.822,594.796 657.345,594.343 657.973,593.892 658.494,593.469 659.016,592.995 659.538,592.565 660.168,592.155 660.792,591.688 661.314,591.212 661.835,590.802 662.461,590.377 662.88,590.02 663.508,589.547 663.924,589.179 664.551,588.816 664.971,588.392 665.489,587.876 666.118,587.425 666.744,587.042 667.267,586.549 667.79,586.096 668.311,585.752 668.831,585.308 669.459,584.835 669.981,584.403 670.504,584.019 671.129,583.526 671.863,582.919 672.278,582.533 672.908,582.147 673.427,581.68 673.951,581.207 674.577,580.81 675.098,580.407 675.62,579.963 676.143,579.489 676.665,579.106 677.293,578.673 677.813,578.183 678.441,577.751 678.964,577.324 679.484,576.894 680.008,576.422 680.635,576.038 681.154,575.628 681.678,575.165 682.305,574.663 682.826,574.259 683.454,573.803 683.975,573.333 684.497,572.881 685.227,572.477 685.646,572.054 686.168,571.578 686.796,571.149 687.319,570.765 687.946,570.273 688.466,569.797 689.091,569.33 689.615,568.941 690.242,568.402 690.765,567.954 691.391,567.542 691.913,567.138 692.435,566.626 693.167,566.107 693.689,565.717 694.213,565.271 694.836,564.755 695.462,564.343 695.88,563.939 696.508,563.47 697.03,562.992 697.552,562.591 698.284,562.162 698.7,561.669 699.222,561.257 699.849,560.873 700.37,560.43 700.895,559.998 701.519,559.548 701.938,559.182 702.563,558.693 703.086,558.203 703.612,557.814 704.235,557.365 704.863,556.875 705.386,556.397 706.01,556.01 706.534,555.541 707.161,555.048 707.683,554.616 708.309,554.227 708.832,553.746 709.458,553.204 709.979,552.835 710.5,552.389 711.128,551.897 711.651,551.444 712.174,551.061 712.801,550.612 713.323,550.166 713.844,549.754 714.471,549.345 714.887,548.924 715.515,548.429 716.037,548 716.559,547.64 717.081,547.217 717.603,546.762 718.231,546.336 718.753,545.97 719.274,545.507 719.797,545.049 720.423,544.619 720.943,544.175 721.571,543.686 722.093,543.251 722.719,542.839 723.242,542.402 723.763,541.926 724.284,541.514 724.913,541.088 725.434,540.622 726.061,540.106 726.586,539.698 727.21,539.248 727.836,538.71 728.358,538.261 728.985,537.826 729.612,537.363 730.133,536.841 730.761,536.436 731.283,536.052 731.909,535.581 732.537,535.039 733.06,534.656 733.58,534.296 734.105,533.781 734.624,533.326 735.251,532.919 735.776,532.45 736.505,531.909 737.028,531.5 737.549,531.094 738.177,530.581 738.698,530.17 739.22,529.746 739.744,529.363 740.264,528.917 740.889,528.416 741.519,528.033 742.042,527.61 742.456,527.144 743.085,526.666 743.606,526.304 744.234,525.86 744.859,525.322 745.381,524.913 746.009,524.49 746.427,524.024 747.053,523.547 747.575,523.158 748.204,522.755 748.829,522.285 749.246,521.808 749.871,521.381 750.394,520.955 750.916,520.483 751.543,520.002 752.067,519.619 752.587,519.216 753.214,518.698 753.736,518.265 754.367,517.862 754.885,517.37 755.512,516.919 756.035,516.492 756.662,516.049 757.182,515.609 757.914,515.108 758.435,514.653 758.956,514.17 759.585,513.692 760.211,513.283 760.734,512.834 761.359,512.301 761.883,511.847 762.613,511.414 763.136,510.925 763.657,510.453 764.388,509.972 765.016,509.526 765.432,509.056 766.059,508.561 766.583,508.172 767.105,507.729 767.626,507.349 768.147,506.938 768.878,506.488 769.296,506.085 769.82,505.634 770.341,505.228 770.864,504.848 771.385,504.405 771.91,503.907 772.536,503.472 773.163,503.049 773.683,502.583 774.206,502.131 774.727,501.725 775.352,501.321 775.981,500.74 776.607,500.282 777.128,499.893 777.652,499.447 778.174,498.997 778.8,498.568 779.321,498.142 779.845,497.693 780.365,497.203 780.992,496.788 781.618,496.339 782.142,495.867 782.767,495.392 783.291,495.006 783.811,494.626 784.441,494.042 784.961,493.612 785.483,493.235 786.111,492.807 786.633,492.291 787.258,491.88 787.782,491.459 788.303,491.053 788.826,490.581 789.453,490.195 789.868,489.795 790.499,489.323 791.018,488.868 791.541,488.484 792.167,488.055 792.691,487.583 793.212,487.131 793.839,486.704 794.36,486.298 794.883,485.806 795.404,485.38 796.031,484.97 796.554,484.524 797.183,484.005 797.702,483.576 798.225,483.193 798.956,482.635 799.478,482.185 799.999,481.842 800.525,481.442 801.043,480.97 801.566,480.564 802.192,480.137 802.714,479.735 803.239,479.242 803.864,478.811 804.281,478.427 804.91,477.96 805.429,477.488 805.954,477.073 806.581,476.69 807.101,476.16 807.727,475.705 808.145,475.379 808.773,474.932 809.295,474.443 809.923,474.01 810.443,473.601 811.069,473.111 811.591,472.598 812.114,472.212 812.637,471.806 813.265,471.359 813.786,470.861 814.411,470.472 814.935,470.071 815.562,469.579 816.187,469.04 816.605,468.656 817.232,468.271 817.752,467.781 818.275,467.348 818.796,467.008 819.423,466.498 819.946,466.092 820.47,465.637 820.991,465.27 821.513,464.826 822.138,464.335 822.662,463.925 823.183,463.561 823.708,463.115 824.228,462.642 824.959,462.232 825.378,461.832 825.9,461.339 826.526,460.843 827.049,460.474 827.674,459.984 828.196,459.495 828.823,458.995 829.347,458.655 829.975,458.203 830.494,457.727 831.016,457.32 831.537,456.919 832.06,456.452 832.688,455.973 833.208,455.57 833.733,455.183 834.358,454.688 834.879,454.218 835.505,453.785 836.134,453.315 836.761,452.799 837.284,452.432 837.806,451.983 838.536,451.446 838.953,450.994 839.684,450.607 840.103,450.203 840.625,449.753 841.147,449.303 841.772,448.867 842.399,448.42 843.026,447.904 843.551,447.407 844.176,447.018 844.698,446.574 845.219,446.139 845.847,445.665 846.368,445.287 846.891,444.82 847.517,444.318 848.145,443.885 848.666,443.397 849.186,442.964 849.917,442.447 850.441,442.02 851.067,441.567 851.591,441.071 852.216,440.643 852.737,440.153 853.367,439.676 853.886,439.264 854.409,438.874 854.932,438.436 855.453,437.963 856.082,437.549 856.604,437.212 857.127,436.744 857.751,436.175 858.272,435.808 858.9,435.404 859.423,434.89 859.944,434.458 860.57,434.006 861.199,433.539 861.721,433.039 862.241,432.653 862.868,432.249 863.392,431.801 864.019,431.284 864.539,430.872 865.164,430.487 865.69,429.993 866.211,429.522 866.731,429.155 867.254,428.747 867.776,428.257 868.405,427.823 868.924,427.415 869.552,426.944 870.076,426.471 870.596,426.06 871.118,425.702 871.744,425.232 872.164,424.824 872.896,424.39 873.418,423.922 873.938,423.428 874.564,422.975 875.088,422.586 875.712,422.163 876.235,421.646 876.756,421.173 877.384,420.781 877.907,420.337 878.533,419.837 879.057,419.425 879.578,419.042 880.098,418.59 880.725,418.113 881.354,417.708 881.771,417.323 882.502,416.766 882.92,416.328 883.441,415.944 884.067,415.519 884.59,415.064 885.116,414.64 885.634,414.252 886.261,413.804 886.787,413.33 887.305,412.873 887.932,412.464 888.454,411.999 888.976,411.525 889.5,411.133 890.126,410.748 890.647,410.281 891.168,409.827 891.798,409.461 892.317,409.011 892.944,408.493 893.47,408.022 893.989,407.673 894.509,407.265 895.139,406.747 895.66,406.315 896.287,405.931 896.809,405.484 897.33,404.94 897.956,404.549 898.482,404.165 899.002,403.678 899.628,403.241 900.151,402.85 900.571,402.491 901.198,401.98 901.718,401.568 902.24,401.113 902.866,400.668 903.386,400.156 904.014,399.741 904.536,399.332 905.165,398.902 905.684,398.384 906.211,397.973 906.835,397.567 907.357,397.095 907.881,396.601 908.504,396.25 909.026,395.847 909.552,395.328 910.073,394.873 910.699,394.482 911.22,394.083 911.85,393.627 912.371,393.121 912.995,392.717 913.518,392.265 914.146,391.701 914.667,391.333 915.188,390.905 915.817,390.436 916.337,389.956 916.862,389.589 917.489,389.186 917.904,388.712 918.533,388.263 919.053,387.877 919.678,387.426 920.202,386.924 920.828,386.442 921.456,385.992 921.976,385.564 922.607,385.108 923.02,384.726 923.544,384.318 924.172,383.798 924.588,383.454 925.11,383.045 925.736,382.662 926.259,382.188 926.781,381.689 927.407,381.297 928.035,380.874 928.556,380.355 929.077,379.934 929.6,379.528 930.229,379.075 930.749,378.605 931.273,378.213 931.9,377.786 932.527,377.246 933.046,376.811 933.673,376.424 934.091,375.998 934.717,375.502 935.239,375.089 935.763,374.701 936.286,374.295 936.807,373.845 937.329,373.426 937.955,373.04 938.374,372.613 939,372.118 939.521,371.658 940.149,371.292 940.671,370.845 941.191,370.322 941.819,369.915 942.343,369.549 942.863,369.119 943.491,368.575 944.013,368.165 944.535,367.785 945.058,367.284 945.789,366.781 946.313,366.395 946.832,365.967 947.461,365.424 948.085,364.966 948.61,364.577 949.236,364.107 949.756,363.646 950.281,363.233 950.801,362.826 951.323,362.331 951.844,361.921 952.47,361.551 952.993,361.1 953.725,360.601 954.142,360.167 954.664,359.781 955.187,359.333 955.814,358.858 956.336,358.444 956.857,358.058 957.379,357.626 957.901,357.149 958.424,356.782 958.945,356.395 959.572,355.927 960.095,355.422 960.617,355.075 961.244,354.648 961.765,354.176 962.394,353.648 962.914,353.28 963.437,352.856 964.064,352.374 964.586,351.96 965.108,351.534 965.736,351.059 966.256,350.622 966.781,350.187 967.406,349.735 968.031,349.25 968.659,348.751 969.285,348.359 969.704,347.915 970.33,347.392 970.85,346.994 971.374,346.606 972.001,346.131 972.522,345.612 973.148,345.197 973.673,344.792 974.298,344.321 974.82,343.859 975.341,343.471 975.864,343.042 976.491,342.539 976.909,342.154 977.536,341.766 978.057,341.357 978.684,340.811 979.312,340.311 979.832,339.919 980.356,339.463 980.982,338.966 981.607,338.527 982.235,338.071 982.862,337.577 983.382,337.141 983.907,336.772 984.427,336.36 984.95,335.823 985.679,335.316 986.098,334.971 986.725,334.502 987.351,333.988 987.875,333.561 988.399,333.172 989.024,332.674 989.441,332.262 990.069,331.894 990.591,331.466 991.217,330.939 991.737,330.502 992.364,330.051 992.888,329.642 993.515,329.107 994.037,328.717 994.558,328.289 995.185,327.837 995.707,327.377 996.229,326.987 996.751,326.598 997.273,326.12 997.794,325.707 998.319,325.337 998.839,324.951 999.363,324.48 999.883,324.039 1000.51,323.632 1001.03,323.223 1001.55,322.762 1002.29,322.284 1002.7,321.889 1003.22,321.456 1003.85,320.937 1004.48,320.495 1005,320.041 1005.63,319.543 1006.15,319.125 1006.78,318.714 1007.3,318.304 1007.82,317.778 1008.45,317.34 1008.97,316.929 1009.49,316.494 1010.01,316.016 1010.64,315.615 1011.16,315.252 1011.69,314.8 1012.2,314.338 1012.73,313.927 1013.25,313.537 1013.88,313.04 1014.51,312.537 1015.03,312.146 1015.66,311.718 1016.07,311.255 1016.8,310.732 1017.33,310.321 1017.85,309.888 1018.47,309.364 1019,308.988 1019.52,308.62 1020.04,308.187 1020.67,307.616 1021.29,307.248 1021.81,306.812 1022.34,306.337 1022.96,305.87 1023.49,305.438 1024.11,305.006 1024.64,304.546 1025.16,304.144 1025.68,303.738 1026.31,303.28 1026.83,302.755 1027.35,302.342 1027.98,301.973 1028.5,301.498 1029.02,301.084 1029.54,300.645 1030.06,300.243 1030.69,299.738 1031.21,299.296 1031.73,298.924 1032.26,298.541 1032.88,298.06 1033.51,297.6 1033.93,297.212 1034.56,296.799 1035.18,296.231 1035.7,295.795 1036.23,295.426 1036.75,294.989 1037.38,294.481 1038.11,294.038 1038.52,293.614 1039.15,293.123 1039.67,292.642 1040.19,292.269 1040.82,291.81 1041.45,291.315 1041.87,290.896 1042.49,290.481 1043.12,290.003 1043.64,289.576 1044.16,289.187 1044.69,288.756 1045.31,288.229 1045.94,287.748 1046.57,287.331 1047.09,286.879 1047.61,286.372 1048.24,285.906 1048.86,285.472 1049.49,284.955 1050.01,284.51 1050.54,284.12 1051.16,283.709 1051.68,283.159 1052.31,282.67 1052.94,282.231 1053.56,281.712 1054.19,281.221 1054.71,280.831 1055.23,280.412 1055.86,279.929 1056.38,279.473 1056.91,279.097 1057.43,278.661 1058.06,278.161 1058.68,277.694 1059.2,277.324 1059.83,276.779 1060.35,276.316 1060.98,275.891 1061.61,275.394 1062.13,274.957 1062.65,274.491 1063.28,274.124 1063.8,273.67 1064.32,273.207 1064.95,272.742 1065.47,272.376 1066.09,271.851 1066.62,271.386 1067.24,270.944 1067.87,270.487 1068.39,269.979 1069.02,269.542 1069.54,269.165 1070.06,268.731 1070.59,268.263 1071.11,267.827 1071.84,267.394 1072.36,266.889 1072.88,266.397 1073.51,265.985 1074.03,265.597 1074.66,265.111 1075.18,264.622 1075.7,264.254 1076.33,263.782 1076.85,263.338 1077.37,262.914 1078,262.502 1078.52,262.043 1079.15,261.579 1079.67,261.158 1080.19,260.807 1080.71,260.286 1081.34,259.805 1081.76,259.456 1082.39,259.056 1082.91,258.554 1083.43,258.13 1083.95,257.757 1084.58,257.275 1085.21,256.748 1085.73,256.33 1086.25,255.954 1086.77,255.52 1087.4,255.016 1087.92,254.62 1088.44,254.242 1088.97,253.787 1089.59,253.348 1090.01,252.908 1090.64,252.517 1091.16,252.075 1091.78,251.539 1092.31,251.153 1092.83,250.762 1093.35,250.32 1093.98,249.789 1094.61,249.349 1095.23,248.906 1095.75,248.422 1096.28,248.022 1096.9,247.599 1097.43,247.151 1097.95,246.701 1098.47,246.341 1099.1,245.847 1099.62,245.356 1100.24,244.884 1100.77,244.469 1101.39,244.012 1101.91,243.5 1102.54,243.078 1103.06,242.72 1103.58,242.248 1104.21,241.779 1104.73,241.315 1105.36,240.923 1105.99,240.369 1106.41,239.971 1106.93,239.577 1107.55,239.137 1108.18,238.655 1108.7,238.189 1109.23,237.816 1109.85,237.353 1110.58,236.813 1111,236.419 1111.63,236.027 1112.15,235.49 1112.78,235.045 1113.3,234.653 1113.82,234.242 1114.34,233.728 1114.97,233.278 1115.6,232.855 1116.12,232.4 1116.64,231.917 1117.27,231.47 1117.79,231.074 1118.42,230.566 1118.94,230.095 1119.56,229.679 1120.19,229.177 1120.82,228.688 1121.34,228.26 1121.97,227.799 1122.49,227.355 1123.12,226.844 1123.64,226.469 1124.16,226.031 1124.79,225.527 1125.31,225.077 1125.94,224.702 1126.46,224.238 1127.09,223.77 1127.5,223.346 1128.02,222.952 1128.65,222.514 1129.17,222.042 1129.8,221.601 1130.32,221.21 1130.84,220.719 1131.36,220.251 1131.99,219.837 1132.62,219.407 1133.14,218.877 1133.66,218.503 1134.18,218.105 1134.92,217.642 1135.33,217.19 1135.85,216.749 1136.48,216.358 1137,215.89 1137.63,215.379 1138.15,214.937 1138.78,214.559 1139.3,214.096 1139.82,213.604 1140.45,213.163 1140.97,212.768 1141.6,212.186 1142.23,211.784 1142.75,211.389 1143.27,210.99 1143.79,210.504 1144.31,210.127 1144.94,209.708 1145.46,209.245 1146.09,208.723 1146.61,208.328 1147.13,207.932 1147.76,207.438 1148.28,206.99 1148.81,206.594 1149.43,206.132 1150.06,205.593 1150.58,205.164 1151.1,204.815 1151.62,204.357 1152.25,203.842 1152.77,203.438 1153.29,203.073 1153.82,202.6 1154.44,202.114 1154.97,201.75 1155.49,201.34 1156.12,200.796 1156.64,200.368 1157.16,199.992 1157.79,199.554 1158.31,199.083 1158.83,198.68 1159.35,198.287 1159.98,197.799 1160.5,197.266 1161.13,196.863 1161.65,196.48 1162.28,195.929 1162.8,195.477 1163.43,195.077 1163.95,194.681 1164.47,194.209 1165.1,193.716 1165.62,193.32 1166.14,192.877 1166.77,192.383 1167.39,191.96 1167.81,191.585 1168.33,191.136 1168.96,190.665 1169.48,190.238 1170.11,189.841 1170.63,189.332 1171.36,188.817 1171.89,188.457 1172.41,187.968 1172.93,187.495 1173.45,187.089 1174.08,186.697 1174.6,186.226 1175.23,185.7 1175.75,185.298 1176.38,184.833 1177,184.3 1177.53,183.869 1178.15,183.495 1178.78,183.001 1179.2,182.531 1179.82,182.099 1180.34,181.732 1180.87,181.247 1181.49,180.772 1182.02,180.368 1182.64,179.988 1183.27,179.433 1183.79,178.979 1184.31,178.582 1184.94,178.14 1185.56,177.615 1185.98,177.205 1186.51,176.808 1187.13,176.362 1187.65,175.921 1188.18,175.513 1188.8,175.136 1189.22,174.668 1189.74,174.199 1190.37,173.767 1191,173.344 1191.52,172.85 1192.04,172.399 1192.67,172 1193.19,171.604 1193.82,171.04 1194.34,170.601 1194.96,170.227 1195.49,169.784 1196.01,169.357 1196.64,168.881 1197.16,168.513 1197.78,167.95 1198.31,167.465 1198.93,167.045 1199.56,166.554 1200.19,166.006 1200.81,165.554 1201.34,165.157 1201.86,164.701 1202.48,164.188 1203.11,163.735 1203.84,163.237 1204.26,162.743 1204.89,162.34 1205.41,161.945 1205.93,161.5 1206.56,160.997 1207.18,160.569 1207.71,160.142 1208.33,159.625 1208.85,159.175 1209.38,158.769 1210,158.349 1210.53,157.824 1211.15,157.392 1211.78,156.944 1212.41,156.382 1212.93,155.923 1213.45,155.542 1214.08,155.075 1214.7,154.574 1215.23,154.167 1215.75,153.767 1216.37,153.287 1217,152.744 1217.63,152.312 1218.15,151.884 1218.67,151.396 1219.3,150.944 1219.82,150.54 1220.45,150.113 1221.07,149.562 1221.59,149.086 1222.22,148.707 1222.85,148.165 1223.37,147.714 1224,147.265 1224.52,146.86 1225.25,146.311 1225.77,145.86 1226.4,145.434 1226.82,144.988 1227.44,144.492 1227.97,144.111 1228.49,143.685 1229.01,143.255 1229.64,142.732 1230.26,142.326 1230.79,141.9 1231.41,141.38 1231.94,140.971 1232.46,140.605 1233.08,140.111 1233.61,139.658 1234.13,139.254 1234.65,138.886 1235.17,138.422 1235.69,137.939 1236.43,137.484 1236.95,137.103 1237.47,136.646 1237.99,136.129 1238.52,135.813 1239.04,135.411 1239.56,134.938 1240.19,134.41 1240.81,134.002 1241.33,133.579 1241.96,133.098 1242.59,132.621 1243.11,132.192 1243.84,131.628 1244.36,131.171 1244.88,130.764 1245.51,130.318 1246.03,129.843 1246.55,129.402 1247.18,128.98 1247.71,128.526 1248.23,128.068 1248.96,127.594 1249.58,127.115 1250.21,126.589 1250.73,126.138 1251.25,125.749 1251.88,125.306 1252.4,124.748 1253.03,124.366 1253.55,123.978 1254.07,123.527 1254.7,123.071 1255.12,122.665 1255.74,122.27 1256.27,121.79 1256.79,121.33 1257.42,120.936 1257.94,120.488 1258.46,120.008 1259.09,119.523 1259.61,119.129 1260.23,118.695 1260.86,118.166 1261.38,117.737 1262.01,117.327 1262.53,116.803 1263.05,116.372 1263.68,115.984 1264.21,115.56 1264.72,115.08 1265.25,114.665 1265.87,114.237 1266.4,113.787 1267.02,113.278 1267.65,112.822 1268.17,112.432 1268.69,111.96 1269.22,111.471 1269.84,111.091 1270.37,110.684 1270.89,110.208 1271.51,109.748 1272.04,109.359 1272.56,108.936 1273.08,108.46 1273.7,107.969 1274.33,107.59 1274.86,107.131 1275.48,106.601 1276,106.216 1276.63,105.805 1277.15,105.255 1277.78,104.817 1278.3,104.431 1278.93,104.002 1279.35,103.522 1279.97,103.014 1280.6,102.624 1281.12,102.172 1281.75,101.671 1282.37,101.233 1283.1,100.731 1283.52,100.204 1284.15,99.7603 1284.78,99.3494 1285.3,98.9012 1285.82,98.4087 1286.45,97.9286 1287.07,97.5461 1287.6,97.0219 1288.22,96.5671 1288.74,96.2046 1289.27,95.8099 1289.79,95.3071 1290.42,94.8467 1290.84,94.508 1291.57,94.0361 1292.09,93.4805 1292.61,93.1111 1293.34,92.6759 1293.76,92.2457 1294.28,91.7631 1294.8,91.3718 1295.32,90.9889 1295.85,90.5128 1296.37,90.0668 1297,89.6717 1297.62,89.2428 1298.04,88.7598 1298.67,88.2939 1299.19,87.9142 1299.81,87.4529 1300.34,86.946 1300.86,86.5322 1301.49,86.1385 1302.01,85.6859 1302.63,85.2041 1303.26,84.7465 1303.78,84.3306 1304.41,83.8066 1304.93,83.3416 1305.56,82.9075 1306.08,82.4526 1306.81,81.9161 1307.33,81.5019 1307.86,81.0892 1308.39,80.6145 1309.01,80.1037 1309.63,79.7039 1310.16,79.2763 1310.68,78.8053 1311.3,78.3215 1311.93,77.9305 1312.45,77.4901 1313.08,76.9677 1313.6,76.5699 1314.23,76.1294 1314.75,75.6544 1315.38,75.1246 1315.9,74.7444 1316.52,74.3673 1316.94,73.901 1317.46,73.4458 1317.99,73.0928 1318.61,72.6134 1319.24,72.0886 1319.76,71.6202 1320.39,71.2287 1321.02,70.7546 1321.43,70.2915 1322.06,69.9274 1322.58,69.5335 1323.1,69.0759 1323.63,68.5838 1324.25,68.1891 1324.88,67.7588 1325.3,67.2713 1325.93,66.832 1326.44,66.4215 1326.97,65.9841 1327.59,65.513 1328.12,65.1216 1328.74,64.724 1329.16,64.2658 1329.79,63.7603 1330.31,63.3377 1330.93,62.8594 1331.56,62.3736 1332.09,61.9357 1332.61,61.5563 1333.23,61.0795 1333.75,60.6079 1334.38,60.1465 1334.91,59.7596 1335.53,59.319 1336.05,58.811 1336.58,58.3966 1337.2,57.9854 1337.73,57.5139 1338.25,57.0476 1338.77,56.6586 1339.29,56.2948 1339.92,55.7832 1340.44,55.3388 1340.96,54.9517 1341.59,54.5129 1342.11,54.0023 1342.63,53.582 1343.15,53.2646 1343.68,52.8396 1344.3,52.2813 1344.93,51.8888 1345.35,51.4994 1345.98,51.0777 1346.39,50.6051 1347.02,50.1962 1347.54,49.7955 1348.27,49.2642 1348.69,48.8207 1349.21,48.4201 1349.84,47.9421 1350.36,47.4752 1350.99,47.0355 1351.51,46.6789 1352.03,46.1879 1352.66,45.7128 1353.29,45.29 1353.7,44.9001 1354.43,44.3368 1355.06,43.8495 1355.58,43.4042 1356.1,42.9938 1356.73,42.5189 1357.25,42.0347 1357.88,41.619 1358.51,41.1528 1359.13,40.6266 1359.65,40.207 1360.18,39.8146 1360.91,39.2993 1361.33,38.8575 1361.95,38.4395 1362.47,38.0004 1363.1,37.5557 1363.62,37.1068 1364.04,36.7559 1364.67,36.2951 1365.29,35.739 1365.92,35.313 1366.34,34.9202 1367.07,34.3813 1367.59,33.939 1368.11,33.5432 1368.74,33.0978 1369.26,32.6253 1369.89,32.1362 1370.41,31.7454 1371.04,31.3058 1371.46,30.8167 1371.98,30.4248 1372.5,30.0765 1373.02,29.6495 1373.65,29.1405 1374.17,28.7379 1374.8,28.2948 1375.32,27.8069 1375.95,27.358 1376.47,26.9449 1376.99,26.5271 1377.51,26.0561 1378.14,25.7262 1378.66,25.6667 1379.18,26.0198 1379.81,26.6936 1380.44,27.1494 1380.86,28.0602 1381.38,29.2791 1382.01,30.9249 1382.53,32.9476 1383.05,35.3126 1383.57,38.2689 1384.2,41.929 1384.72,46.0778 1385.35,51.1143 1385.87,56.5241 1386.39,62.1152 1386.91,68.9827 1387.43,76.0279 1388.06,85.9551 1388.58,95.3743 1389.11,105.677 1389.63,116.077 1390.15,128.124 1390.78,142.141 1391.3,157.174 1391.92,171.908 1392.45,187.482 1392.97,203.735 1393.6,221.893 1394.12,239.23 1394.64,257.202 1395.16,275.362 1395.58,289.517 1396.1,308.013 1396.73,326.385 1397.25,344.754 1397.78,362.815 1398.4,381.768 1398.92,401.365 1399.55,417.554 1400.07,433.03 1400.59,447.444 1401.11,460.825 1401.74,473.869 1402.37,485.331 1402.89,494.485 1403.41,502.104 1404.04,508.423 1404.56,512.475 1405.08,514.936 1405.71,515.876 1406.23,516.193 1406.76,516.251 1407.38,516.281 1407.9,516.281 1408.42,516.281 1408.95,516.309 1409.57,516.309 1410.2,516.277 1410.72,516.277 1411.35,516.277 1411.87,516.277 1412.5,516.277 1413.02,516.277 1413.54,516.279 1414.17,516.279 1414.69,516.279 1415.22,516.276 1415.74,516.279 1416.26,516.276 1416.78,516.276 1417.41,516.276 1417.93,516.276 1418.56,516.276 1419.08,516.276 1419.7,516.276 1420.33,516.276 1420.86,516.276 1421.48,516.276 1422,516.276 " />
</g>

<g fill="none" stroke="#000000" stroke-opacity="1" stroke-width="1" stroke-linecap="square" stroke-linejoin="bevel" transform="matrix(0.833333,0,0,0.833333,0,0)"
font-family="Ubuntu" font-size="12.2222" font-weight="400" font-style="normal" 
>
</g>

<g fill="none" stroke="#000000" stroke-opacity="1" stroke-width="1" stroke-linecap="square" stroke-linejoin="bevel" transform="matrix(0.833333,0,0,0.833333,0,0)"
font-family="Ubuntu" font-size="12.2222" font-weight="400" font-style="normal" 
>
</g>

<g fill="none" stroke="#000000" stroke-opacity="1" stroke-width="1" stroke-linecap="square" stroke-linejoin="bevel" transform="matrix(0.833333,0,0,0.833333,0,0)"
font-family="Ubuntu" font-size="12.2222" font-weight="400" font-style="normal" 
>
</g>

<g fill="none" stroke="#111111" stroke-opacity="1" stroke-width="1" stroke-linecap="square" stroke-linejoin="bevel" transform="matrix(0.833333,0,0,0.833333,0,0)"
font-family="Ubuntu" font-size="12.2222" font-weight="400" font-style="normal" 
>
<rect x="1173" y="10" width="242" height="23"/>
</g>

<g fill="none" stroke="#000000" stroke-opacity="1" stroke-width="1" stroke-linecap="square" stroke-linejoin="bevel" transform="matrix(0.833333,0,0,0.833333,0,0)"
font-family="Ubuntu" font-size="12.2222" font-weight="400" font-style="normal" 
>
</g>

<g fill="none" stroke="#000000" stroke-opacity="1" stroke-width="1" stroke-linecap="square" stroke-linejoin="bevel" transform="matrix(0.833333,0,0,0.833333,0,0)"
font-family="Ubuntu" font-size="12.2222" font-weight="400" font-style="normal" 
>
</g>

<g fill="none" stroke="#000000" stroke-opacity="1" stroke-width="1" stroke-linecap="square" stroke-linejoin="bevel" transform="matrix(0.833333,0,0,0.833333,980.833,14.1667)"
font-family="Ubuntu" font-size="12.2222" font-weight="400" font-style="normal" 
>
</g>

<g fill="#17becf" fill-opacity="1" stroke="none" transform="matrix(0.833333,0,0,0.833333,0,0)"
font-family="Ubuntu" font-size="12.2222" font-weight="400" font-style="normal" 
>
<path vector-effect="none" fill-rule="evenodd" d="M1177,17 L1185,17 L1185,25 L1177,25 L1177,17"/>
</g>

<g fill="none" stroke="#000000" stroke-opacity="1" stroke-width="1" stroke-linecap="square" stroke-linejoin="bevel" transform="matrix(0.833333,0,0,0.833333,980.833,14.1667)"
font-family="Ubuntu" font-size="12.2222" font-weight="400" font-style="normal" 
>
</g>

<g fill="none" stroke="#111111" stroke-opacity="1" stroke-width="1" stroke-linecap="square" stroke-linejoin="bevel" transform="matrix(0.833333,0,0,0.833333,0,0)"
font-family="Ubuntu" font-size="10" font-weight="400" font-style="normal" 
>
</g>

<g fill="none" stroke="#111111" stroke-opacity="1" stroke-width="1" stroke-linecap="square" stroke-linejoin="bevel" transform="matrix(0.833333,0,0,0.833333,0,0)"
font-family="Ubuntu" font-size="12" font-weight="400" font-style="normal" 
>
<text fill="#111111" fill-opacity="1" stroke="none" xml:space="preserve" x="1186" y="26" font-family="Ubuntu" font-size="12" font-weight="400" font-style="normal" 
 >/world_to_torch/transform/translation/y</text>
</g>

<g fill="none" stroke="#111111" stroke-opacity="1" stroke-width="1" stroke-linecap="square" stroke-linejoin="bevel" transform="matrix(0.833333,0,0,0.833333,0,0)"
font-family="Ubuntu" font-size="10" font-weight="400" font-style="normal" 
>
</g>

<g fill="none" stroke="#111111" stroke-opacity="1" stroke-width="1" stroke-linecap="square" stroke-linejoin="bevel" transform="matrix(0.833333,0,0,0.833333,0,0)"
font-family="Ubuntu" font-size="10" font-weight="400" font-style="normal" 
>
</g>

<g fill="none" stroke="#111111" stroke-opacity="1" stroke-width="1" stroke-linecap="square" stroke-linejoin="bevel" transform="matrix(0.833333,0,0,0.833333,0,0)"
font-family="Ubuntu" font-size="10" font-weight="400" font-style="normal" 
>
</g>

<g fill="none" stroke="#111111" stroke-opacity="1" stroke-width="1" stroke-linecap="square" stroke-linejoin="bevel" transform="matrix(0.833333,0,0,0.833333,0,0)"
font-family="Ubuntu" font-size="10" font-weight="400" font-style="normal" 
>
</g>

<g fill="none" stroke="#000000" stroke-opacity="1" stroke-width="1" stroke-linecap="square" stroke-linejoin="bevel" transform="matrix(0.833333,0,0,0.833333,0,0)"
font-family="Ubuntu" font-size="12.2222" font-weight="400" font-style="normal" 
>
</g>

<g fill="#ffffff" fill-opacity="1" stroke="#111111" stroke-opacity="1" stroke-width="1" stroke-linecap="square" stroke-linejoin="bevel" transform="matrix(0.833333,0,0,0.833333,0,0)"
font-family="Ubuntu" font-size="12.2222" font-weight="400" font-style="normal" 
>
<circle cx="1443" cy="10" r="5"/>
</g>

<g fill="none" stroke="#000000" stroke-opacity="1" stroke-width="1" stroke-linecap="square" stroke-linejoin="bevel" transform="matrix(0.833333,0,0,0.833333,0,0)"
font-family="Ubuntu" font-size="12.2222" font-weight="400" font-style="normal" 
>
</g>

<g fill="none" stroke="#000000" stroke-opacity="1" stroke-width="1" stroke-linecap="square" stroke-linejoin="bevel" transform="matrix(0.833333,0,0,0.833333,0,0)"
font-family="Ubuntu" font-size="12.2222" font-weight="400" font-style="normal" 
>
</g>

<g fill="none" stroke="#000000" stroke-opacity="1" stroke-width="1" stroke-linecap="square" stroke-linejoin="bevel" transform="matrix(0.833333,0,0,0.833333,0,0)"
font-family="Ubuntu" font-size="12.2222" font-weight="400" font-style="normal" 
>
</g>

<g fill="none" stroke="#111111" stroke-opacity="1" stroke-width="1" stroke-linecap="square" stroke-linejoin="bevel" transform="matrix(0,-0.833333,0.833333,0,0,864.167)"
font-family="Ubuntu" font-size="11.1111" font-weight="400" font-style="normal" 
>
</g>

<g fill="none" stroke="#111111" stroke-opacity="1" stroke-width="1" stroke-linecap="square" stroke-linejoin="bevel" transform="matrix(0,-0.833333,0.833333,0,0,864.167)"
font-family="Ubuntu" font-size="13.3333" font-weight="700" font-style="normal" 
>
</g>

<g fill="none" stroke="#111111" stroke-opacity="1" stroke-width="1" stroke-linecap="square" stroke-linejoin="bevel" transform="matrix(0,-0.833333,0.833333,0,0,864.167)"
font-family="Ubuntu" font-size="13.3333" font-weight="700" font-style="normal" 
>
</g>

<g fill="none" stroke="#111111" stroke-opacity="1" stroke-width="1" stroke-linecap="square" stroke-linejoin="bevel" transform="matrix(0,-0.833333,0.833333,0,0,864.167)"
font-family="Ubuntu" font-size="11.1111" font-weight="400" font-style="normal" 
>
</g>

<g fill="none" stroke="#000000" stroke-opacity="1" stroke-width="1" stroke-linecap="square" stroke-linejoin="bevel" transform="matrix(0.833333,0,0,0.833333,0,0)"
font-family="Ubuntu" font-size="12.2222" font-weight="400" font-style="normal" 
>
</g>

<g fill="none" stroke="#000000" stroke-opacity="1" stroke-width="1" stroke-linecap="square" stroke-linejoin="bevel" transform="matrix(0.833333,0,0,0.833333,0,0)"
font-family="Ubuntu" font-size="11.1111" font-weight="400" font-style="normal" 
>
</g>

<g fill="none" stroke="#000000" stroke-opacity="1" stroke-width="1" stroke-linecap="square" stroke-linejoin="bevel" transform="matrix(0.833333,0,0,0.833333,0,0)"
font-family="Ubuntu" font-size="11.1111" font-weight="400" font-style="normal" 
>
</g>

<g fill="none" stroke="#111111" stroke-opacity="1" stroke-width="1" stroke-linecap="square" stroke-linejoin="bevel" transform="matrix(0.833333,0,0,0.833333,0,0)"
font-family="Ubuntu" font-size="11.1111" font-weight="400" font-style="normal" 
>
</g>

<g fill="none" stroke="#111111" stroke-opacity="1" stroke-width="1" stroke-linecap="square" stroke-linejoin="bevel" transform="matrix(0.833333,0,0,0.833333,0.234375,839.614)"
font-family="Ubuntu" font-size="11.1111" font-weight="400" font-style="normal" 
>
</g>

<g fill="none" stroke="#111111" stroke-opacity="1" stroke-width="1" stroke-linecap="square" stroke-linejoin="bevel" transform="matrix(0.833333,0,0,0.833333,0.234375,839.614)"
font-family="Ubuntu" font-size="13" font-weight="400" font-style="normal" 
>
</g>

<g fill="none" stroke="#111111" stroke-opacity="1" stroke-width="1" stroke-linecap="square" stroke-linejoin="bevel" transform="matrix(0.833333,0,0,0.833333,0.234375,839.614)"
font-family="Ubuntu" font-size="13" font-weight="400" font-style="normal" 
>
<text fill="#111111" fill-opacity="1" stroke="none" xml:space="preserve" x="0" y="10" font-family="Ubuntu" font-size="13" font-weight="400" font-style="normal" 
 >-0.3</text>
</g>

<g fill="none" stroke="#111111" stroke-opacity="1" stroke-width="1" stroke-linecap="square" stroke-linejoin="bevel" transform="matrix(0.833333,0,0,0.833333,0.234375,839.614)"
font-family="Ubuntu" font-size="11.1111" font-weight="400" font-style="normal" 
>
</g>

<g fill="none" stroke="#111111" stroke-opacity="1" stroke-width="1" stroke-linecap="square" stroke-linejoin="bevel" transform="matrix(0.833333,0,0,0.833333,0.234375,839.614)"
font-family="Ubuntu" font-size="11.1111" font-weight="400" font-style="normal" 
>
</g>

<g fill="none" stroke="#111111" stroke-opacity="1" stroke-width="1" stroke-linecap="square" stroke-linejoin="bevel" transform="matrix(0.833333,0,0,0.833333,0,0)"
font-family="Ubuntu" font-size="11.1111" font-weight="400" font-style="normal" 
>
</g>

<g fill="none" stroke="#111111" stroke-opacity="1" stroke-width="1" stroke-linecap="square" stroke-linejoin="bevel" transform="matrix(0.833333,0,0,0.833333,0.234375,702.273)"
font-family="Ubuntu" font-size="11.1111" font-weight="400" font-style="normal" 
>
</g>

<g fill="none" stroke="#111111" stroke-opacity="1" stroke-width="1" stroke-linecap="square" stroke-linejoin="bevel" transform="matrix(0.833333,0,0,0.833333,0.234375,702.273)"
font-family="Ubuntu" font-size="13" font-weight="400" font-style="normal" 
>
</g>

<g fill="none" stroke="#111111" stroke-opacity="1" stroke-width="1" stroke-linecap="square" stroke-linejoin="bevel" transform="matrix(0.833333,0,0,0.833333,0.234375,702.273)"
font-family="Ubuntu" font-size="13" font-weight="400" font-style="normal" 
>
<text fill="#111111" fill-opacity="1" stroke="none" xml:space="preserve" x="0" y="10" font-family="Ubuntu" font-size="13" font-weight="400" font-style="normal" 
 >-0.2</text>
</g>

<g fill="none" stroke="#111111" stroke-opacity="1" stroke-width="1" stroke-linecap="square" stroke-linejoin="bevel" transform="matrix(0.833333,0,0,0.833333,0.234375,702.273)"
font-family="Ubuntu" font-size="11.1111" font-weight="400" font-style="normal" 
>
</g>

<g fill="none" stroke="#111111" stroke-opacity="1" stroke-width="1" stroke-linecap="square" stroke-linejoin="bevel" transform="matrix(0.833333,0,0,0.833333,0.234375,702.273)"
font-family="Ubuntu" font-size="11.1111" font-weight="400" font-style="normal" 
>
</g>

<g fill="none" stroke="#111111" stroke-opacity="1" stroke-width="1" stroke-linecap="square" stroke-linejoin="bevel" transform="matrix(0.833333,0,0,0.833333,0,0)"
font-family="Ubuntu" font-size="11.1111" font-weight="400" font-style="normal" 
>
</g>

<g fill="none" stroke="#111111" stroke-opacity="1" stroke-width="1" stroke-linecap="square" stroke-linejoin="bevel" transform="matrix(0.833333,0,0,0.833333,0.234375,564.932)"
font-family="Ubuntu" font-size="11.1111" font-weight="400" font-style="normal" 
>
</g>

<g fill="none" stroke="#111111" stroke-opacity="1" stroke-width="1" stroke-linecap="square" stroke-linejoin="bevel" transform="matrix(0.833333,0,0,0.833333,0.234375,564.932)"
font-family="Ubuntu" font-size="13" font-weight="400" font-style="normal" 
>
</g>

<g fill="none" stroke="#111111" stroke-opacity="1" stroke-width="1" stroke-linecap="square" stroke-linejoin="bevel" transform="matrix(0.833333,0,0,0.833333,0.234375,564.932)"
font-family="Ubuntu" font-size="13" font-weight="400" font-style="normal" 
>
<text fill="#111111" fill-opacity="1" stroke="none" xml:space="preserve" x="0" y="10" font-family="Ubuntu" font-size="13" font-weight="400" font-style="normal" 
 >-0.1</text>
</g>

<g fill="none" stroke="#111111" stroke-opacity="1" stroke-width="1" stroke-linecap="square" stroke-linejoin="bevel" transform="matrix(0.833333,0,0,0.833333,0.234375,564.932)"
font-family="Ubuntu" font-size="11.1111" font-weight="400" font-style="normal" 
>
</g>

<g fill="none" stroke="#111111" stroke-opacity="1" stroke-width="1" stroke-linecap="square" stroke-linejoin="bevel" transform="matrix(0.833333,0,0,0.833333,0.234375,564.932)"
font-family="Ubuntu" font-size="11.1111" font-weight="400" font-style="normal" 
>
</g>

<g fill="none" stroke="#111111" stroke-opacity="1" stroke-width="1" stroke-linecap="square" stroke-linejoin="bevel" transform="matrix(0.833333,0,0,0.833333,0,0)"
font-family="Ubuntu" font-size="11.1111" font-weight="400" font-style="normal" 
>
</g>

<g fill="none" stroke="#111111" stroke-opacity="1" stroke-width="1" stroke-linecap="square" stroke-linejoin="bevel" transform="matrix(0.833333,0,0,0.833333,12.2266,427.59)"
font-family="Ubuntu" font-size="11.1111" font-weight="400" font-style="normal" 
>
</g>

<g fill="none" stroke="#111111" stroke-opacity="1" stroke-width="1" stroke-linecap="square" stroke-linejoin="bevel" transform="matrix(0.833333,0,0,0.833333,12.2266,427.59)"
font-family="Ubuntu" font-size="13" font-weight="400" font-style="normal" 
>
</g>

<g fill="none" stroke="#111111" stroke-opacity="1" stroke-width="1" stroke-linecap="square" stroke-linejoin="bevel" transform="matrix(0.833333,0,0,0.833333,12.2266,427.59)"
font-family="Ubuntu" font-size="13" font-weight="400" font-style="normal" 
>
</g>

<g fill="none" stroke="#111111" stroke-opacity="1" stroke-width="1" stroke-linecap="square" stroke-linejoin="bevel" transform="matrix(0.833333,0,0,0.833333,12.2266,427.59)"
font-family="Ubuntu" font-size="13" font-weight="400" font-style="normal" 
>
<text fill="#111111" fill-opacity="1" stroke="none" xml:space="preserve" x="0" y="10" font-family="Ubuntu" font-size="13" font-weight="400" font-style="normal" 
 >0</text>
</g>

<g fill="none" stroke="#111111" stroke-opacity="1" stroke-width="1" stroke-linecap="square" stroke-linejoin="bevel" transform="matrix(0.833333,0,0,0.833333,12.2266,427.59)"
font-family="Ubuntu" font-size="13" font-weight="400" font-style="normal" 
>
</g>

<g fill="none" stroke="#111111" stroke-opacity="1" stroke-width="1" stroke-linecap="square" stroke-linejoin="bevel" transform="matrix(0.833333,0,0,0.833333,12.2266,427.59)"
font-family="Ubuntu" font-size="11.1111" font-weight="400" font-style="normal" 
>
</g>

<g fill="none" stroke="#111111" stroke-opacity="1" stroke-width="1" stroke-linecap="square" stroke-linejoin="bevel" transform="matrix(0.833333,0,0,0.833333,12.2266,427.59)"
font-family="Ubuntu" font-size="11.1111" font-weight="400" font-style="normal" 
>
</g>

<g fill="none" stroke="#111111" stroke-opacity="1" stroke-width="1" stroke-linecap="square" stroke-linejoin="bevel" transform="matrix(0.833333,0,0,0.833333,0,0)"
font-family="Ubuntu" font-size="11.1111" font-weight="400" font-style="normal" 
>
</g>

<g fill="none" stroke="#111111" stroke-opacity="1" stroke-width="1" stroke-linecap="square" stroke-linejoin="bevel" transform="matrix(0.833333,0,0,0.833333,3.46354,290.249)"
font-family="Ubuntu" font-size="11.1111" font-weight="400" font-style="normal" 
>
</g>

<g fill="none" stroke="#111111" stroke-opacity="1" stroke-width="1" stroke-linecap="square" stroke-linejoin="bevel" transform="matrix(0.833333,0,0,0.833333,3.46354,290.249)"
font-family="Ubuntu" font-size="13" font-weight="400" font-style="normal" 
>
</g>

<g fill="none" stroke="#111111" stroke-opacity="1" stroke-width="1" stroke-linecap="square" stroke-linejoin="bevel" transform="matrix(0.833333,0,0,0.833333,3.46354,290.249)"
font-family="Ubuntu" font-size="13" font-weight="400" font-style="normal" 
>
<text fill="#111111" fill-opacity="1" stroke="none" xml:space="preserve" x="0" y="10" font-family="Ubuntu" font-size="13" font-weight="400" font-style="normal" 
 >0.1</text>
</g>

<g fill="none" stroke="#111111" stroke-opacity="1" stroke-width="1" stroke-linecap="square" stroke-linejoin="bevel" transform="matrix(0.833333,0,0,0.833333,3.46354,290.249)"
font-family="Ubuntu" font-size="11.1111" font-weight="400" font-style="normal" 
>
</g>

<g fill="none" stroke="#111111" stroke-opacity="1" stroke-width="1" stroke-linecap="square" stroke-linejoin="bevel" transform="matrix(0.833333,0,0,0.833333,3.46354,290.249)"
font-family="Ubuntu" font-size="11.1111" font-weight="400" font-style="normal" 
>
</g>

<g fill="none" stroke="#111111" stroke-opacity="1" stroke-width="1" stroke-linecap="square" stroke-linejoin="bevel" transform="matrix(0.833333,0,0,0.833333,0,0)"
font-family="Ubuntu" font-size="11.1111" font-weight="400" font-style="normal" 
>
</g>

<g fill="none" stroke="#111111" stroke-opacity="1" stroke-width="1" stroke-linecap="square" stroke-linejoin="bevel" transform="matrix(0.833333,0,0,0.833333,3.46354,152.907)"
font-family="Ubuntu" font-size="11.1111" font-weight="400" font-style="normal" 
>
</g>

<g fill="none" stroke="#111111" stroke-opacity="1" stroke-width="1" stroke-linecap="square" stroke-linejoin="bevel" transform="matrix(0.833333,0,0,0.833333,3.46354,152.907)"
font-family="Ubuntu" font-size="13" font-weight="400" font-style="normal" 
>
</g>

<g fill="none" stroke="#111111" stroke-opacity="1" stroke-width="1" stroke-linecap="square" stroke-linejoin="bevel" transform="matrix(0.833333,0,0,0.833333,3.46354,152.907)"
font-family="Ubuntu" font-size="13" font-weight="400" font-style="normal" 
>
<text fill="#111111" fill-opacity="1" stroke="none" xml:space="preserve" x="0" y="10" font-family="Ubuntu" font-size="13" font-weight="400" font-style="normal" 
 >0.2</text>
</g>

<g fill="none" stroke="#111111" stroke-opacity="1" stroke-width="1" stroke-linecap="square" stroke-linejoin="bevel" transform="matrix(0.833333,0,0,0.833333,3.46354,152.907)"
font-family="Ubuntu" font-size="11.1111" font-weight="400" font-style="normal" 
>
</g>

<g fill="none" stroke="#111111" stroke-opacity="1" stroke-width="1" stroke-linecap="square" stroke-linejoin="bevel" transform="matrix(0.833333,0,0,0.833333,3.46354,152.907)"
font-family="Ubuntu" font-size="11.1111" font-weight="400" font-style="normal" 
>
</g>

<g fill="none" stroke="#111111" stroke-opacity="1" stroke-width="1" stroke-linecap="square" stroke-linejoin="bevel" transform="matrix(0.833333,0,0,0.833333,0,0)"
font-family="Ubuntu" font-size="11.1111" font-weight="400" font-style="normal" 
>
</g>

<g fill="none" stroke="#111111" stroke-opacity="1" stroke-width="1" stroke-linecap="square" stroke-linejoin="bevel" transform="matrix(0.833333,0,0,0.833333,3.46354,15.5658)"
font-family="Ubuntu" font-size="11.1111" font-weight="400" font-style="normal" 
>
</g>

<g fill="none" stroke="#111111" stroke-opacity="1" stroke-width="1" stroke-linecap="square" stroke-linejoin="bevel" transform="matrix(0.833333,0,0,0.833333,3.46354,15.5658)"
font-family="Ubuntu" font-size="13" font-weight="400" font-style="normal" 
>
</g>

<g fill="none" stroke="#111111" stroke-opacity="1" stroke-width="1" stroke-linecap="square" stroke-linejoin="bevel" transform="matrix(0.833333,0,0,0.833333,3.46354,15.5658)"
font-family="Ubuntu" font-size="13" font-weight="400" font-style="normal" 
>
<text fill="#111111" fill-opacity="1" stroke="none" xml:space="preserve" x="0" y="10" font-family="Ubuntu" font-size="13" font-weight="400" font-style="normal" 
 >0.3</text>
</g>

<g fill="none" stroke="#111111" stroke-opacity="1" stroke-width="1" stroke-linecap="square" stroke-linejoin="bevel" transform="matrix(0.833333,0,0,0.833333,3.46354,15.5658)"
font-family="Ubuntu" font-size="11.1111" font-weight="400" font-style="normal" 
>
</g>

<g fill="none" stroke="#111111" stroke-opacity="1" stroke-width="1" stroke-linecap="square" stroke-linejoin="bevel" transform="matrix(0.833333,0,0,0.833333,3.46354,15.5658)"
font-family="Ubuntu" font-size="11.1111" font-weight="400" font-style="normal" 
>
</g>

<g fill="none" stroke="#111111" stroke-opacity="1" stroke-width="1" stroke-linecap="square" stroke-linejoin="bevel" transform="matrix(0.833333,0,0,0.833333,0,0)"
font-family="Ubuntu" font-size="11.1111" font-weight="400" font-style="normal" 
>
</g>

<g fill="none" stroke="#000000" stroke-opacity="1" stroke-width="1" stroke-linecap="square" stroke-linejoin="bevel" transform="matrix(0.833333,0,0,0.833333,0,0)"
font-family="Ubuntu" font-size="11.1111" font-weight="400" font-style="normal" 
>
</g>

<g fill="none" stroke="#111111" stroke-opacity="1" stroke-width="1" stroke-linecap="butt" stroke-linejoin="bevel" transform="matrix(0.833333,0,0,0.833333,0,0)"
font-family="Ubuntu" font-size="11.1111" font-weight="400" font-style="normal" 
>
<polyline fill="none" vector-effect="non-scaling-stroke" points="35.5,979.575 30.3,979.575 " />
<polyline fill="none" vector-effect="non-scaling-stroke" points="35.5,946.613 30.3,946.613 " />
<polyline fill="none" vector-effect="non-scaling-stroke" points="35.5,913.651 30.3,913.651 " />
<polyline fill="none" vector-effect="non-scaling-stroke" points="35.5,880.69 30.3,880.69 " />
<polyline fill="none" vector-effect="non-scaling-stroke" points="35.5,814.766 30.3,814.766 " />
<polyline fill="none" vector-effect="non-scaling-stroke" points="35.5,781.804 30.3,781.804 " />
<polyline fill="none" vector-effect="non-scaling-stroke" points="35.5,748.842 30.3,748.842 " />
<polyline fill="none" vector-effect="non-scaling-stroke" points="35.5,715.88 30.3,715.88 " />
<polyline fill="none" vector-effect="non-scaling-stroke" points="35.5,649.956 30.3,649.956 " />
<polyline fill="none" vector-effect="non-scaling-stroke" points="35.5,616.994 30.3,616.994 " />
<polyline fill="none" vector-effect="non-scaling-stroke" points="35.5,584.032 30.3,584.032 " />
<polyline fill="none" vector-effect="non-scaling-stroke" points="35.5,551.07 30.3,551.07 " />
<polyline fill="none" vector-effect="non-scaling-stroke" points="35.5,485.146 30.3,485.146 " />
<polyline fill="none" vector-effect="non-scaling-stroke" points="35.5,452.184 30.3,452.184 " />
<polyline fill="none" vector-effect="non-scaling-stroke" points="35.5,419.222 30.3,419.222 " />
<polyline fill="none" vector-effect="non-scaling-stroke" points="35.5,386.26 30.3,386.26 " />
<polyline fill="none" vector-effect="non-scaling-stroke" points="35.5,320.337 30.3,320.337 " />
<polyline fill="none" vector-effect="non-scaling-stroke" points="35.5,287.375 30.3,287.375 " />
<polyline fill="none" vector-effect="non-scaling-stroke" points="35.5,254.413 30.3,254.413 " />
<polyline fill="none" vector-effect="non-scaling-stroke" points="35.5,221.451 30.3,221.451 " />
<polyline fill="none" vector-effect="non-scaling-stroke" points="35.5,155.527 30.3,155.527 " />
<polyline fill="none" vector-effect="non-scaling-stroke" points="35.5,122.565 30.3,122.565 " />
<polyline fill="none" vector-effect="non-scaling-stroke" points="35.5,89.6029 30.3,89.6029 " />
<polyline fill="none" vector-effect="non-scaling-stroke" points="35.5,56.641 30.3,56.641 " />
<polyline fill="none" vector-effect="non-scaling-stroke" points="35.5,1012.54 26.3,1012.54 " />
<polyline fill="none" vector-effect="non-scaling-stroke" points="35.5,847.728 26.3,847.728 " />
<polyline fill="none" vector-effect="non-scaling-stroke" points="35.5,682.918 26.3,682.918 " />
<polyline fill="none" vector-effect="non-scaling-stroke" points="35.5,518.108 26.3,518.108 " />
<polyline fill="none" vector-effect="non-scaling-stroke" points="35.5,353.298 26.3,353.298 " />
<polyline fill="none" vector-effect="non-scaling-stroke" points="35.5,188.489 26.3,188.489 " />
<polyline fill="none" vector-effect="non-scaling-stroke" points="35.5,23.679 26.3,23.679 " />
</g>

<g fill="none" stroke="#000000" stroke-opacity="1" stroke-width="1" stroke-linecap="square" stroke-linejoin="bevel" transform="matrix(0.833333,0,0,0.833333,0,0)"
font-family="Ubuntu" font-size="11.1111" font-weight="400" font-style="normal" 
>
</g>

<g fill="none" stroke="#111111" stroke-opacity="1" stroke-width="1" stroke-linecap="butt" stroke-linejoin="bevel" transform="matrix(0.833333,0,0,0.833333,0,0)"
font-family="Ubuntu" font-size="11.1111" font-weight="400" font-style="normal" 
>
<polyline fill="none" vector-effect="non-scaling-stroke" points="35.4,1 35.4,1037 " />
</g>

<g fill="none" stroke="#000000" stroke-opacity="1" stroke-width="1" stroke-linecap="square" stroke-linejoin="bevel" transform="matrix(0.833333,0,0,0.833333,0,0)"
font-family="Ubuntu" font-size="11.1111" font-weight="400" font-style="normal" 
>
</g>

<g fill="none" stroke="#000000" stroke-opacity="1" stroke-width="1" stroke-linecap="square" stroke-linejoin="bevel" transform="matrix(0.833333,0,0,0.833333,0,0)"
font-family="Ubuntu" font-size="11.1111" font-weight="400" font-style="normal" 
>
</g>

<g fill="none" stroke="#000000" stroke-opacity="1" stroke-width="1" stroke-linecap="square" stroke-linejoin="bevel" transform="matrix(0.833333,0,0,0.833333,0,0)"
font-family="Ubuntu" font-size="12.2222" font-weight="400" font-style="normal" 
>
</g>

<g fill="none" stroke="#111111" stroke-opacity="1" stroke-width="1" stroke-linecap="square" stroke-linejoin="bevel" transform="matrix(0.833333,0,0,0.833333,32.5,900.833)"
font-family="Ubuntu" font-size="11.1111" font-weight="400" font-style="normal" 
>
</g>

<g fill="none" stroke="#111111" stroke-opacity="1" stroke-width="1" stroke-linecap="square" stroke-linejoin="bevel" transform="matrix(0.833333,0,0,0.833333,32.5,900.833)"
font-family="Ubuntu" font-size="13.3333" font-weight="700" font-style="normal" 
>
</g>

<g fill="none" stroke="#111111" stroke-opacity="1" stroke-width="1" stroke-linecap="square" stroke-linejoin="bevel" transform="matrix(0.833333,0,0,0.833333,32.5,900.833)"
font-family="Ubuntu" font-size="13.3333" font-weight="700" font-style="normal" 
>
</g>

<g fill="none" stroke="#111111" stroke-opacity="1" stroke-width="1" stroke-linecap="square" stroke-linejoin="bevel" transform="matrix(0.833333,0,0,0.833333,32.5,900.833)"
font-family="Ubuntu" font-size="11.1111" font-weight="400" font-style="normal" 
>
</g>

<g fill="none" stroke="#000000" stroke-opacity="1" stroke-width="1" stroke-linecap="square" stroke-linejoin="bevel" transform="matrix(0.833333,0,0,0.833333,0,0)"
font-family="Ubuntu" font-size="12.2222" font-weight="400" font-style="normal" 
>
</g>

<g fill="none" stroke="#000000" stroke-opacity="1" stroke-width="1" stroke-linecap="square" stroke-linejoin="bevel" transform="matrix(0.833333,0,0,0.833333,0,0)"
font-family="Ubuntu" font-size="11.1111" font-weight="400" font-style="normal" 
>
</g>

<g fill="none" stroke="#000000" stroke-opacity="1" stroke-width="1" stroke-linecap="square" stroke-linejoin="bevel" transform="matrix(0.833333,0,0,0.833333,0,0)"
font-family="Ubuntu" font-size="11.1111" font-weight="400" font-style="normal" 
>
</g>

<g fill="none" stroke="#111111" stroke-opacity="1" stroke-width="1" stroke-linecap="square" stroke-linejoin="bevel" transform="matrix(0.833333,0,0,0.833333,0,0)"
font-family="Ubuntu" font-size="11.1111" font-weight="400" font-style="normal" 
>
</g>

<g fill="none" stroke="#111111" stroke-opacity="1" stroke-width="1" stroke-linecap="square" stroke-linejoin="bevel" transform="matrix(0.833333,0,0,0.833333,99.5331,878.333)"
font-family="Ubuntu" font-size="11.1111" font-weight="400" font-style="normal" 
>
</g>

<g fill="none" stroke="#111111" stroke-opacity="1" stroke-width="1" stroke-linecap="square" stroke-linejoin="bevel" transform="matrix(0.833333,0,0,0.833333,99.5331,878.333)"
font-family="Ubuntu" font-size="13" font-weight="400" font-style="normal" 
>
</g>

<g fill="none" stroke="#111111" stroke-opacity="1" stroke-width="1" stroke-linecap="square" stroke-linejoin="bevel" transform="matrix(0.833333,0,0,0.833333,99.5331,878.333)"
font-family="Ubuntu" font-size="13" font-weight="400" font-style="normal" 
>
</g>

<g fill="none" stroke="#111111" stroke-opacity="1" stroke-width="1" stroke-linecap="square" stroke-linejoin="bevel" transform="matrix(0.833333,0,0,0.833333,99.5331,878.333)"
font-family="Ubuntu" font-size="13" font-weight="400" font-style="normal" 
>
<text fill="#111111" fill-opacity="1" stroke="none" xml:space="preserve" x="0" y="10" font-family="Ubuntu" font-size="13" font-weight="400" font-style="normal" 
 >16:28:40.0</text>
</g>

<g fill="none" stroke="#111111" stroke-opacity="1" stroke-width="1" stroke-linecap="square" stroke-linejoin="bevel" transform="matrix(0.833333,0,0,0.833333,99.5331,878.333)"
font-family="Ubuntu" font-size="13" font-weight="400" font-style="normal" 
>
<text fill="#111111" fill-opacity="1" stroke="none" xml:space="preserve" x="0" y="25" font-family="Ubuntu" font-size="13" font-weight="400" font-style="normal" 
 >2024 Jul 10</text>
</g>

<g fill="none" stroke="#111111" stroke-opacity="1" stroke-width="1" stroke-linecap="square" stroke-linejoin="bevel" transform="matrix(0.833333,0,0,0.833333,99.5331,878.333)"
font-family="Ubuntu" font-size="13" font-weight="400" font-style="normal" 
>
</g>

<g fill="none" stroke="#111111" stroke-opacity="1" stroke-width="1" stroke-linecap="square" stroke-linejoin="bevel" transform="matrix(0.833333,0,0,0.833333,99.5331,878.333)"
font-family="Ubuntu" font-size="11.1111" font-weight="400" font-style="normal" 
>
</g>

<g fill="none" stroke="#111111" stroke-opacity="1" stroke-width="1" stroke-linecap="square" stroke-linejoin="bevel" transform="matrix(0.833333,0,0,0.833333,99.5331,878.333)"
font-family="Ubuntu" font-size="11.1111" font-weight="400" font-style="normal" 
>
</g>

<g fill="none" stroke="#111111" stroke-opacity="1" stroke-width="1" stroke-linecap="square" stroke-linejoin="bevel" transform="matrix(0.833333,0,0,0.833333,0,0)"
font-family="Ubuntu" font-size="11.1111" font-weight="400" font-style="normal" 
>
</g>

<g fill="none" stroke="#111111" stroke-opacity="1" stroke-width="1" stroke-linecap="square" stroke-linejoin="bevel" transform="matrix(0.833333,0,0,0.833333,273.589,878.333)"
font-family="Ubuntu" font-size="11.1111" font-weight="400" font-style="normal" 
>
</g>

<g fill="none" stroke="#111111" stroke-opacity="1" stroke-width="1" stroke-linecap="square" stroke-linejoin="bevel" transform="matrix(0.833333,0,0,0.833333,273.589,878.333)"
font-family="Ubuntu" font-size="13" font-weight="400" font-style="normal" 
>
</g>

<g fill="none" stroke="#111111" stroke-opacity="1" stroke-width="1" stroke-linecap="square" stroke-linejoin="bevel" transform="matrix(0.833333,0,0,0.833333,273.589,878.333)"
font-family="Ubuntu" font-size="13" font-weight="400" font-style="normal" 
>
</g>

<g fill="none" stroke="#111111" stroke-opacity="1" stroke-width="1" stroke-linecap="square" stroke-linejoin="bevel" transform="matrix(0.833333,0,0,0.833333,273.589,878.333)"
font-family="Ubuntu" font-size="13" font-weight="400" font-style="normal" 
>
<text fill="#111111" fill-opacity="1" stroke="none" xml:space="preserve" x="0" y="10" font-family="Ubuntu" font-size="13" font-weight="400" font-style="normal" 
 >16:29:00.0</text>
</g>

<g fill="none" stroke="#111111" stroke-opacity="1" stroke-width="1" stroke-linecap="square" stroke-linejoin="bevel" transform="matrix(0.833333,0,0,0.833333,273.589,878.333)"
font-family="Ubuntu" font-size="13" font-weight="400" font-style="normal" 
>
<text fill="#111111" fill-opacity="1" stroke="none" xml:space="preserve" x="0" y="25" font-family="Ubuntu" font-size="13" font-weight="400" font-style="normal" 
 >2024 Jul 10</text>
</g>

<g fill="none" stroke="#111111" stroke-opacity="1" stroke-width="1" stroke-linecap="square" stroke-linejoin="bevel" transform="matrix(0.833333,0,0,0.833333,273.589,878.333)"
font-family="Ubuntu" font-size="13" font-weight="400" font-style="normal" 
>
</g>

<g fill="none" stroke="#111111" stroke-opacity="1" stroke-width="1" stroke-linecap="square" stroke-linejoin="bevel" transform="matrix(0.833333,0,0,0.833333,273.589,878.333)"
font-family="Ubuntu" font-size="11.1111" font-weight="400" font-style="normal" 
>
</g>

<g fill="none" stroke="#111111" stroke-opacity="1" stroke-width="1" stroke-linecap="square" stroke-linejoin="bevel" transform="matrix(0.833333,0,0,0.833333,273.589,878.333)"
font-family="Ubuntu" font-size="11.1111" font-weight="400" font-style="normal" 
>
</g>

<g fill="none" stroke="#111111" stroke-opacity="1" stroke-width="1" stroke-linecap="square" stroke-linejoin="bevel" transform="matrix(0.833333,0,0,0.833333,0,0)"
font-family="Ubuntu" font-size="11.1111" font-weight="400" font-style="normal" 
>
</g>

<g fill="none" stroke="#111111" stroke-opacity="1" stroke-width="1" stroke-linecap="square" stroke-linejoin="bevel" transform="matrix(0.833333,0,0,0.833333,447.645,878.333)"
font-family="Ubuntu" font-size="11.1111" font-weight="400" font-style="normal" 
>
</g>

<g fill="none" stroke="#111111" stroke-opacity="1" stroke-width="1" stroke-linecap="square" stroke-linejoin="bevel" transform="matrix(0.833333,0,0,0.833333,447.645,878.333)"
font-family="Ubuntu" font-size="13" font-weight="400" font-style="normal" 
>
</g>

<g fill="none" stroke="#111111" stroke-opacity="1" stroke-width="1" stroke-linecap="square" stroke-linejoin="bevel" transform="matrix(0.833333,0,0,0.833333,447.645,878.333)"
font-family="Ubuntu" font-size="13" font-weight="400" font-style="normal" 
>
</g>

<g fill="none" stroke="#111111" stroke-opacity="1" stroke-width="1" stroke-linecap="square" stroke-linejoin="bevel" transform="matrix(0.833333,0,0,0.833333,447.645,878.333)"
font-family="Ubuntu" font-size="13" font-weight="400" font-style="normal" 
>
<text fill="#111111" fill-opacity="1" stroke="none" xml:space="preserve" x="0" y="10" font-family="Ubuntu" font-size="13" font-weight="400" font-style="normal" 
 >16:29:20.0</text>
</g>

<g fill="none" stroke="#111111" stroke-opacity="1" stroke-width="1" stroke-linecap="square" stroke-linejoin="bevel" transform="matrix(0.833333,0,0,0.833333,447.645,878.333)"
font-family="Ubuntu" font-size="13" font-weight="400" font-style="normal" 
>
<text fill="#111111" fill-opacity="1" stroke="none" xml:space="preserve" x="0" y="25" font-family="Ubuntu" font-size="13" font-weight="400" font-style="normal" 
 >2024 Jul 10</text>
</g>

<g fill="none" stroke="#111111" stroke-opacity="1" stroke-width="1" stroke-linecap="square" stroke-linejoin="bevel" transform="matrix(0.833333,0,0,0.833333,447.645,878.333)"
font-family="Ubuntu" font-size="13" font-weight="400" font-style="normal" 
>
</g>

<g fill="none" stroke="#111111" stroke-opacity="1" stroke-width="1" stroke-linecap="square" stroke-linejoin="bevel" transform="matrix(0.833333,0,0,0.833333,447.645,878.333)"
font-family="Ubuntu" font-size="11.1111" font-weight="400" font-style="normal" 
>
</g>

<g fill="none" stroke="#111111" stroke-opacity="1" stroke-width="1" stroke-linecap="square" stroke-linejoin="bevel" transform="matrix(0.833333,0,0,0.833333,447.645,878.333)"
font-family="Ubuntu" font-size="11.1111" font-weight="400" font-style="normal" 
>
</g>

<g fill="none" stroke="#111111" stroke-opacity="1" stroke-width="1" stroke-linecap="square" stroke-linejoin="bevel" transform="matrix(0.833333,0,0,0.833333,0,0)"
font-family="Ubuntu" font-size="11.1111" font-weight="400" font-style="normal" 
>
</g>

<g fill="none" stroke="#111111" stroke-opacity="1" stroke-width="1" stroke-linecap="square" stroke-linejoin="bevel" transform="matrix(0.833333,0,0,0.833333,621.7,878.333)"
font-family="Ubuntu" font-size="11.1111" font-weight="400" font-style="normal" 
>
</g>

<g fill="none" stroke="#111111" stroke-opacity="1" stroke-width="1" stroke-linecap="square" stroke-linejoin="bevel" transform="matrix(0.833333,0,0,0.833333,621.7,878.333)"
font-family="Ubuntu" font-size="13" font-weight="400" font-style="normal" 
>
</g>

<g fill="none" stroke="#111111" stroke-opacity="1" stroke-width="1" stroke-linecap="square" stroke-linejoin="bevel" transform="matrix(0.833333,0,0,0.833333,621.7,878.333)"
font-family="Ubuntu" font-size="13" font-weight="400" font-style="normal" 
>
</g>

<g fill="none" stroke="#111111" stroke-opacity="1" stroke-width="1" stroke-linecap="square" stroke-linejoin="bevel" transform="matrix(0.833333,0,0,0.833333,621.7,878.333)"
font-family="Ubuntu" font-size="13" font-weight="400" font-style="normal" 
>
<text fill="#111111" fill-opacity="1" stroke="none" xml:space="preserve" x="0" y="10" font-family="Ubuntu" font-size="13" font-weight="400" font-style="normal" 
 >16:29:40.0</text>
</g>

<g fill="none" stroke="#111111" stroke-opacity="1" stroke-width="1" stroke-linecap="square" stroke-linejoin="bevel" transform="matrix(0.833333,0,0,0.833333,621.7,878.333)"
font-family="Ubuntu" font-size="13" font-weight="400" font-style="normal" 
>
<text fill="#111111" fill-opacity="1" stroke="none" xml:space="preserve" x="0" y="25" font-family="Ubuntu" font-size="13" font-weight="400" font-style="normal" 
 >2024 Jul 10</text>
</g>

<g fill="none" stroke="#111111" stroke-opacity="1" stroke-width="1" stroke-linecap="square" stroke-linejoin="bevel" transform="matrix(0.833333,0,0,0.833333,621.7,878.333)"
font-family="Ubuntu" font-size="13" font-weight="400" font-style="normal" 
>
</g>

<g fill="none" stroke="#111111" stroke-opacity="1" stroke-width="1" stroke-linecap="square" stroke-linejoin="bevel" transform="matrix(0.833333,0,0,0.833333,621.7,878.333)"
font-family="Ubuntu" font-size="11.1111" font-weight="400" font-style="normal" 
>
</g>

<g fill="none" stroke="#111111" stroke-opacity="1" stroke-width="1" stroke-linecap="square" stroke-linejoin="bevel" transform="matrix(0.833333,0,0,0.833333,621.7,878.333)"
font-family="Ubuntu" font-size="11.1111" font-weight="400" font-style="normal" 
>
</g>

<g fill="none" stroke="#111111" stroke-opacity="1" stroke-width="1" stroke-linecap="square" stroke-linejoin="bevel" transform="matrix(0.833333,0,0,0.833333,0,0)"
font-family="Ubuntu" font-size="11.1111" font-weight="400" font-style="normal" 
>
</g>

<g fill="none" stroke="#111111" stroke-opacity="1" stroke-width="1" stroke-linecap="square" stroke-linejoin="bevel" transform="matrix(0.833333,0,0,0.833333,795.756,878.333)"
font-family="Ubuntu" font-size="11.1111" font-weight="400" font-style="normal" 
>
</g>

<g fill="none" stroke="#111111" stroke-opacity="1" stroke-width="1" stroke-linecap="square" stroke-linejoin="bevel" transform="matrix(0.833333,0,0,0.833333,795.756,878.333)"
font-family="Ubuntu" font-size="13" font-weight="400" font-style="normal" 
>
</g>

<g fill="none" stroke="#111111" stroke-opacity="1" stroke-width="1" stroke-linecap="square" stroke-linejoin="bevel" transform="matrix(0.833333,0,0,0.833333,795.756,878.333)"
font-family="Ubuntu" font-size="13" font-weight="400" font-style="normal" 
>
</g>

<g fill="none" stroke="#111111" stroke-opacity="1" stroke-width="1" stroke-linecap="square" stroke-linejoin="bevel" transform="matrix(0.833333,0,0,0.833333,795.756,878.333)"
font-family="Ubuntu" font-size="13" font-weight="400" font-style="normal" 
>
<text fill="#111111" fill-opacity="1" stroke="none" xml:space="preserve" x="0" y="10" font-family="Ubuntu" font-size="13" font-weight="400" font-style="normal" 
 >16:30:00.0</text>
</g>

<g fill="none" stroke="#111111" stroke-opacity="1" stroke-width="1" stroke-linecap="square" stroke-linejoin="bevel" transform="matrix(0.833333,0,0,0.833333,795.756,878.333)"
font-family="Ubuntu" font-size="13" font-weight="400" font-style="normal" 
>
<text fill="#111111" fill-opacity="1" stroke="none" xml:space="preserve" x="0" y="25" font-family="Ubuntu" font-size="13" font-weight="400" font-style="normal" 
 >2024 Jul 10</text>
</g>

<g fill="none" stroke="#111111" stroke-opacity="1" stroke-width="1" stroke-linecap="square" stroke-linejoin="bevel" transform="matrix(0.833333,0,0,0.833333,795.756,878.333)"
font-family="Ubuntu" font-size="13" font-weight="400" font-style="normal" 
>
</g>

<g fill="none" stroke="#111111" stroke-opacity="1" stroke-width="1" stroke-linecap="square" stroke-linejoin="bevel" transform="matrix(0.833333,0,0,0.833333,795.756,878.333)"
font-family="Ubuntu" font-size="11.1111" font-weight="400" font-style="normal" 
>
</g>

<g fill="none" stroke="#111111" stroke-opacity="1" stroke-width="1" stroke-linecap="square" stroke-linejoin="bevel" transform="matrix(0.833333,0,0,0.833333,795.756,878.333)"
font-family="Ubuntu" font-size="11.1111" font-weight="400" font-style="normal" 
>
</g>

<g fill="none" stroke="#111111" stroke-opacity="1" stroke-width="1" stroke-linecap="square" stroke-linejoin="bevel" transform="matrix(0.833333,0,0,0.833333,0,0)"
font-family="Ubuntu" font-size="11.1111" font-weight="400" font-style="normal" 
>
</g>

<g fill="none" stroke="#111111" stroke-opacity="1" stroke-width="1" stroke-linecap="square" stroke-linejoin="bevel" transform="matrix(0.833333,0,0,0.833333,969.812,878.333)"
font-family="Ubuntu" font-size="11.1111" font-weight="400" font-style="normal" 
>
</g>

<g fill="none" stroke="#111111" stroke-opacity="1" stroke-width="1" stroke-linecap="square" stroke-linejoin="bevel" transform="matrix(0.833333,0,0,0.833333,969.812,878.333)"
font-family="Ubuntu" font-size="13" font-weight="400" font-style="normal" 
>
</g>

<g fill="none" stroke="#111111" stroke-opacity="1" stroke-width="1" stroke-linecap="square" stroke-linejoin="bevel" transform="matrix(0.833333,0,0,0.833333,969.812,878.333)"
font-family="Ubuntu" font-size="13" font-weight="400" font-style="normal" 
>
</g>

<g fill="none" stroke="#111111" stroke-opacity="1" stroke-width="1" stroke-linecap="square" stroke-linejoin="bevel" transform="matrix(0.833333,0,0,0.833333,969.812,878.333)"
font-family="Ubuntu" font-size="13" font-weight="400" font-style="normal" 
>
<text fill="#111111" fill-opacity="1" stroke="none" xml:space="preserve" x="0" y="10" font-family="Ubuntu" font-size="13" font-weight="400" font-style="normal" 
 >16:30:20.0</text>
</g>

<g fill="none" stroke="#111111" stroke-opacity="1" stroke-width="1" stroke-linecap="square" stroke-linejoin="bevel" transform="matrix(0.833333,0,0,0.833333,969.812,878.333)"
font-family="Ubuntu" font-size="13" font-weight="400" font-style="normal" 
>
<text fill="#111111" fill-opacity="1" stroke="none" xml:space="preserve" x="0" y="25" font-family="Ubuntu" font-size="13" font-weight="400" font-style="normal" 
 >2024 Jul 10</text>
</g>

<g fill="none" stroke="#111111" stroke-opacity="1" stroke-width="1" stroke-linecap="square" stroke-linejoin="bevel" transform="matrix(0.833333,0,0,0.833333,969.812,878.333)"
font-family="Ubuntu" font-size="13" font-weight="400" font-style="normal" 
>
</g>

<g fill="none" stroke="#111111" stroke-opacity="1" stroke-width="1" stroke-linecap="square" stroke-linejoin="bevel" transform="matrix(0.833333,0,0,0.833333,969.812,878.333)"
font-family="Ubuntu" font-size="11.1111" font-weight="400" font-style="normal" 
>
</g>

<g fill="none" stroke="#111111" stroke-opacity="1" stroke-width="1" stroke-linecap="square" stroke-linejoin="bevel" transform="matrix(0.833333,0,0,0.833333,969.812,878.333)"
font-family="Ubuntu" font-size="11.1111" font-weight="400" font-style="normal" 
>
</g>

<g fill="none" stroke="#111111" stroke-opacity="1" stroke-width="1" stroke-linecap="square" stroke-linejoin="bevel" transform="matrix(0.833333,0,0,0.833333,0,0)"
font-family="Ubuntu" font-size="11.1111" font-weight="400" font-style="normal" 
>
</g>

<g fill="none" stroke="#111111" stroke-opacity="1" stroke-width="1" stroke-linecap="square" stroke-linejoin="bevel" transform="matrix(0.833333,0,0,0.833333,1143.87,878.333)"
font-family="Ubuntu" font-size="11.1111" font-weight="400" font-style="normal" 
>
</g>

<g fill="none" stroke="#111111" stroke-opacity="1" stroke-width="1" stroke-linecap="square" stroke-linejoin="bevel" transform="matrix(0.833333,0,0,0.833333,1143.87,878.333)"
font-family="Ubuntu" font-size="13" font-weight="400" font-style="normal" 
>
</g>

<g fill="none" stroke="#111111" stroke-opacity="1" stroke-width="1" stroke-linecap="square" stroke-linejoin="bevel" transform="matrix(0.833333,0,0,0.833333,1143.87,878.333)"
font-family="Ubuntu" font-size="13" font-weight="400" font-style="normal" 
>
</g>

<g fill="none" stroke="#111111" stroke-opacity="1" stroke-width="1" stroke-linecap="square" stroke-linejoin="bevel" transform="matrix(0.833333,0,0,0.833333,1143.87,878.333)"
font-family="Ubuntu" font-size="13" font-weight="400" font-style="normal" 
>
<text fill="#111111" fill-opacity="1" stroke="none" xml:space="preserve" x="0" y="10" font-family="Ubuntu" font-size="13" font-weight="400" font-style="normal" 
 >16:30:40.0</text>
</g>

<g fill="none" stroke="#111111" stroke-opacity="1" stroke-width="1" stroke-linecap="square" stroke-linejoin="bevel" transform="matrix(0.833333,0,0,0.833333,1143.87,878.333)"
font-family="Ubuntu" font-size="13" font-weight="400" font-style="normal" 
>
<text fill="#111111" fill-opacity="1" stroke="none" xml:space="preserve" x="0" y="25" font-family="Ubuntu" font-size="13" font-weight="400" font-style="normal" 
 >2024 Jul 10</text>
</g>

<g fill="none" stroke="#111111" stroke-opacity="1" stroke-width="1" stroke-linecap="square" stroke-linejoin="bevel" transform="matrix(0.833333,0,0,0.833333,1143.87,878.333)"
font-family="Ubuntu" font-size="13" font-weight="400" font-style="normal" 
>
</g>

<g fill="none" stroke="#111111" stroke-opacity="1" stroke-width="1" stroke-linecap="square" stroke-linejoin="bevel" transform="matrix(0.833333,0,0,0.833333,1143.87,878.333)"
font-family="Ubuntu" font-size="11.1111" font-weight="400" font-style="normal" 
>
</g>

<g fill="none" stroke="#111111" stroke-opacity="1" stroke-width="1" stroke-linecap="square" stroke-linejoin="bevel" transform="matrix(0.833333,0,0,0.833333,1143.87,878.333)"
font-family="Ubuntu" font-size="11.1111" font-weight="400" font-style="normal" 
>
</g>

<g fill="none" stroke="#111111" stroke-opacity="1" stroke-width="1" stroke-linecap="square" stroke-linejoin="bevel" transform="matrix(0.833333,0,0,0.833333,0,0)"
font-family="Ubuntu" font-size="11.1111" font-weight="400" font-style="normal" 
>
</g>

<g fill="none" stroke="#000000" stroke-opacity="1" stroke-width="1" stroke-linecap="square" stroke-linejoin="bevel" transform="matrix(0.833333,0,0,0.833333,0,0)"
font-family="Ubuntu" font-size="11.1111" font-weight="400" font-style="normal" 
>
</g>

<g fill="none" stroke="#111111" stroke-opacity="1" stroke-width="1" stroke-linecap="butt" stroke-linejoin="bevel" transform="matrix(0.833333,0,0,0.833333,0,0)"
font-family="Ubuntu" font-size="11.1111" font-weight="400" font-style="normal" 
>
<polyline fill="none" vector-effect="non-scaling-stroke" points="100.957,1040.5 100.957,1045.7 " />
<polyline fill="none" vector-effect="non-scaling-stroke" points="205.391,1040.5 205.391,1045.7 " />
<polyline fill="none" vector-effect="non-scaling-stroke" points="309.824,1040.5 309.824,1045.7 " />
<polyline fill="none" vector-effect="non-scaling-stroke" points="414.258,1040.5 414.258,1045.7 " />
<polyline fill="none" vector-effect="non-scaling-stroke" points="518.691,1040.5 518.691,1045.7 " />
<polyline fill="none" vector-effect="non-scaling-stroke" points="623.125,1040.5 623.125,1045.7 " />
<polyline fill="none" vector-effect="non-scaling-stroke" points="727.558,1040.5 727.558,1045.7 " />
<polyline fill="none" vector-effect="non-scaling-stroke" points="831.991,1040.5 831.991,1045.7 " />
<polyline fill="none" vector-effect="non-scaling-stroke" points="936.425,1040.5 936.425,1045.7 " />
<polyline fill="none" vector-effect="non-scaling-stroke" points="1040.86,1040.5 1040.86,1045.7 " />
<polyline fill="none" vector-effect="non-scaling-stroke" points="1145.29,1040.5 1145.29,1045.7 " />
<polyline fill="none" vector-effect="non-scaling-stroke" points="1249.73,1040.5 1249.73,1045.7 " />
<polyline fill="none" vector-effect="non-scaling-stroke" points="1354.16,1040.5 1354.16,1045.7 " />
<polyline fill="none" vector-effect="non-scaling-stroke" points="48.7407,1040.5 48.7407,1047.7 " />
<polyline fill="none" vector-effect="non-scaling-stroke" points="257.608,1040.5 257.608,1047.7 " />
<polyline fill="none" vector-effect="non-scaling-stroke" points="466.474,1040.5 466.474,1047.7 " />
<polyline fill="none" vector-effect="non-scaling-stroke" points="675.341,1040.5 675.341,1047.7 " />
<polyline fill="none" vector-effect="non-scaling-stroke" points="884.208,1040.5 884.208,1047.7 " />
<polyline fill="none" vector-effect="non-scaling-stroke" points="1093.08,1040.5 1093.08,1047.7 " />
<polyline fill="none" vector-effect="non-scaling-stroke" points="1301.94,1040.5 1301.94,1047.7 " />
<polyline fill="none" vector-effect="non-scaling-stroke" points="153.174,1040.5 153.174,1049.7 " />
<polyline fill="none" vector-effect="non-scaling-stroke" points="362.041,1040.5 362.041,1049.7 " />
<polyline fill="none" vector-effect="non-scaling-stroke" points="570.908,1040.5 570.908,1049.7 " />
<polyline fill="none" vector-effect="non-scaling-stroke" points="779.775,1040.5 779.775,1049.7 " />
<polyline fill="none" vector-effect="non-scaling-stroke" points="988.642,1040.5 988.642,1049.7 " />
<polyline fill="none" vector-effect="non-scaling-stroke" points="1197.51,1040.5 1197.51,1049.7 " />
<polyline fill="none" vector-effect="non-scaling-stroke" points="1406.38,1040.5 1406.38,1049.7 " />
</g>

<g fill="none" stroke="#000000" stroke-opacity="1" stroke-width="1" stroke-linecap="square" stroke-linejoin="bevel" transform="matrix(0.833333,0,0,0.833333,0,0)"
font-family="Ubuntu" font-size="11.1111" font-weight="400" font-style="normal" 
>
</g>

<g fill="none" stroke="#111111" stroke-opacity="1" stroke-width="1" stroke-linecap="butt" stroke-linejoin="bevel" transform="matrix(0.833333,0,0,0.833333,0,0)"
font-family="Ubuntu" font-size="11.1111" font-weight="400" font-style="normal" 
>
<polyline fill="none" vector-effect="non-scaling-stroke" points="39,1040.6 1422,1040.6 " />
</g>

<g fill="none" stroke="#000000" stroke-opacity="1" stroke-width="1" stroke-linecap="square" stroke-linejoin="bevel" transform="matrix(0.833333,0,0,0.833333,0,0)"
font-family="Ubuntu" font-size="11.1111" font-weight="400" font-style="normal" 
>
</g>

<g fill="none" stroke="#000000" stroke-opacity="1" stroke-width="1" stroke-linecap="square" stroke-linejoin="bevel" transform="matrix(0.833333,0,0,0.833333,0,0)"
font-family="Ubuntu" font-size="11.1111" font-weight="400" font-style="normal" 
>
</g>

<g fill="none" stroke="#000000" stroke-opacity="1" stroke-width="1" stroke-linecap="square" stroke-linejoin="bevel" transform="matrix(0.833333,0,0,0.833333,0,0)"
font-family="Ubuntu" font-size="12.2222" font-weight="400" font-style="normal" 
>
</g>

<g fill="none" stroke="#000000" stroke-opacity="1" stroke-width="1" stroke-linecap="square" stroke-linejoin="bevel" transform="matrix(1,0,0,1,0,0)"
font-family="Ubuntu" font-size="12.2222" font-weight="400" font-style="normal" 
>
</g>
</g>
</svg>
