<?xml version="1.0" encoding="UTF-8" standalone="no"?>
<svg viewBox="0 0 1200 900"
 xmlns="http://www.w3.org/2000/svg" xmlns:xlink="http://www.w3.org/1999/xlink"  version="1.2" baseProfile="tiny">
<title>Qt SVG Document</title>
<desc>Generated with Qt</desc>
<defs>
</defs>
<g fill="none" stroke="black" stroke-width="1" fill-rule="evenodd" stroke-linecap="square" stroke-linejoin="bevel" >

<g fill="#ffffff" fill-opacity="1" stroke="none" transform="matrix(1,0,0,1,0,0)"
font-family="Ubuntu" font-size="12.2222" font-weight="400" font-style="normal" 
>
<rect x="0" y="0" width="1200" height="900"/>
</g>

<g fill="none" stroke="#000000" stroke-opacity="1" stroke-width="1" stroke-linecap="square" stroke-linejoin="bevel" transform="matrix(1,0,0,1,0,0)"
font-family="Ubuntu" font-size="12.2222" font-weight="400" font-style="normal" 
>
</g>

<g fill="none" stroke="#000000" stroke-opacity="1" stroke-width="1" stroke-linecap="square" stroke-linejoin="bevel" transform="matrix(0.833333,0,0,0.833333,0,0)"
font-family="Ubuntu" font-size="12.2222" font-weight="400" font-style="normal" 
>
</g>

<g fill="#ffffff" fill-opacity="1" stroke="none" transform="matrix(0.833333,0,0,0.833333,0,0)"
font-family="Ubuntu" font-size="12.2222" font-weight="400" font-style="normal" 
>
<rect x="38" y="0" width="1401" height="1038"/>
</g>

<g fill="none" stroke="#000000" stroke-opacity="1" stroke-width="1" stroke-linecap="square" stroke-linejoin="bevel" transform="matrix(0.833333,0,0,0.833333,0,0)"
font-family="Ubuntu" font-size="12.2222" font-weight="400" font-style="normal" 
>
</g>

<g fill="none" stroke="#000000" stroke-opacity="1" stroke-width="1" stroke-linecap="square" stroke-linejoin="bevel" transform="matrix(0.833333,0,0,0.833333,0,0)"
font-family="Ubuntu" font-size="12.2222" font-weight="400" font-style="normal" 
>
</g>

<g fill="none" stroke="#a0a0a4" stroke-opacity="1" stroke-dasharray="1,2" stroke-dashoffset="0" stroke-width="1" stroke-linecap="butt" stroke-linejoin="bevel" transform="matrix(0.833333,0,0,0.833333,0,0)"
font-family="Ubuntu" font-size="12.2222" font-weight="400" font-style="normal" 
>
<polyline fill="none" vector-effect="non-scaling-stroke" points="57.2771,0 57.2771,1038 " />
<polyline fill="none" vector-effect="non-scaling-stroke" points="162.895,0 162.895,1038 " />
<polyline fill="none" vector-effect="non-scaling-stroke" points="268.512,0 268.512,1038 " />
<polyline fill="none" vector-effect="non-scaling-stroke" points="374.13,0 374.13,1038 " />
<polyline fill="none" vector-effect="non-scaling-stroke" points="479.747,0 479.747,1038 " />
<polyline fill="none" vector-effect="non-scaling-stroke" points="585.365,0 585.365,1038 " />
<polyline fill="none" vector-effect="non-scaling-stroke" points="690.982,0 690.982,1038 " />
<polyline fill="none" vector-effect="non-scaling-stroke" points="796.6,0 796.6,1038 " />
<polyline fill="none" vector-effect="non-scaling-stroke" points="902.217,0 902.217,1038 " />
<polyline fill="none" vector-effect="non-scaling-stroke" points="1007.83,0 1007.83,1038 " />
<polyline fill="none" vector-effect="non-scaling-stroke" points="1113.45,0 1113.45,1038 " />
<polyline fill="none" vector-effect="non-scaling-stroke" points="1219.07,0 1219.07,1038 " />
<polyline fill="none" vector-effect="non-scaling-stroke" points="1324.69,0 1324.69,1038 " />
<polyline fill="none" vector-effect="non-scaling-stroke" points="1430.3,0 1430.3,1038 " />
<polyline fill="none" vector-effect="non-scaling-stroke" points="110.086,0 110.086,1038 " />
<polyline fill="none" vector-effect="non-scaling-stroke" points="321.321,0 321.321,1038 " />
<polyline fill="none" vector-effect="non-scaling-stroke" points="532.556,0 532.556,1038 " />
<polyline fill="none" vector-effect="non-scaling-stroke" points="743.791,0 743.791,1038 " />
<polyline fill="none" vector-effect="non-scaling-stroke" points="955.026,0 955.026,1038 " />
<polyline fill="none" vector-effect="non-scaling-stroke" points="1166.26,0 1166.26,1038 " />
<polyline fill="none" vector-effect="non-scaling-stroke" points="1377.5,0 1377.5,1038 " />
<polyline fill="none" vector-effect="non-scaling-stroke" points="38,979.292 1439,979.292 " />
<polyline fill="none" vector-effect="non-scaling-stroke" points="38,946.116 1439,946.116 " />
<polyline fill="none" vector-effect="non-scaling-stroke" points="38,912.941 1439,912.941 " />
<polyline fill="none" vector-effect="non-scaling-stroke" points="38,879.765 1439,879.765 " />
<polyline fill="none" vector-effect="non-scaling-stroke" points="38,813.414 1439,813.414 " />
<polyline fill="none" vector-effect="non-scaling-stroke" points="38,780.238 1439,780.238 " />
<polyline fill="none" vector-effect="non-scaling-stroke" points="38,747.062 1439,747.062 " />
<polyline fill="none" vector-effect="non-scaling-stroke" points="38,713.887 1439,713.887 " />
<polyline fill="none" vector-effect="non-scaling-stroke" points="38,647.535 1439,647.535 " />
<polyline fill="none" vector-effect="non-scaling-stroke" points="38,614.36 1439,614.36 " />
<polyline fill="none" vector-effect="non-scaling-stroke" points="38,581.184 1439,581.184 " />
<polyline fill="none" vector-effect="non-scaling-stroke" points="38,548.008 1439,548.008 " />
<polyline fill="none" vector-effect="non-scaling-stroke" points="38,481.657 1439,481.657 " />
<polyline fill="none" vector-effect="non-scaling-stroke" points="38,448.481 1439,448.481 " />
<polyline fill="none" vector-effect="non-scaling-stroke" points="38,415.306 1439,415.306 " />
<polyline fill="none" vector-effect="non-scaling-stroke" points="38,382.13 1439,382.13 " />
<polyline fill="none" vector-effect="non-scaling-stroke" points="38,315.779 1439,315.779 " />
<polyline fill="none" vector-effect="non-scaling-stroke" points="38,282.603 1439,282.603 " />
<polyline fill="none" vector-effect="non-scaling-stroke" points="38,249.427 1439,249.427 " />
<polyline fill="none" vector-effect="non-scaling-stroke" points="38,216.252 1439,216.252 " />
<polyline fill="none" vector-effect="non-scaling-stroke" points="38,149.9 1439,149.9 " />
<polyline fill="none" vector-effect="non-scaling-stroke" points="38,116.725 1439,116.725 " />
<polyline fill="none" vector-effect="non-scaling-stroke" points="38,83.5489 1439,83.5489 " />
<polyline fill="none" vector-effect="non-scaling-stroke" points="38,50.3732 1439,50.3732 " />
<polyline fill="none" vector-effect="non-scaling-stroke" points="215.703,0 215.703,1038 " />
<polyline fill="none" vector-effect="non-scaling-stroke" points="426.938,0 426.938,1038 " />
<polyline fill="none" vector-effect="non-scaling-stroke" points="638.173,0 638.173,1038 " />
<polyline fill="none" vector-effect="non-scaling-stroke" points="849.408,0 849.408,1038 " />
<polyline fill="none" vector-effect="non-scaling-stroke" points="1060.64,0 1060.64,1038 " />
<polyline fill="none" vector-effect="non-scaling-stroke" points="1271.88,0 1271.88,1038 " />
<polyline fill="none" vector-effect="non-scaling-stroke" points="38,1012.47 1439,1012.47 " />
<polyline fill="none" vector-effect="non-scaling-stroke" points="38,846.589 1439,846.589 " />
<polyline fill="none" vector-effect="non-scaling-stroke" points="38,680.711 1439,680.711 " />
<polyline fill="none" vector-effect="non-scaling-stroke" points="38,514.833 1439,514.833 " />
<polyline fill="none" vector-effect="non-scaling-stroke" points="38,348.954 1439,348.954 " />
<polyline fill="none" vector-effect="non-scaling-stroke" points="38,183.076 1439,183.076 " />
<polyline fill="none" vector-effect="non-scaling-stroke" points="38,17.1975 1439,17.1975 " />
</g>

<g fill="none" stroke="#000000" stroke-opacity="1" stroke-width="1" stroke-linecap="square" stroke-linejoin="bevel" transform="matrix(0.833333,0,0,0.833333,0,0)"
font-family="Ubuntu" font-size="12.2222" font-weight="400" font-style="normal" 
>
</g>

<g fill="none" stroke="#000000" stroke-opacity="1" stroke-width="1" stroke-linecap="square" stroke-linejoin="bevel" transform="matrix(0.833333,0,0,0.833333,0,0)"
font-family="Ubuntu" font-size="12.2222" font-weight="400" font-style="normal" 
>
</g>

<g fill="none" stroke="#9467bd" stroke-opacity="1" stroke-width="1.3" stroke-linecap="square" stroke-linejoin="bevel" transform="matrix(0.833333,0,0,0.833333,0,0)"
font-family="Ubuntu" font-size="12.2222" font-weight="400" font-style="normal" 
>
<polyline fill="none" vector-effect="none" points="39,512.99 39.5303,512.99 40.164,512.993 40.6909,512.993 41.3256,512.99 41.8513,512.99 42.3809,512.99 42.9072,512.99 43.542,512.99 44.0704,512.99 44.6,512.99 45.1271,512.993 45.7599,512.993 46.2901,512.99 46.8167,512.99 47.4502,512.99 47.9777,512.99 48.5055,512.99 49.0319,512.99 49.6676,512.99 50.303,512.99 50.8293,512.99 51.3599,512.993 51.8867,512.99 52.5237,512.99 53.0484,512.99 53.5776,512.99 54.104,512.99 54.6314,512.99 55.2655,512.99 55.8988,512.99 56.5325,512.993 57.0609,512.993 57.5907,512.99 58.2252,512.99 58.752,512.99 59.2792,512.99 59.9138,512.99 60.4405,512.99 60.9708,512.99 61.498,512.99 62.1321,512.99 62.7664,512.99 63.2924,512.99 63.8214,512.99 64.3488,512.99 64.983,512.99 65.5107,512.993 66.1438,512.993 66.7798,512.99 67.3077,512.99 67.8349,512.99 68.4672,512.99 68.9947,512.99 69.5219,512.99 70.0522,512.99 70.5775,512.99 71.1058,512.99 71.741,512.99 72.3757,512.99 72.9026,512.99 73.4318,512.99 74.0657,512.99 74.597,512.99 75.2268,512.993 75.7552,512.99 76.3898,512.99 76.9178,512.99 77.4476,512.99 77.9721,512.99 78.5019,512.99 79.1355,512.99 79.6627,512.99 80.1914,512.99 80.8255,512.99 81.3534,512.99 81.9872,512.99 82.5163,512.99 83.1488,512.99 83.7812,512.99 84.4179,512.99 84.8393,512.993 85.4743,513.102 86.1089,513.983 86.5287,515.81 87.1628,519.538 87.7982,524.227 88.3238,530.657 88.8529,538.464 89.5937,547.62 90.0156,557.222 90.65,568.678 91.1773,581.142 91.7029,592.602 92.2332,605.821 92.8677,619.623 93.2873,632.928 94.0281,650.168 94.6612,666.725 95.084,682.44 95.6112,698.473 96.2478,715.738 96.7729,731.901 97.409,749.302 98.0412,765.374 98.4649,781.187 99.0957,797.938 99.6243,814.227 100.365,830.163 100.893,845.525 101.422,860.243 102.054,875.318 102.69,888.68 103.216,899.573 103.745,910.73 104.38,921.166 105.013,932.39 105.435,941.384 106.07,949.694 106.597,957.407 107.125,964.46 107.652,970.816 108.182,976.533 108.815,981.821 109.343,986.542 109.871,990.657 110.505,994.358 111.032,997.73 111.562,1000.54 112.194,1003.28 112.72,1005.31 113.249,1007 113.887,1008.36 114.308,1009.54 114.941,1010.61 115.575,1011.47 116.21,1011.96 116.737,1012.22 117.371,1012.33 117.897,1012.28 118.531,1012.17 119.057,1011.79 119.589,1011.26 120.221,1010.73 120.751,1010.21 121.278,1009.64 121.911,1009.06 122.439,1008.44 122.966,1007.83 123.494,1007.2 124.234,1006.52 124.656,1006.01 125.292,1005.48 125.819,1005.03 126.349,1004.66 126.982,1004.43 127.509,1004.26 128.037,1004.15 128.671,1003.99 129.197,1003.77 129.726,1003.45 130.359,1003.01 130.889,1002.54 131.417,1001.98 132.051,1001.3 132.578,1000.63 133.212,999.931 133.952,999.161 134.478,998.518 135.114,997.924 135.64,997.355 136.276,996.882 136.804,996.484 137.437,996.169 138.072,995.986 138.596,995.886 139.128,995.743 139.655,995.48 140.182,995.16 140.817,994.792 141.24,994.334 141.874,993.794 142.508,993.105 143.036,992.509 143.564,991.887 144.091,991.246 144.724,990.606 145.252,990.012 145.781,989.44 146.412,988.904 146.944,988.453 147.47,988.103 147.999,987.854 148.526,987.68 149.159,987.557 149.794,987.393 150.321,987.127 150.956,986.755 151.589,986.288 152.222,985.717 152.858,985.069 153.385,984.451 153.915,983.842 154.44,983.265 154.97,982.626 155.602,981.986 156.131,981.421 156.659,980.832 157.292,980.334 157.82,979.959 158.347,979.666 158.98,979.422 159.614,979.302 160.038,979.163 160.671,978.947 161.303,978.624 161.834,978.207 162.469,977.709 162.995,977.126 163.629,976.508 164.261,975.894 164.684,975.226 165.318,974.539 165.846,973.938 166.481,973.331 167.008,972.765 167.537,972.274 168.065,971.802 168.697,971.484 169.225,971.232 169.86,971.061 170.388,970.944 170.918,970.798 171.549,970.511 172.077,970.17 172.605,969.768 173.243,969.273 173.769,968.711 174.297,968.121 174.93,967.503 175.354,966.871 175.881,966.306 176.515,965.602 177.148,964.933 177.781,964.272 178.415,963.756 178.945,963.336 179.471,963.043 180.105,962.845 180.634,962.73 181.268,962.562 181.797,962.393 182.323,962.088 182.85,961.69 183.382,961.318 184.015,960.803 184.541,960.14 185.071,959.525 185.704,958.897 186.232,958.204 186.866,957.575 187.393,956.98 187.921,956.397 188.45,955.903 188.976,955.392 189.611,955.002 190.245,954.685 190.774,954.506 191.407,954.405 191.935,954.244 192.463,954.01 193.096,953.667 193.73,953.253 194.365,952.692 194.893,952.125 195.421,951.49 196.054,950.862 196.688,950.075 197.216,949.391 197.85,948.788 198.485,948.103 199.012,947.588 199.537,947.118 200.278,946.705 200.808,946.389 201.334,946.219 201.971,946.098 202.603,945.932 203.13,945.673 203.66,945.375 204.185,944.916 204.819,944.462 205.348,943.91 205.876,943.327 206.405,942.719 207.038,942.015 207.567,941.387 208.198,940.726 208.834,940.048 209.36,939.442 209.994,938.951 210.63,938.511 211.159,938.175 211.793,937.953 212.318,937.852 212.952,937.717 213.375,937.551 214.009,937.258 214.43,936.893 214.958,936.503 215.592,935.97 216.12,935.339 216.754,934.711 217.39,934.002 217.917,933.352 218.552,932.621 219.185,931.982 219.714,931.402 220.242,930.89 220.873,930.422 221.402,930.06 222.034,929.792 222.565,929.619 223.09,929.502 223.621,929.343 224.251,929.104 224.886,928.722 225.415,928.322 225.942,927.79 226.576,927.208 227.104,926.605 227.74,925.927 228.373,925.201 229.008,924.476 229.534,923.799 230.168,923.186 230.802,922.661 231.437,922.128 231.962,921.761 232.49,921.495 233.126,921.323 233.652,921.206 234.393,921.018 234.92,920.741 235.448,920.402 235.975,919.983 236.504,919.566 237.033,919.014 237.562,918.454 238.195,917.755 238.722,917.081 239.356,916.42 239.988,915.701 240.52,915.122 241.154,914.54 241.681,914.058 242.206,913.673 242.735,913.344 243.37,913.123 243.897,912.998 244.426,912.886 245.059,912.692 245.59,912.344 246.327,911.999 246.856,911.545 247.384,910.962 247.913,910.424 248.439,909.831 248.969,909.181 249.601,908.504 250.234,907.763 250.762,907.156 251.29,906.6 251.924,906.04 252.452,905.559 253.087,905.197 253.615,904.901 254.249,904.719 254.882,904.622 255.41,904.458 255.939,904.205 256.466,903.871 256.996,903.476 257.627,903.017 258.261,902.394 258.791,901.814 259.315,901.209 259.848,900.534 260.48,899.842 261.009,899.22 261.641,898.546 262.276,897.97 262.805,897.466 263.331,897.075 263.86,896.77 264.388,896.55 265.021,896.406 265.656,896.241 266.288,896.014 266.924,895.658 267.452,895.281 267.979,894.803 268.614,894.261 269.246,893.601 269.773,893.015 270.304,892.386 270.831,891.758 271.465,891.068 271.993,890.488 272.624,889.843 273.154,889.342 273.682,888.905 274.317,888.531 274.841,888.282 275.583,888.136 276.109,888 276.641,887.833 277.273,887.51 277.904,887.132 278.436,886.64 278.963,886.113 279.597,885.512 280.231,884.866 280.76,884.174 281.286,883.526 281.918,882.856 282.448,882.256 283.188,881.606 283.716,881.087 284.35,880.63 284.984,880.212 285.514,879.945 286.04,879.825 286.673,879.703 287.202,879.545 287.73,879.311 288.257,878.93 288.784,878.518 289.209,878.136 289.736,877.633 290.264,877.04 290.899,876.394 291.531,875.657 292.166,874.969 292.691,874.37 293.221,873.774 293.747,873.226 294.382,872.702 295.017,872.219 295.652,871.837 296.284,871.617 296.918,871.496 297.446,871.355 297.972,871.152 298.608,870.805 299.136,870.445 299.666,870.007 300.192,869.483 300.825,868.862 301.355,868.212 301.882,867.623 302.512,866.934 302.937,866.358 303.572,865.743 304.101,865.128 304.734,864.624 305.368,864.076 306,863.667 306.529,863.437 307.163,863.243 307.795,863.126 308.325,862.945 308.853,862.711 309.488,862.311 310.014,861.854 310.648,861.353 311.176,860.757 311.703,860.094 312.231,859.545 312.868,858.854 313.499,858.166 314.027,857.503 314.66,856.88 315.189,856.358 315.823,855.818 316.457,855.456 316.879,855.191 317.513,855.003 318.041,854.902 318.57,854.767 319.097,854.582 319.626,854.284 320.153,853.903 320.683,853.449 321.315,852.883 321.949,852.281 322.477,851.622 323.111,850.933 323.64,850.266 324.168,849.673 324.8,849.078 325.435,848.423 325.963,847.85 326.49,847.422 327.124,847.088 327.653,846.829 328.179,846.666 328.815,846.549 329.446,846.365 329.977,846.11 330.502,845.759 331.139,845.303 331.771,844.756 332.299,844.188 332.828,843.597 333.355,842.984 333.884,842.345 334.52,841.661 335.046,841.047 335.573,840.456 336.101,839.913 336.629,839.442 337.263,839.064 337.792,838.699 338.427,838.463 338.954,838.34 339.588,838.207 340.116,837.997 340.75,837.675 341.383,837.253 341.913,836.797 342.439,836.318 343.073,835.723 343.601,835.092 344.13,834.453 344.66,833.83 345.292,833.135 345.926,832.54 346.452,831.861 346.98,831.386 347.613,830.889 348.25,830.464 348.774,830.246 349.514,830.063 349.938,829.967 350.467,829.808 350.993,829.537 351.629,829.163 352.262,828.71 352.79,828.166 353.423,827.555 353.951,826.96 354.585,826.331 355.218,825.6 355.747,824.921 356.273,824.298 357.016,823.621 357.649,823.004 358.176,822.578 358.704,822.246 359.338,821.96 359.97,821.778 360.5,821.68 361.027,821.501 361.66,821.228 362.294,820.808 362.821,820.354 363.457,819.852 363.983,819.245 364.619,818.601 365.146,817.976 365.675,817.317 366.309,816.59 366.835,815.995 367.47,815.459 367.998,814.87 368.523,814.382 369.16,813.985 369.689,813.7 370.324,813.526 370.85,813.394 371.378,813.275 372.012,813.005 372.539,812.703 373.172,812.256 373.806,811.692 374.336,811.218 374.968,810.56 375.602,809.854 376.13,809.141 376.659,808.535 377.292,807.904 377.821,807.339 378.348,806.792 378.876,806.329 379.403,805.881 379.933,805.555 380.565,805.299 381.2,805.156 381.729,805.022 382.362,804.841 382.888,804.564 383.417,804.193 384.052,803.712 384.685,803.12 385.213,802.557 385.845,801.931 386.375,801.211 387.008,800.53 387.537,799.904 388.064,799.328 388.699,798.703 389.226,798.185 389.86,797.697 390.494,797.317 391.021,797.059 391.657,796.912 392.29,796.777 392.818,796.595 393.345,796.322 393.979,795.931 394.508,795.505 395.037,795.01 395.67,794.353 396.304,793.668 396.936,792.925 397.57,792.262 398.098,791.568 398.838,790.888 399.368,790.284 399.894,789.795 400.528,789.37 401.056,789.022 401.584,788.76 402.219,788.599 402.746,788.485 403.272,788.307 403.907,788.036 404.541,787.663 405.068,787.237 405.597,786.711 406.23,786.06 406.755,785.471 407.497,784.734 408.025,784.06 408.554,783.407 409.186,782.754 409.821,782.162 410.349,781.605 410.879,781.159 411.513,780.77 412.04,780.485 412.673,780.321 413.201,780.227 413.835,780.05 414.361,779.776 414.998,779.453 415.526,778.984 416.16,778.445 416.791,777.768 417.427,777.115 417.954,776.554 418.589,775.813 419.117,775.183 419.749,774.527 420.278,773.951 420.806,773.389 421.44,772.944 421.969,772.524 422.602,772.247 423.129,772.079 423.765,771.939 424.291,771.803 424.82,771.581 425.452,771.22 425.982,770.811 426.614,770.292 427.142,769.688 427.671,769.106 428.304,768.48 428.833,767.852 429.36,767.159 429.994,766.485 430.629,765.825 431.262,765.201 431.895,764.716 432.529,764.319 433.163,763.948 433.69,763.761 434.22,763.644 434.852,763.506 435.379,763.26 436.015,762.896 436.648,762.454 437.177,762 437.809,761.369 438.335,760.784 438.866,760.14 439.5,759.467 440.134,758.793 440.663,758.185 441.191,757.542 441.719,757.006 442.244,756.522 442.88,756.062 443.513,755.736 444.04,755.544 444.57,755.403 445.096,755.288 445.625,755.113 446.153,754.84 446.681,754.5 447.313,754.078 447.842,753.567 448.27,753.146 448.794,752.549 449.427,751.942 449.958,751.313 450.483,750.679 451.013,750.01 451.647,749.359 452.173,748.804 452.809,748.287 453.442,747.825 453.864,747.522 454.498,747.269 455.025,747.128 455.661,746.994 456.188,746.819 456.716,746.55 457.35,746.178 457.878,745.754 458.509,745.149 459.037,744.592 459.673,743.992 460.201,743.324 460.833,742.626 461.362,741.937 462.101,741.262 462.525,740.736 463.052,740.202 463.686,739.69 464.426,739.294 464.954,738.998 465.586,738.851 466.114,738.736 466.748,738.535 467.277,738.312 467.806,737.969 468.332,737.533 468.969,736.989 469.494,736.45 470.127,735.848 470.655,735.162 471.185,734.532 471.818,733.856 472.348,733.242 472.876,732.637 473.405,732.126 474.037,731.625 474.669,731.164 475.197,730.862 475.727,730.636 476.36,730.492 476.888,730.378 477.522,730.158 478.051,729.843 478.577,729.453 479.211,729.007 479.741,728.473 480.375,727.822 480.9,727.221 481.537,726.525 482.065,725.837 482.697,725.209 483.226,724.61 483.751,724.054 484.388,723.456 485.021,722.995 485.55,722.646 486.185,722.393 486.712,722.255 487.24,722.141 487.767,721.967 488.401,721.697 489.035,721.355 489.457,720.914 490.089,720.422 490.619,719.871 491.148,719.289 491.779,718.526 492.52,717.793 493.154,717.126 493.574,716.456 494.21,715.878 494.738,715.328 495.373,714.843 496.112,714.409 496.64,714.128 497.273,713.942 497.906,713.83 498.435,713.673 498.963,713.41 499.491,713.064 500.019,712.663 500.652,712.154 500.969,711.718 501.602,711.156 502.237,710.44 502.768,709.781 503.294,709.159 503.926,708.51 504.454,707.851 505.089,707.296 505.616,706.773 506.25,706.362 506.671,706.058 507.306,705.807 507.834,705.664 508.362,705.551 508.996,705.37 509.525,705.103 510.262,704.695 510.687,704.277 511.319,703.677 511.954,703.03 512.587,702.426 513.009,701.805 513.643,701.182 514.277,700.493 514.805,699.873 515.334,699.298 515.966,698.745 516.6,698.217 517.235,697.801 517.657,697.549 518.291,697.406 518.924,697.256 519.452,697.12 519.98,696.851 520.615,696.514 521.247,696.023 521.777,695.519 522.304,694.964 522.831,694.368 523.466,693.701 523.997,693.044 524.523,692.425 525.261,691.666 525.79,691.047 526.422,690.469 526.95,690.052 527.479,689.66 528.006,689.337 528.641,689.133 529.274,689.013 529.909,688.84 530.542,688.572 531.07,688.256 531.705,687.792 532.338,687.256 532.867,686.679 533.395,686.084 534.028,685.479 534.556,684.776 535.084,684.152 535.613,683.584 536.248,682.941 536.881,682.303 537.406,681.845 537.935,681.434 538.463,681.112 539.097,680.905 539.519,680.766 540.152,680.633 540.681,680.453 541.421,680.145 541.948,679.782 542.477,679.316 543.109,678.715 543.744,678.067 544.271,677.453 544.801,676.857 545.328,676.167 545.962,675.501 546.489,674.904 547.125,674.246 547.758,673.714 548.285,673.28 548.813,672.935 549.448,672.663 549.975,672.497 550.609,672.385 551.139,672.23 551.77,671.945 552.405,671.56 552.932,671.117 553.566,670.563 553.989,670.088 554.517,669.495 555.256,668.72 555.785,668.13 556.312,667.504 556.841,666.887 557.369,666.357 557.896,665.791 558.424,665.304 559.056,664.867 559.588,664.525 560.22,664.315 560.746,664.177 561.277,664.064 561.803,663.889 562.331,663.622 562.965,663.238 563.601,662.747 564.127,662.217 564.761,661.625 565.396,660.956 565.924,660.291 566.452,659.608 567.083,658.972 567.611,658.314 568.248,657.654 568.879,657.151 569.407,656.714 569.938,656.367 570.572,656.089 571.1,655.945 571.733,655.795 572.26,655.643 572.789,655.42 573.315,655.06 573.95,654.648 574.584,654.133 575.006,653.58 575.64,652.941 576.168,652.274 576.802,651.588 577.436,650.909 577.962,650.292 578.597,649.655 579.125,649.129 579.76,648.626 580.286,648.221 580.815,647.9 581.343,647.714 581.872,647.576 582.399,647.466 583.033,647.267 583.561,646.981 584.09,646.662 584.724,646.182 585.251,645.694 585.78,645.103 586.308,644.487 586.942,643.887 587.47,643.202 588.104,642.488 588.736,641.853 589.265,641.219 589.794,640.711 590.321,640.254 590.85,639.909 591.482,639.592 592.01,639.387 592.538,639.274 593.173,639.12 593.701,638.924 594.23,638.592 594.861,638.223 595.388,637.782 595.919,637.208 596.552,636.64 597.081,635.961 597.714,635.299 598.241,634.661 598.874,633.96 599.402,633.318 600.039,632.77 600.565,632.238 601.199,631.763 601.727,631.396 602.255,631.165 602.783,631.028 603.416,630.912 603.946,630.74 604.579,630.472 605.214,630.09 605.742,629.633 606.375,629.097 606.796,628.663 607.324,628.118 607.961,627.406 608.488,626.771 609.017,626.133 609.542,625.519 610.176,624.864 610.811,624.29 611.341,623.815 611.866,623.383 612.396,623.083 612.921,622.854 613.558,622.696 614.085,622.567 614.72,622.369 615.246,622.06 615.881,621.695 616.514,621.257 616.938,620.707 617.57,620.134 618.204,619.478 618.732,618.79 619.26,618.169 619.893,617.533 620.313,616.939 620.949,616.262 621.476,615.804 622.112,615.324 622.637,614.959 623.273,614.666 623.695,614.482 624.329,614.368 624.859,614.218 625.385,614.038 626.128,613.683 626.653,613.293 627.182,612.789 627.71,612.215 628.344,611.623 628.871,611.01 629.505,610.262 630.031,609.626 630.665,608.966 631.196,608.355 631.723,607.808 632.252,607.331 632.778,606.917 633.412,606.554 633.835,606.324 634.468,606.164 634.996,606.026 635.524,605.894 636.158,605.633 636.79,605.255 637.32,604.841 637.955,604.31 638.483,603.763 639.011,603.19 639.538,602.53 640.171,601.94 640.593,601.305 641.228,600.692 641.86,600.055 642.391,599.445 642.917,598.965 643.446,598.552 644.079,598.212 644.608,597.982 645.135,597.825 645.769,597.711 646.403,597.497 646.932,597.23 647.46,596.89 648.092,596.41 648.619,595.859 649.361,595.153 649.887,594.448 650.522,593.766 651.05,593.148 651.683,592.515 652.211,591.879 652.845,591.243 653.478,590.7 654.007,590.27 654.642,589.904 655.169,589.674 655.698,589.537 656.331,589.425 656.857,589.248 657.388,588.989 657.915,588.609 658.654,588.171 659.181,587.53 659.816,586.96 660.45,586.257 661.083,585.575 661.504,584.943 662.137,584.234 662.879,583.595 663.407,582.986 664.147,582.399 664.674,581.92 665.204,581.604 665.731,581.371 666.258,581.252 666.892,581.121 667.525,580.904 668.158,580.574 668.795,580.191 669.321,579.682 669.851,579.202 670.485,578.586 671.011,577.881 671.754,577.152 672.385,576.385 672.913,575.724 673.442,575.178 674.075,574.61 674.603,574.111 675.134,573.702 675.659,573.362 676.189,573.133 676.925,572.97 677.349,572.839 677.981,572.666 678.509,572.402 679.036,572.023 679.671,571.61 680.2,571.125 680.836,570.465 681.362,569.873 681.892,569.24 682.631,568.512 683.162,567.877 683.794,567.196 684.215,566.671 684.849,566.085 685.48,565.589 686.008,565.2 686.538,564.904 687.171,564.721 687.804,564.585 688.332,564.452 688.966,564.194 689.495,563.881 690.023,563.452 690.659,562.906 691.291,562.33 691.819,561.755 692.347,561.144 692.98,560.488 693.402,559.87 693.931,559.241 694.459,558.629 695.094,558.098 695.621,557.626 696.254,557.171 696.782,556.788 697.311,556.515 697.943,556.377 698.473,556.284 699.107,556.069 699.634,555.809 700.267,555.491 700.796,555.062 701.322,554.487 702.064,553.845 702.593,553.186 703.119,552.548 703.753,551.823 704.281,551.234 704.807,550.538 705.442,549.927 706.075,549.403 706.605,548.954 707.238,548.518 707.765,548.246 708.399,548.104 709.033,547.971 709.565,547.818 710.194,547.554 710.724,547.181 711.252,546.812 711.78,546.325 712.309,545.759 712.836,545.214 713.469,544.556 714.103,543.849 714.631,543.214 715.159,542.629 715.689,541.974 716.427,541.376 716.849,540.88 717.483,540.451 718.117,540.135 718.537,539.906 719.172,539.77 719.701,539.637 720.228,539.481 720.862,539.2 721.496,538.818 721.918,538.386 722.553,537.855 723.08,537.243 723.716,536.585 724.244,536 724.877,535.365 725.406,534.638 725.934,534.026 726.46,533.458 727.095,532.937 727.623,532.482 728.151,532.076 728.786,531.775 729.311,531.548 729.946,531.435 730.475,531.261 731.109,531.062 731.741,530.709 732.27,530.295 732.903,529.727 733.431,529.178 734.065,528.52 734.592,527.923 735.227,527.224 735.755,526.587 736.283,525.958 736.811,525.387 737.443,524.782 738.08,524.237 738.606,523.849 739.133,523.513 739.662,523.307 740.401,523.168 741.036,523.035 741.458,522.838 742.09,522.512 742.616,522.103 743.253,521.625 743.78,521.1 744.416,520.469 744.942,519.832 745.578,519.197 746.105,518.559 746.74,517.835 747.266,517.24 747.9,516.626 748.429,516.127 749.062,515.695 749.484,515.35 750.012,515.081 750.647,514.942 751.175,514.788 751.81,514.635 752.443,514.395 753.076,513.99 753.602,513.558 754.132,513.016 754.765,512.361 755.399,511.77 755.925,511.043 756.668,510.315 757.3,509.574 757.934,508.983 758.357,508.418 758.992,507.873 759.517,507.438 760.047,507.076 760.575,506.803 761.103,506.644 761.63,506.528 762.264,506.377 762.794,506.178 763.429,505.845 763.955,505.419 764.482,505.001 765.011,504.41 765.539,503.885 766.067,503.274 766.595,502.66 767.228,501.982 767.861,501.304 768.285,500.742 768.918,500.131 769.552,499.542 770.186,499.065 770.712,498.682 771.346,498.433 771.983,498.311 772.614,498.174 773.145,497.978 773.671,497.694 774.303,497.295 774.833,496.834 775.466,496.33 775.993,495.665 776.629,495.076 777.158,494.395 777.79,493.714 778.213,493.125 778.846,492.468 779.482,491.899 779.903,491.395 780.538,490.876 781.17,490.474 781.699,490.222 782.332,490.059 782.966,489.926 783.599,489.753 784.127,489.51 784.655,489.157 785.29,488.678 785.818,488.174 786.557,487.536 786.977,486.944 787.507,486.313 788.142,485.602 788.776,484.968 789.409,484.335 789.831,483.764 790.358,483.225 790.991,482.747 791.626,482.295 792.154,481.976 792.682,481.817 793.209,481.68 793.739,481.55 794.478,481.33 795.005,481.047 795.426,480.664 795.956,480.226 796.59,479.671 797.117,479.103 797.751,478.428 798.386,477.746 798.914,477.068 799.548,476.367 800.075,475.779 800.709,475.168 801.237,474.625 801.872,474.167 802.399,473.828 803.032,473.596 803.667,473.415 804.298,473.282 804.827,473.106 805.463,472.756 806.095,472.391 806.623,471.886 807.257,471.29 807.784,470.701 808.419,470.016 809.053,469.335 809.578,468.607 810.215,467.958 810.743,467.366 811.378,466.777 811.903,466.255 812.537,465.846 813.066,465.507 813.594,465.258 814.227,465.139 814.756,465.008 815.284,464.835 815.916,464.549 816.447,464.192 816.972,463.713 817.606,463.208 818.138,462.659 818.559,462.137 819.194,461.521 819.72,460.907 820.247,460.251 820.774,459.593 821.408,459.007 821.937,458.506 822.464,457.984 823.1,457.487 823.733,457.164 824.263,456.942 824.788,456.819 825.529,456.686 826.056,456.449 826.584,456.162 827.218,455.801 827.746,455.32 828.379,454.705 828.909,454.102 829.436,453.473 830.07,452.84 830.599,452.205 831.125,451.594 831.656,450.98 832.287,450.342 832.922,449.846 833.449,449.387 833.976,449.019 834.612,448.725 835.248,448.548 835.775,448.456 836.407,448.239 837.039,447.969 837.57,447.568 838.201,447.133 838.731,446.584 839.364,445.967 839.894,445.352 840.527,444.709 841.161,444.01 841.686,443.331 842.218,442.692 842.742,442.122 843.378,441.586 843.907,441.153 844.433,440.767 845.067,440.471 845.596,440.312 846.122,440.195 846.756,440.062 847.287,439.844 847.813,439.493 848.448,439.059 848.975,438.596 849.612,438.028 850.244,437.365 850.771,436.749 851.301,436.093 851.935,435.411 852.569,434.752 853.093,434.115 853.625,433.569 854.149,433.116 854.784,432.662 855.312,432.34 855.841,432.113 856.369,431.953 857.004,431.84 857.638,431.646 858.269,431.356 858.797,430.955 859.328,430.515 859.959,429.966 860.595,429.351 861.121,428.712 861.651,428.079 862.178,427.443 862.812,426.713 863.444,426.027 863.973,425.46 864.609,424.914 865.241,424.397 865.769,424.073 866.297,423.84 866.93,423.663 867.564,423.53 868.091,423.358 868.62,423.112 869.253,422.687 869.889,422.248 870.522,421.696 870.945,421.126 871.474,420.625 871.999,419.943 872.633,419.309 873.27,418.585 873.901,417.899 874.536,417.246 875.062,416.742 875.697,416.245 876.225,415.879 876.752,415.602 877.282,415.44 877.915,415.325 878.443,415.171 879.075,414.909 879.606,414.595 880.239,414.181 880.662,413.698 881.295,413.106 881.931,412.441 882.562,411.777 883.197,411.034 883.723,410.397 884.253,409.779 884.781,409.206 885.52,408.554 886.046,408.074 886.576,407.667 887.21,407.322 887.737,407.157 888.371,407.027 888.896,406.889 889.428,406.674 890.061,406.39 890.59,405.979 891.224,405.47 891.752,404.943 892.278,404.372 892.913,403.707 893.44,403.039 894.073,402.359 894.601,401.741 895.238,401.083 895.872,400.445 896.398,399.968 897.032,399.514 897.454,399.195 898.088,398.942 898.722,398.801 899.25,398.667 899.778,398.513 900.408,398.232 900.94,397.85 901.464,397.368 902.206,396.863 902.733,396.218 903.263,395.653 903.789,394.971 904.319,394.354 904.952,393.648 905.479,393.054 906.112,392.371 906.746,391.893 907.168,391.412 907.802,391.018 908.437,390.744 908.966,390.561 909.493,390.443 910.022,390.292 910.549,390.097 911.184,389.763 911.817,389.33 912.451,388.775 912.979,388.222 913.506,387.648 914.246,386.937 914.774,386.256 915.302,385.637 915.831,384.98 916.359,384.396 916.993,383.803 917.626,383.25 918.259,382.819 918.787,382.519 919.422,382.27 920.056,382.151 920.69,381.996 921.219,381.754 921.744,381.422 922.484,381.003 923.012,380.477 923.54,379.925 924.176,379.304 924.597,378.805 925.123,378.077 925.757,377.438 926.39,376.728 927.027,376.154 927.555,375.604 928.083,375.061 928.61,374.649 929.245,374.282 929.877,374.027 930.406,373.891 930.935,373.779 931.567,373.604 932.095,373.318 932.624,372.956 933.152,372.496 933.785,372.007 934.314,371.416 934.948,370.792 935.582,370.107 936.109,369.42 936.743,368.737 937.271,368.122 937.904,367.46 938.432,366.974 938.962,366.539 939.489,366.133 940.018,365.856 940.652,365.691 941.18,365.555 941.705,365.403 942.34,365.2 942.868,364.895 943.395,364.486 943.924,364.024 944.558,363.439 945.086,362.847 945.72,362.137 946.248,361.501 946.988,360.835 947.517,360.169 948.045,359.573 948.572,359.005 949.207,358.479 949.732,358.066 950.368,357.677 950.895,357.484 951.424,357.328 952.058,357.214 952.585,357.021 953.114,356.798 953.75,356.418 954.276,355.925 954.803,355.482 955.437,354.864 955.964,354.224 956.599,353.54 957.232,352.805 957.763,352.188 958.395,351.588 958.923,350.907 959.452,350.382 960.085,349.927 960.613,349.576 961.245,349.253 961.774,349.07 962.301,348.975 962.83,348.843 963.358,348.626 963.992,348.334 964.412,347.947 965.155,347.388 965.892,346.765 966.422,346.123 966.946,345.502 967.476,344.833 968.003,344.195 968.746,343.485 969.271,342.906 969.801,342.315 970.436,341.805 971.07,341.412 971.49,341.096 972.125,340.886 972.652,340.705 973.18,340.597 973.815,340.376 974.449,340.064 975.083,339.65 975.61,339.164 976.242,338.654 976.771,337.967 977.406,337.394 977.931,336.774 978.462,336.132 978.989,335.448 979.621,334.823 980.152,334.252 980.679,333.718 981.206,333.306 981.948,332.916 982.369,332.64 982.899,332.48 983.529,332.361 984.272,332.161 984.801,331.919 985.326,331.534 985.96,331.12 986.383,330.633 987.015,330.054 987.649,329.362 988.284,328.695 988.812,328.103 989.448,327.368 989.974,326.768 990.607,326.171 991.135,325.599 991.663,325.121 992.193,324.789 992.718,324.444 993.353,324.237 993.884,324.12 994.407,323.982 995.043,323.766 995.573,323.477 996.101,323.132 996.733,322.71 997.155,322.13 997.788,321.618 998.211,321.004 998.845,320.333 999.48,319.691 1000.01,319.002 1000.64,318.357 1001.17,317.784 1001.7,317.272 1002.23,316.814 1002.86,316.442 1003.39,316.121 1003.91,315.917 1004.55,315.796 1005.08,315.661 1005.71,315.404 1006.34,315.083 1006.87,314.687 1007.51,314.175 1008.04,313.643 1008.56,313.041 1009.09,312.419 1009.62,311.763 1010.25,311.078 1010.78,310.45 1011.31,309.855 1011.94,309.298 1012.47,308.748 1013.11,308.289 1013.74,307.923 1014.37,307.669 1014.9,307.53 1015.53,307.421 1016.06,307.198 1016.8,306.886 1017.33,306.493 1017.86,305.953 1018.49,305.356 1019.13,304.686 1019.76,304.035 1020.29,303.34 1020.81,302.717 1021.45,302.142 1022.08,301.494 1022.61,300.916 1023.24,300.34 1023.88,299.854 1024.51,299.532 1025.14,299.345 1025.57,299.227 1026.09,299.119 1026.62,298.922 1027.15,298.633 1027.68,298.266 1028.42,297.84 1028.84,297.344 1029.37,296.785 1030,296.077 1030.53,295.5 1031.16,294.811 1031.69,294.095 1032.33,293.472 1032.96,292.81 1033.59,292.272 1034.12,291.791 1034.65,291.4 1035.28,291.142 1035.92,290.977 1036.45,290.878 1036.97,290.706 1037.61,290.458 1038.03,290.135 1038.66,289.651 1039.3,289.111 1039.93,288.527 1040.46,287.926 1040.99,287.283 1041.52,286.656 1042.04,286.045 1042.68,285.425 1043.2,284.795 1043.94,284.132 1044.58,283.619 1045.21,283.208 1045.64,282.929 1046.27,282.723 1046.79,282.625 1047.32,282.474 1047.96,282.23 1048.59,281.93 1049.12,281.486 1049.65,281.017 1050.28,280.442 1050.91,279.838 1051.44,279.167 1051.97,278.518 1052.5,277.892 1053.13,277.265 1053.55,276.693 1054.08,276.155 1054.72,275.601 1055.35,275.115 1055.98,274.759 1056.51,274.522 1057.04,274.384 1057.67,274.266 1058.2,274.093 1058.73,273.801 1059.36,273.431 1059.89,272.989 1060.63,272.402 1061.05,271.845 1061.69,271.166 1062.32,270.521 1062.95,269.843 1063.37,269.218 1064.01,268.569 1064.64,267.947 1065.17,267.433 1065.7,266.949 1066.33,266.556 1066.97,266.275 1067.5,266.131 1068.02,266.013 1068.66,265.837 1069.18,265.588 1069.82,265.225 1070.35,264.778 1070.98,264.238 1071.51,263.723 1072.04,263.135 1072.67,262.467 1073.2,261.774 1073.73,261.148 1074.36,260.445 1075,259.864 1075.52,259.285 1076.16,258.756 1076.69,258.398 1077.32,258.073 1077.84,257.866 1078.48,257.748 1079.01,257.608 1079.64,257.367 1080.27,256.998 1080.8,256.599 1081.44,256.083 1081.97,255.612 1082.6,254.907 1083.23,254.294 1083.76,253.564 1084.29,252.867 1084.92,252.254 1085.56,251.567 1086.08,251.026 1086.61,250.56 1087.25,250.104 1087.77,249.773 1088.3,249.601 1088.94,249.46 1089.46,249.328 1090.1,249.111 1090.73,248.787 1091.36,248.39 1091.79,247.942 1092.32,247.385 1092.84,246.826 1093.58,246.172 1094.01,245.525 1094.64,244.891 1095.17,244.269 1095.7,243.677 1096.22,243.114 1096.86,242.599 1097.38,242.117 1097.91,241.735 1098.55,241.487 1099.08,241.259 1099.71,241.146 1100.23,240.99 1100.87,240.7 1101.5,240.376 1102.03,239.926 1102.67,239.431 1103.19,238.845 1103.83,238.299 1104.25,237.644 1104.88,236.991 1105.52,236.312 1106.05,235.657 1106.68,235.05 1107.1,234.517 1107.74,233.962 1108.26,233.561 1108.9,233.189 1109.64,232.978 1110.06,232.861 1110.69,232.742 1111.22,232.522 1111.75,232.245 1112.38,231.868 1112.81,231.423 1113.44,230.906 1114.07,230.268 1114.6,229.653 1115.23,228.892 1115.76,228.276 1116.4,227.549 1117.03,226.898 1117.56,226.354 1118.19,225.802 1118.72,225.378 1119.25,225.047 1119.78,224.811 1120.41,224.647 1120.94,224.528 1121.47,224.352 1121.99,224.109 1122.63,223.784 1123.16,223.335 1123.79,222.857 1124.32,222.283 1124.85,221.677 1125.48,221.064 1126.01,220.351 1126.64,219.639 1127.27,218.963 1127.8,218.399 1128.44,217.808 1128.96,217.3 1129.6,216.896 1130.02,216.59 1130.65,216.401 1131.18,216.286 1131.82,216.149 1132.34,215.946 1132.87,215.622 1133.51,215.246 1134.03,214.744 1134.67,214.175 1135.3,213.515 1135.83,212.855 1136.25,212.367 1136.89,211.665 1137.52,211.003 1138.05,210.395 1138.57,209.788 1139.21,209.293 1139.74,208.867 1140.27,208.539 1140.9,208.213 1141.53,208.045 1142.06,207.925 1142.59,207.771 1143.12,207.542 1143.75,207.171 1144.38,206.674 1145.02,206.192 1145.44,205.648 1146.07,204.929 1146.71,204.262 1147.34,203.629 1147.76,202.994 1148.4,202.337 1148.93,201.703 1149.56,201.18 1150.09,200.709 1150.62,200.331 1151.25,200.004 1151.78,199.814 1152.3,199.695 1152.83,199.561 1153.47,199.356 1154,199.076 1154.52,198.699 1155.16,198.179 1155.69,197.636 1156.32,197.022 1156.95,196.408 1157.37,195.772 1158.01,195.183 1158.43,194.564 1159.07,193.92 1159.59,193.308 1160.23,192.752 1160.75,192.346 1161.39,191.928 1161.81,191.701 1162.45,191.497 1162.97,191.377 1163.5,191.24 1164.03,191.013 1164.77,190.707 1165.4,190.219 1165.93,189.712 1166.56,189.079 1167.2,188.406 1167.72,187.726 1168.36,187.041 1168.89,186.468 1169.42,185.836 1170.05,185.139 1170.68,184.63 1171.21,184.134 1171.74,183.752 1172.27,183.429 1172.9,183.231 1173.53,183.106 1174.06,182.974 1174.59,182.746 1175.12,182.469 1175.75,182.038 1176.39,181.538 1176.91,181.012 1177.44,180.438 1178.08,179.771 1178.5,179.183 1179.13,178.54 1179.66,177.91 1180.19,177.379 1180.72,176.768 1181.35,176.181 1181.88,175.779 1182.41,175.384 1183.04,175.07 1183.57,174.899 1184.31,174.779 1184.84,174.62 1185.36,174.361 1186,173.993 1186.53,173.585 1187.05,173.103 1187.58,172.542 1188.22,171.965 1188.74,171.341 1189.17,170.846 1189.8,170.16 1190.33,169.472 1190.86,168.878 1191.49,168.269 1192.02,167.787 1192.55,167.338 1193.18,167.004 1193.71,166.734 1194.24,166.589 1194.76,166.475 1195.4,166.299 1195.92,166.061 1196.56,165.665 1197.19,165.183 1197.72,164.679 1198.36,164.108 1198.88,163.438 1199.62,162.711 1200.15,162.014 1200.78,161.396 1201.31,160.736 1201.95,160.088 1202.58,159.498 1203.11,159.043 1203.74,158.688 1204.37,158.431 1205.01,158.262 1205.54,158.137 1206.17,157.954 1206.7,157.689 1207.23,157.319 1207.86,156.863 1208.39,156.361 1208.92,155.79 1209.55,155.13 1210.08,154.508 1210.71,153.812 1211.24,153.142 1211.77,152.477 1212.4,151.95 1212.93,151.4 1213.46,150.906 1213.98,150.564 1214.51,150.252 1215.15,150.039 1215.78,149.915 1216.31,149.775 1216.94,149.503 1217.47,149.218 1218.1,148.784 1218.63,148.288 1219.26,147.706 1219.9,147.029 1220.54,146.403 1221.06,145.736 1221.59,145.088 1222.12,144.471 1222.75,143.823 1223.28,143.27 1223.92,142.769 1224.34,142.391 1224.86,142.062 1225.6,141.825 1226.13,141.662 1226.76,141.537 1227.29,141.332 1227.93,141.004 1228.46,140.641 1229.09,140.181 1229.62,139.628 1230.15,139.101 1230.88,138.363 1231.31,137.766 1231.83,137.122 1232.47,136.518 1233,135.923 1233.53,135.271 1234.16,134.721 1234.69,134.233 1235.32,133.836 1235.96,133.58 1236.59,133.416 1237.01,133.318 1237.54,133.181 1238.17,132.882 1238.81,132.505 1239.44,132.04 1239.97,131.552 1240.6,130.995 1241.13,130.333 1241.76,129.691 1242.18,129.095 1242.71,128.458 1243.35,127.754 1243.98,127.174 1244.62,126.595 1245.14,126.049 1245.78,125.629 1246.41,125.339 1246.94,125.142 1247.57,125.004 1248.2,124.86 1248.84,124.581 1249.37,124.225 1250,123.793 1250.42,123.325 1250.95,122.79 1251.59,122.195 1252.11,121.616 1252.64,120.99 1253.17,120.294 1253.8,119.617 1254.44,118.989 1254.96,118.436 1255.6,117.931 1256.13,117.452 1256.76,117.114 1257.29,116.893 1257.92,116.762 1258.56,116.635 1259.08,116.409 1259.61,116.095 1260.25,115.711 1260.78,115.269 1261.41,114.681 1262.04,113.989 1262.57,113.357 1263.2,112.69 1263.73,112.059 1264.36,111.331 1264.89,110.746 1265.53,110.106 1266.16,109.523 1266.79,109.112 1267.32,108.796 1267.85,108.601 1268.38,108.478 1268.9,108.383 1269.43,108.199 1270.07,107.891 1270.6,107.485 1271.12,107.069 1271.76,106.562 1272.39,105.905 1272.92,105.298 1273.45,104.626 1274.08,103.946 1274.71,103.315 1275.24,102.663 1275.77,102.083 1276.41,101.551 1276.93,101.065 1277.57,100.677 1278.2,100.412 1278.84,100.256 1279.36,100.12 1279.89,99.9597 1280.42,99.7038 1281.05,99.3393 1281.58,98.9717 1282.11,98.4564 1282.74,97.921 1283.27,97.32 1283.8,96.6589 1284.54,95.9757 1285.07,95.2337 1285.7,94.5555 1286.23,93.9891 1286.76,93.4384 1287.28,92.9586 1287.81,92.5396 1288.55,92.1968 1289.08,91.9982 1289.71,91.8742 1290.35,91.7169 1290.98,91.4607 1291.51,91.1044 1292.14,90.6815 1292.67,90.1961 1293.3,89.6127 1293.83,89.0069 1294.36,88.3957 1294.89,87.8118 1295.42,87.2293 1295.95,86.5464 1296.58,85.8654 1297.11,85.3255 1297.63,84.8176 1298.27,84.4014 1298.9,84.0107 1299.54,83.7477 1300.17,83.5965 1300.7,83.4719 1301.22,83.2851 1301.75,83.0011 1302.39,82.5638 1302.92,82.1223 1303.55,81.631 1304.08,81.0922 1304.6,80.4325 1305.13,79.8164 1305.66,79.1709 1306.29,78.5037 1306.93,77.832 1307.46,77.2503 1308.09,76.7568 1308.62,76.248 1309.25,75.8071 1309.78,75.5532 1310.31,75.3651 1310.94,75.2498 1311.47,75.1306 1312,74.8939 1312.63,74.5766 1313.05,74.2118 1313.69,73.7143 1314.22,73.2005 1314.74,72.5657 1315.38,71.8899 1316.01,71.1854 1316.54,70.5351 1317.07,69.9201 1317.7,69.3102 1318.23,68.7495 1318.76,68.2272 1319.39,67.7966 1320.03,67.4304 1320.45,67.1903 1321.08,67.0331 1321.71,66.8912 1322.35,66.7207 1322.88,66.4628 1323.41,66.0796 1324.04,65.6115 1324.57,65.1312 1325.09,64.5689 1325.73,63.9635 1326.15,63.3268 1326.79,62.6225 1327.42,61.9292 1328.05,61.2193 1328.69,60.58 1329.32,60.017 1329.95,59.5239 1330.48,59.1551 1331.12,58.8871 1331.64,58.7607 1332.17,58.6542 1332.8,58.4223 1333.33,58.1606 1333.97,57.7484 1334.7,57.2476 1335.23,56.7046 1335.87,56.115 1336.39,55.4281 1337.03,54.7374 1337.56,54.0487 1338.19,53.3333 1338.93,52.6823 1339.46,52.1066 1339.98,51.5995 1340.62,51.2023 1341.15,50.8309 1341.78,50.5868 1342.31,50.4413 1342.84,50.3404 1343.47,50.1539 1344,49.883 1344.53,49.4921 1345.16,48.9952 1345.8,48.4802 1346.32,47.8609 1346.96,47.2184 1347.48,46.641 1347.91,46.1015 1348.54,45.4096 1349.07,44.7192 1349.81,44.0468 1350.33,43.5126 1350.87,43.0395 1351.5,42.6263 1352.13,42.3684 1352.55,42.183 1353.19,42.0631 1353.72,41.9151 1354.35,41.6752 1354.98,41.3574 1355.51,40.8648 1356.14,40.3418 1356.67,39.7961 1357.2,39.1548 1357.83,38.5309 1358.36,37.8641 1358.89,37.2787 1359.52,36.6092 1360.05,35.9677 1360.68,35.3884 1361.32,34.8586 1361.85,34.455 1362.48,34.1321 1363.01,33.9311 1363.65,33.8276 1364.28,33.663 1364.81,33.4469 1365.33,33.1342 1365.97,32.6677 1366.5,32.2117 1367.02,31.6785 1367.55,31.1066 1368.19,30.4867 1368.72,29.8435 1369.24,29.2023 1369.77,28.6274 1370.4,27.8921 1371.04,27.2842 1371.78,26.7438 1372.2,26.3036 1372.83,25.9362 1373.36,25.7122 1374,25.6667 1374.52,25.8574 1375.05,26.3645 1375.58,26.8308 1376.21,27.4736 1376.74,28.6612 1377.38,29.9157 1378.01,32.0119 1378.54,34.12 1379.06,36.8225 1379.7,39.9084 1380.23,44.2506 1380.86,48.6058 1381.49,54.0469 1381.92,60.2059 1382.55,67.9439 1383.18,74.8735 1383.71,84.5813 1384.34,93.8399 1384.77,103.984 1385.4,116.025 1386.04,128.076 1386.56,141.01 1387.09,154.805 1387.62,170.549 1388.25,185.967 1388.78,202.145 1389.42,220.218 1389.94,237.432 1390.58,255.264 1391,273.325 1391.63,294.44 1392.16,311.379 1392.69,331.116 1393.43,353.395 1393.96,371.111 1394.59,389.629 1395.12,407.455 1395.65,423.124 1396.28,437.954 1396.81,451.798 1397.34,464.418 1397.86,475.84 1398.6,487.282 1399.13,496.733 1399.66,503.161 1400.29,507.874 1400.72,510.287 1401.35,512.125 1401.77,512.76 1402.41,512.939 1402.93,512.998 1403.57,512.997 1404.1,512.997 1404.62,512.997 1405.26,512.993 1405.79,512.995 1406.31,512.995 1406.95,512.995 1407.48,512.995 1408,512.995 1408.53,512.992 1409.17,512.992 1409.69,512.992 1410.22,512.992 1410.86,512.992 1411.49,512.992 1412.12,512.993 1412.65,512.993 1413.28,512.993 1413.81,512.993 1414.45,512.993 1414.98,512.993 1415.61,512.993 1416.14,512.99 1416.66,512.99 1417.3,512.99 1417.83,512.99 1418.46,512.99 1418.99,512.99 1419.52,512.99 1420.04,512.99 1420.57,512.993 1421.1,512.993 1421.73,512.993 1422.26,512.99 1422.79,512.99 1423.32,512.99 1423.95,512.993 1424.48,512.993 1425.01,512.99 1425.64,512.99 1426.17,512.99 1426.7,512.99 1427.23,512.99 1427.75,512.99 1428.39,512.99 1428.92,512.99 1429.45,512.99 1429.97,512.99 1430.61,512.99 1431.14,512.99 1431.77,512.99 1432.4,512.993 1432.82,512.99 1433.46,512.99 1433.98,512.99 1434.51,512.993 1435.15,512.99 1435.68,512.99 1436.31,512.99 1436.84,512.99 1437.47,512.99 1438,512.99 " />
</g>

<g fill="none" stroke="#000000" stroke-opacity="1" stroke-width="1" stroke-linecap="square" stroke-linejoin="bevel" transform="matrix(0.833333,0,0,0.833333,0,0)"
font-family="Ubuntu" font-size="12.2222" font-weight="400" font-style="normal" 
>
</g>

<g fill="none" stroke="#000000" stroke-opacity="1" stroke-width="1" stroke-linecap="square" stroke-linejoin="bevel" transform="matrix(0.833333,0,0,0.833333,0,0)"
font-family="Ubuntu" font-size="12.2222" font-weight="400" font-style="normal" 
>
</g>

<g fill="none" stroke="#000000" stroke-opacity="1" stroke-width="1" stroke-linecap="square" stroke-linejoin="bevel" transform="matrix(0.833333,0,0,0.833333,0,0)"
font-family="Ubuntu" font-size="12.2222" font-weight="400" font-style="normal" 
>
</g>

<g fill="none" stroke="#111111" stroke-opacity="1" stroke-width="1" stroke-linecap="square" stroke-linejoin="bevel" transform="matrix(0.833333,0,0,0.833333,0,0)"
font-family="Ubuntu" font-size="12.2222" font-weight="400" font-style="normal" 
>
<rect x="1189" y="10" width="242" height="23"/>
</g>

<g fill="none" stroke="#000000" stroke-opacity="1" stroke-width="1" stroke-linecap="square" stroke-linejoin="bevel" transform="matrix(0.833333,0,0,0.833333,0,0)"
font-family="Ubuntu" font-size="12.2222" font-weight="400" font-style="normal" 
>
</g>

<g fill="none" stroke="#000000" stroke-opacity="1" stroke-width="1" stroke-linecap="square" stroke-linejoin="bevel" transform="matrix(0.833333,0,0,0.833333,0,0)"
font-family="Ubuntu" font-size="12.2222" font-weight="400" font-style="normal" 
>
</g>

<g fill="none" stroke="#000000" stroke-opacity="1" stroke-width="1" stroke-linecap="square" stroke-linejoin="bevel" transform="matrix(0.833333,0,0,0.833333,994.167,14.1667)"
font-family="Ubuntu" font-size="12.2222" font-weight="400" font-style="normal" 
>
</g>

<g fill="#9467bd" fill-opacity="1" stroke="none" transform="matrix(0.833333,0,0,0.833333,0,0)"
font-family="Ubuntu" font-size="12.2222" font-weight="400" font-style="normal" 
>
<path vector-effect="none" fill-rule="evenodd" d="M1193,17 L1201,17 L1201,25 L1193,25 L1193,17"/>
</g>

<g fill="none" stroke="#000000" stroke-opacity="1" stroke-width="1" stroke-linecap="square" stroke-linejoin="bevel" transform="matrix(0.833333,0,0,0.833333,994.167,14.1667)"
font-family="Ubuntu" font-size="12.2222" font-weight="400" font-style="normal" 
>
</g>

<g fill="none" stroke="#111111" stroke-opacity="1" stroke-width="1" stroke-linecap="square" stroke-linejoin="bevel" transform="matrix(0.833333,0,0,0.833333,0,0)"
font-family="Ubuntu" font-size="10" font-weight="400" font-style="normal" 
>
</g>

<g fill="none" stroke="#111111" stroke-opacity="1" stroke-width="1" stroke-linecap="square" stroke-linejoin="bevel" transform="matrix(0.833333,0,0,0.833333,0,0)"
font-family="Ubuntu" font-size="12" font-weight="400" font-style="normal" 
>
<text fill="#111111" fill-opacity="1" stroke="none" xml:space="preserve" x="1202" y="26" font-family="Ubuntu" font-size="12" font-weight="400" font-style="normal" 
 >/world_to_torch/transform/translation/y</text>
</g>

<g fill="none" stroke="#111111" stroke-opacity="1" stroke-width="1" stroke-linecap="square" stroke-linejoin="bevel" transform="matrix(0.833333,0,0,0.833333,0,0)"
font-family="Ubuntu" font-size="10" font-weight="400" font-style="normal" 
>
</g>

<g fill="none" stroke="#111111" stroke-opacity="1" stroke-width="1" stroke-linecap="square" stroke-linejoin="bevel" transform="matrix(0.833333,0,0,0.833333,0,0)"
font-family="Ubuntu" font-size="10" font-weight="400" font-style="normal" 
>
</g>

<g fill="none" stroke="#111111" stroke-opacity="1" stroke-width="1" stroke-linecap="square" stroke-linejoin="bevel" transform="matrix(0.833333,0,0,0.833333,0,0)"
font-family="Ubuntu" font-size="10" font-weight="400" font-style="normal" 
>
</g>

<g fill="none" stroke="#111111" stroke-opacity="1" stroke-width="1" stroke-linecap="square" stroke-linejoin="bevel" transform="matrix(0.833333,0,0,0.833333,0,0)"
font-family="Ubuntu" font-size="10" font-weight="400" font-style="normal" 
>
</g>

<g fill="none" stroke="#000000" stroke-opacity="1" stroke-width="1" stroke-linecap="square" stroke-linejoin="bevel" transform="matrix(0.833333,0,0,0.833333,0,0)"
font-family="Ubuntu" font-size="12.2222" font-weight="400" font-style="normal" 
>
</g>

<g fill="#ffffff" fill-opacity="1" stroke="#111111" stroke-opacity="1" stroke-width="1" stroke-linecap="square" stroke-linejoin="bevel" transform="matrix(0.833333,0,0,0.833333,0,0)"
font-family="Ubuntu" font-size="12.2222" font-weight="400" font-style="normal" 
>
<circle cx="1459" cy="10" r="5"/>
</g>

<g fill="none" stroke="#000000" stroke-opacity="1" stroke-width="1" stroke-linecap="square" stroke-linejoin="bevel" transform="matrix(0.833333,0,0,0.833333,0,0)"
font-family="Ubuntu" font-size="12.2222" font-weight="400" font-style="normal" 
>
</g>

<g fill="none" stroke="#000000" stroke-opacity="1" stroke-width="1" stroke-linecap="square" stroke-linejoin="bevel" transform="matrix(0.833333,0,0,0.833333,0,0)"
font-family="Ubuntu" font-size="12.2222" font-weight="400" font-style="normal" 
>
</g>

<g fill="none" stroke="#000000" stroke-opacity="1" stroke-width="1" stroke-linecap="square" stroke-linejoin="bevel" transform="matrix(0.833333,0,0,0.833333,0,0)"
font-family="Ubuntu" font-size="12.2222" font-weight="400" font-style="normal" 
>
</g>

<g fill="none" stroke="#111111" stroke-opacity="1" stroke-width="1" stroke-linecap="square" stroke-linejoin="bevel" transform="matrix(0,-0.833333,0.833333,0,0,864.167)"
font-family="Ubuntu" font-size="11.1111" font-weight="400" font-style="normal" 
>
</g>

<g fill="none" stroke="#111111" stroke-opacity="1" stroke-width="1" stroke-linecap="square" stroke-linejoin="bevel" transform="matrix(0,-0.833333,0.833333,0,0,864.167)"
font-family="Ubuntu" font-size="13.3333" font-weight="700" font-style="normal" 
>
</g>

<g fill="none" stroke="#111111" stroke-opacity="1" stroke-width="1" stroke-linecap="square" stroke-linejoin="bevel" transform="matrix(0,-0.833333,0.833333,0,0,864.167)"
font-family="Ubuntu" font-size="13.3333" font-weight="700" font-style="normal" 
>
</g>

<g fill="none" stroke="#111111" stroke-opacity="1" stroke-width="1" stroke-linecap="square" stroke-linejoin="bevel" transform="matrix(0,-0.833333,0.833333,0,0,864.167)"
font-family="Ubuntu" font-size="11.1111" font-weight="400" font-style="normal" 
>
</g>

<g fill="none" stroke="#000000" stroke-opacity="1" stroke-width="1" stroke-linecap="square" stroke-linejoin="bevel" transform="matrix(0.833333,0,0,0.833333,0,0)"
font-family="Ubuntu" font-size="12.2222" font-weight="400" font-style="normal" 
>
</g>

<g fill="none" stroke="#000000" stroke-opacity="1" stroke-width="1" stroke-linecap="square" stroke-linejoin="bevel" transform="matrix(0.833333,0,0,0.833333,0,0)"
font-family="Ubuntu" font-size="11.1111" font-weight="400" font-style="normal" 
>
</g>

<g fill="none" stroke="#000000" stroke-opacity="1" stroke-width="1" stroke-linecap="square" stroke-linejoin="bevel" transform="matrix(0.833333,0,0,0.833333,0,0)"
font-family="Ubuntu" font-size="11.1111" font-weight="400" font-style="normal" 
>
</g>

<g fill="none" stroke="#111111" stroke-opacity="1" stroke-width="1" stroke-linecap="square" stroke-linejoin="bevel" transform="matrix(0.833333,0,0,0.833333,0,0)"
font-family="Ubuntu" font-size="11.1111" font-weight="400" font-style="normal" 
>
</g>

<g fill="none" stroke="#111111" stroke-opacity="1" stroke-width="1" stroke-linecap="square" stroke-linejoin="bevel" transform="matrix(0.833333,0,0,0.833333,0.234375,839.556)"
font-family="Ubuntu" font-size="11.1111" font-weight="400" font-style="normal" 
>
</g>

<g fill="none" stroke="#111111" stroke-opacity="1" stroke-width="1" stroke-linecap="square" stroke-linejoin="bevel" transform="matrix(0.833333,0,0,0.833333,0.234375,839.556)"
font-family="Ubuntu" font-size="13" font-weight="400" font-style="normal" 
>
</g>

<g fill="none" stroke="#111111" stroke-opacity="1" stroke-width="1" stroke-linecap="square" stroke-linejoin="bevel" transform="matrix(0.833333,0,0,0.833333,0.234375,839.556)"
font-family="Ubuntu" font-size="13" font-weight="400" font-style="normal" 
>
<text fill="#111111" fill-opacity="1" stroke="none" xml:space="preserve" x="0" y="10" font-family="Ubuntu" font-size="13" font-weight="400" font-style="normal" 
 >-0.3</text>
</g>

<g fill="none" stroke="#111111" stroke-opacity="1" stroke-width="1" stroke-linecap="square" stroke-linejoin="bevel" transform="matrix(0.833333,0,0,0.833333,0.234375,839.556)"
font-family="Ubuntu" font-size="11.1111" font-weight="400" font-style="normal" 
>
</g>

<g fill="none" stroke="#111111" stroke-opacity="1" stroke-width="1" stroke-linecap="square" stroke-linejoin="bevel" transform="matrix(0.833333,0,0,0.833333,0.234375,839.556)"
font-family="Ubuntu" font-size="11.1111" font-weight="400" font-style="normal" 
>
</g>

<g fill="none" stroke="#111111" stroke-opacity="1" stroke-width="1" stroke-linecap="square" stroke-linejoin="bevel" transform="matrix(0.833333,0,0,0.833333,0,0)"
font-family="Ubuntu" font-size="11.1111" font-weight="400" font-style="normal" 
>
</g>

<g fill="none" stroke="#111111" stroke-opacity="1" stroke-width="1" stroke-linecap="square" stroke-linejoin="bevel" transform="matrix(0.833333,0,0,0.833333,0.234375,701.324)"
font-family="Ubuntu" font-size="11.1111" font-weight="400" font-style="normal" 
>
</g>

<g fill="none" stroke="#111111" stroke-opacity="1" stroke-width="1" stroke-linecap="square" stroke-linejoin="bevel" transform="matrix(0.833333,0,0,0.833333,0.234375,701.324)"
font-family="Ubuntu" font-size="13" font-weight="400" font-style="normal" 
>
</g>

<g fill="none" stroke="#111111" stroke-opacity="1" stroke-width="1" stroke-linecap="square" stroke-linejoin="bevel" transform="matrix(0.833333,0,0,0.833333,0.234375,701.324)"
font-family="Ubuntu" font-size="13" font-weight="400" font-style="normal" 
>
<text fill="#111111" fill-opacity="1" stroke="none" xml:space="preserve" x="0" y="10" font-family="Ubuntu" font-size="13" font-weight="400" font-style="normal" 
 >-0.2</text>
</g>

<g fill="none" stroke="#111111" stroke-opacity="1" stroke-width="1" stroke-linecap="square" stroke-linejoin="bevel" transform="matrix(0.833333,0,0,0.833333,0.234375,701.324)"
font-family="Ubuntu" font-size="11.1111" font-weight="400" font-style="normal" 
>
</g>

<g fill="none" stroke="#111111" stroke-opacity="1" stroke-width="1" stroke-linecap="square" stroke-linejoin="bevel" transform="matrix(0.833333,0,0,0.833333,0.234375,701.324)"
font-family="Ubuntu" font-size="11.1111" font-weight="400" font-style="normal" 
>
</g>

<g fill="none" stroke="#111111" stroke-opacity="1" stroke-width="1" stroke-linecap="square" stroke-linejoin="bevel" transform="matrix(0.833333,0,0,0.833333,0,0)"
font-family="Ubuntu" font-size="11.1111" font-weight="400" font-style="normal" 
>
</g>

<g fill="none" stroke="#111111" stroke-opacity="1" stroke-width="1" stroke-linecap="square" stroke-linejoin="bevel" transform="matrix(0.833333,0,0,0.833333,0.234375,563.093)"
font-family="Ubuntu" font-size="11.1111" font-weight="400" font-style="normal" 
>
</g>

<g fill="none" stroke="#111111" stroke-opacity="1" stroke-width="1" stroke-linecap="square" stroke-linejoin="bevel" transform="matrix(0.833333,0,0,0.833333,0.234375,563.093)"
font-family="Ubuntu" font-size="13" font-weight="400" font-style="normal" 
>
</g>

<g fill="none" stroke="#111111" stroke-opacity="1" stroke-width="1" stroke-linecap="square" stroke-linejoin="bevel" transform="matrix(0.833333,0,0,0.833333,0.234375,563.093)"
font-family="Ubuntu" font-size="13" font-weight="400" font-style="normal" 
>
<text fill="#111111" fill-opacity="1" stroke="none" xml:space="preserve" x="0" y="10" font-family="Ubuntu" font-size="13" font-weight="400" font-style="normal" 
 >-0.1</text>
</g>

<g fill="none" stroke="#111111" stroke-opacity="1" stroke-width="1" stroke-linecap="square" stroke-linejoin="bevel" transform="matrix(0.833333,0,0,0.833333,0.234375,563.093)"
font-family="Ubuntu" font-size="11.1111" font-weight="400" font-style="normal" 
>
</g>

<g fill="none" stroke="#111111" stroke-opacity="1" stroke-width="1" stroke-linecap="square" stroke-linejoin="bevel" transform="matrix(0.833333,0,0,0.833333,0.234375,563.093)"
font-family="Ubuntu" font-size="11.1111" font-weight="400" font-style="normal" 
>
</g>

<g fill="none" stroke="#111111" stroke-opacity="1" stroke-width="1" stroke-linecap="square" stroke-linejoin="bevel" transform="matrix(0.833333,0,0,0.833333,0,0)"
font-family="Ubuntu" font-size="11.1111" font-weight="400" font-style="normal" 
>
</g>

<g fill="none" stroke="#111111" stroke-opacity="1" stroke-width="1" stroke-linecap="square" stroke-linejoin="bevel" transform="matrix(0.833333,0,0,0.833333,12.2266,424.861)"
font-family="Ubuntu" font-size="11.1111" font-weight="400" font-style="normal" 
>
</g>

<g fill="none" stroke="#111111" stroke-opacity="1" stroke-width="1" stroke-linecap="square" stroke-linejoin="bevel" transform="matrix(0.833333,0,0,0.833333,12.2266,424.861)"
font-family="Ubuntu" font-size="13" font-weight="400" font-style="normal" 
>
</g>

<g fill="none" stroke="#111111" stroke-opacity="1" stroke-width="1" stroke-linecap="square" stroke-linejoin="bevel" transform="matrix(0.833333,0,0,0.833333,12.2266,424.861)"
font-family="Ubuntu" font-size="13" font-weight="400" font-style="normal" 
>
</g>

<g fill="none" stroke="#111111" stroke-opacity="1" stroke-width="1" stroke-linecap="square" stroke-linejoin="bevel" transform="matrix(0.833333,0,0,0.833333,12.2266,424.861)"
font-family="Ubuntu" font-size="13" font-weight="400" font-style="normal" 
>
<text fill="#111111" fill-opacity="1" stroke="none" xml:space="preserve" x="0" y="10" font-family="Ubuntu" font-size="13" font-weight="400" font-style="normal" 
 >0</text>
</g>

<g fill="none" stroke="#111111" stroke-opacity="1" stroke-width="1" stroke-linecap="square" stroke-linejoin="bevel" transform="matrix(0.833333,0,0,0.833333,12.2266,424.861)"
font-family="Ubuntu" font-size="13" font-weight="400" font-style="normal" 
>
</g>

<g fill="none" stroke="#111111" stroke-opacity="1" stroke-width="1" stroke-linecap="square" stroke-linejoin="bevel" transform="matrix(0.833333,0,0,0.833333,12.2266,424.861)"
font-family="Ubuntu" font-size="11.1111" font-weight="400" font-style="normal" 
>
</g>

<g fill="none" stroke="#111111" stroke-opacity="1" stroke-width="1" stroke-linecap="square" stroke-linejoin="bevel" transform="matrix(0.833333,0,0,0.833333,12.2266,424.861)"
font-family="Ubuntu" font-size="11.1111" font-weight="400" font-style="normal" 
>
</g>

<g fill="none" stroke="#111111" stroke-opacity="1" stroke-width="1" stroke-linecap="square" stroke-linejoin="bevel" transform="matrix(0.833333,0,0,0.833333,0,0)"
font-family="Ubuntu" font-size="11.1111" font-weight="400" font-style="normal" 
>
</g>

<g fill="none" stroke="#111111" stroke-opacity="1" stroke-width="1" stroke-linecap="square" stroke-linejoin="bevel" transform="matrix(0.833333,0,0,0.833333,3.46354,286.629)"
font-family="Ubuntu" font-size="11.1111" font-weight="400" font-style="normal" 
>
</g>

<g fill="none" stroke="#111111" stroke-opacity="1" stroke-width="1" stroke-linecap="square" stroke-linejoin="bevel" transform="matrix(0.833333,0,0,0.833333,3.46354,286.629)"
font-family="Ubuntu" font-size="13" font-weight="400" font-style="normal" 
>
</g>

<g fill="none" stroke="#111111" stroke-opacity="1" stroke-width="1" stroke-linecap="square" stroke-linejoin="bevel" transform="matrix(0.833333,0,0,0.833333,3.46354,286.629)"
font-family="Ubuntu" font-size="13" font-weight="400" font-style="normal" 
>
<text fill="#111111" fill-opacity="1" stroke="none" xml:space="preserve" x="0" y="10" font-family="Ubuntu" font-size="13" font-weight="400" font-style="normal" 
 >0.1</text>
</g>

<g fill="none" stroke="#111111" stroke-opacity="1" stroke-width="1" stroke-linecap="square" stroke-linejoin="bevel" transform="matrix(0.833333,0,0,0.833333,3.46354,286.629)"
font-family="Ubuntu" font-size="11.1111" font-weight="400" font-style="normal" 
>
</g>

<g fill="none" stroke="#111111" stroke-opacity="1" stroke-width="1" stroke-linecap="square" stroke-linejoin="bevel" transform="matrix(0.833333,0,0,0.833333,3.46354,286.629)"
font-family="Ubuntu" font-size="11.1111" font-weight="400" font-style="normal" 
>
</g>

<g fill="none" stroke="#111111" stroke-opacity="1" stroke-width="1" stroke-linecap="square" stroke-linejoin="bevel" transform="matrix(0.833333,0,0,0.833333,0,0)"
font-family="Ubuntu" font-size="11.1111" font-weight="400" font-style="normal" 
>
</g>

<g fill="none" stroke="#111111" stroke-opacity="1" stroke-width="1" stroke-linecap="square" stroke-linejoin="bevel" transform="matrix(0.833333,0,0,0.833333,3.46354,148.397)"
font-family="Ubuntu" font-size="11.1111" font-weight="400" font-style="normal" 
>
</g>

<g fill="none" stroke="#111111" stroke-opacity="1" stroke-width="1" stroke-linecap="square" stroke-linejoin="bevel" transform="matrix(0.833333,0,0,0.833333,3.46354,148.397)"
font-family="Ubuntu" font-size="13" font-weight="400" font-style="normal" 
>
</g>

<g fill="none" stroke="#111111" stroke-opacity="1" stroke-width="1" stroke-linecap="square" stroke-linejoin="bevel" transform="matrix(0.833333,0,0,0.833333,3.46354,148.397)"
font-family="Ubuntu" font-size="13" font-weight="400" font-style="normal" 
>
<text fill="#111111" fill-opacity="1" stroke="none" xml:space="preserve" x="0" y="10" font-family="Ubuntu" font-size="13" font-weight="400" font-style="normal" 
 >0.2</text>
</g>

<g fill="none" stroke="#111111" stroke-opacity="1" stroke-width="1" stroke-linecap="square" stroke-linejoin="bevel" transform="matrix(0.833333,0,0,0.833333,3.46354,148.397)"
font-family="Ubuntu" font-size="11.1111" font-weight="400" font-style="normal" 
>
</g>

<g fill="none" stroke="#111111" stroke-opacity="1" stroke-width="1" stroke-linecap="square" stroke-linejoin="bevel" transform="matrix(0.833333,0,0,0.833333,3.46354,148.397)"
font-family="Ubuntu" font-size="11.1111" font-weight="400" font-style="normal" 
>
</g>

<g fill="none" stroke="#111111" stroke-opacity="1" stroke-width="1" stroke-linecap="square" stroke-linejoin="bevel" transform="matrix(0.833333,0,0,0.833333,0,0)"
font-family="Ubuntu" font-size="11.1111" font-weight="400" font-style="normal" 
>
</g>

<g fill="none" stroke="#111111" stroke-opacity="1" stroke-width="1" stroke-linecap="square" stroke-linejoin="bevel" transform="matrix(0.833333,0,0,0.833333,3.46354,10.1646)"
font-family="Ubuntu" font-size="11.1111" font-weight="400" font-style="normal" 
>
</g>

<g fill="none" stroke="#111111" stroke-opacity="1" stroke-width="1" stroke-linecap="square" stroke-linejoin="bevel" transform="matrix(0.833333,0,0,0.833333,3.46354,10.1646)"
font-family="Ubuntu" font-size="13" font-weight="400" font-style="normal" 
>
</g>

<g fill="none" stroke="#111111" stroke-opacity="1" stroke-width="1" stroke-linecap="square" stroke-linejoin="bevel" transform="matrix(0.833333,0,0,0.833333,3.46354,10.1646)"
font-family="Ubuntu" font-size="13" font-weight="400" font-style="normal" 
>
<text fill="#111111" fill-opacity="1" stroke="none" xml:space="preserve" x="0" y="10" font-family="Ubuntu" font-size="13" font-weight="400" font-style="normal" 
 >0.3</text>
</g>

<g fill="none" stroke="#111111" stroke-opacity="1" stroke-width="1" stroke-linecap="square" stroke-linejoin="bevel" transform="matrix(0.833333,0,0,0.833333,3.46354,10.1646)"
font-family="Ubuntu" font-size="11.1111" font-weight="400" font-style="normal" 
>
</g>

<g fill="none" stroke="#111111" stroke-opacity="1" stroke-width="1" stroke-linecap="square" stroke-linejoin="bevel" transform="matrix(0.833333,0,0,0.833333,3.46354,10.1646)"
font-family="Ubuntu" font-size="11.1111" font-weight="400" font-style="normal" 
>
</g>

<g fill="none" stroke="#111111" stroke-opacity="1" stroke-width="1" stroke-linecap="square" stroke-linejoin="bevel" transform="matrix(0.833333,0,0,0.833333,0,0)"
font-family="Ubuntu" font-size="11.1111" font-weight="400" font-style="normal" 
>
</g>

<g fill="none" stroke="#000000" stroke-opacity="1" stroke-width="1" stroke-linecap="square" stroke-linejoin="bevel" transform="matrix(0.833333,0,0,0.833333,0,0)"
font-family="Ubuntu" font-size="11.1111" font-weight="400" font-style="normal" 
>
</g>

<g fill="none" stroke="#111111" stroke-opacity="1" stroke-width="1" stroke-linecap="butt" stroke-linejoin="bevel" transform="matrix(0.833333,0,0,0.833333,0,0)"
font-family="Ubuntu" font-size="11.1111" font-weight="400" font-style="normal" 
>
<polyline fill="none" vector-effect="non-scaling-stroke" points="35.5,979.292 30.3,979.292 " />
<polyline fill="none" vector-effect="non-scaling-stroke" points="35.5,946.116 30.3,946.116 " />
<polyline fill="none" vector-effect="non-scaling-stroke" points="35.5,912.941 30.3,912.941 " />
<polyline fill="none" vector-effect="non-scaling-stroke" points="35.5,879.765 30.3,879.765 " />
<polyline fill="none" vector-effect="non-scaling-stroke" points="35.5,813.414 30.3,813.414 " />
<polyline fill="none" vector-effect="non-scaling-stroke" points="35.5,780.238 30.3,780.238 " />
<polyline fill="none" vector-effect="non-scaling-stroke" points="35.5,747.062 30.3,747.062 " />
<polyline fill="none" vector-effect="non-scaling-stroke" points="35.5,713.887 30.3,713.887 " />
<polyline fill="none" vector-effect="non-scaling-stroke" points="35.5,647.535 30.3,647.535 " />
<polyline fill="none" vector-effect="non-scaling-stroke" points="35.5,614.36 30.3,614.36 " />
<polyline fill="none" vector-effect="non-scaling-stroke" points="35.5,581.184 30.3,581.184 " />
<polyline fill="none" vector-effect="non-scaling-stroke" points="35.5,548.008 30.3,548.008 " />
<polyline fill="none" vector-effect="non-scaling-stroke" points="35.5,481.657 30.3,481.657 " />
<polyline fill="none" vector-effect="non-scaling-stroke" points="35.5,448.481 30.3,448.481 " />
<polyline fill="none" vector-effect="non-scaling-stroke" points="35.5,415.306 30.3,415.306 " />
<polyline fill="none" vector-effect="non-scaling-stroke" points="35.5,382.13 30.3,382.13 " />
<polyline fill="none" vector-effect="non-scaling-stroke" points="35.5,315.779 30.3,315.779 " />
<polyline fill="none" vector-effect="non-scaling-stroke" points="35.5,282.603 30.3,282.603 " />
<polyline fill="none" vector-effect="non-scaling-stroke" points="35.5,249.427 30.3,249.427 " />
<polyline fill="none" vector-effect="non-scaling-stroke" points="35.5,216.252 30.3,216.252 " />
<polyline fill="none" vector-effect="non-scaling-stroke" points="35.5,149.9 30.3,149.9 " />
<polyline fill="none" vector-effect="non-scaling-stroke" points="35.5,116.725 30.3,116.725 " />
<polyline fill="none" vector-effect="non-scaling-stroke" points="35.5,83.5489 30.3,83.5489 " />
<polyline fill="none" vector-effect="non-scaling-stroke" points="35.5,50.3732 30.3,50.3732 " />
<polyline fill="none" vector-effect="non-scaling-stroke" points="35.5,1012.47 26.3,1012.47 " />
<polyline fill="none" vector-effect="non-scaling-stroke" points="35.5,846.589 26.3,846.589 " />
<polyline fill="none" vector-effect="non-scaling-stroke" points="35.5,680.711 26.3,680.711 " />
<polyline fill="none" vector-effect="non-scaling-stroke" points="35.5,514.833 26.3,514.833 " />
<polyline fill="none" vector-effect="non-scaling-stroke" points="35.5,348.954 26.3,348.954 " />
<polyline fill="none" vector-effect="non-scaling-stroke" points="35.5,183.076 26.3,183.076 " />
<polyline fill="none" vector-effect="non-scaling-stroke" points="35.5,17.1975 26.3,17.1975 " />
</g>

<g fill="none" stroke="#000000" stroke-opacity="1" stroke-width="1" stroke-linecap="square" stroke-linejoin="bevel" transform="matrix(0.833333,0,0,0.833333,0,0)"
font-family="Ubuntu" font-size="11.1111" font-weight="400" font-style="normal" 
>
</g>

<g fill="none" stroke="#111111" stroke-opacity="1" stroke-width="1" stroke-linecap="butt" stroke-linejoin="bevel" transform="matrix(0.833333,0,0,0.833333,0,0)"
font-family="Ubuntu" font-size="11.1111" font-weight="400" font-style="normal" 
>
<polyline fill="none" vector-effect="non-scaling-stroke" points="35.4,1 35.4,1037 " />
</g>

<g fill="none" stroke="#000000" stroke-opacity="1" stroke-width="1" stroke-linecap="square" stroke-linejoin="bevel" transform="matrix(0.833333,0,0,0.833333,0,0)"
font-family="Ubuntu" font-size="11.1111" font-weight="400" font-style="normal" 
>
</g>

<g fill="none" stroke="#000000" stroke-opacity="1" stroke-width="1" stroke-linecap="square" stroke-linejoin="bevel" transform="matrix(0.833333,0,0,0.833333,0,0)"
font-family="Ubuntu" font-size="11.1111" font-weight="400" font-style="normal" 
>
</g>

<g fill="none" stroke="#000000" stroke-opacity="1" stroke-width="1" stroke-linecap="square" stroke-linejoin="bevel" transform="matrix(0.833333,0,0,0.833333,0,0)"
font-family="Ubuntu" font-size="12.2222" font-weight="400" font-style="normal" 
>
</g>

<g fill="none" stroke="#111111" stroke-opacity="1" stroke-width="1" stroke-linecap="square" stroke-linejoin="bevel" transform="matrix(0.833333,0,0,0.833333,32.5,900.833)"
font-family="Ubuntu" font-size="11.1111" font-weight="400" font-style="normal" 
>
</g>

<g fill="none" stroke="#111111" stroke-opacity="1" stroke-width="1" stroke-linecap="square" stroke-linejoin="bevel" transform="matrix(0.833333,0,0,0.833333,32.5,900.833)"
font-family="Ubuntu" font-size="13.3333" font-weight="700" font-style="normal" 
>
</g>

<g fill="none" stroke="#111111" stroke-opacity="1" stroke-width="1" stroke-linecap="square" stroke-linejoin="bevel" transform="matrix(0.833333,0,0,0.833333,32.5,900.833)"
font-family="Ubuntu" font-size="13.3333" font-weight="700" font-style="normal" 
>
</g>

<g fill="none" stroke="#111111" stroke-opacity="1" stroke-width="1" stroke-linecap="square" stroke-linejoin="bevel" transform="matrix(0.833333,0,0,0.833333,32.5,900.833)"
font-family="Ubuntu" font-size="11.1111" font-weight="400" font-style="normal" 
>
</g>

<g fill="none" stroke="#000000" stroke-opacity="1" stroke-width="1" stroke-linecap="square" stroke-linejoin="bevel" transform="matrix(0.833333,0,0,0.833333,0,0)"
font-family="Ubuntu" font-size="12.2222" font-weight="400" font-style="normal" 
>
</g>

<g fill="none" stroke="#000000" stroke-opacity="1" stroke-width="1" stroke-linecap="square" stroke-linejoin="bevel" transform="matrix(0.833333,0,0,0.833333,0,0)"
font-family="Ubuntu" font-size="11.1111" font-weight="400" font-style="normal" 
>
</g>

<g fill="none" stroke="#000000" stroke-opacity="1" stroke-width="1" stroke-linecap="square" stroke-linejoin="bevel" transform="matrix(0.833333,0,0,0.833333,0,0)"
font-family="Ubuntu" font-size="11.1111" font-weight="400" font-style="normal" 
>
</g>

<g fill="none" stroke="#111111" stroke-opacity="1" stroke-width="1" stroke-linecap="square" stroke-linejoin="bevel" transform="matrix(0.833333,0,0,0.833333,0,0)"
font-family="Ubuntu" font-size="11.1111" font-weight="400" font-style="normal" 
>
</g>

<g fill="none" stroke="#111111" stroke-opacity="1" stroke-width="1" stroke-linecap="square" stroke-linejoin="bevel" transform="matrix(0.833333,0,0,0.833333,151.641,878.333)"
font-family="Ubuntu" font-size="11.1111" font-weight="400" font-style="normal" 
>
</g>

<g fill="none" stroke="#111111" stroke-opacity="1" stroke-width="1" stroke-linecap="square" stroke-linejoin="bevel" transform="matrix(0.833333,0,0,0.833333,151.641,878.333)"
font-family="Ubuntu" font-size="13" font-weight="400" font-style="normal" 
>
</g>

<g fill="none" stroke="#111111" stroke-opacity="1" stroke-width="1" stroke-linecap="square" stroke-linejoin="bevel" transform="matrix(0.833333,0,0,0.833333,151.641,878.333)"
font-family="Ubuntu" font-size="13" font-weight="400" font-style="normal" 
>
</g>

<g fill="none" stroke="#111111" stroke-opacity="1" stroke-width="1" stroke-linecap="square" stroke-linejoin="bevel" transform="matrix(0.833333,0,0,0.833333,151.641,878.333)"
font-family="Ubuntu" font-size="13" font-weight="400" font-style="normal" 
>
<text fill="#111111" fill-opacity="1" stroke="none" xml:space="preserve" x="0" y="10" font-family="Ubuntu" font-size="13" font-weight="400" font-style="normal" 
 >15:35:20.0</text>
</g>

<g fill="none" stroke="#111111" stroke-opacity="1" stroke-width="1" stroke-linecap="square" stroke-linejoin="bevel" transform="matrix(0.833333,0,0,0.833333,151.641,878.333)"
font-family="Ubuntu" font-size="13" font-weight="400" font-style="normal" 
>
<text fill="#111111" fill-opacity="1" stroke="none" xml:space="preserve" x="0" y="25" font-family="Ubuntu" font-size="13" font-weight="400" font-style="normal" 
 >2024 Jul 10</text>
</g>

<g fill="none" stroke="#111111" stroke-opacity="1" stroke-width="1" stroke-linecap="square" stroke-linejoin="bevel" transform="matrix(0.833333,0,0,0.833333,151.641,878.333)"
font-family="Ubuntu" font-size="13" font-weight="400" font-style="normal" 
>
</g>

<g fill="none" stroke="#111111" stroke-opacity="1" stroke-width="1" stroke-linecap="square" stroke-linejoin="bevel" transform="matrix(0.833333,0,0,0.833333,151.641,878.333)"
font-family="Ubuntu" font-size="11.1111" font-weight="400" font-style="normal" 
>
</g>

<g fill="none" stroke="#111111" stroke-opacity="1" stroke-width="1" stroke-linecap="square" stroke-linejoin="bevel" transform="matrix(0.833333,0,0,0.833333,151.641,878.333)"
font-family="Ubuntu" font-size="11.1111" font-weight="400" font-style="normal" 
>
</g>

<g fill="none" stroke="#111111" stroke-opacity="1" stroke-width="1" stroke-linecap="square" stroke-linejoin="bevel" transform="matrix(0.833333,0,0,0.833333,0,0)"
font-family="Ubuntu" font-size="11.1111" font-weight="400" font-style="normal" 
>
</g>

<g fill="none" stroke="#111111" stroke-opacity="1" stroke-width="1" stroke-linecap="square" stroke-linejoin="bevel" transform="matrix(0.833333,0,0,0.833333,327.67,878.333)"
font-family="Ubuntu" font-size="11.1111" font-weight="400" font-style="normal" 
>
</g>

<g fill="none" stroke="#111111" stroke-opacity="1" stroke-width="1" stroke-linecap="square" stroke-linejoin="bevel" transform="matrix(0.833333,0,0,0.833333,327.67,878.333)"
font-family="Ubuntu" font-size="13" font-weight="400" font-style="normal" 
>
</g>

<g fill="none" stroke="#111111" stroke-opacity="1" stroke-width="1" stroke-linecap="square" stroke-linejoin="bevel" transform="matrix(0.833333,0,0,0.833333,327.67,878.333)"
font-family="Ubuntu" font-size="13" font-weight="400" font-style="normal" 
>
</g>

<g fill="none" stroke="#111111" stroke-opacity="1" stroke-width="1" stroke-linecap="square" stroke-linejoin="bevel" transform="matrix(0.833333,0,0,0.833333,327.67,878.333)"
font-family="Ubuntu" font-size="13" font-weight="400" font-style="normal" 
>
<text fill="#111111" fill-opacity="1" stroke="none" xml:space="preserve" x="0" y="10" font-family="Ubuntu" font-size="13" font-weight="400" font-style="normal" 
 >15:35:40.0</text>
</g>

<g fill="none" stroke="#111111" stroke-opacity="1" stroke-width="1" stroke-linecap="square" stroke-linejoin="bevel" transform="matrix(0.833333,0,0,0.833333,327.67,878.333)"
font-family="Ubuntu" font-size="13" font-weight="400" font-style="normal" 
>
<text fill="#111111" fill-opacity="1" stroke="none" xml:space="preserve" x="0" y="25" font-family="Ubuntu" font-size="13" font-weight="400" font-style="normal" 
 >2024 Jul 10</text>
</g>

<g fill="none" stroke="#111111" stroke-opacity="1" stroke-width="1" stroke-linecap="square" stroke-linejoin="bevel" transform="matrix(0.833333,0,0,0.833333,327.67,878.333)"
font-family="Ubuntu" font-size="13" font-weight="400" font-style="normal" 
>
</g>

<g fill="none" stroke="#111111" stroke-opacity="1" stroke-width="1" stroke-linecap="square" stroke-linejoin="bevel" transform="matrix(0.833333,0,0,0.833333,327.67,878.333)"
font-family="Ubuntu" font-size="11.1111" font-weight="400" font-style="normal" 
>
</g>

<g fill="none" stroke="#111111" stroke-opacity="1" stroke-width="1" stroke-linecap="square" stroke-linejoin="bevel" transform="matrix(0.833333,0,0,0.833333,327.67,878.333)"
font-family="Ubuntu" font-size="11.1111" font-weight="400" font-style="normal" 
>
</g>

<g fill="none" stroke="#111111" stroke-opacity="1" stroke-width="1" stroke-linecap="square" stroke-linejoin="bevel" transform="matrix(0.833333,0,0,0.833333,0,0)"
font-family="Ubuntu" font-size="11.1111" font-weight="400" font-style="normal" 
>
</g>

<g fill="none" stroke="#111111" stroke-opacity="1" stroke-width="1" stroke-linecap="square" stroke-linejoin="bevel" transform="matrix(0.833333,0,0,0.833333,503.699,878.333)"
font-family="Ubuntu" font-size="11.1111" font-weight="400" font-style="normal" 
>
</g>

<g fill="none" stroke="#111111" stroke-opacity="1" stroke-width="1" stroke-linecap="square" stroke-linejoin="bevel" transform="matrix(0.833333,0,0,0.833333,503.699,878.333)"
font-family="Ubuntu" font-size="13" font-weight="400" font-style="normal" 
>
</g>

<g fill="none" stroke="#111111" stroke-opacity="1" stroke-width="1" stroke-linecap="square" stroke-linejoin="bevel" transform="matrix(0.833333,0,0,0.833333,503.699,878.333)"
font-family="Ubuntu" font-size="13" font-weight="400" font-style="normal" 
>
</g>

<g fill="none" stroke="#111111" stroke-opacity="1" stroke-width="1" stroke-linecap="square" stroke-linejoin="bevel" transform="matrix(0.833333,0,0,0.833333,503.699,878.333)"
font-family="Ubuntu" font-size="13" font-weight="400" font-style="normal" 
>
<text fill="#111111" fill-opacity="1" stroke="none" xml:space="preserve" x="0" y="10" font-family="Ubuntu" font-size="13" font-weight="400" font-style="normal" 
 >15:36:00.0</text>
</g>

<g fill="none" stroke="#111111" stroke-opacity="1" stroke-width="1" stroke-linecap="square" stroke-linejoin="bevel" transform="matrix(0.833333,0,0,0.833333,503.699,878.333)"
font-family="Ubuntu" font-size="13" font-weight="400" font-style="normal" 
>
<text fill="#111111" fill-opacity="1" stroke="none" xml:space="preserve" x="0" y="25" font-family="Ubuntu" font-size="13" font-weight="400" font-style="normal" 
 >2024 Jul 10</text>
</g>

<g fill="none" stroke="#111111" stroke-opacity="1" stroke-width="1" stroke-linecap="square" stroke-linejoin="bevel" transform="matrix(0.833333,0,0,0.833333,503.699,878.333)"
font-family="Ubuntu" font-size="13" font-weight="400" font-style="normal" 
>
</g>

<g fill="none" stroke="#111111" stroke-opacity="1" stroke-width="1" stroke-linecap="square" stroke-linejoin="bevel" transform="matrix(0.833333,0,0,0.833333,503.699,878.333)"
font-family="Ubuntu" font-size="11.1111" font-weight="400" font-style="normal" 
>
</g>

<g fill="none" stroke="#111111" stroke-opacity="1" stroke-width="1" stroke-linecap="square" stroke-linejoin="bevel" transform="matrix(0.833333,0,0,0.833333,503.699,878.333)"
font-family="Ubuntu" font-size="11.1111" font-weight="400" font-style="normal" 
>
</g>

<g fill="none" stroke="#111111" stroke-opacity="1" stroke-width="1" stroke-linecap="square" stroke-linejoin="bevel" transform="matrix(0.833333,0,0,0.833333,0,0)"
font-family="Ubuntu" font-size="11.1111" font-weight="400" font-style="normal" 
>
</g>

<g fill="none" stroke="#111111" stroke-opacity="1" stroke-width="1" stroke-linecap="square" stroke-linejoin="bevel" transform="matrix(0.833333,0,0,0.833333,679.728,878.333)"
font-family="Ubuntu" font-size="11.1111" font-weight="400" font-style="normal" 
>
</g>

<g fill="none" stroke="#111111" stroke-opacity="1" stroke-width="1" stroke-linecap="square" stroke-linejoin="bevel" transform="matrix(0.833333,0,0,0.833333,679.728,878.333)"
font-family="Ubuntu" font-size="13" font-weight="400" font-style="normal" 
>
</g>

<g fill="none" stroke="#111111" stroke-opacity="1" stroke-width="1" stroke-linecap="square" stroke-linejoin="bevel" transform="matrix(0.833333,0,0,0.833333,679.728,878.333)"
font-family="Ubuntu" font-size="13" font-weight="400" font-style="normal" 
>
</g>

<g fill="none" stroke="#111111" stroke-opacity="1" stroke-width="1" stroke-linecap="square" stroke-linejoin="bevel" transform="matrix(0.833333,0,0,0.833333,679.728,878.333)"
font-family="Ubuntu" font-size="13" font-weight="400" font-style="normal" 
>
<text fill="#111111" fill-opacity="1" stroke="none" xml:space="preserve" x="0" y="10" font-family="Ubuntu" font-size="13" font-weight="400" font-style="normal" 
 >15:36:20.0</text>
</g>

<g fill="none" stroke="#111111" stroke-opacity="1" stroke-width="1" stroke-linecap="square" stroke-linejoin="bevel" transform="matrix(0.833333,0,0,0.833333,679.728,878.333)"
font-family="Ubuntu" font-size="13" font-weight="400" font-style="normal" 
>
<text fill="#111111" fill-opacity="1" stroke="none" xml:space="preserve" x="0" y="25" font-family="Ubuntu" font-size="13" font-weight="400" font-style="normal" 
 >2024 Jul 10</text>
</g>

<g fill="none" stroke="#111111" stroke-opacity="1" stroke-width="1" stroke-linecap="square" stroke-linejoin="bevel" transform="matrix(0.833333,0,0,0.833333,679.728,878.333)"
font-family="Ubuntu" font-size="13" font-weight="400" font-style="normal" 
>
</g>

<g fill="none" stroke="#111111" stroke-opacity="1" stroke-width="1" stroke-linecap="square" stroke-linejoin="bevel" transform="matrix(0.833333,0,0,0.833333,679.728,878.333)"
font-family="Ubuntu" font-size="11.1111" font-weight="400" font-style="normal" 
>
</g>

<g fill="none" stroke="#111111" stroke-opacity="1" stroke-width="1" stroke-linecap="square" stroke-linejoin="bevel" transform="matrix(0.833333,0,0,0.833333,679.728,878.333)"
font-family="Ubuntu" font-size="11.1111" font-weight="400" font-style="normal" 
>
</g>

<g fill="none" stroke="#111111" stroke-opacity="1" stroke-width="1" stroke-linecap="square" stroke-linejoin="bevel" transform="matrix(0.833333,0,0,0.833333,0,0)"
font-family="Ubuntu" font-size="11.1111" font-weight="400" font-style="normal" 
>
</g>

<g fill="none" stroke="#111111" stroke-opacity="1" stroke-width="1" stroke-linecap="square" stroke-linejoin="bevel" transform="matrix(0.833333,0,0,0.833333,855.757,878.333)"
font-family="Ubuntu" font-size="11.1111" font-weight="400" font-style="normal" 
>
</g>

<g fill="none" stroke="#111111" stroke-opacity="1" stroke-width="1" stroke-linecap="square" stroke-linejoin="bevel" transform="matrix(0.833333,0,0,0.833333,855.757,878.333)"
font-family="Ubuntu" font-size="13" font-weight="400" font-style="normal" 
>
</g>

<g fill="none" stroke="#111111" stroke-opacity="1" stroke-width="1" stroke-linecap="square" stroke-linejoin="bevel" transform="matrix(0.833333,0,0,0.833333,855.757,878.333)"
font-family="Ubuntu" font-size="13" font-weight="400" font-style="normal" 
>
</g>

<g fill="none" stroke="#111111" stroke-opacity="1" stroke-width="1" stroke-linecap="square" stroke-linejoin="bevel" transform="matrix(0.833333,0,0,0.833333,855.757,878.333)"
font-family="Ubuntu" font-size="13" font-weight="400" font-style="normal" 
>
<text fill="#111111" fill-opacity="1" stroke="none" xml:space="preserve" x="0" y="10" font-family="Ubuntu" font-size="13" font-weight="400" font-style="normal" 
 >15:36:40.0</text>
</g>

<g fill="none" stroke="#111111" stroke-opacity="1" stroke-width="1" stroke-linecap="square" stroke-linejoin="bevel" transform="matrix(0.833333,0,0,0.833333,855.757,878.333)"
font-family="Ubuntu" font-size="13" font-weight="400" font-style="normal" 
>
<text fill="#111111" fill-opacity="1" stroke="none" xml:space="preserve" x="0" y="25" font-family="Ubuntu" font-size="13" font-weight="400" font-style="normal" 
 >2024 Jul 10</text>
</g>

<g fill="none" stroke="#111111" stroke-opacity="1" stroke-width="1" stroke-linecap="square" stroke-linejoin="bevel" transform="matrix(0.833333,0,0,0.833333,855.757,878.333)"
font-family="Ubuntu" font-size="13" font-weight="400" font-style="normal" 
>
</g>

<g fill="none" stroke="#111111" stroke-opacity="1" stroke-width="1" stroke-linecap="square" stroke-linejoin="bevel" transform="matrix(0.833333,0,0,0.833333,855.757,878.333)"
font-family="Ubuntu" font-size="11.1111" font-weight="400" font-style="normal" 
>
</g>

<g fill="none" stroke="#111111" stroke-opacity="1" stroke-width="1" stroke-linecap="square" stroke-linejoin="bevel" transform="matrix(0.833333,0,0,0.833333,855.757,878.333)"
font-family="Ubuntu" font-size="11.1111" font-weight="400" font-style="normal" 
>
</g>

<g fill="none" stroke="#111111" stroke-opacity="1" stroke-width="1" stroke-linecap="square" stroke-linejoin="bevel" transform="matrix(0.833333,0,0,0.833333,0,0)"
font-family="Ubuntu" font-size="11.1111" font-weight="400" font-style="normal" 
>
</g>

<g fill="none" stroke="#111111" stroke-opacity="1" stroke-width="1" stroke-linecap="square" stroke-linejoin="bevel" transform="matrix(0.833333,0,0,0.833333,1031.79,878.333)"
font-family="Ubuntu" font-size="11.1111" font-weight="400" font-style="normal" 
>
</g>

<g fill="none" stroke="#111111" stroke-opacity="1" stroke-width="1" stroke-linecap="square" stroke-linejoin="bevel" transform="matrix(0.833333,0,0,0.833333,1031.79,878.333)"
font-family="Ubuntu" font-size="13" font-weight="400" font-style="normal" 
>
</g>

<g fill="none" stroke="#111111" stroke-opacity="1" stroke-width="1" stroke-linecap="square" stroke-linejoin="bevel" transform="matrix(0.833333,0,0,0.833333,1031.79,878.333)"
font-family="Ubuntu" font-size="13" font-weight="400" font-style="normal" 
>
</g>

<g fill="none" stroke="#111111" stroke-opacity="1" stroke-width="1" stroke-linecap="square" stroke-linejoin="bevel" transform="matrix(0.833333,0,0,0.833333,1031.79,878.333)"
font-family="Ubuntu" font-size="13" font-weight="400" font-style="normal" 
>
<text fill="#111111" fill-opacity="1" stroke="none" xml:space="preserve" x="0" y="10" font-family="Ubuntu" font-size="13" font-weight="400" font-style="normal" 
 >15:37:00.0</text>
</g>

<g fill="none" stroke="#111111" stroke-opacity="1" stroke-width="1" stroke-linecap="square" stroke-linejoin="bevel" transform="matrix(0.833333,0,0,0.833333,1031.79,878.333)"
font-family="Ubuntu" font-size="13" font-weight="400" font-style="normal" 
>
<text fill="#111111" fill-opacity="1" stroke="none" xml:space="preserve" x="0" y="25" font-family="Ubuntu" font-size="13" font-weight="400" font-style="normal" 
 >2024 Jul 10</text>
</g>

<g fill="none" stroke="#111111" stroke-opacity="1" stroke-width="1" stroke-linecap="square" stroke-linejoin="bevel" transform="matrix(0.833333,0,0,0.833333,1031.79,878.333)"
font-family="Ubuntu" font-size="13" font-weight="400" font-style="normal" 
>
</g>

<g fill="none" stroke="#111111" stroke-opacity="1" stroke-width="1" stroke-linecap="square" stroke-linejoin="bevel" transform="matrix(0.833333,0,0,0.833333,1031.79,878.333)"
font-family="Ubuntu" font-size="11.1111" font-weight="400" font-style="normal" 
>
</g>

<g fill="none" stroke="#111111" stroke-opacity="1" stroke-width="1" stroke-linecap="square" stroke-linejoin="bevel" transform="matrix(0.833333,0,0,0.833333,1031.79,878.333)"
font-family="Ubuntu" font-size="11.1111" font-weight="400" font-style="normal" 
>
</g>

<g fill="none" stroke="#111111" stroke-opacity="1" stroke-width="1" stroke-linecap="square" stroke-linejoin="bevel" transform="matrix(0.833333,0,0,0.833333,0,0)"
font-family="Ubuntu" font-size="11.1111" font-weight="400" font-style="normal" 
>
</g>

<g fill="none" stroke="#000000" stroke-opacity="1" stroke-width="1" stroke-linecap="square" stroke-linejoin="bevel" transform="matrix(0.833333,0,0,0.833333,0,0)"
font-family="Ubuntu" font-size="11.1111" font-weight="400" font-style="normal" 
>
</g>

<g fill="none" stroke="#111111" stroke-opacity="1" stroke-width="1" stroke-linecap="butt" stroke-linejoin="bevel" transform="matrix(0.833333,0,0,0.833333,0,0)"
font-family="Ubuntu" font-size="11.1111" font-weight="400" font-style="normal" 
>
<polyline fill="none" vector-effect="non-scaling-stroke" points="57.2771,1040.5 57.2771,1045.7 " />
<polyline fill="none" vector-effect="non-scaling-stroke" points="162.895,1040.5 162.895,1045.7 " />
<polyline fill="none" vector-effect="non-scaling-stroke" points="268.512,1040.5 268.512,1045.7 " />
<polyline fill="none" vector-effect="non-scaling-stroke" points="374.13,1040.5 374.13,1045.7 " />
<polyline fill="none" vector-effect="non-scaling-stroke" points="479.747,1040.5 479.747,1045.7 " />
<polyline fill="none" vector-effect="non-scaling-stroke" points="585.365,1040.5 585.365,1045.7 " />
<polyline fill="none" vector-effect="non-scaling-stroke" points="690.982,1040.5 690.982,1045.7 " />
<polyline fill="none" vector-effect="non-scaling-stroke" points="796.6,1040.5 796.6,1045.7 " />
<polyline fill="none" vector-effect="non-scaling-stroke" points="902.217,1040.5 902.217,1045.7 " />
<polyline fill="none" vector-effect="non-scaling-stroke" points="1007.83,1040.5 1007.83,1045.7 " />
<polyline fill="none" vector-effect="non-scaling-stroke" points="1113.45,1040.5 1113.45,1045.7 " />
<polyline fill="none" vector-effect="non-scaling-stroke" points="1219.07,1040.5 1219.07,1045.7 " />
<polyline fill="none" vector-effect="non-scaling-stroke" points="1324.69,1040.5 1324.69,1045.7 " />
<polyline fill="none" vector-effect="non-scaling-stroke" points="1430.3,1040.5 1430.3,1045.7 " />
<polyline fill="none" vector-effect="non-scaling-stroke" points="110.086,1040.5 110.086,1047.7 " />
<polyline fill="none" vector-effect="non-scaling-stroke" points="321.321,1040.5 321.321,1047.7 " />
<polyline fill="none" vector-effect="non-scaling-stroke" points="532.556,1040.5 532.556,1047.7 " />
<polyline fill="none" vector-effect="non-scaling-stroke" points="743.791,1040.5 743.791,1047.7 " />
<polyline fill="none" vector-effect="non-scaling-stroke" points="955.026,1040.5 955.026,1047.7 " />
<polyline fill="none" vector-effect="non-scaling-stroke" points="1166.26,1040.5 1166.26,1047.7 " />
<polyline fill="none" vector-effect="non-scaling-stroke" points="1377.5,1040.5 1377.5,1047.7 " />
<polyline fill="none" vector-effect="non-scaling-stroke" points="215.703,1040.5 215.703,1049.7 " />
<polyline fill="none" vector-effect="non-scaling-stroke" points="426.938,1040.5 426.938,1049.7 " />
<polyline fill="none" vector-effect="non-scaling-stroke" points="638.173,1040.5 638.173,1049.7 " />
<polyline fill="none" vector-effect="non-scaling-stroke" points="849.408,1040.5 849.408,1049.7 " />
<polyline fill="none" vector-effect="non-scaling-stroke" points="1060.64,1040.5 1060.64,1049.7 " />
<polyline fill="none" vector-effect="non-scaling-stroke" points="1271.88,1040.5 1271.88,1049.7 " />
</g>

<g fill="none" stroke="#000000" stroke-opacity="1" stroke-width="1" stroke-linecap="square" stroke-linejoin="bevel" transform="matrix(0.833333,0,0,0.833333,0,0)"
font-family="Ubuntu" font-size="11.1111" font-weight="400" font-style="normal" 
>
</g>

<g fill="none" stroke="#111111" stroke-opacity="1" stroke-width="1" stroke-linecap="butt" stroke-linejoin="bevel" transform="matrix(0.833333,0,0,0.833333,0,0)"
font-family="Ubuntu" font-size="11.1111" font-weight="400" font-style="normal" 
>
<polyline fill="none" vector-effect="non-scaling-stroke" points="39,1040.6 1438,1040.6 " />
</g>

<g fill="none" stroke="#000000" stroke-opacity="1" stroke-width="1" stroke-linecap="square" stroke-linejoin="bevel" transform="matrix(0.833333,0,0,0.833333,0,0)"
font-family="Ubuntu" font-size="11.1111" font-weight="400" font-style="normal" 
>
</g>

<g fill="none" stroke="#000000" stroke-opacity="1" stroke-width="1" stroke-linecap="square" stroke-linejoin="bevel" transform="matrix(0.833333,0,0,0.833333,0,0)"
font-family="Ubuntu" font-size="11.1111" font-weight="400" font-style="normal" 
>
</g>

<g fill="none" stroke="#000000" stroke-opacity="1" stroke-width="1" stroke-linecap="square" stroke-linejoin="bevel" transform="matrix(0.833333,0,0,0.833333,0,0)"
font-family="Ubuntu" font-size="12.2222" font-weight="400" font-style="normal" 
>
</g>

<g fill="none" stroke="#000000" stroke-opacity="1" stroke-width="1" stroke-linecap="square" stroke-linejoin="bevel" transform="matrix(1,0,0,1,0,0)"
font-family="Ubuntu" font-size="12.2222" font-weight="400" font-style="normal" 
>
</g>
</g>
</svg>
