<?xml version="1.0" encoding="UTF-8" standalone="no"?>
<svg viewBox="0 0 1200 900"
 xmlns="http://www.w3.org/2000/svg" xmlns:xlink="http://www.w3.org/1999/xlink"  version="1.2" baseProfile="tiny">
<title>Qt SVG Document</title>
<desc>Generated with Qt</desc>
<defs>
</defs>
<g fill="none" stroke="black" stroke-width="1" fill-rule="evenodd" stroke-linecap="square" stroke-linejoin="bevel" >

<g fill="#ffffff" fill-opacity="1" stroke="none" transform="matrix(1,0,0,1,0,0)"
font-family="Ubuntu" font-size="12.2222" font-weight="400" font-style="normal" 
>
<rect x="0" y="0" width="1200" height="900"/>
</g>

<g fill="none" stroke="#000000" stroke-opacity="1" stroke-width="1" stroke-linecap="square" stroke-linejoin="bevel" transform="matrix(1,0,0,1,0,0)"
font-family="Ubuntu" font-size="12.2222" font-weight="400" font-style="normal" 
>
</g>

<g fill="none" stroke="#000000" stroke-opacity="1" stroke-width="1" stroke-linecap="square" stroke-linejoin="bevel" transform="matrix(0.833333,0,0,0.833333,0,0)"
font-family="Ubuntu" font-size="12.2222" font-weight="400" font-style="normal" 
>
</g>

<g fill="#ffffff" fill-opacity="1" stroke="none" transform="matrix(0.833333,0,0,0.833333,0,0)"
font-family="Ubuntu" font-size="12.2222" font-weight="400" font-style="normal" 
>
<rect x="38" y="0" width="1401" height="1038"/>
</g>

<g fill="none" stroke="#000000" stroke-opacity="1" stroke-width="1" stroke-linecap="square" stroke-linejoin="bevel" transform="matrix(0.833333,0,0,0.833333,0,0)"
font-family="Ubuntu" font-size="12.2222" font-weight="400" font-style="normal" 
>
</g>

<g fill="none" stroke="#000000" stroke-opacity="1" stroke-width="1" stroke-linecap="square" stroke-linejoin="bevel" transform="matrix(0.833333,0,0,0.833333,0,0)"
font-family="Ubuntu" font-size="12.2222" font-weight="400" font-style="normal" 
>
</g>

<g fill="none" stroke="#a0a0a4" stroke-opacity="1" stroke-dasharray="1,2" stroke-dashoffset="0" stroke-width="1" stroke-linecap="butt" stroke-linejoin="bevel" transform="matrix(0.833333,0,0,0.833333,0,0)"
font-family="Ubuntu" font-size="12.2222" font-weight="400" font-style="normal" 
>
<polyline fill="none" vector-effect="non-scaling-stroke" points="129.635,0 129.635,1038 " />
<polyline fill="none" vector-effect="non-scaling-stroke" points="237.809,0 237.809,1038 " />
<polyline fill="none" vector-effect="non-scaling-stroke" points="345.983,0 345.983,1038 " />
<polyline fill="none" vector-effect="non-scaling-stroke" points="454.157,0 454.157,1038 " />
<polyline fill="none" vector-effect="non-scaling-stroke" points="562.33,0 562.33,1038 " />
<polyline fill="none" vector-effect="non-scaling-stroke" points="670.504,0 670.504,1038 " />
<polyline fill="none" vector-effect="non-scaling-stroke" points="778.678,0 778.678,1038 " />
<polyline fill="none" vector-effect="non-scaling-stroke" points="886.851,0 886.851,1038 " />
<polyline fill="none" vector-effect="non-scaling-stroke" points="995.025,0 995.025,1038 " />
<polyline fill="none" vector-effect="non-scaling-stroke" points="1103.2,0 1103.2,1038 " />
<polyline fill="none" vector-effect="non-scaling-stroke" points="1211.37,0 1211.37,1038 " />
<polyline fill="none" vector-effect="non-scaling-stroke" points="1319.55,0 1319.55,1038 " />
<polyline fill="none" vector-effect="non-scaling-stroke" points="1427.72,0 1427.72,1038 " />
<polyline fill="none" vector-effect="non-scaling-stroke" points="183.722,0 183.722,1038 " />
<polyline fill="none" vector-effect="non-scaling-stroke" points="400.07,0 400.07,1038 " />
<polyline fill="none" vector-effect="non-scaling-stroke" points="616.417,0 616.417,1038 " />
<polyline fill="none" vector-effect="non-scaling-stroke" points="832.765,0 832.765,1038 " />
<polyline fill="none" vector-effect="non-scaling-stroke" points="1049.11,0 1049.11,1038 " />
<polyline fill="none" vector-effect="non-scaling-stroke" points="1265.46,0 1265.46,1038 " />
<polyline fill="none" vector-effect="non-scaling-stroke" points="38,979.294 1439,979.294 " />
<polyline fill="none" vector-effect="non-scaling-stroke" points="38,946.119 1439,946.119 " />
<polyline fill="none" vector-effect="non-scaling-stroke" points="38,912.943 1439,912.943 " />
<polyline fill="none" vector-effect="non-scaling-stroke" points="38,879.768 1439,879.768 " />
<polyline fill="none" vector-effect="non-scaling-stroke" points="38,813.417 1439,813.417 " />
<polyline fill="none" vector-effect="non-scaling-stroke" points="38,780.241 1439,780.241 " />
<polyline fill="none" vector-effect="non-scaling-stroke" points="38,747.066 1439,747.066 " />
<polyline fill="none" vector-effect="non-scaling-stroke" points="38,713.89 1439,713.89 " />
<polyline fill="none" vector-effect="non-scaling-stroke" points="38,647.539 1439,647.539 " />
<polyline fill="none" vector-effect="non-scaling-stroke" points="38,614.364 1439,614.364 " />
<polyline fill="none" vector-effect="non-scaling-stroke" points="38,581.188 1439,581.188 " />
<polyline fill="none" vector-effect="non-scaling-stroke" points="38,548.013 1439,548.013 " />
<polyline fill="none" vector-effect="non-scaling-stroke" points="38,481.662 1439,481.662 " />
<polyline fill="none" vector-effect="non-scaling-stroke" points="38,448.486 1439,448.486 " />
<polyline fill="none" vector-effect="non-scaling-stroke" points="38,415.311 1439,415.311 " />
<polyline fill="none" vector-effect="non-scaling-stroke" points="38,382.135 1439,382.135 " />
<polyline fill="none" vector-effect="non-scaling-stroke" points="38,315.784 1439,315.784 " />
<polyline fill="none" vector-effect="non-scaling-stroke" points="38,282.609 1439,282.609 " />
<polyline fill="none" vector-effect="non-scaling-stroke" points="38,249.433 1439,249.433 " />
<polyline fill="none" vector-effect="non-scaling-stroke" points="38,216.258 1439,216.258 " />
<polyline fill="none" vector-effect="non-scaling-stroke" points="38,149.907 1439,149.907 " />
<polyline fill="none" vector-effect="non-scaling-stroke" points="38,116.731 1439,116.731 " />
<polyline fill="none" vector-effect="non-scaling-stroke" points="38,83.5557 1439,83.5557 " />
<polyline fill="none" vector-effect="non-scaling-stroke" points="38,50.3802 1439,50.3802 " />
<polyline fill="none" vector-effect="non-scaling-stroke" points="75.5485,0 75.5485,1038 " />
<polyline fill="none" vector-effect="non-scaling-stroke" points="291.896,0 291.896,1038 " />
<polyline fill="none" vector-effect="non-scaling-stroke" points="508.243,0 508.243,1038 " />
<polyline fill="none" vector-effect="non-scaling-stroke" points="724.591,0 724.591,1038 " />
<polyline fill="none" vector-effect="non-scaling-stroke" points="940.938,0 940.938,1038 " />
<polyline fill="none" vector-effect="non-scaling-stroke" points="1157.29,0 1157.29,1038 " />
<polyline fill="none" vector-effect="non-scaling-stroke" points="1373.63,0 1373.63,1038 " />
<polyline fill="none" vector-effect="non-scaling-stroke" points="38,1012.47 1439,1012.47 " />
<polyline fill="none" vector-effect="non-scaling-stroke" points="38,846.592 1439,846.592 " />
<polyline fill="none" vector-effect="non-scaling-stroke" points="38,680.715 1439,680.715 " />
<polyline fill="none" vector-effect="non-scaling-stroke" points="38,514.837 1439,514.837 " />
<polyline fill="none" vector-effect="non-scaling-stroke" points="38,348.96 1439,348.96 " />
<polyline fill="none" vector-effect="non-scaling-stroke" points="38,183.082 1439,183.082 " />
<polyline fill="none" vector-effect="non-scaling-stroke" points="38,17.2047 1439,17.2047 " />
</g>

<g fill="none" stroke="#000000" stroke-opacity="1" stroke-width="1" stroke-linecap="square" stroke-linejoin="bevel" transform="matrix(0.833333,0,0,0.833333,0,0)"
font-family="Ubuntu" font-size="12.2222" font-weight="400" font-style="normal" 
>
</g>

<g fill="none" stroke="#000000" stroke-opacity="1" stroke-width="1" stroke-linecap="square" stroke-linejoin="bevel" transform="matrix(0.833333,0,0,0.833333,0,0)"
font-family="Ubuntu" font-size="12.2222" font-weight="400" font-style="normal" 
>
</g>

<g fill="none" stroke="#ff7f0e" stroke-opacity="1" stroke-width="1.3" stroke-linecap="square" stroke-linejoin="bevel" transform="matrix(0.833333,0,0,0.833333,0,0)"
font-family="Ubuntu" font-size="12.2222" font-weight="400" font-style="normal" 
>
<polyline fill="none" vector-effect="none" points="39,512.994 39.6506,512.994 40.1919,512.994 40.8417,512.994 41.3814,512.994 42.0308,512.994 42.4654,512.994 43.1126,512.994 43.6519,512.998 44.1954,512.994 44.7364,512.994 45.3844,512.994 45.9238,512.994 46.5762,512.994 47.1126,512.994 47.7656,512.998 48.414,512.994 49.0615,512.994 49.6033,512.994 50.1457,512.994 50.7933,512.998 51.3339,512.994 51.9837,512.994 52.6329,512.994 53.1715,512.994 53.7132,512.998 54.2531,512.998 54.9038,512.994 55.4455,512.998 55.9868,512.994 56.6351,512.994 57.1738,512.994 57.7183,512.994 58.258,512.998 58.9056,512.994 59.4465,512.994 59.9885,512.998 60.5284,512.994 61.0704,512.994 61.7182,512.994 62.2598,512.994 62.907,512.994 63.4498,512.998 63.991,512.994 64.6402,512.994 65.1772,512.994 65.7182,512.994 66.3699,512.994 66.9137,512.998 67.5609,512.994 68.1046,512.994 68.7522,512.994 69.2916,512.994 69.8324,512.994 70.3715,512.994 71.0243,512.994 71.563,512.994 72.1029,512.994 72.7532,512.994 73.2949,512.998 73.9416,512.994 74.4818,512.994 75.0226,512.994 75.5651,512.994 76.1038,512.994 76.6477,512.994 77.1865,512.994 77.8341,512.994 78.4845,512.994 79.1339,513.107 79.6744,513.931 80.3251,515.899 80.9737,519.689 81.6237,524.828 82.0553,530.914 82.5963,537.58 83.2464,545.891 83.7857,555.306 84.3261,565.704 84.8655,577.022 85.5188,591.145 86.0579,604.27 86.7059,620.158 87.3579,636.897 88.114,654.287 88.6543,670.974 89.1958,687.972 89.7367,702.786 90.3837,720.097 91.0338,737.541 91.577,753.638 92.1175,770.851 92.6582,786.58 93.3069,803.237 93.9552,818.289 94.387,832.961 94.9265,847.173 95.5778,860.766 96.1178,873.874 96.7679,887.259 97.3084,899.15 97.8475,911.167 98.4973,921.577 99.0389,932.042 99.5802,941.033 100.227,949.401 100.879,958.218 101.417,965.72 102.067,972.023 102.718,978.417 103.259,983.856 103.799,988.327 104.34,991.965 104.878,995.547 105.53,998.805 106.07,1001.59 106.719,1003.86 107.259,1005.81 107.909,1007.68 108.556,1009.18 109.097,1010.19 109.748,1011.1 110.287,1011.74 110.827,1012.08 111.368,1012.29 112.018,1012.33 112.67,1012.25 113.209,1012.05 113.75,1011.67 114.399,1011.03 115.048,1010.42 115.589,1009.85 116.237,1009.29 116.886,1008.61 117.429,1007.99 117.969,1007.35 118.511,1006.76 119.266,1006.12 119.807,1005.57 120.457,1005.08 120.997,1004.69 121.645,1004.43 122.187,1004.26 122.727,1004.16 123.269,1004.01 123.919,1003.75 124.567,1003.38 125.217,1002.9 125.756,1002.4 126.298,1001.85 126.947,1001.16 127.597,1000.49 128.137,999.863 128.676,999.267 129.219,998.668 129.76,998.072 130.298,997.531 130.948,997.056 131.49,996.607 132.033,996.289 132.682,996.045 133.221,995.916 133.871,995.773 134.518,995.581 135.06,995.306 135.601,994.886 136.25,994.463 136.899,993.864 137.441,993.281 137.981,992.681 138.52,991.993 139.17,991.298 139.821,990.636 140.362,990.033 140.902,989.42 141.551,988.881 142.091,988.453 142.632,988.085 143.281,987.829 143.822,987.667 144.362,987.563 144.902,987.423 145.551,987.16 146.094,986.827 146.744,986.385 147.282,985.909 147.933,985.312 148.473,984.677 149.122,984.01 149.662,983.391 150.204,982.748 150.853,982.067 151.503,981.401 152.043,980.86 152.585,980.407 153.232,979.988 153.773,979.654 154.53,979.43 155.07,979.305 155.613,979.181 156.264,978.941 156.802,978.609 157.452,978.232 157.993,977.735 158.532,977.202 159.184,976.586 159.723,975.92 160.262,975.277 160.913,974.589 161.562,973.957 161.994,973.405 162.644,972.811 163.185,972.299 163.725,971.83 164.483,971.463 164.914,971.237 165.568,971.069 166.214,970.961 166.754,970.779 167.294,970.541 167.836,970.211 168.379,969.816 169.026,969.284 169.676,968.638 170.215,968.052 170.759,967.489 171.297,966.846 171.84,966.163 172.487,965.553 173.028,964.911 173.677,964.292 174.22,963.808 174.867,963.37 175.409,963.079 175.949,962.873 176.6,962.732 177.139,962.609 177.79,962.397 178.33,962.105 178.871,961.733 179.412,961.342 179.951,960.825 180.492,960.263 181.141,959.603 181.683,958.974 182.333,958.254 182.981,957.57 183.522,956.957 184.169,956.394 184.712,955.826 185.359,955.316 185.901,954.975 186.439,954.684 186.984,954.532 187.523,954.414 188.281,954.248 188.712,954.033 189.254,953.714 190.013,953.25 190.55,952.734 191.092,952.198 191.744,951.563 192.394,950.899 192.931,950.2 193.473,949.55 194.122,948.958 194.665,948.371 195.205,947.832 195.744,947.322 196.395,946.861 196.935,946.559 197.475,946.316 198.015,946.17 198.666,946.068 199.317,945.864 199.856,945.555 200.503,945.229 201.045,944.743 201.589,944.234 202.127,943.712 202.667,943.114 203.315,942.5 203.747,941.865 204.4,941.216 204.938,940.558 205.588,939.997 206.129,939.395 206.669,938.926 207.209,938.519 207.969,938.176 208.512,937.977 209.05,937.855 209.699,937.718 210.239,937.526 210.781,937.219 211.319,936.851 211.863,936.407 212.512,935.896 213.161,935.34 213.7,934.685 214.242,934.072 214.673,933.472 215.432,932.724 215.975,932.135 216.513,931.571 217.053,931.03 217.704,930.545 218.245,930.166 218.786,929.864 219.434,929.672 219.977,929.535 220.625,929.387 221.165,929.154 221.815,928.816 222.353,928.432 222.896,927.933 223.546,927.383 224.086,926.771 224.734,926.169 225.276,925.418 225.925,924.744 226.576,924.064 227.114,923.461 227.656,922.862 228.304,922.398 228.845,921.941 229.386,921.665 230.035,921.403 230.576,921.278 231.224,921.138 231.873,920.935 232.418,920.665 232.956,920.276 233.389,919.938 234.038,919.396 234.577,918.773 235.227,918.186 235.766,917.493 236.307,916.864 236.959,916.206 237.498,915.631 238.04,915.05 238.688,914.528 239.121,914.043 239.771,913.651 240.312,913.338 240.851,913.123 241.394,913 242.041,912.864 242.589,912.696 243.122,912.399 243.772,912.004 244.313,911.544 244.962,910.987 245.613,910.362 246.152,909.756 246.694,909.091 247.235,908.465 247.776,907.835 248.424,907.202 248.964,906.581 249.616,906.097 250.155,905.619 250.805,905.221 251.345,904.934 251.886,904.762 252.535,904.626 253.077,904.508 253.726,904.255 254.267,903.904 254.914,903.487 255.456,902.97 255.997,902.434 256.538,901.882 257.185,901.139 257.835,900.463 258.377,899.799 259.026,899.152 259.676,898.521 260.216,897.989 260.759,897.492 261.298,897.11 261.839,896.771 262.488,896.554 263.028,896.404 263.785,896.269 264.217,896.082 264.758,895.82 265.299,895.441 265.949,895.023 266.492,894.547 267.031,893.994 267.57,893.346 268.111,892.72 268.761,892.074 269.301,891.453 269.844,890.829 270.493,890.206 271.034,889.676 271.573,889.153 272.224,888.743 272.763,888.411 273.412,888.216 274.062,888.075 274.603,887.932 275.252,887.701 275.793,887.394 276.334,887.007 276.981,886.548 277.524,886.066 278.064,885.469 278.712,884.825 279.145,884.198 279.794,883.55 280.337,882.876 280.878,882.262 281.417,881.728 282.065,881.187 282.605,880.735 283.256,880.325 283.797,880.062 284.445,879.853 284.987,879.732 285.636,879.591 286.177,879.341 286.825,878.963 287.258,878.666 287.907,878.161 288.557,877.57 288.988,876.989 289.529,876.373 290.179,875.707 290.724,875.065 291.261,874.438 291.91,873.866 292.45,873.299 292.993,872.78 293.641,872.296 294.29,871.935 294.832,871.692 295.373,871.548 296.022,871.412 296.56,871.266 297.103,870.994 297.75,870.637 298.294,870.203 298.834,869.719 299.375,869.152 299.915,868.577 300.565,867.955 301.104,867.313 301.644,866.673 302.295,865.96 302.943,865.32 303.485,864.794 304.025,864.293 304.673,863.843 305.324,863.533 305.973,863.321 306.514,863.196 307.165,863.04 307.704,862.812 308.243,862.478 308.893,862.029 309.542,861.528 310.085,860.954 310.734,860.313 311.38,859.665 311.924,859.024 312.57,858.336 313.112,857.72 313.651,857.031 314.301,856.457 314.95,855.988 315.494,855.538 316.14,855.249 316.681,855.031 317.33,854.891 317.871,854.75 318.52,854.518 319.063,854.215 319.602,853.838 320.251,853.359 320.794,852.831 321.333,852.257 321.876,851.647 322.525,850.981 323.062,850.341 323.606,849.752 324.146,849.108 324.685,848.588 325.335,848.02 325.874,847.567 326.527,847.142 327.067,846.9 327.822,846.686 328.256,846.574 328.795,846.435 329.444,846.183 329.988,845.812 330.526,845.455 331.176,844.945 331.715,844.36 332.368,843.767 332.907,843.102 333.666,842.422 334.097,841.736 334.855,841.027 335.396,840.454 335.935,839.958 336.478,839.438 337.126,838.992 337.668,838.679 338.208,838.466 338.857,838.343 339.398,838.21 340.048,837.979 340.586,837.678 341.236,837.278 341.778,836.806 342.319,836.28 342.968,835.728 343.508,835.12 344.05,834.529 344.589,833.89 345.24,833.112 345.997,832.405 346.537,831.813 347.077,831.319 347.619,830.85 348.269,830.513 348.918,830.254 349.348,830.087 349.999,829.974 350.432,829.854 350.973,829.61 351.513,829.287 352.162,828.903 352.702,828.382 353.351,827.768 354,827.128 354.542,826.504 355.189,825.835 355.731,825.197 356.272,824.534 356.922,823.931 357.463,823.406 358.002,822.912 358.651,822.461 359.193,822.13 359.842,821.918 360.383,821.773 361.033,821.621 361.68,821.391 362.222,821.089 362.873,820.712 363.411,820.278 363.953,819.757 364.601,819.128 365.143,818.537 365.683,817.93 366.44,817.152 366.875,816.52 367.414,815.927 368.066,815.347 368.604,814.857 369.145,814.365 369.688,814.008 370.338,813.719 370.985,813.509 371.524,813.391 372.173,813.237 372.718,812.983 373.255,812.64 373.905,812.21 374.446,811.733 375.095,811.144 375.745,810.558 376.286,809.833 376.935,809.153 377.582,808.374 378.123,807.746 378.663,807.198 379.312,806.655 379.852,806.163 380.396,805.767 381.044,805.483 381.586,805.278 382.126,805.141 382.775,805.022 383.315,804.799 383.966,804.431 384.614,804.023 385.263,803.482 385.913,802.865 386.453,802.259 387.104,801.635 387.535,801.05 388.075,800.413 388.723,799.756 389.267,799.151 389.804,798.591 390.347,798.139 390.89,797.695 391.536,797.325 392.077,797.048 392.728,796.918 393.268,796.803 393.809,796.647 394.348,796.399 394.891,796.053 395.43,795.672 396.081,795.226 396.621,794.685 397.161,794.122 397.702,793.489 398.244,792.856 398.784,792.244 399.328,791.64 399.974,790.985 400.515,790.382 401.165,789.861 401.704,789.423 402.246,789.048 402.897,788.791 403.436,788.627 404.086,788.529 404.626,788.353 405.276,788.08 405.816,787.764 406.357,787.356 406.897,786.861 407.437,786.317 408.088,785.622 408.738,784.946 409.387,784.268 409.925,783.637 410.575,782.935 411.116,782.311 411.765,781.776 412.305,781.309 412.845,780.885 413.498,780.586 414.038,780.394 414.579,780.259 415.118,780.144 415.769,779.96 416.309,779.648 416.96,779.248 417.5,778.799 418.041,778.262 418.582,777.698 419.228,777.049 419.77,776.44 420.311,775.787 420.96,775.115 421.612,774.464 422.152,773.885 422.69,773.33 423.339,772.857 423.883,772.504 424.42,772.247 425.071,772.076 425.611,771.919 426.368,771.744 426.8,771.495 427.341,771.197 427.99,770.794 428.532,770.274 429.181,769.688 429.83,769.089 430.261,768.489 430.803,767.831 431.452,767.203 431.992,766.557 432.534,765.974 433.184,765.346 433.832,764.88 434.267,764.48 434.806,764.135 435.457,763.878 435.995,763.737 436.537,763.622 437.077,763.443 437.725,763.198 438.268,762.872 438.809,762.451 439.348,761.98 440,761.375 440.541,760.791 441.191,760.12 441.84,759.398 442.377,758.704 442.92,758.142 443.567,757.5 444.112,756.987 444.65,756.525 445.189,756.128 445.839,755.759 446.382,755.568 446.814,755.409 447.463,755.317 448.005,755.157 448.545,754.913 449.086,754.572 449.627,754.171 450.167,753.709 450.707,753.174 451.25,752.593 451.899,751.924 452.546,751.244 453.088,750.569 453.63,749.991 454.17,749.346 454.817,748.784 455.469,748.2 456.007,747.803 456.551,747.48 457.199,747.252 457.847,747.09 458.387,746.976 459.038,746.753 459.579,746.478 460.121,746.11 460.768,745.576 461.307,745.056 461.959,744.436 462.499,743.83 463.146,743.187 463.689,742.56 464.228,741.935 464.77,741.334 465.309,740.757 465.959,740.113 466.61,739.672 467.148,739.322 467.798,739.019 468.34,738.858 468.881,738.742 469.53,738.587 470.071,738.362 470.613,738.044 471.154,737.648 471.802,737.113 472.344,736.594 472.884,735.996 473.641,735.254 474.182,734.605 474.722,733.93 475.372,733.311 475.914,732.713 476.452,732.178 476.994,731.648 477.534,731.26 478.401,730.885 478.833,730.639 479.481,730.519 480.021,730.382 480.562,730.204 481.213,729.914 481.754,729.545 482.296,729.104 482.944,728.61 483.375,728.03 484.024,727.413 484.565,726.742 485.105,726.115 485.648,725.534 486.298,724.895 486.839,724.315 487.486,723.714 488.134,723.208 488.569,722.814 489.219,722.536 489.759,722.33 490.406,722.211 490.947,722.076 491.488,721.858 492.139,721.543 492.679,721.15 493.221,720.637 493.868,720.08 494.41,719.501 495.059,718.851 495.597,718.211 496.25,717.588 496.788,716.852 497.547,716.21 497.98,715.673 498.518,715.154 499.168,714.737 499.601,714.414 500.358,714.11 500.9,713.952 501.549,713.853 501.982,713.68 502.63,713.41 503.17,713.068 503.714,712.711 504.145,712.343 504.795,711.718 505.444,711.073 505.986,710.422 506.524,709.777 507.175,709.139 507.717,708.518 508.257,707.923 508.905,707.326 509.449,706.796 510.097,706.34 510.743,705.97 511.286,705.78 511.936,705.622 512.475,705.527 513.015,705.326 513.557,705.043 514.096,704.696 514.746,704.26 515.285,703.702 515.826,703.146 516.476,702.545 517.019,701.925 517.559,701.299 518.099,700.657 518.748,700.01 519.289,699.369 519.94,698.837 520.479,698.377 521.019,697.969 521.563,697.665 522.211,697.478 522.753,697.342 523.4,697.192 524.05,696.95 524.591,696.637 525.131,696.283 525.671,695.822 526.322,695.291 526.862,694.671 527.403,694.076 527.943,693.48 528.484,692.823 529.241,692.058 529.784,691.418 530.432,690.817 530.974,690.31 531.514,689.891 532.054,689.528 532.702,689.248 533.246,689.088 533.785,688.973 534.434,688.841 535.083,688.599 535.515,688.278 536.166,687.792 536.706,687.331 537.245,686.798 537.786,686.219 538.437,685.554 539.087,684.895 539.736,684.164 540.275,683.563 540.817,683.011 541.357,682.42 542.005,681.894 542.548,681.462 543.088,681.139 543.63,680.929 544.277,680.749 544.817,680.637 545.361,680.477 545.898,680.214 546.55,679.874 547.091,679.482 547.632,678.903 548.279,678.302 548.823,677.706 549.361,677.132 550.011,676.447 550.553,675.805 551.092,675.206 551.741,674.63 552.284,674.037 552.823,673.561 553.473,673.118 554.121,672.782 554.555,672.596 555.204,672.456 555.851,672.304 556.393,672.104 557.043,671.769 557.693,671.38 558.124,670.959 558.664,670.521 559.205,669.932 559.746,669.337 560.288,668.767 560.827,668.08 561.478,667.423 562.017,666.779 562.669,666.112 563.206,665.565 563.964,665.04 564.506,664.687 565.047,664.411 565.587,664.227 566.236,664.112 566.779,663.98 567.319,663.74 567.858,663.446 568.616,662.994 569.05,662.522 569.699,661.925 570.347,661.24 570.889,660.642 571.538,660.052 571.97,659.449 572.619,658.797 573.161,658.205 573.702,657.652 574.241,657.131 574.89,656.668 575.43,656.347 575.973,656.113 576.513,655.914 577.163,655.819 577.703,655.647 578.244,655.404 578.894,655.084 579.434,654.672 579.976,654.185 580.624,653.607 581.164,653.011 581.706,652.392 582.246,651.713 582.894,651.076 583.325,650.501 583.977,649.864 584.517,649.314 585.057,648.812 585.599,648.406 586.14,648.045 586.79,647.812 587.33,647.647 587.869,647.535 588.521,647.359 589.062,647.099 589.709,646.716 590.358,646.282 590.899,645.792 591.549,645.131 592.089,644.535 592.737,643.87 593.279,643.185 593.929,642.513 594.468,641.901 595.011,641.311 595.66,640.762 596.201,640.26 596.849,639.869 597.39,639.576 597.93,639.391 598.581,639.253 599.123,639.123 599.664,638.925 600.204,638.616 600.854,638.248 601.394,637.81 601.935,637.283 602.582,636.647 603.122,636.051 603.664,635.417 604.204,634.779 604.853,634.097 605.394,633.439 606.045,632.814 606.692,632.222 607.343,631.787 607.884,631.446 608.423,631.172 609.073,631.029 609.724,630.916 610.154,630.744 610.695,630.523 611.238,630.208 611.885,629.796 612.428,629.312 612.859,628.897 613.508,628.234 614.049,627.639 614.588,626.936 615.347,626.209 615.887,625.591 616.428,624.935 617.185,624.387 617.617,623.91 618.16,623.458 618.808,623.09 619.458,622.861 619.89,622.724 620.43,622.61 620.97,622.457 621.622,622.198 622.27,621.819 622.811,621.422 623.353,620.918 623.891,620.343 624.542,619.705 625.082,619.067 625.73,618.384 626.38,617.699 626.813,617.083 627.461,616.513 628.003,615.969 628.653,615.448 629.192,615.037 629.842,614.691 630.384,614.508 631.033,614.394 631.571,614.26 632.221,614.022 632.872,613.667 633.412,613.233 634.06,612.726 634.6,612.195 635.25,611.515 635.902,610.88 636.332,610.246 636.981,609.517 637.63,608.903 638.171,608.292 638.711,607.766 639.362,607.236 639.903,606.787 640.552,606.465 641.096,606.238 641.633,606.122 642.28,606.009 642.822,605.791 643.47,605.486 644.01,605.099 644.768,604.588 645.311,604.019 645.85,603.491 646.395,602.878 647.04,602.151 647.583,601.532 648.23,600.919 648.773,600.288 649.313,599.695 649.854,599.199 650.394,598.76 650.933,598.359 651.474,598.102 652.126,597.895 652.665,597.783 653.206,597.632 653.857,597.414 654.505,597.078 655.155,596.621 655.695,596.093 656.344,595.517 656.885,594.924 657.534,594.289 658.075,593.607 658.617,592.974 659.156,592.341 659.806,591.706 660.346,591.137 660.995,590.657 661.535,590.207 662.077,589.888 662.726,589.678 663.265,589.54 663.917,589.406 664.457,589.212 665.107,588.927 665.538,588.587 666.188,588.084 666.621,587.674 667.16,587.142 667.812,586.549 668.352,585.912 668.894,585.262 669.434,584.627 670.084,584.014 670.732,583.332 671.271,582.81 671.813,582.287 672.462,581.881 673.111,581.582 673.546,581.372 674.085,581.256 674.626,581.126 675.274,580.949 675.924,580.622 676.467,580.241 677.115,579.753 677.655,579.183 678.305,578.593 678.845,578.001 679.384,577.383 680.036,576.637 680.683,575.983 681.224,575.359 681.764,574.794 682.415,574.251 682.954,573.799 683.495,573.437 684.036,573.163 684.792,572.998 685.444,572.844 686.092,572.651 686.634,572.384 687.173,572.027 687.821,571.522 688.471,570.973 689.013,570.447 689.553,569.851 690.095,569.176 690.744,568.537 691.393,567.795 691.932,567.174 692.475,566.608 693.016,566.092 693.664,565.613 694.205,565.228 694.746,564.931 695.395,564.725 695.937,564.609 696.475,564.479 697.126,564.259 697.667,563.952 698.207,563.569 698.856,563.11 699.396,562.538 699.939,561.966 700.586,561.307 701.237,560.562 701.775,559.881 702.426,559.219 702.967,558.628 703.507,558.083 704.156,557.584 704.699,557.155 705.238,556.793 705.888,556.537 706.643,556.361 707.078,556.268 707.619,556.094 708.16,555.854 708.698,555.521 709.241,555.112 709.781,554.648 710.322,554.099 710.972,553.446 711.512,552.828 712.052,552.19 712.702,551.508 713.244,550.876 713.784,550.293 714.323,549.751 715.082,549.181 715.624,548.726 716.271,548.364 716.811,548.181 717.463,548.041 718.004,547.932 718.652,547.712 719.193,547.426 719.842,547.003 720.382,546.561 720.923,546.057 721.464,545.468 722.114,544.83 722.654,544.198 723.304,543.534 723.846,542.903 724.384,542.274 724.926,541.703 725.465,541.184 726.114,540.662 726.763,540.296 727.305,540.003 727.845,539.858 728.494,539.728 729.036,539.595 729.685,539.358 730.119,539.046 730.768,538.637 731.416,538.129 731.958,537.541 732.606,536.906 733.147,536.294 733.688,535.639 734.338,534.958 734.877,534.326 735.419,533.755 735.959,533.19 736.609,532.648 737.26,532.214 737.798,531.895 738.448,531.643 738.989,531.484 739.53,531.37 740.178,531.176 740.719,530.873 741.26,530.511 741.909,530.05 742.449,529.548 743.102,528.998 743.639,528.339 744.289,527.658 744.831,527.023 745.372,526.388 746.02,525.731 746.56,525.146 747.1,524.584 747.752,524.129 748.291,523.72 748.941,523.401 749.589,523.222 750.13,523.106 750.671,522.973 751.321,522.716 751.862,522.403 752.509,521.955 753.053,521.45 753.702,520.905 754.24,520.288 754.783,519.723 755.432,518.976 755.973,518.341 756.62,517.68 757.164,517.042 757.811,516.448 758.352,515.99 758.893,515.56 759.431,515.245 760.082,515.039 760.623,514.883 761.164,514.77 761.813,514.593 762.354,514.289 762.894,513.948 763.545,513.516 764.084,513.015 764.626,512.406 765.275,511.751 765.816,511.12 766.464,510.419 767.005,509.805 767.547,509.21 768.196,508.579 768.737,508.037 769.384,507.538 769.928,507.17 770.467,506.872 771.116,506.689 771.764,506.552 772.413,506.379 772.955,506.136 773.494,505.786 774.143,505.377 774.686,504.896 775.119,504.458 775.658,503.913 776.308,503.258 776.849,502.598 777.389,501.947 778.039,501.332 778.581,500.698 779.23,500.115 779.878,499.571 780.418,499.116 781.068,498.753 781.606,498.498 782.15,498.335 782.69,498.205 783.339,498.049 783.88,497.789 784.53,497.41 785.178,496.911 785.83,496.427 786.26,495.809 786.907,495.214 787.451,494.516 787.99,493.924 788.533,493.289 789.073,492.738 789.72,492.061 790.371,491.496 790.911,491.017 791.453,490.635 791.993,490.319 792.644,490.134 793.182,489.977 793.835,489.864 794.371,489.667 794.913,489.387 795.455,489.025 796.104,488.565 796.534,488.06 797.187,487.492 797.834,486.816 798.375,486.135 799.026,485.425 799.673,484.746 800.215,484.181 800.754,483.569 801.296,483.048 801.837,482.616 802.486,482.23 803.028,481.96 803.566,481.758 804.218,481.641 804.757,481.508 805.299,481.295 805.949,480.962 806.489,480.574 807.028,480.094 807.57,479.563 808.111,478.991 808.762,478.363 809.301,477.795 809.842,477.163 810.383,476.535 810.923,475.923 811.463,475.401 812.004,474.833 812.653,474.334 813.195,473.968 813.843,473.693 814.384,473.51 814.925,473.374 815.574,473.241 816.115,473.024 816.763,472.674 817.414,472.265 817.846,471.821 818.388,471.292 818.928,470.703 819.578,470.024 820.226,469.27 820.766,468.681 821.416,468.032 821.957,467.397 822.497,466.845 823.257,466.306 823.689,465.898 824.337,465.535 824.876,465.286 825.416,465.147 826.284,465.01 826.717,464.817 827.259,464.533 827.797,464.177 828.447,463.715 829.098,463.143 829.529,462.666 830.177,462.029 830.608,461.46 831.369,460.715 831.911,460.05 832.45,459.442 833.098,458.826 833.638,458.261 834.18,457.849 834.719,457.443 835.37,457.126 835.911,456.94 836.451,456.804 837.1,456.691 837.641,456.474 838.293,456.103 838.831,455.72 839.48,455.215 840.021,454.707 840.563,454.115 841.104,453.548 841.645,452.913 842.294,452.28 842.835,451.648 843.484,450.936 844.024,450.394 844.565,449.871 845.105,449.418 845.755,449.049 846.404,448.774 846.946,448.594 847.594,448.457 848.133,448.304 848.783,448.02 849.431,447.66 849.974,447.231 850.513,446.727 851.054,446.193 851.596,445.565 852.246,444.92 852.788,444.288 853.436,443.632 853.977,443.019 854.519,442.4 855.164,441.858 855.707,441.364 856.249,440.999 856.789,440.612 857.331,440.407 858.087,440.247 858.626,440.134 859.168,439.956 859.708,439.675 860.249,439.292 860.897,438.836 861.44,438.326 862.087,437.667 862.739,436.986 863.388,436.324 863.927,435.688 864.469,435.055 865.011,434.396 865.66,433.804 866.307,433.253 866.848,432.804 867.389,432.482 867.932,432.185 868.47,432.022 869.12,431.892 869.663,431.759 870.202,431.541 870.741,431.233 871.283,430.843 871.824,430.409 872.475,429.857 873.016,429.287 873.555,428.674 874.205,428.058 874.746,427.421 875.287,426.785 875.826,426.192 876.477,425.512 877.017,425.012 877.667,424.506 878.205,424.145 878.856,423.872 879.505,423.692 880.047,423.578 880.587,423.404 881.128,423.183 881.67,422.869 882.209,422.486 882.859,421.976 883.398,421.381 884.049,420.863 884.483,420.267 885.021,419.677 885.671,419.043 886.211,418.427 886.751,417.792 887.296,417.225 887.836,416.725 888.484,416.203 889.133,415.837 889.782,415.563 890.323,415.401 890.864,415.284 891.403,415.112 892.052,414.868 892.595,414.533 893.134,414.124 893.783,413.61 894.325,413.014 894.974,412.356 895.514,411.739 896.055,411.151 896.595,410.533 897.137,409.898 897.676,409.304 898.328,408.743 898.87,408.263 899.409,407.829 900.058,407.464 900.601,407.256 901.14,407.116 901.682,406.984 902.222,406.827 902.872,406.568 903.412,406.261 903.953,405.8 904.599,405.291 905.143,404.74 905.682,404.12 906.33,403.505 906.872,402.931 907.413,402.296 907.954,401.636 908.494,401.068 909.144,400.475 909.684,399.95 910.336,399.495 910.873,399.152 911.525,398.92 912.173,398.783 912.716,398.652 913.255,398.439 913.903,398.17 914.443,397.808 914.985,397.352 915.528,396.865 916.174,396.229 916.715,395.589 917.365,394.974 917.905,394.335 918.555,393.633 919.205,392.88 919.745,392.282 920.393,391.781 920.933,391.326 921.474,390.96 922.124,390.681 922.665,390.522 923.206,390.425 923.854,390.25 924.504,389.991 925.043,389.634 925.696,389.127 926.344,388.595 926.994,387.949 927.532,387.333 928.073,386.697 928.724,386.033 929.373,385.414 929.805,384.785 930.344,384.216 930.994,383.646 931.643,383.187 932.185,382.798 932.727,382.483 933.372,382.274 934.022,382.136 934.672,381.978 935.214,381.736 935.754,381.381 936.403,380.988 937.053,380.462 937.593,379.91 938.028,379.422 938.676,378.743 939.214,378.103 939.757,377.468 940.297,376.849 940.947,376.166 941.596,375.574 942.137,375.09 942.678,374.655 943.22,374.331 943.869,374.078 944.407,373.922 944.948,373.805 945.488,373.653 946.139,373.39 946.68,373.055 947.221,372.661 947.762,372.196 948.41,371.578 948.953,370.986 949.493,370.37 950.143,369.685 950.682,369.063 951.33,368.396 951.873,367.742 952.523,367.165 953.063,366.703 953.604,366.277 954.143,365.955 954.793,365.723 955.442,365.587 955.986,365.472 956.633,365.252 957.172,364.947 957.714,364.562 958.256,364.123 958.902,363.586 959.445,363.012 959.985,362.463 960.634,361.822 961.175,361.138 961.717,360.521 962.364,359.858 962.907,359.301 963.556,358.687 964.205,358.16 964.853,357.774 965.395,357.518 965.935,357.352 966.475,357.242 967.126,357.087 967.668,356.847 968.206,356.531 968.746,356.14 969.29,355.7 970.047,355.124 970.476,354.484 971.02,353.864 971.669,353.244 972.211,352.586 972.75,351.986 973.398,351.343 973.939,350.755 974.481,350.231 975.021,349.837 975.562,349.492 976.213,349.193 976.862,349.049 977.403,348.917 978.051,348.763 978.59,348.495 979.238,348.13 979.782,347.669 980.432,347.119 980.971,346.519 981.836,345.779 982.268,345.158 982.811,344.519 983.349,343.875 984,343.278 984.541,342.704 985.19,342.094 985.73,341.652 986.38,341.218 986.92,340.942 987.461,340.782 988.11,340.664 988.76,340.511 989.302,340.269 989.95,339.933 990.383,339.543 990.924,339.077 991.682,338.517 992.003,338.044 992.544,337.443 993.087,336.804 993.735,336.164 994.383,335.447 994.924,334.787 995.575,334.236 996.114,333.658 996.873,333.173 997.412,332.849 997.955,332.598 998.494,332.44 999.035,332.345 999.575,332.213 1000.12,331.947 1000.77,331.587 1001.31,331.176 1001.85,330.724 1002.39,330.152 1003.04,329.621 1003.58,328.953 1004.23,328.313 1004.66,327.692 1005.31,327.073 1005.96,326.432 1006.5,325.785 1007.04,325.284 1007.58,324.886 1008.34,324.477 1008.88,324.263 1009.42,324.126 1010.07,323.994 1010.61,323.816 1011.15,323.53 1011.8,323.156 1012.34,322.688 1012.99,322.159 1013.53,321.58 1014.07,321.003 1014.61,320.361 1015.26,319.716 1015.8,319.048 1016.45,318.386 1017.1,317.721 1017.64,317.213 1018.29,316.704 1018.83,316.356 1019.48,316.059 1020.02,315.895 1020.56,315.782 1021.1,315.652 1021.64,315.41 1022.18,315.133 1022.72,314.741 1023.37,314.293 1024.03,313.763 1024.56,313.121 1025.11,312.541 1025.65,311.916 1026.18,311.198 1026.83,310.576 1027.38,309.957 1027.92,309.427 1028.57,308.828 1029.11,308.35 1029.86,307.973 1030.41,307.72 1030.95,307.56 1031.49,307.45 1032.14,307.293 1032.68,307.049 1033.33,306.66 1033.87,306.195 1034.41,305.685 1035.06,305.129 1035.6,304.531 1036.25,303.879 1036.9,303.185 1037.44,302.543 1037.98,301.893 1038.52,301.314 1039.06,300.811 1039.6,300.284 1040.25,299.884 1040.9,299.537 1041.55,299.351 1042.09,299.232 1042.63,299.084 1043.28,298.879 1043.82,298.567 1044.36,298.155 1045.01,297.633 1045.66,297.024 1046.2,296.475 1046.85,295.782 1047.39,295.14 1047.93,294.497 1048.47,293.873 1049.12,293.276 1049.66,292.675 1050.31,292.191 1050.85,291.732 1051.39,291.361 1051.93,291.123 1052.58,290.959 1053.23,290.863 1053.77,290.705 1054.42,290.395 1055.07,289.98 1055.72,289.536 1056.26,288.931 1056.8,288.372 1057.45,287.77 1057.99,287.079 1058.53,286.449 1059.18,285.874 1059.72,285.266 1060.26,284.66 1060.8,284.113 1061.45,283.629 1062.1,283.237 1062.64,282.934 1063.18,282.752 1063.72,282.651 1064.26,282.497 1064.8,282.298 1065.46,282.002 1065.99,281.633 1066.54,281.23 1067.29,280.562 1067.83,279.912 1068.37,279.286 1069.02,278.618 1069.67,277.877 1070.21,277.206 1070.86,276.536 1071.51,275.932 1072.05,275.461 1072.7,275.023 1073.35,274.669 1073.89,274.462 1074.54,274.341 1075.08,274.21 1075.62,273.989 1076.27,273.672 1076.81,273.322 1077.46,272.761 1078,272.218 1078.65,271.596 1079.3,271.007 1079.84,270.316 1080.38,269.673 1080.92,269.092 1081.46,268.506 1082.11,267.918 1082.65,267.391 1083.2,266.935 1083.84,266.512 1084.38,266.261 1085.03,266.09 1085.58,265.995 1086.11,265.818 1086.76,265.617 1087.3,265.251 1087.95,264.849 1088.39,264.358 1089.04,263.752 1089.69,263.075 1090.22,262.45 1090.87,261.735 1091.42,261.129 1091.96,260.52 1092.5,259.914 1093.14,259.294 1093.68,258.81 1094.34,258.408 1094.88,258.102 1095.53,257.912 1096.17,257.774 1096.61,257.64 1097.26,257.439 1097.91,257.098 1098.44,256.723 1099.09,256.232 1099.64,255.667 1100.29,254.989 1100.83,254.462 1101.37,253.78 1101.91,253.193 1102.56,252.52 1103.1,251.895 1103.64,251.272 1104.29,250.754 1104.83,250.31 1105.48,249.962 1106.02,249.706 1106.56,249.538 1107.1,249.425 1107.75,249.244 1108.29,249.001 1108.83,248.677 1109.48,248.25 1110.13,247.735 1110.78,247.13 1111.21,246.542 1111.86,245.917 1112.4,245.232 1113.05,244.533 1113.59,243.925 1114.24,243.309 1114.89,242.697 1115.43,242.209 1115.97,241.831 1116.73,241.499 1117.16,241.312 1117.7,241.179 1118.35,241.065 1118.89,240.86 1119.43,240.562 1119.97,240.171 1120.73,239.622 1121.38,239.013 1121.92,238.42 1122.46,237.814 1123.11,237.069 1123.65,236.454 1124.3,235.778 1124.84,235.129 1125.49,234.575 1126.03,234.126 1126.57,233.645 1127.11,233.338 1127.77,233.063 1128.3,232.911 1128.95,232.798 1129.6,232.619 1130.03,232.413 1130.68,232.017 1131.22,231.591 1131.76,231.099 1132.41,230.512 1132.95,229.859 1133.6,229.223 1134.14,228.607 1134.68,227.971 1135.22,227.3 1135.87,226.668 1136.52,226.088 1137.07,225.636 1137.6,225.239 1138.25,224.912 1138.8,224.724 1139.34,224.584 1139.98,224.448 1140.53,224.271 1141.06,223.995 1141.61,223.637 1142.15,223.141 1142.8,222.647 1143.45,222.034 1143.88,221.428 1144.42,220.843 1144.96,220.193 1145.61,219.58 1146.15,218.966 1146.69,218.335 1147.34,217.791 1147.88,217.326 1148.42,216.947 1149.07,216.617 1149.61,216.407 1150.15,216.292 1150.8,216.156 1151.34,215.955 1151.99,215.653 1152.53,215.277 1153.07,214.757 1153.72,214.209 1154.26,213.682 1154.69,213.173 1155.34,212.492 1155.89,211.853 1156.54,211.174 1157.18,210.474 1157.72,209.863 1158.37,209.322 1159.02,208.852 1159.56,208.454 1160.11,208.219 1160.64,208.074 1161.29,207.935 1161.83,207.798 1162.38,207.571 1163.13,207.182 1163.67,206.747 1164.21,206.271 1164.76,205.725 1165.3,205.072 1165.95,204.392 1166.49,203.759 1167.13,203.072 1167.67,202.414 1168.54,201.705 1168.97,201.182 1169.62,200.666 1170.16,200.266 1170.81,199.944 1171.35,199.774 1172,199.658 1172.65,199.516 1173.19,199.266 1173.84,198.921 1174.38,198.537 1174.93,198.044 1175.57,197.456 1176.11,196.816 1176.76,196.218 1177.31,195.563 1177.84,194.873 1178.39,194.308 1178.93,193.738 1179.57,193.132 1180.12,192.638 1180.66,192.213 1181.2,191.86 1181.85,191.603 1182.5,191.454 1183.04,191.333 1183.58,191.157 1184.12,190.919 1184.77,190.576 1185.31,190.15 1185.85,189.578 1186.39,189.079 1186.93,188.48 1187.58,187.845 1188.12,187.232 1188.66,186.592 1189.31,185.882 1189.85,185.291 1190.61,184.662 1191.15,184.192 1191.8,183.733 1192.34,183.428 1192.99,183.233 1193.64,183.093 1194.18,182.933 1194.83,182.681 1195.37,182.357 1196.02,181.972 1196.56,181.493 1197.1,180.948 1197.64,180.343 1198.29,179.712 1199.05,178.972 1199.48,178.22 1200.02,177.672 1200.67,177.054 1201.21,176.494 1201.86,175.974 1202.4,175.552 1202.94,175.218 1203.48,175.002 1204.02,174.88 1204.67,174.738 1205.21,174.578 1205.75,174.305 1206.4,173.949 1207.05,173.512 1207.59,172.998 1208.13,172.401 1208.67,171.804 1209.21,171.23 1209.86,170.476 1210.51,169.76 1211.05,169.122 1211.59,168.555 1212.35,167.957 1212.89,167.487 1213.43,167.097 1214.08,166.816 1214.52,166.645 1215.17,166.531 1215.7,166.392 1216.36,166.16 1216.9,165.835 1217.55,165.432 1218.08,164.923 1218.73,164.372 1219.28,163.779 1219.82,163.23 1220.36,162.59 1220.9,162.003 1221.44,161.381 1221.98,160.761 1222.63,160.206 1223.17,159.689 1223.71,159.219 1224.25,158.835 1224.9,158.553 1225.33,158.357 1225.87,158.24 1226.52,158.096 1227.17,157.868 1227.71,157.563 1228.25,157.176 1228.9,156.678 1229.55,156.061 1230.09,155.492 1230.63,154.823 1231.28,154.152 1231.93,153.411 1232.58,152.744 1233.12,152.103 1233.66,151.599 1234.31,151.049 1234.96,150.589 1235.61,150.254 1236.26,150.04 1236.8,149.943 1237.34,149.804 1237.88,149.599 1238.42,149.297 1239.07,148.887 1239.61,148.426 1240.15,147.922 1240.8,147.345 1241.34,146.722 1241.88,146.099 1242.42,145.455 1243.07,144.768 1243.61,144.234 1244.16,143.638 1244.7,143.134 1245.34,142.636 1245.89,142.213 1246.53,141.929 1247.08,141.757 1247.62,141.638 1248.16,141.497 1248.7,141.334 1249.35,140.981 1249.89,140.581 1250.43,140.139 1251.08,139.612 1251.62,139.007 1252.27,138.275 1252.81,137.635 1253.46,137.002 1254,136.38 1254.54,135.831 1255.08,135.258 1255.62,134.734 1256.16,134.267 1256.81,133.882 1257.35,133.595 1257.89,133.442 1258.54,133.324 1259.19,133.166 1259.84,132.887 1260.38,132.533 1260.92,132.144 1261.57,131.634 1262,131.117 1262.65,130.516 1263.08,130.04 1263.73,129.32 1264.28,128.695 1264.82,128.072 1265.47,127.425 1266.01,126.849 1266.65,126.335 1267.09,125.915 1267.63,125.563 1268.28,125.295 1268.82,125.125 1269.47,125.026 1270.01,124.842 1270.66,124.567 1271.31,124.167 1271.85,123.705 1272.5,123.191 1273.04,122.635 1273.58,122.033 1274.23,121.343 1274.77,120.715 1275.42,119.983 1276.07,119.313 1276.61,118.709 1277.26,118.157 1277.8,117.673 1278.45,117.34 1278.99,117.045 1279.64,116.853 1280.18,116.738 1280.83,116.574 1281.26,116.361 1281.8,116.074 1282.45,115.665 1282.99,115.228 1283.53,114.71 1284.07,114.132 1284.61,113.526 1285.15,112.885 1285.8,112.238 1286.34,111.606 1286.88,110.951 1287.64,110.391 1288.07,109.839 1288.61,109.384 1289.15,109.042 1289.7,108.775 1290.35,108.577 1290.99,108.417 1291.53,108.295 1292.18,108.018 1292.94,107.686 1293.48,107.219 1294.02,106.731 1294.67,106.125 1295.21,105.525 1295.75,104.865 1296.3,104.268 1296.94,103.587 1297.48,102.934 1298.13,102.287 1298.67,101.756 1299.32,101.217 1299.86,100.874 1300.4,100.559 1300.94,100.338 1301.59,100.178 1302.13,100.056 1302.79,99.8494 1303.32,99.5831 1303.97,99.1546 1304.51,98.6849 1305.06,98.1935 1305.7,97.5723 1306.25,96.9113 1306.89,96.2503 1307.55,95.603 1307.98,94.9671 1308.52,94.3637 1309.17,93.8333 1309.6,93.3161 1310.25,92.8345 1310.79,92.4461 1311.55,92.1288 1312.09,91.9409 1312.63,91.8372 1313.17,91.6982 1313.82,91.4435 1314.36,91.1313 1315.01,90.6968 1315.55,90.2062 1316.2,89.5753 1316.85,88.9915 1317.28,88.4773 1317.82,87.7945 1318.36,87.1612 1319.01,86.5004 1319.66,85.927 1320.09,85.3522 1320.63,84.8647 1321.28,84.4284 1321.82,84.0649 1322.37,83.8019 1322.91,83.6506 1323.56,83.5503 1324.09,83.4111 1324.64,83.1505 1325.29,82.7936 1325.83,82.3719 1326.47,81.8861 1327.02,81.3621 1327.56,80.7554 1328.2,80.1213 1328.64,79.4597 1329.29,78.8629 1329.72,78.2509 1330.37,77.5923 1330.91,77.032 1331.45,76.5476 1331.99,76.1377 1332.64,75.7883 1333.18,75.5365 1333.72,75.3719 1334.26,75.2566 1334.81,75.1154 1335.45,74.8511 1336.1,74.5082 1336.64,74.0725 1337.18,73.5896 1337.83,73.0422 1338.37,72.4496 1338.91,71.7873 1339.45,71.1446 1340.1,70.5129 1340.65,69.8866 1341.19,69.3117 1341.73,68.7838 1342.38,68.2363 1342.92,67.8276 1343.46,67.4536 1344,67.1934 1344.65,67.0618 1345.19,66.9424 1345.73,66.7787 1346.49,66.4919 1347.14,66.0346 1347.79,65.5432 1348.32,64.9954 1349.08,64.3114 1349.62,63.7026 1350.17,63.0424 1350.81,62.4002 1351.35,61.7177 1352,61.079 1352.55,60.5159 1353.09,59.9764 1353.63,59.5619 1354.27,59.2095 1354.93,58.9124 1355.46,58.755 1356,58.6577 1356.66,58.4938 1357.3,58.2119 1357.74,57.8528 1358.28,57.4584 1358.93,56.961 1359.57,56.2726 1360.12,55.6798 1360.66,55.0659 1361.2,54.4745 1361.85,53.8346 1362.39,53.1693 1362.93,52.5862 1363.58,52.0434 1364.12,51.5732 1364.77,51.0896 1365.31,50.7865 1365.85,50.5659 1366.5,50.4427 1367.04,50.3231 1367.58,50.1354 1368.23,49.8178 1368.77,49.4491 1369.31,49.0131 1369.85,48.5115 1370.39,47.947 1371.04,47.3285 1371.47,46.8225 1372.01,46.1842 1372.66,45.5363 1373.2,44.8546 1373.85,44.2361 1374.4,43.6463 1374.94,43.1955 1375.59,42.7733 1376.23,42.4567 1376.78,42.2354 1377.43,42.1126 1377.96,41.9524 1378.61,41.758 1379.26,41.4176 1379.81,41.0229 1380.34,40.5698 1380.89,40.0498 1381.43,39.4728 1382.08,38.765 1382.62,38.1877 1383.16,37.4888 1383.81,36.9115 1384.35,36.2455 1384.89,35.6833 1385.54,35.1649 1386.08,34.7203 1386.62,34.342 1387.16,34.0894 1387.81,33.9067 1388.35,33.791 1389,33.6465 1389.54,33.3836 1390.08,33.0631 1390.62,32.6712 1391.27,32.2213 1391.81,31.6714 1392.35,31.0404 1393,30.425 1393.54,29.747 1394.08,29.1059 1394.73,28.4332 1395.27,27.8734 1395.82,27.3339 1396.36,26.8147 1397.01,26.3421 1397.54,26.0086 1398.09,25.7507 1398.73,25.6667 1399.28,25.7914 1399.82,26.3379 1400.47,26.8792 1401.01,27.4608 1401.66,28.6619 1402.3,29.862 1402.85,31.8051 1403.39,33.6661 1403.93,36.4775 1404.57,39.7921 1405.12,43.4851 1405.66,47.7067 1406.31,52.9803 1406.96,59.532 1407.5,66.0559 1408.25,75.1681 1408.79,84.2729 1409.33,93.4934 1409.98,103.584 1410.53,115.596 1411.06,127.585 1411.71,141.521 1412.36,156.425 1412.9,171.15 1413.45,186.581 1413.99,202.799 1414.64,219.57 1415.18,238.122 1415.72,254.576 1416.37,274.036 1416.91,292.309 1417.45,310.689 1417.99,330.4 1418.64,348.55 1419.18,366.392 1419.72,383.756 1420.26,400.532 1420.8,416.565 1421.45,431.843 1421.99,447.126 1422.64,460.201 1423.18,472.072 1423.72,482.569 1424.26,492.267 1424.91,499.651 1425.45,505.379 1425.89,508.855 1426.53,511.469 1427.07,512.536 1427.62,512.882 1428.37,512.975 1428.81,513.003 1429.35,513.001 1429.89,513.001 1430.54,513.001 1431.08,512.998 1431.62,512.998 1432.16,512.998 1432.81,513 1433.35,513 1434,512.996 1434.54,513 1435.08,512.996 1435.62,512.996 1436.27,512.996 1436.81,512.996 1437.46,512.996 1438,512.996 " />
</g>

<g fill="none" stroke="#000000" stroke-opacity="1" stroke-width="1" stroke-linecap="square" stroke-linejoin="bevel" transform="matrix(0.833333,0,0,0.833333,0,0)"
font-family="Ubuntu" font-size="12.2222" font-weight="400" font-style="normal" 
>
</g>

<g fill="none" stroke="#000000" stroke-opacity="1" stroke-width="1" stroke-linecap="square" stroke-linejoin="bevel" transform="matrix(0.833333,0,0,0.833333,0,0)"
font-family="Ubuntu" font-size="12.2222" font-weight="400" font-style="normal" 
>
</g>

<g fill="none" stroke="#000000" stroke-opacity="1" stroke-width="1" stroke-linecap="square" stroke-linejoin="bevel" transform="matrix(0.833333,0,0,0.833333,0,0)"
font-family="Ubuntu" font-size="12.2222" font-weight="400" font-style="normal" 
>
</g>

<g fill="none" stroke="#111111" stroke-opacity="1" stroke-width="1" stroke-linecap="square" stroke-linejoin="bevel" transform="matrix(0.833333,0,0,0.833333,0,0)"
font-family="Ubuntu" font-size="12.2222" font-weight="400" font-style="normal" 
>
<rect x="1189" y="10" width="242" height="23"/>
</g>

<g fill="none" stroke="#000000" stroke-opacity="1" stroke-width="1" stroke-linecap="square" stroke-linejoin="bevel" transform="matrix(0.833333,0,0,0.833333,0,0)"
font-family="Ubuntu" font-size="12.2222" font-weight="400" font-style="normal" 
>
</g>

<g fill="none" stroke="#000000" stroke-opacity="1" stroke-width="1" stroke-linecap="square" stroke-linejoin="bevel" transform="matrix(0.833333,0,0,0.833333,0,0)"
font-family="Ubuntu" font-size="12.2222" font-weight="400" font-style="normal" 
>
</g>

<g fill="none" stroke="#000000" stroke-opacity="1" stroke-width="1" stroke-linecap="square" stroke-linejoin="bevel" transform="matrix(0.833333,0,0,0.833333,994.167,14.1667)"
font-family="Ubuntu" font-size="12.2222" font-weight="400" font-style="normal" 
>
</g>

<g fill="#ff7f0e" fill-opacity="1" stroke="none" transform="matrix(0.833333,0,0,0.833333,0,0)"
font-family="Ubuntu" font-size="12.2222" font-weight="400" font-style="normal" 
>
<path vector-effect="none" fill-rule="evenodd" d="M1193,17 L1201,17 L1201,25 L1193,25 L1193,17"/>
</g>

<g fill="none" stroke="#000000" stroke-opacity="1" stroke-width="1" stroke-linecap="square" stroke-linejoin="bevel" transform="matrix(0.833333,0,0,0.833333,994.167,14.1667)"
font-family="Ubuntu" font-size="12.2222" font-weight="400" font-style="normal" 
>
</g>

<g fill="none" stroke="#111111" stroke-opacity="1" stroke-width="1" stroke-linecap="square" stroke-linejoin="bevel" transform="matrix(0.833333,0,0,0.833333,0,0)"
font-family="Ubuntu" font-size="10" font-weight="400" font-style="normal" 
>
</g>

<g fill="none" stroke="#111111" stroke-opacity="1" stroke-width="1" stroke-linecap="square" stroke-linejoin="bevel" transform="matrix(0.833333,0,0,0.833333,0,0)"
font-family="Ubuntu" font-size="12" font-weight="400" font-style="normal" 
>
<text fill="#111111" fill-opacity="1" stroke="none" xml:space="preserve" x="1202" y="26" font-family="Ubuntu" font-size="12" font-weight="400" font-style="normal" 
 >/world_to_torch/transform/translation/y</text>
</g>

<g fill="none" stroke="#111111" stroke-opacity="1" stroke-width="1" stroke-linecap="square" stroke-linejoin="bevel" transform="matrix(0.833333,0,0,0.833333,0,0)"
font-family="Ubuntu" font-size="10" font-weight="400" font-style="normal" 
>
</g>

<g fill="none" stroke="#111111" stroke-opacity="1" stroke-width="1" stroke-linecap="square" stroke-linejoin="bevel" transform="matrix(0.833333,0,0,0.833333,0,0)"
font-family="Ubuntu" font-size="10" font-weight="400" font-style="normal" 
>
</g>

<g fill="none" stroke="#111111" stroke-opacity="1" stroke-width="1" stroke-linecap="square" stroke-linejoin="bevel" transform="matrix(0.833333,0,0,0.833333,0,0)"
font-family="Ubuntu" font-size="10" font-weight="400" font-style="normal" 
>
</g>

<g fill="none" stroke="#111111" stroke-opacity="1" stroke-width="1" stroke-linecap="square" stroke-linejoin="bevel" transform="matrix(0.833333,0,0,0.833333,0,0)"
font-family="Ubuntu" font-size="10" font-weight="400" font-style="normal" 
>
</g>

<g fill="none" stroke="#000000" stroke-opacity="1" stroke-width="1" stroke-linecap="square" stroke-linejoin="bevel" transform="matrix(0.833333,0,0,0.833333,0,0)"
font-family="Ubuntu" font-size="12.2222" font-weight="400" font-style="normal" 
>
</g>

<g fill="#ffffff" fill-opacity="1" stroke="#111111" stroke-opacity="1" stroke-width="1" stroke-linecap="square" stroke-linejoin="bevel" transform="matrix(0.833333,0,0,0.833333,0,0)"
font-family="Ubuntu" font-size="12.2222" font-weight="400" font-style="normal" 
>
<circle cx="1459" cy="10" r="5"/>
</g>

<g fill="none" stroke="#000000" stroke-opacity="1" stroke-width="1" stroke-linecap="square" stroke-linejoin="bevel" transform="matrix(0.833333,0,0,0.833333,0,0)"
font-family="Ubuntu" font-size="12.2222" font-weight="400" font-style="normal" 
>
</g>

<g fill="none" stroke="#000000" stroke-opacity="1" stroke-width="1" stroke-linecap="square" stroke-linejoin="bevel" transform="matrix(0.833333,0,0,0.833333,0,0)"
font-family="Ubuntu" font-size="12.2222" font-weight="400" font-style="normal" 
>
</g>

<g fill="none" stroke="#000000" stroke-opacity="1" stroke-width="1" stroke-linecap="square" stroke-linejoin="bevel" transform="matrix(0.833333,0,0,0.833333,0,0)"
font-family="Ubuntu" font-size="12.2222" font-weight="400" font-style="normal" 
>
</g>

<g fill="none" stroke="#111111" stroke-opacity="1" stroke-width="1" stroke-linecap="square" stroke-linejoin="bevel" transform="matrix(0,-0.833333,0.833333,0,0,864.167)"
font-family="Ubuntu" font-size="11.1111" font-weight="400" font-style="normal" 
>
</g>

<g fill="none" stroke="#111111" stroke-opacity="1" stroke-width="1" stroke-linecap="square" stroke-linejoin="bevel" transform="matrix(0,-0.833333,0.833333,0,0,864.167)"
font-family="Ubuntu" font-size="13.3333" font-weight="700" font-style="normal" 
>
</g>

<g fill="none" stroke="#111111" stroke-opacity="1" stroke-width="1" stroke-linecap="square" stroke-linejoin="bevel" transform="matrix(0,-0.833333,0.833333,0,0,864.167)"
font-family="Ubuntu" font-size="13.3333" font-weight="700" font-style="normal" 
>
</g>

<g fill="none" stroke="#111111" stroke-opacity="1" stroke-width="1" stroke-linecap="square" stroke-linejoin="bevel" transform="matrix(0,-0.833333,0.833333,0,0,864.167)"
font-family="Ubuntu" font-size="11.1111" font-weight="400" font-style="normal" 
>
</g>

<g fill="none" stroke="#000000" stroke-opacity="1" stroke-width="1" stroke-linecap="square" stroke-linejoin="bevel" transform="matrix(0.833333,0,0,0.833333,0,0)"
font-family="Ubuntu" font-size="12.2222" font-weight="400" font-style="normal" 
>
</g>

<g fill="none" stroke="#000000" stroke-opacity="1" stroke-width="1" stroke-linecap="square" stroke-linejoin="bevel" transform="matrix(0.833333,0,0,0.833333,0,0)"
font-family="Ubuntu" font-size="11.1111" font-weight="400" font-style="normal" 
>
</g>

<g fill="none" stroke="#000000" stroke-opacity="1" stroke-width="1" stroke-linecap="square" stroke-linejoin="bevel" transform="matrix(0.833333,0,0,0.833333,0,0)"
font-family="Ubuntu" font-size="11.1111" font-weight="400" font-style="normal" 
>
</g>

<g fill="none" stroke="#111111" stroke-opacity="1" stroke-width="1" stroke-linecap="square" stroke-linejoin="bevel" transform="matrix(0.833333,0,0,0.833333,0,0)"
font-family="Ubuntu" font-size="11.1111" font-weight="400" font-style="normal" 
>
</g>

<g fill="none" stroke="#111111" stroke-opacity="1" stroke-width="1" stroke-linecap="square" stroke-linejoin="bevel" transform="matrix(0.833333,0,0,0.833333,0.234375,839.558)"
font-family="Ubuntu" font-size="11.1111" font-weight="400" font-style="normal" 
>
</g>

<g fill="none" stroke="#111111" stroke-opacity="1" stroke-width="1" stroke-linecap="square" stroke-linejoin="bevel" transform="matrix(0.833333,0,0,0.833333,0.234375,839.558)"
font-family="Ubuntu" font-size="13" font-weight="400" font-style="normal" 
>
</g>

<g fill="none" stroke="#111111" stroke-opacity="1" stroke-width="1" stroke-linecap="square" stroke-linejoin="bevel" transform="matrix(0.833333,0,0,0.833333,0.234375,839.558)"
font-family="Ubuntu" font-size="13" font-weight="400" font-style="normal" 
>
<text fill="#111111" fill-opacity="1" stroke="none" xml:space="preserve" x="0" y="10" font-family="Ubuntu" font-size="13" font-weight="400" font-style="normal" 
 >-0.3</text>
</g>

<g fill="none" stroke="#111111" stroke-opacity="1" stroke-width="1" stroke-linecap="square" stroke-linejoin="bevel" transform="matrix(0.833333,0,0,0.833333,0.234375,839.558)"
font-family="Ubuntu" font-size="11.1111" font-weight="400" font-style="normal" 
>
</g>

<g fill="none" stroke="#111111" stroke-opacity="1" stroke-width="1" stroke-linecap="square" stroke-linejoin="bevel" transform="matrix(0.833333,0,0,0.833333,0.234375,839.558)"
font-family="Ubuntu" font-size="11.1111" font-weight="400" font-style="normal" 
>
</g>

<g fill="none" stroke="#111111" stroke-opacity="1" stroke-width="1" stroke-linecap="square" stroke-linejoin="bevel" transform="matrix(0.833333,0,0,0.833333,0,0)"
font-family="Ubuntu" font-size="11.1111" font-weight="400" font-style="normal" 
>
</g>

<g fill="none" stroke="#111111" stroke-opacity="1" stroke-width="1" stroke-linecap="square" stroke-linejoin="bevel" transform="matrix(0.833333,0,0,0.833333,0.234375,701.327)"
font-family="Ubuntu" font-size="11.1111" font-weight="400" font-style="normal" 
>
</g>

<g fill="none" stroke="#111111" stroke-opacity="1" stroke-width="1" stroke-linecap="square" stroke-linejoin="bevel" transform="matrix(0.833333,0,0,0.833333,0.234375,701.327)"
font-family="Ubuntu" font-size="13" font-weight="400" font-style="normal" 
>
</g>

<g fill="none" stroke="#111111" stroke-opacity="1" stroke-width="1" stroke-linecap="square" stroke-linejoin="bevel" transform="matrix(0.833333,0,0,0.833333,0.234375,701.327)"
font-family="Ubuntu" font-size="13" font-weight="400" font-style="normal" 
>
<text fill="#111111" fill-opacity="1" stroke="none" xml:space="preserve" x="0" y="10" font-family="Ubuntu" font-size="13" font-weight="400" font-style="normal" 
 >-0.2</text>
</g>

<g fill="none" stroke="#111111" stroke-opacity="1" stroke-width="1" stroke-linecap="square" stroke-linejoin="bevel" transform="matrix(0.833333,0,0,0.833333,0.234375,701.327)"
font-family="Ubuntu" font-size="11.1111" font-weight="400" font-style="normal" 
>
</g>

<g fill="none" stroke="#111111" stroke-opacity="1" stroke-width="1" stroke-linecap="square" stroke-linejoin="bevel" transform="matrix(0.833333,0,0,0.833333,0.234375,701.327)"
font-family="Ubuntu" font-size="11.1111" font-weight="400" font-style="normal" 
>
</g>

<g fill="none" stroke="#111111" stroke-opacity="1" stroke-width="1" stroke-linecap="square" stroke-linejoin="bevel" transform="matrix(0.833333,0,0,0.833333,0,0)"
font-family="Ubuntu" font-size="11.1111" font-weight="400" font-style="normal" 
>
</g>

<g fill="none" stroke="#111111" stroke-opacity="1" stroke-width="1" stroke-linecap="square" stroke-linejoin="bevel" transform="matrix(0.833333,0,0,0.833333,0.234375,563.096)"
font-family="Ubuntu" font-size="11.1111" font-weight="400" font-style="normal" 
>
</g>

<g fill="none" stroke="#111111" stroke-opacity="1" stroke-width="1" stroke-linecap="square" stroke-linejoin="bevel" transform="matrix(0.833333,0,0,0.833333,0.234375,563.096)"
font-family="Ubuntu" font-size="13" font-weight="400" font-style="normal" 
>
</g>

<g fill="none" stroke="#111111" stroke-opacity="1" stroke-width="1" stroke-linecap="square" stroke-linejoin="bevel" transform="matrix(0.833333,0,0,0.833333,0.234375,563.096)"
font-family="Ubuntu" font-size="13" font-weight="400" font-style="normal" 
>
<text fill="#111111" fill-opacity="1" stroke="none" xml:space="preserve" x="0" y="10" font-family="Ubuntu" font-size="13" font-weight="400" font-style="normal" 
 >-0.1</text>
</g>

<g fill="none" stroke="#111111" stroke-opacity="1" stroke-width="1" stroke-linecap="square" stroke-linejoin="bevel" transform="matrix(0.833333,0,0,0.833333,0.234375,563.096)"
font-family="Ubuntu" font-size="11.1111" font-weight="400" font-style="normal" 
>
</g>

<g fill="none" stroke="#111111" stroke-opacity="1" stroke-width="1" stroke-linecap="square" stroke-linejoin="bevel" transform="matrix(0.833333,0,0,0.833333,0.234375,563.096)"
font-family="Ubuntu" font-size="11.1111" font-weight="400" font-style="normal" 
>
</g>

<g fill="none" stroke="#111111" stroke-opacity="1" stroke-width="1" stroke-linecap="square" stroke-linejoin="bevel" transform="matrix(0.833333,0,0,0.833333,0,0)"
font-family="Ubuntu" font-size="11.1111" font-weight="400" font-style="normal" 
>
</g>

<g fill="none" stroke="#111111" stroke-opacity="1" stroke-width="1" stroke-linecap="square" stroke-linejoin="bevel" transform="matrix(0.833333,0,0,0.833333,12.2266,424.864)"
font-family="Ubuntu" font-size="11.1111" font-weight="400" font-style="normal" 
>
</g>

<g fill="none" stroke="#111111" stroke-opacity="1" stroke-width="1" stroke-linecap="square" stroke-linejoin="bevel" transform="matrix(0.833333,0,0,0.833333,12.2266,424.864)"
font-family="Ubuntu" font-size="13" font-weight="400" font-style="normal" 
>
</g>

<g fill="none" stroke="#111111" stroke-opacity="1" stroke-width="1" stroke-linecap="square" stroke-linejoin="bevel" transform="matrix(0.833333,0,0,0.833333,12.2266,424.864)"
font-family="Ubuntu" font-size="13" font-weight="400" font-style="normal" 
>
</g>

<g fill="none" stroke="#111111" stroke-opacity="1" stroke-width="1" stroke-linecap="square" stroke-linejoin="bevel" transform="matrix(0.833333,0,0,0.833333,12.2266,424.864)"
font-family="Ubuntu" font-size="13" font-weight="400" font-style="normal" 
>
<text fill="#111111" fill-opacity="1" stroke="none" xml:space="preserve" x="0" y="10" font-family="Ubuntu" font-size="13" font-weight="400" font-style="normal" 
 >0</text>
</g>

<g fill="none" stroke="#111111" stroke-opacity="1" stroke-width="1" stroke-linecap="square" stroke-linejoin="bevel" transform="matrix(0.833333,0,0,0.833333,12.2266,424.864)"
font-family="Ubuntu" font-size="13" font-weight="400" font-style="normal" 
>
</g>

<g fill="none" stroke="#111111" stroke-opacity="1" stroke-width="1" stroke-linecap="square" stroke-linejoin="bevel" transform="matrix(0.833333,0,0,0.833333,12.2266,424.864)"
font-family="Ubuntu" font-size="11.1111" font-weight="400" font-style="normal" 
>
</g>

<g fill="none" stroke="#111111" stroke-opacity="1" stroke-width="1" stroke-linecap="square" stroke-linejoin="bevel" transform="matrix(0.833333,0,0,0.833333,12.2266,424.864)"
font-family="Ubuntu" font-size="11.1111" font-weight="400" font-style="normal" 
>
</g>

<g fill="none" stroke="#111111" stroke-opacity="1" stroke-width="1" stroke-linecap="square" stroke-linejoin="bevel" transform="matrix(0.833333,0,0,0.833333,0,0)"
font-family="Ubuntu" font-size="11.1111" font-weight="400" font-style="normal" 
>
</g>

<g fill="none" stroke="#111111" stroke-opacity="1" stroke-width="1" stroke-linecap="square" stroke-linejoin="bevel" transform="matrix(0.833333,0,0,0.833333,3.46354,286.633)"
font-family="Ubuntu" font-size="11.1111" font-weight="400" font-style="normal" 
>
</g>

<g fill="none" stroke="#111111" stroke-opacity="1" stroke-width="1" stroke-linecap="square" stroke-linejoin="bevel" transform="matrix(0.833333,0,0,0.833333,3.46354,286.633)"
font-family="Ubuntu" font-size="13" font-weight="400" font-style="normal" 
>
</g>

<g fill="none" stroke="#111111" stroke-opacity="1" stroke-width="1" stroke-linecap="square" stroke-linejoin="bevel" transform="matrix(0.833333,0,0,0.833333,3.46354,286.633)"
font-family="Ubuntu" font-size="13" font-weight="400" font-style="normal" 
>
<text fill="#111111" fill-opacity="1" stroke="none" xml:space="preserve" x="0" y="10" font-family="Ubuntu" font-size="13" font-weight="400" font-style="normal" 
 >0.1</text>
</g>

<g fill="none" stroke="#111111" stroke-opacity="1" stroke-width="1" stroke-linecap="square" stroke-linejoin="bevel" transform="matrix(0.833333,0,0,0.833333,3.46354,286.633)"
font-family="Ubuntu" font-size="11.1111" font-weight="400" font-style="normal" 
>
</g>

<g fill="none" stroke="#111111" stroke-opacity="1" stroke-width="1" stroke-linecap="square" stroke-linejoin="bevel" transform="matrix(0.833333,0,0,0.833333,3.46354,286.633)"
font-family="Ubuntu" font-size="11.1111" font-weight="400" font-style="normal" 
>
</g>

<g fill="none" stroke="#111111" stroke-opacity="1" stroke-width="1" stroke-linecap="square" stroke-linejoin="bevel" transform="matrix(0.833333,0,0,0.833333,0,0)"
font-family="Ubuntu" font-size="11.1111" font-weight="400" font-style="normal" 
>
</g>

<g fill="none" stroke="#111111" stroke-opacity="1" stroke-width="1" stroke-linecap="square" stroke-linejoin="bevel" transform="matrix(0.833333,0,0,0.833333,3.46354,148.402)"
font-family="Ubuntu" font-size="11.1111" font-weight="400" font-style="normal" 
>
</g>

<g fill="none" stroke="#111111" stroke-opacity="1" stroke-width="1" stroke-linecap="square" stroke-linejoin="bevel" transform="matrix(0.833333,0,0,0.833333,3.46354,148.402)"
font-family="Ubuntu" font-size="13" font-weight="400" font-style="normal" 
>
</g>

<g fill="none" stroke="#111111" stroke-opacity="1" stroke-width="1" stroke-linecap="square" stroke-linejoin="bevel" transform="matrix(0.833333,0,0,0.833333,3.46354,148.402)"
font-family="Ubuntu" font-size="13" font-weight="400" font-style="normal" 
>
<text fill="#111111" fill-opacity="1" stroke="none" xml:space="preserve" x="0" y="10" font-family="Ubuntu" font-size="13" font-weight="400" font-style="normal" 
 >0.2</text>
</g>

<g fill="none" stroke="#111111" stroke-opacity="1" stroke-width="1" stroke-linecap="square" stroke-linejoin="bevel" transform="matrix(0.833333,0,0,0.833333,3.46354,148.402)"
font-family="Ubuntu" font-size="11.1111" font-weight="400" font-style="normal" 
>
</g>

<g fill="none" stroke="#111111" stroke-opacity="1" stroke-width="1" stroke-linecap="square" stroke-linejoin="bevel" transform="matrix(0.833333,0,0,0.833333,3.46354,148.402)"
font-family="Ubuntu" font-size="11.1111" font-weight="400" font-style="normal" 
>
</g>

<g fill="none" stroke="#111111" stroke-opacity="1" stroke-width="1" stroke-linecap="square" stroke-linejoin="bevel" transform="matrix(0.833333,0,0,0.833333,0,0)"
font-family="Ubuntu" font-size="11.1111" font-weight="400" font-style="normal" 
>
</g>

<g fill="none" stroke="#111111" stroke-opacity="1" stroke-width="1" stroke-linecap="square" stroke-linejoin="bevel" transform="matrix(0.833333,0,0,0.833333,3.46354,10.1705)"
font-family="Ubuntu" font-size="11.1111" font-weight="400" font-style="normal" 
>
</g>

<g fill="none" stroke="#111111" stroke-opacity="1" stroke-width="1" stroke-linecap="square" stroke-linejoin="bevel" transform="matrix(0.833333,0,0,0.833333,3.46354,10.1705)"
font-family="Ubuntu" font-size="13" font-weight="400" font-style="normal" 
>
</g>

<g fill="none" stroke="#111111" stroke-opacity="1" stroke-width="1" stroke-linecap="square" stroke-linejoin="bevel" transform="matrix(0.833333,0,0,0.833333,3.46354,10.1705)"
font-family="Ubuntu" font-size="13" font-weight="400" font-style="normal" 
>
<text fill="#111111" fill-opacity="1" stroke="none" xml:space="preserve" x="0" y="10" font-family="Ubuntu" font-size="13" font-weight="400" font-style="normal" 
 >0.3</text>
</g>

<g fill="none" stroke="#111111" stroke-opacity="1" stroke-width="1" stroke-linecap="square" stroke-linejoin="bevel" transform="matrix(0.833333,0,0,0.833333,3.46354,10.1705)"
font-family="Ubuntu" font-size="11.1111" font-weight="400" font-style="normal" 
>
</g>

<g fill="none" stroke="#111111" stroke-opacity="1" stroke-width="1" stroke-linecap="square" stroke-linejoin="bevel" transform="matrix(0.833333,0,0,0.833333,3.46354,10.1705)"
font-family="Ubuntu" font-size="11.1111" font-weight="400" font-style="normal" 
>
</g>

<g fill="none" stroke="#111111" stroke-opacity="1" stroke-width="1" stroke-linecap="square" stroke-linejoin="bevel" transform="matrix(0.833333,0,0,0.833333,0,0)"
font-family="Ubuntu" font-size="11.1111" font-weight="400" font-style="normal" 
>
</g>

<g fill="none" stroke="#000000" stroke-opacity="1" stroke-width="1" stroke-linecap="square" stroke-linejoin="bevel" transform="matrix(0.833333,0,0,0.833333,0,0)"
font-family="Ubuntu" font-size="11.1111" font-weight="400" font-style="normal" 
>
</g>

<g fill="none" stroke="#111111" stroke-opacity="1" stroke-width="1" stroke-linecap="butt" stroke-linejoin="bevel" transform="matrix(0.833333,0,0,0.833333,0,0)"
font-family="Ubuntu" font-size="11.1111" font-weight="400" font-style="normal" 
>
<polyline fill="none" vector-effect="non-scaling-stroke" points="35.5,979.294 30.3,979.294 " />
<polyline fill="none" vector-effect="non-scaling-stroke" points="35.5,946.119 30.3,946.119 " />
<polyline fill="none" vector-effect="non-scaling-stroke" points="35.5,912.943 30.3,912.943 " />
<polyline fill="none" vector-effect="non-scaling-stroke" points="35.5,879.768 30.3,879.768 " />
<polyline fill="none" vector-effect="non-scaling-stroke" points="35.5,813.417 30.3,813.417 " />
<polyline fill="none" vector-effect="non-scaling-stroke" points="35.5,780.241 30.3,780.241 " />
<polyline fill="none" vector-effect="non-scaling-stroke" points="35.5,747.066 30.3,747.066 " />
<polyline fill="none" vector-effect="non-scaling-stroke" points="35.5,713.89 30.3,713.89 " />
<polyline fill="none" vector-effect="non-scaling-stroke" points="35.5,647.539 30.3,647.539 " />
<polyline fill="none" vector-effect="non-scaling-stroke" points="35.5,614.364 30.3,614.364 " />
<polyline fill="none" vector-effect="non-scaling-stroke" points="35.5,581.188 30.3,581.188 " />
<polyline fill="none" vector-effect="non-scaling-stroke" points="35.5,548.013 30.3,548.013 " />
<polyline fill="none" vector-effect="non-scaling-stroke" points="35.5,481.662 30.3,481.662 " />
<polyline fill="none" vector-effect="non-scaling-stroke" points="35.5,448.486 30.3,448.486 " />
<polyline fill="none" vector-effect="non-scaling-stroke" points="35.5,415.311 30.3,415.311 " />
<polyline fill="none" vector-effect="non-scaling-stroke" points="35.5,382.135 30.3,382.135 " />
<polyline fill="none" vector-effect="non-scaling-stroke" points="35.5,315.784 30.3,315.784 " />
<polyline fill="none" vector-effect="non-scaling-stroke" points="35.5,282.609 30.3,282.609 " />
<polyline fill="none" vector-effect="non-scaling-stroke" points="35.5,249.433 30.3,249.433 " />
<polyline fill="none" vector-effect="non-scaling-stroke" points="35.5,216.258 30.3,216.258 " />
<polyline fill="none" vector-effect="non-scaling-stroke" points="35.5,149.907 30.3,149.907 " />
<polyline fill="none" vector-effect="non-scaling-stroke" points="35.5,116.731 30.3,116.731 " />
<polyline fill="none" vector-effect="non-scaling-stroke" points="35.5,83.5557 30.3,83.5557 " />
<polyline fill="none" vector-effect="non-scaling-stroke" points="35.5,50.3802 30.3,50.3802 " />
<polyline fill="none" vector-effect="non-scaling-stroke" points="35.5,1012.47 26.3,1012.47 " />
<polyline fill="none" vector-effect="non-scaling-stroke" points="35.5,846.592 26.3,846.592 " />
<polyline fill="none" vector-effect="non-scaling-stroke" points="35.5,680.715 26.3,680.715 " />
<polyline fill="none" vector-effect="non-scaling-stroke" points="35.5,514.837 26.3,514.837 " />
<polyline fill="none" vector-effect="non-scaling-stroke" points="35.5,348.96 26.3,348.96 " />
<polyline fill="none" vector-effect="non-scaling-stroke" points="35.5,183.082 26.3,183.082 " />
<polyline fill="none" vector-effect="non-scaling-stroke" points="35.5,17.2047 26.3,17.2047 " />
</g>

<g fill="none" stroke="#000000" stroke-opacity="1" stroke-width="1" stroke-linecap="square" stroke-linejoin="bevel" transform="matrix(0.833333,0,0,0.833333,0,0)"
font-family="Ubuntu" font-size="11.1111" font-weight="400" font-style="normal" 
>
</g>

<g fill="none" stroke="#111111" stroke-opacity="1" stroke-width="1" stroke-linecap="butt" stroke-linejoin="bevel" transform="matrix(0.833333,0,0,0.833333,0,0)"
font-family="Ubuntu" font-size="11.1111" font-weight="400" font-style="normal" 
>
<polyline fill="none" vector-effect="non-scaling-stroke" points="35.4,1 35.4,1037 " />
</g>

<g fill="none" stroke="#000000" stroke-opacity="1" stroke-width="1" stroke-linecap="square" stroke-linejoin="bevel" transform="matrix(0.833333,0,0,0.833333,0,0)"
font-family="Ubuntu" font-size="11.1111" font-weight="400" font-style="normal" 
>
</g>

<g fill="none" stroke="#000000" stroke-opacity="1" stroke-width="1" stroke-linecap="square" stroke-linejoin="bevel" transform="matrix(0.833333,0,0,0.833333,0,0)"
font-family="Ubuntu" font-size="11.1111" font-weight="400" font-style="normal" 
>
</g>

<g fill="none" stroke="#000000" stroke-opacity="1" stroke-width="1" stroke-linecap="square" stroke-linejoin="bevel" transform="matrix(0.833333,0,0,0.833333,0,0)"
font-family="Ubuntu" font-size="12.2222" font-weight="400" font-style="normal" 
>
</g>

<g fill="none" stroke="#111111" stroke-opacity="1" stroke-width="1" stroke-linecap="square" stroke-linejoin="bevel" transform="matrix(0.833333,0,0,0.833333,32.5,900.833)"
font-family="Ubuntu" font-size="11.1111" font-weight="400" font-style="normal" 
>
</g>

<g fill="none" stroke="#111111" stroke-opacity="1" stroke-width="1" stroke-linecap="square" stroke-linejoin="bevel" transform="matrix(0.833333,0,0,0.833333,32.5,900.833)"
font-family="Ubuntu" font-size="13.3333" font-weight="700" font-style="normal" 
>
</g>

<g fill="none" stroke="#111111" stroke-opacity="1" stroke-width="1" stroke-linecap="square" stroke-linejoin="bevel" transform="matrix(0.833333,0,0,0.833333,32.5,900.833)"
font-family="Ubuntu" font-size="13.3333" font-weight="700" font-style="normal" 
>
</g>

<g fill="none" stroke="#111111" stroke-opacity="1" stroke-width="1" stroke-linecap="square" stroke-linejoin="bevel" transform="matrix(0.833333,0,0,0.833333,32.5,900.833)"
font-family="Ubuntu" font-size="11.1111" font-weight="400" font-style="normal" 
>
</g>

<g fill="none" stroke="#000000" stroke-opacity="1" stroke-width="1" stroke-linecap="square" stroke-linejoin="bevel" transform="matrix(0.833333,0,0,0.833333,0,0)"
font-family="Ubuntu" font-size="12.2222" font-weight="400" font-style="normal" 
>
</g>

<g fill="none" stroke="#000000" stroke-opacity="1" stroke-width="1" stroke-linecap="square" stroke-linejoin="bevel" transform="matrix(0.833333,0,0,0.833333,0,0)"
font-family="Ubuntu" font-size="11.1111" font-weight="400" font-style="normal" 
>
</g>

<g fill="none" stroke="#000000" stroke-opacity="1" stroke-width="1" stroke-linecap="square" stroke-linejoin="bevel" transform="matrix(0.833333,0,0,0.833333,0,0)"
font-family="Ubuntu" font-size="11.1111" font-weight="400" font-style="normal" 
>
</g>

<g fill="none" stroke="#111111" stroke-opacity="1" stroke-width="1" stroke-linecap="square" stroke-linejoin="bevel" transform="matrix(0.833333,0,0,0.833333,0,0)"
font-family="Ubuntu" font-size="11.1111" font-weight="400" font-style="normal" 
>
</g>

<g fill="none" stroke="#111111" stroke-opacity="1" stroke-width="1" stroke-linecap="square" stroke-linejoin="bevel" transform="matrix(0.833333,0,0,0.833333,34.8451,878.333)"
font-family="Ubuntu" font-size="11.1111" font-weight="400" font-style="normal" 
>
</g>

<g fill="none" stroke="#111111" stroke-opacity="1" stroke-width="1" stroke-linecap="square" stroke-linejoin="bevel" transform="matrix(0.833333,0,0,0.833333,34.8451,878.333)"
font-family="Ubuntu" font-size="13" font-weight="400" font-style="normal" 
>
</g>

<g fill="none" stroke="#111111" stroke-opacity="1" stroke-width="1" stroke-linecap="square" stroke-linejoin="bevel" transform="matrix(0.833333,0,0,0.833333,34.8451,878.333)"
font-family="Ubuntu" font-size="13" font-weight="400" font-style="normal" 
>
</g>

<g fill="none" stroke="#111111" stroke-opacity="1" stroke-width="1" stroke-linecap="square" stroke-linejoin="bevel" transform="matrix(0.833333,0,0,0.833333,34.8451,878.333)"
font-family="Ubuntu" font-size="13" font-weight="400" font-style="normal" 
>
<text fill="#111111" fill-opacity="1" stroke="none" xml:space="preserve" x="0" y="10" font-family="Ubuntu" font-size="13" font-weight="400" font-style="normal" 
 >15:55:40.0</text>
</g>

<g fill="none" stroke="#111111" stroke-opacity="1" stroke-width="1" stroke-linecap="square" stroke-linejoin="bevel" transform="matrix(0.833333,0,0,0.833333,34.8451,878.333)"
font-family="Ubuntu" font-size="13" font-weight="400" font-style="normal" 
>
<text fill="#111111" fill-opacity="1" stroke="none" xml:space="preserve" x="0" y="25" font-family="Ubuntu" font-size="13" font-weight="400" font-style="normal" 
 >2024 Jul 10</text>
</g>

<g fill="none" stroke="#111111" stroke-opacity="1" stroke-width="1" stroke-linecap="square" stroke-linejoin="bevel" transform="matrix(0.833333,0,0,0.833333,34.8451,878.333)"
font-family="Ubuntu" font-size="13" font-weight="400" font-style="normal" 
>
</g>

<g fill="none" stroke="#111111" stroke-opacity="1" stroke-width="1" stroke-linecap="square" stroke-linejoin="bevel" transform="matrix(0.833333,0,0,0.833333,34.8451,878.333)"
font-family="Ubuntu" font-size="11.1111" font-weight="400" font-style="normal" 
>
</g>

<g fill="none" stroke="#111111" stroke-opacity="1" stroke-width="1" stroke-linecap="square" stroke-linejoin="bevel" transform="matrix(0.833333,0,0,0.833333,34.8451,878.333)"
font-family="Ubuntu" font-size="11.1111" font-weight="400" font-style="normal" 
>
</g>

<g fill="none" stroke="#111111" stroke-opacity="1" stroke-width="1" stroke-linecap="square" stroke-linejoin="bevel" transform="matrix(0.833333,0,0,0.833333,0,0)"
font-family="Ubuntu" font-size="11.1111" font-weight="400" font-style="normal" 
>
</g>

<g fill="none" stroke="#111111" stroke-opacity="1" stroke-width="1" stroke-linecap="square" stroke-linejoin="bevel" transform="matrix(0.833333,0,0,0.833333,215.135,878.333)"
font-family="Ubuntu" font-size="11.1111" font-weight="400" font-style="normal" 
>
</g>

<g fill="none" stroke="#111111" stroke-opacity="1" stroke-width="1" stroke-linecap="square" stroke-linejoin="bevel" transform="matrix(0.833333,0,0,0.833333,215.135,878.333)"
font-family="Ubuntu" font-size="13" font-weight="400" font-style="normal" 
>
</g>

<g fill="none" stroke="#111111" stroke-opacity="1" stroke-width="1" stroke-linecap="square" stroke-linejoin="bevel" transform="matrix(0.833333,0,0,0.833333,215.135,878.333)"
font-family="Ubuntu" font-size="13" font-weight="400" font-style="normal" 
>
</g>

<g fill="none" stroke="#111111" stroke-opacity="1" stroke-width="1" stroke-linecap="square" stroke-linejoin="bevel" transform="matrix(0.833333,0,0,0.833333,215.135,878.333)"
font-family="Ubuntu" font-size="13" font-weight="400" font-style="normal" 
>
<text fill="#111111" fill-opacity="1" stroke="none" xml:space="preserve" x="0" y="10" font-family="Ubuntu" font-size="13" font-weight="400" font-style="normal" 
 >15:56:00.0</text>
</g>

<g fill="none" stroke="#111111" stroke-opacity="1" stroke-width="1" stroke-linecap="square" stroke-linejoin="bevel" transform="matrix(0.833333,0,0,0.833333,215.135,878.333)"
font-family="Ubuntu" font-size="13" font-weight="400" font-style="normal" 
>
<text fill="#111111" fill-opacity="1" stroke="none" xml:space="preserve" x="0" y="25" font-family="Ubuntu" font-size="13" font-weight="400" font-style="normal" 
 >2024 Jul 10</text>
</g>

<g fill="none" stroke="#111111" stroke-opacity="1" stroke-width="1" stroke-linecap="square" stroke-linejoin="bevel" transform="matrix(0.833333,0,0,0.833333,215.135,878.333)"
font-family="Ubuntu" font-size="13" font-weight="400" font-style="normal" 
>
</g>

<g fill="none" stroke="#111111" stroke-opacity="1" stroke-width="1" stroke-linecap="square" stroke-linejoin="bevel" transform="matrix(0.833333,0,0,0.833333,215.135,878.333)"
font-family="Ubuntu" font-size="11.1111" font-weight="400" font-style="normal" 
>
</g>

<g fill="none" stroke="#111111" stroke-opacity="1" stroke-width="1" stroke-linecap="square" stroke-linejoin="bevel" transform="matrix(0.833333,0,0,0.833333,215.135,878.333)"
font-family="Ubuntu" font-size="11.1111" font-weight="400" font-style="normal" 
>
</g>

<g fill="none" stroke="#111111" stroke-opacity="1" stroke-width="1" stroke-linecap="square" stroke-linejoin="bevel" transform="matrix(0.833333,0,0,0.833333,0,0)"
font-family="Ubuntu" font-size="11.1111" font-weight="400" font-style="normal" 
>
</g>

<g fill="none" stroke="#111111" stroke-opacity="1" stroke-width="1" stroke-linecap="square" stroke-linejoin="bevel" transform="matrix(0.833333,0,0,0.833333,395.424,878.333)"
font-family="Ubuntu" font-size="11.1111" font-weight="400" font-style="normal" 
>
</g>

<g fill="none" stroke="#111111" stroke-opacity="1" stroke-width="1" stroke-linecap="square" stroke-linejoin="bevel" transform="matrix(0.833333,0,0,0.833333,395.424,878.333)"
font-family="Ubuntu" font-size="13" font-weight="400" font-style="normal" 
>
</g>

<g fill="none" stroke="#111111" stroke-opacity="1" stroke-width="1" stroke-linecap="square" stroke-linejoin="bevel" transform="matrix(0.833333,0,0,0.833333,395.424,878.333)"
font-family="Ubuntu" font-size="13" font-weight="400" font-style="normal" 
>
</g>

<g fill="none" stroke="#111111" stroke-opacity="1" stroke-width="1" stroke-linecap="square" stroke-linejoin="bevel" transform="matrix(0.833333,0,0,0.833333,395.424,878.333)"
font-family="Ubuntu" font-size="13" font-weight="400" font-style="normal" 
>
<text fill="#111111" fill-opacity="1" stroke="none" xml:space="preserve" x="0" y="10" font-family="Ubuntu" font-size="13" font-weight="400" font-style="normal" 
 >15:56:20.0</text>
</g>

<g fill="none" stroke="#111111" stroke-opacity="1" stroke-width="1" stroke-linecap="square" stroke-linejoin="bevel" transform="matrix(0.833333,0,0,0.833333,395.424,878.333)"
font-family="Ubuntu" font-size="13" font-weight="400" font-style="normal" 
>
<text fill="#111111" fill-opacity="1" stroke="none" xml:space="preserve" x="0" y="25" font-family="Ubuntu" font-size="13" font-weight="400" font-style="normal" 
 >2024 Jul 10</text>
</g>

<g fill="none" stroke="#111111" stroke-opacity="1" stroke-width="1" stroke-linecap="square" stroke-linejoin="bevel" transform="matrix(0.833333,0,0,0.833333,395.424,878.333)"
font-family="Ubuntu" font-size="13" font-weight="400" font-style="normal" 
>
</g>

<g fill="none" stroke="#111111" stroke-opacity="1" stroke-width="1" stroke-linecap="square" stroke-linejoin="bevel" transform="matrix(0.833333,0,0,0.833333,395.424,878.333)"
font-family="Ubuntu" font-size="11.1111" font-weight="400" font-style="normal" 
>
</g>

<g fill="none" stroke="#111111" stroke-opacity="1" stroke-width="1" stroke-linecap="square" stroke-linejoin="bevel" transform="matrix(0.833333,0,0,0.833333,395.424,878.333)"
font-family="Ubuntu" font-size="11.1111" font-weight="400" font-style="normal" 
>
</g>

<g fill="none" stroke="#111111" stroke-opacity="1" stroke-width="1" stroke-linecap="square" stroke-linejoin="bevel" transform="matrix(0.833333,0,0,0.833333,0,0)"
font-family="Ubuntu" font-size="11.1111" font-weight="400" font-style="normal" 
>
</g>

<g fill="none" stroke="#111111" stroke-opacity="1" stroke-width="1" stroke-linecap="square" stroke-linejoin="bevel" transform="matrix(0.833333,0,0,0.833333,575.714,878.333)"
font-family="Ubuntu" font-size="11.1111" font-weight="400" font-style="normal" 
>
</g>

<g fill="none" stroke="#111111" stroke-opacity="1" stroke-width="1" stroke-linecap="square" stroke-linejoin="bevel" transform="matrix(0.833333,0,0,0.833333,575.714,878.333)"
font-family="Ubuntu" font-size="13" font-weight="400" font-style="normal" 
>
</g>

<g fill="none" stroke="#111111" stroke-opacity="1" stroke-width="1" stroke-linecap="square" stroke-linejoin="bevel" transform="matrix(0.833333,0,0,0.833333,575.714,878.333)"
font-family="Ubuntu" font-size="13" font-weight="400" font-style="normal" 
>
</g>

<g fill="none" stroke="#111111" stroke-opacity="1" stroke-width="1" stroke-linecap="square" stroke-linejoin="bevel" transform="matrix(0.833333,0,0,0.833333,575.714,878.333)"
font-family="Ubuntu" font-size="13" font-weight="400" font-style="normal" 
>
<text fill="#111111" fill-opacity="1" stroke="none" xml:space="preserve" x="0" y="10" font-family="Ubuntu" font-size="13" font-weight="400" font-style="normal" 
 >15:56:40.0</text>
</g>

<g fill="none" stroke="#111111" stroke-opacity="1" stroke-width="1" stroke-linecap="square" stroke-linejoin="bevel" transform="matrix(0.833333,0,0,0.833333,575.714,878.333)"
font-family="Ubuntu" font-size="13" font-weight="400" font-style="normal" 
>
<text fill="#111111" fill-opacity="1" stroke="none" xml:space="preserve" x="0" y="25" font-family="Ubuntu" font-size="13" font-weight="400" font-style="normal" 
 >2024 Jul 10</text>
</g>

<g fill="none" stroke="#111111" stroke-opacity="1" stroke-width="1" stroke-linecap="square" stroke-linejoin="bevel" transform="matrix(0.833333,0,0,0.833333,575.714,878.333)"
font-family="Ubuntu" font-size="13" font-weight="400" font-style="normal" 
>
</g>

<g fill="none" stroke="#111111" stroke-opacity="1" stroke-width="1" stroke-linecap="square" stroke-linejoin="bevel" transform="matrix(0.833333,0,0,0.833333,575.714,878.333)"
font-family="Ubuntu" font-size="11.1111" font-weight="400" font-style="normal" 
>
</g>

<g fill="none" stroke="#111111" stroke-opacity="1" stroke-width="1" stroke-linecap="square" stroke-linejoin="bevel" transform="matrix(0.833333,0,0,0.833333,575.714,878.333)"
font-family="Ubuntu" font-size="11.1111" font-weight="400" font-style="normal" 
>
</g>

<g fill="none" stroke="#111111" stroke-opacity="1" stroke-width="1" stroke-linecap="square" stroke-linejoin="bevel" transform="matrix(0.833333,0,0,0.833333,0,0)"
font-family="Ubuntu" font-size="11.1111" font-weight="400" font-style="normal" 
>
</g>

<g fill="none" stroke="#111111" stroke-opacity="1" stroke-width="1" stroke-linecap="square" stroke-linejoin="bevel" transform="matrix(0.833333,0,0,0.833333,756.003,878.333)"
font-family="Ubuntu" font-size="11.1111" font-weight="400" font-style="normal" 
>
</g>

<g fill="none" stroke="#111111" stroke-opacity="1" stroke-width="1" stroke-linecap="square" stroke-linejoin="bevel" transform="matrix(0.833333,0,0,0.833333,756.003,878.333)"
font-family="Ubuntu" font-size="13" font-weight="400" font-style="normal" 
>
</g>

<g fill="none" stroke="#111111" stroke-opacity="1" stroke-width="1" stroke-linecap="square" stroke-linejoin="bevel" transform="matrix(0.833333,0,0,0.833333,756.003,878.333)"
font-family="Ubuntu" font-size="13" font-weight="400" font-style="normal" 
>
</g>

<g fill="none" stroke="#111111" stroke-opacity="1" stroke-width="1" stroke-linecap="square" stroke-linejoin="bevel" transform="matrix(0.833333,0,0,0.833333,756.003,878.333)"
font-family="Ubuntu" font-size="13" font-weight="400" font-style="normal" 
>
<text fill="#111111" fill-opacity="1" stroke="none" xml:space="preserve" x="0" y="10" font-family="Ubuntu" font-size="13" font-weight="400" font-style="normal" 
 >15:57:00.0</text>
</g>

<g fill="none" stroke="#111111" stroke-opacity="1" stroke-width="1" stroke-linecap="square" stroke-linejoin="bevel" transform="matrix(0.833333,0,0,0.833333,756.003,878.333)"
font-family="Ubuntu" font-size="13" font-weight="400" font-style="normal" 
>
<text fill="#111111" fill-opacity="1" stroke="none" xml:space="preserve" x="0" y="25" font-family="Ubuntu" font-size="13" font-weight="400" font-style="normal" 
 >2024 Jul 10</text>
</g>

<g fill="none" stroke="#111111" stroke-opacity="1" stroke-width="1" stroke-linecap="square" stroke-linejoin="bevel" transform="matrix(0.833333,0,0,0.833333,756.003,878.333)"
font-family="Ubuntu" font-size="13" font-weight="400" font-style="normal" 
>
</g>

<g fill="none" stroke="#111111" stroke-opacity="1" stroke-width="1" stroke-linecap="square" stroke-linejoin="bevel" transform="matrix(0.833333,0,0,0.833333,756.003,878.333)"
font-family="Ubuntu" font-size="11.1111" font-weight="400" font-style="normal" 
>
</g>

<g fill="none" stroke="#111111" stroke-opacity="1" stroke-width="1" stroke-linecap="square" stroke-linejoin="bevel" transform="matrix(0.833333,0,0,0.833333,756.003,878.333)"
font-family="Ubuntu" font-size="11.1111" font-weight="400" font-style="normal" 
>
</g>

<g fill="none" stroke="#111111" stroke-opacity="1" stroke-width="1" stroke-linecap="square" stroke-linejoin="bevel" transform="matrix(0.833333,0,0,0.833333,0,0)"
font-family="Ubuntu" font-size="11.1111" font-weight="400" font-style="normal" 
>
</g>

<g fill="none" stroke="#111111" stroke-opacity="1" stroke-width="1" stroke-linecap="square" stroke-linejoin="bevel" transform="matrix(0.833333,0,0,0.833333,936.293,878.333)"
font-family="Ubuntu" font-size="11.1111" font-weight="400" font-style="normal" 
>
</g>

<g fill="none" stroke="#111111" stroke-opacity="1" stroke-width="1" stroke-linecap="square" stroke-linejoin="bevel" transform="matrix(0.833333,0,0,0.833333,936.293,878.333)"
font-family="Ubuntu" font-size="13" font-weight="400" font-style="normal" 
>
</g>

<g fill="none" stroke="#111111" stroke-opacity="1" stroke-width="1" stroke-linecap="square" stroke-linejoin="bevel" transform="matrix(0.833333,0,0,0.833333,936.293,878.333)"
font-family="Ubuntu" font-size="13" font-weight="400" font-style="normal" 
>
</g>

<g fill="none" stroke="#111111" stroke-opacity="1" stroke-width="1" stroke-linecap="square" stroke-linejoin="bevel" transform="matrix(0.833333,0,0,0.833333,936.293,878.333)"
font-family="Ubuntu" font-size="13" font-weight="400" font-style="normal" 
>
<text fill="#111111" fill-opacity="1" stroke="none" xml:space="preserve" x="0" y="10" font-family="Ubuntu" font-size="13" font-weight="400" font-style="normal" 
 >15:57:20.0</text>
</g>

<g fill="none" stroke="#111111" stroke-opacity="1" stroke-width="1" stroke-linecap="square" stroke-linejoin="bevel" transform="matrix(0.833333,0,0,0.833333,936.293,878.333)"
font-family="Ubuntu" font-size="13" font-weight="400" font-style="normal" 
>
<text fill="#111111" fill-opacity="1" stroke="none" xml:space="preserve" x="0" y="25" font-family="Ubuntu" font-size="13" font-weight="400" font-style="normal" 
 >2024 Jul 10</text>
</g>

<g fill="none" stroke="#111111" stroke-opacity="1" stroke-width="1" stroke-linecap="square" stroke-linejoin="bevel" transform="matrix(0.833333,0,0,0.833333,936.293,878.333)"
font-family="Ubuntu" font-size="13" font-weight="400" font-style="normal" 
>
</g>

<g fill="none" stroke="#111111" stroke-opacity="1" stroke-width="1" stroke-linecap="square" stroke-linejoin="bevel" transform="matrix(0.833333,0,0,0.833333,936.293,878.333)"
font-family="Ubuntu" font-size="11.1111" font-weight="400" font-style="normal" 
>
</g>

<g fill="none" stroke="#111111" stroke-opacity="1" stroke-width="1" stroke-linecap="square" stroke-linejoin="bevel" transform="matrix(0.833333,0,0,0.833333,936.293,878.333)"
font-family="Ubuntu" font-size="11.1111" font-weight="400" font-style="normal" 
>
</g>

<g fill="none" stroke="#111111" stroke-opacity="1" stroke-width="1" stroke-linecap="square" stroke-linejoin="bevel" transform="matrix(0.833333,0,0,0.833333,0,0)"
font-family="Ubuntu" font-size="11.1111" font-weight="400" font-style="normal" 
>
</g>

<g fill="none" stroke="#111111" stroke-opacity="1" stroke-width="1" stroke-linecap="square" stroke-linejoin="bevel" transform="matrix(0.833333,0,0,0.833333,1116.58,878.333)"
font-family="Ubuntu" font-size="11.1111" font-weight="400" font-style="normal" 
>
</g>

<g fill="none" stroke="#111111" stroke-opacity="1" stroke-width="1" stroke-linecap="square" stroke-linejoin="bevel" transform="matrix(0.833333,0,0,0.833333,1116.58,878.333)"
font-family="Ubuntu" font-size="13" font-weight="400" font-style="normal" 
>
</g>

<g fill="none" stroke="#111111" stroke-opacity="1" stroke-width="1" stroke-linecap="square" stroke-linejoin="bevel" transform="matrix(0.833333,0,0,0.833333,1116.58,878.333)"
font-family="Ubuntu" font-size="13" font-weight="400" font-style="normal" 
>
</g>

<g fill="none" stroke="#111111" stroke-opacity="1" stroke-width="1" stroke-linecap="square" stroke-linejoin="bevel" transform="matrix(0.833333,0,0,0.833333,1116.58,878.333)"
font-family="Ubuntu" font-size="13" font-weight="400" font-style="normal" 
>
<text fill="#111111" fill-opacity="1" stroke="none" xml:space="preserve" x="0" y="10" font-family="Ubuntu" font-size="13" font-weight="400" font-style="normal" 
 >15:57:40.0</text>
</g>

<g fill="none" stroke="#111111" stroke-opacity="1" stroke-width="1" stroke-linecap="square" stroke-linejoin="bevel" transform="matrix(0.833333,0,0,0.833333,1116.58,878.333)"
font-family="Ubuntu" font-size="13" font-weight="400" font-style="normal" 
>
<text fill="#111111" fill-opacity="1" stroke="none" xml:space="preserve" x="0" y="25" font-family="Ubuntu" font-size="13" font-weight="400" font-style="normal" 
 >2024 Jul 10</text>
</g>

<g fill="none" stroke="#111111" stroke-opacity="1" stroke-width="1" stroke-linecap="square" stroke-linejoin="bevel" transform="matrix(0.833333,0,0,0.833333,1116.58,878.333)"
font-family="Ubuntu" font-size="13" font-weight="400" font-style="normal" 
>
</g>

<g fill="none" stroke="#111111" stroke-opacity="1" stroke-width="1" stroke-linecap="square" stroke-linejoin="bevel" transform="matrix(0.833333,0,0,0.833333,1116.58,878.333)"
font-family="Ubuntu" font-size="11.1111" font-weight="400" font-style="normal" 
>
</g>

<g fill="none" stroke="#111111" stroke-opacity="1" stroke-width="1" stroke-linecap="square" stroke-linejoin="bevel" transform="matrix(0.833333,0,0,0.833333,1116.58,878.333)"
font-family="Ubuntu" font-size="11.1111" font-weight="400" font-style="normal" 
>
</g>

<g fill="none" stroke="#111111" stroke-opacity="1" stroke-width="1" stroke-linecap="square" stroke-linejoin="bevel" transform="matrix(0.833333,0,0,0.833333,0,0)"
font-family="Ubuntu" font-size="11.1111" font-weight="400" font-style="normal" 
>
</g>

<g fill="none" stroke="#000000" stroke-opacity="1" stroke-width="1" stroke-linecap="square" stroke-linejoin="bevel" transform="matrix(0.833333,0,0,0.833333,0,0)"
font-family="Ubuntu" font-size="11.1111" font-weight="400" font-style="normal" 
>
</g>

<g fill="none" stroke="#111111" stroke-opacity="1" stroke-width="1" stroke-linecap="butt" stroke-linejoin="bevel" transform="matrix(0.833333,0,0,0.833333,0,0)"
font-family="Ubuntu" font-size="11.1111" font-weight="400" font-style="normal" 
>
<polyline fill="none" vector-effect="non-scaling-stroke" points="129.635,1040.5 129.635,1045.7 " />
<polyline fill="none" vector-effect="non-scaling-stroke" points="237.809,1040.5 237.809,1045.7 " />
<polyline fill="none" vector-effect="non-scaling-stroke" points="345.983,1040.5 345.983,1045.7 " />
<polyline fill="none" vector-effect="non-scaling-stroke" points="454.157,1040.5 454.157,1045.7 " />
<polyline fill="none" vector-effect="non-scaling-stroke" points="562.33,1040.5 562.33,1045.7 " />
<polyline fill="none" vector-effect="non-scaling-stroke" points="670.504,1040.5 670.504,1045.7 " />
<polyline fill="none" vector-effect="non-scaling-stroke" points="778.678,1040.5 778.678,1045.7 " />
<polyline fill="none" vector-effect="non-scaling-stroke" points="886.851,1040.5 886.851,1045.7 " />
<polyline fill="none" vector-effect="non-scaling-stroke" points="995.025,1040.5 995.025,1045.7 " />
<polyline fill="none" vector-effect="non-scaling-stroke" points="1103.2,1040.5 1103.2,1045.7 " />
<polyline fill="none" vector-effect="non-scaling-stroke" points="1211.37,1040.5 1211.37,1045.7 " />
<polyline fill="none" vector-effect="non-scaling-stroke" points="1319.55,1040.5 1319.55,1045.7 " />
<polyline fill="none" vector-effect="non-scaling-stroke" points="1427.72,1040.5 1427.72,1045.7 " />
<polyline fill="none" vector-effect="non-scaling-stroke" points="183.722,1040.5 183.722,1047.7 " />
<polyline fill="none" vector-effect="non-scaling-stroke" points="400.07,1040.5 400.07,1047.7 " />
<polyline fill="none" vector-effect="non-scaling-stroke" points="616.417,1040.5 616.417,1047.7 " />
<polyline fill="none" vector-effect="non-scaling-stroke" points="832.765,1040.5 832.765,1047.7 " />
<polyline fill="none" vector-effect="non-scaling-stroke" points="1049.11,1040.5 1049.11,1047.7 " />
<polyline fill="none" vector-effect="non-scaling-stroke" points="1265.46,1040.5 1265.46,1047.7 " />
<polyline fill="none" vector-effect="non-scaling-stroke" points="75.5485,1040.5 75.5485,1049.7 " />
<polyline fill="none" vector-effect="non-scaling-stroke" points="291.896,1040.5 291.896,1049.7 " />
<polyline fill="none" vector-effect="non-scaling-stroke" points="508.243,1040.5 508.243,1049.7 " />
<polyline fill="none" vector-effect="non-scaling-stroke" points="724.591,1040.5 724.591,1049.7 " />
<polyline fill="none" vector-effect="non-scaling-stroke" points="940.938,1040.5 940.938,1049.7 " />
<polyline fill="none" vector-effect="non-scaling-stroke" points="1157.29,1040.5 1157.29,1049.7 " />
<polyline fill="none" vector-effect="non-scaling-stroke" points="1373.63,1040.5 1373.63,1049.7 " />
</g>

<g fill="none" stroke="#000000" stroke-opacity="1" stroke-width="1" stroke-linecap="square" stroke-linejoin="bevel" transform="matrix(0.833333,0,0,0.833333,0,0)"
font-family="Ubuntu" font-size="11.1111" font-weight="400" font-style="normal" 
>
</g>

<g fill="none" stroke="#111111" stroke-opacity="1" stroke-width="1" stroke-linecap="butt" stroke-linejoin="bevel" transform="matrix(0.833333,0,0,0.833333,0,0)"
font-family="Ubuntu" font-size="11.1111" font-weight="400" font-style="normal" 
>
<polyline fill="none" vector-effect="non-scaling-stroke" points="39,1040.6 1438,1040.6 " />
</g>

<g fill="none" stroke="#000000" stroke-opacity="1" stroke-width="1" stroke-linecap="square" stroke-linejoin="bevel" transform="matrix(0.833333,0,0,0.833333,0,0)"
font-family="Ubuntu" font-size="11.1111" font-weight="400" font-style="normal" 
>
</g>

<g fill="none" stroke="#000000" stroke-opacity="1" stroke-width="1" stroke-linecap="square" stroke-linejoin="bevel" transform="matrix(0.833333,0,0,0.833333,0,0)"
font-family="Ubuntu" font-size="11.1111" font-weight="400" font-style="normal" 
>
</g>

<g fill="none" stroke="#000000" stroke-opacity="1" stroke-width="1" stroke-linecap="square" stroke-linejoin="bevel" transform="matrix(0.833333,0,0,0.833333,0,0)"
font-family="Ubuntu" font-size="12.2222" font-weight="400" font-style="normal" 
>
</g>

<g fill="none" stroke="#000000" stroke-opacity="1" stroke-width="1" stroke-linecap="square" stroke-linejoin="bevel" transform="matrix(1,0,0,1,0,0)"
font-family="Ubuntu" font-size="12.2222" font-weight="400" font-style="normal" 
>
</g>
</g>
</svg>
