<?xml version="1.0" encoding="UTF-8" standalone="no"?>
<svg viewBox="0 0 1200 900"
 xmlns="http://www.w3.org/2000/svg" xmlns:xlink="http://www.w3.org/1999/xlink"  version="1.2" baseProfile="tiny">
<title>Qt SVG Document</title>
<desc>Generated with Qt</desc>
<defs>
</defs>
<g fill="none" stroke="black" stroke-width="1" fill-rule="evenodd" stroke-linecap="square" stroke-linejoin="bevel" >

<g fill="#ffffff" fill-opacity="1" stroke="none" transform="matrix(1,0,0,1,0,0)"
font-family="Ubuntu" font-size="12.2222" font-weight="400" font-style="normal" 
>
<rect x="0" y="0" width="1200" height="900"/>
</g>

<g fill="none" stroke="#000000" stroke-opacity="1" stroke-width="1" stroke-linecap="square" stroke-linejoin="bevel" transform="matrix(1,0,0,1,0,0)"
font-family="Ubuntu" font-size="12.2222" font-weight="400" font-style="normal" 
>
</g>

<g fill="none" stroke="#000000" stroke-opacity="1" stroke-width="1" stroke-linecap="square" stroke-linejoin="bevel" transform="matrix(0.833333,0,0,0.833333,0,0)"
font-family="Ubuntu" font-size="12.2222" font-weight="400" font-style="normal" 
>
</g>

<g fill="#ffffff" fill-opacity="1" stroke="none" transform="matrix(0.833333,0,0,0.833333,0,0)"
font-family="Ubuntu" font-size="12.2222" font-weight="400" font-style="normal" 
>
<rect x="38" y="0" width="1401" height="1038"/>
</g>

<g fill="none" stroke="#000000" stroke-opacity="1" stroke-width="1" stroke-linecap="square" stroke-linejoin="bevel" transform="matrix(0.833333,0,0,0.833333,0,0)"
font-family="Ubuntu" font-size="12.2222" font-weight="400" font-style="normal" 
>
</g>

<g fill="none" stroke="#000000" stroke-opacity="1" stroke-width="1" stroke-linecap="square" stroke-linejoin="bevel" transform="matrix(0.833333,0,0,0.833333,0,0)"
font-family="Ubuntu" font-size="12.2222" font-weight="400" font-style="normal" 
>
</g>

<g fill="none" stroke="#a0a0a4" stroke-opacity="1" stroke-dasharray="1,2" stroke-dashoffset="0" stroke-width="1" stroke-linecap="butt" stroke-linejoin="bevel" transform="matrix(0.833333,0,0,0.833333,0,0)"
font-family="Ubuntu" font-size="12.2222" font-weight="400" font-style="normal" 
>
<polyline fill="none" vector-effect="non-scaling-stroke" points="56.61,0 56.61,1038 " />
<polyline fill="none" vector-effect="non-scaling-stroke" points="160.349,0 160.349,1038 " />
<polyline fill="none" vector-effect="non-scaling-stroke" points="264.088,0 264.088,1038 " />
<polyline fill="none" vector-effect="non-scaling-stroke" points="367.827,0 367.827,1038 " />
<polyline fill="none" vector-effect="non-scaling-stroke" points="471.566,0 471.566,1038 " />
<polyline fill="none" vector-effect="non-scaling-stroke" points="575.305,0 575.305,1038 " />
<polyline fill="none" vector-effect="non-scaling-stroke" points="679.044,0 679.044,1038 " />
<polyline fill="none" vector-effect="non-scaling-stroke" points="782.782,0 782.782,1038 " />
<polyline fill="none" vector-effect="non-scaling-stroke" points="886.521,0 886.521,1038 " />
<polyline fill="none" vector-effect="non-scaling-stroke" points="990.26,0 990.26,1038 " />
<polyline fill="none" vector-effect="non-scaling-stroke" points="1094,0 1094,1038 " />
<polyline fill="none" vector-effect="non-scaling-stroke" points="1197.74,0 1197.74,1038 " />
<polyline fill="none" vector-effect="non-scaling-stroke" points="1301.48,0 1301.48,1038 " />
<polyline fill="none" vector-effect="non-scaling-stroke" points="1405.22,0 1405.22,1038 " />
<polyline fill="none" vector-effect="non-scaling-stroke" points="212.218,0 212.218,1038 " />
<polyline fill="none" vector-effect="non-scaling-stroke" points="419.696,0 419.696,1038 " />
<polyline fill="none" vector-effect="non-scaling-stroke" points="627.174,0 627.174,1038 " />
<polyline fill="none" vector-effect="non-scaling-stroke" points="834.652,0 834.652,1038 " />
<polyline fill="none" vector-effect="non-scaling-stroke" points="1042.13,0 1042.13,1038 " />
<polyline fill="none" vector-effect="non-scaling-stroke" points="1249.61,0 1249.61,1038 " />
<polyline fill="none" vector-effect="non-scaling-stroke" points="38,979.618 1439,979.618 " />
<polyline fill="none" vector-effect="non-scaling-stroke" points="38,946.654 1439,946.654 " />
<polyline fill="none" vector-effect="non-scaling-stroke" points="38,913.69 1439,913.69 " />
<polyline fill="none" vector-effect="non-scaling-stroke" points="38,880.726 1439,880.726 " />
<polyline fill="none" vector-effect="non-scaling-stroke" points="38,814.797 1439,814.797 " />
<polyline fill="none" vector-effect="non-scaling-stroke" points="38,781.833 1439,781.833 " />
<polyline fill="none" vector-effect="non-scaling-stroke" points="38,748.869 1439,748.869 " />
<polyline fill="none" vector-effect="non-scaling-stroke" points="38,715.905 1439,715.905 " />
<polyline fill="none" vector-effect="non-scaling-stroke" points="38,649.977 1439,649.977 " />
<polyline fill="none" vector-effect="non-scaling-stroke" points="38,617.012 1439,617.012 " />
<polyline fill="none" vector-effect="non-scaling-stroke" points="38,584.048 1439,584.048 " />
<polyline fill="none" vector-effect="non-scaling-stroke" points="38,551.084 1439,551.084 " />
<polyline fill="none" vector-effect="non-scaling-stroke" points="38,485.156 1439,485.156 " />
<polyline fill="none" vector-effect="non-scaling-stroke" points="38,452.192 1439,452.192 " />
<polyline fill="none" vector-effect="non-scaling-stroke" points="38,419.228 1439,419.228 " />
<polyline fill="none" vector-effect="non-scaling-stroke" points="38,386.263 1439,386.263 " />
<polyline fill="none" vector-effect="non-scaling-stroke" points="38,320.335 1439,320.335 " />
<polyline fill="none" vector-effect="non-scaling-stroke" points="38,287.371 1439,287.371 " />
<polyline fill="none" vector-effect="non-scaling-stroke" points="38,254.407 1439,254.407 " />
<polyline fill="none" vector-effect="non-scaling-stroke" points="38,221.443 1439,221.443 " />
<polyline fill="none" vector-effect="non-scaling-stroke" points="38,155.514 1439,155.514 " />
<polyline fill="none" vector-effect="non-scaling-stroke" points="38,122.55 1439,122.55 " />
<polyline fill="none" vector-effect="non-scaling-stroke" points="38,89.5859 1439,89.5859 " />
<polyline fill="none" vector-effect="non-scaling-stroke" points="38,56.6218 1439,56.6218 " />
<polyline fill="none" vector-effect="non-scaling-stroke" points="108.479,0 108.479,1038 " />
<polyline fill="none" vector-effect="non-scaling-stroke" points="315.957,0 315.957,1038 " />
<polyline fill="none" vector-effect="non-scaling-stroke" points="523.435,0 523.435,1038 " />
<polyline fill="none" vector-effect="non-scaling-stroke" points="730.913,0 730.913,1038 " />
<polyline fill="none" vector-effect="non-scaling-stroke" points="938.391,0 938.391,1038 " />
<polyline fill="none" vector-effect="non-scaling-stroke" points="1145.87,0 1145.87,1038 " />
<polyline fill="none" vector-effect="non-scaling-stroke" points="1353.35,0 1353.35,1038 " />
<polyline fill="none" vector-effect="non-scaling-stroke" points="38,1012.58 1439,1012.58 " />
<polyline fill="none" vector-effect="non-scaling-stroke" points="38,847.762 1439,847.762 " />
<polyline fill="none" vector-effect="non-scaling-stroke" points="38,682.941 1439,682.941 " />
<polyline fill="none" vector-effect="non-scaling-stroke" points="38,518.12 1439,518.12 " />
<polyline fill="none" vector-effect="non-scaling-stroke" points="38,353.299 1439,353.299 " />
<polyline fill="none" vector-effect="non-scaling-stroke" points="38,188.478 1439,188.478 " />
<polyline fill="none" vector-effect="non-scaling-stroke" points="38,23.6576 1439,23.6576 " />
</g>

<g fill="none" stroke="#000000" stroke-opacity="1" stroke-width="1" stroke-linecap="square" stroke-linejoin="bevel" transform="matrix(0.833333,0,0,0.833333,0,0)"
font-family="Ubuntu" font-size="12.2222" font-weight="400" font-style="normal" 
>
</g>

<g fill="none" stroke="#000000" stroke-opacity="1" stroke-width="1" stroke-linecap="square" stroke-linejoin="bevel" transform="matrix(0.833333,0,0,0.833333,0,0)"
font-family="Ubuntu" font-size="12.2222" font-weight="400" font-style="normal" 
>
</g>

<g fill="none" stroke="#d62728" stroke-opacity="1" stroke-width="1.3" stroke-linecap="square" stroke-linejoin="bevel" transform="matrix(0.833333,0,0,0.833333,0,0)"
font-family="Ubuntu" font-size="12.2222" font-weight="400" font-style="normal" 
>
<polyline fill="none" vector-effect="none" points="39,516.289 39.596,516.289 40.2214,516.289 40.7395,516.292 41.3601,516.292 41.8799,516.292 42.5012,516.289 43.0198,516.289 43.5396,516.289 44.1614,516.289 44.6784,516.289 45.1981,516.289 45.8196,516.289 46.3394,516.289 46.9628,516.289 47.4812,516.289 48.103,516.289 48.6222,516.289 49.1401,516.289 49.7648,516.289 50.2817,516.289 50.9046,516.289 51.4232,516.289 51.9429,516.289 52.4599,516.292 53.0826,516.289 53.6037,516.289 54.122,516.289 54.6405,516.289 55.1583,516.289 55.7805,516.289 56.3005,516.289 56.9231,516.292 57.441,516.289 57.9625,516.289 58.5834,516.292 59.0987,516.289 59.7217,516.292 60.242,516.289 60.8666,516.292 61.3821,516.292 61.9011,516.289 62.4224,516.289 62.9387,516.289 63.4579,516.289 63.9768,516.289 64.599,516.289 65.1193,516.292 65.7398,516.292 66.3632,516.292 66.8823,516.289 67.4023,516.289 67.9197,516.289 68.4378,516.289 69.0611,516.289 69.5791,516.289 70.0951,516.289 70.7219,516.289 71.2401,516.289 71.8617,516.289 72.3811,516.292 72.8996,516.289 73.4183,516.289 74.0417,516.292 74.5592,516.289 75.0764,516.289 75.5967,516.289 76.219,516.289 76.7368,516.292 77.256,516.289 77.772,516.292 78.3981,516.289 78.9145,516.289 79.5394,516.289 80.0582,516.289 80.5745,516.289 81.0957,516.289 81.7181,516.292 82.2356,516.289 82.7525,516.289 83.3748,516.292 83.8955,516.289 84.4136,516.292 84.9322,516.289 85.4517,516.289 85.9691,516.289 86.4884,516.292 87.1127,516.289 87.7331,516.289 88.2546,516.292 88.771,516.289 89.2906,516.289 89.9103,516.289 90.4327,516.289 91.0532,516.292 91.5732,516.292 92.1958,516.289 92.7113,516.289 93.2328,516.289 93.8554,516.292 94.3758,516.292 94.9967,516.292 95.5149,516.289 96.0316,516.289 96.5513,516.292 97.1738,516.292 97.6941,516.289 98.2113,516.289 98.7298,516.289 99.3531,516.292 99.8723,516.289 100.495,516.289 101.012,516.292 101.532,516.292 102.155,516.292 102.673,516.289 103.192,516.289 103.815,516.292 104.334,516.292 104.851,516.289 105.473,516.292 105.994,516.289 106.615,516.289 107.135,516.289 107.756,516.289 108.274,516.292 108.897,516.289 109.417,516.289 109.936,516.289 110.455,516.289 110.974,516.289 111.49,516.289 112.01,516.289 112.633,516.289 113.048,516.289 113.671,516.289 114.082,516.289 114.707,516.289 115.228,516.289 115.742,516.292 116.366,516.292 116.885,516.292 117.405,516.289 117.923,516.289 118.547,516.289 119.17,516.289 119.686,516.289 120.205,516.292 120.724,516.289 121.242,516.289 121.866,516.289 122.489,516.289 123.005,516.289 123.626,516.289 124.147,516.289 124.665,516.292 125.289,516.289 125.806,516.289 126.326,516.292 126.846,516.289 127.362,516.292 127.984,516.292 128.504,516.292 129.126,516.289 129.643,516.289 130.265,516.317 130.787,516.684 131.303,517.868 131.927,520.576 132.447,524.711 133.069,530.47 133.691,536.981 134.21,546.011 134.731,554.247 135.351,564.186 135.869,576.803 136.389,588.645 136.905,601.389 137.53,614.785 138.048,628.782 138.567,642.243 139.084,657.281 139.604,673.854 140.224,691.993 140.848,707.91 141.369,723.91 141.887,740.023 142.508,757.25 143.026,774.336 143.545,789.921 144.273,807.56 144.79,823.628 145.308,838.069 145.827,852.062 146.452,865.451 146.97,879.214 147.593,893.27 148.318,906.417 148.837,918.691 149.355,928.645 149.978,937.89 150.498,946.529 151.016,955.02 151.638,962.173 152.157,968.767 152.781,975.635 153.298,980.986 153.921,986.151 154.44,990.313 155.064,994.311 155.58,997.493 156.1,1000.34 156.724,1003.1 157.238,1005.2 157.759,1006.92 158.381,1008.51 158.901,1009.71 159.521,1010.79 160.146,1011.59 160.665,1012.03 161.285,1012.33 161.909,1012.33 162.426,1012.12 162.946,1011.7 163.465,1011.12 164.087,1010.63 164.604,1010.19 165.02,1009.88 165.54,1009.5 166.162,1009.08 166.783,1008.62 167.302,1008.15 167.82,1007.74 168.339,1007.37 168.96,1006.89 169.481,1006.43 170.103,1006 170.621,1005.62 171.245,1005.12 171.763,1004.65 172.386,1004.23 173.006,1003.72 173.529,1003.22 174.151,1002.86 174.564,1002.47 175.189,1002.01 175.602,1001.57 176.119,1001.19 176.743,1000.75 177.366,1000.2 177.886,999.788 178.403,999.384 179.027,998.967 179.542,998.482 180.062,998.057 180.581,997.711 181.099,997.294 181.826,996.777 182.344,996.256 182.967,995.845 183.485,995.327 184.005,994.913 184.627,994.49 185.146,994.097 185.768,993.565 186.494,993.04 186.91,992.716 187.426,992.259 188.052,991.742 188.57,991.344 189.089,990.913 189.711,990.499 190.125,990.031 190.748,989.63 191.267,989.22 191.89,988.652 192.512,988.176 193.031,987.812 193.548,987.376 194.067,986.908 194.585,986.487 195.208,986.117 195.729,985.631 196.349,985.113 196.972,984.64 197.596,984.254 198.113,983.695 198.634,983.273 199.255,982.903 199.773,982.463 200.396,981.882 201.018,981.433 201.639,981.001 202.158,980.509 202.782,980.017 203.406,979.581 203.923,979.198 204.442,978.726 204.961,978.289 205.583,977.876 205.995,977.485 206.621,976.945 207.242,976.551 207.657,976.205 208.176,975.75 208.8,975.241 209.422,974.765 209.94,974.356 210.562,973.899 211.082,973.421 211.599,973.034 212.221,972.596 212.741,972.062 213.363,971.615 213.88,971.226 214.503,970.768 215.023,970.254 215.644,969.849 216.269,969.416 216.681,968.982 217.199,968.571 217.719,968.154 218.341,967.692 218.86,967.206 219.378,966.805 220.002,966.441 220.521,965.935 221.143,965.494 221.557,965.076 222.181,964.69 222.699,964.212 223.216,963.74 223.839,963.308 224.36,962.92 224.981,962.415 225.502,961.925 226.123,961.553 226.64,961.141 227.16,960.611 227.782,960.162 228.303,959.759 228.819,959.329 229.441,958.835 230.067,958.346 230.584,957.977 231.207,957.444 231.725,957.009 232.348,956.547 232.971,956.132 233.49,955.633 234.007,955.21 234.526,954.824 235.148,954.396 235.666,953.928 236.187,953.485 236.912,953.035 237.43,952.482 238.052,951.964 238.677,951.6 239.091,951.215 239.713,950.644 240.335,950.227 240.853,949.833 241.372,949.377 241.994,948.843 242.513,948.474 243.136,948.002 243.654,947.542 244.173,947.092 244.795,946.661 245.316,946.254 245.939,945.791 246.455,945.308 247.079,944.894 247.598,944.458 248.116,944.002 248.739,943.536 249.362,943.109 249.878,942.63 250.396,942.167 251.02,941.773 251.538,941.323 252.056,940.842 252.682,940.401 253.199,940.035 253.718,939.605 254.34,939.082 254.86,938.667 255.482,938.285 255.896,937.847 256.518,937.292 257.141,936.879 257.763,936.43 258.385,935.893 258.8,935.48 259.319,935.119 259.943,934.62 260.566,934.138 261.083,933.725 261.601,933.314 262.224,932.832 262.847,932.325 263.366,931.973 263.883,931.545 264.507,930.998 265.129,930.484 265.751,930.08 266.271,929.65 266.789,929.165 267.308,928.749 267.93,928.373 268.448,927.918 268.864,927.522 269.382,927.095 269.899,926.713 270.523,926.281 271.041,925.801 271.559,925.363 272.183,924.936 272.703,924.502 273.219,923.998 273.844,923.589 274.361,923.182 274.88,922.701 275.504,922.249 276.022,921.88 276.54,921.454 277.058,920.969 277.577,920.537 278.201,920.151 278.719,919.722 279.342,919.168 279.962,918.733 280.482,918.306 281.107,917.829 281.625,917.392 282.247,916.979 282.764,916.559 283.281,916.05 283.801,915.618 284.423,915.252 284.944,914.762 285.567,914.289 286.083,913.892 286.706,913.468 287.226,913.014 287.745,912.508 288.365,912.085 288.886,911.696 289.403,911.214 290.028,910.712 290.649,910.288 291.271,909.786 291.792,909.305 292.31,908.898 292.829,908.515 293.451,908.057 293.969,907.516 294.59,907.105 295.111,906.699 295.734,906.193 296.251,905.734 296.871,905.306 297.392,904.861 298.016,904.376 298.636,903.939 299.154,903.517 299.674,903.086 300.192,902.585 300.712,902.245 301.229,901.843 301.852,901.322 302.372,900.889 302.89,900.492 303.513,900.085 304.134,899.559 304.549,899.172 305.172,898.745 305.796,898.292 306.314,897.773 306.832,897.361 307.453,896.914 308.077,896.384 308.595,895.927 309.219,895.506 309.736,895.057 310.359,894.574 310.879,894.147 311.501,893.738 312.02,893.294 312.641,892.743 313.16,892.361 313.784,891.933 314.301,891.462 314.924,890.98 315.341,890.621 315.961,890.123 316.585,889.578 317.206,889.149 317.829,888.738 318.346,888.248 318.864,887.747 319.384,887.404 320.008,886.965 320.526,886.49 321.045,886.148 321.562,885.721 322.082,885.317 322.602,884.824 323.122,884.39 323.637,884.049 324.261,883.557 324.882,883.037 325.404,882.655 326.024,882.223 326.544,881.759 327.062,881.286 327.579,880.881 328.098,880.5 328.721,880.023 329.344,879.478 329.967,879.099 330.483,878.638 331.004,878.135 331.626,877.654 332.145,877.281 332.664,876.857 333.181,876.377 333.804,875.928 334.321,875.573 334.944,875.108 335.464,874.586 335.982,874.223 336.5,873.848 337.124,873.333 337.642,872.871 338.267,872.445 338.887,871.955 339.407,871.473 339.927,871.052 340.444,870.67 341.067,870.224 341.584,869.752 342.206,869.313 342.724,868.92 343.35,868.395 343.867,867.949 344.386,867.569 344.905,867.151 345.422,866.678 345.941,866.252 346.563,865.847 347.082,865.445 347.602,864.949 348.119,864.551 348.64,864.19 349.264,863.728 349.888,863.23 350.299,862.808 350.817,862.444 351.44,862 351.96,861.526 352.477,861.125 353.099,860.701 353.62,860.233 354.24,859.766 354.76,859.337 355.278,858.956 355.901,858.464 356.421,857.99 356.939,857.611 357.459,857.191 357.976,856.698 358.598,856.22 359.117,855.866 359.635,855.441 360.259,854.95 360.881,854.522 361.503,854.106 361.918,853.589 362.543,853.114 363.163,852.692 363.787,852.242 364.199,851.768 364.717,851.347 365.341,850.967 365.965,850.5 366.484,849.983 367,849.552 367.624,849.158 368.142,848.651 368.659,848.223 369.283,847.857 369.698,847.443 370.32,846.924 370.839,846.477 371.465,846.074 372.086,845.566 372.604,845.118 373.017,844.737 373.64,844.36 374.161,843.942 374.678,843.434 375.197,843.029 375.818,842.586 376.441,842.166 376.857,841.711 377.478,841.31 377.996,840.911 378.516,840.414 379.139,839.926 379.656,839.547 380.28,839.042 380.8,838.59 381.42,838.164 381.941,837.788 382.458,837.346 383.185,836.805 383.705,836.361 384.326,835.935 384.843,835.423 385.363,834.952 385.989,834.551 386.607,834.042 387.126,833.572 387.645,833.149 388.268,832.721 388.891,832.164 389.514,831.649 390.135,831.228 390.652,830.766 391.173,830.339 391.689,829.895 392.313,829.519 392.832,829.077 393.35,828.615 393.87,828.188 394.494,827.815 395.01,827.374 395.53,826.902 396.152,826.451 396.672,826.057 397.292,825.544 397.915,825.027 398.434,824.63 399.057,824.166 399.575,823.65 400.095,823.273 400.715,822.857 401.338,822.347 401.962,821.866 402.376,821.487 402.893,821.076 403.516,820.611 404.14,820.123 404.553,819.744 405.175,819.284 405.798,818.752 406.421,818.276 406.94,817.903 407.563,817.369 408.08,816.904 408.705,816.498 409.223,816.058 409.948,815.502 410.466,815.036 410.986,814.664 411.608,814.15 412.127,813.662 412.749,813.263 413.475,812.752 414.098,812.24 414.62,811.771 415.031,811.422 415.757,810.907 416.278,810.391 416.901,809.993 417.521,809.555 417.936,809.094 418.561,808.621 419.077,808.228 419.698,807.77 420.22,807.314 420.737,806.87 421.359,806.435 421.984,805.944 422.502,805.453 423.123,805.035 423.747,804.573 424.37,804.037 424.783,803.62 425.301,803.248 425.924,802.803 426.444,802.319 427.069,801.854 427.69,801.479 428.103,801.041 428.727,800.53 429.244,800.13 429.762,799.738 430.489,799.161 431.112,798.647 431.732,798.223 432.251,797.758 432.877,797.203 433.499,796.78 434.016,796.371 434.638,795.881 435.158,795.385 435.782,794.969 436.405,794.483 436.92,793.974 437.545,793.555 438.064,793.18 438.58,792.723 439.1,792.255 439.723,791.835 440.242,791.489 440.759,790.979 441.277,790.499 441.9,790.075 442.524,789.635 443.041,789.151 443.768,788.614 444.389,788.175 444.91,787.715 445.533,787.251 445.947,786.852 446.464,786.486 447.087,785.979 447.71,785.534 448.23,785.137 448.748,784.723 449.267,784.186 449.784,783.768 450.406,783.357 450.926,782.901 451.445,782.434 452.067,782.016 452.589,781.598 453.21,781.094 453.725,780.604 454.35,780.233 454.871,779.819 455.388,779.312 456.009,778.869 456.53,778.495 457.15,778.011 457.668,777.499 458.291,777.079 458.814,776.694 459.329,776.255 459.95,775.745 460.47,775.31 461.094,774.892 461.715,774.292 462.337,773.847 462.961,773.455 463.478,773 464.001,772.527 464.62,772.059 465.138,771.67 465.657,771.172 466.279,770.709 466.797,770.31 467.422,769.917 467.835,769.415 468.457,768.979 468.979,768.582 469.495,768.171 470.118,767.659 470.64,767.243 471.155,766.871 471.779,766.393 472.296,765.929 472.814,765.51 473.436,765.069 474.059,764.591 474.578,764.059 475.201,763.652 475.823,763.203 476.341,762.694 476.755,762.368 477.275,761.996 477.897,761.548 478.417,761.08 479.039,760.62 479.454,760.249 480.075,759.796 480.596,759.331 481.114,758.917 481.634,758.57 482.255,758.017 482.773,757.533 483.396,757.162 483.915,756.776 484.433,756.272 485.056,755.788 485.575,755.435 486.197,754.937 486.821,754.41 487.338,753.985 487.961,753.596 488.375,753.138 488.998,752.629 489.621,752.192 490.139,751.774 490.659,751.298 491.176,750.876 491.8,750.462 492.422,749.975 492.94,749.514 493.459,749.079 493.978,748.733 494.497,748.283 495.119,747.794 495.742,747.326 496.261,746.942 496.779,746.464 497.4,746.005 497.92,745.567 498.44,745.182 498.956,744.716 499.579,744.233 500.202,743.82 500.722,743.407 501.344,742.877 501.862,742.466 502.385,742.077 503.004,741.664 503.419,741.201 504.042,740.737 504.663,740.283 505.18,739.805 505.805,739.275 506.322,738.948 506.84,738.49 507.464,737.964 507.983,737.545 508.605,737.111 509.228,736.63 509.746,736.149 510.369,735.729 510.99,735.322 511.511,734.798 512.028,734.335 512.547,733.962 513.171,733.509 513.688,733.029 514.206,732.612 514.83,732.243 515.347,731.794 515.869,731.31 516.386,730.897 517.008,730.529 517.423,730.052 518.047,729.568 518.565,729.18 519.187,728.724 519.705,728.261 520.326,727.777 520.846,727.382 521.364,726.95 521.987,726.453 522.608,725.986 523.13,725.595 523.646,725.125 524.167,724.66 524.788,724.268 525.306,723.856 525.826,723.38 526.449,722.893 526.967,722.509 527.486,722.124 528.003,721.618 528.627,721.199 529.146,720.9 529.56,720.452 530.286,719.946 530.805,719.463 531.429,719.025 531.945,718.55 532.465,718.09 532.982,717.682 533.607,717.251 534.228,716.749 534.748,716.305 535.265,715.944 535.784,715.553 536.302,715.058 536.822,714.64 537.446,714.202 537.963,713.774 538.482,713.316 538.999,712.903 539.624,712.509 540.142,712.122 540.659,711.597 541.282,711.186 541.801,710.816 542.32,710.301 542.943,709.843 543.462,709.433 543.979,709.026 544.603,708.456 545.224,707.975 545.847,707.578 546.365,707.1 546.99,706.606 547.506,706.21 548.025,705.821 548.647,705.28 549.269,704.797 549.789,704.407 550.307,703.991 550.93,703.493 551.448,703.056 551.969,702.705 552.696,702.187 553.108,701.664 553.731,701.251 554.25,700.859 554.769,700.406 555.392,699.882 555.91,699.492 556.533,699.038 557.156,698.542 557.777,698.083 558.193,697.714 558.815,697.283 559.333,696.763 559.957,696.351 560.477,695.962 560.994,695.512 561.514,695.035 562.136,694.599 562.652,694.211 563.173,693.755 563.691,693.323 564.209,692.908 564.728,692.499 565.35,692.025 565.869,691.586 566.387,691.198 566.907,690.789 567.529,690.33 568.047,689.848 568.67,689.463 569.19,689.051 569.707,688.571 570.329,688.089 570.85,687.727 571.366,687.296 571.988,686.709 572.507,686.32 573.235,685.864 573.649,685.369 574.273,684.918 574.893,684.523 575.415,684.071 575.931,683.548 576.658,683.09 577.176,682.662 577.8,682.099 578.42,681.593 578.941,681.223 579.563,680.794 580.08,680.275 580.704,679.816 581.119,679.5 581.638,679.066 582.26,678.543 582.884,678.153 583.401,677.718 583.92,677.243 584.544,676.786 585.06,676.349 585.683,675.924 586.201,675.446 586.928,674.928 587.342,674.535 587.966,674.103 588.485,673.652 589.004,673.241 589.625,672.837 590.04,672.386 590.663,671.869 591.285,671.455 591.806,671.094 592.322,670.62 592.842,670.186 593.463,669.766 593.981,669.269 594.604,668.775 595.124,668.334 595.746,667.947 596.264,667.497 596.784,667.016 597.301,666.627 597.925,666.199 598.446,665.727 598.961,665.27 599.585,664.856 600.103,664.493 600.621,664.002 601.243,663.545 601.766,663.153 602.281,662.705 602.904,662.182 603.424,661.746 604.046,661.34 604.563,660.872 605.082,660.393 605.705,659.956 606.327,659.551 606.848,659.077 607.469,658.53 608.09,658.137 608.61,657.691 609.232,657.144 609.857,656.732 610.373,656.32 610.894,655.824 611.517,655.308 612.032,654.979 612.552,654.573 613.07,654.127 613.592,653.668 614.11,653.285 614.73,652.876 615.25,652.359 615.873,651.903 616.391,651.492 617.012,651.043 617.531,650.524 618.049,650.091 618.671,649.726 619.294,649.233 619.709,648.804 620.229,648.416 620.852,647.989 621.369,647.495 621.89,647.06 622.514,646.648 623.029,646.178 623.652,645.7 624.171,645.311 624.691,644.943 625.209,644.496 625.727,644.004 626.349,643.561 626.971,643.109 627.491,642.62 628.115,642.161 628.633,641.794 629.151,641.386 629.667,640.867 630.29,640.392 630.81,640.027 631.432,639.541 632.158,638.996 632.572,638.608 633.093,638.268 633.609,637.822 634.129,637.321 634.75,636.846 635.27,636.478 635.893,635.967 636.413,635.532 636.931,635.188 637.551,634.729 638.072,634.24 638.59,633.806 639.212,633.372 639.836,632.9 640.356,632.425 640.979,631.974 641.494,631.587 642.014,631.136 642.531,630.704 643.052,630.273 643.674,629.89 644.192,629.398 644.711,628.921 645.436,628.525 645.853,628.104 646.474,627.586 646.994,627.155 647.617,626.75 648.135,626.28 648.757,625.757 649.277,625.349 649.793,624.966 650.314,624.495 650.935,624.041 651.454,623.625 651.972,623.221 652.597,622.706 653.112,622.252 653.737,621.886 654.256,621.415 654.879,620.889 655.395,620.477 656.018,620.078 656.537,619.585 657.055,619.126 657.678,618.698 658.199,618.297 658.715,617.822 659.337,617.385 659.752,617.001 660.375,616.597 660.896,616.148 661.411,615.671 662.034,615.307 662.554,614.879 663.072,614.361 663.696,613.909 664.216,613.525 664.732,613.06 665.251,612.603 665.875,612.196 666.392,611.789 667.015,611.255 667.537,610.777 668.259,610.32 668.779,609.872 669.297,609.372 669.92,608.945 670.437,608.536 671.061,608.043 671.684,607.544 672.203,607.178 672.823,606.734 673.344,606.233 673.967,605.8 674.381,605.415 674.899,604.991 675.52,604.472 676.144,604.061 676.665,603.613 677.286,603.145 677.804,602.666 678.323,602.259 678.945,601.834 679.568,601.317 680.085,600.839 680.605,600.47 681.227,600.028 681.746,599.508 682.266,599.098 682.889,598.714 683.405,598.241 684.027,597.724 684.547,597.314 685.065,596.961 685.585,596.465 686.208,596.011 686.725,595.642 687.245,595.24 687.765,594.773 688.386,594.313 688.904,593.947 689.421,593.482 690.045,592.946 690.566,592.536 691.082,592.126 691.704,591.698 692.226,591.226 692.741,590.775 693.365,590.392 693.883,589.921 694.402,589.424 694.922,589.064 695.545,588.654 696.061,588.163 696.684,587.73 697.099,587.347 697.825,586.857 698.345,586.324 698.862,585.954 699.486,585.547 700.003,585.057 700.524,584.581 701.146,584.15 701.663,583.767 702.286,583.256 702.804,582.804 703.322,582.434 703.946,581.923 704.568,581.401 705.088,580.989 705.71,580.582 706.332,580.071 706.85,579.555 707.368,579.168 707.993,578.764 708.509,578.266 709.029,577.815 709.652,577.406 710.171,576.986 710.793,576.51 711.207,576.097 711.83,575.69 712.348,575.244 712.868,574.771 713.489,574.384 714.009,574.001 714.422,573.58 715.046,573.082 715.564,572.692 716.084,572.291 716.708,571.842 717.224,571.325 717.745,570.96 718.365,570.556 718.884,570.086 719.405,569.608 720.026,569.181 720.543,568.717 721.168,568.195 721.686,567.786 722.311,567.375 722.933,566.843 723.554,566.37 724.071,565.963 724.486,565.58 725.107,565.085 725.627,564.632 726.251,564.226 726.768,563.776 727.39,563.303 727.912,562.874 728.534,562.404 729.051,561.957 729.571,561.502 730.194,561.14 730.71,560.69 731.334,560.174 731.854,559.742 732.477,559.292 733.099,558.797 733.615,558.333 734.134,557.921 734.758,557.492 735.275,557.042 735.794,556.576 736.312,556.186 736.833,555.866 737.351,555.422 737.869,554.927 738.387,554.538 738.906,554.155 739.531,553.645 740.047,553.173 740.565,552.804 741.188,552.404 741.707,551.937 742.226,551.439 742.848,551.033 743.367,550.623 743.989,550.108 744.508,549.678 745.026,549.339 745.545,548.895 746.169,548.351 746.687,547.965 747.205,547.582 747.83,547.072 748.453,546.574 748.968,546.185 749.488,545.762 750.11,545.273 750.63,544.841 751.148,544.431 751.771,543.938 752.394,543.446 752.91,543.037 753.429,542.654 753.948,542.187 754.57,541.689 755.09,541.326 755.712,540.877 756.23,540.388 756.75,539.896 757.373,539.506 757.997,539.037 758.514,538.522 759.136,538.09 759.757,537.641 760.277,537.198 760.795,536.716 761.419,536.287 761.936,535.844 762.56,535.349 763.077,534.894 763.699,534.485 764.322,533.995 764.843,533.523 765.36,533.134 765.983,532.685 766.501,532.193 767.018,531.741 767.642,531.354 768.162,530.951 768.679,530.462 769.199,530.05 769.717,529.667 770.34,529.264 770.859,528.749 771.481,528.277 771.998,527.893 772.517,527.424 773.143,526.953 773.66,526.543 774.179,526.16 774.696,525.714 775.318,525.243 775.84,524.84 776.356,524.434 776.979,523.922 777.499,523.467 778.016,523.084 778.535,522.724 779.159,522.209 779.675,521.774 780.194,521.347 780.817,520.921 781.335,520.429 781.854,519.997 782.478,519.588 783.099,519.099 783.723,518.601 784.138,518.238 784.76,517.765 785.277,517.293 785.799,516.862 786.523,516.455 786.937,516.018 787.456,515.529 788.183,515.051 788.703,514.622 789.218,514.156 789.842,513.681 790.362,513.272 790.879,512.869 791.502,512.379 792.022,511.904 792.645,511.512 793.162,511.072 793.787,510.58 794.305,510.165 794.822,509.782 795.343,509.359 795.86,508.823 796.481,508.388 797.003,508.005 797.623,507.496 798.246,507.035 798.765,506.652 799.388,506.229 799.905,505.717 800.531,505.196 801.047,504.813 801.669,504.344 802.188,503.852 802.81,503.423 803.328,502.973 803.951,502.528 804.471,502.076 804.988,501.693 805.51,501.263 806.129,500.774 806.647,500.273 807.166,499.93 807.79,499.481 808.413,498.945 809.035,498.487 809.552,498.04 810.174,497.571 810.695,497.116 811.213,496.75 811.733,496.347 812.25,495.832 812.873,495.4 813.391,494.973 814.015,494.507 814.532,494.032 815.154,493.6 815.777,493.151 816.299,492.659 816.921,492.189 817.437,491.844 818.061,491.36 818.579,490.888 819.097,490.413 819.72,490.024 820.342,489.555 820.862,489.062 821.484,488.604 822.106,488.155 822.623,487.665 823.143,487.187 823.765,486.737 824.491,486.245 825.01,485.726 825.632,485.231 826.257,484.802 826.774,484.312 827.395,483.837 827.918,483.471 828.538,483.048 828.953,482.575 829.574,482.129 830.093,481.763 830.613,481.319 831.236,480.865 831.753,480.395 832.376,479.969 832.998,479.414 833.519,478.955 834.036,478.593 834.554,478.172 835.073,477.725 835.799,477.241 836.317,476.809 836.836,476.345 837.459,475.847 837.977,475.458 838.6,475.031 839.119,474.561 839.637,474.089 840.154,473.682 840.572,473.408 841.194,472.899 841.71,472.446 842.23,472.057 842.855,471.614 843.479,471.097 844.097,470.596 844.615,470.236 845.136,469.792 845.654,469.316 846.173,468.931 846.797,468.55 847.314,468.081 847.834,467.608 848.351,467.199 848.974,466.815 849.492,466.302 850.01,465.85 850.529,465.503 851.048,465.121 851.568,464.631 852.19,464.161 852.709,463.795 853.227,463.391 853.744,462.918 854.37,462.443 854.887,462.019 855.509,461.569 856.028,461.117 856.546,460.707 857.066,460.307 857.689,459.837 858.309,459.318 858.831,458.932 859.348,458.548 859.867,458.078 860.384,457.605 860.905,457.218 861.527,456.752 862.043,456.279 862.666,455.829 863.187,455.485 863.704,455.065 864.226,454.589 864.742,454.133 865.363,453.789 865.885,453.345 866.404,452.896 866.922,452.444 867.439,452.08 868.061,451.654 868.582,451.114 869.098,450.684 869.826,450.274 870.241,449.784 870.862,449.331 871.38,448.943 872.003,448.543 872.418,448.07 872.937,447.621 873.562,447.25 874.079,446.804 874.702,446.287 875.22,445.831 875.842,445.433 876.361,444.962 876.88,444.53 877.397,444.123 877.915,443.74 878.642,443.202 879.265,442.68 879.785,442.25 880.406,441.762 880.924,441.303 881.444,440.876 882.068,440.469 882.585,440.002 883.206,439.502 883.83,439.092 884.349,438.661 884.972,438.148 885.594,437.65 886.113,437.288 886.632,436.864 887.149,436.344 887.772,435.911 888.291,435.526 888.808,435.059 889.43,434.579 889.953,434.19 890.572,433.745 891.091,433.274 891.611,432.864 892.128,432.48 892.65,432.119 893.166,431.585 893.685,431.152 894.308,430.785 894.827,430.361 895.347,429.866 895.971,429.409 896.488,429.025 897.006,428.598 897.523,428.124 898.145,427.671 898.767,427.222 899.288,426.708 899.911,426.208 900.427,425.817 901.051,425.396 901.57,424.878 902.194,424.422 902.815,423.992 903.332,423.525 903.954,423.026 904.473,422.625 905.097,422.259 905.617,421.719 906.238,421.268 906.756,420.901 907.274,420.437 907.792,419.958 908.414,419.528 908.935,419.16 909.557,418.645 910.076,418.125 910.699,417.733 911.216,417.309 911.839,416.817 912.36,416.363 912.876,415.992 913.394,415.547 914.019,415.119 914.432,414.662 915.055,414.254 915.573,413.833 916.195,413.331 916.715,412.857 917.337,412.473 917.856,412.027 918.377,411.552 918.893,411.142 919.515,410.711 920.038,410.218 920.658,409.764 921.176,409.377 921.695,408.976 922.212,408.52 922.834,408.066 923.354,407.702 923.874,407.275 924.391,406.801 925.014,406.385 925.428,405.998 925.947,405.554 926.673,405.056 927.087,404.642 927.711,404.238 928.228,403.767 928.748,403.293 929.476,402.815 930.097,402.295 930.616,401.864 931.239,401.416 931.757,401.031 932.276,400.605 932.899,400.086 933.416,399.652 933.936,399.267 934.454,398.8 934.975,398.363 935.596,397.934 936.114,397.532 936.736,397.011 937.255,396.536 937.774,396.166 938.395,395.734 938.916,395.242 939.538,394.758 940.055,394.353 940.678,393.946 941.198,393.445 941.82,392.993 942.338,392.582 942.857,392.109 943.374,391.637 943.894,391.29 944.516,390.822 945.14,390.303 945.658,389.892 946.178,389.504 946.799,389.075 947.318,388.63 947.836,388.194 948.356,387.789 948.977,387.314 949.497,386.855 950.014,386.426 950.534,386.043 951.157,385.591 951.676,385.097 952.193,384.725 952.711,384.279 953.334,383.823 953.852,383.371 954.371,382.98 954.889,382.578 955.513,382.102 956.034,381.649 956.55,381.281 957.069,380.87 957.691,380.333 958.212,379.895 958.936,379.489 959.351,379.039 959.973,378.537 960.596,378.081 961.115,377.678 961.633,377.205 962.152,376.769 962.774,376.356 963.396,375.89 963.916,375.387 964.537,374.974 965.058,374.544 965.679,374.078 966.197,373.595 966.718,373.178 967.34,372.708 967.963,372.145 968.584,371.712 969.102,371.319 969.622,370.872 970.246,370.335 970.868,369.915 971.386,369.489 971.904,369.035 972.525,368.561 973.044,368.169 973.564,367.783 974.082,367.328 974.6,366.855 975.224,366.488 975.845,365.994 976.363,365.491 976.986,365.01 977.608,364.628 978.128,364.156 978.751,363.646 979.269,363.215 979.787,362.808 980.306,362.313 981.032,361.853 981.447,361.467 982.07,361.056 982.589,360.579 983.108,360.125 983.625,359.758 984.353,359.219 984.871,358.744 985.391,358.353 985.908,357.95 986.428,357.539 987.05,356.993 987.567,356.623 988.19,356.175 988.709,355.698 989.227,355.263 989.953,354.829 990.472,354.294 990.99,353.836 991.616,353.375 992.131,352.97 992.858,352.47 993.378,352.009 993.896,351.622 994.519,351.126 995.036,350.694 995.555,350.233 996.179,349.866 996.592,349.482 997.112,349.003 997.631,348.589 998.253,348.181 998.876,347.668 999.394,347.182 1000.02,346.767 1000.53,346.406 1001.06,345.933 1001.57,345.501 1002.2,345.062 1002.71,344.636 1003.33,344.087 1003.85,343.632 1004.48,343.264 1005,342.859 1005.52,342.338 1006.03,341.951 1006.55,341.538 1007.17,341.086 1007.8,340.541 1008.32,340.188 1008.84,339.762 1009.46,339.221 1009.97,338.826 1010.5,338.438 1011.12,338.009 1011.63,337.485 1012.15,337.072 1012.67,336.703 1013.19,336.253 1013.82,335.774 1014.44,335.384 1014.95,334.928 1015.47,334.431 1016.1,333.969 1016.61,333.557 1017.24,333.102 1017.76,332.627 1018.38,332.169 1018.9,331.759 1019.52,331.262 1020.04,330.804 1020.56,330.408 1021.08,330.002 1021.7,329.524 1022.22,329.065 1022.84,328.607 1023.46,328.153 1023.98,327.669 1024.6,327.212 1025.12,326.802 1025.85,326.283 1026.26,325.822 1026.99,325.403 1027.51,324.999 1027.92,324.525 1028.55,324.064 1029.06,323.674 1029.58,323.312 1030.1,322.766 1030.72,322.302 1031.34,321.893 1031.86,321.48 1032.38,321 1032.9,320.612 1033.52,320.134 1034.15,319.59 1034.77,319.149 1035.29,318.755 1035.81,318.373 1036.33,317.895 1036.85,317.453 1037.47,317.064 1037.88,316.654 1038.4,316.239 1039.02,315.781 1039.54,315.364 1040.06,314.954 1040.68,314.454 1041.2,313.971 1041.82,313.563 1042.34,313.064 1042.96,312.605 1043.59,312.169 1044.11,311.739 1044.73,311.233 1045.25,310.796 1045.77,310.382 1046.39,309.932 1046.91,309.456 1047.43,309.056 1048.05,308.643 1048.57,308.191 1049.09,307.75 1049.6,307.34 1050.12,306.929 1050.74,306.425 1051.37,305.914 1051.99,305.502 1052.51,305.07 1053.03,304.614 1053.55,304.172 1054.17,303.759 1054.69,303.327 1055.2,302.846 1055.83,302.404 1056.55,301.967 1057.07,301.401 1057.7,300.967 1058.22,300.555 1058.73,300.143 1059.25,299.666 1059.88,299.176 1060.39,298.789 1061.12,298.295 1061.64,297.807 1062.16,297.368 1062.78,296.913 1063.3,296.389 1063.92,295.952 1064.44,295.583 1064.96,295.19 1065.48,294.688 1065.99,294.271 1066.51,293.906 1067.13,293.473 1067.65,292.961 1068.28,292.476 1068.8,292.111 1069.42,291.649 1070.04,291.101 1070.56,290.723 1071.08,290.364 1071.7,289.766 1072.22,289.366 1072.84,288.936 1073.36,288.485 1073.98,287.995 1074.5,287.582 1075.02,287.192 1075.64,286.696 1076.16,286.206 1076.68,285.813 1077.3,285.337 1077.92,284.859 1078.55,284.351 1079.07,283.978 1079.59,283.547 1080.1,283.081 1080.62,282.664 1081.24,282.278 1081.76,281.818 1082.28,281.338 1082.8,280.915 1083.42,280.499 1084.04,280.02 1084.67,279.533 1085.19,279.119 1085.7,278.683 1086.33,278.154 1086.85,277.692 1087.36,277.321 1088.09,276.801 1088.61,276.311 1089.23,275.936 1089.75,275.484 1090.38,274.978 1090.89,274.542 1091.41,274.165 1091.93,273.737 1092.55,273.242 1093.07,272.826 1093.59,272.438 1094.11,271.982 1094.73,271.446 1095.35,271.034 1095.87,270.684 1096.39,270.162 1096.91,269.704 1097.43,269.324 1098.05,268.911 1098.57,268.427 1099.19,267.938 1099.71,267.55 1100.23,267.09 1100.75,266.68 1101.37,266.191 1101.89,265.8 1102.4,265.384 1103.03,264.853 1103.55,264.501 1104.07,264.113 1104.69,263.569 1105.31,263.097 1105.83,262.702 1106.35,262.354 1106.87,261.835 1107.39,261.407 1108.01,260.963 1108.63,260.535 1109.25,259.977 1109.77,259.522 1110.39,259.119 1111.02,258.617 1111.53,258.123 1112.05,257.731 1112.57,257.317 1113.2,256.81 1113.71,256.326 1114.34,255.974 1114.86,255.537 1115.37,255.05 1115.89,254.653 1116.41,254.262 1116.93,253.836 1117.55,253.338 1118.07,252.924 1118.69,252.51 1119.21,252.075 1119.73,251.588 1120.36,251.17 1120.87,250.714 1121.49,250.251 1122.01,249.764 1122.53,249.391 1123.16,248.946 1123.78,248.439 1124.29,248.019 1124.81,247.628 1125.44,247.143 1125.95,246.694 1126.47,246.317 1127.1,245.859 1127.61,245.376 1128.13,244.932 1128.65,244.534 1129.27,244.071 1129.79,243.631 1130.31,243.172 1130.83,242.794 1131.45,242.352 1131.97,241.868 1132.49,241.446 1133.11,241.03 1133.63,240.615 1134.15,240.13 1134.67,239.733 1135.19,239.359 1135.81,238.832 1136.43,238.351 1136.95,237.952 1137.57,237.466 1138.2,236.952 1138.72,236.533 1139.34,236.137 1139.86,235.68 1140.38,235.167 1141,234.767 1141.62,234.326 1142.14,233.837 1142.76,233.322 1143.38,232.948 1143.8,232.53 1144.42,232.019 1144.94,231.582 1145.56,231.141 1146.08,230.702 1146.6,230.217 1147.22,229.793 1147.74,229.416 1148.26,228.934 1148.78,228.508 1149.4,228.088 1150.02,227.581 1150.54,227.094 1151.06,226.713 1151.68,226.299 1152.2,225.799 1152.61,225.447 1153.24,224.998 1153.76,224.625 1154.38,224.125 1154.9,223.625 1155.52,223.2 1156.04,222.808 1156.66,222.343 1157.18,221.848 1157.7,221.455 1158.42,220.993 1158.84,220.529 1159.46,220.033 1160.08,219.635 1160.6,219.192 1161.12,218.704 1161.64,218.286 1162.26,217.866 1162.89,217.357 1163.4,216.91 1163.92,216.491 1164.75,215.977 1165.27,215.464 1165.9,214.996 1166.41,214.622 1166.93,214.141 1167.55,213.644 1168.07,213.225 1168.7,212.785 1169.21,212.316 1169.73,211.892 1170.25,211.497 1170.98,211.003 1171.39,210.514 1171.91,210.14 1172.53,209.764 1173.05,209.285 1173.67,208.783 1174.19,208.364 1174.71,207.971 1175.33,207.477 1175.85,207.037 1176.37,206.63 1176.89,206.217 1177.51,205.744 1178.03,205.279 1178.55,204.906 1179.07,204.512 1179.69,203.996 1180.21,203.546 1180.83,203.128 1181.46,202.637 1181.97,202.171 1182.49,201.772 1183.12,201.307 1183.74,200.77 1184.25,200.356 1184.77,199.965 1185.4,199.543 1185.92,199.097 1186.44,198.669 1186.95,198.296 1187.57,197.767 1188.2,197.299 1188.61,196.898 1189.13,196.505 1189.75,196.058 1190.27,195.571 1190.9,195.091 1191.41,194.691 1192.14,194.221 1192.56,193.748 1193.07,193.375 1193.69,192.887 1194.21,192.421 1194.73,192.015 1195.36,191.62 1195.87,191.193 1196.5,190.633 1197.22,190.166 1197.64,189.743 1198.26,189.225 1198.78,188.785 1199.4,188.383 1199.92,187.916 1200.54,187.392 1201.06,187.03 1201.58,186.609 1202.1,186.209 1202.62,185.721 1203.24,185.316 1203.86,184.916 1204.28,184.429 1204.69,184.056 1205.31,183.649 1205.94,183.157 1206.56,182.615 1207.29,182.12 1207.8,181.725 1208.33,181.287 1208.84,180.812 1209.57,180.357 1210.09,179.915 1210.71,179.392 1211.23,178.88 1211.85,178.503 1212.37,178.061 1212.99,177.598 1213.41,177.196 1213.92,176.82 1214.44,176.379 1215.07,175.837 1215.69,175.384 1216.31,174.968 1216.83,174.499 1217.35,174.05 1217.87,173.666 1218.49,173.264 1219.01,172.775 1219.53,172.341 1220.15,171.917 1220.67,171.474 1221.29,170.913 1221.91,170.504 1222.43,170.078 1222.95,169.606 1223.57,169.16 1224.19,168.731 1224.61,168.313 1225.23,167.799 1225.75,167.372 1226.37,166.968 1226.89,166.52 1227.41,166.046 1228.03,165.587 1228.65,165.169 1229.17,164.659 1229.8,164.173 1230.31,163.776 1230.83,163.419 1231.56,162.919 1232.08,162.452 1232.6,162.026 1233.12,161.583 1233.63,161.108 1234.15,160.728 1234.67,160.326 1235.19,159.901 1235.81,159.423 1236.33,159.017 1236.95,158.57 1237.47,158.1 1238.1,157.57 1238.72,157.153 1239.13,156.776 1239.76,156.274 1240.27,155.837 1240.79,155.461 1241.42,155.015 1241.94,154.512 1242.45,154.105 1243.08,153.729 1243.59,153.232 1244.11,152.74 1244.74,152.375 1245.36,151.974 1245.77,151.508 1246.39,150.983 1246.91,150.596 1247.64,150.147 1248.06,149.674 1248.68,149.282 1249.09,148.863 1249.71,148.437 1250.34,147.888 1250.86,147.468 1251.38,147.059 1251.89,146.638 1252.51,146.131 1253.14,145.707 1253.66,145.306 1254.18,144.854 1254.69,144.403 1255.21,143.999 1255.73,143.578 1256.25,143.15 1256.77,142.812 1257.18,142.45 1257.81,142.009 1258.33,141.51 1258.85,141.057 1259.47,140.671 1259.98,140.265 1260.5,139.817 1261.13,139.31 1261.65,138.921 1262.16,138.457 1262.79,137.925 1263.41,137.494 1263.93,137.136 1264.45,136.682 1264.96,136.21 1265.48,135.826 1266.11,135.424 1266.62,134.922 1267.25,134.472 1267.77,134.067 1268.28,133.657 1268.91,133.181 1269.42,132.68 1270.05,132.254 1270.67,131.805 1271.19,131.302 1271.71,130.9 1272.22,130.498 1272.74,130.028 1273.47,129.542 1273.99,129.128 1274.51,128.709 1275.03,128.294 1275.55,127.841 1276.07,127.441 1276.58,127.032 1277.1,126.554 1277.72,126.08 1278.24,125.711 1278.97,125.144 1279.59,124.62 1280.11,124.215 1280.73,123.826 1281.25,123.303 1281.87,122.86 1282.39,122.439 1283.02,121.961 1283.53,121.481 1284.05,121.121 1284.57,120.689 1285.19,120.173 1285.71,119.731 1286.34,119.321 1286.85,118.897 1287.37,118.44 1287.99,117.918 1288.51,117.534 1289.13,117.08 1289.65,116.598 1290.28,116.162 1290.8,115.779 1291.31,115.327 1291.94,114.773 1292.56,114.359 1293.08,113.954 1293.6,113.482 1294.22,113.027 1294.74,112.639 1295.36,112.187 1295.77,111.723 1296.5,111.229 1297.02,110.788 1297.64,110.348 1298.16,109.848 1298.78,109.418 1299.3,108.985 1299.93,108.511 1300.44,108.035 1300.96,107.697 1301.58,107.234 1302.1,106.76 1302.62,106.292 1303.24,105.934 1303.87,105.409 1304.38,104.944 1304.9,104.558 1305.52,104.109 1306.04,103.648 1306.56,103.146 1307.29,102.781 1307.7,102.37 1308.33,101.85 1308.74,101.476 1309.26,101.095 1309.88,100.624 1310.51,100.142 1310.92,99.7003 1311.54,99.2728 1312.06,98.8866 1312.58,98.4012 1313.2,98.0101 1313.72,97.5384 1314.34,97.0343 1314.86,96.5487 1315.48,96.139 1316,95.7092 1316.62,95.2163 1317.14,94.7811 1317.66,94.4023 1318.29,93.9649 1318.8,93.4912 1319.32,93.0779 1319.84,92.7045 1320.46,92.2052 1320.98,91.7447 1321.5,91.371 1322.12,90.8903 1322.64,90.4197 1323.26,89.9283 1323.78,89.5838 1324.3,89.1788 1325.03,88.6248 1325.44,88.1891 1325.96,87.8646 1326.48,87.4156 1327,86.9271 1327.52,86.5133 1328.14,86.1062 1328.66,85.6957 1329.18,85.2358 1329.7,84.8053 1330.32,84.3838 1330.84,83.8854 1331.46,83.3947 1332.08,82.9662 1332.6,82.5752 1333.12,82.0911 1333.64,81.6572 1334.16,81.3135 1334.78,80.886 1335.3,80.3786 1335.92,79.8876 1336.54,79.4513 1337.06,78.989 1337.68,78.4801 1338.2,78.1091 1338.72,77.6944 1339.24,77.2228 1339.76,76.7755 1340.38,76.3898 1340.9,75.98 1341.52,75.4357 1342.04,74.9973 1342.66,74.6115 1343.18,74.156 1343.7,73.6591 1344.32,73.229 1344.84,72.865 1345.36,72.3834 1345.99,71.948 1346.4,71.5585 1347.02,71.1481 1347.64,70.6123 1348.27,70.102 1348.79,69.7359 1349.41,69.2251 1350.03,68.6692 1350.65,68.2724 1351.17,67.8784 1351.69,67.3475 1352.31,66.8609 1352.83,66.4505 1353.45,66.0344 1354.08,65.4763 1354.7,65.0097 1355.22,64.6161 1355.84,64.0658 1356.36,63.5956 1356.98,63.1506 1357.6,62.6781 1358.12,62.1922 1358.74,61.787 1359.26,61.4203 1359.78,60.9818 1360.3,60.4981 1360.82,60.1258 1361.34,59.739 1361.86,59.2817 1362.38,58.8153 1363,58.3647 1363.62,57.9626 1364.14,57.4506 1364.76,57.0267 1365.28,56.5956 1365.8,56.1821 1366.42,55.6174 1366.94,55.2007 1367.67,54.8025 1368.18,54.2976 1368.7,53.8508 1369.22,53.4386 1369.74,53.0434 1370.26,52.5825 1370.88,52.1322 1371.5,51.6951 1372.02,51.2836 1372.54,50.8004 1373.06,50.3245 1373.68,49.955 1374.2,49.4901 1374.72,49.0211 1375.34,48.5795 1375.96,48.1422 1376.69,47.5813 1377.11,47.1365 1377.73,46.7522 1378.25,46.3085 1378.87,45.7716 1379.39,45.4 1379.8,45.0286 1380.42,44.5922 1380.94,44.1205 1381.46,43.6529 1382.08,43.2551 1382.6,42.7991 1383.12,42.3377 1383.74,41.8757 1384.26,41.5034 1384.78,41.0521 1385.4,40.566 1386.03,40.1685 1386.55,39.7284 1387.06,39.2526 1387.69,38.791 1388.21,38.367 1388.72,37.9319 1389.24,37.464 1389.76,37.0681 1390.38,36.7009 1390.9,36.2084 1391.42,35.7197 1392.04,35.34 1392.56,34.9513 1393.08,34.4895 1393.7,33.9639 1394.33,33.5238 1394.95,33.0588 1395.47,32.5896 1395.99,32.1748 1396.51,31.7956 1397.02,31.3338 1397.65,30.7952 1398.16,30.3993 1398.79,29.9817 1399.41,29.4724 1399.93,29.0177 1400.55,28.5958 1401.07,28.1832 1401.59,27.6937 1402.21,27.2451 1402.73,26.8521 1403.25,26.412 1403.87,25.8832 1404.49,25.6667 1405.01,25.7113 1405.53,26.2837 1406.15,26.8772 1406.77,27.6084 1407.29,28.8094 1407.81,30.1946 1408.43,32.0791 1408.95,34.235 1409.47,37.1675 1410.1,40.4645 1410.61,44.2569 1411.13,48.6285 1411.76,54.536 1412.38,60.427 1412.79,65.8976 1413.31,73.2782 1413.83,81.4776 1414.35,89.7837 1414.87,100.387 1415.49,111.205 1416.01,122.916 1416.53,135.546 1417.05,147.955 1417.67,165.523 1418.29,182.051 1418.81,198.016 1419.43,215.989 1419.95,234.524 1420.57,255.119 1421.2,274.662 1421.71,293.049 1422.23,311.542 1422.85,331.34 1423.37,349.664 1423.89,367.597 1424.41,383.776 1425.03,403.279 1425.65,420.602 1426.28,439.226 1426.79,453.258 1427.31,466.096 1427.94,477.718 1428.45,487.982 1428.97,496.721 1429.49,503.879 1430.12,509.698 1430.64,513.289 1431.26,515.29 1431.77,516.032 1432.29,516.24 1432.81,516.297 1433.44,516.297 1434.06,516.296 1434.57,516.296 1435.2,516.292 1435.72,516.292 1436.24,516.292 1436.75,516.294 1437.38,516.294 1438,516.294 " />
</g>

<g fill="none" stroke="#000000" stroke-opacity="1" stroke-width="1" stroke-linecap="square" stroke-linejoin="bevel" transform="matrix(0.833333,0,0,0.833333,0,0)"
font-family="Ubuntu" font-size="12.2222" font-weight="400" font-style="normal" 
>
</g>

<g fill="none" stroke="#000000" stroke-opacity="1" stroke-width="1" stroke-linecap="square" stroke-linejoin="bevel" transform="matrix(0.833333,0,0,0.833333,0,0)"
font-family="Ubuntu" font-size="12.2222" font-weight="400" font-style="normal" 
>
</g>

<g fill="none" stroke="#000000" stroke-opacity="1" stroke-width="1" stroke-linecap="square" stroke-linejoin="bevel" transform="matrix(0.833333,0,0,0.833333,0,0)"
font-family="Ubuntu" font-size="12.2222" font-weight="400" font-style="normal" 
>
</g>

<g fill="none" stroke="#111111" stroke-opacity="1" stroke-width="1" stroke-linecap="square" stroke-linejoin="bevel" transform="matrix(0.833333,0,0,0.833333,0,0)"
font-family="Ubuntu" font-size="12.2222" font-weight="400" font-style="normal" 
>
<rect x="1189" y="10" width="242" height="23"/>
</g>

<g fill="none" stroke="#000000" stroke-opacity="1" stroke-width="1" stroke-linecap="square" stroke-linejoin="bevel" transform="matrix(0.833333,0,0,0.833333,0,0)"
font-family="Ubuntu" font-size="12.2222" font-weight="400" font-style="normal" 
>
</g>

<g fill="none" stroke="#000000" stroke-opacity="1" stroke-width="1" stroke-linecap="square" stroke-linejoin="bevel" transform="matrix(0.833333,0,0,0.833333,0,0)"
font-family="Ubuntu" font-size="12.2222" font-weight="400" font-style="normal" 
>
</g>

<g fill="none" stroke="#000000" stroke-opacity="1" stroke-width="1" stroke-linecap="square" stroke-linejoin="bevel" transform="matrix(0.833333,0,0,0.833333,994.167,14.1667)"
font-family="Ubuntu" font-size="12.2222" font-weight="400" font-style="normal" 
>
</g>

<g fill="#d62728" fill-opacity="1" stroke="none" transform="matrix(0.833333,0,0,0.833333,0,0)"
font-family="Ubuntu" font-size="12.2222" font-weight="400" font-style="normal" 
>
<path vector-effect="none" fill-rule="evenodd" d="M1193,17 L1201,17 L1201,25 L1193,25 L1193,17"/>
</g>

<g fill="none" stroke="#000000" stroke-opacity="1" stroke-width="1" stroke-linecap="square" stroke-linejoin="bevel" transform="matrix(0.833333,0,0,0.833333,994.167,14.1667)"
font-family="Ubuntu" font-size="12.2222" font-weight="400" font-style="normal" 
>
</g>

<g fill="none" stroke="#111111" stroke-opacity="1" stroke-width="1" stroke-linecap="square" stroke-linejoin="bevel" transform="matrix(0.833333,0,0,0.833333,0,0)"
font-family="Ubuntu" font-size="10" font-weight="400" font-style="normal" 
>
</g>

<g fill="none" stroke="#111111" stroke-opacity="1" stroke-width="1" stroke-linecap="square" stroke-linejoin="bevel" transform="matrix(0.833333,0,0,0.833333,0,0)"
font-family="Ubuntu" font-size="12" font-weight="400" font-style="normal" 
>
<text fill="#111111" fill-opacity="1" stroke="none" xml:space="preserve" x="1202" y="26" font-family="Ubuntu" font-size="12" font-weight="400" font-style="normal" 
 >/world_to_torch/transform/translation/y</text>
</g>

<g fill="none" stroke="#111111" stroke-opacity="1" stroke-width="1" stroke-linecap="square" stroke-linejoin="bevel" transform="matrix(0.833333,0,0,0.833333,0,0)"
font-family="Ubuntu" font-size="10" font-weight="400" font-style="normal" 
>
</g>

<g fill="none" stroke="#111111" stroke-opacity="1" stroke-width="1" stroke-linecap="square" stroke-linejoin="bevel" transform="matrix(0.833333,0,0,0.833333,0,0)"
font-family="Ubuntu" font-size="10" font-weight="400" font-style="normal" 
>
</g>

<g fill="none" stroke="#111111" stroke-opacity="1" stroke-width="1" stroke-linecap="square" stroke-linejoin="bevel" transform="matrix(0.833333,0,0,0.833333,0,0)"
font-family="Ubuntu" font-size="10" font-weight="400" font-style="normal" 
>
</g>

<g fill="none" stroke="#111111" stroke-opacity="1" stroke-width="1" stroke-linecap="square" stroke-linejoin="bevel" transform="matrix(0.833333,0,0,0.833333,0,0)"
font-family="Ubuntu" font-size="10" font-weight="400" font-style="normal" 
>
</g>

<g fill="none" stroke="#000000" stroke-opacity="1" stroke-width="1" stroke-linecap="square" stroke-linejoin="bevel" transform="matrix(0.833333,0,0,0.833333,0,0)"
font-family="Ubuntu" font-size="12.2222" font-weight="400" font-style="normal" 
>
</g>

<g fill="#ffffff" fill-opacity="1" stroke="#111111" stroke-opacity="1" stroke-width="1" stroke-linecap="square" stroke-linejoin="bevel" transform="matrix(0.833333,0,0,0.833333,0,0)"
font-family="Ubuntu" font-size="12.2222" font-weight="400" font-style="normal" 
>
<circle cx="1459" cy="10" r="5"/>
</g>

<g fill="none" stroke="#000000" stroke-opacity="1" stroke-width="1" stroke-linecap="square" stroke-linejoin="bevel" transform="matrix(0.833333,0,0,0.833333,0,0)"
font-family="Ubuntu" font-size="12.2222" font-weight="400" font-style="normal" 
>
</g>

<g fill="none" stroke="#000000" stroke-opacity="1" stroke-width="1" stroke-linecap="square" stroke-linejoin="bevel" transform="matrix(0.833333,0,0,0.833333,0,0)"
font-family="Ubuntu" font-size="12.2222" font-weight="400" font-style="normal" 
>
</g>

<g fill="none" stroke="#000000" stroke-opacity="1" stroke-width="1" stroke-linecap="square" stroke-linejoin="bevel" transform="matrix(0.833333,0,0,0.833333,0,0)"
font-family="Ubuntu" font-size="12.2222" font-weight="400" font-style="normal" 
>
</g>

<g fill="none" stroke="#111111" stroke-opacity="1" stroke-width="1" stroke-linecap="square" stroke-linejoin="bevel" transform="matrix(0,-0.833333,0.833333,0,0,864.167)"
font-family="Ubuntu" font-size="11.1111" font-weight="400" font-style="normal" 
>
</g>

<g fill="none" stroke="#111111" stroke-opacity="1" stroke-width="1" stroke-linecap="square" stroke-linejoin="bevel" transform="matrix(0,-0.833333,0.833333,0,0,864.167)"
font-family="Ubuntu" font-size="13.3333" font-weight="700" font-style="normal" 
>
</g>

<g fill="none" stroke="#111111" stroke-opacity="1" stroke-width="1" stroke-linecap="square" stroke-linejoin="bevel" transform="matrix(0,-0.833333,0.833333,0,0,864.167)"
font-family="Ubuntu" font-size="13.3333" font-weight="700" font-style="normal" 
>
</g>

<g fill="none" stroke="#111111" stroke-opacity="1" stroke-width="1" stroke-linecap="square" stroke-linejoin="bevel" transform="matrix(0,-0.833333,0.833333,0,0,864.167)"
font-family="Ubuntu" font-size="11.1111" font-weight="400" font-style="normal" 
>
</g>

<g fill="none" stroke="#000000" stroke-opacity="1" stroke-width="1" stroke-linecap="square" stroke-linejoin="bevel" transform="matrix(0.833333,0,0,0.833333,0,0)"
font-family="Ubuntu" font-size="12.2222" font-weight="400" font-style="normal" 
>
</g>

<g fill="none" stroke="#000000" stroke-opacity="1" stroke-width="1" stroke-linecap="square" stroke-linejoin="bevel" transform="matrix(0.833333,0,0,0.833333,0,0)"
font-family="Ubuntu" font-size="11.1111" font-weight="400" font-style="normal" 
>
</g>

<g fill="none" stroke="#000000" stroke-opacity="1" stroke-width="1" stroke-linecap="square" stroke-linejoin="bevel" transform="matrix(0.833333,0,0,0.833333,0,0)"
font-family="Ubuntu" font-size="11.1111" font-weight="400" font-style="normal" 
>
</g>

<g fill="none" stroke="#111111" stroke-opacity="1" stroke-width="1" stroke-linecap="square" stroke-linejoin="bevel" transform="matrix(0.833333,0,0,0.833333,0,0)"
font-family="Ubuntu" font-size="11.1111" font-weight="400" font-style="normal" 
>
</g>

<g fill="none" stroke="#111111" stroke-opacity="1" stroke-width="1" stroke-linecap="square" stroke-linejoin="bevel" transform="matrix(0.833333,0,0,0.833333,0.234375,839.652)"
font-family="Ubuntu" font-size="11.1111" font-weight="400" font-style="normal" 
>
</g>

<g fill="none" stroke="#111111" stroke-opacity="1" stroke-width="1" stroke-linecap="square" stroke-linejoin="bevel" transform="matrix(0.833333,0,0,0.833333,0.234375,839.652)"
font-family="Ubuntu" font-size="13" font-weight="400" font-style="normal" 
>
</g>

<g fill="none" stroke="#111111" stroke-opacity="1" stroke-width="1" stroke-linecap="square" stroke-linejoin="bevel" transform="matrix(0.833333,0,0,0.833333,0.234375,839.652)"
font-family="Ubuntu" font-size="13" font-weight="400" font-style="normal" 
>
<text fill="#111111" fill-opacity="1" stroke="none" xml:space="preserve" x="0" y="10" font-family="Ubuntu" font-size="13" font-weight="400" font-style="normal" 
 >-0.3</text>
</g>

<g fill="none" stroke="#111111" stroke-opacity="1" stroke-width="1" stroke-linecap="square" stroke-linejoin="bevel" transform="matrix(0.833333,0,0,0.833333,0.234375,839.652)"
font-family="Ubuntu" font-size="11.1111" font-weight="400" font-style="normal" 
>
</g>

<g fill="none" stroke="#111111" stroke-opacity="1" stroke-width="1" stroke-linecap="square" stroke-linejoin="bevel" transform="matrix(0.833333,0,0,0.833333,0.234375,839.652)"
font-family="Ubuntu" font-size="11.1111" font-weight="400" font-style="normal" 
>
</g>

<g fill="none" stroke="#111111" stroke-opacity="1" stroke-width="1" stroke-linecap="square" stroke-linejoin="bevel" transform="matrix(0.833333,0,0,0.833333,0,0)"
font-family="Ubuntu" font-size="11.1111" font-weight="400" font-style="normal" 
>
</g>

<g fill="none" stroke="#111111" stroke-opacity="1" stroke-width="1" stroke-linecap="square" stroke-linejoin="bevel" transform="matrix(0.833333,0,0,0.833333,0.234375,702.301)"
font-family="Ubuntu" font-size="11.1111" font-weight="400" font-style="normal" 
>
</g>

<g fill="none" stroke="#111111" stroke-opacity="1" stroke-width="1" stroke-linecap="square" stroke-linejoin="bevel" transform="matrix(0.833333,0,0,0.833333,0.234375,702.301)"
font-family="Ubuntu" font-size="13" font-weight="400" font-style="normal" 
>
</g>

<g fill="none" stroke="#111111" stroke-opacity="1" stroke-width="1" stroke-linecap="square" stroke-linejoin="bevel" transform="matrix(0.833333,0,0,0.833333,0.234375,702.301)"
font-family="Ubuntu" font-size="13" font-weight="400" font-style="normal" 
>
<text fill="#111111" fill-opacity="1" stroke="none" xml:space="preserve" x="0" y="10" font-family="Ubuntu" font-size="13" font-weight="400" font-style="normal" 
 >-0.2</text>
</g>

<g fill="none" stroke="#111111" stroke-opacity="1" stroke-width="1" stroke-linecap="square" stroke-linejoin="bevel" transform="matrix(0.833333,0,0,0.833333,0.234375,702.301)"
font-family="Ubuntu" font-size="11.1111" font-weight="400" font-style="normal" 
>
</g>

<g fill="none" stroke="#111111" stroke-opacity="1" stroke-width="1" stroke-linecap="square" stroke-linejoin="bevel" transform="matrix(0.833333,0,0,0.833333,0.234375,702.301)"
font-family="Ubuntu" font-size="11.1111" font-weight="400" font-style="normal" 
>
</g>

<g fill="none" stroke="#111111" stroke-opacity="1" stroke-width="1" stroke-linecap="square" stroke-linejoin="bevel" transform="matrix(0.833333,0,0,0.833333,0,0)"
font-family="Ubuntu" font-size="11.1111" font-weight="400" font-style="normal" 
>
</g>

<g fill="none" stroke="#111111" stroke-opacity="1" stroke-width="1" stroke-linecap="square" stroke-linejoin="bevel" transform="matrix(0.833333,0,0,0.833333,0.234375,564.951)"
font-family="Ubuntu" font-size="11.1111" font-weight="400" font-style="normal" 
>
</g>

<g fill="none" stroke="#111111" stroke-opacity="1" stroke-width="1" stroke-linecap="square" stroke-linejoin="bevel" transform="matrix(0.833333,0,0,0.833333,0.234375,564.951)"
font-family="Ubuntu" font-size="13" font-weight="400" font-style="normal" 
>
</g>

<g fill="none" stroke="#111111" stroke-opacity="1" stroke-width="1" stroke-linecap="square" stroke-linejoin="bevel" transform="matrix(0.833333,0,0,0.833333,0.234375,564.951)"
font-family="Ubuntu" font-size="13" font-weight="400" font-style="normal" 
>
<text fill="#111111" fill-opacity="1" stroke="none" xml:space="preserve" x="0" y="10" font-family="Ubuntu" font-size="13" font-weight="400" font-style="normal" 
 >-0.1</text>
</g>

<g fill="none" stroke="#111111" stroke-opacity="1" stroke-width="1" stroke-linecap="square" stroke-linejoin="bevel" transform="matrix(0.833333,0,0,0.833333,0.234375,564.951)"
font-family="Ubuntu" font-size="11.1111" font-weight="400" font-style="normal" 
>
</g>

<g fill="none" stroke="#111111" stroke-opacity="1" stroke-width="1" stroke-linecap="square" stroke-linejoin="bevel" transform="matrix(0.833333,0,0,0.833333,0.234375,564.951)"
font-family="Ubuntu" font-size="11.1111" font-weight="400" font-style="normal" 
>
</g>

<g fill="none" stroke="#111111" stroke-opacity="1" stroke-width="1" stroke-linecap="square" stroke-linejoin="bevel" transform="matrix(0.833333,0,0,0.833333,0,0)"
font-family="Ubuntu" font-size="11.1111" font-weight="400" font-style="normal" 
>
</g>

<g fill="none" stroke="#111111" stroke-opacity="1" stroke-width="1" stroke-linecap="square" stroke-linejoin="bevel" transform="matrix(0.833333,0,0,0.833333,12.2266,427.6)"
font-family="Ubuntu" font-size="11.1111" font-weight="400" font-style="normal" 
>
</g>

<g fill="none" stroke="#111111" stroke-opacity="1" stroke-width="1" stroke-linecap="square" stroke-linejoin="bevel" transform="matrix(0.833333,0,0,0.833333,12.2266,427.6)"
font-family="Ubuntu" font-size="13" font-weight="400" font-style="normal" 
>
</g>

<g fill="none" stroke="#111111" stroke-opacity="1" stroke-width="1" stroke-linecap="square" stroke-linejoin="bevel" transform="matrix(0.833333,0,0,0.833333,12.2266,427.6)"
font-family="Ubuntu" font-size="13" font-weight="400" font-style="normal" 
>
</g>

<g fill="none" stroke="#111111" stroke-opacity="1" stroke-width="1" stroke-linecap="square" stroke-linejoin="bevel" transform="matrix(0.833333,0,0,0.833333,12.2266,427.6)"
font-family="Ubuntu" font-size="13" font-weight="400" font-style="normal" 
>
<text fill="#111111" fill-opacity="1" stroke="none" xml:space="preserve" x="0" y="10" font-family="Ubuntu" font-size="13" font-weight="400" font-style="normal" 
 >0</text>
</g>

<g fill="none" stroke="#111111" stroke-opacity="1" stroke-width="1" stroke-linecap="square" stroke-linejoin="bevel" transform="matrix(0.833333,0,0,0.833333,12.2266,427.6)"
font-family="Ubuntu" font-size="13" font-weight="400" font-style="normal" 
>
</g>

<g fill="none" stroke="#111111" stroke-opacity="1" stroke-width="1" stroke-linecap="square" stroke-linejoin="bevel" transform="matrix(0.833333,0,0,0.833333,12.2266,427.6)"
font-family="Ubuntu" font-size="11.1111" font-weight="400" font-style="normal" 
>
</g>

<g fill="none" stroke="#111111" stroke-opacity="1" stroke-width="1" stroke-linecap="square" stroke-linejoin="bevel" transform="matrix(0.833333,0,0,0.833333,12.2266,427.6)"
font-family="Ubuntu" font-size="11.1111" font-weight="400" font-style="normal" 
>
</g>

<g fill="none" stroke="#111111" stroke-opacity="1" stroke-width="1" stroke-linecap="square" stroke-linejoin="bevel" transform="matrix(0.833333,0,0,0.833333,0,0)"
font-family="Ubuntu" font-size="11.1111" font-weight="400" font-style="normal" 
>
</g>

<g fill="none" stroke="#111111" stroke-opacity="1" stroke-width="1" stroke-linecap="square" stroke-linejoin="bevel" transform="matrix(0.833333,0,0,0.833333,3.46354,290.249)"
font-family="Ubuntu" font-size="11.1111" font-weight="400" font-style="normal" 
>
</g>

<g fill="none" stroke="#111111" stroke-opacity="1" stroke-width="1" stroke-linecap="square" stroke-linejoin="bevel" transform="matrix(0.833333,0,0,0.833333,3.46354,290.249)"
font-family="Ubuntu" font-size="13" font-weight="400" font-style="normal" 
>
</g>

<g fill="none" stroke="#111111" stroke-opacity="1" stroke-width="1" stroke-linecap="square" stroke-linejoin="bevel" transform="matrix(0.833333,0,0,0.833333,3.46354,290.249)"
font-family="Ubuntu" font-size="13" font-weight="400" font-style="normal" 
>
<text fill="#111111" fill-opacity="1" stroke="none" xml:space="preserve" x="0" y="10" font-family="Ubuntu" font-size="13" font-weight="400" font-style="normal" 
 >0.1</text>
</g>

<g fill="none" stroke="#111111" stroke-opacity="1" stroke-width="1" stroke-linecap="square" stroke-linejoin="bevel" transform="matrix(0.833333,0,0,0.833333,3.46354,290.249)"
font-family="Ubuntu" font-size="11.1111" font-weight="400" font-style="normal" 
>
</g>

<g fill="none" stroke="#111111" stroke-opacity="1" stroke-width="1" stroke-linecap="square" stroke-linejoin="bevel" transform="matrix(0.833333,0,0,0.833333,3.46354,290.249)"
font-family="Ubuntu" font-size="11.1111" font-weight="400" font-style="normal" 
>
</g>

<g fill="none" stroke="#111111" stroke-opacity="1" stroke-width="1" stroke-linecap="square" stroke-linejoin="bevel" transform="matrix(0.833333,0,0,0.833333,0,0)"
font-family="Ubuntu" font-size="11.1111" font-weight="400" font-style="normal" 
>
</g>

<g fill="none" stroke="#111111" stroke-opacity="1" stroke-width="1" stroke-linecap="square" stroke-linejoin="bevel" transform="matrix(0.833333,0,0,0.833333,3.46354,152.899)"
font-family="Ubuntu" font-size="11.1111" font-weight="400" font-style="normal" 
>
</g>

<g fill="none" stroke="#111111" stroke-opacity="1" stroke-width="1" stroke-linecap="square" stroke-linejoin="bevel" transform="matrix(0.833333,0,0,0.833333,3.46354,152.899)"
font-family="Ubuntu" font-size="13" font-weight="400" font-style="normal" 
>
</g>

<g fill="none" stroke="#111111" stroke-opacity="1" stroke-width="1" stroke-linecap="square" stroke-linejoin="bevel" transform="matrix(0.833333,0,0,0.833333,3.46354,152.899)"
font-family="Ubuntu" font-size="13" font-weight="400" font-style="normal" 
>
<text fill="#111111" fill-opacity="1" stroke="none" xml:space="preserve" x="0" y="10" font-family="Ubuntu" font-size="13" font-weight="400" font-style="normal" 
 >0.2</text>
</g>

<g fill="none" stroke="#111111" stroke-opacity="1" stroke-width="1" stroke-linecap="square" stroke-linejoin="bevel" transform="matrix(0.833333,0,0,0.833333,3.46354,152.899)"
font-family="Ubuntu" font-size="11.1111" font-weight="400" font-style="normal" 
>
</g>

<g fill="none" stroke="#111111" stroke-opacity="1" stroke-width="1" stroke-linecap="square" stroke-linejoin="bevel" transform="matrix(0.833333,0,0,0.833333,3.46354,152.899)"
font-family="Ubuntu" font-size="11.1111" font-weight="400" font-style="normal" 
>
</g>

<g fill="none" stroke="#111111" stroke-opacity="1" stroke-width="1" stroke-linecap="square" stroke-linejoin="bevel" transform="matrix(0.833333,0,0,0.833333,0,0)"
font-family="Ubuntu" font-size="11.1111" font-weight="400" font-style="normal" 
>
</g>

<g fill="none" stroke="#111111" stroke-opacity="1" stroke-width="1" stroke-linecap="square" stroke-linejoin="bevel" transform="matrix(0.833333,0,0,0.833333,3.46354,15.548)"
font-family="Ubuntu" font-size="11.1111" font-weight="400" font-style="normal" 
>
</g>

<g fill="none" stroke="#111111" stroke-opacity="1" stroke-width="1" stroke-linecap="square" stroke-linejoin="bevel" transform="matrix(0.833333,0,0,0.833333,3.46354,15.548)"
font-family="Ubuntu" font-size="13" font-weight="400" font-style="normal" 
>
</g>

<g fill="none" stroke="#111111" stroke-opacity="1" stroke-width="1" stroke-linecap="square" stroke-linejoin="bevel" transform="matrix(0.833333,0,0,0.833333,3.46354,15.548)"
font-family="Ubuntu" font-size="13" font-weight="400" font-style="normal" 
>
<text fill="#111111" fill-opacity="1" stroke="none" xml:space="preserve" x="0" y="10" font-family="Ubuntu" font-size="13" font-weight="400" font-style="normal" 
 >0.3</text>
</g>

<g fill="none" stroke="#111111" stroke-opacity="1" stroke-width="1" stroke-linecap="square" stroke-linejoin="bevel" transform="matrix(0.833333,0,0,0.833333,3.46354,15.548)"
font-family="Ubuntu" font-size="11.1111" font-weight="400" font-style="normal" 
>
</g>

<g fill="none" stroke="#111111" stroke-opacity="1" stroke-width="1" stroke-linecap="square" stroke-linejoin="bevel" transform="matrix(0.833333,0,0,0.833333,3.46354,15.548)"
font-family="Ubuntu" font-size="11.1111" font-weight="400" font-style="normal" 
>
</g>

<g fill="none" stroke="#111111" stroke-opacity="1" stroke-width="1" stroke-linecap="square" stroke-linejoin="bevel" transform="matrix(0.833333,0,0,0.833333,0,0)"
font-family="Ubuntu" font-size="11.1111" font-weight="400" font-style="normal" 
>
</g>

<g fill="none" stroke="#000000" stroke-opacity="1" stroke-width="1" stroke-linecap="square" stroke-linejoin="bevel" transform="matrix(0.833333,0,0,0.833333,0,0)"
font-family="Ubuntu" font-size="11.1111" font-weight="400" font-style="normal" 
>
</g>

<g fill="none" stroke="#111111" stroke-opacity="1" stroke-width="1" stroke-linecap="butt" stroke-linejoin="bevel" transform="matrix(0.833333,0,0,0.833333,0,0)"
font-family="Ubuntu" font-size="11.1111" font-weight="400" font-style="normal" 
>
<polyline fill="none" vector-effect="non-scaling-stroke" points="35.5,979.618 30.3,979.618 " />
<polyline fill="none" vector-effect="non-scaling-stroke" points="35.5,946.654 30.3,946.654 " />
<polyline fill="none" vector-effect="non-scaling-stroke" points="35.5,913.69 30.3,913.69 " />
<polyline fill="none" vector-effect="non-scaling-stroke" points="35.5,880.726 30.3,880.726 " />
<polyline fill="none" vector-effect="non-scaling-stroke" points="35.5,814.797 30.3,814.797 " />
<polyline fill="none" vector-effect="non-scaling-stroke" points="35.5,781.833 30.3,781.833 " />
<polyline fill="none" vector-effect="non-scaling-stroke" points="35.5,748.869 30.3,748.869 " />
<polyline fill="none" vector-effect="non-scaling-stroke" points="35.5,715.905 30.3,715.905 " />
<polyline fill="none" vector-effect="non-scaling-stroke" points="35.5,649.977 30.3,649.977 " />
<polyline fill="none" vector-effect="non-scaling-stroke" points="35.5,617.012 30.3,617.012 " />
<polyline fill="none" vector-effect="non-scaling-stroke" points="35.5,584.048 30.3,584.048 " />
<polyline fill="none" vector-effect="non-scaling-stroke" points="35.5,551.084 30.3,551.084 " />
<polyline fill="none" vector-effect="non-scaling-stroke" points="35.5,485.156 30.3,485.156 " />
<polyline fill="none" vector-effect="non-scaling-stroke" points="35.5,452.192 30.3,452.192 " />
<polyline fill="none" vector-effect="non-scaling-stroke" points="35.5,419.228 30.3,419.228 " />
<polyline fill="none" vector-effect="non-scaling-stroke" points="35.5,386.263 30.3,386.263 " />
<polyline fill="none" vector-effect="non-scaling-stroke" points="35.5,320.335 30.3,320.335 " />
<polyline fill="none" vector-effect="non-scaling-stroke" points="35.5,287.371 30.3,287.371 " />
<polyline fill="none" vector-effect="non-scaling-stroke" points="35.5,254.407 30.3,254.407 " />
<polyline fill="none" vector-effect="non-scaling-stroke" points="35.5,221.443 30.3,221.443 " />
<polyline fill="none" vector-effect="non-scaling-stroke" points="35.5,155.514 30.3,155.514 " />
<polyline fill="none" vector-effect="non-scaling-stroke" points="35.5,122.55 30.3,122.55 " />
<polyline fill="none" vector-effect="non-scaling-stroke" points="35.5,89.5859 30.3,89.5859 " />
<polyline fill="none" vector-effect="non-scaling-stroke" points="35.5,56.6218 30.3,56.6218 " />
<polyline fill="none" vector-effect="non-scaling-stroke" points="35.5,1012.58 26.3,1012.58 " />
<polyline fill="none" vector-effect="non-scaling-stroke" points="35.5,847.762 26.3,847.762 " />
<polyline fill="none" vector-effect="non-scaling-stroke" points="35.5,682.941 26.3,682.941 " />
<polyline fill="none" vector-effect="non-scaling-stroke" points="35.5,518.12 26.3,518.12 " />
<polyline fill="none" vector-effect="non-scaling-stroke" points="35.5,353.299 26.3,353.299 " />
<polyline fill="none" vector-effect="non-scaling-stroke" points="35.5,188.478 26.3,188.478 " />
<polyline fill="none" vector-effect="non-scaling-stroke" points="35.5,23.6576 26.3,23.6576 " />
</g>

<g fill="none" stroke="#000000" stroke-opacity="1" stroke-width="1" stroke-linecap="square" stroke-linejoin="bevel" transform="matrix(0.833333,0,0,0.833333,0,0)"
font-family="Ubuntu" font-size="11.1111" font-weight="400" font-style="normal" 
>
</g>

<g fill="none" stroke="#111111" stroke-opacity="1" stroke-width="1" stroke-linecap="butt" stroke-linejoin="bevel" transform="matrix(0.833333,0,0,0.833333,0,0)"
font-family="Ubuntu" font-size="11.1111" font-weight="400" font-style="normal" 
>
<polyline fill="none" vector-effect="non-scaling-stroke" points="35.4,1 35.4,1037 " />
</g>

<g fill="none" stroke="#000000" stroke-opacity="1" stroke-width="1" stroke-linecap="square" stroke-linejoin="bevel" transform="matrix(0.833333,0,0,0.833333,0,0)"
font-family="Ubuntu" font-size="11.1111" font-weight="400" font-style="normal" 
>
</g>

<g fill="none" stroke="#000000" stroke-opacity="1" stroke-width="1" stroke-linecap="square" stroke-linejoin="bevel" transform="matrix(0.833333,0,0,0.833333,0,0)"
font-family="Ubuntu" font-size="11.1111" font-weight="400" font-style="normal" 
>
</g>

<g fill="none" stroke="#000000" stroke-opacity="1" stroke-width="1" stroke-linecap="square" stroke-linejoin="bevel" transform="matrix(0.833333,0,0,0.833333,0,0)"
font-family="Ubuntu" font-size="12.2222" font-weight="400" font-style="normal" 
>
</g>

<g fill="none" stroke="#111111" stroke-opacity="1" stroke-width="1" stroke-linecap="square" stroke-linejoin="bevel" transform="matrix(0.833333,0,0,0.833333,32.5,900.833)"
font-family="Ubuntu" font-size="11.1111" font-weight="400" font-style="normal" 
>
</g>

<g fill="none" stroke="#111111" stroke-opacity="1" stroke-width="1" stroke-linecap="square" stroke-linejoin="bevel" transform="matrix(0.833333,0,0,0.833333,32.5,900.833)"
font-family="Ubuntu" font-size="13.3333" font-weight="700" font-style="normal" 
>
</g>

<g fill="none" stroke="#111111" stroke-opacity="1" stroke-width="1" stroke-linecap="square" stroke-linejoin="bevel" transform="matrix(0.833333,0,0,0.833333,32.5,900.833)"
font-family="Ubuntu" font-size="13.3333" font-weight="700" font-style="normal" 
>
</g>

<g fill="none" stroke="#111111" stroke-opacity="1" stroke-width="1" stroke-linecap="square" stroke-linejoin="bevel" transform="matrix(0.833333,0,0,0.833333,32.5,900.833)"
font-family="Ubuntu" font-size="11.1111" font-weight="400" font-style="normal" 
>
</g>

<g fill="none" stroke="#000000" stroke-opacity="1" stroke-width="1" stroke-linecap="square" stroke-linejoin="bevel" transform="matrix(0.833333,0,0,0.833333,0,0)"
font-family="Ubuntu" font-size="12.2222" font-weight="400" font-style="normal" 
>
</g>

<g fill="none" stroke="#000000" stroke-opacity="1" stroke-width="1" stroke-linecap="square" stroke-linejoin="bevel" transform="matrix(0.833333,0,0,0.833333,0,0)"
font-family="Ubuntu" font-size="11.1111" font-weight="400" font-style="normal" 
>
</g>

<g fill="none" stroke="#000000" stroke-opacity="1" stroke-width="1" stroke-linecap="square" stroke-linejoin="bevel" transform="matrix(0.833333,0,0,0.833333,0,0)"
font-family="Ubuntu" font-size="11.1111" font-weight="400" font-style="normal" 
>
</g>

<g fill="none" stroke="#111111" stroke-opacity="1" stroke-width="1" stroke-linecap="square" stroke-linejoin="bevel" transform="matrix(0.833333,0,0,0.833333,0,0)"
font-family="Ubuntu" font-size="11.1111" font-weight="400" font-style="normal" 
>
</g>

<g fill="none" stroke="#111111" stroke-opacity="1" stroke-width="1" stroke-linecap="square" stroke-linejoin="bevel" transform="matrix(0.833333,0,0,0.833333,62.2876,878.333)"
font-family="Ubuntu" font-size="11.1111" font-weight="400" font-style="normal" 
>
</g>

<g fill="none" stroke="#111111" stroke-opacity="1" stroke-width="1" stroke-linecap="square" stroke-linejoin="bevel" transform="matrix(0.833333,0,0,0.833333,62.2876,878.333)"
font-family="Ubuntu" font-size="13" font-weight="400" font-style="normal" 
>
</g>

<g fill="none" stroke="#111111" stroke-opacity="1" stroke-width="1" stroke-linecap="square" stroke-linejoin="bevel" transform="matrix(0.833333,0,0,0.833333,62.2876,878.333)"
font-family="Ubuntu" font-size="13" font-weight="400" font-style="normal" 
>
</g>

<g fill="none" stroke="#111111" stroke-opacity="1" stroke-width="1" stroke-linecap="square" stroke-linejoin="bevel" transform="matrix(0.833333,0,0,0.833333,62.2876,878.333)"
font-family="Ubuntu" font-size="13" font-weight="400" font-style="normal" 
>
<text fill="#111111" fill-opacity="1" stroke="none" xml:space="preserve" x="0" y="10" font-family="Ubuntu" font-size="13" font-weight="400" font-style="normal" 
 >16:02:40.0</text>
</g>

<g fill="none" stroke="#111111" stroke-opacity="1" stroke-width="1" stroke-linecap="square" stroke-linejoin="bevel" transform="matrix(0.833333,0,0,0.833333,62.2876,878.333)"
font-family="Ubuntu" font-size="13" font-weight="400" font-style="normal" 
>
<text fill="#111111" fill-opacity="1" stroke="none" xml:space="preserve" x="0" y="25" font-family="Ubuntu" font-size="13" font-weight="400" font-style="normal" 
 >2024 Jul 10</text>
</g>

<g fill="none" stroke="#111111" stroke-opacity="1" stroke-width="1" stroke-linecap="square" stroke-linejoin="bevel" transform="matrix(0.833333,0,0,0.833333,62.2876,878.333)"
font-family="Ubuntu" font-size="13" font-weight="400" font-style="normal" 
>
</g>

<g fill="none" stroke="#111111" stroke-opacity="1" stroke-width="1" stroke-linecap="square" stroke-linejoin="bevel" transform="matrix(0.833333,0,0,0.833333,62.2876,878.333)"
font-family="Ubuntu" font-size="11.1111" font-weight="400" font-style="normal" 
>
</g>

<g fill="none" stroke="#111111" stroke-opacity="1" stroke-width="1" stroke-linecap="square" stroke-linejoin="bevel" transform="matrix(0.833333,0,0,0.833333,62.2876,878.333)"
font-family="Ubuntu" font-size="11.1111" font-weight="400" font-style="normal" 
>
</g>

<g fill="none" stroke="#111111" stroke-opacity="1" stroke-width="1" stroke-linecap="square" stroke-linejoin="bevel" transform="matrix(0.833333,0,0,0.833333,0,0)"
font-family="Ubuntu" font-size="11.1111" font-weight="400" font-style="normal" 
>
</g>

<g fill="none" stroke="#111111" stroke-opacity="1" stroke-width="1" stroke-linecap="square" stroke-linejoin="bevel" transform="matrix(0.833333,0,0,0.833333,235.186,878.333)"
font-family="Ubuntu" font-size="11.1111" font-weight="400" font-style="normal" 
>
</g>

<g fill="none" stroke="#111111" stroke-opacity="1" stroke-width="1" stroke-linecap="square" stroke-linejoin="bevel" transform="matrix(0.833333,0,0,0.833333,235.186,878.333)"
font-family="Ubuntu" font-size="13" font-weight="400" font-style="normal" 
>
</g>

<g fill="none" stroke="#111111" stroke-opacity="1" stroke-width="1" stroke-linecap="square" stroke-linejoin="bevel" transform="matrix(0.833333,0,0,0.833333,235.186,878.333)"
font-family="Ubuntu" font-size="13" font-weight="400" font-style="normal" 
>
</g>

<g fill="none" stroke="#111111" stroke-opacity="1" stroke-width="1" stroke-linecap="square" stroke-linejoin="bevel" transform="matrix(0.833333,0,0,0.833333,235.186,878.333)"
font-family="Ubuntu" font-size="13" font-weight="400" font-style="normal" 
>
<text fill="#111111" fill-opacity="1" stroke="none" xml:space="preserve" x="0" y="10" font-family="Ubuntu" font-size="13" font-weight="400" font-style="normal" 
 >16:03:00.0</text>
</g>

<g fill="none" stroke="#111111" stroke-opacity="1" stroke-width="1" stroke-linecap="square" stroke-linejoin="bevel" transform="matrix(0.833333,0,0,0.833333,235.186,878.333)"
font-family="Ubuntu" font-size="13" font-weight="400" font-style="normal" 
>
<text fill="#111111" fill-opacity="1" stroke="none" xml:space="preserve" x="0" y="25" font-family="Ubuntu" font-size="13" font-weight="400" font-style="normal" 
 >2024 Jul 10</text>
</g>

<g fill="none" stroke="#111111" stroke-opacity="1" stroke-width="1" stroke-linecap="square" stroke-linejoin="bevel" transform="matrix(0.833333,0,0,0.833333,235.186,878.333)"
font-family="Ubuntu" font-size="13" font-weight="400" font-style="normal" 
>
</g>

<g fill="none" stroke="#111111" stroke-opacity="1" stroke-width="1" stroke-linecap="square" stroke-linejoin="bevel" transform="matrix(0.833333,0,0,0.833333,235.186,878.333)"
font-family="Ubuntu" font-size="11.1111" font-weight="400" font-style="normal" 
>
</g>

<g fill="none" stroke="#111111" stroke-opacity="1" stroke-width="1" stroke-linecap="square" stroke-linejoin="bevel" transform="matrix(0.833333,0,0,0.833333,235.186,878.333)"
font-family="Ubuntu" font-size="11.1111" font-weight="400" font-style="normal" 
>
</g>

<g fill="none" stroke="#111111" stroke-opacity="1" stroke-width="1" stroke-linecap="square" stroke-linejoin="bevel" transform="matrix(0.833333,0,0,0.833333,0,0)"
font-family="Ubuntu" font-size="11.1111" font-weight="400" font-style="normal" 
>
</g>

<g fill="none" stroke="#111111" stroke-opacity="1" stroke-width="1" stroke-linecap="square" stroke-linejoin="bevel" transform="matrix(0.833333,0,0,0.833333,408.084,878.333)"
font-family="Ubuntu" font-size="11.1111" font-weight="400" font-style="normal" 
>
</g>

<g fill="none" stroke="#111111" stroke-opacity="1" stroke-width="1" stroke-linecap="square" stroke-linejoin="bevel" transform="matrix(0.833333,0,0,0.833333,408.084,878.333)"
font-family="Ubuntu" font-size="13" font-weight="400" font-style="normal" 
>
</g>

<g fill="none" stroke="#111111" stroke-opacity="1" stroke-width="1" stroke-linecap="square" stroke-linejoin="bevel" transform="matrix(0.833333,0,0,0.833333,408.084,878.333)"
font-family="Ubuntu" font-size="13" font-weight="400" font-style="normal" 
>
</g>

<g fill="none" stroke="#111111" stroke-opacity="1" stroke-width="1" stroke-linecap="square" stroke-linejoin="bevel" transform="matrix(0.833333,0,0,0.833333,408.084,878.333)"
font-family="Ubuntu" font-size="13" font-weight="400" font-style="normal" 
>
<text fill="#111111" fill-opacity="1" stroke="none" xml:space="preserve" x="0" y="10" font-family="Ubuntu" font-size="13" font-weight="400" font-style="normal" 
 >16:03:20.0</text>
</g>

<g fill="none" stroke="#111111" stroke-opacity="1" stroke-width="1" stroke-linecap="square" stroke-linejoin="bevel" transform="matrix(0.833333,0,0,0.833333,408.084,878.333)"
font-family="Ubuntu" font-size="13" font-weight="400" font-style="normal" 
>
<text fill="#111111" fill-opacity="1" stroke="none" xml:space="preserve" x="0" y="25" font-family="Ubuntu" font-size="13" font-weight="400" font-style="normal" 
 >2024 Jul 10</text>
</g>

<g fill="none" stroke="#111111" stroke-opacity="1" stroke-width="1" stroke-linecap="square" stroke-linejoin="bevel" transform="matrix(0.833333,0,0,0.833333,408.084,878.333)"
font-family="Ubuntu" font-size="13" font-weight="400" font-style="normal" 
>
</g>

<g fill="none" stroke="#111111" stroke-opacity="1" stroke-width="1" stroke-linecap="square" stroke-linejoin="bevel" transform="matrix(0.833333,0,0,0.833333,408.084,878.333)"
font-family="Ubuntu" font-size="11.1111" font-weight="400" font-style="normal" 
>
</g>

<g fill="none" stroke="#111111" stroke-opacity="1" stroke-width="1" stroke-linecap="square" stroke-linejoin="bevel" transform="matrix(0.833333,0,0,0.833333,408.084,878.333)"
font-family="Ubuntu" font-size="11.1111" font-weight="400" font-style="normal" 
>
</g>

<g fill="none" stroke="#111111" stroke-opacity="1" stroke-width="1" stroke-linecap="square" stroke-linejoin="bevel" transform="matrix(0.833333,0,0,0.833333,0,0)"
font-family="Ubuntu" font-size="11.1111" font-weight="400" font-style="normal" 
>
</g>

<g fill="none" stroke="#111111" stroke-opacity="1" stroke-width="1" stroke-linecap="square" stroke-linejoin="bevel" transform="matrix(0.833333,0,0,0.833333,580.982,878.333)"
font-family="Ubuntu" font-size="11.1111" font-weight="400" font-style="normal" 
>
</g>

<g fill="none" stroke="#111111" stroke-opacity="1" stroke-width="1" stroke-linecap="square" stroke-linejoin="bevel" transform="matrix(0.833333,0,0,0.833333,580.982,878.333)"
font-family="Ubuntu" font-size="13" font-weight="400" font-style="normal" 
>
</g>

<g fill="none" stroke="#111111" stroke-opacity="1" stroke-width="1" stroke-linecap="square" stroke-linejoin="bevel" transform="matrix(0.833333,0,0,0.833333,580.982,878.333)"
font-family="Ubuntu" font-size="13" font-weight="400" font-style="normal" 
>
</g>

<g fill="none" stroke="#111111" stroke-opacity="1" stroke-width="1" stroke-linecap="square" stroke-linejoin="bevel" transform="matrix(0.833333,0,0,0.833333,580.982,878.333)"
font-family="Ubuntu" font-size="13" font-weight="400" font-style="normal" 
>
<text fill="#111111" fill-opacity="1" stroke="none" xml:space="preserve" x="0" y="10" font-family="Ubuntu" font-size="13" font-weight="400" font-style="normal" 
 >16:03:40.0</text>
</g>

<g fill="none" stroke="#111111" stroke-opacity="1" stroke-width="1" stroke-linecap="square" stroke-linejoin="bevel" transform="matrix(0.833333,0,0,0.833333,580.982,878.333)"
font-family="Ubuntu" font-size="13" font-weight="400" font-style="normal" 
>
<text fill="#111111" fill-opacity="1" stroke="none" xml:space="preserve" x="0" y="25" font-family="Ubuntu" font-size="13" font-weight="400" font-style="normal" 
 >2024 Jul 10</text>
</g>

<g fill="none" stroke="#111111" stroke-opacity="1" stroke-width="1" stroke-linecap="square" stroke-linejoin="bevel" transform="matrix(0.833333,0,0,0.833333,580.982,878.333)"
font-family="Ubuntu" font-size="13" font-weight="400" font-style="normal" 
>
</g>

<g fill="none" stroke="#111111" stroke-opacity="1" stroke-width="1" stroke-linecap="square" stroke-linejoin="bevel" transform="matrix(0.833333,0,0,0.833333,580.982,878.333)"
font-family="Ubuntu" font-size="11.1111" font-weight="400" font-style="normal" 
>
</g>

<g fill="none" stroke="#111111" stroke-opacity="1" stroke-width="1" stroke-linecap="square" stroke-linejoin="bevel" transform="matrix(0.833333,0,0,0.833333,580.982,878.333)"
font-family="Ubuntu" font-size="11.1111" font-weight="400" font-style="normal" 
>
</g>

<g fill="none" stroke="#111111" stroke-opacity="1" stroke-width="1" stroke-linecap="square" stroke-linejoin="bevel" transform="matrix(0.833333,0,0,0.833333,0,0)"
font-family="Ubuntu" font-size="11.1111" font-weight="400" font-style="normal" 
>
</g>

<g fill="none" stroke="#111111" stroke-opacity="1" stroke-width="1" stroke-linecap="square" stroke-linejoin="bevel" transform="matrix(0.833333,0,0,0.833333,753.88,878.333)"
font-family="Ubuntu" font-size="11.1111" font-weight="400" font-style="normal" 
>
</g>

<g fill="none" stroke="#111111" stroke-opacity="1" stroke-width="1" stroke-linecap="square" stroke-linejoin="bevel" transform="matrix(0.833333,0,0,0.833333,753.88,878.333)"
font-family="Ubuntu" font-size="13" font-weight="400" font-style="normal" 
>
</g>

<g fill="none" stroke="#111111" stroke-opacity="1" stroke-width="1" stroke-linecap="square" stroke-linejoin="bevel" transform="matrix(0.833333,0,0,0.833333,753.88,878.333)"
font-family="Ubuntu" font-size="13" font-weight="400" font-style="normal" 
>
</g>

<g fill="none" stroke="#111111" stroke-opacity="1" stroke-width="1" stroke-linecap="square" stroke-linejoin="bevel" transform="matrix(0.833333,0,0,0.833333,753.88,878.333)"
font-family="Ubuntu" font-size="13" font-weight="400" font-style="normal" 
>
<text fill="#111111" fill-opacity="1" stroke="none" xml:space="preserve" x="0" y="10" font-family="Ubuntu" font-size="13" font-weight="400" font-style="normal" 
 >16:04:00.0</text>
</g>

<g fill="none" stroke="#111111" stroke-opacity="1" stroke-width="1" stroke-linecap="square" stroke-linejoin="bevel" transform="matrix(0.833333,0,0,0.833333,753.88,878.333)"
font-family="Ubuntu" font-size="13" font-weight="400" font-style="normal" 
>
<text fill="#111111" fill-opacity="1" stroke="none" xml:space="preserve" x="0" y="25" font-family="Ubuntu" font-size="13" font-weight="400" font-style="normal" 
 >2024 Jul 10</text>
</g>

<g fill="none" stroke="#111111" stroke-opacity="1" stroke-width="1" stroke-linecap="square" stroke-linejoin="bevel" transform="matrix(0.833333,0,0,0.833333,753.88,878.333)"
font-family="Ubuntu" font-size="13" font-weight="400" font-style="normal" 
>
</g>

<g fill="none" stroke="#111111" stroke-opacity="1" stroke-width="1" stroke-linecap="square" stroke-linejoin="bevel" transform="matrix(0.833333,0,0,0.833333,753.88,878.333)"
font-family="Ubuntu" font-size="11.1111" font-weight="400" font-style="normal" 
>
</g>

<g fill="none" stroke="#111111" stroke-opacity="1" stroke-width="1" stroke-linecap="square" stroke-linejoin="bevel" transform="matrix(0.833333,0,0,0.833333,753.88,878.333)"
font-family="Ubuntu" font-size="11.1111" font-weight="400" font-style="normal" 
>
</g>

<g fill="none" stroke="#111111" stroke-opacity="1" stroke-width="1" stroke-linecap="square" stroke-linejoin="bevel" transform="matrix(0.833333,0,0,0.833333,0,0)"
font-family="Ubuntu" font-size="11.1111" font-weight="400" font-style="normal" 
>
</g>

<g fill="none" stroke="#111111" stroke-opacity="1" stroke-width="1" stroke-linecap="square" stroke-linejoin="bevel" transform="matrix(0.833333,0,0,0.833333,926.779,878.333)"
font-family="Ubuntu" font-size="11.1111" font-weight="400" font-style="normal" 
>
</g>

<g fill="none" stroke="#111111" stroke-opacity="1" stroke-width="1" stroke-linecap="square" stroke-linejoin="bevel" transform="matrix(0.833333,0,0,0.833333,926.779,878.333)"
font-family="Ubuntu" font-size="13" font-weight="400" font-style="normal" 
>
</g>

<g fill="none" stroke="#111111" stroke-opacity="1" stroke-width="1" stroke-linecap="square" stroke-linejoin="bevel" transform="matrix(0.833333,0,0,0.833333,926.779,878.333)"
font-family="Ubuntu" font-size="13" font-weight="400" font-style="normal" 
>
</g>

<g fill="none" stroke="#111111" stroke-opacity="1" stroke-width="1" stroke-linecap="square" stroke-linejoin="bevel" transform="matrix(0.833333,0,0,0.833333,926.779,878.333)"
font-family="Ubuntu" font-size="13" font-weight="400" font-style="normal" 
>
<text fill="#111111" fill-opacity="1" stroke="none" xml:space="preserve" x="0" y="10" font-family="Ubuntu" font-size="13" font-weight="400" font-style="normal" 
 >16:04:20.0</text>
</g>

<g fill="none" stroke="#111111" stroke-opacity="1" stroke-width="1" stroke-linecap="square" stroke-linejoin="bevel" transform="matrix(0.833333,0,0,0.833333,926.779,878.333)"
font-family="Ubuntu" font-size="13" font-weight="400" font-style="normal" 
>
<text fill="#111111" fill-opacity="1" stroke="none" xml:space="preserve" x="0" y="25" font-family="Ubuntu" font-size="13" font-weight="400" font-style="normal" 
 >2024 Jul 10</text>
</g>

<g fill="none" stroke="#111111" stroke-opacity="1" stroke-width="1" stroke-linecap="square" stroke-linejoin="bevel" transform="matrix(0.833333,0,0,0.833333,926.779,878.333)"
font-family="Ubuntu" font-size="13" font-weight="400" font-style="normal" 
>
</g>

<g fill="none" stroke="#111111" stroke-opacity="1" stroke-width="1" stroke-linecap="square" stroke-linejoin="bevel" transform="matrix(0.833333,0,0,0.833333,926.779,878.333)"
font-family="Ubuntu" font-size="11.1111" font-weight="400" font-style="normal" 
>
</g>

<g fill="none" stroke="#111111" stroke-opacity="1" stroke-width="1" stroke-linecap="square" stroke-linejoin="bevel" transform="matrix(0.833333,0,0,0.833333,926.779,878.333)"
font-family="Ubuntu" font-size="11.1111" font-weight="400" font-style="normal" 
>
</g>

<g fill="none" stroke="#111111" stroke-opacity="1" stroke-width="1" stroke-linecap="square" stroke-linejoin="bevel" transform="matrix(0.833333,0,0,0.833333,0,0)"
font-family="Ubuntu" font-size="11.1111" font-weight="400" font-style="normal" 
>
</g>

<g fill="none" stroke="#111111" stroke-opacity="1" stroke-width="1" stroke-linecap="square" stroke-linejoin="bevel" transform="matrix(0.833333,0,0,0.833333,1099.68,878.333)"
font-family="Ubuntu" font-size="11.1111" font-weight="400" font-style="normal" 
>
</g>

<g fill="none" stroke="#111111" stroke-opacity="1" stroke-width="1" stroke-linecap="square" stroke-linejoin="bevel" transform="matrix(0.833333,0,0,0.833333,1099.68,878.333)"
font-family="Ubuntu" font-size="13" font-weight="400" font-style="normal" 
>
</g>

<g fill="none" stroke="#111111" stroke-opacity="1" stroke-width="1" stroke-linecap="square" stroke-linejoin="bevel" transform="matrix(0.833333,0,0,0.833333,1099.68,878.333)"
font-family="Ubuntu" font-size="13" font-weight="400" font-style="normal" 
>
</g>

<g fill="none" stroke="#111111" stroke-opacity="1" stroke-width="1" stroke-linecap="square" stroke-linejoin="bevel" transform="matrix(0.833333,0,0,0.833333,1099.68,878.333)"
font-family="Ubuntu" font-size="13" font-weight="400" font-style="normal" 
>
<text fill="#111111" fill-opacity="1" stroke="none" xml:space="preserve" x="0" y="10" font-family="Ubuntu" font-size="13" font-weight="400" font-style="normal" 
 >16:04:40.0</text>
</g>

<g fill="none" stroke="#111111" stroke-opacity="1" stroke-width="1" stroke-linecap="square" stroke-linejoin="bevel" transform="matrix(0.833333,0,0,0.833333,1099.68,878.333)"
font-family="Ubuntu" font-size="13" font-weight="400" font-style="normal" 
>
<text fill="#111111" fill-opacity="1" stroke="none" xml:space="preserve" x="0" y="25" font-family="Ubuntu" font-size="13" font-weight="400" font-style="normal" 
 >2024 Jul 10</text>
</g>

<g fill="none" stroke="#111111" stroke-opacity="1" stroke-width="1" stroke-linecap="square" stroke-linejoin="bevel" transform="matrix(0.833333,0,0,0.833333,1099.68,878.333)"
font-family="Ubuntu" font-size="13" font-weight="400" font-style="normal" 
>
</g>

<g fill="none" stroke="#111111" stroke-opacity="1" stroke-width="1" stroke-linecap="square" stroke-linejoin="bevel" transform="matrix(0.833333,0,0,0.833333,1099.68,878.333)"
font-family="Ubuntu" font-size="11.1111" font-weight="400" font-style="normal" 
>
</g>

<g fill="none" stroke="#111111" stroke-opacity="1" stroke-width="1" stroke-linecap="square" stroke-linejoin="bevel" transform="matrix(0.833333,0,0,0.833333,1099.68,878.333)"
font-family="Ubuntu" font-size="11.1111" font-weight="400" font-style="normal" 
>
</g>

<g fill="none" stroke="#111111" stroke-opacity="1" stroke-width="1" stroke-linecap="square" stroke-linejoin="bevel" transform="matrix(0.833333,0,0,0.833333,0,0)"
font-family="Ubuntu" font-size="11.1111" font-weight="400" font-style="normal" 
>
</g>

<g fill="none" stroke="#000000" stroke-opacity="1" stroke-width="1" stroke-linecap="square" stroke-linejoin="bevel" transform="matrix(0.833333,0,0,0.833333,0,0)"
font-family="Ubuntu" font-size="11.1111" font-weight="400" font-style="normal" 
>
</g>

<g fill="none" stroke="#111111" stroke-opacity="1" stroke-width="1" stroke-linecap="butt" stroke-linejoin="bevel" transform="matrix(0.833333,0,0,0.833333,0,0)"
font-family="Ubuntu" font-size="11.1111" font-weight="400" font-style="normal" 
>
<polyline fill="none" vector-effect="non-scaling-stroke" points="56.61,1040.5 56.61,1045.7 " />
<polyline fill="none" vector-effect="non-scaling-stroke" points="160.349,1040.5 160.349,1045.7 " />
<polyline fill="none" vector-effect="non-scaling-stroke" points="264.088,1040.5 264.088,1045.7 " />
<polyline fill="none" vector-effect="non-scaling-stroke" points="367.827,1040.5 367.827,1045.7 " />
<polyline fill="none" vector-effect="non-scaling-stroke" points="471.566,1040.5 471.566,1045.7 " />
<polyline fill="none" vector-effect="non-scaling-stroke" points="575.305,1040.5 575.305,1045.7 " />
<polyline fill="none" vector-effect="non-scaling-stroke" points="679.044,1040.5 679.044,1045.7 " />
<polyline fill="none" vector-effect="non-scaling-stroke" points="782.782,1040.5 782.782,1045.7 " />
<polyline fill="none" vector-effect="non-scaling-stroke" points="886.521,1040.5 886.521,1045.7 " />
<polyline fill="none" vector-effect="non-scaling-stroke" points="990.26,1040.5 990.26,1045.7 " />
<polyline fill="none" vector-effect="non-scaling-stroke" points="1094,1040.5 1094,1045.7 " />
<polyline fill="none" vector-effect="non-scaling-stroke" points="1197.74,1040.5 1197.74,1045.7 " />
<polyline fill="none" vector-effect="non-scaling-stroke" points="1301.48,1040.5 1301.48,1045.7 " />
<polyline fill="none" vector-effect="non-scaling-stroke" points="1405.22,1040.5 1405.22,1045.7 " />
<polyline fill="none" vector-effect="non-scaling-stroke" points="212.218,1040.5 212.218,1047.7 " />
<polyline fill="none" vector-effect="non-scaling-stroke" points="419.696,1040.5 419.696,1047.7 " />
<polyline fill="none" vector-effect="non-scaling-stroke" points="627.174,1040.5 627.174,1047.7 " />
<polyline fill="none" vector-effect="non-scaling-stroke" points="834.652,1040.5 834.652,1047.7 " />
<polyline fill="none" vector-effect="non-scaling-stroke" points="1042.13,1040.5 1042.13,1047.7 " />
<polyline fill="none" vector-effect="non-scaling-stroke" points="1249.61,1040.5 1249.61,1047.7 " />
<polyline fill="none" vector-effect="non-scaling-stroke" points="108.479,1040.5 108.479,1049.7 " />
<polyline fill="none" vector-effect="non-scaling-stroke" points="315.957,1040.5 315.957,1049.7 " />
<polyline fill="none" vector-effect="non-scaling-stroke" points="523.435,1040.5 523.435,1049.7 " />
<polyline fill="none" vector-effect="non-scaling-stroke" points="730.913,1040.5 730.913,1049.7 " />
<polyline fill="none" vector-effect="non-scaling-stroke" points="938.391,1040.5 938.391,1049.7 " />
<polyline fill="none" vector-effect="non-scaling-stroke" points="1145.87,1040.5 1145.87,1049.7 " />
<polyline fill="none" vector-effect="non-scaling-stroke" points="1353.35,1040.5 1353.35,1049.7 " />
</g>

<g fill="none" stroke="#000000" stroke-opacity="1" stroke-width="1" stroke-linecap="square" stroke-linejoin="bevel" transform="matrix(0.833333,0,0,0.833333,0,0)"
font-family="Ubuntu" font-size="11.1111" font-weight="400" font-style="normal" 
>
</g>

<g fill="none" stroke="#111111" stroke-opacity="1" stroke-width="1" stroke-linecap="butt" stroke-linejoin="bevel" transform="matrix(0.833333,0,0,0.833333,0,0)"
font-family="Ubuntu" font-size="11.1111" font-weight="400" font-style="normal" 
>
<polyline fill="none" vector-effect="non-scaling-stroke" points="39,1040.6 1438,1040.6 " />
</g>

<g fill="none" stroke="#000000" stroke-opacity="1" stroke-width="1" stroke-linecap="square" stroke-linejoin="bevel" transform="matrix(0.833333,0,0,0.833333,0,0)"
font-family="Ubuntu" font-size="11.1111" font-weight="400" font-style="normal" 
>
</g>

<g fill="none" stroke="#000000" stroke-opacity="1" stroke-width="1" stroke-linecap="square" stroke-linejoin="bevel" transform="matrix(0.833333,0,0,0.833333,0,0)"
font-family="Ubuntu" font-size="11.1111" font-weight="400" font-style="normal" 
>
</g>

<g fill="none" stroke="#000000" stroke-opacity="1" stroke-width="1" stroke-linecap="square" stroke-linejoin="bevel" transform="matrix(0.833333,0,0,0.833333,0,0)"
font-family="Ubuntu" font-size="12.2222" font-weight="400" font-style="normal" 
>
</g>

<g fill="none" stroke="#000000" stroke-opacity="1" stroke-width="1" stroke-linecap="square" stroke-linejoin="bevel" transform="matrix(1,0,0,1,0,0)"
font-family="Ubuntu" font-size="12.2222" font-weight="400" font-style="normal" 
>
</g>
</g>
</svg>
