<?xml version="1.0" encoding="UTF-8" standalone="no"?>
<svg viewBox="0 0 1200 900"
 xmlns="http://www.w3.org/2000/svg" xmlns:xlink="http://www.w3.org/1999/xlink"  version="1.2" baseProfile="tiny">
<title>Qt SVG Document</title>
<desc>Generated with Qt</desc>
<defs>
</defs>
<g fill="none" stroke="black" stroke-width="1" fill-rule="evenodd" stroke-linecap="square" stroke-linejoin="bevel" >

<g fill="#ffffff" fill-opacity="1" stroke="none" transform="matrix(1,0,0,1,0,0)"
font-family="Ubuntu" font-size="12.2222" font-weight="400" font-style="normal" 
>
<rect x="0" y="0" width="1200" height="900"/>
</g>

<g fill="none" stroke="#000000" stroke-opacity="1" stroke-width="1" stroke-linecap="square" stroke-linejoin="bevel" transform="matrix(1,0,0,1,0,0)"
font-family="Ubuntu" font-size="12.2222" font-weight="400" font-style="normal" 
>
</g>

<g fill="none" stroke="#000000" stroke-opacity="1" stroke-width="1" stroke-linecap="square" stroke-linejoin="bevel" transform="matrix(0.833333,0,0,0.833333,0,0)"
font-family="Ubuntu" font-size="12.2222" font-weight="400" font-style="normal" 
>
</g>

<g fill="#ffffff" fill-opacity="1" stroke="none" transform="matrix(0.833333,0,0,0.833333,0,0)"
font-family="Ubuntu" font-size="12.2222" font-weight="400" font-style="normal" 
>
<rect x="38" y="0" width="1401" height="1038"/>
</g>

<g fill="none" stroke="#000000" stroke-opacity="1" stroke-width="1" stroke-linecap="square" stroke-linejoin="bevel" transform="matrix(0.833333,0,0,0.833333,0,0)"
font-family="Ubuntu" font-size="12.2222" font-weight="400" font-style="normal" 
>
</g>

<g fill="none" stroke="#000000" stroke-opacity="1" stroke-width="1" stroke-linecap="square" stroke-linejoin="bevel" transform="matrix(0.833333,0,0,0.833333,0,0)"
font-family="Ubuntu" font-size="12.2222" font-weight="400" font-style="normal" 
>
</g>

<g fill="none" stroke="#a0a0a4" stroke-opacity="1" stroke-dasharray="1,2" stroke-dashoffset="0" stroke-width="1" stroke-linecap="butt" stroke-linejoin="bevel" transform="matrix(0.833333,0,0,0.833333,0,0)"
font-family="Ubuntu" font-size="12.2222" font-weight="400" font-style="normal" 
>
<polyline fill="none" vector-effect="non-scaling-stroke" points="65.113,0 65.113,1038 " />
<polyline fill="none" vector-effect="non-scaling-stroke" points="171.059,0 171.059,1038 " />
<polyline fill="none" vector-effect="non-scaling-stroke" points="277.005,0 277.005,1038 " />
<polyline fill="none" vector-effect="non-scaling-stroke" points="382.952,0 382.952,1038 " />
<polyline fill="none" vector-effect="non-scaling-stroke" points="488.898,0 488.898,1038 " />
<polyline fill="none" vector-effect="non-scaling-stroke" points="594.844,0 594.844,1038 " />
<polyline fill="none" vector-effect="non-scaling-stroke" points="700.79,0 700.79,1038 " />
<polyline fill="none" vector-effect="non-scaling-stroke" points="806.737,0 806.737,1038 " />
<polyline fill="none" vector-effect="non-scaling-stroke" points="912.683,0 912.683,1038 " />
<polyline fill="none" vector-effect="non-scaling-stroke" points="1018.63,0 1018.63,1038 " />
<polyline fill="none" vector-effect="non-scaling-stroke" points="1124.58,0 1124.58,1038 " />
<polyline fill="none" vector-effect="non-scaling-stroke" points="1230.52,0 1230.52,1038 " />
<polyline fill="none" vector-effect="non-scaling-stroke" points="1336.47,0 1336.47,1038 " />
<polyline fill="none" vector-effect="non-scaling-stroke" points="224.032,0 224.032,1038 " />
<polyline fill="none" vector-effect="non-scaling-stroke" points="435.925,0 435.925,1038 " />
<polyline fill="none" vector-effect="non-scaling-stroke" points="647.817,0 647.817,1038 " />
<polyline fill="none" vector-effect="non-scaling-stroke" points="859.71,0 859.71,1038 " />
<polyline fill="none" vector-effect="non-scaling-stroke" points="1071.6,0 1071.6,1038 " />
<polyline fill="none" vector-effect="non-scaling-stroke" points="1283.49,0 1283.49,1038 " />
<polyline fill="none" vector-effect="non-scaling-stroke" points="38,978.994 1439,978.994 " />
<polyline fill="none" vector-effect="non-scaling-stroke" points="38,945.54 1439,945.54 " />
<polyline fill="none" vector-effect="non-scaling-stroke" points="38,912.086 1439,912.086 " />
<polyline fill="none" vector-effect="non-scaling-stroke" points="38,878.632 1439,878.632 " />
<polyline fill="none" vector-effect="non-scaling-stroke" points="38,811.723 1439,811.723 " />
<polyline fill="none" vector-effect="non-scaling-stroke" points="38,778.269 1439,778.269 " />
<polyline fill="none" vector-effect="non-scaling-stroke" points="38,744.815 1439,744.815 " />
<polyline fill="none" vector-effect="non-scaling-stroke" points="38,711.361 1439,711.361 " />
<polyline fill="none" vector-effect="non-scaling-stroke" points="38,644.453 1439,644.453 " />
<polyline fill="none" vector-effect="non-scaling-stroke" points="38,610.999 1439,610.999 " />
<polyline fill="none" vector-effect="non-scaling-stroke" points="38,577.545 1439,577.545 " />
<polyline fill="none" vector-effect="non-scaling-stroke" points="38,544.091 1439,544.091 " />
<polyline fill="none" vector-effect="non-scaling-stroke" points="38,477.182 1439,477.182 " />
<polyline fill="none" vector-effect="non-scaling-stroke" points="38,443.728 1439,443.728 " />
<polyline fill="none" vector-effect="non-scaling-stroke" points="38,410.274 1439,410.274 " />
<polyline fill="none" vector-effect="non-scaling-stroke" points="38,376.82 1439,376.82 " />
<polyline fill="none" vector-effect="non-scaling-stroke" points="38,309.912 1439,309.912 " />
<polyline fill="none" vector-effect="non-scaling-stroke" points="38,276.458 1439,276.458 " />
<polyline fill="none" vector-effect="non-scaling-stroke" points="38,243.004 1439,243.004 " />
<polyline fill="none" vector-effect="non-scaling-stroke" points="38,209.549 1439,209.549 " />
<polyline fill="none" vector-effect="non-scaling-stroke" points="38,142.641 1439,142.641 " />
<polyline fill="none" vector-effect="non-scaling-stroke" points="38,109.187 1439,109.187 " />
<polyline fill="none" vector-effect="non-scaling-stroke" points="38,75.733 1439,75.733 " />
<polyline fill="none" vector-effect="non-scaling-stroke" points="38,42.2789 1439,42.2789 " />
<polyline fill="none" vector-effect="non-scaling-stroke" points="118.086,0 118.086,1038 " />
<polyline fill="none" vector-effect="non-scaling-stroke" points="329.979,0 329.979,1038 " />
<polyline fill="none" vector-effect="non-scaling-stroke" points="541.871,0 541.871,1038 " />
<polyline fill="none" vector-effect="non-scaling-stroke" points="753.764,0 753.764,1038 " />
<polyline fill="none" vector-effect="non-scaling-stroke" points="965.656,0 965.656,1038 " />
<polyline fill="none" vector-effect="non-scaling-stroke" points="1177.55,0 1177.55,1038 " />
<polyline fill="none" vector-effect="non-scaling-stroke" points="1389.44,0 1389.44,1038 " />
<polyline fill="none" vector-effect="non-scaling-stroke" points="38,1012.45 1439,1012.45 " />
<polyline fill="none" vector-effect="non-scaling-stroke" points="38,845.178 1439,845.178 " />
<polyline fill="none" vector-effect="non-scaling-stroke" points="38,677.907 1439,677.907 " />
<polyline fill="none" vector-effect="non-scaling-stroke" points="38,510.636 1439,510.636 " />
<polyline fill="none" vector-effect="non-scaling-stroke" points="38,343.366 1439,343.366 " />
<polyline fill="none" vector-effect="non-scaling-stroke" points="38,176.095 1439,176.095 " />
<polyline fill="none" vector-effect="non-scaling-stroke" points="38,8.82478 1439,8.82478 " />
</g>

<g fill="none" stroke="#000000" stroke-opacity="1" stroke-width="1" stroke-linecap="square" stroke-linejoin="bevel" transform="matrix(0.833333,0,0,0.833333,0,0)"
font-family="Ubuntu" font-size="12.2222" font-weight="400" font-style="normal" 
>
</g>

<g fill="none" stroke="#000000" stroke-opacity="1" stroke-width="1" stroke-linecap="square" stroke-linejoin="bevel" transform="matrix(0.833333,0,0,0.833333,0,0)"
font-family="Ubuntu" font-size="12.2222" font-weight="400" font-style="normal" 
>
</g>

<g fill="none" stroke="#d62728" stroke-opacity="1" stroke-width="1.3" stroke-linecap="square" stroke-linejoin="bevel" transform="matrix(0.833333,0,0,0.833333,0,0)"
font-family="Ubuntu" font-size="12.2222" font-weight="400" font-style="normal" 
>
<polyline fill="none" vector-effect="none" points="39,508.78 39.5316,508.78 40.1675,508.78 40.695,508.78 41.3336,508.78 41.8639,508.78 42.391,508.78 42.9222,508.78 43.4509,508.78 44.0876,508.78 44.6184,508.78 45.1476,508.78 45.6748,508.78 46.3116,508.78 46.8409,508.78 47.4767,508.78 48.0069,508.78 48.5359,508.78 49.1717,508.78 49.7022,508.78 50.2299,508.78 50.8674,508.78 51.3965,508.78 51.9266,508.78 52.564,508.78 53.0915,508.78 53.6212,508.78 54.2589,508.78 54.7878,508.78 55.4231,508.78 55.9525,508.78 56.4819,508.78 57.0105,508.78 57.6483,508.78 58.1768,508.78 58.7077,508.78 59.3448,508.78 59.8737,508.78 60.4035,508.78 60.9312,508.78 61.5689,508.78 62.0993,508.78 62.6291,508.78 63.1579,508.78 63.7945,508.78 64.4298,508.78 64.8519,508.78 65.489,508.78 66.0173,508.78 66.5468,508.78 67.183,508.78 67.7136,508.78 68.2427,508.78 68.8787,508.78 69.4087,508.78 69.9375,508.78 70.5735,508.78 71.1051,508.78 71.6336,508.78 72.1632,508.78 72.7998,508.78 73.3284,508.78 73.8576,508.78 74.389,508.78 75.0232,508.78 75.5542,508.78 76.1902,508.78 76.7205,508.78 77.2483,508.78 77.7781,508.78 78.4133,508.78 78.9445,508.78 79.5809,508.78 80.1089,508.78 80.6388,508.78 81.1689,508.78 81.6978,508.78 82.2268,508.78 82.8615,508.78 83.393,508.78 84.0275,508.78 84.5583,508.78 85.1942,508.78 85.7237,508.78 86.3615,508.78 86.994,508.78 87.5246,508.78 88.1604,508.78 88.6918,508.78 89.2199,508.78 89.8561,508.78 90.3864,508.78 90.9161,508.78 91.4469,508.78 91.9761,508.78 92.6109,508.78 93.1423,508.78 93.669,508.78 94.3035,508.78 94.8337,508.78 95.3654,508.78 96.001,508.78 96.5335,508.78 97.0601,508.78 97.6976,508.78 98.2278,508.78 98.757,508.78 99.2868,508.78 99.9234,508.78 100.451,508.78 100.981,508.78 101.509,508.78 102.144,508.78 102.677,508.78 103.203,508.78 103.736,508.78 104.263,508.78 104.902,508.979 105.431,509.835 105.959,511.915 106.594,515.869 107.231,521.588 107.76,528.033 108.501,536.822 109.031,546.389 109.56,557.19 110.197,569.101 110.833,581.018 111.362,594.89 111.893,608.461 112.423,622.668 113.058,637.476 113.587,652.741 114.117,668.39 114.648,684.306 115.179,700.481 115.92,717.941 116.343,734.273 116.872,750.524 117.508,767.893 118.25,786.192 118.674,801.769 119.308,816.915 119.73,831.693 120.367,847.113 120.896,860.777 121.638,875.878 122.171,889.282 122.806,901.878 123.441,914.551 123.971,925.587 124.502,935.085 125.138,943.942 125.665,953.268 126.3,960.593 126.937,967.875 127.467,974.018 127.995,979.477 128.525,984.79 129.055,988.825 129.691,992.986 130.221,996.38 130.75,999.57 131.385,1002.07 131.916,1004.47 132.444,1006.3 133.081,1007.88 133.613,1009.22 134.246,1010.16 134.776,1011.09 135.41,1011.73 135.942,1012.08 136.579,1012.3 137.106,1012.33 137.742,1012.3 138.377,1012.2 139.013,1011.87 139.546,1011.47 140.18,1011.13 140.816,1010.68 141.239,1010.31 141.876,1009.87 142.402,1009.45 142.934,1008.93 143.57,1008.29 143.994,1007.81 144.628,1007.23 145.265,1006.53 145.794,1005.9 146.324,1005.27 146.855,1004.64 147.386,1003.98 147.914,1003.35 148.444,1002.75 148.973,1002.1 149.609,1001.47 150.138,1000.82 150.774,1000.17 151.302,999.582 151.94,999.032 152.47,998.51 153.105,998.039 153.634,997.556 154.165,997.132 154.8,996.763 155.329,996.465 155.859,996.187 156.39,996.01 156.92,995.863 157.448,995.759 158.085,995.711 158.614,995.654 159.354,995.494 159.781,995.318 160.311,995.081 160.945,994.796 161.473,994.462 162.005,994.044 162.534,993.638 163.065,993.197 163.7,992.665 164.227,992.14 164.971,991.482 165.395,990.886 166.032,990.253 166.667,989.483 167.195,988.842 167.832,988.213 168.362,987.539 168.891,986.911 169.423,986.264 170.057,985.622 170.693,984.998 171.116,984.347 171.647,983.727 172.282,983.157 172.81,982.602 173.447,982.081 173.872,981.584 174.505,981.124 175.036,980.675 175.565,980.25 176.202,979.899 176.836,979.606 177.367,979.383 178.003,979.16 178.637,979.058 179.168,979.005 179.697,978.931 180.333,978.813 180.861,978.619 181.497,978.354 182.028,978.103 182.558,977.801 183.086,977.426 183.725,976.977 184.359,976.437 184.889,975.944 185.524,975.373 186.054,974.817 186.586,974.231 187.22,973.534 187.858,972.811 188.491,972.14 189.023,971.423 189.551,970.801 190.078,970.158 190.715,969.448 191.349,968.673 191.987,968.057 192.519,967.388 193.046,966.843 193.576,966.253 194.215,965.71 194.742,965.186 195.272,964.744 195.801,964.294 196.332,963.857 196.861,963.457 197.39,963.167 197.92,962.888 198.449,962.66 199.086,962.466 199.613,962.365 200.252,962.287 200.887,962.217 201.416,962.077 202.053,961.909 202.688,961.688 203.114,961.41 203.746,961.069 204.277,960.693 204.911,960.248 205.443,959.749 206.078,959.232 206.714,958.596 207.35,957.984 207.881,957.364 208.516,956.721 209.046,956.087 209.572,955.394 210.21,954.726 210.845,954.017 211.375,953.32 211.903,952.663 212.54,952.041 213.069,951.356 213.704,950.667 214.236,950.087 214.872,949.427 215.403,948.892 216.036,948.333 216.674,947.786 217.201,947.343 217.73,946.95 218.368,946.606 218.899,946.283 219.427,946.012 220.062,945.813 220.595,945.664 221.123,945.592 221.654,945.54 222.289,945.448 222.818,945.287 223.453,945.098 223.981,944.873 224.617,944.553 225.254,944.175 225.891,943.728 226.42,943.244 226.948,942.757 227.583,942.186 228.219,941.597 228.855,941.011 229.279,940.42 229.915,939.81 230.446,939.13 230.973,938.421 231.61,937.783 232.142,937.144 232.669,936.491 233.305,935.797 233.837,935.212 234.363,934.579 234.898,933.966 235.424,933.381 236.061,932.765 236.592,932.269 237.12,931.728 237.65,931.244 238.179,930.8 238.815,930.353 239.347,929.984 239.872,929.649 240.51,929.377 240.932,929.155 241.571,928.989 242.101,928.89 242.631,928.837 243.159,928.767 243.688,928.668 244.323,928.506 244.855,928.248 245.491,927.998 246.02,927.677 246.551,927.33 247.079,926.908 247.715,926.421 248.35,925.841 248.984,925.275 249.515,924.69 250.152,924.062 250.786,923.452 251.315,922.788 251.848,922.155 252.485,921.457 253.011,920.767 253.648,920.057 254.178,919.408 254.709,918.769 255.341,918.104 255.876,917.477 256.403,916.849 257.04,916.191 257.567,915.647 258.204,915.113 258.731,914.631 259.367,914.125 259.791,913.709 260.427,913.339 260.961,912.978 261.487,912.712 262.019,912.487 262.654,912.293 263.184,912.192 263.713,912.121 264.35,912.048 264.878,911.951 265.619,911.746 266.149,911.508 266.677,911.215 267.208,910.918 267.949,910.554 268.375,910.12 268.904,909.726 269.435,909.192 269.963,908.664 270.597,908.123 271.34,907.447 271.765,906.814 272.4,906.184 272.929,905.555 273.459,904.949 273.99,904.332 274.52,903.68 275.156,902.995 275.791,902.297 276.322,901.668 276.743,901.054 277.381,900.38 278.121,899.703 278.545,899.147 279.182,898.566 279.818,897.966 280.346,897.522 280.876,897.084 281.407,896.727 282.043,896.292 282.784,896.002 283.208,895.751 283.842,895.562 284.478,895.436 285.005,895.385 285.535,895.317 286.068,895.207 286.701,895.042 287.232,894.804 287.868,894.534 288.398,894.214 288.927,893.874 289.563,893.395 290.093,892.937 290.729,892.377 291.365,891.849 292,891.211 292.638,890.59 293.059,889.938 293.696,889.282 294.33,888.605 294.964,887.887 295.496,887.16 296.025,886.529 296.555,885.925 297.085,885.276 297.72,884.647 298.25,884.042 298.78,883.355 299.415,882.786 299.947,882.23 300.475,881.704 301.11,881.201 301.642,880.695 302.17,880.254 302.806,879.846 303.337,879.554 303.866,879.226 304.502,879.007 305.031,878.811 305.561,878.733 306.197,878.662 306.727,878.589 307.255,878.496 307.891,878.32 308.528,878.054 309.056,877.787 309.586,877.494 310.222,877.109 310.752,876.701 311.386,876.217 311.916,875.667 312.446,875.139 313.082,874.535 313.614,873.964 314.142,873.364 314.777,872.756 315.308,872.068 315.837,871.421 316.366,870.787 317.003,870.089 317.532,869.487 318.167,868.738 318.805,868.049 319.334,867.395 319.863,866.792 320.604,866.1 321.136,865.546 321.665,864.946 322.195,864.471 322.831,863.987 323.465,863.531 323.996,863.128 324.527,862.814 325.162,862.498 325.798,862.241 326.325,862.093 326.857,861.99 327.492,861.924 328.128,861.834 328.656,861.697 329.293,861.489 329.823,861.251 330.458,860.956 331.096,860.616 331.624,860.21 332.154,859.75 332.683,859.322 333.213,858.82 333.741,858.292 334.377,857.644 335.013,857.048 335.543,856.5 336.074,855.874 336.604,855.202 337.239,854.556 337.77,853.866 338.404,853.215 338.934,852.572 339.463,851.925 339.991,851.284 340.523,850.662 341.159,849.967 341.686,849.392 342.325,848.774 342.853,848.2 343.596,847.646 344.124,847.169 344.76,846.731 345.29,846.352 345.925,845.951 346.454,845.685 347.197,845.444 347.726,845.326 348.256,845.228 348.891,845.179 349.422,845.086 349.951,844.955 350.589,844.725 351.118,844.482 351.752,844.169 352.284,843.807 352.919,843.422 353.447,842.974 354.19,842.38 354.614,841.9 355.251,841.303 355.884,840.689 356.308,840.186 356.946,839.475 357.473,838.904 358.004,838.21 358.534,837.636 359.167,836.921 359.803,836.174 360.335,835.503 360.969,834.865 361.501,834.134 362.135,833.513 362.665,832.874 363.406,832.278 363.831,831.728 364.465,831.208 364.996,830.704 365.526,830.255 366.163,829.826 366.689,829.465 367.325,829.118 367.962,828.875 368.597,828.66 369.126,828.54 369.657,828.485 370.295,828.418 370.824,828.304 371.457,828.148 371.881,827.934 372.521,827.674 373.05,827.382 373.578,827.035 374.107,826.622 374.742,826.149 375.38,825.627 375.91,825.105 376.439,824.562 376.967,823.961 377.606,823.368 378.134,822.752 378.664,822.15 379.194,821.513 379.827,820.856 380.359,820.115 380.992,819.453 381.523,818.764 382.054,818.171 382.797,817.504 383.324,816.794 383.961,816.155 384.596,815.542 385.128,814.924 385.763,814.331 386.398,813.834 386.926,813.408 387.458,812.983 388.091,812.604 388.621,812.319 389.258,812.087 389.789,811.935 390.317,811.816 390.954,811.744 391.482,811.671 392.012,811.581 392.54,811.427 393.071,811.197 393.706,810.98 394.238,810.67 394.768,810.317 395.294,809.913 395.827,809.506 396.355,809.033 396.993,808.514 397.521,807.944 398.157,807.279 398.792,806.643 399.322,806.028 399.851,805.413 400.488,804.724 401.018,804.068 401.547,803.421 402.076,802.765 402.714,802.051 403.241,801.39 403.984,800.664 404.515,800.002 405.151,799.368 405.68,798.77 406.314,798.213 406.844,797.673 407.375,797.199 407.904,796.796 408.54,796.395 408.962,796.06 409.388,795.819 410.021,795.566 410.447,795.329 411.082,795.164 411.613,795.068 412.248,795.015 412.78,794.945 413.307,794.837 413.942,794.636 414.473,794.378 415.215,794.064 415.744,793.727 416.275,793.329 416.912,792.859 417.437,792.411 418.074,791.847 418.709,791.255 419.239,790.688 419.768,790.099 420.299,789.508 420.935,788.826 421.464,788.209 421.994,787.553 422.63,786.898 423.159,786.213 423.902,785.412 424.539,784.681 424.961,784.076 425.599,783.387 426.127,782.826 426.765,782.214 427.291,781.654 427.822,781.136 428.457,780.637 428.986,780.189 429.622,779.746 430.154,779.363 430.789,778.987 431.425,778.689 431.955,778.521 432.482,778.38 433.121,778.306 433.756,778.236 434.285,778.145 434.92,777.991 435.449,777.766 435.979,777.549 436.616,777.242 437.039,776.905 437.57,776.531 438.205,776.079 438.735,775.566 439.37,775.071 439.898,774.536 440.431,773.997 441.067,773.287 441.702,772.652 442.231,772.003 442.761,771.415 443.396,770.684 443.927,770.044 444.456,769.32 444.983,768.68 445.619,767.931 446.361,767.211 446.996,766.491 447.528,765.827 448.165,765.192 448.798,764.61 449.329,764.095 449.964,763.645 450.496,763.201 451.023,762.827 451.661,762.474 452.188,762.15 452.718,761.94 453.355,761.771 453.884,761.631 454.521,761.555 455.157,761.486 455.579,761.398 456.215,761.2 456.851,760.963 457.487,760.66 458.122,760.305 458.652,759.903 459.18,759.523 459.816,758.987 460.348,758.496 460.984,757.883 461.513,757.321 462.042,756.74 462.572,756.134 463.208,755.527 463.738,754.897 464.267,754.25 464.902,753.543 465.435,752.909 466.068,752.192 466.596,751.558 467.128,750.928 467.655,750.281 468.187,749.671 468.822,749.062 469.46,748.467 469.988,747.928 470.518,747.419 471.045,746.947 471.579,746.526 472.213,746.151 472.743,745.778 473.274,745.496 473.802,745.263 474.332,745.051 474.968,744.936 475.496,744.862 476.028,744.792 476.557,744.724 477.087,744.592 477.722,744.391 478.251,744.137 478.887,743.828 479.416,743.493 479.946,743.094 480.476,742.652 481.112,742.188 481.641,741.696 482.171,741.161 482.703,740.585 483.232,739.999 483.867,739.41 484.399,738.785 485.032,738.157 485.457,737.509 486.09,736.829 486.622,736.175 487.256,735.471 487.892,734.825 488.317,734.191 488.848,733.565 489.481,732.909 490.011,732.299 490.647,731.706 491.177,731.16 491.706,730.667 492.343,730.176 492.87,729.784 493.508,729.32 494.039,728.994 494.673,728.714 495.098,728.481 495.626,728.294 496.264,728.197 496.791,728.106 497.429,728.058 497.853,727.97 498.489,727.793 499.123,727.588 499.759,727.24 500.29,726.953 500.925,726.514 501.561,726.066 502.09,725.574 502.617,725.068 503.255,724.553 503.785,723.993 504.314,723.433 504.95,722.759 505.481,722.103 506.115,721.384 506.752,720.667 507.283,720.014 507.812,719.43 508.447,718.733 508.976,718.088 509.506,717.394 510.141,716.786 510.673,716.248 511.203,715.606 511.943,714.97 512.473,714.395 513.002,713.862 513.64,713.4 514.167,712.978 514.803,712.558 515.333,712.234 515.756,712.002 516.287,711.745 516.817,711.602 517.451,711.447 518.086,711.391 518.616,711.323 519.147,711.21 519.678,711.061 520.314,710.854 520.842,710.6 521.373,710.294 521.899,709.913 522.539,709.52 523.067,709.032 523.595,708.563 524.232,708.05 524.763,707.499 525.291,706.874 526.034,706.265 526.458,705.642 526.986,704.997 527.622,704.349 528.152,703.722 528.681,703.009 529.212,702.411 529.849,701.778 530.378,701.115 530.906,700.505 531.437,699.943 531.965,699.323 532.496,698.718 533.131,698.158 533.661,697.598 534.297,697.02 535.037,696.511 535.569,696.068 536.098,695.699 536.629,695.4 537.264,695.136 537.794,694.933 538.427,694.774 538.958,694.679 539.593,694.631 540.124,694.524 540.759,694.387 541.289,694.191 541.82,693.962 542.35,693.681 542.879,693.343 543.515,692.949 544.047,692.482 544.681,692.002 545.21,691.407 545.952,690.893 546.375,690.321 546.905,689.741 547.435,689.117 547.962,688.562 548.599,687.931 549.023,687.283 549.659,686.587 550.399,685.83 550.826,685.197 551.46,684.549 551.99,683.925 552.52,683.319 553.157,682.698 553.581,682.119 554.109,681.561 554.851,681.036 555.275,680.546 555.91,679.978 556.44,679.562 557.075,679.164 557.71,678.803 558.239,678.518 558.771,678.289 559.513,678.102 559.936,677.984 560.57,677.912 561.101,677.845 561.632,677.738 562.162,677.581 562.798,677.358 563.327,677.085 563.961,676.756 564.597,676.352 565.022,675.935 565.763,675.384 566.186,674.899 566.822,674.322 567.457,673.741 567.988,673.145 568.729,672.4 569.259,671.686 569.893,670.969 570.532,670.323 571.062,669.613 571.696,668.872 572.329,668.227 572.863,667.54 573.389,666.9 574.027,666.256 574.662,665.677 575.191,665.053 575.724,664.501 576.358,663.922 576.888,663.411 577.418,662.997 578.054,662.533 578.687,662.161 579.324,661.816 579.852,661.562 580.49,661.375 581.02,661.262 581.656,661.208 582.29,661.123 582.821,660.99 583.457,660.833 583.984,660.612 584.619,660.292 585.15,659.976 585.788,659.579 586.316,659.142 586.847,658.703 587.482,658.174 588.013,657.642 588.542,657.112 589.071,656.514 589.705,655.871 590.235,655.209 590.766,654.563 591.401,653.942 591.931,653.339 592.462,652.693 592.993,651.999 593.627,651.307 594.156,650.643 594.794,649.931 595.426,649.302 595.958,648.703 596.485,648.087 597.123,647.487 597.759,646.977 598.393,646.456 598.924,646.041 599.454,645.653 600.091,645.303 600.727,645.03 601.256,644.819 601.677,644.656 602.315,644.538 602.845,644.471 603.48,644.385 604.008,644.273 604.646,644.121 605.174,643.893 605.704,643.641 606.235,643.313 606.871,642.894 607.611,642.411 608.143,641.887 608.67,641.398 609.2,640.842 609.837,640.288 610.366,639.692 611.002,639.044 611.423,638.492 611.954,637.83 612.697,637.09 613.225,636.399 613.757,635.757 614.393,635.049 615.028,634.356 615.557,633.671 616.192,633.028 616.723,632.387 617.359,631.701 617.886,631.17 618.522,630.579 619.054,630.139 619.691,629.654 620.218,629.216 620.854,628.842 621.384,628.521 621.809,628.292 622.339,628.103 622.869,627.924 623.398,627.811 624.033,627.74 624.564,627.672 625.092,627.584 625.621,627.428 626.362,627.182 626.895,626.866 627.529,626.535 628.167,626.113 628.694,625.652 629.331,625.173 629.966,624.688 630.391,624.157 631.025,623.564 631.557,622.987 632.192,622.323 632.72,621.707 633.25,621.04 633.885,620.333 634.415,619.669 635.051,618.935 635.58,618.318 636.11,617.675 636.641,617.055 637.276,616.334 637.914,615.742 638.442,615.119 639.183,614.475 639.818,613.88 640.348,613.351 640.879,612.89 641.515,612.479 642.045,612.071 642.679,611.722 643.208,611.469 643.843,611.264 644.374,611.105 644.904,611.031 645.54,610.984 646.068,610.917 646.598,610.766 647.34,610.547 647.977,610.247 648.506,609.926 649.035,609.62 649.565,609.203 650.201,608.702 650.73,608.176 651.366,607.671 652.002,607.076 652.426,606.504 653.062,605.839 653.698,605.217 654.229,604.533 654.863,603.844 655.499,603.154 656.029,602.397 656.665,601.708 657.192,601.063 657.722,600.424 658.359,599.779 659.101,599.073 659.63,598.39 660.16,597.838 660.795,597.33 661.325,596.809 661.854,596.409 662.383,595.934 663.021,595.498 663.55,595.154 664.187,594.876 664.714,594.65 665.245,594.465 665.881,594.348 666.413,594.281 666.938,594.214 667.577,594.103 668.106,593.927 668.743,593.705 669.272,593.449 669.801,593.126 670.437,592.73 670.967,592.319 671.495,591.877 672.025,591.375 672.661,590.825 673.299,590.209 673.826,589.612 674.461,588.954 674.888,588.447 675.631,587.779 676.053,587.095 676.58,586.478 677.216,585.773 677.853,585.038 678.383,584.35 678.912,583.754 679.549,583.09 680.08,582.475 680.608,581.836 681.352,581.212 681.88,580.577 682.516,580.073 683.153,579.549 683.681,579.136 684.211,578.791 684.843,578.403 685.483,578.082 686.009,577.874 686.539,577.709 687.176,577.615 687.813,577.546 688.448,577.458 688.977,577.306 689.612,577.111 690.248,576.838 690.777,576.516 691.414,576.191 691.943,575.71 692.579,575.318 693.108,574.811 693.639,574.261 694.168,573.73 694.803,573.157 695.44,572.499 695.863,571.899 696.5,571.281 697.136,570.549 697.771,569.909 698.3,569.11 698.936,568.466 699.466,567.808 699.995,567.123 700.631,566.486 701.162,565.841 701.796,565.201 702.324,564.678 702.855,564.086 703.492,563.574 704.02,563.05 704.658,562.574 705.188,562.181 705.717,561.836 706.351,561.496 706.988,561.222 707.624,561.034 708.259,560.896 708.789,560.846 709.319,560.762 709.848,560.654 710.484,560.499 711.12,560.277 711.543,560.005 712.179,559.66 712.708,559.291 713.449,558.852 713.982,558.366 714.619,557.842 715.147,557.313 715.569,556.763 716.312,556.146 716.84,555.441 717.372,554.842 718.008,554.222 718.536,553.564 719.065,552.942 719.597,552.331 720.23,551.512 720.762,550.889 721.397,550.252 722.031,549.52 722.56,548.924 723.197,548.304 723.621,547.712 724.258,547.207 724.787,546.66 725.529,546.116 726.058,545.681 726.589,545.269 727.224,544.93 727.752,544.672 728.176,544.491 728.709,544.307 729.342,544.187 729.871,544.12 730.507,544.053 731.036,543.942 731.673,543.769 732.203,543.548 732.839,543.256 733.369,542.949 733.9,542.621 734.429,542.208 735.064,541.752 735.594,541.202 736.23,540.683 736.759,540.124 737.393,539.534 737.923,538.941 738.454,538.277 738.984,537.657 739.512,537.067 740.148,536.339 740.677,535.743 741.209,535.074 741.846,534.348 742.482,533.597 743.01,532.92 743.752,532.277 744.174,531.64 744.811,531.087 745.446,530.515 745.978,530.012 746.507,529.491 747.036,529.056 747.671,528.644 748.201,528.323 748.837,528.045 749.366,527.794 749.897,527.586 750.425,527.472 750.958,527.402 751.591,527.331 752.228,527.223 752.755,527.072 753.391,526.847 753.922,526.576 754.45,526.319 755.087,525.886 755.619,525.491 756.359,524.965 756.782,524.479 757.417,523.91 758.055,523.316 758.583,522.697 759.113,522.086 759.751,521.44 760.384,520.696 761.021,519.962 761.551,519.258 762.184,518.636 762.715,517.914 763.244,517.278 763.882,516.659 764.411,516.042 765.045,515.382 765.576,514.806 766.105,514.257 766.637,513.707 767.166,513.251 767.693,512.789 768.328,512.327 768.86,511.921 769.388,511.576 770.025,511.254 770.663,511.027 771.193,510.843 771.825,510.725 772.463,510.656 773.098,510.571 773.521,510.46 774.156,510.285 774.687,510.043 775.217,509.807 775.959,509.462 776.489,509.006 777.123,508.506 777.654,508.05 778.288,507.551 778.817,506.995 779.348,506.408 779.878,505.853 780.512,505.26 781.044,504.623 781.572,504.097 781.996,503.483 782.525,502.858 783.162,502.151 783.796,501.332 784.328,500.692 784.964,500.052 785.493,499.453 786.023,498.843 786.551,498.224 787.187,497.654 787.824,497.041 788.354,496.564 788.884,496.039 789.519,495.603 790.154,495.174 790.684,494.876 791.215,494.551 791.85,494.303 792.378,494.119 792.911,494.019 793.439,493.928 794.18,493.882 794.71,493.77 795.346,493.602 795.77,493.36 796.405,493.086 796.936,492.788 797.463,492.413 798.102,492.018 798.628,491.518 799.266,490.989 799.795,490.463 800.325,489.91 800.96,489.246 801.702,488.539 802.125,487.922 802.764,487.302 803.398,486.572 803.928,485.911 804.459,485.272 804.987,484.615 805.518,483.992 806.045,483.355 806.681,482.692 807.211,482.128 807.741,481.553 808.377,480.979 808.908,480.432 809.438,479.91 809.967,479.448 810.603,479.012 811.131,478.603 811.661,478.217 812.191,477.916 812.828,477.644 813.462,477.416 813.993,477.299 814.523,477.208 815.053,477.162 815.58,477.074 816.217,476.902 816.853,476.725 817.383,476.453 817.914,476.192 818.546,475.8 819.076,475.388 819.713,474.925 820.242,474.449 820.877,473.855 821.408,473.283 822.043,472.666 822.679,471.981 823.316,471.369 823.846,470.687 824.376,470.05 824.906,469.403 825.542,468.716 826.071,468.052 826.599,467.409 827.236,466.721 827.765,466.087 828.294,465.44 828.822,464.876 829.459,464.28 830.096,463.733 830.626,463.183 831.155,462.704 831.686,462.224 832.321,461.856 832.852,461.493 833.379,461.175 834.017,460.903 834.439,460.763 834.97,460.619 835.5,460.528 836.029,460.479 836.664,460.394 837.3,460.242 837.723,460.087 838.358,459.825 838.887,459.526 839.526,459.219 840.054,458.785 840.69,458.344 841.325,457.823 841.857,457.293 842.491,456.764 843.02,456.213 843.551,455.623 844.188,454.886 844.714,454.251 845.352,453.678 845.882,452.99 846.518,452.238 847.045,451.595 847.681,450.915 848.215,450.228 848.848,449.56 849.376,448.896 850.012,448.211 850.648,447.597 851.177,447.002 851.707,446.547 852.342,445.993 852.979,445.534 853.508,445.077 854.145,444.688 854.675,444.393 855.416,444.114 855.946,443.951 856.581,443.813 857.109,443.746 857.745,443.699 858.275,443.588 858.912,443.412 859.442,443.17 859.97,442.901 860.605,442.55 861.138,442.159 861.667,441.746 862.409,441.212 862.936,440.712 863.468,440.132 864.103,439.517 864.632,438.922 865.266,438.238 865.902,437.634 866.539,436.885 867.069,436.182 867.599,435.541 868.234,434.9 868.765,434.209 869.401,433.503 870.037,432.773 870.565,432.126 871.307,431.42 871.73,430.848 872.366,430.318 872.895,429.768 873.425,429.284 874.064,428.851 874.7,428.373 875.228,428.031 875.758,427.73 876.498,427.454 876.924,427.27 877.452,427.152 877.981,427.062 878.615,426.991 879.251,426.923 879.783,426.754 880.311,426.555 880.842,426.33 881.478,426.031 882.115,425.705 882.537,425.285 883.174,424.826 883.701,424.32 884.34,423.79 884.973,423.198 885.508,422.646 886.031,422.068 886.562,421.432 887.091,420.793 887.836,420.079 888.364,419.369 888.999,418.68 889.53,417.971 890.163,417.264 890.693,416.642 891.226,416.049 891.754,415.431 892.388,414.79 892.92,414.219 893.448,413.672 894.084,413.147 894.616,412.639 895.251,412.179 895.778,411.746 896.311,411.402 896.839,411.06 897.474,410.78 898.005,410.571 898.535,410.434 899.169,410.34 899.701,410.269 900.229,410.202 900.864,410.07 901.501,409.853 902.031,409.624 902.56,409.369 903.194,408.996 903.726,408.554 904.361,408.099 904.998,407.547 905.526,407.042 906.057,406.512 906.692,405.848 907.328,405.208 907.964,404.588 908.387,403.966 908.916,403.373 909.554,402.733 910.083,402.042 910.72,401.379 911.139,400.672 911.779,400.049 912.415,399.379 912.942,398.763 913.471,398.137 914.109,397.565 914.638,396.969 915.167,396.44 915.805,395.887 916.441,395.45 916.863,395.062 917.499,394.671 918.028,394.351 918.559,394.099 919.087,393.873 919.617,393.748 920.147,393.634 920.679,393.588 921.311,393.499 921.841,393.391 922.476,393.215 923.007,392.991 923.535,392.738 924.172,392.391 924.7,391.993 925.231,391.579 925.867,391.049 926.505,390.529 927.139,389.994 927.562,389.443 928.305,388.758 928.833,388.157 929.364,387.519 929.896,386.892 930.424,386.247 930.953,385.603 931.694,384.908 932.224,384.218 932.753,383.559 933.391,382.842 933.92,382.221 934.45,381.624 935.086,380.982 935.721,380.429 936.144,379.921 936.673,379.4 937.31,378.897 937.84,378.483 938.476,378.063 939.004,377.723 939.641,377.397 940.276,377.166 940.7,377.029 941.229,376.915 941.867,376.84 942.394,376.793 943.03,376.706 943.559,376.512 944.197,376.288 944.725,376.031 945.259,375.702 945.787,375.332 946.423,374.872 946.952,374.413 947.481,373.973 948.116,373.419 948.645,372.865 949.178,372.275 949.811,371.649 950.234,371.076 950.871,370.451 951.4,369.784 952.037,369.139 952.566,368.49 952.989,367.894 953.625,367.206 954.155,366.56 954.684,365.939 955.32,365.317 955.956,364.628 956.486,364.053 957.016,363.519 957.651,362.964 958.181,362.419 958.817,361.959 959.346,361.558 959.981,361.167 960.511,360.852 961.041,360.574 961.677,360.369 962.206,360.226 962.843,360.132 963.479,360.08 964.009,359.994 964.537,359.824 965.174,359.602 965.808,359.343 966.337,359.023 966.868,358.669 967.502,358.276 968.031,357.834 968.563,357.352 969.094,356.861 969.728,356.287 970.363,355.713 970.894,355.072 971.423,354.471 971.954,353.796 972.588,353.124 973.226,352.458 973.651,351.841 974.179,351.212 974.813,350.518 975.345,349.874 975.874,349.279 976.402,348.613 976.933,348.032 977.568,347.455 978.203,346.855 978.627,346.346 979.264,345.796 980.006,345.287 980.431,344.873 981.063,344.464 981.596,344.159 982.229,343.877 982.76,343.648 983.397,343.483 984.03,343.43 984.562,343.364 985.198,343.275 985.728,343.124 986.255,342.943 986.787,342.673 987.315,342.413 987.952,342.083 988.374,341.713 989.011,341.25 989.643,340.713 990.176,340.226 990.811,339.672 991.342,339.075 991.871,338.494 992.612,337.782 993.144,337.129 993.673,336.594 994.095,335.947 994.732,335.238 995.261,334.587 995.79,333.942 996.427,333.234 996.956,332.628 997.483,332.004 998.119,331.431 998.651,330.805 999.181,330.25 999.71,329.739 1000.24,329.215 1000.88,328.742 1001.51,328.306 1002.04,327.892 1002.57,327.563 1003.1,327.265 1003.63,327.05 1004.26,326.85 1004.79,326.731 1005.43,326.656 1005.96,326.607 1006.6,326.5 1007.02,326.346 1007.55,326.146 1008.08,325.91 1008.72,325.609 1009.25,325.234 1009.78,324.86 1010.41,324.397 1010.94,323.933 1011.47,323.379 1012,322.868 1012.53,322.314 1013.17,321.716 1013.7,321.108 1014.22,320.507 1014.76,319.861 1015.39,319.214 1015.92,318.558 1016.45,317.844 1017.08,317.215 1017.51,316.596 1018.15,315.919 1018.67,315.317 1019.31,314.667 1019.84,314.041 1020.47,313.395 1021,312.862 1021.64,312.395 1022.17,311.93 1022.81,311.448 1023.34,311.118 1023.87,310.771 1024.39,310.492 1025.03,310.263 1025.56,310.117 1026.2,309.997 1026.73,309.929 1027.26,309.863 1027.79,309.732 1028.42,309.553 1028.95,309.325 1029.59,309.07 1030.12,308.74 1030.75,308.336 1031.28,307.916 1031.81,307.478 1032.34,307.007 1032.87,306.458 1033.4,305.919 1034.04,305.357 1034.57,304.769 1035.1,304.145 1035.84,303.423 1036.47,302.664 1036.9,302.029 1037.43,301.315 1037.96,300.714 1038.59,300.067 1039.12,299.372 1039.76,298.699 1040.29,298.116 1040.82,297.534 1041.45,296.926 1041.98,296.371 1042.62,295.835 1043.15,295.369 1043.68,294.972 1044.31,294.557 1044.95,294.162 1045.37,293.857 1046.01,293.601 1046.54,293.436 1047.07,293.318 1047.6,293.228 1048.23,293.159 1048.76,293.069 1049.4,292.875 1050.03,292.668 1050.67,292.381 1051.2,292.056 1051.73,291.721 1052.26,291.302 1052.89,290.803 1053.42,290.298 1054.06,289.758 1054.59,289.203 1055.23,288.58 1055.86,287.901 1056.39,287.227 1057.03,286.583 1057.56,285.948 1058.08,285.235 1058.72,284.487 1059.35,283.783 1059.99,283.042 1060.52,282.409 1061.05,281.799 1061.69,281.193 1062.22,280.586 1062.85,279.979 1063.38,279.494 1064.02,278.95 1064.55,278.505 1065.08,278.021 1065.71,277.678 1066.35,277.299 1066.88,277.022 1067.41,276.807 1068.05,276.624 1068.57,276.527 1069.32,276.46 1069.95,276.371 1070.48,276.214 1071.01,276.007 1071.65,275.759 1072.18,275.45 1072.71,275.132 1073.34,274.716 1073.98,274.222 1074.61,273.667 1075.14,273.176 1075.67,272.55 1076.31,271.959 1076.94,271.263 1077.47,270.632 1078.11,270.019 1078.64,269.368 1079.17,268.714 1079.7,268.078 1080.23,267.421 1080.86,266.724 1081.5,266.027 1082.03,265.414 1082.66,264.781 1083.09,264.157 1083.83,263.521 1084.36,262.919 1085,262.358 1085.53,261.909 1086.05,261.467 1086.69,261.053 1087.22,260.743 1087.75,260.458 1088.28,260.2 1088.81,260.012 1089.34,259.873 1089.87,259.778 1090.51,259.729 1091.14,259.639 1091.78,259.465 1092.41,259.214 1092.94,259.001 1093.58,258.644 1094.1,258.26 1094.74,257.814 1095.27,257.342 1096.01,256.761 1096.65,256.154 1097.29,255.523 1097.81,254.936 1098.34,254.308 1098.87,253.717 1099.4,253.084 1099.93,252.48 1100.46,251.801 1101.1,251.163 1101.63,250.464 1102.26,249.8 1102.79,249.121 1103.43,248.429 1104.07,247.772 1104.59,247.179 1105.12,246.632 1105.66,246.111 1106.29,245.555 1106.82,245.041 1107.35,244.637 1107.99,244.22 1108.51,243.888 1109.04,243.614 1109.68,243.397 1110.21,243.228 1110.85,243.107 1111.48,243.037 1111.9,242.95 1112.54,242.863 1113.07,242.663 1113.71,242.449 1114.24,242.169 1114.87,241.836 1115.4,241.477 1116.04,241.004 1116.67,240.516 1117.2,239.972 1117.84,239.406 1118.37,238.799 1119,238.218 1119.53,237.554 1120.17,236.898 1120.8,236.28 1121.23,235.628 1121.76,234.998 1122.39,234.314 1122.92,233.633 1123.56,232.932 1124.09,232.299 1124.62,231.71 1125.25,231.045 1125.78,230.438 1126.53,229.799 1127.05,229.235 1127.48,228.762 1128.11,228.274 1128.75,227.802 1129.28,227.452 1129.91,227.054 1130.55,226.794 1130.97,226.584 1131.61,226.44 1132.14,226.344 1132.78,226.291 1133.31,226.221 1133.83,226.113 1134.58,225.908 1135.11,225.633 1135.64,225.368 1136.17,225.05 1136.7,224.655 1137.22,224.201 1137.86,223.749 1138.39,223.207 1139.03,222.592 1139.66,221.934 1140.3,221.359 1140.83,220.706 1141.46,220.023 1141.99,219.384 1142.63,218.678 1143.16,218.039 1143.79,217.334 1144.32,216.692 1144.85,216.078 1145.49,215.393 1146.02,214.686 1146.65,214.073 1147.29,213.446 1147.71,212.919 1148.24,212.441 1148.88,211.909 1149.41,211.458 1149.94,211.05 1150.47,210.694 1151,210.387 1151.53,210.125 1152.06,209.891 1152.69,209.747 1153.12,209.634 1153.64,209.578 1154.28,209.528 1154.81,209.402 1155.34,209.262 1155.98,209.057 1156.4,208.802 1157.04,208.528 1157.67,208.07 1158.2,207.684 1158.84,207.172 1159.37,206.652 1160,206.151 1160.53,205.609 1161.06,204.988 1161.7,204.328 1162.33,203.644 1162.97,202.956 1163.5,202.318 1164.03,201.68 1164.56,201.021 1165.19,200.311 1165.72,199.693 1166.36,198.969 1166.99,198.267 1167.53,197.63 1168.16,197.036 1168.69,196.419 1169.22,195.893 1169.85,195.329 1170.38,194.873 1171.02,194.418 1171.55,194.043 1172.08,193.713 1172.72,193.429 1173.25,193.21 1173.77,193.026 1174.31,192.905 1174.94,192.834 1175.47,192.783 1176,192.695 1176.74,192.509 1177.38,192.255 1177.8,191.995 1178.44,191.634 1178.97,191.271 1179.6,190.819 1180.24,190.296 1180.87,189.704 1181.4,189.177 1182.04,188.536 1182.67,187.915 1183.21,187.268 1183.84,186.629 1184.37,186.004 1185.01,185.348 1185.54,184.639 1186.06,184.017 1186.59,183.334 1187.13,182.708 1187.76,181.992 1188.4,181.278 1189.03,180.683 1189.56,180.065 1190.09,179.493 1190.73,178.993 1191.15,178.511 1191.79,178.042 1192.42,177.621 1192.85,177.253 1193.38,176.949 1194.01,176.661 1194.54,176.446 1195.07,176.296 1195.6,176.161 1196.24,176.124 1196.77,176.041 1197.4,175.925 1197.93,175.76 1198.46,175.526 1198.99,175.242 1199.62,174.923 1200.15,174.562 1200.69,174.124 1201.32,173.647 1201.85,173.142 1202.38,172.67 1202.91,172.1 1203.44,171.57 1204.08,170.929 1204.61,170.33 1205.24,169.725 1205.66,169.068 1206.3,168.328 1206.94,167.618 1207.47,166.986 1208,166.362 1208.74,165.585 1209.27,164.96 1209.8,164.374 1210.33,163.778 1210.96,163.142 1211.49,162.614 1212.02,162.056 1212.55,161.586 1213.19,161.156 1213.72,160.725 1214.35,160.387 1214.88,160.054 1215.41,159.797 1215.94,159.626 1216.58,159.5 1217.11,159.424 1217.85,159.352 1218.38,159.262 1218.91,159.08 1219.54,158.828 1220.18,158.54 1220.71,158.268 1221.24,157.924 1221.87,157.466 1222.4,157.014 1222.93,156.58 1223.46,156.029 1223.99,155.505 1224.63,154.904 1225.16,154.326 1225.79,153.7 1226.22,153.08 1226.75,152.502 1227.38,151.758 1227.91,151.092 1228.55,150.365 1229.08,149.75 1229.71,149.057 1230.24,148.387 1230.99,147.684 1231.52,147.039 1232.04,146.436 1232.68,145.905 1233.21,145.361 1233.74,144.878 1234.27,144.485 1234.8,144.082 1235.43,143.717 1235.97,143.401 1236.6,143.094 1237.13,142.9 1237.77,142.754 1238.29,142.702 1238.82,142.649 1239.35,142.56 1239.99,142.405 1240.63,142.173 1241.16,141.904 1241.9,141.612 1242.43,141.195 1242.96,140.794 1243.48,140.395 1244.02,139.87 1244.65,139.382 1245.29,138.796 1245.71,138.2 1246.24,137.624 1246.88,136.975 1247.51,136.342 1248.04,135.615 1248.57,134.949 1249.21,134.217 1249.84,133.503 1250.37,132.857 1250.9,132.272 1251.43,131.647 1251.96,131.094 1252.6,130.397 1253.13,129.871 1253.66,129.338 1254.29,128.807 1254.82,128.278 1255.46,127.766 1255.99,127.335 1256.62,126.963 1257.26,126.605 1257.79,126.364 1258.32,126.169 1258.85,126.071 1259.38,125.977 1259.91,125.904 1260.54,125.83 1261.07,125.69 1261.71,125.505 1262.24,125.264 1262.77,124.969 1263.4,124.619 1263.93,124.181 1264.46,123.815 1264.99,123.354 1265.63,122.807 1266.27,122.154 1266.9,121.561 1267.43,120.943 1267.96,120.353 1268.7,119.684 1269.23,119.002 1269.76,118.288 1270.4,117.535 1271.03,116.833 1271.56,116.201 1272.09,115.504 1272.73,114.871 1273.26,114.216 1273.89,113.611 1274.32,113.078 1274.95,112.515 1275.59,111.986 1276.01,111.503 1276.65,111.022 1277.18,110.6 1277.81,110.263 1278.34,109.943 1278.98,109.66 1279.51,109.475 1280.04,109.332 1280.57,109.238 1281.2,109.17 1281.73,109.092 1282.37,108.959 1282.9,108.77 1283.43,108.53 1283.96,108.235 1284.59,107.935 1285.12,107.516 1285.76,107.026 1286.29,106.549 1286.92,106.086 1287.45,105.517 1287.98,104.943 1288.41,104.384 1289.04,103.796 1289.57,103.136 1290.1,102.504 1290.63,101.869 1291.26,101.213 1291.9,100.552 1292.43,99.8526 1293.07,99.1635 1293.49,98.5137 1294.13,97.8553 1294.66,97.265 1295.19,96.6628 1295.82,96.1254 1296.46,95.5622 1296.88,95.0332 1297.52,94.5414 1298.15,94.108 1298.68,93.6881 1299.32,93.3671 1299.85,93.0751 1300.38,92.8293 1301.01,92.6602 1301.54,92.5594 1302.07,92.4879 1302.6,92.4403 1303.13,92.3054 1303.77,92.1155 1304.3,91.9205 1304.93,91.6303 1305.46,91.3551 1305.99,91.0099 1306.63,90.5658 1307.16,90.1248 1307.69,89.6345 1308.22,89.0997 1308.85,88.5099 1309.49,87.9052 1310.02,87.2675 1310.55,86.6314 1311.18,86.0123 1311.71,85.3798 1312.14,84.8189 1312.77,84.133 1313.3,83.4469 1313.83,82.7733 1314.47,82.085 1315.1,81.4041 1315.63,80.7636 1316.16,80.1565 1316.8,79.5637 1317.43,78.9473 1317.96,78.4317 1318.6,77.9422 1319.13,77.5021 1319.77,77.0621 1320.4,76.6884 1320.93,76.3955 1321.46,76.149 1321.99,75.9608 1322.52,75.8597 1323.05,75.7604 1323.58,75.7329 1324.21,75.6369 1324.85,75.491 1325.28,75.2783 1325.91,75.0145 1326.44,74.7105 1326.97,74.3663 1327.61,73.948 1328.13,73.5283 1328.77,73.005 1329.3,72.4664 1329.94,71.9192 1330.46,71.3142 1331,70.7226 1331.63,70.11 1332.16,69.4715 1332.69,68.8556 1333.33,68.2 1333.75,67.5582 1334.49,66.8513 1335.02,66.1579 1335.55,65.5359 1336.19,64.7807 1336.82,64.1606 1337.35,63.5237 1337.88,62.9257 1338.62,62.2885 1339.15,61.8123 1339.58,61.319 1340.21,60.8259 1340.85,60.386 1341.49,60.0167 1342.01,59.7213 1342.76,59.4029 1343.28,59.2299 1343.82,59.1264 1344.34,59.0504 1344.98,58.9822 1345.51,58.8819 1346.25,58.674 1346.78,58.4295 1347.31,58.1594 1347.95,57.8526 1348.58,57.4387 1349.11,56.9911 1349.75,56.5157 1350.28,56.0088 1350.91,55.4909 1351.33,54.947 1351.97,54.3231 1352.5,53.6851 1353.03,53.0824 1353.67,52.497 1354.2,51.8346 1354.72,51.183 1355.26,50.5373 1355.78,49.8445 1356.42,49.1986 1356.95,48.5557 1357.48,47.9186 1358.12,47.2665 1358.65,46.6775 1359.28,46.1126 1359.81,45.5379 1360.34,44.9728 1360.87,44.5031 1361.51,44.0117 1362.04,43.6561 1362.67,43.287 1363.2,42.9849 1363.84,42.7106 1364.37,42.5218 1364.9,42.3942 1365.43,42.3382 1365.96,42.2699 1366.59,42.1936 1367.12,42.0484 1367.65,41.8177 1368.29,41.5591 1368.82,41.2623 1369.35,40.9168 1369.98,40.5411 1370.51,40.0957 1371.15,39.5967 1371.68,39.1197 1372.1,38.6073 1372.74,38.0433 1373.27,37.3936 1373.9,36.7994 1374.43,36.1253 1374.96,35.4787 1375.49,34.9006 1376.13,34.1592 1376.87,33.3939 1377.4,32.6947 1378.04,31.9695 1378.56,31.3636 1379.1,30.7569 1379.62,30.1324 1380.15,29.5653 1380.79,28.9664 1381.43,28.3713 1381.96,27.9046 1382.48,27.4101 1383.12,26.9837 1383.65,26.679 1384.18,26.3573 1384.71,26.0823 1385.35,25.8531 1385.88,25.7229 1386.51,25.6667 1387.04,25.7483 1387.57,26.2008 1388.1,26.7406 1388.63,27.2132 1389.27,28.078 1389.8,29.1416 1390.32,30.7893 1390.85,32.4934 1391.49,35.1784 1392.02,37.7503 1392.66,41.3238 1393.19,45.2261 1393.71,50.0497 1394.24,55.2734 1394.88,61.2264 1395.41,68.4451 1395.94,75.4462 1396.47,83.7688 1397.11,93.0191 1397.63,103.075 1398.27,114.077 1398.8,126.962 1399.44,141.845 1400.07,157.726 1400.6,172.572 1401.13,188.017 1401.66,204.157 1402.19,219.655 1402.72,236.84 1403.25,254.498 1403.89,271.095 1404.41,290.639 1404.95,308.841 1405.58,327.045 1406.11,346.436 1406.64,365.486 1407.27,382.643 1407.81,400.488 1408.34,416.219 1408.97,431.181 1409.5,445.142 1410.03,458.916 1410.67,470.415 1411.2,481.28 1411.73,489.865 1412.36,497.333 1412.89,502.544 1413.53,506.169 1414.06,507.934 1414.69,508.578 1415.22,508.726 1415.75,508.785 1416.28,508.785 1416.81,508.782 1417.45,508.81 1417.98,508.81 1418.4,508.81 1419.04,508.81 1419.56,508.778 1420.09,508.778 1420.62,508.778 1421.26,508.778 1421.79,508.778 1422.32,508.778 1422.96,508.78 1423.49,508.78 1424.01,508.777 1424.65,508.777 1425.18,508.777 1425.82,508.777 1426.35,508.777 1426.88,508.777 1427.4,508.777 1427.94,508.777 1428.57,508.777 1429.1,508.777 1429.63,508.777 1430.16,508.777 1430.69,508.777 1431.33,508.778 1431.86,508.778 1432.39,508.778 1432.92,508.778 1433.55,508.778 1434.08,508.778 1434.61,508.778 1435.25,508.778 1435.88,508.778 1436.41,508.778 1436.94,508.778 1437.47,508.778 1438,508.778 " />
</g>

<g fill="none" stroke="#000000" stroke-opacity="1" stroke-width="1" stroke-linecap="square" stroke-linejoin="bevel" transform="matrix(0.833333,0,0,0.833333,0,0)"
font-family="Ubuntu" font-size="12.2222" font-weight="400" font-style="normal" 
>
</g>

<g fill="none" stroke="#000000" stroke-opacity="1" stroke-width="1" stroke-linecap="square" stroke-linejoin="bevel" transform="matrix(0.833333,0,0,0.833333,0,0)"
font-family="Ubuntu" font-size="12.2222" font-weight="400" font-style="normal" 
>
</g>

<g fill="none" stroke="#000000" stroke-opacity="1" stroke-width="1" stroke-linecap="square" stroke-linejoin="bevel" transform="matrix(0.833333,0,0,0.833333,0,0)"
font-family="Ubuntu" font-size="12.2222" font-weight="400" font-style="normal" 
>
</g>

<g fill="none" stroke="#111111" stroke-opacity="1" stroke-width="1" stroke-linecap="square" stroke-linejoin="bevel" transform="matrix(0.833333,0,0,0.833333,0,0)"
font-family="Ubuntu" font-size="12.2222" font-weight="400" font-style="normal" 
>
<rect x="1189" y="10" width="242" height="23"/>
</g>

<g fill="none" stroke="#000000" stroke-opacity="1" stroke-width="1" stroke-linecap="square" stroke-linejoin="bevel" transform="matrix(0.833333,0,0,0.833333,0,0)"
font-family="Ubuntu" font-size="12.2222" font-weight="400" font-style="normal" 
>
</g>

<g fill="none" stroke="#000000" stroke-opacity="1" stroke-width="1" stroke-linecap="square" stroke-linejoin="bevel" transform="matrix(0.833333,0,0,0.833333,0,0)"
font-family="Ubuntu" font-size="12.2222" font-weight="400" font-style="normal" 
>
</g>

<g fill="none" stroke="#000000" stroke-opacity="1" stroke-width="1" stroke-linecap="square" stroke-linejoin="bevel" transform="matrix(0.833333,0,0,0.833333,994.167,14.1667)"
font-family="Ubuntu" font-size="12.2222" font-weight="400" font-style="normal" 
>
</g>

<g fill="#d62728" fill-opacity="1" stroke="none" transform="matrix(0.833333,0,0,0.833333,0,0)"
font-family="Ubuntu" font-size="12.2222" font-weight="400" font-style="normal" 
>
<path vector-effect="none" fill-rule="evenodd" d="M1193,17 L1201,17 L1201,25 L1193,25 L1193,17"/>
</g>

<g fill="none" stroke="#000000" stroke-opacity="1" stroke-width="1" stroke-linecap="square" stroke-linejoin="bevel" transform="matrix(0.833333,0,0,0.833333,994.167,14.1667)"
font-family="Ubuntu" font-size="12.2222" font-weight="400" font-style="normal" 
>
</g>

<g fill="none" stroke="#111111" stroke-opacity="1" stroke-width="1" stroke-linecap="square" stroke-linejoin="bevel" transform="matrix(0.833333,0,0,0.833333,0,0)"
font-family="Ubuntu" font-size="10" font-weight="400" font-style="normal" 
>
</g>

<g fill="none" stroke="#111111" stroke-opacity="1" stroke-width="1" stroke-linecap="square" stroke-linejoin="bevel" transform="matrix(0.833333,0,0,0.833333,0,0)"
font-family="Ubuntu" font-size="12" font-weight="400" font-style="normal" 
>
<text fill="#111111" fill-opacity="1" stroke="none" xml:space="preserve" x="1202" y="26" font-family="Ubuntu" font-size="12" font-weight="400" font-style="normal" 
 >/world_to_torch/transform/translation/y</text>
</g>

<g fill="none" stroke="#111111" stroke-opacity="1" stroke-width="1" stroke-linecap="square" stroke-linejoin="bevel" transform="matrix(0.833333,0,0,0.833333,0,0)"
font-family="Ubuntu" font-size="10" font-weight="400" font-style="normal" 
>
</g>

<g fill="none" stroke="#111111" stroke-opacity="1" stroke-width="1" stroke-linecap="square" stroke-linejoin="bevel" transform="matrix(0.833333,0,0,0.833333,0,0)"
font-family="Ubuntu" font-size="10" font-weight="400" font-style="normal" 
>
</g>

<g fill="none" stroke="#111111" stroke-opacity="1" stroke-width="1" stroke-linecap="square" stroke-linejoin="bevel" transform="matrix(0.833333,0,0,0.833333,0,0)"
font-family="Ubuntu" font-size="10" font-weight="400" font-style="normal" 
>
</g>

<g fill="none" stroke="#111111" stroke-opacity="1" stroke-width="1" stroke-linecap="square" stroke-linejoin="bevel" transform="matrix(0.833333,0,0,0.833333,0,0)"
font-family="Ubuntu" font-size="10" font-weight="400" font-style="normal" 
>
</g>

<g fill="none" stroke="#000000" stroke-opacity="1" stroke-width="1" stroke-linecap="square" stroke-linejoin="bevel" transform="matrix(0.833333,0,0,0.833333,0,0)"
font-family="Ubuntu" font-size="12.2222" font-weight="400" font-style="normal" 
>
</g>

<g fill="#ffffff" fill-opacity="1" stroke="#111111" stroke-opacity="1" stroke-width="1" stroke-linecap="square" stroke-linejoin="bevel" transform="matrix(0.833333,0,0,0.833333,0,0)"
font-family="Ubuntu" font-size="12.2222" font-weight="400" font-style="normal" 
>
<circle cx="1459" cy="10" r="5"/>
</g>

<g fill="none" stroke="#000000" stroke-opacity="1" stroke-width="1" stroke-linecap="square" stroke-linejoin="bevel" transform="matrix(0.833333,0,0,0.833333,0,0)"
font-family="Ubuntu" font-size="12.2222" font-weight="400" font-style="normal" 
>
</g>

<g fill="none" stroke="#000000" stroke-opacity="1" stroke-width="1" stroke-linecap="square" stroke-linejoin="bevel" transform="matrix(0.833333,0,0,0.833333,0,0)"
font-family="Ubuntu" font-size="12.2222" font-weight="400" font-style="normal" 
>
</g>

<g fill="none" stroke="#000000" stroke-opacity="1" stroke-width="1" stroke-linecap="square" stroke-linejoin="bevel" transform="matrix(0.833333,0,0,0.833333,0,0)"
font-family="Ubuntu" font-size="12.2222" font-weight="400" font-style="normal" 
>
</g>

<g fill="none" stroke="#111111" stroke-opacity="1" stroke-width="1" stroke-linecap="square" stroke-linejoin="bevel" transform="matrix(0,-0.833333,0.833333,0,0,864.167)"
font-family="Ubuntu" font-size="11.1111" font-weight="400" font-style="normal" 
>
</g>

<g fill="none" stroke="#111111" stroke-opacity="1" stroke-width="1" stroke-linecap="square" stroke-linejoin="bevel" transform="matrix(0,-0.833333,0.833333,0,0,864.167)"
font-family="Ubuntu" font-size="13.3333" font-weight="700" font-style="normal" 
>
</g>

<g fill="none" stroke="#111111" stroke-opacity="1" stroke-width="1" stroke-linecap="square" stroke-linejoin="bevel" transform="matrix(0,-0.833333,0.833333,0,0,864.167)"
font-family="Ubuntu" font-size="13.3333" font-weight="700" font-style="normal" 
>
</g>

<g fill="none" stroke="#111111" stroke-opacity="1" stroke-width="1" stroke-linecap="square" stroke-linejoin="bevel" transform="matrix(0,-0.833333,0.833333,0,0,864.167)"
font-family="Ubuntu" font-size="11.1111" font-weight="400" font-style="normal" 
>
</g>

<g fill="none" stroke="#000000" stroke-opacity="1" stroke-width="1" stroke-linecap="square" stroke-linejoin="bevel" transform="matrix(0.833333,0,0,0.833333,0,0)"
font-family="Ubuntu" font-size="12.2222" font-weight="400" font-style="normal" 
>
</g>

<g fill="none" stroke="#000000" stroke-opacity="1" stroke-width="1" stroke-linecap="square" stroke-linejoin="bevel" transform="matrix(0.833333,0,0,0.833333,0,0)"
font-family="Ubuntu" font-size="11.1111" font-weight="400" font-style="normal" 
>
</g>

<g fill="none" stroke="#000000" stroke-opacity="1" stroke-width="1" stroke-linecap="square" stroke-linejoin="bevel" transform="matrix(0.833333,0,0,0.833333,0,0)"
font-family="Ubuntu" font-size="11.1111" font-weight="400" font-style="normal" 
>
</g>

<g fill="none" stroke="#111111" stroke-opacity="1" stroke-width="1" stroke-linecap="square" stroke-linejoin="bevel" transform="matrix(0.833333,0,0,0.833333,0,0)"
font-family="Ubuntu" font-size="11.1111" font-weight="400" font-style="normal" 
>
</g>

<g fill="none" stroke="#111111" stroke-opacity="1" stroke-width="1" stroke-linecap="square" stroke-linejoin="bevel" transform="matrix(0.833333,0,0,0.833333,0.234375,839.54)"
font-family="Ubuntu" font-size="11.1111" font-weight="400" font-style="normal" 
>
</g>

<g fill="none" stroke="#111111" stroke-opacity="1" stroke-width="1" stroke-linecap="square" stroke-linejoin="bevel" transform="matrix(0.833333,0,0,0.833333,0.234375,839.54)"
font-family="Ubuntu" font-size="13" font-weight="400" font-style="normal" 
>
</g>

<g fill="none" stroke="#111111" stroke-opacity="1" stroke-width="1" stroke-linecap="square" stroke-linejoin="bevel" transform="matrix(0.833333,0,0,0.833333,0.234375,839.54)"
font-family="Ubuntu" font-size="13" font-weight="400" font-style="normal" 
>
<text fill="#111111" fill-opacity="1" stroke="none" xml:space="preserve" x="0" y="10" font-family="Ubuntu" font-size="13" font-weight="400" font-style="normal" 
 >-0.3</text>
</g>

<g fill="none" stroke="#111111" stroke-opacity="1" stroke-width="1" stroke-linecap="square" stroke-linejoin="bevel" transform="matrix(0.833333,0,0,0.833333,0.234375,839.54)"
font-family="Ubuntu" font-size="11.1111" font-weight="400" font-style="normal" 
>
</g>

<g fill="none" stroke="#111111" stroke-opacity="1" stroke-width="1" stroke-linecap="square" stroke-linejoin="bevel" transform="matrix(0.833333,0,0,0.833333,0.234375,839.54)"
font-family="Ubuntu" font-size="11.1111" font-weight="400" font-style="normal" 
>
</g>

<g fill="none" stroke="#111111" stroke-opacity="1" stroke-width="1" stroke-linecap="square" stroke-linejoin="bevel" transform="matrix(0.833333,0,0,0.833333,0,0)"
font-family="Ubuntu" font-size="11.1111" font-weight="400" font-style="normal" 
>
</g>

<g fill="none" stroke="#111111" stroke-opacity="1" stroke-width="1" stroke-linecap="square" stroke-linejoin="bevel" transform="matrix(0.833333,0,0,0.833333,0.234375,700.148)"
font-family="Ubuntu" font-size="11.1111" font-weight="400" font-style="normal" 
>
</g>

<g fill="none" stroke="#111111" stroke-opacity="1" stroke-width="1" stroke-linecap="square" stroke-linejoin="bevel" transform="matrix(0.833333,0,0,0.833333,0.234375,700.148)"
font-family="Ubuntu" font-size="13" font-weight="400" font-style="normal" 
>
</g>

<g fill="none" stroke="#111111" stroke-opacity="1" stroke-width="1" stroke-linecap="square" stroke-linejoin="bevel" transform="matrix(0.833333,0,0,0.833333,0.234375,700.148)"
font-family="Ubuntu" font-size="13" font-weight="400" font-style="normal" 
>
<text fill="#111111" fill-opacity="1" stroke="none" xml:space="preserve" x="0" y="10" font-family="Ubuntu" font-size="13" font-weight="400" font-style="normal" 
 >-0.2</text>
</g>

<g fill="none" stroke="#111111" stroke-opacity="1" stroke-width="1" stroke-linecap="square" stroke-linejoin="bevel" transform="matrix(0.833333,0,0,0.833333,0.234375,700.148)"
font-family="Ubuntu" font-size="11.1111" font-weight="400" font-style="normal" 
>
</g>

<g fill="none" stroke="#111111" stroke-opacity="1" stroke-width="1" stroke-linecap="square" stroke-linejoin="bevel" transform="matrix(0.833333,0,0,0.833333,0.234375,700.148)"
font-family="Ubuntu" font-size="11.1111" font-weight="400" font-style="normal" 
>
</g>

<g fill="none" stroke="#111111" stroke-opacity="1" stroke-width="1" stroke-linecap="square" stroke-linejoin="bevel" transform="matrix(0.833333,0,0,0.833333,0,0)"
font-family="Ubuntu" font-size="11.1111" font-weight="400" font-style="normal" 
>
</g>

<g fill="none" stroke="#111111" stroke-opacity="1" stroke-width="1" stroke-linecap="square" stroke-linejoin="bevel" transform="matrix(0.833333,0,0,0.833333,0.234375,560.756)"
font-family="Ubuntu" font-size="11.1111" font-weight="400" font-style="normal" 
>
</g>

<g fill="none" stroke="#111111" stroke-opacity="1" stroke-width="1" stroke-linecap="square" stroke-linejoin="bevel" transform="matrix(0.833333,0,0,0.833333,0.234375,560.756)"
font-family="Ubuntu" font-size="13" font-weight="400" font-style="normal" 
>
</g>

<g fill="none" stroke="#111111" stroke-opacity="1" stroke-width="1" stroke-linecap="square" stroke-linejoin="bevel" transform="matrix(0.833333,0,0,0.833333,0.234375,560.756)"
font-family="Ubuntu" font-size="13" font-weight="400" font-style="normal" 
>
<text fill="#111111" fill-opacity="1" stroke="none" xml:space="preserve" x="0" y="10" font-family="Ubuntu" font-size="13" font-weight="400" font-style="normal" 
 >-0.1</text>
</g>

<g fill="none" stroke="#111111" stroke-opacity="1" stroke-width="1" stroke-linecap="square" stroke-linejoin="bevel" transform="matrix(0.833333,0,0,0.833333,0.234375,560.756)"
font-family="Ubuntu" font-size="11.1111" font-weight="400" font-style="normal" 
>
</g>

<g fill="none" stroke="#111111" stroke-opacity="1" stroke-width="1" stroke-linecap="square" stroke-linejoin="bevel" transform="matrix(0.833333,0,0,0.833333,0.234375,560.756)"
font-family="Ubuntu" font-size="11.1111" font-weight="400" font-style="normal" 
>
</g>

<g fill="none" stroke="#111111" stroke-opacity="1" stroke-width="1" stroke-linecap="square" stroke-linejoin="bevel" transform="matrix(0.833333,0,0,0.833333,0,0)"
font-family="Ubuntu" font-size="11.1111" font-weight="400" font-style="normal" 
>
</g>

<g fill="none" stroke="#111111" stroke-opacity="1" stroke-width="1" stroke-linecap="square" stroke-linejoin="bevel" transform="matrix(0.833333,0,0,0.833333,12.2266,421.364)"
font-family="Ubuntu" font-size="11.1111" font-weight="400" font-style="normal" 
>
</g>

<g fill="none" stroke="#111111" stroke-opacity="1" stroke-width="1" stroke-linecap="square" stroke-linejoin="bevel" transform="matrix(0.833333,0,0,0.833333,12.2266,421.364)"
font-family="Ubuntu" font-size="13" font-weight="400" font-style="normal" 
>
</g>

<g fill="none" stroke="#111111" stroke-opacity="1" stroke-width="1" stroke-linecap="square" stroke-linejoin="bevel" transform="matrix(0.833333,0,0,0.833333,12.2266,421.364)"
font-family="Ubuntu" font-size="13" font-weight="400" font-style="normal" 
>
</g>

<g fill="none" stroke="#111111" stroke-opacity="1" stroke-width="1" stroke-linecap="square" stroke-linejoin="bevel" transform="matrix(0.833333,0,0,0.833333,12.2266,421.364)"
font-family="Ubuntu" font-size="13" font-weight="400" font-style="normal" 
>
<text fill="#111111" fill-opacity="1" stroke="none" xml:space="preserve" x="0" y="10" font-family="Ubuntu" font-size="13" font-weight="400" font-style="normal" 
 >0</text>
</g>

<g fill="none" stroke="#111111" stroke-opacity="1" stroke-width="1" stroke-linecap="square" stroke-linejoin="bevel" transform="matrix(0.833333,0,0,0.833333,12.2266,421.364)"
font-family="Ubuntu" font-size="13" font-weight="400" font-style="normal" 
>
</g>

<g fill="none" stroke="#111111" stroke-opacity="1" stroke-width="1" stroke-linecap="square" stroke-linejoin="bevel" transform="matrix(0.833333,0,0,0.833333,12.2266,421.364)"
font-family="Ubuntu" font-size="11.1111" font-weight="400" font-style="normal" 
>
</g>

<g fill="none" stroke="#111111" stroke-opacity="1" stroke-width="1" stroke-linecap="square" stroke-linejoin="bevel" transform="matrix(0.833333,0,0,0.833333,12.2266,421.364)"
font-family="Ubuntu" font-size="11.1111" font-weight="400" font-style="normal" 
>
</g>

<g fill="none" stroke="#111111" stroke-opacity="1" stroke-width="1" stroke-linecap="square" stroke-linejoin="bevel" transform="matrix(0.833333,0,0,0.833333,0,0)"
font-family="Ubuntu" font-size="11.1111" font-weight="400" font-style="normal" 
>
</g>

<g fill="none" stroke="#111111" stroke-opacity="1" stroke-width="1" stroke-linecap="square" stroke-linejoin="bevel" transform="matrix(0.833333,0,0,0.833333,3.46354,281.972)"
font-family="Ubuntu" font-size="11.1111" font-weight="400" font-style="normal" 
>
</g>

<g fill="none" stroke="#111111" stroke-opacity="1" stroke-width="1" stroke-linecap="square" stroke-linejoin="bevel" transform="matrix(0.833333,0,0,0.833333,3.46354,281.972)"
font-family="Ubuntu" font-size="13" font-weight="400" font-style="normal" 
>
</g>

<g fill="none" stroke="#111111" stroke-opacity="1" stroke-width="1" stroke-linecap="square" stroke-linejoin="bevel" transform="matrix(0.833333,0,0,0.833333,3.46354,281.972)"
font-family="Ubuntu" font-size="13" font-weight="400" font-style="normal" 
>
<text fill="#111111" fill-opacity="1" stroke="none" xml:space="preserve" x="0" y="10" font-family="Ubuntu" font-size="13" font-weight="400" font-style="normal" 
 >0.1</text>
</g>

<g fill="none" stroke="#111111" stroke-opacity="1" stroke-width="1" stroke-linecap="square" stroke-linejoin="bevel" transform="matrix(0.833333,0,0,0.833333,3.46354,281.972)"
font-family="Ubuntu" font-size="11.1111" font-weight="400" font-style="normal" 
>
</g>

<g fill="none" stroke="#111111" stroke-opacity="1" stroke-width="1" stroke-linecap="square" stroke-linejoin="bevel" transform="matrix(0.833333,0,0,0.833333,3.46354,281.972)"
font-family="Ubuntu" font-size="11.1111" font-weight="400" font-style="normal" 
>
</g>

<g fill="none" stroke="#111111" stroke-opacity="1" stroke-width="1" stroke-linecap="square" stroke-linejoin="bevel" transform="matrix(0.833333,0,0,0.833333,0,0)"
font-family="Ubuntu" font-size="11.1111" font-weight="400" font-style="normal" 
>
</g>

<g fill="none" stroke="#111111" stroke-opacity="1" stroke-width="1" stroke-linecap="square" stroke-linejoin="bevel" transform="matrix(0.833333,0,0,0.833333,3.46354,142.579)"
font-family="Ubuntu" font-size="11.1111" font-weight="400" font-style="normal" 
>
</g>

<g fill="none" stroke="#111111" stroke-opacity="1" stroke-width="1" stroke-linecap="square" stroke-linejoin="bevel" transform="matrix(0.833333,0,0,0.833333,3.46354,142.579)"
font-family="Ubuntu" font-size="13" font-weight="400" font-style="normal" 
>
</g>

<g fill="none" stroke="#111111" stroke-opacity="1" stroke-width="1" stroke-linecap="square" stroke-linejoin="bevel" transform="matrix(0.833333,0,0,0.833333,3.46354,142.579)"
font-family="Ubuntu" font-size="13" font-weight="400" font-style="normal" 
>
<text fill="#111111" fill-opacity="1" stroke="none" xml:space="preserve" x="0" y="10" font-family="Ubuntu" font-size="13" font-weight="400" font-style="normal" 
 >0.2</text>
</g>

<g fill="none" stroke="#111111" stroke-opacity="1" stroke-width="1" stroke-linecap="square" stroke-linejoin="bevel" transform="matrix(0.833333,0,0,0.833333,3.46354,142.579)"
font-family="Ubuntu" font-size="11.1111" font-weight="400" font-style="normal" 
>
</g>

<g fill="none" stroke="#111111" stroke-opacity="1" stroke-width="1" stroke-linecap="square" stroke-linejoin="bevel" transform="matrix(0.833333,0,0,0.833333,3.46354,142.579)"
font-family="Ubuntu" font-size="11.1111" font-weight="400" font-style="normal" 
>
</g>

<g fill="none" stroke="#111111" stroke-opacity="1" stroke-width="1" stroke-linecap="square" stroke-linejoin="bevel" transform="matrix(0.833333,0,0,0.833333,0,0)"
font-family="Ubuntu" font-size="11.1111" font-weight="400" font-style="normal" 
>
</g>

<g fill="none" stroke="#111111" stroke-opacity="1" stroke-width="1" stroke-linecap="square" stroke-linejoin="bevel" transform="matrix(0.833333,0,0,0.833333,3.46354,3.18731)"
font-family="Ubuntu" font-size="11.1111" font-weight="400" font-style="normal" 
>
</g>

<g fill="none" stroke="#111111" stroke-opacity="1" stroke-width="1" stroke-linecap="square" stroke-linejoin="bevel" transform="matrix(0.833333,0,0,0.833333,3.46354,3.18731)"
font-family="Ubuntu" font-size="13" font-weight="400" font-style="normal" 
>
</g>

<g fill="none" stroke="#111111" stroke-opacity="1" stroke-width="1" stroke-linecap="square" stroke-linejoin="bevel" transform="matrix(0.833333,0,0,0.833333,3.46354,3.18731)"
font-family="Ubuntu" font-size="13" font-weight="400" font-style="normal" 
>
<text fill="#111111" fill-opacity="1" stroke="none" xml:space="preserve" x="0" y="10" font-family="Ubuntu" font-size="13" font-weight="400" font-style="normal" 
 >0.3</text>
</g>

<g fill="none" stroke="#111111" stroke-opacity="1" stroke-width="1" stroke-linecap="square" stroke-linejoin="bevel" transform="matrix(0.833333,0,0,0.833333,3.46354,3.18731)"
font-family="Ubuntu" font-size="11.1111" font-weight="400" font-style="normal" 
>
</g>

<g fill="none" stroke="#111111" stroke-opacity="1" stroke-width="1" stroke-linecap="square" stroke-linejoin="bevel" transform="matrix(0.833333,0,0,0.833333,3.46354,3.18731)"
font-family="Ubuntu" font-size="11.1111" font-weight="400" font-style="normal" 
>
</g>

<g fill="none" stroke="#111111" stroke-opacity="1" stroke-width="1" stroke-linecap="square" stroke-linejoin="bevel" transform="matrix(0.833333,0,0,0.833333,0,0)"
font-family="Ubuntu" font-size="11.1111" font-weight="400" font-style="normal" 
>
</g>

<g fill="none" stroke="#000000" stroke-opacity="1" stroke-width="1" stroke-linecap="square" stroke-linejoin="bevel" transform="matrix(0.833333,0,0,0.833333,0,0)"
font-family="Ubuntu" font-size="11.1111" font-weight="400" font-style="normal" 
>
</g>

<g fill="none" stroke="#111111" stroke-opacity="1" stroke-width="1" stroke-linecap="butt" stroke-linejoin="bevel" transform="matrix(0.833333,0,0,0.833333,0,0)"
font-family="Ubuntu" font-size="11.1111" font-weight="400" font-style="normal" 
>
<polyline fill="none" vector-effect="non-scaling-stroke" points="35.5,978.994 30.3,978.994 " />
<polyline fill="none" vector-effect="non-scaling-stroke" points="35.5,945.54 30.3,945.54 " />
<polyline fill="none" vector-effect="non-scaling-stroke" points="35.5,912.086 30.3,912.086 " />
<polyline fill="none" vector-effect="non-scaling-stroke" points="35.5,878.632 30.3,878.632 " />
<polyline fill="none" vector-effect="non-scaling-stroke" points="35.5,811.723 30.3,811.723 " />
<polyline fill="none" vector-effect="non-scaling-stroke" points="35.5,778.269 30.3,778.269 " />
<polyline fill="none" vector-effect="non-scaling-stroke" points="35.5,744.815 30.3,744.815 " />
<polyline fill="none" vector-effect="non-scaling-stroke" points="35.5,711.361 30.3,711.361 " />
<polyline fill="none" vector-effect="non-scaling-stroke" points="35.5,644.453 30.3,644.453 " />
<polyline fill="none" vector-effect="non-scaling-stroke" points="35.5,610.999 30.3,610.999 " />
<polyline fill="none" vector-effect="non-scaling-stroke" points="35.5,577.545 30.3,577.545 " />
<polyline fill="none" vector-effect="non-scaling-stroke" points="35.5,544.091 30.3,544.091 " />
<polyline fill="none" vector-effect="non-scaling-stroke" points="35.5,477.182 30.3,477.182 " />
<polyline fill="none" vector-effect="non-scaling-stroke" points="35.5,443.728 30.3,443.728 " />
<polyline fill="none" vector-effect="non-scaling-stroke" points="35.5,410.274 30.3,410.274 " />
<polyline fill="none" vector-effect="non-scaling-stroke" points="35.5,376.82 30.3,376.82 " />
<polyline fill="none" vector-effect="non-scaling-stroke" points="35.5,309.912 30.3,309.912 " />
<polyline fill="none" vector-effect="non-scaling-stroke" points="35.5,276.458 30.3,276.458 " />
<polyline fill="none" vector-effect="non-scaling-stroke" points="35.5,243.004 30.3,243.004 " />
<polyline fill="none" vector-effect="non-scaling-stroke" points="35.5,209.549 30.3,209.549 " />
<polyline fill="none" vector-effect="non-scaling-stroke" points="35.5,142.641 30.3,142.641 " />
<polyline fill="none" vector-effect="non-scaling-stroke" points="35.5,109.187 30.3,109.187 " />
<polyline fill="none" vector-effect="non-scaling-stroke" points="35.5,75.733 30.3,75.733 " />
<polyline fill="none" vector-effect="non-scaling-stroke" points="35.5,42.2789 30.3,42.2789 " />
<polyline fill="none" vector-effect="non-scaling-stroke" points="35.5,1012.45 26.3,1012.45 " />
<polyline fill="none" vector-effect="non-scaling-stroke" points="35.5,845.178 26.3,845.178 " />
<polyline fill="none" vector-effect="non-scaling-stroke" points="35.5,677.907 26.3,677.907 " />
<polyline fill="none" vector-effect="non-scaling-stroke" points="35.5,510.636 26.3,510.636 " />
<polyline fill="none" vector-effect="non-scaling-stroke" points="35.5,343.366 26.3,343.366 " />
<polyline fill="none" vector-effect="non-scaling-stroke" points="35.5,176.095 26.3,176.095 " />
<polyline fill="none" vector-effect="non-scaling-stroke" points="35.5,8.82478 26.3,8.82478 " />
</g>

<g fill="none" stroke="#000000" stroke-opacity="1" stroke-width="1" stroke-linecap="square" stroke-linejoin="bevel" transform="matrix(0.833333,0,0,0.833333,0,0)"
font-family="Ubuntu" font-size="11.1111" font-weight="400" font-style="normal" 
>
</g>

<g fill="none" stroke="#111111" stroke-opacity="1" stroke-width="1" stroke-linecap="butt" stroke-linejoin="bevel" transform="matrix(0.833333,0,0,0.833333,0,0)"
font-family="Ubuntu" font-size="11.1111" font-weight="400" font-style="normal" 
>
<polyline fill="none" vector-effect="non-scaling-stroke" points="35.4,1 35.4,1037 " />
</g>

<g fill="none" stroke="#000000" stroke-opacity="1" stroke-width="1" stroke-linecap="square" stroke-linejoin="bevel" transform="matrix(0.833333,0,0,0.833333,0,0)"
font-family="Ubuntu" font-size="11.1111" font-weight="400" font-style="normal" 
>
</g>

<g fill="none" stroke="#000000" stroke-opacity="1" stroke-width="1" stroke-linecap="square" stroke-linejoin="bevel" transform="matrix(0.833333,0,0,0.833333,0,0)"
font-family="Ubuntu" font-size="11.1111" font-weight="400" font-style="normal" 
>
</g>

<g fill="none" stroke="#000000" stroke-opacity="1" stroke-width="1" stroke-linecap="square" stroke-linejoin="bevel" transform="matrix(0.833333,0,0,0.833333,0,0)"
font-family="Ubuntu" font-size="12.2222" font-weight="400" font-style="normal" 
>
</g>

<g fill="none" stroke="#111111" stroke-opacity="1" stroke-width="1" stroke-linecap="square" stroke-linejoin="bevel" transform="matrix(0.833333,0,0,0.833333,32.5,900.833)"
font-family="Ubuntu" font-size="11.1111" font-weight="400" font-style="normal" 
>
</g>

<g fill="none" stroke="#111111" stroke-opacity="1" stroke-width="1" stroke-linecap="square" stroke-linejoin="bevel" transform="matrix(0.833333,0,0,0.833333,32.5,900.833)"
font-family="Ubuntu" font-size="13.3333" font-weight="700" font-style="normal" 
>
</g>

<g fill="none" stroke="#111111" stroke-opacity="1" stroke-width="1" stroke-linecap="square" stroke-linejoin="bevel" transform="matrix(0.833333,0,0,0.833333,32.5,900.833)"
font-family="Ubuntu" font-size="13.3333" font-weight="700" font-style="normal" 
>
</g>

<g fill="none" stroke="#111111" stroke-opacity="1" stroke-width="1" stroke-linecap="square" stroke-linejoin="bevel" transform="matrix(0.833333,0,0,0.833333,32.5,900.833)"
font-family="Ubuntu" font-size="11.1111" font-weight="400" font-style="normal" 
>
</g>

<g fill="none" stroke="#000000" stroke-opacity="1" stroke-width="1" stroke-linecap="square" stroke-linejoin="bevel" transform="matrix(0.833333,0,0,0.833333,0,0)"
font-family="Ubuntu" font-size="12.2222" font-weight="400" font-style="normal" 
>
</g>

<g fill="none" stroke="#000000" stroke-opacity="1" stroke-width="1" stroke-linecap="square" stroke-linejoin="bevel" transform="matrix(0.833333,0,0,0.833333,0,0)"
font-family="Ubuntu" font-size="11.1111" font-weight="400" font-style="normal" 
>
</g>

<g fill="none" stroke="#000000" stroke-opacity="1" stroke-width="1" stroke-linecap="square" stroke-linejoin="bevel" transform="matrix(0.833333,0,0,0.833333,0,0)"
font-family="Ubuntu" font-size="11.1111" font-weight="400" font-style="normal" 
>
</g>

<g fill="none" stroke="#111111" stroke-opacity="1" stroke-width="1" stroke-linecap="square" stroke-linejoin="bevel" transform="matrix(0.833333,0,0,0.833333,0,0)"
font-family="Ubuntu" font-size="11.1111" font-weight="400" font-style="normal" 
>
</g>

<g fill="none" stroke="#111111" stroke-opacity="1" stroke-width="1" stroke-linecap="square" stroke-linejoin="bevel" transform="matrix(0.833333,0,0,0.833333,70.2931,878.333)"
font-family="Ubuntu" font-size="11.1111" font-weight="400" font-style="normal" 
>
</g>

<g fill="none" stroke="#111111" stroke-opacity="1" stroke-width="1" stroke-linecap="square" stroke-linejoin="bevel" transform="matrix(0.833333,0,0,0.833333,70.2931,878.333)"
font-family="Ubuntu" font-size="13" font-weight="400" font-style="normal" 
>
</g>

<g fill="none" stroke="#111111" stroke-opacity="1" stroke-width="1" stroke-linecap="square" stroke-linejoin="bevel" transform="matrix(0.833333,0,0,0.833333,70.2931,878.333)"
font-family="Ubuntu" font-size="13" font-weight="400" font-style="normal" 
>
</g>

<g fill="none" stroke="#111111" stroke-opacity="1" stroke-width="1" stroke-linecap="square" stroke-linejoin="bevel" transform="matrix(0.833333,0,0,0.833333,70.2931,878.333)"
font-family="Ubuntu" font-size="13" font-weight="400" font-style="normal" 
>
<text fill="#111111" fill-opacity="1" stroke="none" xml:space="preserve" x="0" y="10" font-family="Ubuntu" font-size="13" font-weight="400" font-style="normal" 
 >16:19:00.0</text>
</g>

<g fill="none" stroke="#111111" stroke-opacity="1" stroke-width="1" stroke-linecap="square" stroke-linejoin="bevel" transform="matrix(0.833333,0,0,0.833333,70.2931,878.333)"
font-family="Ubuntu" font-size="13" font-weight="400" font-style="normal" 
>
<text fill="#111111" fill-opacity="1" stroke="none" xml:space="preserve" x="0" y="25" font-family="Ubuntu" font-size="13" font-weight="400" font-style="normal" 
 >2024 Jul 10</text>
</g>

<g fill="none" stroke="#111111" stroke-opacity="1" stroke-width="1" stroke-linecap="square" stroke-linejoin="bevel" transform="matrix(0.833333,0,0,0.833333,70.2931,878.333)"
font-family="Ubuntu" font-size="13" font-weight="400" font-style="normal" 
>
</g>

<g fill="none" stroke="#111111" stroke-opacity="1" stroke-width="1" stroke-linecap="square" stroke-linejoin="bevel" transform="matrix(0.833333,0,0,0.833333,70.2931,878.333)"
font-family="Ubuntu" font-size="11.1111" font-weight="400" font-style="normal" 
>
</g>

<g fill="none" stroke="#111111" stroke-opacity="1" stroke-width="1" stroke-linecap="square" stroke-linejoin="bevel" transform="matrix(0.833333,0,0,0.833333,70.2931,878.333)"
font-family="Ubuntu" font-size="11.1111" font-weight="400" font-style="normal" 
>
</g>

<g fill="none" stroke="#111111" stroke-opacity="1" stroke-width="1" stroke-linecap="square" stroke-linejoin="bevel" transform="matrix(0.833333,0,0,0.833333,0,0)"
font-family="Ubuntu" font-size="11.1111" font-weight="400" font-style="normal" 
>
</g>

<g fill="none" stroke="#111111" stroke-opacity="1" stroke-width="1" stroke-linecap="square" stroke-linejoin="bevel" transform="matrix(0.833333,0,0,0.833333,246.87,878.333)"
font-family="Ubuntu" font-size="11.1111" font-weight="400" font-style="normal" 
>
</g>

<g fill="none" stroke="#111111" stroke-opacity="1" stroke-width="1" stroke-linecap="square" stroke-linejoin="bevel" transform="matrix(0.833333,0,0,0.833333,246.87,878.333)"
font-family="Ubuntu" font-size="13" font-weight="400" font-style="normal" 
>
</g>

<g fill="none" stroke="#111111" stroke-opacity="1" stroke-width="1" stroke-linecap="square" stroke-linejoin="bevel" transform="matrix(0.833333,0,0,0.833333,246.87,878.333)"
font-family="Ubuntu" font-size="13" font-weight="400" font-style="normal" 
>
</g>

<g fill="none" stroke="#111111" stroke-opacity="1" stroke-width="1" stroke-linecap="square" stroke-linejoin="bevel" transform="matrix(0.833333,0,0,0.833333,246.87,878.333)"
font-family="Ubuntu" font-size="13" font-weight="400" font-style="normal" 
>
<text fill="#111111" fill-opacity="1" stroke="none" xml:space="preserve" x="0" y="10" font-family="Ubuntu" font-size="13" font-weight="400" font-style="normal" 
 >16:19:20.0</text>
</g>

<g fill="none" stroke="#111111" stroke-opacity="1" stroke-width="1" stroke-linecap="square" stroke-linejoin="bevel" transform="matrix(0.833333,0,0,0.833333,246.87,878.333)"
font-family="Ubuntu" font-size="13" font-weight="400" font-style="normal" 
>
<text fill="#111111" fill-opacity="1" stroke="none" xml:space="preserve" x="0" y="25" font-family="Ubuntu" font-size="13" font-weight="400" font-style="normal" 
 >2024 Jul 10</text>
</g>

<g fill="none" stroke="#111111" stroke-opacity="1" stroke-width="1" stroke-linecap="square" stroke-linejoin="bevel" transform="matrix(0.833333,0,0,0.833333,246.87,878.333)"
font-family="Ubuntu" font-size="13" font-weight="400" font-style="normal" 
>
</g>

<g fill="none" stroke="#111111" stroke-opacity="1" stroke-width="1" stroke-linecap="square" stroke-linejoin="bevel" transform="matrix(0.833333,0,0,0.833333,246.87,878.333)"
font-family="Ubuntu" font-size="11.1111" font-weight="400" font-style="normal" 
>
</g>

<g fill="none" stroke="#111111" stroke-opacity="1" stroke-width="1" stroke-linecap="square" stroke-linejoin="bevel" transform="matrix(0.833333,0,0,0.833333,246.87,878.333)"
font-family="Ubuntu" font-size="11.1111" font-weight="400" font-style="normal" 
>
</g>

<g fill="none" stroke="#111111" stroke-opacity="1" stroke-width="1" stroke-linecap="square" stroke-linejoin="bevel" transform="matrix(0.833333,0,0,0.833333,0,0)"
font-family="Ubuntu" font-size="11.1111" font-weight="400" font-style="normal" 
>
</g>

<g fill="none" stroke="#111111" stroke-opacity="1" stroke-width="1" stroke-linecap="square" stroke-linejoin="bevel" transform="matrix(0.833333,0,0,0.833333,423.447,878.333)"
font-family="Ubuntu" font-size="11.1111" font-weight="400" font-style="normal" 
>
</g>

<g fill="none" stroke="#111111" stroke-opacity="1" stroke-width="1" stroke-linecap="square" stroke-linejoin="bevel" transform="matrix(0.833333,0,0,0.833333,423.447,878.333)"
font-family="Ubuntu" font-size="13" font-weight="400" font-style="normal" 
>
</g>

<g fill="none" stroke="#111111" stroke-opacity="1" stroke-width="1" stroke-linecap="square" stroke-linejoin="bevel" transform="matrix(0.833333,0,0,0.833333,423.447,878.333)"
font-family="Ubuntu" font-size="13" font-weight="400" font-style="normal" 
>
</g>

<g fill="none" stroke="#111111" stroke-opacity="1" stroke-width="1" stroke-linecap="square" stroke-linejoin="bevel" transform="matrix(0.833333,0,0,0.833333,423.447,878.333)"
font-family="Ubuntu" font-size="13" font-weight="400" font-style="normal" 
>
<text fill="#111111" fill-opacity="1" stroke="none" xml:space="preserve" x="0" y="10" font-family="Ubuntu" font-size="13" font-weight="400" font-style="normal" 
 >16:19:40.0</text>
</g>

<g fill="none" stroke="#111111" stroke-opacity="1" stroke-width="1" stroke-linecap="square" stroke-linejoin="bevel" transform="matrix(0.833333,0,0,0.833333,423.447,878.333)"
font-family="Ubuntu" font-size="13" font-weight="400" font-style="normal" 
>
<text fill="#111111" fill-opacity="1" stroke="none" xml:space="preserve" x="0" y="25" font-family="Ubuntu" font-size="13" font-weight="400" font-style="normal" 
 >2024 Jul 10</text>
</g>

<g fill="none" stroke="#111111" stroke-opacity="1" stroke-width="1" stroke-linecap="square" stroke-linejoin="bevel" transform="matrix(0.833333,0,0,0.833333,423.447,878.333)"
font-family="Ubuntu" font-size="13" font-weight="400" font-style="normal" 
>
</g>

<g fill="none" stroke="#111111" stroke-opacity="1" stroke-width="1" stroke-linecap="square" stroke-linejoin="bevel" transform="matrix(0.833333,0,0,0.833333,423.447,878.333)"
font-family="Ubuntu" font-size="11.1111" font-weight="400" font-style="normal" 
>
</g>

<g fill="none" stroke="#111111" stroke-opacity="1" stroke-width="1" stroke-linecap="square" stroke-linejoin="bevel" transform="matrix(0.833333,0,0,0.833333,423.447,878.333)"
font-family="Ubuntu" font-size="11.1111" font-weight="400" font-style="normal" 
>
</g>

<g fill="none" stroke="#111111" stroke-opacity="1" stroke-width="1" stroke-linecap="square" stroke-linejoin="bevel" transform="matrix(0.833333,0,0,0.833333,0,0)"
font-family="Ubuntu" font-size="11.1111" font-weight="400" font-style="normal" 
>
</g>

<g fill="none" stroke="#111111" stroke-opacity="1" stroke-width="1" stroke-linecap="square" stroke-linejoin="bevel" transform="matrix(0.833333,0,0,0.833333,600.024,878.333)"
font-family="Ubuntu" font-size="11.1111" font-weight="400" font-style="normal" 
>
</g>

<g fill="none" stroke="#111111" stroke-opacity="1" stroke-width="1" stroke-linecap="square" stroke-linejoin="bevel" transform="matrix(0.833333,0,0,0.833333,600.024,878.333)"
font-family="Ubuntu" font-size="13" font-weight="400" font-style="normal" 
>
</g>

<g fill="none" stroke="#111111" stroke-opacity="1" stroke-width="1" stroke-linecap="square" stroke-linejoin="bevel" transform="matrix(0.833333,0,0,0.833333,600.024,878.333)"
font-family="Ubuntu" font-size="13" font-weight="400" font-style="normal" 
>
</g>

<g fill="none" stroke="#111111" stroke-opacity="1" stroke-width="1" stroke-linecap="square" stroke-linejoin="bevel" transform="matrix(0.833333,0,0,0.833333,600.024,878.333)"
font-family="Ubuntu" font-size="13" font-weight="400" font-style="normal" 
>
<text fill="#111111" fill-opacity="1" stroke="none" xml:space="preserve" x="0" y="10" font-family="Ubuntu" font-size="13" font-weight="400" font-style="normal" 
 >16:20:00.0</text>
</g>

<g fill="none" stroke="#111111" stroke-opacity="1" stroke-width="1" stroke-linecap="square" stroke-linejoin="bevel" transform="matrix(0.833333,0,0,0.833333,600.024,878.333)"
font-family="Ubuntu" font-size="13" font-weight="400" font-style="normal" 
>
<text fill="#111111" fill-opacity="1" stroke="none" xml:space="preserve" x="0" y="25" font-family="Ubuntu" font-size="13" font-weight="400" font-style="normal" 
 >2024 Jul 10</text>
</g>

<g fill="none" stroke="#111111" stroke-opacity="1" stroke-width="1" stroke-linecap="square" stroke-linejoin="bevel" transform="matrix(0.833333,0,0,0.833333,600.024,878.333)"
font-family="Ubuntu" font-size="13" font-weight="400" font-style="normal" 
>
</g>

<g fill="none" stroke="#111111" stroke-opacity="1" stroke-width="1" stroke-linecap="square" stroke-linejoin="bevel" transform="matrix(0.833333,0,0,0.833333,600.024,878.333)"
font-family="Ubuntu" font-size="11.1111" font-weight="400" font-style="normal" 
>
</g>

<g fill="none" stroke="#111111" stroke-opacity="1" stroke-width="1" stroke-linecap="square" stroke-linejoin="bevel" transform="matrix(0.833333,0,0,0.833333,600.024,878.333)"
font-family="Ubuntu" font-size="11.1111" font-weight="400" font-style="normal" 
>
</g>

<g fill="none" stroke="#111111" stroke-opacity="1" stroke-width="1" stroke-linecap="square" stroke-linejoin="bevel" transform="matrix(0.833333,0,0,0.833333,0,0)"
font-family="Ubuntu" font-size="11.1111" font-weight="400" font-style="normal" 
>
</g>

<g fill="none" stroke="#111111" stroke-opacity="1" stroke-width="1" stroke-linecap="square" stroke-linejoin="bevel" transform="matrix(0.833333,0,0,0.833333,776.601,878.333)"
font-family="Ubuntu" font-size="11.1111" font-weight="400" font-style="normal" 
>
</g>

<g fill="none" stroke="#111111" stroke-opacity="1" stroke-width="1" stroke-linecap="square" stroke-linejoin="bevel" transform="matrix(0.833333,0,0,0.833333,776.601,878.333)"
font-family="Ubuntu" font-size="13" font-weight="400" font-style="normal" 
>
</g>

<g fill="none" stroke="#111111" stroke-opacity="1" stroke-width="1" stroke-linecap="square" stroke-linejoin="bevel" transform="matrix(0.833333,0,0,0.833333,776.601,878.333)"
font-family="Ubuntu" font-size="13" font-weight="400" font-style="normal" 
>
</g>

<g fill="none" stroke="#111111" stroke-opacity="1" stroke-width="1" stroke-linecap="square" stroke-linejoin="bevel" transform="matrix(0.833333,0,0,0.833333,776.601,878.333)"
font-family="Ubuntu" font-size="13" font-weight="400" font-style="normal" 
>
<text fill="#111111" fill-opacity="1" stroke="none" xml:space="preserve" x="0" y="10" font-family="Ubuntu" font-size="13" font-weight="400" font-style="normal" 
 >16:20:20.0</text>
</g>

<g fill="none" stroke="#111111" stroke-opacity="1" stroke-width="1" stroke-linecap="square" stroke-linejoin="bevel" transform="matrix(0.833333,0,0,0.833333,776.601,878.333)"
font-family="Ubuntu" font-size="13" font-weight="400" font-style="normal" 
>
<text fill="#111111" fill-opacity="1" stroke="none" xml:space="preserve" x="0" y="25" font-family="Ubuntu" font-size="13" font-weight="400" font-style="normal" 
 >2024 Jul 10</text>
</g>

<g fill="none" stroke="#111111" stroke-opacity="1" stroke-width="1" stroke-linecap="square" stroke-linejoin="bevel" transform="matrix(0.833333,0,0,0.833333,776.601,878.333)"
font-family="Ubuntu" font-size="13" font-weight="400" font-style="normal" 
>
</g>

<g fill="none" stroke="#111111" stroke-opacity="1" stroke-width="1" stroke-linecap="square" stroke-linejoin="bevel" transform="matrix(0.833333,0,0,0.833333,776.601,878.333)"
font-family="Ubuntu" font-size="11.1111" font-weight="400" font-style="normal" 
>
</g>

<g fill="none" stroke="#111111" stroke-opacity="1" stroke-width="1" stroke-linecap="square" stroke-linejoin="bevel" transform="matrix(0.833333,0,0,0.833333,776.601,878.333)"
font-family="Ubuntu" font-size="11.1111" font-weight="400" font-style="normal" 
>
</g>

<g fill="none" stroke="#111111" stroke-opacity="1" stroke-width="1" stroke-linecap="square" stroke-linejoin="bevel" transform="matrix(0.833333,0,0,0.833333,0,0)"
font-family="Ubuntu" font-size="11.1111" font-weight="400" font-style="normal" 
>
</g>

<g fill="none" stroke="#111111" stroke-opacity="1" stroke-width="1" stroke-linecap="square" stroke-linejoin="bevel" transform="matrix(0.833333,0,0,0.833333,953.178,878.333)"
font-family="Ubuntu" font-size="11.1111" font-weight="400" font-style="normal" 
>
</g>

<g fill="none" stroke="#111111" stroke-opacity="1" stroke-width="1" stroke-linecap="square" stroke-linejoin="bevel" transform="matrix(0.833333,0,0,0.833333,953.178,878.333)"
font-family="Ubuntu" font-size="13" font-weight="400" font-style="normal" 
>
</g>

<g fill="none" stroke="#111111" stroke-opacity="1" stroke-width="1" stroke-linecap="square" stroke-linejoin="bevel" transform="matrix(0.833333,0,0,0.833333,953.178,878.333)"
font-family="Ubuntu" font-size="13" font-weight="400" font-style="normal" 
>
</g>

<g fill="none" stroke="#111111" stroke-opacity="1" stroke-width="1" stroke-linecap="square" stroke-linejoin="bevel" transform="matrix(0.833333,0,0,0.833333,953.178,878.333)"
font-family="Ubuntu" font-size="13" font-weight="400" font-style="normal" 
>
<text fill="#111111" fill-opacity="1" stroke="none" xml:space="preserve" x="0" y="10" font-family="Ubuntu" font-size="13" font-weight="400" font-style="normal" 
 >16:20:40.0</text>
</g>

<g fill="none" stroke="#111111" stroke-opacity="1" stroke-width="1" stroke-linecap="square" stroke-linejoin="bevel" transform="matrix(0.833333,0,0,0.833333,953.178,878.333)"
font-family="Ubuntu" font-size="13" font-weight="400" font-style="normal" 
>
<text fill="#111111" fill-opacity="1" stroke="none" xml:space="preserve" x="0" y="25" font-family="Ubuntu" font-size="13" font-weight="400" font-style="normal" 
 >2024 Jul 10</text>
</g>

<g fill="none" stroke="#111111" stroke-opacity="1" stroke-width="1" stroke-linecap="square" stroke-linejoin="bevel" transform="matrix(0.833333,0,0,0.833333,953.178,878.333)"
font-family="Ubuntu" font-size="13" font-weight="400" font-style="normal" 
>
</g>

<g fill="none" stroke="#111111" stroke-opacity="1" stroke-width="1" stroke-linecap="square" stroke-linejoin="bevel" transform="matrix(0.833333,0,0,0.833333,953.178,878.333)"
font-family="Ubuntu" font-size="11.1111" font-weight="400" font-style="normal" 
>
</g>

<g fill="none" stroke="#111111" stroke-opacity="1" stroke-width="1" stroke-linecap="square" stroke-linejoin="bevel" transform="matrix(0.833333,0,0,0.833333,953.178,878.333)"
font-family="Ubuntu" font-size="11.1111" font-weight="400" font-style="normal" 
>
</g>

<g fill="none" stroke="#111111" stroke-opacity="1" stroke-width="1" stroke-linecap="square" stroke-linejoin="bevel" transform="matrix(0.833333,0,0,0.833333,0,0)"
font-family="Ubuntu" font-size="11.1111" font-weight="400" font-style="normal" 
>
</g>

<g fill="none" stroke="#111111" stroke-opacity="1" stroke-width="1" stroke-linecap="square" stroke-linejoin="bevel" transform="matrix(0.833333,0,0,0.833333,1129.76,878.333)"
font-family="Ubuntu" font-size="11.1111" font-weight="400" font-style="normal" 
>
</g>

<g fill="none" stroke="#111111" stroke-opacity="1" stroke-width="1" stroke-linecap="square" stroke-linejoin="bevel" transform="matrix(0.833333,0,0,0.833333,1129.76,878.333)"
font-family="Ubuntu" font-size="13" font-weight="400" font-style="normal" 
>
</g>

<g fill="none" stroke="#111111" stroke-opacity="1" stroke-width="1" stroke-linecap="square" stroke-linejoin="bevel" transform="matrix(0.833333,0,0,0.833333,1129.76,878.333)"
font-family="Ubuntu" font-size="13" font-weight="400" font-style="normal" 
>
</g>

<g fill="none" stroke="#111111" stroke-opacity="1" stroke-width="1" stroke-linecap="square" stroke-linejoin="bevel" transform="matrix(0.833333,0,0,0.833333,1129.76,878.333)"
font-family="Ubuntu" font-size="13" font-weight="400" font-style="normal" 
>
<text fill="#111111" fill-opacity="1" stroke="none" xml:space="preserve" x="0" y="10" font-family="Ubuntu" font-size="13" font-weight="400" font-style="normal" 
 >16:21:00.0</text>
</g>

<g fill="none" stroke="#111111" stroke-opacity="1" stroke-width="1" stroke-linecap="square" stroke-linejoin="bevel" transform="matrix(0.833333,0,0,0.833333,1129.76,878.333)"
font-family="Ubuntu" font-size="13" font-weight="400" font-style="normal" 
>
<text fill="#111111" fill-opacity="1" stroke="none" xml:space="preserve" x="0" y="25" font-family="Ubuntu" font-size="13" font-weight="400" font-style="normal" 
 >2024 Jul 10</text>
</g>

<g fill="none" stroke="#111111" stroke-opacity="1" stroke-width="1" stroke-linecap="square" stroke-linejoin="bevel" transform="matrix(0.833333,0,0,0.833333,1129.76,878.333)"
font-family="Ubuntu" font-size="13" font-weight="400" font-style="normal" 
>
</g>

<g fill="none" stroke="#111111" stroke-opacity="1" stroke-width="1" stroke-linecap="square" stroke-linejoin="bevel" transform="matrix(0.833333,0,0,0.833333,1129.76,878.333)"
font-family="Ubuntu" font-size="11.1111" font-weight="400" font-style="normal" 
>
</g>

<g fill="none" stroke="#111111" stroke-opacity="1" stroke-width="1" stroke-linecap="square" stroke-linejoin="bevel" transform="matrix(0.833333,0,0,0.833333,1129.76,878.333)"
font-family="Ubuntu" font-size="11.1111" font-weight="400" font-style="normal" 
>
</g>

<g fill="none" stroke="#111111" stroke-opacity="1" stroke-width="1" stroke-linecap="square" stroke-linejoin="bevel" transform="matrix(0.833333,0,0,0.833333,0,0)"
font-family="Ubuntu" font-size="11.1111" font-weight="400" font-style="normal" 
>
</g>

<g fill="none" stroke="#000000" stroke-opacity="1" stroke-width="1" stroke-linecap="square" stroke-linejoin="bevel" transform="matrix(0.833333,0,0,0.833333,0,0)"
font-family="Ubuntu" font-size="11.1111" font-weight="400" font-style="normal" 
>
</g>

<g fill="none" stroke="#111111" stroke-opacity="1" stroke-width="1" stroke-linecap="butt" stroke-linejoin="bevel" transform="matrix(0.833333,0,0,0.833333,0,0)"
font-family="Ubuntu" font-size="11.1111" font-weight="400" font-style="normal" 
>
<polyline fill="none" vector-effect="non-scaling-stroke" points="65.113,1040.5 65.113,1045.7 " />
<polyline fill="none" vector-effect="non-scaling-stroke" points="171.059,1040.5 171.059,1045.7 " />
<polyline fill="none" vector-effect="non-scaling-stroke" points="277.005,1040.5 277.005,1045.7 " />
<polyline fill="none" vector-effect="non-scaling-stroke" points="382.952,1040.5 382.952,1045.7 " />
<polyline fill="none" vector-effect="non-scaling-stroke" points="488.898,1040.5 488.898,1045.7 " />
<polyline fill="none" vector-effect="non-scaling-stroke" points="594.844,1040.5 594.844,1045.7 " />
<polyline fill="none" vector-effect="non-scaling-stroke" points="700.79,1040.5 700.79,1045.7 " />
<polyline fill="none" vector-effect="non-scaling-stroke" points="806.737,1040.5 806.737,1045.7 " />
<polyline fill="none" vector-effect="non-scaling-stroke" points="912.683,1040.5 912.683,1045.7 " />
<polyline fill="none" vector-effect="non-scaling-stroke" points="1018.63,1040.5 1018.63,1045.7 " />
<polyline fill="none" vector-effect="non-scaling-stroke" points="1124.58,1040.5 1124.58,1045.7 " />
<polyline fill="none" vector-effect="non-scaling-stroke" points="1230.52,1040.5 1230.52,1045.7 " />
<polyline fill="none" vector-effect="non-scaling-stroke" points="1336.47,1040.5 1336.47,1045.7 " />
<polyline fill="none" vector-effect="non-scaling-stroke" points="224.032,1040.5 224.032,1047.7 " />
<polyline fill="none" vector-effect="non-scaling-stroke" points="435.925,1040.5 435.925,1047.7 " />
<polyline fill="none" vector-effect="non-scaling-stroke" points="647.817,1040.5 647.817,1047.7 " />
<polyline fill="none" vector-effect="non-scaling-stroke" points="859.71,1040.5 859.71,1047.7 " />
<polyline fill="none" vector-effect="non-scaling-stroke" points="1071.6,1040.5 1071.6,1047.7 " />
<polyline fill="none" vector-effect="non-scaling-stroke" points="1283.49,1040.5 1283.49,1047.7 " />
<polyline fill="none" vector-effect="non-scaling-stroke" points="118.086,1040.5 118.086,1049.7 " />
<polyline fill="none" vector-effect="non-scaling-stroke" points="329.979,1040.5 329.979,1049.7 " />
<polyline fill="none" vector-effect="non-scaling-stroke" points="541.871,1040.5 541.871,1049.7 " />
<polyline fill="none" vector-effect="non-scaling-stroke" points="753.764,1040.5 753.764,1049.7 " />
<polyline fill="none" vector-effect="non-scaling-stroke" points="965.656,1040.5 965.656,1049.7 " />
<polyline fill="none" vector-effect="non-scaling-stroke" points="1177.55,1040.5 1177.55,1049.7 " />
<polyline fill="none" vector-effect="non-scaling-stroke" points="1389.44,1040.5 1389.44,1049.7 " />
</g>

<g fill="none" stroke="#000000" stroke-opacity="1" stroke-width="1" stroke-linecap="square" stroke-linejoin="bevel" transform="matrix(0.833333,0,0,0.833333,0,0)"
font-family="Ubuntu" font-size="11.1111" font-weight="400" font-style="normal" 
>
</g>

<g fill="none" stroke="#111111" stroke-opacity="1" stroke-width="1" stroke-linecap="butt" stroke-linejoin="bevel" transform="matrix(0.833333,0,0,0.833333,0,0)"
font-family="Ubuntu" font-size="11.1111" font-weight="400" font-style="normal" 
>
<polyline fill="none" vector-effect="non-scaling-stroke" points="39,1040.6 1438,1040.6 " />
</g>

<g fill="none" stroke="#000000" stroke-opacity="1" stroke-width="1" stroke-linecap="square" stroke-linejoin="bevel" transform="matrix(0.833333,0,0,0.833333,0,0)"
font-family="Ubuntu" font-size="11.1111" font-weight="400" font-style="normal" 
>
</g>

<g fill="none" stroke="#000000" stroke-opacity="1" stroke-width="1" stroke-linecap="square" stroke-linejoin="bevel" transform="matrix(0.833333,0,0,0.833333,0,0)"
font-family="Ubuntu" font-size="11.1111" font-weight="400" font-style="normal" 
>
</g>

<g fill="none" stroke="#000000" stroke-opacity="1" stroke-width="1" stroke-linecap="square" stroke-linejoin="bevel" transform="matrix(0.833333,0,0,0.833333,0,0)"
font-family="Ubuntu" font-size="12.2222" font-weight="400" font-style="normal" 
>
</g>

<g fill="none" stroke="#000000" stroke-opacity="1" stroke-width="1" stroke-linecap="square" stroke-linejoin="bevel" transform="matrix(1,0,0,1,0,0)"
font-family="Ubuntu" font-size="12.2222" font-weight="400" font-style="normal" 
>
</g>
</g>
</svg>
